solid OpenSCAD_Model
  facet normal 0 0 -1
    outer loop
      vertex 0 0 0
      vertex 0 4 0
      vertex 6.84999 4 0
    endloop
  endfacet
  facet normal 0 0 -1
    outer loop
      vertex 0 0 0
      vertex 6.84999 4 0
      vertex 13.15 4 0
    endloop
  endfacet
  facet normal 0 0 -1
    outer loop
      vertex 0 0 0
      vertex 13.15 4 0
      vertex 20 0 0
    endloop
  endfacet
  facet normal 0 0 -1
    outer loop
      vertex 13.15 4 0
      vertex 6.84999 4 0
      vertex 11.65 5.79999 0
    endloop
  endfacet
  facet normal 0 0 -1
    outer loop
      vertex 11.65 5.79999 0
      vertex 11.65 9.39999 0
      vertex 13.15 9.39999 0
    endloop
  endfacet
  facet normal 0 0 -1
    outer loop
      vertex 20 0 0
      vertex 13.15 4 0
      vertex 20 4 0
    endloop
  endfacet
  facet normal 0 0 -1
    outer loop
      vertex 13.15 4 0
      vertex 11.65 5.79999 0
      vertex 13.15 9.39999 0
    endloop
  endfacet
  facet normal -0 -0 -1
    outer loop
      vertex 8.34999 9.39999 0
      vertex 8.34999 5.79999 0
      vertex 6.84999 9.39999 0
    endloop
  endfacet
  facet normal 0 -0 -1
    outer loop
      vertex 8.34999 5.79999 0
      vertex 11.65 5.79999 0
      vertex 6.84999 4 0
    endloop
  endfacet
  facet normal 0 0 -1
    outer loop
      vertex 6.84999 9.39999 0
      vertex 8.34999 5.79999 0
      vertex 6.84999 4 0
    endloop
  endfacet
  facet normal 0 0 1
    outer loop
      vertex 6.84999 4 80
      vertex 0 4 80
      vertex 0 0 80
    endloop
  endfacet
  facet normal 0 0 1
    outer loop
      vertex 13.15 4 80
      vertex 6.84999 4 80
      vertex 0 0 80
    endloop
  endfacet
  facet normal 0 0 1
    outer loop
      vertex 20 0 80
      vertex 13.15 4 80
      vertex 0 0 80
    endloop
  endfacet
  facet normal 0 0 1
    outer loop
      vertex 11.65 5.79999 80
      vertex 6.84999 4 80
      vertex 13.15 4 80
    endloop
  endfacet
  facet normal 0 0 1
    outer loop
      vertex 13.15 9.39999 80
      vertex 11.65 9.39999 80
      vertex 11.65 5.79999 80
    endloop
  endfacet
  facet normal 0 0 1
    outer loop
      vertex 20 4 80
      vertex 13.15 4 80
      vertex 20 0 80
    endloop
  endfacet
  facet normal 0 0 1
    outer loop
      vertex 13.15 9.39999 80
      vertex 11.65 5.79999 80
      vertex 13.15 4 80
    endloop
  endfacet
  facet normal -0 0 1
    outer loop
      vertex 6.84999 9.39999 80
      vertex 8.34999 5.79999 80
      vertex 8.34999 9.39999 80
    endloop
  endfacet
  facet normal 0 0 1
    outer loop
      vertex 6.84999 4 80
      vertex 11.65 5.79999 80
      vertex 8.34999 5.79999 80
    endloop
  endfacet
  facet normal 0 0 1
    outer loop
      vertex 6.84999 4 80
      vertex 8.34999 5.79999 80
      vertex 6.84999 9.39999 80
    endloop
  endfacet
  facet normal -1 0 0
    outer loop
      vertex 0 0 0
      vertex 0 4 80
      vertex 0 4 0
    endloop
  endfacet
  facet normal -1 0 0
    outer loop
      vertex 0 0 0
      vertex 0 0 80
      vertex 0 4 80
    endloop
  endfacet
  facet normal 0 -1 0
    outer loop
      vertex 20 0 0
      vertex 0 0 80
      vertex 0 0 0
    endloop
  endfacet
  facet normal 0 -1 0
    outer loop
      vertex 20 0 0
      vertex 20 0 80
      vertex 0 0 80
    endloop
  endfacet
  facet normal 1 0 0
    outer loop
      vertex 20 4 0
      vertex 20 0 80
      vertex 20 0 0
    endloop
  endfacet
  facet normal 1 0 -0
    outer loop
      vertex 20 4 0
      vertex 20 4 80
      vertex 20 0 80
    endloop
  endfacet
  facet normal 0 1 0
    outer loop
      vertex 13.15 4 0
      vertex 20 4 80
      vertex 20 4 0
    endloop
  endfacet
  facet normal 0 1 0
    outer loop
      vertex 13.15 4 0
      vertex 13.15 4 80
      vertex 20 4 80
    endloop
  endfacet
  facet normal 1 0 0
    outer loop
      vertex 13.15 9.39999 0
      vertex 13.15 4 80
      vertex 13.15 4 0
    endloop
  endfacet
  facet normal 1 0 -0
    outer loop
      vertex 13.15 9.39999 0
      vertex 13.15 9.39999 80
      vertex 13.15 4 80
    endloop
  endfacet
  facet normal 0 1 0
    outer loop
      vertex 11.65 9.39999 0
      vertex 13.15 9.39999 80
      vertex 13.15 9.39999 0
    endloop
  endfacet
  facet normal 0 1 0
    outer loop
      vertex 11.65 9.39999 0
      vertex 11.65 9.39999 80
      vertex 13.15 9.39999 80
    endloop
  endfacet
  facet normal -1 0 0
    outer loop
      vertex 11.65 5.79999 0
      vertex 11.65 9.39999 80
      vertex 11.65 9.39999 0
    endloop
  endfacet
  facet normal -1 0 0
    outer loop
      vertex 11.65 5.79999 0
      vertex 11.65 5.79999 80
      vertex 11.65 9.39999 80
    endloop
  endfacet
  facet normal 0 1 0
    outer loop
      vertex 8.34999 5.79999 0
      vertex 11.65 5.79999 80
      vertex 11.65 5.79999 0
    endloop
  endfacet
  facet normal 0 1 0
    outer loop
      vertex 8.34999 5.79999 0
      vertex 8.34999 5.79999 80
      vertex 11.65 5.79999 80
    endloop
  endfacet
  facet normal 1 0 0
    outer loop
      vertex 8.34999 9.39999 0
      vertex 8.34999 5.79999 80
      vertex 8.34999 5.79999 0
    endloop
  endfacet
  facet normal 1 0 -0
    outer loop
      vertex 8.34999 9.39999 0
      vertex 8.34999 9.39999 80
      vertex 8.34999 5.79999 80
    endloop
  endfacet
  facet normal 0 1 0
    outer loop
      vertex 6.84999 9.39999 0
      vertex 8.34999 9.39999 80
      vertex 8.34999 9.39999 0
    endloop
  endfacet
  facet normal 0 1 0
    outer loop
      vertex 6.84999 9.39999 0
      vertex 6.84999 9.39999 80
      vertex 8.34999 9.39999 80
    endloop
  endfacet
  facet normal -1 0 0
    outer loop
      vertex 6.84999 4 0
      vertex 6.84999 9.39999 80
      vertex 6.84999 9.39999 0
    endloop
  endfacet
  facet normal -1 0 0
    outer loop
      vertex 6.84999 4 0
      vertex 6.84999 4 80
      vertex 6.84999 9.39999 80
    endloop
  endfacet
  facet normal 0 1 0
    outer loop
      vertex 0 4 0
      vertex 6.84999 4 80
      vertex 6.84999 4 0
    endloop
  endfacet
  facet normal 0 1 0
    outer loop
      vertex 0 4 0
      vertex 0 4 80
      vertex 6.84999 4 80
    endloop
  endfacet
endsolid OpenSCAD_Model
