solid OpenSCAD_Model
  facet normal 0 -1 0
    outer loop
      vertex -13.15 20 9.39999
      vertex -11.65 20 5.79999
      vertex -11.65 20 9.39999
    endloop
  endfacet
  facet normal 0 -1 -0
    outer loop
      vertex -11.65 20 5.79999
      vertex -13.15 20 4
      vertex -8.34999 20 5.79999
    endloop
  endfacet
  facet normal 0 -1 0
    outer loop
      vertex -13.15 20 4
      vertex -11.65 20 5.79999
      vertex -13.15 20 9.39999
    endloop
  endfacet
  facet normal 0 -1 0
    outer loop
      vertex -8.34999 20 5.79999
      vertex -6.84999 20 9.39999
      vertex -8.34999 20 9.39999
    endloop
  endfacet
  facet normal 0 -1 0
    outer loop
      vertex -8.34999 20 5.79999
      vertex -6.84999 20 4
      vertex -6.84999 20 9.39999
    endloop
  endfacet
  facet normal 0 -1 0
    outer loop
      vertex -6.84999 20 4
      vertex -8.34999 20 5.79999
      vertex -13.15 20 4
    endloop
  endfacet
  facet normal 0 1 0
    outer loop
      vertex -6.84999 110 9.39999
      vertex -8.34999 110 5.79999
      vertex -8.34999 110 9.39999
    endloop
  endfacet
  facet normal 0 1 0
    outer loop
      vertex -8.34999 110 5.79999
      vertex -6.84999 110 4
      vertex -11.65 110 5.79999
    endloop
  endfacet
  facet normal 0 1 -0
    outer loop
      vertex -6.84999 110 4
      vertex -8.34999 110 5.79999
      vertex -6.84999 110 9.39999
    endloop
  endfacet
  facet normal 0 1 -0
    outer loop
      vertex -11.65 110 5.79999
      vertex -13.15 110 9.39999
      vertex -11.65 110 9.39999
    endloop
  endfacet
  facet normal 0 1 0
    outer loop
      vertex -11.65 110 5.79999
      vertex -13.15 110 4
      vertex -13.15 110 9.39999
    endloop
  endfacet
  facet normal 0 1 0
    outer loop
      vertex -13.15 110 4
      vertex -11.65 110 5.79999
      vertex -6.84999 110 4
    endloop
  endfacet
  facet normal 0 1 -0
    outer loop
      vertex 0 110 0
      vertex -6.84999 110 4
      vertex 0 110 4
    endloop
  endfacet
  facet normal 0 1 0
    outer loop
      vertex -6.84999 110 4
      vertex 0 110 0
      vertex -13.15 110 4
    endloop
  endfacet
  facet normal 0 1 0
    outer loop
      vertex -20 110 0
      vertex -13.15 110 4
      vertex 0 110 0
    endloop
  endfacet
  facet normal 0 1 0
    outer loop
      vertex -13.15 110 4
      vertex -20 110 0
      vertex -20 110 4
    endloop
  endfacet
  facet normal 1 -0 0
    outer loop
      vertex 0 20 4
      vertex 0 110 0
      vertex 0 110 4
    endloop
  endfacet
  facet normal 1 0 0
    outer loop
      vertex 0 110 0
      vertex 0 20 4
      vertex 0 20 0
    endloop
  endfacet
  facet normal 0 0 -1
    outer loop
      vertex 80 0 0
      vertex 0 20 0
      vertex 80 20 0
    endloop
  endfacet
  facet normal 0 0 -1
    outer loop
      vertex -20 0 0
      vertex 0 20 0
      vertex 80 0 0
    endloop
  endfacet
  facet normal 0 0 -1
    outer loop
      vertex -20 110 0
      vertex 0 20 0
      vertex -20 0 0
    endloop
  endfacet
  facet normal 0 0 -1
    outer loop
      vertex 0 20 0
      vertex -20 110 0
      vertex 0 110 0
    endloop
  endfacet
  facet normal -1 0 0
    outer loop
      vertex -20 0 0
      vertex -20 110 4
      vertex -20 110 0
    endloop
  endfacet
  facet normal -1 -0 0
    outer loop
      vertex -20 110 4
      vertex -20 0 0
      vertex -20 0 4
    endloop
  endfacet
  facet normal 0 0 1
    outer loop
      vertex -13.15 110 4
      vertex -20 110 4
      vertex -13.15 20 4
    endloop
  endfacet
  facet normal 0 0 1
    outer loop
      vertex -6.84999 20 4
      vertex 0 20 4
      vertex 0 110 4
    endloop
  endfacet
  facet normal 0 0 1
    outer loop
      vertex 0 20 4
      vertex -6.84999 20 4
      vertex 0 13.15 4
    endloop
  endfacet
  facet normal 0 0 1
    outer loop
      vertex -6.84999 20 4
      vertex 0 110 4
      vertex -6.84999 110 4
    endloop
  endfacet
  facet normal -0 0 1
    outer loop
      vertex 0 20 4
      vertex 80 13.15 4
      vertex 80 20 4
    endloop
  endfacet
  facet normal 0 0 1
    outer loop
      vertex 80 13.15 4
      vertex 0 20 4
      vertex 0 13.15 4
    endloop
  endfacet
  facet normal -0 0 1
    outer loop
      vertex 0 6.84999 4
      vertex 80 0 4
      vertex 80 6.84999 4
    endloop
  endfacet
  facet normal 0 0 1
    outer loop
      vertex 0 13.15 4
      vertex -6.84999 20 4
      vertex 0 6.84999 4
    endloop
  endfacet
  facet normal -0 0 1
    outer loop
      vertex -13.15 20 4
      vertex 0 6.84999 4
      vertex -6.84999 20 4
    endloop
  endfacet
  facet normal 0 0 1
    outer loop
      vertex 0 6.84999 4
      vertex -20 0 4
      vertex 80 0 4
    endloop
  endfacet
  facet normal 0 0 1
    outer loop
      vertex -13.15 20 4
      vertex -20 0 4
      vertex 0 6.84999 4
    endloop
  endfacet
  facet normal 0 0 1
    outer loop
      vertex -20 0 4
      vertex -13.15 20 4
      vertex -20 110 4
    endloop
  endfacet
  facet normal -1 0 0
    outer loop
      vertex -13.15 20 4
      vertex -13.15 110 9.39999
      vertex -13.15 110 4
    endloop
  endfacet
  facet normal -1 -0 0
    outer loop
      vertex -13.15 110 9.39999
      vertex -13.15 20 4
      vertex -13.15 20 9.39999
    endloop
  endfacet
  facet normal -0 0 1
    outer loop
      vertex -13.15 110 9.39999
      vertex -11.65 20 9.39999
      vertex -11.65 110 9.39999
    endloop
  endfacet
  facet normal 0 0 1
    outer loop
      vertex -11.65 20 9.39999
      vertex -13.15 110 9.39999
      vertex -13.15 20 9.39999
    endloop
  endfacet
  facet normal 1 -0 0
    outer loop
      vertex -11.65 20 9.39999
      vertex -11.65 110 5.79999
      vertex -11.65 110 9.39999
    endloop
  endfacet
  facet normal 1 0 0
    outer loop
      vertex -11.65 110 5.79999
      vertex -11.65 20 9.39999
      vertex -11.65 20 5.79999
    endloop
  endfacet
  facet normal -0 0 1
    outer loop
      vertex -11.65 110 5.79999
      vertex -8.34999 20 5.79999
      vertex -8.34999 110 5.79999
    endloop
  endfacet
  facet normal 0 0 1
    outer loop
      vertex -8.34999 20 5.79999
      vertex -11.65 110 5.79999
      vertex -11.65 20 5.79999
    endloop
  endfacet
  facet normal -1 0 0
    outer loop
      vertex -8.34999 20 5.79999
      vertex -8.34999 110 9.39999
      vertex -8.34999 110 5.79999
    endloop
  endfacet
  facet normal -1 -0 0
    outer loop
      vertex -8.34999 110 9.39999
      vertex -8.34999 20 5.79999
      vertex -8.34999 20 9.39999
    endloop
  endfacet
  facet normal -0 0 1
    outer loop
      vertex -8.34999 110 9.39999
      vertex -6.84999 20 9.39999
      vertex -6.84999 110 9.39999
    endloop
  endfacet
  facet normal 0 0 1
    outer loop
      vertex -6.84999 20 9.39999
      vertex -8.34999 110 9.39999
      vertex -8.34999 20 9.39999
    endloop
  endfacet
  facet normal 1 -0 0
    outer loop
      vertex -6.84999 20 9.39999
      vertex -6.84999 110 4
      vertex -6.84999 110 9.39999
    endloop
  endfacet
  facet normal 1 0 0
    outer loop
      vertex -6.84999 110 4
      vertex -6.84999 20 9.39999
      vertex -6.84999 20 4
    endloop
  endfacet
  facet normal -1 0 0
    outer loop
      vertex 0 13.15 4
      vertex 0 11.65 5.79999
      vertex 0 13.15 9.39999
    endloop
  endfacet
  facet normal -1 0 0
    outer loop
      vertex 0 13.15 4
      vertex 0 8.34999 5.79999
      vertex 0 11.65 5.79999
    endloop
  endfacet
  facet normal -1 0 0
    outer loop
      vertex 0 6.84999 4
      vertex 0 8.34999 5.79999
      vertex 0 13.15 4
    endloop
  endfacet
  facet normal -1 0 0
    outer loop
      vertex 0 6.84999 9.39999
      vertex 0 8.34999 5.79999
      vertex 0 6.84999 4
    endloop
  endfacet
  facet normal -1 0 0
    outer loop
      vertex 0 8.34999 5.79999
      vertex 0 6.84999 9.39999
      vertex 0 8.34999 9.39999
    endloop
  endfacet
  facet normal -1 -0 0
    outer loop
      vertex 0 13.15 9.39999
      vertex 0 11.65 5.79999
      vertex 0 11.65 9.39999
    endloop
  endfacet
  facet normal 1 0 0
    outer loop
      vertex 80 8.34999 9.39999
      vertex 80 6.84999 9.39999
      vertex 80 8.34999 5.79999
    endloop
  endfacet
  facet normal 1 0 0
    outer loop
      vertex 80 11.65 5.79999
      vertex 80 13.15 9.39999
      vertex 80 11.65 9.39999
    endloop
  endfacet
  facet normal 1 -0 0
    outer loop
      vertex 80 13.15 4
      vertex 80 20 0
      vertex 80 20 4
    endloop
  endfacet
  facet normal 1 0 0
    outer loop
      vertex 80 13.15 9.39999
      vertex 80 11.65 5.79999
      vertex 80 13.15 4
    endloop
  endfacet
  facet normal 1 -0 0
    outer loop
      vertex 80 8.34999 5.79999
      vertex 80 13.15 4
      vertex 80 11.65 5.79999
    endloop
  endfacet
  facet normal 1 0 0
    outer loop
      vertex 80 6.84999 4
      vertex 80 13.15 4
      vertex 80 8.34999 5.79999
    endloop
  endfacet
  facet normal 1 0 0
    outer loop
      vertex 80 6.84999 4
      vertex 80 8.34999 5.79999
      vertex 80 6.84999 9.39999
    endloop
  endfacet
  facet normal 1 0 0
    outer loop
      vertex 80 13.15 4
      vertex 80 6.84999 4
      vertex 80 20 0
    endloop
  endfacet
  facet normal 1 0 0
    outer loop
      vertex 80 0 0
      vertex 80 6.84999 4
      vertex 80 0 4
    endloop
  endfacet
  facet normal 1 0 0
    outer loop
      vertex 80 6.84999 4
      vertex 80 0 0
      vertex 80 20 0
    endloop
  endfacet
  facet normal 0 -1 0
    outer loop
      vertex -20 0 0
      vertex 80 0 4
      vertex -20 0 4
    endloop
  endfacet
  facet normal 0 -1 -0
    outer loop
      vertex 80 0 4
      vertex -20 0 0
      vertex 80 0 0
    endloop
  endfacet
  facet normal 0 1 -0
    outer loop
      vertex 80 20 0
      vertex 0 20 4
      vertex 80 20 4
    endloop
  endfacet
  facet normal 0 1 0
    outer loop
      vertex 0 20 4
      vertex 80 20 0
      vertex 0 20 0
    endloop
  endfacet
  facet normal 0 1 -0
    outer loop
      vertex 80 13.15 4
      vertex 0 13.15 9.39999
      vertex 80 13.15 9.39999
    endloop
  endfacet
  facet normal 0 1 0
    outer loop
      vertex 0 13.15 9.39999
      vertex 80 13.15 4
      vertex 0 13.15 4
    endloop
  endfacet
  facet normal -0 0 1
    outer loop
      vertex 0 13.15 9.39999
      vertex 80 11.65 9.39999
      vertex 80 13.15 9.39999
    endloop
  endfacet
  facet normal 0 0 1
    outer loop
      vertex 80 11.65 9.39999
      vertex 0 13.15 9.39999
      vertex 0 11.65 9.39999
    endloop
  endfacet
  facet normal 0 -1 0
    outer loop
      vertex 0 11.65 5.79999
      vertex 80 11.65 9.39999
      vertex 0 11.65 9.39999
    endloop
  endfacet
  facet normal 0 -1 -0
    outer loop
      vertex 80 11.65 9.39999
      vertex 0 11.65 5.79999
      vertex 80 11.65 5.79999
    endloop
  endfacet
  facet normal -0 0 1
    outer loop
      vertex 0 11.65 5.79999
      vertex 80 8.34999 5.79999
      vertex 80 11.65 5.79999
    endloop
  endfacet
  facet normal 0 0 1
    outer loop
      vertex 80 8.34999 5.79999
      vertex 0 11.65 5.79999
      vertex 0 8.34999 5.79999
    endloop
  endfacet
  facet normal 0 1 -0
    outer loop
      vertex 80 8.34999 5.79999
      vertex 0 8.34999 9.39999
      vertex 80 8.34999 9.39999
    endloop
  endfacet
  facet normal 0 1 0
    outer loop
      vertex 0 8.34999 9.39999
      vertex 80 8.34999 5.79999
      vertex 0 8.34999 5.79999
    endloop
  endfacet
  facet normal -0 0 1
    outer loop
      vertex 0 8.34999 9.39999
      vertex 80 6.84999 9.39999
      vertex 80 8.34999 9.39999
    endloop
  endfacet
  facet normal 0 0 1
    outer loop
      vertex 80 6.84999 9.39999
      vertex 0 8.34999 9.39999
      vertex 0 6.84999 9.39999
    endloop
  endfacet
  facet normal 0 -1 0
    outer loop
      vertex 0 6.84999 4
      vertex 80 6.84999 9.39999
      vertex 0 6.84999 9.39999
    endloop
  endfacet
  facet normal 0 -1 -0
    outer loop
      vertex 80 6.84999 9.39999
      vertex 0 6.84999 4
      vertex 80 6.84999 4
    endloop
  endfacet
endsolid OpenSCAD_Model
