solid OpenSCAD_Model
  facet normal 0 -0 -1
    outer loop
      vertex 6.715 7.33252 0
      vertex 6.89999 7.41879 0
      vertex 6.53651 7.20755 0
    endloop
  endfacet
  facet normal 0 0 -1
    outer loop
      vertex 0 0 0
      vertex 12.1 3 0
      vertex 20 0 0
    endloop
  endfacet
  facet normal 0 0 -1
    outer loop
      vertex 12.1 7.36282 0
      vertex 11.429 6.46706 0
      vertex 11.4854 6.67752 0
    endloop
  endfacet
  facet normal 0 0 -1
    outer loop
      vertex 6.89999 7.41879 0
      vertex 6.38243 7.05348 0
      vertex 6.53651 7.20755 0
    endloop
  endfacet
  facet normal 0 0 -1
    outer loop
      vertex 6.89999 7.41879 0
      vertex 6.25746 6.875 0
      vertex 6.38243 7.05348 0
    endloop
  endfacet
  facet normal 0 0 -1
    outer loop
      vertex 7.89999 7.36282 0
      vertex 6.16537 6.67752 0
      vertex 6.25746 6.875 0
    endloop
  endfacet
  facet normal 0 0 -1
    outer loop
      vertex 7.89999 7.36282 0
      vertex 6.10898 6.46706 0
      vertex 6.16537 6.67752 0
    endloop
  endfacet
  facet normal 0 0 -1
    outer loop
      vertex 7.89999 5.13716 0
      vertex 6.09 6.25 0
      vertex 7.89999 7.36282 0
    endloop
  endfacet
  facet normal 0 0 -1
    outer loop
      vertex 6.16537 5.82246 0
      vertex 6.10898 6.03293 0
      vertex 7.89999 5.13716 0
    endloop
  endfacet
  facet normal 0 0 -1
    outer loop
      vertex 6.25746 5.625 0
      vertex 6.16537 5.82246 0
      vertex 7.89999 5.13716 0
    endloop
  endfacet
  facet normal -0 -0 -1
    outer loop
      vertex 20 3 0
      vertex 20 0 0
      vertex 13.1 3 0
    endloop
  endfacet
  facet normal 0 0 -1
    outer loop
      vertex 6.89999 5.08119 0
      vertex 6.25746 5.625 0
      vertex 7.89999 5.13716 0
    endloop
  endfacet
  facet normal 0 0 -1
    outer loop
      vertex 6.89999 5.08119 0
      vertex 6.38243 5.4465 0
      vertex 6.25746 5.625 0
    endloop
  endfacet
  facet normal 0 0 -1
    outer loop
      vertex 6.89999 5.08119 0
      vertex 6.53651 5.29243 0
      vertex 6.38243 5.4465 0
    endloop
  endfacet
  facet normal 0 0 -1
    outer loop
      vertex 6.89999 5.08119 0
      vertex 6.715 5.16747 0
      vertex 6.53651 5.29243 0
    endloop
  endfacet
  facet normal 0 0 -1
    outer loop
      vertex 7.89999 5.13716 0
      vertex 6.10898 6.03293 0
      vertex 6.09 6.25 0
    endloop
  endfacet
  facet normal -0 0 -1
    outer loop
      vertex 6.89999 3 0
      vertex 0 0 0
      vertex 0 3 0
    endloop
  endfacet
  facet normal -0 -0 -1
    outer loop
      vertex 13.1 3 0
      vertex 20 0 0
      vertex 12.1 3 0
    endloop
  endfacet
  facet normal 0 0 -1
    outer loop
      vertex 6.89999 3 0
      vertex 6.89999 5.08119 0
      vertex 7.89999 3 0
    endloop
  endfacet
  facet normal 0 0 -1
    outer loop
      vertex 0 0 0
      vertex 7.89999 3 0
      vertex 12.1 3 0
    endloop
  endfacet
  facet normal 0 -0 -1
    outer loop
      vertex 13.1 7.41879 0
      vertex 13.7425 6.875 0
      vertex 12.1 7.36282 0
    endloop
  endfacet
  facet normal -0 0 -1
    outer loop
      vertex 13.285 5.16747 0
      vertex 13.1 5.08119 0
      vertex 13.4635 5.29243 0
    endloop
  endfacet
  facet normal 0 0 -1
    outer loop
      vertex 13.6176 5.4465 0
      vertex 13.4635 5.29243 0
      vertex 13.1 5.08119 0
    endloop
  endfacet
  facet normal 0 0 -1
    outer loop
      vertex 13.7425 5.625 0
      vertex 13.6176 5.4465 0
      vertex 13.1 5.08119 0
    endloop
  endfacet
  facet normal 0 0 -1
    outer loop
      vertex 13.8346 5.82246 0
      vertex 13.7425 5.625 0
      vertex 12.1 5.13716 0
    endloop
  endfacet
  facet normal 0 0 -1
    outer loop
      vertex 13.891 6.03293 0
      vertex 13.8346 5.82246 0
      vertex 12.1 5.13716 0
    endloop
  endfacet
  facet normal -0 0 -1
    outer loop
      vertex 13.91 6.25 0
      vertex 12.1 5.13716 0
      vertex 12.1 7.36282 0
    endloop
  endfacet
  facet normal 0 0 -1
    outer loop
      vertex 13.891 6.46706 0
      vertex 12.1 7.36282 0
      vertex 13.8346 6.67752 0
    endloop
  endfacet
  facet normal 0 0 -1
    outer loop
      vertex 13.8346 6.67752 0
      vertex 12.1 7.36282 0
      vertex 13.7425 6.875 0
    endloop
  endfacet
  facet normal 0 0 -1
    outer loop
      vertex 13.7425 6.875 0
      vertex 13.1 7.41879 0
      vertex 13.6176 7.05348 0
    endloop
  endfacet
  facet normal 0 0 -1
    outer loop
      vertex 13.6176 7.05348 0
      vertex 13.1 7.41879 0
      vertex 13.4635 7.20755 0
    endloop
  endfacet
  facet normal 0 0 -1
    outer loop
      vertex 13.4635 7.20755 0
      vertex 13.1 7.41879 0
      vertex 13.285 7.33252 0
    endloop
  endfacet
  facet normal 0 0 -1
    outer loop
      vertex 13.91 6.25 0
      vertex 12.1 7.36282 0
      vertex 13.891 6.46706 0
    endloop
  endfacet
  facet normal -0 0 -1
    outer loop
      vertex 13.1 7.41879 0
      vertex 12.1 7.36282 0
      vertex 12.1 7.5 0
    endloop
  endfacet
  facet normal 0 0 -1
    outer loop
      vertex 6.09 6.25 0
      vertex 6.10898 6.46706 0
      vertex 7.89999 7.36282 0
    endloop
  endfacet
  facet normal -0 0 -1
    outer loop
      vertex 8.42253 5.625 0
      vertex 7.89999 5.13716 0
      vertex 8.5146 5.82246 0
    endloop
  endfacet
  facet normal 0 0 -1
    outer loop
      vertex 12.1 7.5 0
      vertex 13.1 7.5 0
      vertex 13.1 7.41879 0
    endloop
  endfacet
  facet normal 0 0 -1
    outer loop
      vertex 12.1 5.13716 0
      vertex 13.91 6.25 0
      vertex 13.891 6.03293 0
    endloop
  endfacet
  facet normal -0 -0 -1
    outer loop
      vertex 8.29755 7.05348 0
      vertex 8.42253 6.875 0
      vertex 7.89999 7.36282 0
    endloop
  endfacet
  facet normal 0 0 -1
    outer loop
      vertex 11.8565 7.20755 0
      vertex 12.035 7.33252 0
      vertex 12.1 7.36282 0
    endloop
  endfacet
  facet normal 0 0 -1
    outer loop
      vertex 11.7024 7.05348 0
      vertex 11.8565 7.20755 0
      vertex 12.1 7.36282 0
    endloop
  endfacet
  facet normal 0 0 -1
    outer loop
      vertex 11.5775 6.875 0
      vertex 11.7024 7.05348 0
      vertex 12.1 7.36282 0
    endloop
  endfacet
  facet normal 0 0 -1
    outer loop
      vertex 11.4854 6.67752 0
      vertex 11.5775 6.875 0
      vertex 12.1 7.36282 0
    endloop
  endfacet
  facet normal -0 -0 -1
    outer loop
      vertex 8.5146 6.67752 0
      vertex 8.571 6.46706 0
      vertex 7.89999 7.36282 0
    endloop
  endfacet
  facet normal 0 -0 -1
    outer loop
      vertex 11.429 6.46706 0
      vertex 12.1 7.36282 0
      vertex 11.41 6.25 0
    endloop
  endfacet
  facet normal 0 0 -1
    outer loop
      vertex 8.59 6.25 0
      vertex 8.571 6.03293 0
      vertex 7.89999 5.13716 0
    endloop
  endfacet
  facet normal 0 0 -1
    outer loop
      vertex 11.41 6.25 0
      vertex 12.1 5.13716 0
      vertex 11.429 6.03293 0
    endloop
  endfacet
  facet normal 0 0 -1
    outer loop
      vertex 7.89999 5.13716 0
      vertex 8.42253 5.625 0
      vertex 8.29755 5.4465 0
    endloop
  endfacet
  facet normal 0 0 -1
    outer loop
      vertex 11.429 6.03293 0
      vertex 12.1 5.13716 0
      vertex 11.4854 5.82246 0
    endloop
  endfacet
  facet normal 0 0 -1
    outer loop
      vertex 7.89999 5.13716 0
      vertex 8.14348 5.29243 0
      vertex 7.965 5.16747 0
    endloop
  endfacet
  facet normal 0 0 -1
    outer loop
      vertex 11.4854 5.82246 0
      vertex 12.1 5.13716 0
      vertex 11.5775 5.625 0
    endloop
  endfacet
  facet normal 0 0 -1
    outer loop
      vertex 11.5775 5.625 0
      vertex 12.1 5.13716 0
      vertex 11.7024 5.4465 0
    endloop
  endfacet
  facet normal 0 0 -1
    outer loop
      vertex 7.89999 3 0
      vertex 6.89999 5.08119 0
      vertex 7.89999 5.13716 0
    endloop
  endfacet
  facet normal 0 0 -1
    outer loop
      vertex 11.7024 5.4465 0
      vertex 12.1 5.13716 0
      vertex 11.8565 5.29243 0
    endloop
  endfacet
  facet normal 0 0 -1
    outer loop
      vertex 11.8565 5.29243 0
      vertex 12.1 5.13716 0
      vertex 12.035 5.16747 0
    endloop
  endfacet
  facet normal 0 0 -1
    outer loop
      vertex 11.41 6.25 0
      vertex 12.1 7.36282 0
      vertex 12.1 5.13716 0
    endloop
  endfacet
  facet normal 0 0 -1
    outer loop
      vertex 12.1 3 0
      vertex 12.1 5.13716 0
      vertex 13.1 5.08119 0
    endloop
  endfacet
  facet normal 0 0 -1
    outer loop
      vertex 12.1 5.13716 0
      vertex 13.7425 5.625 0
      vertex 13.1 5.08119 0
    endloop
  endfacet
  facet normal 0 0 -1
    outer loop
      vertex 13.1 3 0
      vertex 12.1 3 0
      vertex 13.1 5.08119 0
    endloop
  endfacet
  facet normal 0 -0 -1
    outer loop
      vertex 6.89999 3 0
      vertex 7.89999 3 0
      vertex 0 0 0
    endloop
  endfacet
  facet normal 0 0 -1
    outer loop
      vertex 7.89999 5.13716 0
      vertex 8.29755 5.4465 0
      vertex 8.14348 5.29243 0
    endloop
  endfacet
  facet normal 0 0 -1
    outer loop
      vertex 8.571 6.03293 0
      vertex 8.5146 5.82246 0
      vertex 7.89999 5.13716 0
    endloop
  endfacet
  facet normal -0 -0 -1
    outer loop
      vertex 8.571 6.46706 0
      vertex 8.59 6.25 0
      vertex 7.89999 7.36282 0
    endloop
  endfacet
  facet normal -0 -0 -1
    outer loop
      vertex 8.42253 6.875 0
      vertex 8.5146 6.67752 0
      vertex 7.89999 7.36282 0
    endloop
  endfacet
  facet normal -0 -0 -1
    outer loop
      vertex 8.14348 7.20755 0
      vertex 8.29755 7.05348 0
      vertex 7.89999 7.36282 0
    endloop
  endfacet
  facet normal -0 -0 -1
    outer loop
      vertex 7.965 7.33252 0
      vertex 8.14348 7.20755 0
      vertex 7.89999 7.36282 0
    endloop
  endfacet
  facet normal 0 0 -1
    outer loop
      vertex 7.89999 7.36282 0
      vertex 8.59 6.25 0
      vertex 7.89999 5.13716 0
    endloop
  endfacet
  facet normal 0 -0 -1
    outer loop
      vertex 6.89999 7.41879 0
      vertex 7.89999 7.36282 0
      vertex 6.25746 6.875 0
    endloop
  endfacet
  facet normal 0 0 -1
    outer loop
      vertex 6.89999 7.41879 0
      vertex 7.89999 7.5 0
      vertex 7.89999 7.36282 0
    endloop
  endfacet
  facet normal 0 0 -1
    outer loop
      vertex 6.89999 7.41879 0
      vertex 6.89999 7.5 0
      vertex 7.89999 7.5 0
    endloop
  endfacet
  facet normal 0 0 1
    outer loop
      vertex 6.53651 7.20755 10
      vertex 6.89999 7.41879 10
      vertex 6.715 7.33252 10
    endloop
  endfacet
  facet normal 0 0 1
    outer loop
      vertex 20 0 10
      vertex 12.1 3 10
      vertex 0 0 10
    endloop
  endfacet
  facet normal -0 0 1
    outer loop
      vertex 11.4854 6.67752 10
      vertex 11.429 6.46706 10
      vertex 12.1 7.36282 10
    endloop
  endfacet
  facet normal -0 0 1
    outer loop
      vertex 6.53651 7.20755 10
      vertex 6.38243 7.05348 10
      vertex 6.89999 7.41879 10
    endloop
  endfacet
  facet normal -0 0 1
    outer loop
      vertex 6.38243 7.05348 10
      vertex 6.25746 6.875 10
      vertex 6.89999 7.41879 10
    endloop
  endfacet
  facet normal -0 0 1
    outer loop
      vertex 6.25746 6.875 10
      vertex 6.16537 6.67752 10
      vertex 7.89999 7.36282 10
    endloop
  endfacet
  facet normal -0 0 1
    outer loop
      vertex 6.16537 6.67752 10
      vertex 6.10898 6.46706 10
      vertex 7.89999 7.36282 10
    endloop
  endfacet
  facet normal 0 0 1
    outer loop
      vertex 7.89999 7.36282 10
      vertex 6.09 6.25 10
      vertex 7.89999 5.13716 10
    endloop
  endfacet
  facet normal 0 0 1
    outer loop
      vertex 7.89999 5.13716 10
      vertex 6.10898 6.03293 10
      vertex 6.16537 5.82246 10
    endloop
  endfacet
  facet normal 0 0 1
    outer loop
      vertex 7.89999 5.13716 10
      vertex 6.16537 5.82246 10
      vertex 6.25746 5.625 10
    endloop
  endfacet
  facet normal -0 0 1
    outer loop
      vertex 13.1 3 10
      vertex 20 0 10
      vertex 20 3 10
    endloop
  endfacet
  facet normal 0 0 1
    outer loop
      vertex 7.89999 5.13716 10
      vertex 6.25746 5.625 10
      vertex 6.89999 5.08119 10
    endloop
  endfacet
  facet normal 0 0 1
    outer loop
      vertex 6.25746 5.625 10
      vertex 6.38243 5.4465 10
      vertex 6.89999 5.08119 10
    endloop
  endfacet
  facet normal 0 0 1
    outer loop
      vertex 6.38243 5.4465 10
      vertex 6.53651 5.29243 10
      vertex 6.89999 5.08119 10
    endloop
  endfacet
  facet normal 0 0 1
    outer loop
      vertex 6.53651 5.29243 10
      vertex 6.715 5.16747 10
      vertex 6.89999 5.08119 10
    endloop
  endfacet
  facet normal 0 0 1
    outer loop
      vertex 6.09 6.25 10
      vertex 6.10898 6.03293 10
      vertex 7.89999 5.13716 10
    endloop
  endfacet
  facet normal -0 0 1
    outer loop
      vertex 0 3 10
      vertex 0 0 10
      vertex 6.89999 3 10
    endloop
  endfacet
  facet normal -0 0 1
    outer loop
      vertex 12.1 3 10
      vertex 20 0 10
      vertex 13.1 3 10
    endloop
  endfacet
  facet normal 0 0 1
    outer loop
      vertex 7.89999 3 10
      vertex 6.89999 5.08119 10
      vertex 6.89999 3 10
    endloop
  endfacet
  facet normal 0 0 1
    outer loop
      vertex 12.1 3 10
      vertex 7.89999 3 10
      vertex 0 0 10
    endloop
  endfacet
  facet normal -0 0 1
    outer loop
      vertex 12.1 7.36282 10
      vertex 13.7425 6.875 10
      vertex 13.1 7.41879 10
    endloop
  endfacet
  facet normal 0 0 1
    outer loop
      vertex 13.4635 5.29243 10
      vertex 13.1 5.08119 10
      vertex 13.285 5.16747 10
    endloop
  endfacet
  facet normal 0 0 1
    outer loop
      vertex 13.1 5.08119 10
      vertex 13.4635 5.29243 10
      vertex 13.6176 5.4465 10
    endloop
  endfacet
  facet normal 0 0 1
    outer loop
      vertex 13.1 5.08119 10
      vertex 13.6176 5.4465 10
      vertex 13.7425 5.625 10
    endloop
  endfacet
  facet normal 0 0 1
    outer loop
      vertex 12.1 5.13716 10
      vertex 13.7425 5.625 10
      vertex 13.8346 5.82246 10
    endloop
  endfacet
  facet normal 0 0 1
    outer loop
      vertex 12.1 5.13716 10
      vertex 13.8346 5.82246 10
      vertex 13.891 6.03293 10
    endloop
  endfacet
  facet normal 0 0 1
    outer loop
      vertex 12.1 7.36282 10
      vertex 12.1 5.13716 10
      vertex 13.91 6.25 10
    endloop
  endfacet
  facet normal 0 0 1
    outer loop
      vertex 13.8346 6.67752 10
      vertex 12.1 7.36282 10
      vertex 13.891 6.46706 10
    endloop
  endfacet
  facet normal 0 0 1
    outer loop
      vertex 13.7425 6.875 10
      vertex 12.1 7.36282 10
      vertex 13.8346 6.67752 10
    endloop
  endfacet
  facet normal 0 0 1
    outer loop
      vertex 13.6176 7.05348 10
      vertex 13.1 7.41879 10
      vertex 13.7425 6.875 10
    endloop
  endfacet
  facet normal 0 0 1
    outer loop
      vertex 13.4635 7.20755 10
      vertex 13.1 7.41879 10
      vertex 13.6176 7.05348 10
    endloop
  endfacet
  facet normal 0 0 1
    outer loop
      vertex 13.285 7.33252 10
      vertex 13.1 7.41879 10
      vertex 13.4635 7.20755 10
    endloop
  endfacet
  facet normal 0 0 1
    outer loop
      vertex 13.891 6.46706 10
      vertex 12.1 7.36282 10
      vertex 13.91 6.25 10
    endloop
  endfacet
  facet normal 0 0 1
    outer loop
      vertex 12.1 7.5 10
      vertex 12.1 7.36282 10
      vertex 13.1 7.41879 10
    endloop
  endfacet
  facet normal 0 0 1
    outer loop
      vertex 7.89999 7.36282 10
      vertex 6.10898 6.46706 10
      vertex 6.09 6.25 10
    endloop
  endfacet
  facet normal 0 0 1
    outer loop
      vertex 8.5146 5.82246 10
      vertex 7.89999 5.13716 10
      vertex 8.42253 5.625 10
    endloop
  endfacet
  facet normal 0 -0 1
    outer loop
      vertex 13.1 7.41879 10
      vertex 13.1 7.5 10
      vertex 12.1 7.5 10
    endloop
  endfacet
  facet normal 0 -0 1
    outer loop
      vertex 13.891 6.03293 10
      vertex 13.91 6.25 10
      vertex 12.1 5.13716 10
    endloop
  endfacet
  facet normal 0 0 1
    outer loop
      vertex 7.89999 7.36282 10
      vertex 8.42253 6.875 10
      vertex 8.29755 7.05348 10
    endloop
  endfacet
  facet normal 0 0 1
    outer loop
      vertex 12.1 7.36282 10
      vertex 12.035 7.33252 10
      vertex 11.8565 7.20755 10
    endloop
  endfacet
  facet normal 0 0 1
    outer loop
      vertex 12.1 7.36282 10
      vertex 11.8565 7.20755 10
      vertex 11.7024 7.05348 10
    endloop
  endfacet
  facet normal 0 0 1
    outer loop
      vertex 12.1 7.36282 10
      vertex 11.7024 7.05348 10
      vertex 11.5775 6.875 10
    endloop
  endfacet
  facet normal 0 0 1
    outer loop
      vertex 12.1 7.36282 10
      vertex 11.5775 6.875 10
      vertex 11.4854 6.67752 10
    endloop
  endfacet
  facet normal 0 0 1
    outer loop
      vertex 7.89999 7.36282 10
      vertex 8.571 6.46706 10
      vertex 8.5146 6.67752 10
    endloop
  endfacet
  facet normal 0 0 1
    outer loop
      vertex 11.41 6.25 10
      vertex 12.1 7.36282 10
      vertex 11.429 6.46706 10
    endloop
  endfacet
  facet normal 0 0 1
    outer loop
      vertex 7.89999 5.13716 10
      vertex 8.571 6.03293 10
      vertex 8.59 6.25 10
    endloop
  endfacet
  facet normal -0 -0 1
    outer loop
      vertex 11.429 6.03293 10
      vertex 12.1 5.13716 10
      vertex 11.41 6.25 10
    endloop
  endfacet
  facet normal 0 -0 1
    outer loop
      vertex 8.29755 5.4465 10
      vertex 8.42253 5.625 10
      vertex 7.89999 5.13716 10
    endloop
  endfacet
  facet normal -0 -0 1
    outer loop
      vertex 11.4854 5.82246 10
      vertex 12.1 5.13716 10
      vertex 11.429 6.03293 10
    endloop
  endfacet
  facet normal 0 -0 1
    outer loop
      vertex 7.965 5.16747 10
      vertex 8.14348 5.29243 10
      vertex 7.89999 5.13716 10
    endloop
  endfacet
  facet normal -0 -0 1
    outer loop
      vertex 11.5775 5.625 10
      vertex 12.1 5.13716 10
      vertex 11.4854 5.82246 10
    endloop
  endfacet
  facet normal -0 -0 1
    outer loop
      vertex 11.7024 5.4465 10
      vertex 12.1 5.13716 10
      vertex 11.5775 5.625 10
    endloop
  endfacet
  facet normal 0 0 1
    outer loop
      vertex 7.89999 5.13716 10
      vertex 6.89999 5.08119 10
      vertex 7.89999 3 10
    endloop
  endfacet
  facet normal -0 -0 1
    outer loop
      vertex 11.8565 5.29243 10
      vertex 12.1 5.13716 10
      vertex 11.7024 5.4465 10
    endloop
  endfacet
  facet normal -0 -0 1
    outer loop
      vertex 12.035 5.16747 10
      vertex 12.1 5.13716 10
      vertex 11.8565 5.29243 10
    endloop
  endfacet
  facet normal 0 -0 1
    outer loop
      vertex 12.1 5.13716 10
      vertex 12.1 7.36282 10
      vertex 11.41 6.25 10
    endloop
  endfacet
  facet normal 0 0 1
    outer loop
      vertex 13.1 5.08119 10
      vertex 12.1 5.13716 10
      vertex 12.1 3 10
    endloop
  endfacet
  facet normal 0 -0 1
    outer loop
      vertex 13.1 5.08119 10
      vertex 13.7425 5.625 10
      vertex 12.1 5.13716 10
    endloop
  endfacet
  facet normal 0 0 1
    outer loop
      vertex 13.1 5.08119 10
      vertex 12.1 3 10
      vertex 13.1 3 10
    endloop
  endfacet
  facet normal 0 0 1
    outer loop
      vertex 0 0 10
      vertex 7.89999 3 10
      vertex 6.89999 3 10
    endloop
  endfacet
  facet normal 0 -0 1
    outer loop
      vertex 8.14348 5.29243 10
      vertex 8.29755 5.4465 10
      vertex 7.89999 5.13716 10
    endloop
  endfacet
  facet normal 0 0 1
    outer loop
      vertex 7.89999 5.13716 10
      vertex 8.5146 5.82246 10
      vertex 8.571 6.03293 10
    endloop
  endfacet
  facet normal 0 0 1
    outer loop
      vertex 7.89999 7.36282 10
      vertex 8.59 6.25 10
      vertex 8.571 6.46706 10
    endloop
  endfacet
  facet normal 0 0 1
    outer loop
      vertex 7.89999 7.36282 10
      vertex 8.5146 6.67752 10
      vertex 8.42253 6.875 10
    endloop
  endfacet
  facet normal 0 0 1
    outer loop
      vertex 7.89999 7.36282 10
      vertex 8.29755 7.05348 10
      vertex 8.14348 7.20755 10
    endloop
  endfacet
  facet normal 0 0 1
    outer loop
      vertex 7.89999 7.36282 10
      vertex 8.14348 7.20755 10
      vertex 7.965 7.33252 10
    endloop
  endfacet
  facet normal 0 0 1
    outer loop
      vertex 7.89999 5.13716 10
      vertex 8.59 6.25 10
      vertex 7.89999 7.36282 10
    endloop
  endfacet
  facet normal 0 0 1
    outer loop
      vertex 6.25746 6.875 10
      vertex 7.89999 7.36282 10
      vertex 6.89999 7.41879 10
    endloop
  endfacet
  facet normal 0 -0 1
    outer loop
      vertex 7.89999 7.36282 10
      vertex 7.89999 7.5 10
      vertex 6.89999 7.41879 10
    endloop
  endfacet
  facet normal 0 0 1
    outer loop
      vertex 7.89999 7.5 10
      vertex 6.89999 7.5 10
      vertex 6.89999 7.41879 10
    endloop
  endfacet
  facet normal -0.422649 0.906293 0
    outer loop
      vertex 6.715 7.33252 0
      vertex 6.89999 7.41879 10
      vertex 6.89999 7.41879 0
    endloop
  endfacet
  facet normal -0.422649 0.906293 0
    outer loop
      vertex 6.715 7.33252 0
      vertex 6.715 7.33252 10
      vertex 6.89999 7.41879 10
    endloop
  endfacet
  facet normal -0.573546 0.819174 0
    outer loop
      vertex 6.53651 7.20755 0
      vertex 6.715 7.33252 10
      vertex 6.715 7.33252 0
    endloop
  endfacet
  facet normal -0.573546 0.819174 0
    outer loop
      vertex 6.53651 7.20755 0
      vertex 6.53651 7.20755 10
      vertex 6.715 7.33252 10
    endloop
  endfacet
  facet normal -0.707084 0.70713 0
    outer loop
      vertex 6.38243 7.05348 0
      vertex 6.53651 7.20755 10
      vertex 6.53651 7.20755 0
    endloop
  endfacet
  facet normal -0.707084 0.70713 0
    outer loop
      vertex 6.38243 7.05348 0
      vertex 6.38243 7.05348 10
      vertex 6.53651 7.20755 10
    endloop
  endfacet
  facet normal -0.819159 0.573567 0
    outer loop
      vertex 6.25746 6.875 0
      vertex 6.38243 7.05348 10
      vertex 6.38243 7.05348 0
    endloop
  endfacet
  facet normal -0.819159 0.573567 0
    outer loop
      vertex 6.25746 6.875 0
      vertex 6.25746 6.875 10
      vertex 6.38243 7.05348 10
    endloop
  endfacet
  facet normal -0.906302 0.422632 0
    outer loop
      vertex 6.16537 6.67752 0
      vertex 6.25746 6.875 10
      vertex 6.25746 6.875 0
    endloop
  endfacet
  facet normal -0.906302 0.422632 0
    outer loop
      vertex 6.16537 6.67752 0
      vertex 6.16537 6.67752 10
      vertex 6.25746 6.875 10
    endloop
  endfacet
  facet normal -0.965929 0.258808 0
    outer loop
      vertex 6.10898 6.46706 0
      vertex 6.16537 6.67752 10
      vertex 6.16537 6.67752 0
    endloop
  endfacet
  facet normal -0.965929 0.258808 0
    outer loop
      vertex 6.10898 6.46706 0
      vertex 6.10898 6.46706 10
      vertex 6.16537 6.67752 10
    endloop
  endfacet
  facet normal -0.996199 0.0871089 0
    outer loop
      vertex 6.09 6.25 0
      vertex 6.10898 6.46706 10
      vertex 6.10898 6.46706 0
    endloop
  endfacet
  facet normal -0.996199 0.0871089 0
    outer loop
      vertex 6.09 6.25 0
      vertex 6.09 6.25 10
      vertex 6.10898 6.46706 10
    endloop
  endfacet
  facet normal -0.996199 -0.0871049 0
    outer loop
      vertex 6.10898 6.03293 0
      vertex 6.09 6.25 10
      vertex 6.09 6.25 0
    endloop
  endfacet
  facet normal -0.996199 -0.0871049 0
    outer loop
      vertex 6.10898 6.03293 0
      vertex 6.10898 6.03293 10
      vertex 6.09 6.25 10
    endloop
  endfacet
  facet normal -0.965932 -0.258796 0
    outer loop
      vertex 6.16537 5.82246 0
      vertex 6.10898 6.03293 10
      vertex 6.10898 6.03293 0
    endloop
  endfacet
  facet normal -0.965932 -0.258796 0
    outer loop
      vertex 6.16537 5.82246 0
      vertex 6.16537 5.82246 10
      vertex 6.10898 6.03293 10
    endloop
  endfacet
  facet normal -0.906285 -0.422667 0
    outer loop
      vertex 6.25746 5.625 0
      vertex 6.16537 5.82246 10
      vertex 6.16537 5.82246 0
    endloop
  endfacet
  facet normal -0.906285 -0.422667 0
    outer loop
      vertex 6.25746 5.625 0
      vertex 6.25746 5.625 10
      vertex 6.16537 5.82246 10
    endloop
  endfacet
  facet normal -0.819189 -0.573524 0
    outer loop
      vertex 6.38243 5.4465 0
      vertex 6.25746 5.625 10
      vertex 6.25746 5.625 0
    endloop
  endfacet
  facet normal -0.819189 -0.573524 0
    outer loop
      vertex 6.38243 5.4465 0
      vertex 6.38243 5.4465 10
      vertex 6.25746 5.625 10
    endloop
  endfacet
  facet normal -0.707084 -0.70713 0
    outer loop
      vertex 6.53651 5.29243 0
      vertex 6.38243 5.4465 10
      vertex 6.38243 5.4465 0
    endloop
  endfacet
  facet normal -0.707084 -0.70713 0
    outer loop
      vertex 6.53651 5.29243 0
      vertex 6.53651 5.29243 10
      vertex 6.38243 5.4465 10
    endloop
  endfacet
  facet normal -0.573515 -0.819195 0
    outer loop
      vertex 6.715 5.16747 0
      vertex 6.53651 5.29243 10
      vertex 6.53651 5.29243 0
    endloop
  endfacet
  facet normal -0.573515 -0.819195 0
    outer loop
      vertex 6.715 5.16747 0
      vertex 6.715 5.16747 10
      vertex 6.53651 5.29243 10
    endloop
  endfacet
  facet normal -0.42269 -0.906274 0
    outer loop
      vertex 6.89999 5.08119 0
      vertex 6.715 5.16747 10
      vertex 6.715 5.16747 0
    endloop
  endfacet
  facet normal -0.42269 -0.906274 0
    outer loop
      vertex 6.89999 5.08119 0
      vertex 6.89999 5.08119 10
      vertex 6.715 5.16747 10
    endloop
  endfacet
  facet normal -1 0 0
    outer loop
      vertex 6.89999 3 0
      vertex 6.89999 5.08119 10
      vertex 6.89999 5.08119 0
    endloop
  endfacet
  facet normal -1 0 0
    outer loop
      vertex 6.89999 3 0
      vertex 6.89999 3 10
      vertex 6.89999 5.08119 10
    endloop
  endfacet
  facet normal 0 1 0
    outer loop
      vertex 0 3 0
      vertex 6.89999 3 10
      vertex 6.89999 3 0
    endloop
  endfacet
  facet normal 0 1 0
    outer loop
      vertex 0 3 0
      vertex 0 3 10
      vertex 6.89999 3 10
    endloop
  endfacet
  facet normal -1 0 0
    outer loop
      vertex 0 0 0
      vertex 0 3 10
      vertex 0 3 0
    endloop
  endfacet
  facet normal -1 0 0
    outer loop
      vertex 0 0 0
      vertex 0 0 10
      vertex 0 3 10
    endloop
  endfacet
  facet normal 0 -1 0
    outer loop
      vertex 20 0 0
      vertex 0 0 10
      vertex 0 0 0
    endloop
  endfacet
  facet normal 0 -1 0
    outer loop
      vertex 20 0 0
      vertex 20 0 10
      vertex 0 0 10
    endloop
  endfacet
  facet normal 1 0 0
    outer loop
      vertex 20 3 0
      vertex 20 0 10
      vertex 20 0 0
    endloop
  endfacet
  facet normal 1 0 -0
    outer loop
      vertex 20 3 0
      vertex 20 3 10
      vertex 20 0 10
    endloop
  endfacet
  facet normal 0 1 0
    outer loop
      vertex 13.1 3 0
      vertex 20 3 10
      vertex 20 3 0
    endloop
  endfacet
  facet normal 0 1 0
    outer loop
      vertex 13.1 3 0
      vertex 13.1 3 10
      vertex 20 3 10
    endloop
  endfacet
  facet normal 1 0 0
    outer loop
      vertex 13.1 5.08119 0
      vertex 13.1 3 10
      vertex 13.1 3 0
    endloop
  endfacet
  facet normal 1 0 -0
    outer loop
      vertex 13.1 5.08119 0
      vertex 13.1 5.08119 10
      vertex 13.1 3 10
    endloop
  endfacet
  facet normal 0.422671 -0.906283 0
    outer loop
      vertex 13.285 5.16747 0
      vertex 13.1 5.08119 10
      vertex 13.1 5.08119 0
    endloop
  endfacet
  facet normal 0.422671 -0.906283 0
    outer loop
      vertex 13.285 5.16747 0
      vertex 13.285 5.16747 10
      vertex 13.1 5.08119 10
    endloop
  endfacet
  facet normal 0.573493 -0.81921 0
    outer loop
      vertex 13.4635 5.29243 0
      vertex 13.285 5.16747 10
      vertex 13.285 5.16747 0
    endloop
  endfacet
  facet normal 0.573493 -0.81921 0
    outer loop
      vertex 13.4635 5.29243 0
      vertex 13.4635 5.29243 10
      vertex 13.285 5.16747 10
    endloop
  endfacet
  facet normal 0.707038 -0.707176 0
    outer loop
      vertex 13.6176 5.4465 0
      vertex 13.4635 5.29243 10
      vertex 13.4635 5.29243 0
    endloop
  endfacet
  facet normal 0.707038 -0.707176 0
    outer loop
      vertex 13.6176 5.4465 0
      vertex 13.6176 5.4465 10
      vertex 13.4635 5.29243 10
    endloop
  endfacet
  facet normal 0.81934 -0.573308 0
    outer loop
      vertex 13.7425 5.625 0
      vertex 13.6176 5.4465 10
      vertex 13.6176 5.4465 0
    endloop
  endfacet
  facet normal 0.81934 -0.573308 0
    outer loop
      vertex 13.7425 5.625 0
      vertex 13.7425 5.625 10
      vertex 13.6176 5.4465 10
    endloop
  endfacet
  facet normal 0.906268 -0.422705 0
    outer loop
      vertex 13.8346 5.82246 0
      vertex 13.7425 5.625 10
      vertex 13.7425 5.625 0
    endloop
  endfacet
  facet normal 0.906268 -0.422705 0
    outer loop
      vertex 13.8346 5.82246 0
      vertex 13.8346 5.82246 10
      vertex 13.7425 5.625 10
    endloop
  endfacet
  facet normal 0.96592 -0.258839 0
    outer loop
      vertex 13.891 6.03293 0
      vertex 13.8346 5.82246 10
      vertex 13.8346 5.82246 0
    endloop
  endfacet
  facet normal 0.96592 -0.258839 0
    outer loop
      vertex 13.891 6.03293 0
      vertex 13.891 6.03293 10
      vertex 13.8346 5.82246 10
    endloop
  endfacet
  facet normal 0.996191 -0.087196 0
    outer loop
      vertex 13.91 6.25 0
      vertex 13.891 6.03293 10
      vertex 13.891 6.03293 0
    endloop
  endfacet
  facet normal 0.996191 -0.087196 0
    outer loop
      vertex 13.91 6.25 0
      vertex 13.91 6.25 10
      vertex 13.891 6.03293 10
    endloop
  endfacet
  facet normal 0.996191 0.0872 0
    outer loop
      vertex 13.891 6.46706 0
      vertex 13.91 6.25 10
      vertex 13.91 6.25 0
    endloop
  endfacet
  facet normal 0.996191 0.0872 -0
    outer loop
      vertex 13.891 6.46706 0
      vertex 13.891 6.46706 10
      vertex 13.91 6.25 10
    endloop
  endfacet
  facet normal 0.965917 0.258851 0
    outer loop
      vertex 13.8346 6.67752 0
      vertex 13.891 6.46706 10
      vertex 13.891 6.46706 0
    endloop
  endfacet
  facet normal 0.965917 0.258851 -0
    outer loop
      vertex 13.8346 6.67752 0
      vertex 13.8346 6.67752 10
      vertex 13.891 6.46706 10
    endloop
  endfacet
  facet normal 0.906284 0.422669 0
    outer loop
      vertex 13.7425 6.875 0
      vertex 13.8346 6.67752 10
      vertex 13.8346 6.67752 0
    endloop
  endfacet
  facet normal 0.906284 0.422669 -0
    outer loop
      vertex 13.7425 6.875 0
      vertex 13.7425 6.875 10
      vertex 13.8346 6.67752 10
    endloop
  endfacet
  facet normal 0.81931 0.573351 0
    outer loop
      vertex 13.6176 7.05348 0
      vertex 13.7425 6.875 10
      vertex 13.7425 6.875 0
    endloop
  endfacet
  facet normal 0.81931 0.573351 -0
    outer loop
      vertex 13.6176 7.05348 0
      vertex 13.6176 7.05348 10
      vertex 13.7425 6.875 10
    endloop
  endfacet
  facet normal 0.707038 0.707176 0
    outer loop
      vertex 13.4635 7.20755 0
      vertex 13.6176 7.05348 10
      vertex 13.6176 7.05348 0
    endloop
  endfacet
  facet normal 0.707038 0.707176 -0
    outer loop
      vertex 13.4635 7.20755 0
      vertex 13.4635 7.20755 10
      vertex 13.6176 7.05348 10
    endloop
  endfacet
  facet normal 0.573524 0.819189 0
    outer loop
      vertex 13.285 7.33252 0
      vertex 13.4635 7.20755 10
      vertex 13.4635 7.20755 0
    endloop
  endfacet
  facet normal 0.573524 0.819189 -0
    outer loop
      vertex 13.285 7.33252 0
      vertex 13.285 7.33252 10
      vertex 13.4635 7.20755 10
    endloop
  endfacet
  facet normal 0.422631 0.906302 0
    outer loop
      vertex 13.1 7.41879 0
      vertex 13.285 7.33252 10
      vertex 13.285 7.33252 0
    endloop
  endfacet
  facet normal 0.422631 0.906302 -0
    outer loop
      vertex 13.1 7.41879 0
      vertex 13.1 7.41879 10
      vertex 13.285 7.33252 10
    endloop
  endfacet
  facet normal 1 0 0
    outer loop
      vertex 13.1 7.5 0
      vertex 13.1 7.41879 10
      vertex 13.1 7.41879 0
    endloop
  endfacet
  facet normal 1 0 -0
    outer loop
      vertex 13.1 7.5 0
      vertex 13.1 7.5 10
      vertex 13.1 7.41879 10
    endloop
  endfacet
  facet normal 0 1 0
    outer loop
      vertex 12.1 7.5 0
      vertex 13.1 7.5 10
      vertex 13.1 7.5 0
    endloop
  endfacet
  facet normal 0 1 0
    outer loop
      vertex 12.1 7.5 0
      vertex 12.1 7.5 10
      vertex 13.1 7.5 10
    endloop
  endfacet
  facet normal -1 0 0
    outer loop
      vertex 12.1 7.36282 0
      vertex 12.1 7.5 10
      vertex 12.1 7.5 0
    endloop
  endfacet
  facet normal -1 0 0
    outer loop
      vertex 12.1 7.36282 0
      vertex 12.1 7.36282 10
      vertex 12.1 7.5 10
    endloop
  endfacet
  facet normal -0.422504 0.906361 0
    outer loop
      vertex 12.035 7.33252 0
      vertex 12.1 7.36282 10
      vertex 12.1 7.36282 0
    endloop
  endfacet
  facet normal -0.422504 0.906361 0
    outer loop
      vertex 12.035 7.33252 0
      vertex 12.035 7.33252 10
      vertex 12.1 7.36282 10
    endloop
  endfacet
  facet normal -0.573524 0.819189 0
    outer loop
      vertex 11.8565 7.20755 0
      vertex 12.035 7.33252 10
      vertex 12.035 7.33252 0
    endloop
  endfacet
  facet normal -0.573524 0.819189 0
    outer loop
      vertex 11.8565 7.20755 0
      vertex 11.8565 7.20755 10
      vertex 12.035 7.33252 10
    endloop
  endfacet
  facet normal -0.707038 0.707176 0
    outer loop
      vertex 11.7024 7.05348 0
      vertex 11.8565 7.20755 10
      vertex 11.8565 7.20755 0
    endloop
  endfacet
  facet normal -0.707038 0.707176 0
    outer loop
      vertex 11.7024 7.05348 0
      vertex 11.7024 7.05348 10
      vertex 11.8565 7.20755 10
    endloop
  endfacet
  facet normal -0.81931 0.573351 0
    outer loop
      vertex 11.5775 6.875 0
      vertex 11.7024 7.05348 10
      vertex 11.7024 7.05348 0
    endloop
  endfacet
  facet normal -0.81931 0.573351 0
    outer loop
      vertex 11.5775 6.875 0
      vertex 11.5775 6.875 10
      vertex 11.7024 7.05348 10
    endloop
  endfacet
  facet normal -0.906284 0.422669 0
    outer loop
      vertex 11.4854 6.67752 0
      vertex 11.5775 6.875 10
      vertex 11.5775 6.875 0
    endloop
  endfacet
  facet normal -0.906284 0.422669 0
    outer loop
      vertex 11.4854 6.67752 0
      vertex 11.4854 6.67752 10
      vertex 11.5775 6.875 10
    endloop
  endfacet
  facet normal -0.965917 0.258851 0
    outer loop
      vertex 11.429 6.46706 0
      vertex 11.4854 6.67752 10
      vertex 11.4854 6.67752 0
    endloop
  endfacet
  facet normal -0.965917 0.258851 0
    outer loop
      vertex 11.429 6.46706 0
      vertex 11.429 6.46706 10
      vertex 11.4854 6.67752 10
    endloop
  endfacet
  facet normal -0.996191 0.0872 0
    outer loop
      vertex 11.41 6.25 0
      vertex 11.429 6.46706 10
      vertex 11.429 6.46706 0
    endloop
  endfacet
  facet normal -0.996191 0.0872 0
    outer loop
      vertex 11.41 6.25 0
      vertex 11.41 6.25 10
      vertex 11.429 6.46706 10
    endloop
  endfacet
  facet normal -0.996191 -0.087196 0
    outer loop
      vertex 11.429 6.03293 0
      vertex 11.41 6.25 10
      vertex 11.41 6.25 0
    endloop
  endfacet
  facet normal -0.996191 -0.087196 0
    outer loop
      vertex 11.429 6.03293 0
      vertex 11.429 6.03293 10
      vertex 11.41 6.25 10
    endloop
  endfacet
  facet normal -0.96592 -0.258839 0
    outer loop
      vertex 11.4854 5.82246 0
      vertex 11.429 6.03293 10
      vertex 11.429 6.03293 0
    endloop
  endfacet
  facet normal -0.96592 -0.258839 0
    outer loop
      vertex 11.4854 5.82246 0
      vertex 11.4854 5.82246 10
      vertex 11.429 6.03293 10
    endloop
  endfacet
  facet normal -0.906268 -0.422705 0
    outer loop
      vertex 11.5775 5.625 0
      vertex 11.4854 5.82246 10
      vertex 11.4854 5.82246 0
    endloop
  endfacet
  facet normal -0.906268 -0.422705 0
    outer loop
      vertex 11.5775 5.625 0
      vertex 11.5775 5.625 10
      vertex 11.4854 5.82246 10
    endloop
  endfacet
  facet normal -0.81934 -0.573308 0
    outer loop
      vertex 11.7024 5.4465 0
      vertex 11.5775 5.625 10
      vertex 11.5775 5.625 0
    endloop
  endfacet
  facet normal -0.81934 -0.573308 0
    outer loop
      vertex 11.7024 5.4465 0
      vertex 11.7024 5.4465 10
      vertex 11.5775 5.625 10
    endloop
  endfacet
  facet normal -0.707038 -0.707176 0
    outer loop
      vertex 11.8565 5.29243 0
      vertex 11.7024 5.4465 10
      vertex 11.7024 5.4465 0
    endloop
  endfacet
  facet normal -0.707038 -0.707176 0
    outer loop
      vertex 11.8565 5.29243 0
      vertex 11.8565 5.29243 10
      vertex 11.7024 5.4465 10
    endloop
  endfacet
  facet normal -0.573493 -0.81921 0
    outer loop
      vertex 12.035 5.16747 0
      vertex 11.8565 5.29243 10
      vertex 11.8565 5.29243 0
    endloop
  endfacet
  facet normal -0.573493 -0.81921 0
    outer loop
      vertex 12.035 5.16747 0
      vertex 12.035 5.16747 10
      vertex 11.8565 5.29243 10
    endloop
  endfacet
  facet normal -0.422618 -0.906308 0
    outer loop
      vertex 12.1 5.13716 0
      vertex 12.035 5.16747 10
      vertex 12.035 5.16747 0
    endloop
  endfacet
  facet normal -0.422618 -0.906308 0
    outer loop
      vertex 12.1 5.13716 0
      vertex 12.1 5.13716 10
      vertex 12.035 5.16747 10
    endloop
  endfacet
  facet normal -1 0 0
    outer loop
      vertex 12.1 3 0
      vertex 12.1 5.13716 10
      vertex 12.1 5.13716 0
    endloop
  endfacet
  facet normal -1 0 0
    outer loop
      vertex 12.1 3 0
      vertex 12.1 3 10
      vertex 12.1 5.13716 10
    endloop
  endfacet
  facet normal 0 1 0
    outer loop
      vertex 7.89999 3 0
      vertex 12.1 3 10
      vertex 12.1 3 0
    endloop
  endfacet
  facet normal 0 1 0
    outer loop
      vertex 7.89999 3 0
      vertex 7.89999 3 10
      vertex 12.1 3 10
    endloop
  endfacet
  facet normal 1 0 0
    outer loop
      vertex 7.89999 5.13716 0
      vertex 7.89999 3 10
      vertex 7.89999 3 0
    endloop
  endfacet
  facet normal 1 0 -0
    outer loop
      vertex 7.89999 5.13716 0
      vertex 7.89999 5.13716 10
      vertex 7.89999 3 10
    endloop
  endfacet
  facet normal 0.422565 -0.906333 0
    outer loop
      vertex 7.965 5.16747 0
      vertex 7.89999 5.13716 10
      vertex 7.89999 5.13716 0
    endloop
  endfacet
  facet normal 0.422565 -0.906333 0
    outer loop
      vertex 7.965 5.16747 0
      vertex 7.965 5.16747 10
      vertex 7.89999 5.13716 10
    endloop
  endfacet
  facet normal 0.573536 -0.81918 0
    outer loop
      vertex 8.14348 5.29243 0
      vertex 7.965 5.16747 10
      vertex 7.965 5.16747 0
    endloop
  endfacet
  facet normal 0.573536 -0.81918 0
    outer loop
      vertex 8.14348 5.29243 0
      vertex 8.14348 5.29243 10
      vertex 7.965 5.16747 10
    endloop
  endfacet
  facet normal 0.707107 -0.707107 0
    outer loop
      vertex 8.29755 5.4465 0
      vertex 8.14348 5.29243 10
      vertex 8.14348 5.29243 0
    endloop
  endfacet
  facet normal 0.707107 -0.707107 0
    outer loop
      vertex 8.29755 5.4465 0
      vertex 8.29755 5.4465 10
      vertex 8.14348 5.29243 10
    endloop
  endfacet
  facet normal 0.819167 -0.573555 0
    outer loop
      vertex 8.42253 5.625 0
      vertex 8.29755 5.4465 10
      vertex 8.29755 5.4465 0
    endloop
  endfacet
  facet normal 0.819167 -0.573555 0
    outer loop
      vertex 8.42253 5.625 0
      vertex 8.42253 5.625 10
      vertex 8.29755 5.4465 10
    endloop
  endfacet
  facet normal 0.90632 -0.422591 0
    outer loop
      vertex 8.5146 5.82246 0
      vertex 8.42253 5.625 10
      vertex 8.42253 5.625 0
    endloop
  endfacet
  facet normal 0.90632 -0.422591 0
    outer loop
      vertex 8.5146 5.82246 0
      vertex 8.5146 5.82246 10
      vertex 8.42253 5.625 10
    endloop
  endfacet
  facet normal 0.96592 -0.258839 0
    outer loop
      vertex 8.571 6.03293 0
      vertex 8.5146 5.82246 10
      vertex 8.5146 5.82246 0
    endloop
  endfacet
  facet normal 0.96592 -0.258839 0
    outer loop
      vertex 8.571 6.03293 0
      vertex 8.571 6.03293 10
      vertex 8.5146 5.82246 10
    endloop
  endfacet
  facet normal 0.996191 -0.087196 0
    outer loop
      vertex 8.59 6.25 0
      vertex 8.571 6.03293 10
      vertex 8.571 6.03293 0
    endloop
  endfacet
  facet normal 0.996191 -0.087196 0
    outer loop
      vertex 8.59 6.25 0
      vertex 8.59 6.25 10
      vertex 8.571 6.03293 10
    endloop
  endfacet
  facet normal 0.996191 0.0872 0
    outer loop
      vertex 8.571 6.46706 0
      vertex 8.59 6.25 10
      vertex 8.59 6.25 0
    endloop
  endfacet
  facet normal 0.996191 0.0872 -0
    outer loop
      vertex 8.571 6.46706 0
      vertex 8.571 6.46706 10
      vertex 8.59 6.25 10
    endloop
  endfacet
  facet normal 0.965917 0.258851 0
    outer loop
      vertex 8.5146 6.67752 0
      vertex 8.571 6.46706 10
      vertex 8.571 6.46706 0
    endloop
  endfacet
  facet normal 0.965917 0.258851 -0
    outer loop
      vertex 8.5146 6.67752 0
      vertex 8.5146 6.67752 10
      vertex 8.571 6.46706 10
    endloop
  endfacet
  facet normal 0.906337 0.422556 0
    outer loop
      vertex 8.42253 6.875 0
      vertex 8.5146 6.67752 10
      vertex 8.5146 6.67752 0
    endloop
  endfacet
  facet normal 0.906337 0.422556 -0
    outer loop
      vertex 8.42253 6.875 0
      vertex 8.42253 6.875 10
      vertex 8.5146 6.67752 10
    endloop
  endfacet
  facet normal 0.819137 0.573598 0
    outer loop
      vertex 8.29755 7.05348 0
      vertex 8.42253 6.875 10
      vertex 8.42253 6.875 0
    endloop
  endfacet
  facet normal 0.819137 0.573598 -0
    outer loop
      vertex 8.29755 7.05348 0
      vertex 8.29755 7.05348 10
      vertex 8.42253 6.875 10
    endloop
  endfacet
  facet normal 0.707107 0.707107 0
    outer loop
      vertex 8.14348 7.20755 0
      vertex 8.29755 7.05348 10
      vertex 8.29755 7.05348 0
    endloop
  endfacet
  facet normal 0.707107 0.707107 -0
    outer loop
      vertex 8.14348 7.20755 0
      vertex 8.14348 7.20755 10
      vertex 8.29755 7.05348 10
    endloop
  endfacet
  facet normal 0.573567 0.819159 0
    outer loop
      vertex 7.965 7.33252 0
      vertex 8.14348 7.20755 10
      vertex 8.14348 7.20755 0
    endloop
  endfacet
  facet normal 0.573567 0.819159 -0
    outer loop
      vertex 7.965 7.33252 0
      vertex 7.965 7.33252 10
      vertex 8.14348 7.20755 10
    endloop
  endfacet
  facet normal 0.42245 0.906386 0
    outer loop
      vertex 7.89999 7.36282 0
      vertex 7.965 7.33252 10
      vertex 7.965 7.33252 0
    endloop
  endfacet
  facet normal 0.42245 0.906386 -0
    outer loop
      vertex 7.89999 7.36282 0
      vertex 7.89999 7.36282 10
      vertex 7.965 7.33252 10
    endloop
  endfacet
  facet normal 1 0 0
    outer loop
      vertex 7.89999 7.5 0
      vertex 7.89999 7.36282 10
      vertex 7.89999 7.36282 0
    endloop
  endfacet
  facet normal 1 0 -0
    outer loop
      vertex 7.89999 7.5 0
      vertex 7.89999 7.5 10
      vertex 7.89999 7.36282 10
    endloop
  endfacet
  facet normal 0 1 0
    outer loop
      vertex 6.89999 7.5 0
      vertex 7.89999 7.5 10
      vertex 7.89999 7.5 0
    endloop
  endfacet
  facet normal 0 1 0
    outer loop
      vertex 6.89999 7.5 0
      vertex 6.89999 7.5 10
      vertex 7.89999 7.5 10
    endloop
  endfacet
  facet normal -1 0 0
    outer loop
      vertex 6.89999 7.41879 0
      vertex 6.89999 7.5 10
      vertex 6.89999 7.5 0
    endloop
  endfacet
  facet normal -1 0 0
    outer loop
      vertex 6.89999 7.41879 0
      vertex 6.89999 7.41879 10
      vertex 6.89999 7.5 10
    endloop
  endfacet
endsolid OpenSCAD_Model
