solid OpenSCAD_Model
  facet normal 0 0 -1
    outer loop
      vertex 20 0 0
      vertex 12.1 3 0
      vertex 13.1 3 0
    endloop
  endfacet
  facet normal 0 0 -1
    outer loop
      vertex 13.1 3 0
      vertex 12.1 6.59999 0
      vertex 13.1 6.59999 0
    endloop
  endfacet
  facet normal 0 0 -1
    outer loop
      vertex 0 0 0
      vertex 12.1 3 0
      vertex 20 0 0
    endloop
  endfacet
  facet normal 0 0 -1
    outer loop
      vertex 20 0 0
      vertex 13.1 3 0
      vertex 20 3 0
    endloop
  endfacet
  facet normal 0 -0 -1
    outer loop
      vertex 7.89999 3 0
      vertex 12.1 3 0
      vertex 0 0 0
    endloop
  endfacet
  facet normal 0 0 -1
    outer loop
      vertex 12.1 3 0
      vertex 12.1 6.59999 0
      vertex 13.1 3 0
    endloop
  endfacet
  facet normal 0 -0 -1
    outer loop
      vertex 6.89999 3 0
      vertex 7.89999 3 0
      vertex 0 0 0
    endloop
  endfacet
  facet normal 0 0 -1
    outer loop
      vertex 6.89999 6.59999 0
      vertex 7.89999 6.59999 0
      vertex 7.89999 3 0
    endloop
  endfacet
  facet normal 0 0 -1
    outer loop
      vertex 0 3 0
      vertex 6.89999 3 0
      vertex 0 0 0
    endloop
  endfacet
  facet normal 0 0 -1
    outer loop
      vertex 6.89999 3 0
      vertex 6.89999 6.59999 0
      vertex 7.89999 3 0
    endloop
  endfacet
  facet normal 0 0 1
    outer loop
      vertex 13.1 3 20
      vertex 12.1 3 20
      vertex 20 0 20
    endloop
  endfacet
  facet normal 0 0 1
    outer loop
      vertex 13.1 6.59999 20
      vertex 12.1 6.59999 20
      vertex 13.1 3 20
    endloop
  endfacet
  facet normal 0 0 1
    outer loop
      vertex 20 0 20
      vertex 12.1 3 20
      vertex 0 0 20
    endloop
  endfacet
  facet normal 0 0 1
    outer loop
      vertex 20 3 20
      vertex 13.1 3 20
      vertex 20 0 20
    endloop
  endfacet
  facet normal 0 0 1
    outer loop
      vertex 0 0 20
      vertex 12.1 3 20
      vertex 7.89999 3 20
    endloop
  endfacet
  facet normal 0 0 1
    outer loop
      vertex 13.1 3 20
      vertex 12.1 6.59999 20
      vertex 12.1 3 20
    endloop
  endfacet
  facet normal 0 0 1
    outer loop
      vertex 0 0 20
      vertex 7.89999 3 20
      vertex 6.89999 3 20
    endloop
  endfacet
  facet normal 0 -0 1
    outer loop
      vertex 7.89999 3 20
      vertex 7.89999 6.59999 20
      vertex 6.89999 6.59999 20
    endloop
  endfacet
  facet normal 0 0 1
    outer loop
      vertex 0 0 20
      vertex 6.89999 3 20
      vertex 0 3 20
    endloop
  endfacet
  facet normal 0 0 1
    outer loop
      vertex 7.89999 3 20
      vertex 6.89999 6.59999 20
      vertex 6.89999 3 20
    endloop
  endfacet
  facet normal 0 -1 0
    outer loop
      vertex 20 0 0
      vertex 0 0 20
      vertex 0 0 0
    endloop
  endfacet
  facet normal 0 -1 0
    outer loop
      vertex 20 0 0
      vertex 20 0 20
      vertex 0 0 20
    endloop
  endfacet
  facet normal 1 0 0
    outer loop
      vertex 20 3 0
      vertex 20 0 20
      vertex 20 0 0
    endloop
  endfacet
  facet normal 1 0 -0
    outer loop
      vertex 20 3 0
      vertex 20 3 20
      vertex 20 0 20
    endloop
  endfacet
  facet normal 0 1 0
    outer loop
      vertex 13.1 3 0
      vertex 20 3 20
      vertex 20 3 0
    endloop
  endfacet
  facet normal 0 1 0
    outer loop
      vertex 13.1 3 0
      vertex 13.1 3 20
      vertex 20 3 20
    endloop
  endfacet
  facet normal 1 0 0
    outer loop
      vertex 13.1 6.59999 0
      vertex 13.1 3 20
      vertex 13.1 3 0
    endloop
  endfacet
  facet normal 1 0 -0
    outer loop
      vertex 13.1 6.59999 0
      vertex 13.1 6.59999 20
      vertex 13.1 3 20
    endloop
  endfacet
  facet normal 0 1 0
    outer loop
      vertex 12.1 6.59999 0
      vertex 13.1 6.59999 20
      vertex 13.1 6.59999 0
    endloop
  endfacet
  facet normal 0 1 0
    outer loop
      vertex 12.1 6.59999 0
      vertex 12.1 6.59999 20
      vertex 13.1 6.59999 20
    endloop
  endfacet
  facet normal -1 0 0
    outer loop
      vertex 12.1 3 0
      vertex 12.1 6.59999 20
      vertex 12.1 6.59999 0
    endloop
  endfacet
  facet normal -1 0 0
    outer loop
      vertex 12.1 3 0
      vertex 12.1 3 20
      vertex 12.1 6.59999 20
    endloop
  endfacet
  facet normal 0 1 0
    outer loop
      vertex 7.89999 3 0
      vertex 12.1 3 20
      vertex 12.1 3 0
    endloop
  endfacet
  facet normal 0 1 0
    outer loop
      vertex 7.89999 3 0
      vertex 7.89999 3 20
      vertex 12.1 3 20
    endloop
  endfacet
  facet normal 1 0 0
    outer loop
      vertex 7.89999 6.59999 0
      vertex 7.89999 3 20
      vertex 7.89999 3 0
    endloop
  endfacet
  facet normal 1 0 -0
    outer loop
      vertex 7.89999 6.59999 0
      vertex 7.89999 6.59999 20
      vertex 7.89999 3 20
    endloop
  endfacet
  facet normal 0 1 0
    outer loop
      vertex 6.89999 6.59999 0
      vertex 7.89999 6.59999 20
      vertex 7.89999 6.59999 0
    endloop
  endfacet
  facet normal 0 1 0
    outer loop
      vertex 6.89999 6.59999 0
      vertex 6.89999 6.59999 20
      vertex 7.89999 6.59999 20
    endloop
  endfacet
  facet normal -1 0 0
    outer loop
      vertex 6.89999 3 0
      vertex 6.89999 6.59999 20
      vertex 6.89999 6.59999 0
    endloop
  endfacet
  facet normal -1 0 0
    outer loop
      vertex 6.89999 3 0
      vertex 6.89999 3 20
      vertex 6.89999 6.59999 20
    endloop
  endfacet
  facet normal 0 1 0
    outer loop
      vertex 0 3 0
      vertex 6.89999 3 20
      vertex 6.89999 3 0
    endloop
  endfacet
  facet normal 0 1 0
    outer loop
      vertex 0 3 0
      vertex 0 3 20
      vertex 6.89999 3 20
    endloop
  endfacet
  facet normal -1 0 0
    outer loop
      vertex 0 0 0
      vertex 0 3 20
      vertex 0 3 0
    endloop
  endfacet
  facet normal -1 0 0
    outer loop
      vertex 0 0 0
      vertex 0 0 20
      vertex 0 3 20
    endloop
  endfacet
endsolid OpenSCAD_Model
