solid OpenSCAD_Model
  facet normal 0 -1 0
    outer loop
      vertex -13.15 20 9.39999
      vertex -11.65 20 5.79999
      vertex -11.65 20 9.39999
    endloop
  endfacet
  facet normal 0 -1 -0
    outer loop
      vertex -11.65 20 5.79999
      vertex -13.15 20 4
      vertex -8.34999 20 5.79999
    endloop
  endfacet
  facet normal 0 -1 0
    outer loop
      vertex -13.15 20 4
      vertex -11.65 20 5.79999
      vertex -13.15 20 9.39999
    endloop
  endfacet
  facet normal 0 -1 0
    outer loop
      vertex -8.34999 20 5.79999
      vertex -6.84999 20 9.39999
      vertex -8.34999 20 9.39999
    endloop
  endfacet
  facet normal 0 -1 0
    outer loop
      vertex -8.34999 20 5.79999
      vertex -6.84999 20 4
      vertex -6.84999 20 9.39999
    endloop
  endfacet
  facet normal 0 -1 0
    outer loop
      vertex -6.84999 20 4
      vertex -8.34999 20 5.79999
      vertex -13.15 20 4
    endloop
  endfacet
  facet normal 0 -1 0
    outer loop
      vertex -20 20 0
      vertex -13.15 20 4
      vertex -20 20 4
    endloop
  endfacet
  facet normal 0 -1 -0
    outer loop
      vertex -13.15 20 4
      vertex -20 20 0
      vertex -6.84999 20 4
    endloop
  endfacet
  facet normal 0 -1 0
    outer loop
      vertex 20 20 0
      vertex -6.84999 20 4
      vertex -20 20 0
    endloop
  endfacet
  facet normal 0 -1 0
    outer loop
      vertex -6.84999 20 4
      vertex 20 20 0
      vertex 20 20 4
    endloop
  endfacet
  facet normal 0 1 0
    outer loop
      vertex -6.84999 30 9.39999
      vertex -8.34999 30 5.79999
      vertex -8.34999 30 9.39999
    endloop
  endfacet
  facet normal 0 1 0
    outer loop
      vertex -8.34999 30 5.79999
      vertex -6.84999 30 4
      vertex -11.65 30 5.79999
    endloop
  endfacet
  facet normal 0 1 -0
    outer loop
      vertex -6.84999 30 4
      vertex -8.34999 30 5.79999
      vertex -6.84999 30 9.39999
    endloop
  endfacet
  facet normal 0 1 -0
    outer loop
      vertex -11.65 30 5.79999
      vertex -13.15 30 9.39999
      vertex -11.65 30 9.39999
    endloop
  endfacet
  facet normal 0 1 0
    outer loop
      vertex -11.65 30 5.79999
      vertex -13.15 30 4
      vertex -13.15 30 9.39999
    endloop
  endfacet
  facet normal 0 1 0
    outer loop
      vertex -13.15 30 4
      vertex -11.65 30 5.79999
      vertex -6.84999 30 4
    endloop
  endfacet
  facet normal 0 1 -0
    outer loop
      vertex 20 30 0
      vertex -6.84999 30 4
      vertex 20 30 4
    endloop
  endfacet
  facet normal 0 1 0
    outer loop
      vertex -20 30 0
      vertex -6.84999 30 4
      vertex 20 30 0
    endloop
  endfacet
  facet normal 0 1 0
    outer loop
      vertex -6.84999 30 4
      vertex -20 30 0
      vertex -13.15 30 4
    endloop
  endfacet
  facet normal 0 1 0
    outer loop
      vertex -13.15 30 4
      vertex -20 30 0
      vertex -20 30 4
    endloop
  endfacet
  facet normal 0 0 -1
    outer loop
      vertex -20 20 0
      vertex 20 30 0
      vertex 20 20 0
    endloop
  endfacet
  facet normal -0 0 -1
    outer loop
      vertex 20 30 0
      vertex -20 20 0
      vertex -20 30 0
    endloop
  endfacet
  facet normal -1 0 0
    outer loop
      vertex -20 20 0
      vertex -20 30 4
      vertex -20 30 0
    endloop
  endfacet
  facet normal -1 -0 0
    outer loop
      vertex -20 30 4
      vertex -20 20 0
      vertex -20 20 4
    endloop
  endfacet
  facet normal -0 0 1
    outer loop
      vertex -20 30 4
      vertex -13.15 20 4
      vertex -13.15 30 4
    endloop
  endfacet
  facet normal 0 0 1
    outer loop
      vertex -13.15 20 4
      vertex -20 30 4
      vertex -20 20 4
    endloop
  endfacet
  facet normal -1 0 0
    outer loop
      vertex -13.15 20 4
      vertex -13.15 30 9.39999
      vertex -13.15 30 4
    endloop
  endfacet
  facet normal -1 -0 0
    outer loop
      vertex -13.15 30 9.39999
      vertex -13.15 20 4
      vertex -13.15 20 9.39999
    endloop
  endfacet
  facet normal -0 0 1
    outer loop
      vertex -13.15 30 9.39999
      vertex -11.65 20 9.39999
      vertex -11.65 30 9.39999
    endloop
  endfacet
  facet normal 0 0 1
    outer loop
      vertex -11.65 20 9.39999
      vertex -13.15 30 9.39999
      vertex -13.15 20 9.39999
    endloop
  endfacet
  facet normal 1 -0 0
    outer loop
      vertex -11.65 20 9.39999
      vertex -11.65 30 5.79999
      vertex -11.65 30 9.39999
    endloop
  endfacet
  facet normal 1 0 0
    outer loop
      vertex -11.65 30 5.79999
      vertex -11.65 20 9.39999
      vertex -11.65 20 5.79999
    endloop
  endfacet
  facet normal -0 0 1
    outer loop
      vertex -11.65 30 5.79999
      vertex -8.34999 20 5.79999
      vertex -8.34999 30 5.79999
    endloop
  endfacet
  facet normal 0 0 1
    outer loop
      vertex -8.34999 20 5.79999
      vertex -11.65 30 5.79999
      vertex -11.65 20 5.79999
    endloop
  endfacet
  facet normal -1 0 0
    outer loop
      vertex -8.34999 20 5.79999
      vertex -8.34999 30 9.39999
      vertex -8.34999 30 5.79999
    endloop
  endfacet
  facet normal -1 -0 0
    outer loop
      vertex -8.34999 30 9.39999
      vertex -8.34999 20 5.79999
      vertex -8.34999 20 9.39999
    endloop
  endfacet
  facet normal -0 0 1
    outer loop
      vertex -8.34999 30 9.39999
      vertex -6.84999 20 9.39999
      vertex -6.84999 30 9.39999
    endloop
  endfacet
  facet normal 0 0 1
    outer loop
      vertex -6.84999 20 9.39999
      vertex -8.34999 30 9.39999
      vertex -8.34999 20 9.39999
    endloop
  endfacet
  facet normal 1 -0 0
    outer loop
      vertex -6.84999 20 9.39999
      vertex -6.84999 30 4
      vertex -6.84999 30 9.39999
    endloop
  endfacet
  facet normal 1 0 0
    outer loop
      vertex -6.84999 30 4
      vertex -6.84999 20 9.39999
      vertex -6.84999 20 4
    endloop
  endfacet
  facet normal -0 0 1
    outer loop
      vertex -6.84999 30 4
      vertex 20 20 4
      vertex 20 30 4
    endloop
  endfacet
  facet normal 0 0 1
    outer loop
      vertex 20 20 4
      vertex -6.84999 30 4
      vertex -6.84999 20 4
    endloop
  endfacet
  facet normal 1 -0 0
    outer loop
      vertex 20 20 4
      vertex 20 30 0
      vertex 20 30 4
    endloop
  endfacet
  facet normal 1 0 0
    outer loop
      vertex 20 30 0
      vertex 20 20 4
      vertex 20 20 0
    endloop
  endfacet
endsolid OpenSCAD_Model
