solid OpenSCAD_Model
  facet normal 0.207914 0.978147 -0
    outer loop
      vertex 3.09017 9.51056 5
      vertex 1.04528 9.94522 10
      vertex 3.09017 9.51056 10
    endloop
  endfacet
  facet normal 0.207914 0.978147 0
    outer loop
      vertex 1.04528 9.94522 10
      vertex 3.09017 9.51056 5
      vertex 1.04528 9.94522 5
    endloop
  endfacet
  facet normal 0.587783 0.809019 0
    outer loop
      vertex 6.69131 7.43145 10
      vertex 5 8.66025 5
      vertex 5 8.66025 10
    endloop
  endfacet
  facet normal 0.587783 0.809019 -0
    outer loop
      vertex 6.69131 7.43145 0
      vertex 5 8.66025 5
      vertex 6.69131 7.43145 10
    endloop
  endfacet
  facet normal 0.587783 0.809019 0
    outer loop
      vertex 5 8.66025 5
      vertex 6.69131 7.43145 0
      vertex 5 8.66025 0
    endloop
  endfacet
  facet normal -0.866026 0.5 0
    outer loop
      vertex -9.13545 4.06737 0
      vertex -8.09017 5.87785 10
      vertex -8.09017 5.87785 0
    endloop
  endfacet
  facet normal -0.866026 0.5 0
    outer loop
      vertex -8.09017 5.87785 10
      vertex -9.13545 4.06737 0
      vertex -9.13545 4.06737 10
    endloop
  endfacet
  facet normal -0.994522 -0.104526 0
    outer loop
      vertex -9.78148 -2.07912 0
      vertex -10 0 3
      vertex -10 0 0
    endloop
  endfacet
  facet normal -0.994523 -0.104521 8.85635e-07
    outer loop
      vertex -9.83565 -1.56366 3.75302
      vertex -9.78148 -2.07912 0
      vertex -9.79506 -1.94986 5.44504
    endloop
  endfacet
  facet normal -0.994522 -0.104529 1.96927e-06
    outer loop
      vertex -10 0 3
      vertex -9.78148 -2.07912 0
      vertex -9.83565 -1.56366 3.75302
    endloop
  endfacet
  facet normal -0.994521 -0.104533 0
    outer loop
      vertex -9.90879 -0.867767 6.80194
      vertex -10 0 10
      vertex -10 0 6.80194
    endloop
  endfacet
  facet normal -0.994522 -0.104525 -1.15285e-06
    outer loop
      vertex -9.78148 -2.07912 10
      vertex -9.90879 -0.867767 6.80194
      vertex -9.79506 -1.94986 5.44504
    endloop
  endfacet
  facet normal -0.994522 -0.104526 -1.80837e-06
    outer loop
      vertex -9.90879 -0.867767 6.80194
      vertex -9.78148 -2.07912 10
      vertex -10 0 10
    endloop
  endfacet
  facet normal -0.994527 -0.104485 -0
    outer loop
      vertex -9.78148 -2.07912 10
      vertex -9.79506 -1.94986 5.44504
      vertex -9.78148 -2.07912 0
    endloop
  endfacet
  facet normal 0.994521 -0.104533 0
    outer loop
      vertex 10 0 10
      vertex 9.90879 -0.867767 6.80194
      vertex 10 0 6.80194
    endloop
  endfacet
  facet normal 0.994522 -0.104526 -1.80837e-06
    outer loop
      vertex 9.78148 -2.07912 10
      vertex 9.90879 -0.867767 6.80194
      vertex 10 0 10
    endloop
  endfacet
  facet normal 0.994522 -0.104525 -1.15285e-06
    outer loop
      vertex 9.90879 -0.867767 6.80194
      vertex 9.78148 -2.07912 10
      vertex 9.79506 -1.94986 5.44504
    endloop
  endfacet
  facet normal 0.994522 -0.104529 1.96927e-06
    outer loop
      vertex 9.78148 -2.07912 0
      vertex 10 0 3
      vertex 9.83565 -1.56366 3.75302
    endloop
  endfacet
  facet normal 0.994522 -0.104526 0
    outer loop
      vertex 10 0 3
      vertex 9.78148 -2.07912 0
      vertex 10 0 0
    endloop
  endfacet
  facet normal 0.994523 -0.104521 8.85635e-07
    outer loop
      vertex 9.79506 -1.94986 5.44504
      vertex 9.78148 -2.07912 0
      vertex 9.83565 -1.56366 3.75302
    endloop
  endfacet
  facet normal 0.994527 -0.104485 0
    outer loop
      vertex 9.78148 -2.07912 0
      vertex 9.79506 -1.94986 5.44504
      vertex 9.78148 -2.07912 10
    endloop
  endfacet
  facet normal 0.866026 0.5 0
    outer loop
      vertex 9.13545 4.06737 10
      vertex 8.09017 5.87785 0
      vertex 8.09017 5.87785 10
    endloop
  endfacet
  facet normal 0.866026 0.5 0
    outer loop
      vertex 8.09017 5.87785 0
      vertex 9.13545 4.06737 10
      vertex 9.13545 4.06737 0
    endloop
  endfacet
  facet normal 0 -1 0
    outer loop
      vertex -1.04528 -9.94522 10
      vertex -0.445042 -9.94522 6.94986
      vertex 1.04528 -9.94522 10
    endloop
  endfacet
  facet normal -0 -1 0
    outer loop
      vertex -0.445042 -9.94522 6.94986
      vertex -1.04528 -9.94522 10
      vertex -1.04528 -9.94522 6.47118
    endloop
  endfacet
  facet normal 0 -1 -0
    outer loop
      vertex 1.04528 -9.94522 10
      vertex -0.445042 -9.94522 6.94986
      vertex 1.04528 -9.94522 6.6097
    endloop
  endfacet
  facet normal 0 -1 0
    outer loop
      vertex -1.04528 -9.94522 3.52882
      vertex -1.04528 -9.94522 0
      vertex -0.445042 -9.94522 3.05014
    endloop
  endfacet
  facet normal 0 -1 0
    outer loop
      vertex 1.04528 -9.94522 0
      vertex -0.445042 -9.94522 3.05014
      vertex -1.04528 -9.94522 0
    endloop
  endfacet
  facet normal 0 -1 0
    outer loop
      vertex -0.445042 -9.94522 3.05014
      vertex 1.04528 -9.94522 0
      vertex 1.04528 -9.94522 3.3903
    endloop
  endfacet
  facet normal 0 0 1
    outer loop
      vertex 4 5 10
      vertex 10 0 10
      vertex 9.78148 2.07912 10
    endloop
  endfacet
  facet normal 0 0 1
    outer loop
      vertex 4 5 10
      vertex 9.78148 2.07912 10
      vertex 9.13545 4.06737 10
    endloop
  endfacet
  facet normal 0 0 1
    outer loop
      vertex 4 -5 10
      vertex 10 0 10
      vertex 4 5 10
    endloop
  endfacet
  facet normal -0 0 1
    outer loop
      vertex 4 5 10
      vertex 9.13545 4.06737 10
      vertex 8.09017 5.87785 10
    endloop
  endfacet
  facet normal 0 0 1
    outer loop
      vertex 10 0 10
      vertex 4 -5 10
      vertex 9.78148 -2.07912 10
    endloop
  endfacet
  facet normal 0 0 1
    outer loop
      vertex 4 5 10
      vertex 8.09017 5.87785 10
      vertex 6.69131 7.43145 10
    endloop
  endfacet
  facet normal 0 0 1
    outer loop
      vertex 9.78148 -2.07912 10
      vertex 4 -5 10
      vertex 9.13545 -4.06737 10
    endloop
  endfacet
  facet normal 0 0 1
    outer loop
      vertex 4 5 10
      vertex 6.69131 7.43145 10
      vertex 5 8.66025 10
    endloop
  endfacet
  facet normal 0 0 1
    outer loop
      vertex 9.13545 -4.06737 10
      vertex 4 -5 10
      vertex 8.09017 -5.87785 10
    endloop
  endfacet
  facet normal 0 0 1
    outer loop
      vertex 8.09017 -5.87785 10
      vertex 4 -5 10
      vertex 6.69131 -7.43145 10
    endloop
  endfacet
  facet normal 0 0 1
    outer loop
      vertex 3.09017 9.51056 10
      vertex 4 5 10
      vertex 5 8.66025 10
    endloop
  endfacet
  facet normal 0 0 1
    outer loop
      vertex 1.04528 9.94522 10
      vertex 4 5 10
      vertex 3.09017 9.51056 10
    endloop
  endfacet
  facet normal -0 0 1
    outer loop
      vertex -1.04528 9.94522 10
      vertex 4 5 10
      vertex 1.04528 9.94522 10
    endloop
  endfacet
  facet normal 0 0 1
    outer loop
      vertex -4 5 10
      vertex -1.04528 9.94522 10
      vertex -3.09017 9.51056 10
    endloop
  endfacet
  facet normal 0 0 1
    outer loop
      vertex -1.04528 9.94522 10
      vertex -4 5 10
      vertex 4 5 10
    endloop
  endfacet
  facet normal -0 0 1
    outer loop
      vertex -6.69131 7.43145 10
      vertex -4 5 10
      vertex -5 8.66025 10
    endloop
  endfacet
  facet normal -0 0 1
    outer loop
      vertex -5 8.66025 10
      vertex -4 5 10
      vertex -3.09017 9.51056 10
    endloop
  endfacet
  facet normal 0 0 1
    outer loop
      vertex 6.69131 -7.43145 10
      vertex 4 -5 10
      vertex 5 -8.66025 10
    endloop
  endfacet
  facet normal 0 0 1
    outer loop
      vertex 4 -5 10
      vertex 3.09017 -9.51056 10
      vertex 5 -8.66025 10
    endloop
  endfacet
  facet normal 0 0 1
    outer loop
      vertex 4 -5 10
      vertex 1.04528 -9.94522 10
      vertex 3.09017 -9.51056 10
    endloop
  endfacet
  facet normal 0 0 1
    outer loop
      vertex 4 -5 10
      vertex -1.04528 -9.94522 10
      vertex 1.04528 -9.94522 10
    endloop
  endfacet
  facet normal -0 0 1
    outer loop
      vertex -4 -5 10
      vertex -1.04528 -9.94522 10
      vertex 4 -5 10
    endloop
  endfacet
  facet normal 0 0 1
    outer loop
      vertex -1.04528 -9.94522 10
      vertex -4 -5 10
      vertex -3.09017 -9.51056 10
    endloop
  endfacet
  facet normal 0 0 1
    outer loop
      vertex -4 -5 10
      vertex -5 -8.66025 10
      vertex -3.09017 -9.51056 10
    endloop
  endfacet
  facet normal -0 0 1
    outer loop
      vertex -8.09017 5.87785 10
      vertex -4 5 10
      vertex -6.69131 7.43145 10
    endloop
  endfacet
  facet normal 0 0 1
    outer loop
      vertex -9.13545 4.06737 10
      vertex -4 5 10
      vertex -8.09017 5.87785 10
    endloop
  endfacet
  facet normal 0 0 1
    outer loop
      vertex -4 -5 10
      vertex -6.69131 -7.43145 10
      vertex -5 -8.66025 10
    endloop
  endfacet
  facet normal 0 0 1
    outer loop
      vertex -9.78148 2.07912 10
      vertex -4 5 10
      vertex -9.13545 4.06737 10
    endloop
  endfacet
  facet normal 0 0 1
    outer loop
      vertex -4 -5 10
      vertex -8.09017 -5.87785 10
      vertex -6.69131 -7.43145 10
    endloop
  endfacet
  facet normal 0 0 1
    outer loop
      vertex -10 0 10
      vertex -4 5 10
      vertex -9.78148 2.07912 10
    endloop
  endfacet
  facet normal 0 0 1
    outer loop
      vertex -4 -5 10
      vertex -9.13545 -4.06737 10
      vertex -8.09017 -5.87785 10
    endloop
  endfacet
  facet normal 0 0 1
    outer loop
      vertex -4 5 10
      vertex -10 0 10
      vertex -4 -5 10
    endloop
  endfacet
  facet normal 0 0 1
    outer loop
      vertex -4 -5 10
      vertex -9.78148 -2.07912 10
      vertex -9.13545 -4.06737 10
    endloop
  endfacet
  facet normal 0 0 1
    outer loop
      vertex -4 -5 10
      vertex -10 0 10
      vertex -9.78148 -2.07912 10
    endloop
  endfacet
  facet normal 0.994527 0.104485 0
    outer loop
      vertex 9.78148 2.07912 10
      vertex 9.79506 1.94986 5.44504
      vertex 9.78148 2.07912 0
    endloop
  endfacet
  facet normal 0.994522 0.104525 -1.15285e-06
    outer loop
      vertex 9.78148 2.07912 10
      vertex 9.90879 0.867767 6.80194
      vertex 9.79506 1.94986 5.44504
    endloop
  endfacet
  facet normal 0.994522 0.104526 -1.80837e-06
    outer loop
      vertex 10 0 10
      vertex 9.90879 0.867767 6.80194
      vertex 9.78148 2.07912 10
    endloop
  endfacet
  facet normal 0.994521 0.104533 0
    outer loop
      vertex 9.90879 0.867767 6.80194
      vertex 10 0 10
      vertex 10 0 6.80194
    endloop
  endfacet
  facet normal 0.994523 0.104521 8.85635e-07
    outer loop
      vertex 9.83565 1.56366 3.75302
      vertex 9.78148 2.07912 0
      vertex 9.79506 1.94986 5.44504
    endloop
  endfacet
  facet normal 0.994522 0.104529 1.96927e-06
    outer loop
      vertex 10 0 3
      vertex 9.78148 2.07912 0
      vertex 9.83565 1.56366 3.75302
    endloop
  endfacet
  facet normal 0.994522 0.104526 0
    outer loop
      vertex 9.78148 2.07912 0
      vertex 10 0 3
      vertex 10 0 0
    endloop
  endfacet
  facet normal 0.587783 -0.809019 0
    outer loop
      vertex 5 -8.66025 0
      vertex 6.69131 -7.43145 10
      vertex 5 -8.66025 10
    endloop
  endfacet
  facet normal 0.587783 -0.809019 0
    outer loop
      vertex 6.69131 -7.43145 10
      vertex 5 -8.66025 0
      vertex 6.69131 -7.43145 0
    endloop
  endfacet
  facet normal -0.406736 0.913546 0
    outer loop
      vertex -3.09017 9.51056 5
      vertex -5 8.66025 10
      vertex -3.09017 9.51056 10
    endloop
  endfacet
  facet normal -0.406736 0.913546 0
    outer loop
      vertex -5 8.66025 10
      vertex -3.09017 9.51056 5
      vertex -5 8.66025 5
    endloop
  endfacet
  facet normal -0.587783 -0.809019 0
    outer loop
      vertex -6.69131 -7.43145 0
      vertex -5 -8.66025 10
      vertex -6.69131 -7.43145 10
    endloop
  endfacet
  facet normal -0.587783 -0.809019 -0
    outer loop
      vertex -5 -8.66025 10
      vertex -6.69131 -7.43145 0
      vertex -5 -8.66025 0
    endloop
  endfacet
  facet normal 0.406736 -0.913546 0
    outer loop
      vertex 3.09017 -9.51056 0
      vertex 5 -8.66025 10
      vertex 3.09017 -9.51056 10
    endloop
  endfacet
  facet normal 0.406736 -0.913546 0
    outer loop
      vertex 5 -8.66025 10
      vertex 3.09017 -9.51056 0
      vertex 5 -8.66025 0
    endloop
  endfacet
  facet normal 0.951055 0.309021 0
    outer loop
      vertex 9.78148 2.07912 10
      vertex 9.13545 4.06737 0
      vertex 9.13545 4.06737 10
    endloop
  endfacet
  facet normal 0.951055 0.309021 0
    outer loop
      vertex 9.13545 4.06737 0
      vertex 9.78148 2.07912 10
      vertex 9.78148 2.07912 0
    endloop
  endfacet
  facet normal 0.951055 -0.309021 0
    outer loop
      vertex 9.13545 -4.06737 10
      vertex 9.78148 -2.07912 0
      vertex 9.78148 -2.07912 10
    endloop
  endfacet
  facet normal 0.951055 -0.309021 0
    outer loop
      vertex 9.78148 -2.07912 0
      vertex 9.13545 -4.06737 10
      vertex 9.13545 -4.06737 0
    endloop
  endfacet
  facet normal 0.207899 -0.97815 0
    outer loop
      vertex 1.24698 -9.90235 6.56366
      vertex 1.04528 -9.94522 10
      vertex 1.04528 -9.94522 6.6097
    endloop
  endfacet
  facet normal 0.207914 -0.978147 9.03085e-07
    outer loop
      vertex 1.04528 -9.94522 10
      vertex 1.24698 -9.90235 6.56366
      vertex 3.09017 -9.51056 10
    endloop
  endfacet
  facet normal 0.207914 -0.978147 8.43068e-07
    outer loop
      vertex 2 -9.74229 5
      vertex 3.09017 -9.51056 10
      vertex 1.24698 -9.90235 6.56366
    endloop
  endfacet
  facet normal 0.207899 -0.97815 0
    outer loop
      vertex 1.04528 -9.94522 0
      vertex 1.24698 -9.90235 3.43634
      vertex 1.04528 -9.94522 3.3903
    endloop
  endfacet
  facet normal 0.207914 -0.978147 -9.03085e-07
    outer loop
      vertex 3.09017 -9.51056 0
      vertex 1.24698 -9.90235 3.43634
      vertex 1.04528 -9.94522 0
    endloop
  endfacet
  facet normal 0.207914 -0.978147 -8.43068e-07
    outer loop
      vertex 1.24698 -9.90235 3.43634
      vertex 3.09017 -9.51056 0
      vertex 2 -9.74229 5
    endloop
  endfacet
  facet normal 0.207918 -0.978146 0
    outer loop
      vertex 2 -9.74229 5
      vertex 3.09017 -9.51056 0
      vertex 3.09017 -9.51056 10
    endloop
  endfacet
  facet normal 0 0 -1
    outer loop
      vertex -9.13545 -4.06737 0
      vertex -4 -5 0
      vertex -8.09017 -5.87785 0
    endloop
  endfacet
  facet normal 0 0 -1
    outer loop
      vertex -4 5 0
      vertex -6.69131 7.43145 0
      vertex -5 8.66025 0
    endloop
  endfacet
  facet normal 0 0 -1
    outer loop
      vertex -9.78148 -2.07912 0
      vertex -4 -5 0
      vertex -9.13545 -4.06737 0
    endloop
  endfacet
  facet normal 0 0 -1
    outer loop
      vertex -4 5 0
      vertex -8.09017 5.87785 0
      vertex -6.69131 7.43145 0
    endloop
  endfacet
  facet normal 0 0 -1
    outer loop
      vertex -10 0 0
      vertex -4 -5 0
      vertex -9.78148 -2.07912 0
    endloop
  endfacet
  facet normal -0 0 -1
    outer loop
      vertex -4 5 0
      vertex -9.13545 4.06737 0
      vertex -8.09017 5.87785 0
    endloop
  endfacet
  facet normal 0 0 -1
    outer loop
      vertex -4 -5 0
      vertex -10 0 0
      vertex -4 5 0
    endloop
  endfacet
  facet normal 0 0 -1
    outer loop
      vertex -4 5 0
      vertex -9.78148 2.07912 0
      vertex -9.13545 4.06737 0
    endloop
  endfacet
  facet normal 0 0 -1
    outer loop
      vertex -4 5 0
      vertex -10 0 0
      vertex -9.78148 2.07912 0
    endloop
  endfacet
  facet normal 0 0 -1
    outer loop
      vertex 5 8.66025 0
      vertex 1.24698 38.4363 0
      vertex 2 40 0
    endloop
  endfacet
  facet normal 0 -0 -1
    outer loop
      vertex -0.445042 38.0501 0
      vertex 5 8.66025 0
      vertex -5 8.66025 0
    endloop
  endfacet
  facet normal 0 0 -1
    outer loop
      vertex 5 8.66025 0
      vertex -0.445042 38.0501 0
      vertex 1.24698 38.4363 0
    endloop
  endfacet
  facet normal -0 0 -1
    outer loop
      vertex -0.445042 38.0501 0
      vertex -5 8.66025 0
      vertex -1.80194 39.1322 0
    endloop
  endfacet
  facet normal 0 0 -1
    outer loop
      vertex -5 8.66025 0
      vertex 4 5 0
      vertex -4 5 0
    endloop
  endfacet
  facet normal 0 0 -1
    outer loop
      vertex 4 -5 0
      vertex 10 0 0
      vertex 9.78148 -2.07912 0
    endloop
  endfacet
  facet normal 0 0 -1
    outer loop
      vertex 4 -5 0
      vertex 9.78148 -2.07912 0
      vertex 9.13545 -4.06737 0
    endloop
  endfacet
  facet normal 0 0 -1
    outer loop
      vertex 4 5 0
      vertex 10 0 0
      vertex 4 -5 0
    endloop
  endfacet
  facet normal 0 0 -1
    outer loop
      vertex 4 -5 0
      vertex 9.13545 -4.06737 0
      vertex 8.09017 -5.87785 0
    endloop
  endfacet
  facet normal 0 0 -1
    outer loop
      vertex 10 0 0
      vertex 4 5 0
      vertex 9.78148 2.07912 0
    endloop
  endfacet
  facet normal 0 0 -1
    outer loop
      vertex 4 -5 0
      vertex 8.09017 -5.87785 0
      vertex 6.69131 -7.43145 0
    endloop
  endfacet
  facet normal 0 0 -1
    outer loop
      vertex 9.78148 2.07912 0
      vertex 4 5 0
      vertex 9.13545 4.06737 0
    endloop
  endfacet
  facet normal 0 0 -1
    outer loop
      vertex 4 -5 0
      vertex 6.69131 -7.43145 0
      vertex 5 -8.66025 0
    endloop
  endfacet
  facet normal 0 0 -1
    outer loop
      vertex 9.13545 4.06737 0
      vertex 4 5 0
      vertex 8.09017 5.87785 0
    endloop
  endfacet
  facet normal -0 0 -1
    outer loop
      vertex 6.69131 7.43145 0
      vertex 4 5 0
      vertex 5 8.66025 0
    endloop
  endfacet
  facet normal -0 0 -1
    outer loop
      vertex 8.09017 5.87785 0
      vertex 4 5 0
      vertex 6.69131 7.43145 0
    endloop
  endfacet
  facet normal 0 0 -1
    outer loop
      vertex 3.09017 -9.51056 0
      vertex 4 -5 0
      vertex 5 -8.66025 0
    endloop
  endfacet
  facet normal 0 0 -1
    outer loop
      vertex 1.04528 -9.94522 0
      vertex 4 -5 0
      vertex 3.09017 -9.51056 0
    endloop
  endfacet
  facet normal 0 0 -1
    outer loop
      vertex -1.04528 -9.94522 0
      vertex 4 -5 0
      vertex 1.04528 -9.94522 0
    endloop
  endfacet
  facet normal 0 0 -1
    outer loop
      vertex -4 -5 0
      vertex -1.04528 -9.94522 0
      vertex -3.09017 -9.51056 0
    endloop
  endfacet
  facet normal 0 0 -1
    outer loop
      vertex -1.04528 -9.94522 0
      vertex -4 -5 0
      vertex 4 -5 0
    endloop
  endfacet
  facet normal 0 0 -1
    outer loop
      vertex -6.69131 -7.43145 0
      vertex -4 -5 0
      vertex -5 -8.66025 0
    endloop
  endfacet
  facet normal 0 0 -1
    outer loop
      vertex -5 -8.66025 0
      vertex -4 -5 0
      vertex -3.09017 -9.51056 0
    endloop
  endfacet
  facet normal 0 0 -1
    outer loop
      vertex -5 8.66025 0
      vertex 5 8.66025 0
      vertex 4 5 0
    endloop
  endfacet
  facet normal 0 0 -1
    outer loop
      vertex 5 8.66025 0
      vertex 2 40 0
      vertex 5 45 0
    endloop
  endfacet
  facet normal 0 0 -1
    outer loop
      vertex 1.24698 41.5637 0
      vertex 5 45 0
      vertex 2 40 0
    endloop
  endfacet
  facet normal 0 0 -1
    outer loop
      vertex -0.445042 41.9499 0
      vertex 5 45 0
      vertex 1.24698 41.5637 0
    endloop
  endfacet
  facet normal 0 0 -1
    outer loop
      vertex -8.09017 -5.87785 0
      vertex -4 -5 0
      vertex -6.69131 -7.43145 0
    endloop
  endfacet
  facet normal 0 0 -1
    outer loop
      vertex -5 45 0
      vertex -1.80194 39.1322 0
      vertex -5 8.66025 0
    endloop
  endfacet
  facet normal 0 0 -1
    outer loop
      vertex -0.445042 41.9499 0
      vertex -5 45 0
      vertex 5 45 0
    endloop
  endfacet
  facet normal 0 0 -1
    outer loop
      vertex -1.80194 40.8678 0
      vertex -5 45 0
      vertex -0.445042 41.9499 0
    endloop
  endfacet
  facet normal 0 0 -1
    outer loop
      vertex -1.80194 39.1322 0
      vertex -5 45 0
      vertex -1.80194 40.8678 0
    endloop
  endfacet
  facet normal -0.994527 0.104485 0
    outer loop
      vertex -9.78148 2.07912 0
      vertex -9.79506 1.94986 5.44504
      vertex -9.78148 2.07912 10
    endloop
  endfacet
  facet normal -0.994523 0.104521 8.85635e-07
    outer loop
      vertex -9.78148 2.07912 0
      vertex -9.83565 1.56366 3.75302
      vertex -9.79506 1.94986 5.44504
    endloop
  endfacet
  facet normal -0.994522 0.104526 0
    outer loop
      vertex -10 0 3
      vertex -9.78148 2.07912 0
      vertex -10 0 0
    endloop
  endfacet
  facet normal -0.994522 0.104529 1.96927e-06
    outer loop
      vertex -9.78148 2.07912 0
      vertex -10 0 3
      vertex -9.83565 1.56366 3.75302
    endloop
  endfacet
  facet normal -0.994522 0.104525 -1.15285e-06
    outer loop
      vertex -9.90879 0.867767 6.80194
      vertex -9.78148 2.07912 10
      vertex -9.79506 1.94986 5.44504
    endloop
  endfacet
  facet normal -0.994521 0.104533 0
    outer loop
      vertex -10 0 10
      vertex -9.90879 0.867767 6.80194
      vertex -10 0 6.80194
    endloop
  endfacet
  facet normal -0.994522 0.104526 -1.80837e-06
    outer loop
      vertex -9.90879 0.867767 6.80194
      vertex -10 0 10
      vertex -9.78148 2.07912 10
    endloop
  endfacet
  facet normal 0.406736 0.913546 -0
    outer loop
      vertex 5 8.66025 5
      vertex 3.09017 9.51056 10
      vertex 5 8.66025 10
    endloop
  endfacet
  facet normal 0.406736 0.913546 0
    outer loop
      vertex 3.09017 9.51056 10
      vertex 5 8.66025 5
      vertex 3.09017 9.51056 5
    endloop
  endfacet
  facet normal -0.951055 0.309021 0
    outer loop
      vertex -9.78148 2.07912 0
      vertex -9.13545 4.06737 10
      vertex -9.13545 4.06737 0
    endloop
  endfacet
  facet normal -0.951055 0.309021 0
    outer loop
      vertex -9.13545 4.06737 10
      vertex -9.78148 2.07912 0
      vertex -9.78148 2.07912 10
    endloop
  endfacet
  facet normal -0.207914 0.978147 0
    outer loop
      vertex -1.04528 9.94522 5
      vertex -3.09017 9.51056 10
      vertex -1.04528 9.94522 10
    endloop
  endfacet
  facet normal -0.207914 0.978147 0
    outer loop
      vertex -3.09017 9.51056 10
      vertex -1.04528 9.94522 5
      vertex -3.09017 9.51056 5
    endloop
  endfacet
  facet normal 0.743147 0.669129 0
    outer loop
      vertex 8.09017 5.87785 10
      vertex 6.69131 7.43145 0
      vertex 6.69131 7.43145 10
    endloop
  endfacet
  facet normal 0.743147 0.669129 0
    outer loop
      vertex 6.69131 7.43145 0
      vertex 8.09017 5.87785 10
      vertex 8.09017 5.87785 0
    endloop
  endfacet
  facet normal -0.743147 -0.669129 0
    outer loop
      vertex -6.69131 -7.43145 0
      vertex -8.09017 -5.87785 10
      vertex -8.09017 -5.87785 0
    endloop
  endfacet
  facet normal -0.743147 -0.669129 0
    outer loop
      vertex -8.09017 -5.87785 10
      vertex -6.69131 -7.43145 0
      vertex -6.69131 -7.43145 10
    endloop
  endfacet
  facet normal -0.866026 -0.5 0
    outer loop
      vertex -8.09017 -5.87785 0
      vertex -9.13545 -4.06737 10
      vertex -9.13545 -4.06737 0
    endloop
  endfacet
  facet normal -0.866026 -0.5 0
    outer loop
      vertex -9.13545 -4.06737 10
      vertex -8.09017 -5.87785 0
      vertex -8.09017 -5.87785 10
    endloop
  endfacet
  facet normal -0.743147 0.669129 0
    outer loop
      vertex -8.09017 5.87785 0
      vertex -6.69131 7.43145 10
      vertex -6.69131 7.43145 0
    endloop
  endfacet
  facet normal -0.743147 0.669129 0
    outer loop
      vertex -6.69131 7.43145 10
      vertex -8.09017 5.87785 0
      vertex -8.09017 5.87785 10
    endloop
  endfacet
  facet normal -0.587783 0.809019 0
    outer loop
      vertex -5 8.66025 5
      vertex -6.69131 7.43145 10
      vertex -5 8.66025 10
    endloop
  endfacet
  facet normal -0.587783 0.809019 0
    outer loop
      vertex -6.69131 7.43145 0
      vertex -5 8.66025 5
      vertex -5 8.66025 0
    endloop
  endfacet
  facet normal -0.587783 0.809019 0
    outer loop
      vertex -5 8.66025 5
      vertex -6.69131 7.43145 0
      vertex -6.69131 7.43145 10
    endloop
  endfacet
  facet normal 0.866026 -0.5 0
    outer loop
      vertex 8.09017 -5.87785 10
      vertex 9.13545 -4.06737 0
      vertex 9.13545 -4.06737 10
    endloop
  endfacet
  facet normal 0.866026 -0.5 0
    outer loop
      vertex 9.13545 -4.06737 0
      vertex 8.09017 -5.87785 10
      vertex 8.09017 -5.87785 0
    endloop
  endfacet
  facet normal -0.406736 -0.913546 0
    outer loop
      vertex -5 -8.66025 0
      vertex -3.09017 -9.51056 10
      vertex -5 -8.66025 10
    endloop
  endfacet
  facet normal -0.406736 -0.913546 -0
    outer loop
      vertex -3.09017 -9.51056 10
      vertex -5 -8.66025 0
      vertex -3.09017 -9.51056 0
    endloop
  endfacet
  facet normal -0.207914 -0.978147 0
    outer loop
      vertex -3.09017 -9.51056 10
      vertex -1.04528 -9.94522 6.47118
      vertex -1.04528 -9.94522 10
    endloop
  endfacet
  facet normal -0.20791 -0.978148 2.54981e-06
    outer loop
      vertex -3.09017 -9.51056 10
      vertex -1.80194 -9.78439 5.86777
      vertex -1.04528 -9.94522 6.47118
    endloop
  endfacet
  facet normal -0.207918 -0.978146 0
    outer loop
      vertex -3.09017 -9.51056 10
      vertex -1.80194 -9.78439 4.13223
      vertex -1.80194 -9.78439 5.86777
    endloop
  endfacet
  facet normal -0.207918 -0.978146 0
    outer loop
      vertex -3.09017 -9.51056 0
      vertex -1.80194 -9.78439 4.13223
      vertex -3.09017 -9.51056 10
    endloop
  endfacet
  facet normal -0.20791 -0.978148 -2.54981e-06
    outer loop
      vertex -3.09017 -9.51056 0
      vertex -1.04528 -9.94522 3.52882
      vertex -1.80194 -9.78439 4.13223
    endloop
  endfacet
  facet normal -0.207914 -0.978147 -0
    outer loop
      vertex -1.04528 -9.94522 3.52882
      vertex -3.09017 -9.51056 0
      vertex -1.04528 -9.94522 0
    endloop
  endfacet
  facet normal 0 1 -0
    outer loop
      vertex 1.04528 9.94522 5
      vertex -1.04528 9.94522 10
      vertex 1.04528 9.94522 10
    endloop
  endfacet
  facet normal 0 1 0
    outer loop
      vertex -1.04528 9.94522 10
      vertex 1.04528 9.94522 5
      vertex -1.04528 9.94522 5
    endloop
  endfacet
  facet normal -0.951055 -0.309021 0
    outer loop
      vertex -9.13545 -4.06737 0
      vertex -9.78148 -2.07912 10
      vertex -9.78148 -2.07912 0
    endloop
  endfacet
  facet normal -0.951055 -0.309021 0
    outer loop
      vertex -9.78148 -2.07912 10
      vertex -9.13545 -4.06737 0
      vertex -9.13545 -4.06737 10
    endloop
  endfacet
  facet normal 0.743147 -0.669129 0
    outer loop
      vertex 6.69131 -7.43145 10
      vertex 8.09017 -5.87785 0
      vertex 8.09017 -5.87785 10
    endloop
  endfacet
  facet normal 0.743147 -0.669129 0
    outer loop
      vertex 8.09017 -5.87785 0
      vertex 6.69131 -7.43145 10
      vertex 6.69131 -7.43145 0
    endloop
  endfacet
  facet normal -1 0 0
    outer loop
      vertex 4 1.56366 3.75302
      vertex 4 5 5
      vertex 4 5 0
    endloop
  endfacet
  facet normal -1 0 0
    outer loop
      vertex 4 5 5
      vertex 4 1.94986 5.44504
      vertex 4 5 10
    endloop
  endfacet
  facet normal -1 -0 0
    outer loop
      vertex 4 5 5
      vertex 4 1.56366 3.75302
      vertex 4 1.94986 5.44504
    endloop
  endfacet
  facet normal -1 0 0
    outer loop
      vertex 4 5 0
      vertex 4 0 3
      vertex 4 1.56366 3.75302
    endloop
  endfacet
  facet normal -1 0 0
    outer loop
      vertex 4 -5 0
      vertex 4 0 3
      vertex 4 5 0
    endloop
  endfacet
  facet normal -1 -0 0
    outer loop
      vertex 4 -1.56366 3.75302
      vertex 4 -5 0
      vertex 4 -1.94986 5.44504
    endloop
  endfacet
  facet normal -1 -0 0
    outer loop
      vertex 4 0 3
      vertex 4 -5 0
      vertex 4 -1.56366 3.75302
    endloop
  endfacet
  facet normal -1 0 0
    outer loop
      vertex 4 0.867767 6.80194
      vertex 4 5 10
      vertex 4 1.94986 5.44504
    endloop
  endfacet
  facet normal -1 0 0
    outer loop
      vertex 4 -0.867767 6.80194
      vertex 4 5 10
      vertex 4 0.867767 6.80194
    endloop
  endfacet
  facet normal -1 0 0
    outer loop
      vertex 4 -0.867767 6.80194
      vertex 4 -5 10
      vertex 4 5 10
    endloop
  endfacet
  facet normal -1 0 0
    outer loop
      vertex 4 -1.94986 5.44504
      vertex 4 -5 10
      vertex 4 -0.867767 6.80194
    endloop
  endfacet
  facet normal -1 0 0
    outer loop
      vertex 4 -5 10
      vertex 4 -1.94986 5.44504
      vertex 4 -5 0
    endloop
  endfacet
  facet normal 1 -0 0
    outer loop
      vertex -4 1.94986 5.44504
      vertex -4 5 5
      vertex -4 5 10
    endloop
  endfacet
  facet normal 1 0 0
    outer loop
      vertex -4 1.56366 3.75302
      vertex -4 5 5
      vertex -4 1.94986 5.44504
    endloop
  endfacet
  facet normal 1 0 0
    outer loop
      vertex -4 5 10
      vertex -4 0.867767 6.80194
      vertex -4 1.94986 5.44504
    endloop
  endfacet
  facet normal 1 0 0
    outer loop
      vertex -4 5 10
      vertex -4 -0.867767 6.80194
      vertex -4 0.867767 6.80194
    endloop
  endfacet
  facet normal 1 0 0
    outer loop
      vertex -4 -0.867767 6.80194
      vertex -4 -5 10
      vertex -4 -1.94986 5.44504
    endloop
  endfacet
  facet normal 1 -0 0
    outer loop
      vertex -4 -5 10
      vertex -4 -0.867767 6.80194
      vertex -4 5 10
    endloop
  endfacet
  facet normal 1 0 0
    outer loop
      vertex -4 5 5
      vertex -4 1.56366 3.75302
      vertex -4 5 0
    endloop
  endfacet
  facet normal 1 -0 0
    outer loop
      vertex -4 0 3
      vertex -4 5 0
      vertex -4 1.56366 3.75302
    endloop
  endfacet
  facet normal 1 0 0
    outer loop
      vertex -4 -5 0
      vertex -4 0 3
      vertex -4 -1.56366 3.75302
    endloop
  endfacet
  facet normal 1 0 0
    outer loop
      vertex -4 -5 0
      vertex -4 -1.94986 5.44504
      vertex -4 -5 10
    endloop
  endfacet
  facet normal 1 0 0
    outer loop
      vertex -4 0 3
      vertex -4 -5 0
      vertex -4 5 0
    endloop
  endfacet
  facet normal 1 0 0
    outer loop
      vertex -4 -1.94986 5.44504
      vertex -4 -5 0
      vertex -4 -1.56366 3.75302
    endloop
  endfacet
  facet normal 0 -1 0
    outer loop
      vertex -4 5 5
      vertex 4 5 10
      vertex -4 5 10
    endloop
  endfacet
  facet normal 0 -1 -0
    outer loop
      vertex 4 5 10
      vertex -4 5 5
      vertex 4 5 5
    endloop
  endfacet
  facet normal 0 -1 0
    outer loop
      vertex -4 5 0
      vertex 4 5 5
      vertex -4 5 5
    endloop
  endfacet
  facet normal 0 -1 -0
    outer loop
      vertex 4 5 5
      vertex -4 5 0
      vertex 4 5 0
    endloop
  endfacet
  facet normal 0 1 0
    outer loop
      vertex 4 -5 10
      vertex -0.445042 -5 6.94986
      vertex -4 -5 10
    endloop
  endfacet
  facet normal 0 1 0
    outer loop
      vertex 4 -5 10
      vertex 1.24698 -5 6.56366
      vertex -0.445042 -5 6.94986
    endloop
  endfacet
  facet normal 0 1 0
    outer loop
      vertex 4 -5 10
      vertex 2 -5 5
      vertex 1.24698 -5 6.56366
    endloop
  endfacet
  facet normal 0 1 0
    outer loop
      vertex 1.24698 -5 3.43634
      vertex 4 -5 0
      vertex -0.445042 -5 3.05014
    endloop
  endfacet
  facet normal 0 1 0
    outer loop
      vertex 2 -5 5
      vertex 4 -5 0
      vertex 1.24698 -5 3.43634
    endloop
  endfacet
  facet normal 0 1 -0
    outer loop
      vertex 4 -5 0
      vertex 2 -5 5
      vertex 4 -5 10
    endloop
  endfacet
  facet normal 0 1 -0
    outer loop
      vertex -1.80194 -5 5.86777
      vertex -4 -5 10
      vertex -0.445042 -5 6.94986
    endloop
  endfacet
  facet normal 0 1 -0
    outer loop
      vertex -1.80194 -5 4.13223
      vertex -4 -5 10
      vertex -1.80194 -5 5.86777
    endloop
  endfacet
  facet normal 0 1 0
    outer loop
      vertex -1.80194 -5 4.13223
      vertex -4 -5 0
      vertex -4 -5 10
    endloop
  endfacet
  facet normal 0 1 0
    outer loop
      vertex -0.445042 -5 3.05014
      vertex -4 -5 0
      vertex -1.80194 -5 4.13223
    endloop
  endfacet
  facet normal 0 1 0
    outer loop
      vertex -4 -5 0
      vertex -0.445042 -5 3.05014
      vertex 4 -5 0
    endloop
  endfacet
  facet normal -0.900969 0 -0.433884
    outer loop
      vertex 2 -9.74229 5
      vertex 1.24698 -5 6.56366
      vertex 2 -5 5
    endloop
  endfacet
  facet normal -0.900969 -0 -0.433884
    outer loop
      vertex 1.24698 -5 6.56366
      vertex 2 -9.74229 5
      vertex 1.24698 -9.90235 6.56366
    endloop
  endfacet
  facet normal 0.623495 0 -0.781828
    outer loop
      vertex -1.04528 -9.94522 6.47118
      vertex -0.445042 -5 6.94986
      vertex -0.445042 -9.94522 6.94986
    endloop
  endfacet
  facet normal 0.623486 1.71042e-06 -0.781834
    outer loop
      vertex -1.80194 -9.78439 5.86777
      vertex -0.445042 -5 6.94986
      vertex -1.04528 -9.94522 6.47118
    endloop
  endfacet
  facet normal 0.62349 0 -0.781831
    outer loop
      vertex -0.445042 -5 6.94986
      vertex -1.80194 -9.78439 5.86777
      vertex -1.80194 -5 5.86777
    endloop
  endfacet
  facet normal 0.623495 0 0.781828
    outer loop
      vertex -0.445042 -5 3.05014
      vertex -1.04528 -9.94522 3.52882
      vertex -0.445042 -9.94522 3.05014
    endloop
  endfacet
  facet normal 0.62349 -0 0.781831
    outer loop
      vertex -1.80194 -9.78439 4.13223
      vertex -0.445042 -5 3.05014
      vertex -1.80194 -5 4.13223
    endloop
  endfacet
  facet normal 0.623486 1.71042e-06 0.781834
    outer loop
      vertex -0.445042 -5 3.05014
      vertex -1.80194 -9.78439 4.13223
      vertex -1.04528 -9.94522 3.52882
    endloop
  endfacet
  facet normal 1 -0 0
    outer loop
      vertex -1.80194 -9.78439 5.86777
      vertex -1.80194 -5 4.13223
      vertex -1.80194 -5 5.86777
    endloop
  endfacet
  facet normal 1 0 0
    outer loop
      vertex -1.80194 -5 4.13223
      vertex -1.80194 -9.78439 5.86777
      vertex -1.80194 -9.78439 4.13223
    endloop
  endfacet
  facet normal -0.900969 0 0.433884
    outer loop
      vertex 1.24698 -5 3.43634
      vertex 2 -9.74229 5
      vertex 2 -5 5
    endloop
  endfacet
  facet normal -0.900969 0 0.433884
    outer loop
      vertex 2 -9.74229 5
      vertex 1.24698 -5 3.43634
      vertex 1.24698 -9.90235 3.43634
    endloop
  endfacet
  facet normal -0.222536 0 0.974924
    outer loop
      vertex 1.24698 -5 3.43634
      vertex 1.04528 -9.94522 3.3903
      vertex 1.24698 -9.90235 3.43634
    endloop
  endfacet
  facet normal -0.222525 -4.83871e-07 0.974927
    outer loop
      vertex -0.445042 -5 3.05014
      vertex 1.04528 -9.94522 3.3903
      vertex 1.24698 -5 3.43634
    endloop
  endfacet
  facet normal -0.222523 0 0.974927
    outer loop
      vertex 1.04528 -9.94522 3.3903
      vertex -0.445042 -5 3.05014
      vertex -0.445042 -9.94522 3.05014
    endloop
  endfacet
  facet normal -0.222536 0 -0.974924
    outer loop
      vertex 1.04528 -9.94522 6.6097
      vertex 1.24698 -5 6.56366
      vertex 1.24698 -9.90235 6.56366
    endloop
  endfacet
  facet normal -0.222523 -0 -0.974927
    outer loop
      vertex -0.445042 -5 6.94986
      vertex 1.04528 -9.94522 6.6097
      vertex -0.445042 -9.94522 6.94986
    endloop
  endfacet
  facet normal -0.222525 -4.83871e-07 -0.974927
    outer loop
      vertex 1.04528 -9.94522 6.6097
      vertex -0.445042 -5 6.94986
      vertex 1.24698 -5 6.56366
    endloop
  endfacet
  facet normal 0 0.433884 0.900969
    outer loop
      vertex -4 0 3
      vertex -9.83565 -1.56366 3.75302
      vertex -4 -1.56366 3.75302
    endloop
  endfacet
  facet normal 0 0.433884 0.900969
    outer loop
      vertex -9.83565 -1.56366 3.75302
      vertex -4 0 3
      vertex -10 0 3
    endloop
  endfacet
  facet normal -0 0.433884 0.900969
    outer loop
      vertex 4 0 3
      vertex 9.83565 -1.56366 3.75302
      vertex 10 0 3
    endloop
  endfacet
  facet normal 0 0.433884 0.900969
    outer loop
      vertex 9.83565 -1.56366 3.75302
      vertex 4 0 3
      vertex 4 -1.56366 3.75302
    endloop
  endfacet
  facet normal 0 -0.781831 -0.62349
    outer loop
      vertex -9.79506 1.94986 5.44504
      vertex -4 0.867767 6.80194
      vertex -9.90879 0.867767 6.80194
    endloop
  endfacet
  facet normal 0 -0.781831 -0.62349
    outer loop
      vertex -4 0.867767 6.80194
      vertex -9.79506 1.94986 5.44504
      vertex -4 1.94986 5.44504
    endloop
  endfacet
  facet normal -0 -0.781831 -0.62349
    outer loop
      vertex 9.79506 1.94986 5.44504
      vertex 4 0.867767 6.80194
      vertex 4 1.94986 5.44504
    endloop
  endfacet
  facet normal 0 -0.781831 -0.62349
    outer loop
      vertex 4 0.867767 6.80194
      vertex 9.79506 1.94986 5.44504
      vertex 9.90879 0.867767 6.80194
    endloop
  endfacet
  facet normal 0 -0.433884 0.900969
    outer loop
      vertex -9.83565 1.56366 3.75302
      vertex -4 0 3
      vertex -4 1.56366 3.75302
    endloop
  endfacet
  facet normal 0 -0.433884 0.900969
    outer loop
      vertex -4 0 3
      vertex -9.83565 1.56366 3.75302
      vertex -10 0 3
    endloop
  endfacet
  facet normal 0 -0.433884 0.900969
    outer loop
      vertex 4 0 3
      vertex 9.83565 1.56366 3.75302
      vertex 4 1.56366 3.75302
    endloop
  endfacet
  facet normal 0 -0.433884 0.900969
    outer loop
      vertex 9.83565 1.56366 3.75302
      vertex 4 0 3
      vertex 10 0 3
    endloop
  endfacet
  facet normal 0 -0.974927 0.222525
    outer loop
      vertex -4 1.56366 3.75302
      vertex -9.79506 1.94986 5.44504
      vertex -9.83565 1.56366 3.75302
    endloop
  endfacet
  facet normal 0 -0.974927 0.222525
    outer loop
      vertex -9.79506 1.94986 5.44504
      vertex -4 1.56366 3.75302
      vertex -4 1.94986 5.44504
    endloop
  endfacet
  facet normal 0 -0.974927 0.222525
    outer loop
      vertex 4 1.56366 3.75302
      vertex 9.79506 1.94986 5.44504
      vertex 4 1.94986 5.44504
    endloop
  endfacet
  facet normal 0 -0.974927 0.222525
    outer loop
      vertex 9.79506 1.94986 5.44504
      vertex 4 1.56366 3.75302
      vertex 9.83565 1.56366 3.75302
    endloop
  endfacet
  facet normal 0 0.781831 -0.62349
    outer loop
      vertex -9.79506 -1.94986 5.44504
      vertex -4 -0.867767 6.80194
      vertex -4 -1.94986 5.44504
    endloop
  endfacet
  facet normal 0 0.781831 -0.62349
    outer loop
      vertex -4 -0.867767 6.80194
      vertex -9.79506 -1.94986 5.44504
      vertex -9.90879 -0.867767 6.80194
    endloop
  endfacet
  facet normal 0 0.781831 -0.62349
    outer loop
      vertex 9.79506 -1.94986 5.44504
      vertex 4 -0.867767 6.80194
      vertex 9.90879 -0.867767 6.80194
    endloop
  endfacet
  facet normal 0 0.781831 -0.62349
    outer loop
      vertex 4 -0.867767 6.80194
      vertex 9.79506 -1.94986 5.44504
      vertex 4 -1.94986 5.44504
    endloop
  endfacet
  facet normal 0 0.974927 0.222525
    outer loop
      vertex -4 -1.56366 3.75302
      vertex -9.79506 -1.94986 5.44504
      vertex -4 -1.94986 5.44504
    endloop
  endfacet
  facet normal 0 0.974927 0.222525
    outer loop
      vertex -9.79506 -1.94986 5.44504
      vertex -4 -1.56366 3.75302
      vertex -9.83565 -1.56366 3.75302
    endloop
  endfacet
  facet normal -0 0.974927 0.222525
    outer loop
      vertex 4 -1.56366 3.75302
      vertex 9.79506 -1.94986 5.44504
      vertex 9.83565 -1.56366 3.75302
    endloop
  endfacet
  facet normal 0 0.974927 0.222525
    outer loop
      vertex 9.79506 -1.94986 5.44504
      vertex 4 -1.56366 3.75302
      vertex 4 -1.94986 5.44504
    endloop
  endfacet
  facet normal 0 0 -1
    outer loop
      vertex -10 0 6.80194
      vertex -4 -0.867767 6.80194
      vertex -9.90879 -0.867767 6.80194
    endloop
  endfacet
  facet normal 0 0 -1
    outer loop
      vertex -4 -0.867767 6.80194
      vertex -10 0 6.80194
      vertex -4 0.867767 6.80194
    endloop
  endfacet
  facet normal -0 0 -1
    outer loop
      vertex -4 0.867767 6.80194
      vertex -10 0 6.80194
      vertex -9.90879 0.867767 6.80194
    endloop
  endfacet
  facet normal 0 0 -1
    outer loop
      vertex 4 -0.867767 6.80194
      vertex 10 0 6.80194
      vertex 9.90879 -0.867767 6.80194
    endloop
  endfacet
  facet normal 0 0 -1
    outer loop
      vertex 4 0.867767 6.80194
      vertex 10 0 6.80194
      vertex 4 -0.867767 6.80194
    endloop
  endfacet
  facet normal 0 0 -1
    outer loop
      vertex 10 0 6.80194
      vertex 4 0.867767 6.80194
      vertex 9.90879 0.867767 6.80194
    endloop
  endfacet
  facet normal 1 -0 0
    outer loop
      vertex 5 8.66025 5
      vertex 5 45 0
      vertex 5 45 5
    endloop
  endfacet
  facet normal 1 0 0
    outer loop
      vertex 5 45 0
      vertex 5 8.66025 5
      vertex 5 8.66025 0
    endloop
  endfacet
  facet normal -0 0 1
    outer loop
      vertex 2 40 5
      vertex 5 8.66025 5
      vertex 5 45 5
    endloop
  endfacet
  facet normal -0 0 1
    outer loop
      vertex 1.24698 38.4363 5
      vertex 5 8.66025 5
      vertex 2 40 5
    endloop
  endfacet
  facet normal 0 0 1
    outer loop
      vertex 5 45 5
      vertex 1.24698 41.5637 5
      vertex 2 40 5
    endloop
  endfacet
  facet normal 0 0 1
    outer loop
      vertex 5 45 5
      vertex -0.445042 41.9499 5
      vertex 1.24698 41.5637 5
    endloop
  endfacet
  facet normal 0 0 1
    outer loop
      vertex -5 45 5
      vertex -1.80194 39.1322 5
      vertex -1.80194 40.8678 5
    endloop
  endfacet
  facet normal -0 0 1
    outer loop
      vertex -5 45 5
      vertex -0.445042 41.9499 5
      vertex 5 45 5
    endloop
  endfacet
  facet normal 0 0 1
    outer loop
      vertex -5 45 5
      vertex -1.80194 40.8678 5
      vertex -0.445042 41.9499 5
    endloop
  endfacet
  facet normal 0 0 1
    outer loop
      vertex -1.80194 39.1322 5
      vertex -5 45 5
      vertex -5 8.66025 5
    endloop
  endfacet
  facet normal 0 0 1
    outer loop
      vertex -1.80194 39.1322 5
      vertex -5 8.66025 5
      vertex -3.09017 9.51056 5
    endloop
  endfacet
  facet normal 0 0 1
    outer loop
      vertex 5 8.66025 5
      vertex 1.24698 38.4363 5
      vertex 3.09017 9.51056 5
    endloop
  endfacet
  facet normal 0 0 1
    outer loop
      vertex 1.24698 38.4363 5
      vertex 1.04528 9.94522 5
      vertex 3.09017 9.51056 5
    endloop
  endfacet
  facet normal -0 0 1
    outer loop
      vertex -0.445042 38.0501 5
      vertex 1.04528 9.94522 5
      vertex 1.24698 38.4363 5
    endloop
  endfacet
  facet normal 0 0 1
    outer loop
      vertex -0.445042 38.0501 5
      vertex -1.04528 9.94522 5
      vertex 1.04528 9.94522 5
    endloop
  endfacet
  facet normal 0 0 1
    outer loop
      vertex -3.09017 9.51056 5
      vertex -0.445042 38.0501 5
      vertex -1.80194 39.1322 5
    endloop
  endfacet
  facet normal 0 0 1
    outer loop
      vertex -0.445042 38.0501 5
      vertex -3.09017 9.51056 5
      vertex -1.04528 9.94522 5
    endloop
  endfacet
  facet normal -1 0 0
    outer loop
      vertex -5 8.66025 0
      vertex -5 45 5
      vertex -5 45 0
    endloop
  endfacet
  facet normal -1 -0 0
    outer loop
      vertex -5 45 5
      vertex -5 8.66025 0
      vertex -5 8.66025 5
    endloop
  endfacet
  facet normal 0 1 -0
    outer loop
      vertex 5 45 0
      vertex -5 45 5
      vertex 5 45 5
    endloop
  endfacet
  facet normal 0 1 0
    outer loop
      vertex -5 45 5
      vertex 5 45 0
      vertex -5 45 0
    endloop
  endfacet
  facet normal -0.222525 -0.974927 0
    outer loop
      vertex -0.445042 41.9499 0
      vertex 1.24698 41.5637 5
      vertex -0.445042 41.9499 5
    endloop
  endfacet
  facet normal -0.222525 -0.974927 -0
    outer loop
      vertex 1.24698 41.5637 5
      vertex -0.445042 41.9499 0
      vertex 1.24698 41.5637 0
    endloop
  endfacet
  facet normal -0.900973 -0.433875 0
    outer loop
      vertex 2 40 0
      vertex 1.24698 41.5637 5
      vertex 1.24698 41.5637 0
    endloop
  endfacet
  facet normal -0.900973 -0.433875 0
    outer loop
      vertex 1.24698 41.5637 5
      vertex 2 40 0
      vertex 2 40 5
    endloop
  endfacet
  facet normal 0.623493 -0.781829 0
    outer loop
      vertex -1.80194 40.8678 0
      vertex -0.445042 41.9499 5
      vertex -1.80194 40.8678 5
    endloop
  endfacet
  facet normal 0.623493 -0.781829 0
    outer loop
      vertex -0.445042 41.9499 5
      vertex -1.80194 40.8678 0
      vertex -0.445042 41.9499 0
    endloop
  endfacet
  facet normal 1 -0 0
    outer loop
      vertex -1.80194 39.1322 5
      vertex -1.80194 40.8678 0
      vertex -1.80194 40.8678 5
    endloop
  endfacet
  facet normal 1 0 0
    outer loop
      vertex -1.80194 40.8678 0
      vertex -1.80194 39.1322 5
      vertex -1.80194 39.1322 0
    endloop
  endfacet
  facet normal -0.900973 0.433875 0
    outer loop
      vertex 1.24698 38.4363 0
      vertex 2 40 5
      vertex 2 40 0
    endloop
  endfacet
  facet normal -0.900973 0.433875 0
    outer loop
      vertex 2 40 5
      vertex 1.24698 38.4363 0
      vertex 1.24698 38.4363 5
    endloop
  endfacet
  facet normal 0.623493 0.781829 -0
    outer loop
      vertex -0.445042 38.0501 0
      vertex -1.80194 39.1322 5
      vertex -0.445042 38.0501 5
    endloop
  endfacet
  facet normal 0.623493 0.781829 0
    outer loop
      vertex -1.80194 39.1322 5
      vertex -0.445042 38.0501 0
      vertex -1.80194 39.1322 0
    endloop
  endfacet
  facet normal -0.222525 0.974927 0
    outer loop
      vertex 1.24698 38.4363 0
      vertex -0.445042 38.0501 5
      vertex 1.24698 38.4363 5
    endloop
  endfacet
  facet normal -0.222525 0.974927 0
    outer loop
      vertex -0.445042 38.0501 5
      vertex 1.24698 38.4363 0
      vertex -0.445042 38.0501 0
    endloop
  endfacet
endsolid OpenSCAD_Model
