solid OpenSCAD_Model
  facet normal 0.939694 0.342016 0
    outer loop
      vertex 3.83923 2.41961 9.5
      vertex 3.71954 2.74846 -5.5
      vertex 3.71954 2.74846 9.5
    endloop
  endfacet
  facet normal 0.939694 0.342016 0
    outer loop
      vertex 3.71954 2.74846 -5.5
      vertex 3.83923 2.41961 9.5
      vertex 3.83923 2.41961 -5.5
    endloop
  endfacet
  facet normal 0.342016 0.939694 -0
    outer loop
      vertex 2.74846 3.71954 -5.5
      vertex 2.41961 3.83923 9.5
      vertex 2.74846 3.71954 9.5
    endloop
  endfacet
  facet normal 0.342016 0.939694 0
    outer loop
      vertex 2.41961 3.83923 9.5
      vertex 2.74846 3.71954 -5.5
      vertex 2.41961 3.83923 -5.5
    endloop
  endfacet
  facet normal 1 -0 0
    outer loop
      vertex 3.9 -2.07498 9.5
      vertex 3.9 2.07498 -5.5
      vertex 3.9 2.07498 9.5
    endloop
  endfacet
  facet normal 1 0 0
    outer loop
      vertex 3.9 2.07498 -5.5
      vertex 3.9 -2.07498 9.5
      vertex 3.9 -2.07498 -5.5
    endloop
  endfacet
  facet normal 0.984807 0.173655 0
    outer loop
      vertex 3.9 2.07498 9.5
      vertex 3.83923 2.41961 -5.5
      vertex 3.83923 2.41961 9.5
    endloop
  endfacet
  facet normal 0.984807 0.173655 0
    outer loop
      vertex 3.83923 2.41961 -5.5
      vertex 3.9 2.07498 9.5
      vertex 3.9 2.07498 -5.5
    endloop
  endfacet
  facet normal 0 1 -0
    outer loop
      vertex 2.07498 3.9 -5.5
      vertex -2.07498 3.9 9.5
      vertex 2.07498 3.9 9.5
    endloop
  endfacet
  facet normal 0 1 0
    outer loop
      vertex -2.07498 3.9 9.5
      vertex 2.07498 3.9 -5.5
      vertex -2.07498 3.9 -5.5
    endloop
  endfacet
  facet normal 0.173655 0.984807 -0
    outer loop
      vertex 2.41961 3.83923 -5.5
      vertex 2.07498 3.9 9.5
      vertex 2.41961 3.83923 9.5
    endloop
  endfacet
  facet normal 0.173655 0.984807 0
    outer loop
      vertex 2.07498 3.9 9.5
      vertex 2.41961 3.83923 -5.5
      vertex 2.07498 3.9 -5.5
    endloop
  endfacet
  facet normal 0.866022 0.500005 0
    outer loop
      vertex 3.71954 2.74846 9.5
      vertex 3.54456 3.05153 -5.5
      vertex 3.54456 3.05153 9.5
    endloop
  endfacet
  facet normal 0.866022 0.500005 0
    outer loop
      vertex 3.54456 3.05153 -5.5
      vertex 3.71954 2.74846 9.5
      vertex 3.71954 2.74846 -5.5
    endloop
  endfacet
  facet normal 0.642764 0.766064 -0
    outer loop
      vertex 3.31962 3.31962 -5.5
      vertex 3.05153 3.54456 9.5
      vertex 3.31962 3.31962 9.5
    endloop
  endfacet
  facet normal 0.642764 0.766064 0
    outer loop
      vertex 3.05153 3.54456 9.5
      vertex 3.31962 3.31962 -5.5
      vertex 3.05153 3.54456 -5.5
    endloop
  endfacet
  facet normal 0.766064 0.642764 0
    outer loop
      vertex 3.54456 3.05153 9.5
      vertex 3.31962 3.31962 -5.5
      vertex 3.31962 3.31962 9.5
    endloop
  endfacet
  facet normal 0.766064 0.642764 0
    outer loop
      vertex 3.31962 3.31962 -5.5
      vertex 3.54456 3.05153 9.5
      vertex 3.54456 3.05153 -5.5
    endloop
  endfacet
  facet normal 0.500005 0.866022 -0
    outer loop
      vertex 3.05153 3.54456 -5.5
      vertex 2.74846 3.71954 9.5
      vertex 3.05153 3.54456 9.5
    endloop
  endfacet
  facet normal 0.500005 0.866022 0
    outer loop
      vertex 2.74846 3.71954 9.5
      vertex 3.05153 3.54456 -5.5
      vertex 2.74846 3.71954 -5.5
    endloop
  endfacet
  facet normal -0.866022 0.500005 0
    outer loop
      vertex -3.71954 2.74846 -5.5
      vertex -3.54456 3.05153 9.5
      vertex -3.54456 3.05153 -5.5
    endloop
  endfacet
  facet normal -0.866022 0.500005 0
    outer loop
      vertex -3.54456 3.05153 9.5
      vertex -3.71954 2.74846 -5.5
      vertex -3.71954 2.74846 9.5
    endloop
  endfacet
  facet normal -1 0 0
    outer loop
      vertex -3.9 -2.07498 -5.5
      vertex -3.9 2.07498 9.5
      vertex -3.9 2.07498 -5.5
    endloop
  endfacet
  facet normal -1 -0 0
    outer loop
      vertex -3.9 2.07498 9.5
      vertex -3.9 -2.07498 -5.5
      vertex -3.9 -2.07498 9.5
    endloop
  endfacet
  facet normal -0.173655 0.984807 0
    outer loop
      vertex -2.07498 3.9 -5.5
      vertex -2.41961 3.83923 9.5
      vertex -2.07498 3.9 9.5
    endloop
  endfacet
  facet normal -0.173655 0.984807 0
    outer loop
      vertex -2.41961 3.83923 9.5
      vertex -2.07498 3.9 -5.5
      vertex -2.41961 3.83923 -5.5
    endloop
  endfacet
  facet normal -0.642764 0.766064 0
    outer loop
      vertex -3.05153 3.54456 -5.5
      vertex -3.31962 3.31962 9.5
      vertex -3.05153 3.54456 9.5
    endloop
  endfacet
  facet normal -0.642764 0.766064 0
    outer loop
      vertex -3.31962 3.31962 9.5
      vertex -3.05153 3.54456 -5.5
      vertex -3.31962 3.31962 -5.5
    endloop
  endfacet
  facet normal -0.500005 0.866022 0
    outer loop
      vertex -2.74846 3.71954 -5.5
      vertex -3.05153 3.54456 9.5
      vertex -2.74846 3.71954 9.5
    endloop
  endfacet
  facet normal -0.500005 0.866022 0
    outer loop
      vertex -3.05153 3.54456 9.5
      vertex -2.74846 3.71954 -5.5
      vertex -3.05153 3.54456 -5.5
    endloop
  endfacet
  facet normal -0.939694 0.342016 0
    outer loop
      vertex -3.83923 2.41961 -5.5
      vertex -3.71954 2.74846 9.5
      vertex -3.71954 2.74846 -5.5
    endloop
  endfacet
  facet normal -0.939694 0.342016 0
    outer loop
      vertex -3.71954 2.74846 9.5
      vertex -3.83923 2.41961 -5.5
      vertex -3.83923 2.41961 9.5
    endloop
  endfacet
  facet normal -0.766064 0.642764 0
    outer loop
      vertex -3.54456 3.05153 -5.5
      vertex -3.31962 3.31962 9.5
      vertex -3.31962 3.31962 -5.5
    endloop
  endfacet
  facet normal -0.766064 0.642764 0
    outer loop
      vertex -3.31962 3.31962 9.5
      vertex -3.54456 3.05153 -5.5
      vertex -3.54456 3.05153 9.5
    endloop
  endfacet
  facet normal -0.984807 0.173655 0
    outer loop
      vertex -3.9 2.07498 -5.5
      vertex -3.83923 2.41961 9.5
      vertex -3.83923 2.41961 -5.5
    endloop
  endfacet
  facet normal -0.984807 0.173655 0
    outer loop
      vertex -3.83923 2.41961 9.5
      vertex -3.9 2.07498 -5.5
      vertex -3.9 2.07498 9.5
    endloop
  endfacet
  facet normal -0.342016 0.939694 0
    outer loop
      vertex -2.41961 3.83923 -5.5
      vertex -2.74846 3.71954 9.5
      vertex -2.41961 3.83923 9.5
    endloop
  endfacet
  facet normal -0.342016 0.939694 0
    outer loop
      vertex -2.74846 3.71954 9.5
      vertex -2.41961 3.83923 -5.5
      vertex -2.74846 3.71954 -5.5
    endloop
  endfacet
  facet normal -0.342016 -0.939694 0
    outer loop
      vertex -2.74846 -3.71954 -5.5
      vertex -2.41961 -3.83923 9.5
      vertex -2.74846 -3.71954 9.5
    endloop
  endfacet
  facet normal -0.342016 -0.939694 -0
    outer loop
      vertex -2.41961 -3.83923 9.5
      vertex -2.74846 -3.71954 -5.5
      vertex -2.41961 -3.83923 -5.5
    endloop
  endfacet
  facet normal -0.984807 -0.173655 0
    outer loop
      vertex -3.83923 -2.41961 -5.5
      vertex -3.9 -2.07498 9.5
      vertex -3.9 -2.07498 -5.5
    endloop
  endfacet
  facet normal -0.984807 -0.173655 0
    outer loop
      vertex -3.9 -2.07498 9.5
      vertex -3.83923 -2.41961 -5.5
      vertex -3.83923 -2.41961 9.5
    endloop
  endfacet
  facet normal 0 -1 0
    outer loop
      vertex -2.07498 -3.9 -5.5
      vertex 2.07498 -3.9 9.5
      vertex -2.07498 -3.9 9.5
    endloop
  endfacet
  facet normal 0 -1 -0
    outer loop
      vertex 2.07498 -3.9 9.5
      vertex -2.07498 -3.9 -5.5
      vertex 2.07498 -3.9 -5.5
    endloop
  endfacet
  facet normal -0.173655 -0.984807 0
    outer loop
      vertex -2.41961 -3.83923 -5.5
      vertex -2.07498 -3.9 9.5
      vertex -2.41961 -3.83923 9.5
    endloop
  endfacet
  facet normal -0.173655 -0.984807 -0
    outer loop
      vertex -2.07498 -3.9 9.5
      vertex -2.41961 -3.83923 -5.5
      vertex -2.07498 -3.9 -5.5
    endloop
  endfacet
  facet normal -0.939694 -0.342016 0
    outer loop
      vertex -3.71954 -2.74846 -5.5
      vertex -3.83923 -2.41961 9.5
      vertex -3.83923 -2.41961 -5.5
    endloop
  endfacet
  facet normal -0.939694 -0.342016 0
    outer loop
      vertex -3.83923 -2.41961 9.5
      vertex -3.71954 -2.74846 -5.5
      vertex -3.71954 -2.74846 9.5
    endloop
  endfacet
  facet normal -0.766064 -0.642764 0
    outer loop
      vertex -3.31962 -3.31962 -5.5
      vertex -3.54456 -3.05153 9.5
      vertex -3.54456 -3.05153 -5.5
    endloop
  endfacet
  facet normal -0.766064 -0.642764 0
    outer loop
      vertex -3.54456 -3.05153 9.5
      vertex -3.31962 -3.31962 -5.5
      vertex -3.31962 -3.31962 9.5
    endloop
  endfacet
  facet normal -0.866022 -0.500005 0
    outer loop
      vertex -3.54456 -3.05153 -5.5
      vertex -3.71954 -2.74846 9.5
      vertex -3.71954 -2.74846 -5.5
    endloop
  endfacet
  facet normal -0.866022 -0.500005 0
    outer loop
      vertex -3.71954 -2.74846 9.5
      vertex -3.54456 -3.05153 -5.5
      vertex -3.54456 -3.05153 9.5
    endloop
  endfacet
  facet normal -0.642764 -0.766064 0
    outer loop
      vertex -3.31962 -3.31962 -5.5
      vertex -3.05153 -3.54456 9.5
      vertex -3.31962 -3.31962 9.5
    endloop
  endfacet
  facet normal -0.642764 -0.766064 -0
    outer loop
      vertex -3.05153 -3.54456 9.5
      vertex -3.31962 -3.31962 -5.5
      vertex -3.05153 -3.54456 -5.5
    endloop
  endfacet
  facet normal -0.500005 -0.866022 0
    outer loop
      vertex -3.05153 -3.54456 -5.5
      vertex -2.74846 -3.71954 9.5
      vertex -3.05153 -3.54456 9.5
    endloop
  endfacet
  facet normal -0.500005 -0.866022 -0
    outer loop
      vertex -2.74846 -3.71954 9.5
      vertex -3.05153 -3.54456 -5.5
      vertex -2.74846 -3.71954 -5.5
    endloop
  endfacet
  facet normal 0.866022 -0.500005 0
    outer loop
      vertex 3.54456 -3.05153 9.5
      vertex 3.71954 -2.74846 -5.5
      vertex 3.71954 -2.74846 9.5
    endloop
  endfacet
  facet normal 0.866022 -0.500005 0
    outer loop
      vertex 3.71954 -2.74846 -5.5
      vertex 3.54456 -3.05153 9.5
      vertex 3.54456 -3.05153 -5.5
    endloop
  endfacet
  facet normal 0.173655 -0.984807 0
    outer loop
      vertex 2.07498 -3.9 -5.5
      vertex 2.41961 -3.83923 9.5
      vertex 2.07498 -3.9 9.5
    endloop
  endfacet
  facet normal 0.173655 -0.984807 0
    outer loop
      vertex 2.41961 -3.83923 9.5
      vertex 2.07498 -3.9 -5.5
      vertex 2.41961 -3.83923 -5.5
    endloop
  endfacet
  facet normal 0.766064 -0.642764 0
    outer loop
      vertex 3.31962 -3.31962 9.5
      vertex 3.54456 -3.05153 -5.5
      vertex 3.54456 -3.05153 9.5
    endloop
  endfacet
  facet normal 0.766064 -0.642764 0
    outer loop
      vertex 3.54456 -3.05153 -5.5
      vertex 3.31962 -3.31962 9.5
      vertex 3.31962 -3.31962 -5.5
    endloop
  endfacet
  facet normal 0.939694 -0.342016 0
    outer loop
      vertex 3.71954 -2.74846 9.5
      vertex 3.83923 -2.41961 -5.5
      vertex 3.83923 -2.41961 9.5
    endloop
  endfacet
  facet normal 0.939694 -0.342016 0
    outer loop
      vertex 3.83923 -2.41961 -5.5
      vertex 3.71954 -2.74846 9.5
      vertex 3.71954 -2.74846 -5.5
    endloop
  endfacet
  facet normal 0.642764 -0.766064 0
    outer loop
      vertex 3.05153 -3.54456 -5.5
      vertex 3.31962 -3.31962 9.5
      vertex 3.05153 -3.54456 9.5
    endloop
  endfacet
  facet normal 0.642764 -0.766064 0
    outer loop
      vertex 3.31962 -3.31962 9.5
      vertex 3.05153 -3.54456 -5.5
      vertex 3.31962 -3.31962 -5.5
    endloop
  endfacet
  facet normal 0.342016 -0.939694 0
    outer loop
      vertex 2.41961 -3.83923 -5.5
      vertex 2.74846 -3.71954 9.5
      vertex 2.41961 -3.83923 9.5
    endloop
  endfacet
  facet normal 0.342016 -0.939694 0
    outer loop
      vertex 2.74846 -3.71954 9.5
      vertex 2.41961 -3.83923 -5.5
      vertex 2.74846 -3.71954 -5.5
    endloop
  endfacet
  facet normal 0.500005 -0.866022 0
    outer loop
      vertex 2.74846 -3.71954 -5.5
      vertex 3.05153 -3.54456 9.5
      vertex 2.74846 -3.71954 9.5
    endloop
  endfacet
  facet normal 0.500005 -0.866022 0
    outer loop
      vertex 3.05153 -3.54456 9.5
      vertex 2.74846 -3.71954 -5.5
      vertex 3.05153 -3.54456 -5.5
    endloop
  endfacet
  facet normal 0.984807 -0.173655 0
    outer loop
      vertex 3.83923 -2.41961 9.5
      vertex 3.9 -2.07498 -5.5
      vertex 3.9 -2.07498 9.5
    endloop
  endfacet
  facet normal 0.984807 -0.173655 0
    outer loop
      vertex 3.9 -2.07498 -5.5
      vertex 3.83923 -2.41961 9.5
      vertex 3.83923 -2.41961 -5.5
    endloop
  endfacet
  facet normal 0 0 1
    outer loop
      vertex 2.35477 1.90651 9.5
      vertex 3.9 2.07498 9.5
      vertex 3.83923 2.41961 9.5
    endloop
  endfacet
  facet normal 0 0 1
    outer loop
      vertex 3.9 2.07498 9.5
      vertex 2.4 1.65 9.5
      vertex 3.9 -2.07498 9.5
    endloop
  endfacet
  facet normal 0 0 1
    outer loop
      vertex 2.29952 2.025 9.5
      vertex 3.83923 2.41961 9.5
      vertex 3.71954 2.74846 9.5
    endloop
  endfacet
  facet normal -0 0 1
    outer loop
      vertex 2.4 -1.65 9.5
      vertex 3.9 -2.07498 9.5
      vertex 2.4 1.65 9.5
    endloop
  endfacet
  facet normal 0 0 1
    outer loop
      vertex 2.29952 2.025 9.5
      vertex 3.71954 2.74846 9.5
      vertex 3.54456 3.05153 9.5
    endloop
  endfacet
  facet normal -0 0 1
    outer loop
      vertex 2.38861 -1.78024 9.5
      vertex 3.9 -2.07498 9.5
      vertex 2.4 -1.65 9.5
    endloop
  endfacet
  facet normal 0 0 1
    outer loop
      vertex 2.22453 2.13209 9.5
      vertex 3.54456 3.05153 9.5
      vertex 3.31962 3.31962 9.5
    endloop
  endfacet
  facet normal -0 0 1
    outer loop
      vertex 2.35477 -1.90651 9.5
      vertex 3.9 -2.07498 9.5
      vertex 2.38861 -1.78024 9.5
    endloop
  endfacet
  facet normal 0 0 1
    outer loop
      vertex 2.13209 2.22453 9.5
      vertex 3.31962 3.31962 9.5
      vertex 3.05153 3.54456 9.5
    endloop
  endfacet
  facet normal 0 0 1
    outer loop
      vertex 3.9 -2.07498 9.5
      vertex 2.35477 -1.90651 9.5
      vertex 3.83923 -2.41961 9.5
    endloop
  endfacet
  facet normal 0 0 1
    outer loop
      vertex 2.025 2.29952 9.5
      vertex 3.05153 3.54456 9.5
      vertex 2.74846 3.71954 9.5
    endloop
  endfacet
  facet normal -0 0 1
    outer loop
      vertex 2.29952 -2.025 9.5
      vertex 3.83923 -2.41961 9.5
      vertex 2.35477 -1.90651 9.5
    endloop
  endfacet
  facet normal 0 0 1
    outer loop
      vertex 2.025 2.29952 9.5
      vertex 2.74846 3.71954 9.5
      vertex 2.41961 3.83923 9.5
    endloop
  endfacet
  facet normal 0 0 1
    outer loop
      vertex 3.83923 -2.41961 9.5
      vertex 2.29952 -2.025 9.5
      vertex 3.71954 -2.74846 9.5
    endloop
  endfacet
  facet normal 0 0 1
    outer loop
      vertex 3.71954 -2.74846 9.5
      vertex 2.29952 -2.025 9.5
      vertex 3.54456 -3.05153 9.5
    endloop
  endfacet
  facet normal 0 0 1
    outer loop
      vertex 3.9 2.07498 9.5
      vertex 2.38861 1.78024 9.5
      vertex 2.4 1.65 9.5
    endloop
  endfacet
  facet normal 0 0 1
    outer loop
      vertex 3.9 2.07498 9.5
      vertex 2.35477 1.90651 9.5
      vertex 2.38861 1.78024 9.5
    endloop
  endfacet
  facet normal 0 0 1
    outer loop
      vertex 3.83923 2.41961 9.5
      vertex 2.29952 2.025 9.5
      vertex 2.35477 1.90651 9.5
    endloop
  endfacet
  facet normal 0 0 1
    outer loop
      vertex 3.54456 3.05153 9.5
      vertex 2.22453 2.13209 9.5
      vertex 2.29952 2.025 9.5
    endloop
  endfacet
  facet normal 0 0 1
    outer loop
      vertex 3.31962 3.31962 9.5
      vertex 2.13209 2.22453 9.5
      vertex 2.22453 2.13209 9.5
    endloop
  endfacet
  facet normal 0 0 1
    outer loop
      vertex 1.90651 2.35477 9.5
      vertex 2.41961 3.83923 9.5
      vertex 2.07498 3.9 9.5
    endloop
  endfacet
  facet normal 0 0 1
    outer loop
      vertex 3.05153 3.54456 9.5
      vertex 2.025 2.29952 9.5
      vertex 2.13209 2.22453 9.5
    endloop
  endfacet
  facet normal 0 0 1
    outer loop
      vertex 2.41961 3.83923 9.5
      vertex 1.90651 2.35477 9.5
      vertex 2.025 2.29952 9.5
    endloop
  endfacet
  facet normal 0 0 1
    outer loop
      vertex 2.07498 3.9 9.5
      vertex 1.78024 2.38861 9.5
      vertex 1.90651 2.35477 9.5
    endloop
  endfacet
  facet normal 0 0 1
    outer loop
      vertex 2.07498 3.9 9.5
      vertex 1.65 2.4 9.5
      vertex 1.78024 2.38861 9.5
    endloop
  endfacet
  facet normal 0 0 1
    outer loop
      vertex 2.07498 3.9 9.5
      vertex -1.65 2.4 9.5
      vertex 1.65 2.4 9.5
    endloop
  endfacet
  facet normal -0 0 1
    outer loop
      vertex -2.07498 3.9 9.5
      vertex -1.65 2.4 9.5
      vertex 2.07498 3.9 9.5
    endloop
  endfacet
  facet normal 0 0 1
    outer loop
      vertex -1.65 2.4 9.5
      vertex -2.07498 3.9 9.5
      vertex -1.78024 2.38861 9.5
    endloop
  endfacet
  facet normal 0 0 1
    outer loop
      vertex -1.78024 2.38861 9.5
      vertex -2.07498 3.9 9.5
      vertex -1.90651 2.35477 9.5
    endloop
  endfacet
  facet normal -0 0 1
    outer loop
      vertex -2.41961 3.83923 9.5
      vertex -1.90651 2.35477 9.5
      vertex -2.07498 3.9 9.5
    endloop
  endfacet
  facet normal 0 0 1
    outer loop
      vertex -1.90651 2.35477 9.5
      vertex -2.41961 3.83923 9.5
      vertex -2.025 2.29952 9.5
    endloop
  endfacet
  facet normal -0 0 1
    outer loop
      vertex -2.74846 3.71954 9.5
      vertex -2.025 2.29952 9.5
      vertex -2.41961 3.83923 9.5
    endloop
  endfacet
  facet normal -0 0 1
    outer loop
      vertex -3.05153 3.54456 9.5
      vertex -2.025 2.29952 9.5
      vertex -2.74846 3.71954 9.5
    endloop
  endfacet
  facet normal 0 0 1
    outer loop
      vertex -2.025 2.29952 9.5
      vertex -3.05153 3.54456 9.5
      vertex -2.13209 2.22453 9.5
    endloop
  endfacet
  facet normal -0 0 1
    outer loop
      vertex -3.31962 3.31962 9.5
      vertex -2.13209 2.22453 9.5
      vertex -3.05153 3.54456 9.5
    endloop
  endfacet
  facet normal 0 0 1
    outer loop
      vertex -2.22453 2.13209 9.5
      vertex -3.54456 3.05153 9.5
      vertex -2.29952 2.025 9.5
    endloop
  endfacet
  facet normal -0 0 1
    outer loop
      vertex -3.54456 3.05153 9.5
      vertex -2.22453 2.13209 9.5
      vertex -3.31962 3.31962 9.5
    endloop
  endfacet
  facet normal 0 0 1
    outer loop
      vertex -2.13209 2.22453 9.5
      vertex -3.31962 3.31962 9.5
      vertex -2.22453 2.13209 9.5
    endloop
  endfacet
  facet normal -0 0 1
    outer loop
      vertex 2.22453 -2.13209 9.5
      vertex 3.54456 -3.05153 9.5
      vertex 2.29952 -2.025 9.5
    endloop
  endfacet
  facet normal 0 0 1
    outer loop
      vertex 3.54456 -3.05153 9.5
      vertex 2.22453 -2.13209 9.5
      vertex 3.31962 -3.31962 9.5
    endloop
  endfacet
  facet normal -0 0 1
    outer loop
      vertex 2.13209 -2.22453 9.5
      vertex 3.31962 -3.31962 9.5
      vertex 2.22453 -2.13209 9.5
    endloop
  endfacet
  facet normal 0 0 1
    outer loop
      vertex 3.31962 -3.31962 9.5
      vertex 2.13209 -2.22453 9.5
      vertex 3.05153 -3.54456 9.5
    endloop
  endfacet
  facet normal -0 0 1
    outer loop
      vertex 2.025 -2.29952 9.5
      vertex 3.05153 -3.54456 9.5
      vertex 2.13209 -2.22453 9.5
    endloop
  endfacet
  facet normal 0 0 1
    outer loop
      vertex 3.05153 -3.54456 9.5
      vertex 2.025 -2.29952 9.5
      vertex 2.74846 -3.71954 9.5
    endloop
  endfacet
  facet normal 0 0 1
    outer loop
      vertex 2.74846 -3.71954 9.5
      vertex 2.025 -2.29952 9.5
      vertex 2.41961 -3.83923 9.5
    endloop
  endfacet
  facet normal -0 0 1
    outer loop
      vertex 1.90651 -2.35477 9.5
      vertex 2.41961 -3.83923 9.5
      vertex 2.025 -2.29952 9.5
    endloop
  endfacet
  facet normal 0 0 1
    outer loop
      vertex 2.41961 -3.83923 9.5
      vertex 1.90651 -2.35477 9.5
      vertex 2.07498 -3.9 9.5
    endloop
  endfacet
  facet normal -0 0 1
    outer loop
      vertex 1.78024 -2.38861 9.5
      vertex 2.07498 -3.9 9.5
      vertex 1.90651 -2.35477 9.5
    endloop
  endfacet
  facet normal -0 0 1
    outer loop
      vertex 1.65 -2.4 9.5
      vertex 2.07498 -3.9 9.5
      vertex 1.78024 -2.38861 9.5
    endloop
  endfacet
  facet normal -0 0 1
    outer loop
      vertex -1.65 -2.4 9.5
      vertex 2.07498 -3.9 9.5
      vertex 1.65 -2.4 9.5
    endloop
  endfacet
  facet normal 0 0 1
    outer loop
      vertex -2.07498 -3.9 9.5
      vertex -1.65 -2.4 9.5
      vertex -1.78024 -2.38861 9.5
    endloop
  endfacet
  facet normal 0 0 1
    outer loop
      vertex -2.07498 -3.9 9.5
      vertex -1.78024 -2.38861 9.5
      vertex -1.90651 -2.35477 9.5
    endloop
  endfacet
  facet normal 0 0 1
    outer loop
      vertex -1.65 -2.4 9.5
      vertex -2.07498 -3.9 9.5
      vertex 2.07498 -3.9 9.5
    endloop
  endfacet
  facet normal 0 0 1
    outer loop
      vertex -2.41961 -3.83923 9.5
      vertex -1.90651 -2.35477 9.5
      vertex -2.025 -2.29952 9.5
    endloop
  endfacet
  facet normal 0 0 1
    outer loop
      vertex -3.05153 -3.54456 9.5
      vertex -2.025 -2.29952 9.5
      vertex -2.13209 -2.22453 9.5
    endloop
  endfacet
  facet normal 0 0 1
    outer loop
      vertex -3.31962 -3.31962 9.5
      vertex -2.13209 -2.22453 9.5
      vertex -2.22453 -2.13209 9.5
    endloop
  endfacet
  facet normal 0 0 1
    outer loop
      vertex -3.54456 -3.05153 9.5
      vertex -2.22453 -2.13209 9.5
      vertex -2.29952 -2.025 9.5
    endloop
  endfacet
  facet normal 0 0 1
    outer loop
      vertex -3.83923 -2.41961 9.5
      vertex -2.29952 -2.025 9.5
      vertex -2.35477 -1.90651 9.5
    endloop
  endfacet
  facet normal 0 0 1
    outer loop
      vertex -3.9 -2.07498 9.5
      vertex -2.35477 -1.90651 9.5
      vertex -2.38861 -1.78024 9.5
    endloop
  endfacet
  facet normal 0 0 1
    outer loop
      vertex -1.90651 -2.35477 9.5
      vertex -2.41961 -3.83923 9.5
      vertex -2.07498 -3.9 9.5
    endloop
  endfacet
  facet normal 0 0 1
    outer loop
      vertex -3.9 -2.07498 9.5
      vertex -2.38861 -1.78024 9.5
      vertex -2.4 -1.65 9.5
    endloop
  endfacet
  facet normal 0 0 1
    outer loop
      vertex -2.4 1.65 9.5
      vertex -3.9 2.07498 9.5
      vertex -2.4 -1.65 9.5
    endloop
  endfacet
  facet normal -0 0 1
    outer loop
      vertex -3.71954 2.74846 9.5
      vertex -2.29952 2.025 9.5
      vertex -3.54456 3.05153 9.5
    endloop
  endfacet
  facet normal 0 0 1
    outer loop
      vertex -3.9 -2.07498 9.5
      vertex -2.4 -1.65 9.5
      vertex -3.9 2.07498 9.5
    endloop
  endfacet
  facet normal -0 0 1
    outer loop
      vertex -3.83923 2.41961 9.5
      vertex -2.29952 2.025 9.5
      vertex -3.71954 2.74846 9.5
    endloop
  endfacet
  facet normal 0 0 1
    outer loop
      vertex -2.35477 -1.90651 9.5
      vertex -3.9 -2.07498 9.5
      vertex -3.83923 -2.41961 9.5
    endloop
  endfacet
  facet normal 0 0 1
    outer loop
      vertex -2.29952 2.025 9.5
      vertex -3.83923 2.41961 9.5
      vertex -2.35477 1.90651 9.5
    endloop
  endfacet
  facet normal 0 0 1
    outer loop
      vertex -2.025 -2.29952 9.5
      vertex -2.74846 -3.71954 9.5
      vertex -2.41961 -3.83923 9.5
    endloop
  endfacet
  facet normal -0 0 1
    outer loop
      vertex -3.9 2.07498 9.5
      vertex -2.35477 1.90651 9.5
      vertex -3.83923 2.41961 9.5
    endloop
  endfacet
  facet normal 0 0 1
    outer loop
      vertex -2.025 -2.29952 9.5
      vertex -3.05153 -3.54456 9.5
      vertex -2.74846 -3.71954 9.5
    endloop
  endfacet
  facet normal 0 0 1
    outer loop
      vertex -2.35477 1.90651 9.5
      vertex -3.9 2.07498 9.5
      vertex -2.38861 1.78024 9.5
    endloop
  endfacet
  facet normal 0 0 1
    outer loop
      vertex -2.13209 -2.22453 9.5
      vertex -3.31962 -3.31962 9.5
      vertex -3.05153 -3.54456 9.5
    endloop
  endfacet
  facet normal 0 0 1
    outer loop
      vertex -2.38861 1.78024 9.5
      vertex -3.9 2.07498 9.5
      vertex -2.4 1.65 9.5
    endloop
  endfacet
  facet normal 0 0 1
    outer loop
      vertex -2.22453 -2.13209 9.5
      vertex -3.54456 -3.05153 9.5
      vertex -3.31962 -3.31962 9.5
    endloop
  endfacet
  facet normal 0 0 1
    outer loop
      vertex -2.29952 -2.025 9.5
      vertex -3.71954 -2.74846 9.5
      vertex -3.54456 -3.05153 9.5
    endloop
  endfacet
  facet normal 0 0 1
    outer loop
      vertex -2.29952 -2.025 9.5
      vertex -3.83923 -2.41961 9.5
      vertex -3.71954 -2.74846 9.5
    endloop
  endfacet
  facet normal 0 0 -1
    outer loop
      vertex 2.35477 -1.90651 -5.5
      vertex 3.9 -2.07498 -5.5
      vertex 3.83923 -2.41961 -5.5
    endloop
  endfacet
  facet normal 0 0 -1
    outer loop
      vertex 3.9 -2.07498 -5.5
      vertex 2.4 -1.65 -5.5
      vertex 3.9 2.07498 -5.5
    endloop
  endfacet
  facet normal 0 0 -1
    outer loop
      vertex 2.29952 -2.025 -5.5
      vertex 3.83923 -2.41961 -5.5
      vertex 3.71954 -2.74846 -5.5
    endloop
  endfacet
  facet normal 0 0 -1
    outer loop
      vertex 2.4 1.65 -5.5
      vertex 3.9 2.07498 -5.5
      vertex 2.4 -1.65 -5.5
    endloop
  endfacet
  facet normal 0 0 -1
    outer loop
      vertex 2.29952 -2.025 -5.5
      vertex 3.71954 -2.74846 -5.5
      vertex 3.54456 -3.05153 -5.5
    endloop
  endfacet
  facet normal 0 0 -1
    outer loop
      vertex 2.38861 1.78024 -5.5
      vertex 3.9 2.07498 -5.5
      vertex 2.4 1.65 -5.5
    endloop
  endfacet
  facet normal 0 0 -1
    outer loop
      vertex 2.22453 -2.13209 -5.5
      vertex 3.54456 -3.05153 -5.5
      vertex 3.31962 -3.31962 -5.5
    endloop
  endfacet
  facet normal 0 0 -1
    outer loop
      vertex 2.35477 1.90651 -5.5
      vertex 3.9 2.07498 -5.5
      vertex 2.38861 1.78024 -5.5
    endloop
  endfacet
  facet normal 0 0 -1
    outer loop
      vertex 2.13209 -2.22453 -5.5
      vertex 3.31962 -3.31962 -5.5
      vertex 3.05153 -3.54456 -5.5
    endloop
  endfacet
  facet normal -0 0 -1
    outer loop
      vertex 3.9 2.07498 -5.5
      vertex 2.35477 1.90651 -5.5
      vertex 3.83923 2.41961 -5.5
    endloop
  endfacet
  facet normal 0 0 -1
    outer loop
      vertex 2.025 -2.29952 -5.5
      vertex 3.05153 -3.54456 -5.5
      vertex 2.74846 -3.71954 -5.5
    endloop
  endfacet
  facet normal 0 0 -1
    outer loop
      vertex 2.29952 2.025 -5.5
      vertex 3.83923 2.41961 -5.5
      vertex 2.35477 1.90651 -5.5
    endloop
  endfacet
  facet normal 0 0 -1
    outer loop
      vertex 2.025 -2.29952 -5.5
      vertex 2.74846 -3.71954 -5.5
      vertex 2.41961 -3.83923 -5.5
    endloop
  endfacet
  facet normal -0 0 -1
    outer loop
      vertex 3.83923 2.41961 -5.5
      vertex 2.29952 2.025 -5.5
      vertex 3.71954 2.74846 -5.5
    endloop
  endfacet
  facet normal -0 0 -1
    outer loop
      vertex 3.71954 2.74846 -5.5
      vertex 2.29952 2.025 -5.5
      vertex 3.54456 3.05153 -5.5
    endloop
  endfacet
  facet normal 0 0 -1
    outer loop
      vertex 3.9 -2.07498 -5.5
      vertex 2.38861 -1.78024 -5.5
      vertex 2.4 -1.65 -5.5
    endloop
  endfacet
  facet normal 0 0 -1
    outer loop
      vertex 3.9 -2.07498 -5.5
      vertex 2.35477 -1.90651 -5.5
      vertex 2.38861 -1.78024 -5.5
    endloop
  endfacet
  facet normal 0 0 -1
    outer loop
      vertex 3.83923 -2.41961 -5.5
      vertex 2.29952 -2.025 -5.5
      vertex 2.35477 -1.90651 -5.5
    endloop
  endfacet
  facet normal 0 0 -1
    outer loop
      vertex 3.54456 -3.05153 -5.5
      vertex 2.22453 -2.13209 -5.5
      vertex 2.29952 -2.025 -5.5
    endloop
  endfacet
  facet normal 0 0 -1
    outer loop
      vertex 3.31962 -3.31962 -5.5
      vertex 2.13209 -2.22453 -5.5
      vertex 2.22453 -2.13209 -5.5
    endloop
  endfacet
  facet normal 0 0 -1
    outer loop
      vertex 1.90651 -2.35477 -5.5
      vertex 2.41961 -3.83923 -5.5
      vertex 2.07498 -3.9 -5.5
    endloop
  endfacet
  facet normal 0 0 -1
    outer loop
      vertex 3.05153 -3.54456 -5.5
      vertex 2.025 -2.29952 -5.5
      vertex 2.13209 -2.22453 -5.5
    endloop
  endfacet
  facet normal 0 0 -1
    outer loop
      vertex 2.41961 -3.83923 -5.5
      vertex 1.90651 -2.35477 -5.5
      vertex 2.025 -2.29952 -5.5
    endloop
  endfacet
  facet normal 0 0 -1
    outer loop
      vertex 2.07498 -3.9 -5.5
      vertex 1.78024 -2.38861 -5.5
      vertex 1.90651 -2.35477 -5.5
    endloop
  endfacet
  facet normal 0 0 -1
    outer loop
      vertex 2.07498 -3.9 -5.5
      vertex 1.65 -2.4 -5.5
      vertex 1.78024 -2.38861 -5.5
    endloop
  endfacet
  facet normal 0 0 -1
    outer loop
      vertex 2.07498 -3.9 -5.5
      vertex -1.65 -2.4 -5.5
      vertex 1.65 -2.4 -5.5
    endloop
  endfacet
  facet normal 0 0 -1
    outer loop
      vertex -2.07498 -3.9 -5.5
      vertex -1.65 -2.4 -5.5
      vertex 2.07498 -3.9 -5.5
    endloop
  endfacet
  facet normal -0 0 -1
    outer loop
      vertex -1.65 -2.4 -5.5
      vertex -2.07498 -3.9 -5.5
      vertex -1.78024 -2.38861 -5.5
    endloop
  endfacet
  facet normal -0 0 -1
    outer loop
      vertex -1.78024 -2.38861 -5.5
      vertex -2.07498 -3.9 -5.5
      vertex -1.90651 -2.35477 -5.5
    endloop
  endfacet
  facet normal 0 0 -1
    outer loop
      vertex -2.41961 -3.83923 -5.5
      vertex -1.90651 -2.35477 -5.5
      vertex -2.07498 -3.9 -5.5
    endloop
  endfacet
  facet normal -0 0 -1
    outer loop
      vertex -1.90651 -2.35477 -5.5
      vertex -2.41961 -3.83923 -5.5
      vertex -2.025 -2.29952 -5.5
    endloop
  endfacet
  facet normal 0 0 -1
    outer loop
      vertex -2.74846 -3.71954 -5.5
      vertex -2.025 -2.29952 -5.5
      vertex -2.41961 -3.83923 -5.5
    endloop
  endfacet
  facet normal 0 0 -1
    outer loop
      vertex -3.05153 -3.54456 -5.5
      vertex -2.025 -2.29952 -5.5
      vertex -2.74846 -3.71954 -5.5
    endloop
  endfacet
  facet normal -0 0 -1
    outer loop
      vertex -2.025 -2.29952 -5.5
      vertex -3.05153 -3.54456 -5.5
      vertex -2.13209 -2.22453 -5.5
    endloop
  endfacet
  facet normal 0 0 -1
    outer loop
      vertex -3.31962 -3.31962 -5.5
      vertex -2.13209 -2.22453 -5.5
      vertex -3.05153 -3.54456 -5.5
    endloop
  endfacet
  facet normal -0 0 -1
    outer loop
      vertex -2.22453 -2.13209 -5.5
      vertex -3.54456 -3.05153 -5.5
      vertex -2.29952 -2.025 -5.5
    endloop
  endfacet
  facet normal 0 0 -1
    outer loop
      vertex -3.54456 -3.05153 -5.5
      vertex -2.22453 -2.13209 -5.5
      vertex -3.31962 -3.31962 -5.5
    endloop
  endfacet
  facet normal -0 0 -1
    outer loop
      vertex -2.13209 -2.22453 -5.5
      vertex -3.31962 -3.31962 -5.5
      vertex -2.22453 -2.13209 -5.5
    endloop
  endfacet
  facet normal 0 0 -1
    outer loop
      vertex 2.22453 2.13209 -5.5
      vertex 3.54456 3.05153 -5.5
      vertex 2.29952 2.025 -5.5
    endloop
  endfacet
  facet normal -0 0 -1
    outer loop
      vertex 3.54456 3.05153 -5.5
      vertex 2.22453 2.13209 -5.5
      vertex 3.31962 3.31962 -5.5
    endloop
  endfacet
  facet normal 0 0 -1
    outer loop
      vertex 2.13209 2.22453 -5.5
      vertex 3.31962 3.31962 -5.5
      vertex 2.22453 2.13209 -5.5
    endloop
  endfacet
  facet normal -0 0 -1
    outer loop
      vertex 3.31962 3.31962 -5.5
      vertex 2.13209 2.22453 -5.5
      vertex 3.05153 3.54456 -5.5
    endloop
  endfacet
  facet normal 0 0 -1
    outer loop
      vertex 2.025 2.29952 -5.5
      vertex 3.05153 3.54456 -5.5
      vertex 2.13209 2.22453 -5.5
    endloop
  endfacet
  facet normal -0 0 -1
    outer loop
      vertex 3.05153 3.54456 -5.5
      vertex 2.025 2.29952 -5.5
      vertex 2.74846 3.71954 -5.5
    endloop
  endfacet
  facet normal -0 0 -1
    outer loop
      vertex 2.74846 3.71954 -5.5
      vertex 2.025 2.29952 -5.5
      vertex 2.41961 3.83923 -5.5
    endloop
  endfacet
  facet normal 0 0 -1
    outer loop
      vertex 1.90651 2.35477 -5.5
      vertex 2.41961 3.83923 -5.5
      vertex 2.025 2.29952 -5.5
    endloop
  endfacet
  facet normal -0 0 -1
    outer loop
      vertex 2.41961 3.83923 -5.5
      vertex 1.90651 2.35477 -5.5
      vertex 2.07498 3.9 -5.5
    endloop
  endfacet
  facet normal 0 0 -1
    outer loop
      vertex 1.78024 2.38861 -5.5
      vertex 2.07498 3.9 -5.5
      vertex 1.90651 2.35477 -5.5
    endloop
  endfacet
  facet normal 0 0 -1
    outer loop
      vertex 1.65 2.4 -5.5
      vertex 2.07498 3.9 -5.5
      vertex 1.78024 2.38861 -5.5
    endloop
  endfacet
  facet normal 0 0 -1
    outer loop
      vertex -1.65 2.4 -5.5
      vertex 2.07498 3.9 -5.5
      vertex 1.65 2.4 -5.5
    endloop
  endfacet
  facet normal 0 0 -1
    outer loop
      vertex -2.07498 3.9 -5.5
      vertex -1.65 2.4 -5.5
      vertex -1.78024 2.38861 -5.5
    endloop
  endfacet
  facet normal 0 0 -1
    outer loop
      vertex -2.07498 3.9 -5.5
      vertex -1.78024 2.38861 -5.5
      vertex -1.90651 2.35477 -5.5
    endloop
  endfacet
  facet normal 0 0 -1
    outer loop
      vertex -1.65 2.4 -5.5
      vertex -2.07498 3.9 -5.5
      vertex 2.07498 3.9 -5.5
    endloop
  endfacet
  facet normal 0 0 -1
    outer loop
      vertex -2.41961 3.83923 -5.5
      vertex -1.90651 2.35477 -5.5
      vertex -2.025 2.29952 -5.5
    endloop
  endfacet
  facet normal 0 0 -1
    outer loop
      vertex -3.05153 3.54456 -5.5
      vertex -2.025 2.29952 -5.5
      vertex -2.13209 2.22453 -5.5
    endloop
  endfacet
  facet normal 0 0 -1
    outer loop
      vertex -3.31962 3.31962 -5.5
      vertex -2.13209 2.22453 -5.5
      vertex -2.22453 2.13209 -5.5
    endloop
  endfacet
  facet normal 0 0 -1
    outer loop
      vertex -3.54456 3.05153 -5.5
      vertex -2.22453 2.13209 -5.5
      vertex -2.29952 2.025 -5.5
    endloop
  endfacet
  facet normal 0 0 -1
    outer loop
      vertex -3.83923 2.41961 -5.5
      vertex -2.29952 2.025 -5.5
      vertex -2.35477 1.90651 -5.5
    endloop
  endfacet
  facet normal 0 0 -1
    outer loop
      vertex -3.9 2.07498 -5.5
      vertex -2.35477 1.90651 -5.5
      vertex -2.38861 1.78024 -5.5
    endloop
  endfacet
  facet normal 0 0 -1
    outer loop
      vertex -1.90651 2.35477 -5.5
      vertex -2.41961 3.83923 -5.5
      vertex -2.07498 3.9 -5.5
    endloop
  endfacet
  facet normal 0 0 -1
    outer loop
      vertex -3.9 2.07498 -5.5
      vertex -2.38861 1.78024 -5.5
      vertex -2.4 1.65 -5.5
    endloop
  endfacet
  facet normal -0 0 -1
    outer loop
      vertex -2.4 -1.65 -5.5
      vertex -3.9 -2.07498 -5.5
      vertex -2.4 1.65 -5.5
    endloop
  endfacet
  facet normal 0 0 -1
    outer loop
      vertex -3.71954 -2.74846 -5.5
      vertex -2.29952 -2.025 -5.5
      vertex -3.54456 -3.05153 -5.5
    endloop
  endfacet
  facet normal 0 0 -1
    outer loop
      vertex -3.9 2.07498 -5.5
      vertex -2.4 1.65 -5.5
      vertex -3.9 -2.07498 -5.5
    endloop
  endfacet
  facet normal 0 0 -1
    outer loop
      vertex -3.83923 -2.41961 -5.5
      vertex -2.29952 -2.025 -5.5
      vertex -3.71954 -2.74846 -5.5
    endloop
  endfacet
  facet normal 0 0 -1
    outer loop
      vertex -2.35477 1.90651 -5.5
      vertex -3.9 2.07498 -5.5
      vertex -3.83923 2.41961 -5.5
    endloop
  endfacet
  facet normal -0 0 -1
    outer loop
      vertex -2.29952 -2.025 -5.5
      vertex -3.83923 -2.41961 -5.5
      vertex -2.35477 -1.90651 -5.5
    endloop
  endfacet
  facet normal 0 0 -1
    outer loop
      vertex -2.025 2.29952 -5.5
      vertex -2.74846 3.71954 -5.5
      vertex -2.41961 3.83923 -5.5
    endloop
  endfacet
  facet normal 0 0 -1
    outer loop
      vertex -3.9 -2.07498 -5.5
      vertex -2.35477 -1.90651 -5.5
      vertex -3.83923 -2.41961 -5.5
    endloop
  endfacet
  facet normal 0 0 -1
    outer loop
      vertex -2.025 2.29952 -5.5
      vertex -3.05153 3.54456 -5.5
      vertex -2.74846 3.71954 -5.5
    endloop
  endfacet
  facet normal -0 0 -1
    outer loop
      vertex -2.35477 -1.90651 -5.5
      vertex -3.9 -2.07498 -5.5
      vertex -2.38861 -1.78024 -5.5
    endloop
  endfacet
  facet normal 0 0 -1
    outer loop
      vertex -2.13209 2.22453 -5.5
      vertex -3.31962 3.31962 -5.5
      vertex -3.05153 3.54456 -5.5
    endloop
  endfacet
  facet normal -0 0 -1
    outer loop
      vertex -2.38861 -1.78024 -5.5
      vertex -3.9 -2.07498 -5.5
      vertex -2.4 -1.65 -5.5
    endloop
  endfacet
  facet normal 0 0 -1
    outer loop
      vertex -2.22453 2.13209 -5.5
      vertex -3.54456 3.05153 -5.5
      vertex -3.31962 3.31962 -5.5
    endloop
  endfacet
  facet normal 0 0 -1
    outer loop
      vertex -2.29952 2.025 -5.5
      vertex -3.71954 2.74846 -5.5
      vertex -3.54456 3.05153 -5.5
    endloop
  endfacet
  facet normal 0 0 -1
    outer loop
      vertex -2.29952 2.025 -5.5
      vertex -3.83923 2.41961 -5.5
      vertex -3.71954 2.74846 -5.5
    endloop
  endfacet
  facet normal -0.258862 -0.965914 0
    outer loop
      vertex 1.78024 2.38861 -5.5
      vertex 1.90651 2.35477 9.5
      vertex 1.78024 2.38861 9.5
    endloop
  endfacet
  facet normal -0.258862 -0.965914 -0
    outer loop
      vertex 1.90651 2.35477 9.5
      vertex 1.78024 2.38861 -5.5
      vertex 1.90651 2.35477 -5.5
    endloop
  endfacet
  facet normal -0.996198 -0.0871214 0
    outer loop
      vertex 2.4 1.65 -5.5
      vertex 2.38861 1.78024 9.5
      vertex 2.38861 1.78024 -5.5
    endloop
  endfacet
  facet normal -0.996198 -0.0871214 0
    outer loop
      vertex 2.38861 1.78024 9.5
      vertex 2.4 1.65 -5.5
      vertex 2.4 1.65 9.5
    endloop
  endfacet
  facet normal -0.965914 -0.258862 0
    outer loop
      vertex 2.38861 1.78024 -5.5
      vertex 2.35477 1.90651 9.5
      vertex 2.35477 1.90651 -5.5
    endloop
  endfacet
  facet normal -0.965914 -0.258862 0
    outer loop
      vertex 2.35477 1.90651 9.5
      vertex 2.38861 1.78024 -5.5
      vertex 2.38861 1.78024 9.5
    endloop
  endfacet
  facet normal -1 0 0
    outer loop
      vertex 2.4 -1.65 -5.5
      vertex 2.4 1.65 9.5
      vertex 2.4 1.65 -5.5
    endloop
  endfacet
  facet normal -1 -0 0
    outer loop
      vertex 2.4 1.65 9.5
      vertex 2.4 -1.65 -5.5
      vertex 2.4 -1.65 9.5
    endloop
  endfacet
  facet normal -0.0871214 0.996198 0
    outer loop
      vertex 1.78024 -2.38861 -5.5
      vertex 1.65 -2.4 9.5
      vertex 1.78024 -2.38861 9.5
    endloop
  endfacet
  facet normal -0.0871214 0.996198 0
    outer loop
      vertex 1.65 -2.4 9.5
      vertex 1.78024 -2.38861 -5.5
      vertex 1.65 -2.4 -5.5
    endloop
  endfacet
  facet normal 0.819135 0.573601 0
    outer loop
      vertex -2.22453 -2.13209 9.5
      vertex -2.29952 -2.025 -5.5
      vertex -2.29952 -2.025 9.5
    endloop
  endfacet
  facet normal 0.819135 0.573601 0
    outer loop
      vertex -2.29952 -2.025 -5.5
      vertex -2.22453 -2.13209 9.5
      vertex -2.22453 -2.13209 -5.5
    endloop
  endfacet
  facet normal -0.422601 0.906316 0
    outer loop
      vertex 2.025 -2.29952 -5.5
      vertex 1.90651 -2.35477 9.5
      vertex 2.025 -2.29952 9.5
    endloop
  endfacet
  facet normal -0.422601 0.906316 0
    outer loop
      vertex 1.90651 -2.35477 9.5
      vertex 2.025 -2.29952 -5.5
      vertex 1.90651 -2.35477 -5.5
    endloop
  endfacet
  facet normal 0.422601 -0.906316 0
    outer loop
      vertex -2.025 2.29952 -5.5
      vertex -1.90651 2.35477 9.5
      vertex -2.025 2.29952 9.5
    endloop
  endfacet
  facet normal 0.422601 -0.906316 0
    outer loop
      vertex -1.90651 2.35477 9.5
      vertex -2.025 2.29952 -5.5
      vertex -1.90651 2.35477 -5.5
    endloop
  endfacet
  facet normal -0.996198 0.0871214 0
    outer loop
      vertex 2.38861 -1.78024 -5.5
      vertex 2.4 -1.65 9.5
      vertex 2.4 -1.65 -5.5
    endloop
  endfacet
  facet normal -0.996198 0.0871214 0
    outer loop
      vertex 2.4 -1.65 9.5
      vertex 2.38861 -1.78024 -5.5
      vertex 2.38861 -1.78024 9.5
    endloop
  endfacet
  facet normal 0.707107 0.707107 0
    outer loop
      vertex -2.13209 -2.22453 9.5
      vertex -2.22453 -2.13209 -5.5
      vertex -2.22453 -2.13209 9.5
    endloop
  endfacet
  facet normal 0.707107 0.707107 0
    outer loop
      vertex -2.22453 -2.13209 -5.5
      vertex -2.13209 -2.22453 9.5
      vertex -2.13209 -2.22453 -5.5
    endloop
  endfacet
  facet normal 0.996198 -0.0871214 0
    outer loop
      vertex -2.4 1.65 9.5
      vertex -2.38861 1.78024 -5.5
      vertex -2.38861 1.78024 9.5
    endloop
  endfacet
  facet normal 0.996198 -0.0871214 0
    outer loop
      vertex -2.38861 1.78024 -5.5
      vertex -2.4 1.65 9.5
      vertex -2.4 1.65 -5.5
    endloop
  endfacet
  facet normal 1 -0 0
    outer loop
      vertex -2.4 -1.65 9.5
      vertex -2.4 1.65 -5.5
      vertex -2.4 1.65 9.5
    endloop
  endfacet
  facet normal 1 0 0
    outer loop
      vertex -2.4 1.65 -5.5
      vertex -2.4 -1.65 9.5
      vertex -2.4 -1.65 -5.5
    endloop
  endfacet
  facet normal -0.965914 0.258862 0
    outer loop
      vertex 2.35477 -1.90651 -5.5
      vertex 2.38861 -1.78024 9.5
      vertex 2.38861 -1.78024 -5.5
    endloop
  endfacet
  facet normal -0.965914 0.258862 0
    outer loop
      vertex 2.38861 -1.78024 9.5
      vertex 2.35477 -1.90651 -5.5
      vertex 2.35477 -1.90651 9.5
    endloop
  endfacet
  facet normal 0.258862 0.965914 -0
    outer loop
      vertex -1.78024 -2.38861 -5.5
      vertex -1.90651 -2.35477 9.5
      vertex -1.78024 -2.38861 9.5
    endloop
  endfacet
  facet normal 0.258862 0.965914 0
    outer loop
      vertex -1.90651 -2.35477 9.5
      vertex -1.78024 -2.38861 -5.5
      vertex -1.90651 -2.35477 -5.5
    endloop
  endfacet
  facet normal -0.707107 -0.707107 0
    outer loop
      vertex 2.22453 2.13209 -5.5
      vertex 2.13209 2.22453 9.5
      vertex 2.13209 2.22453 -5.5
    endloop
  endfacet
  facet normal -0.707107 -0.707107 0
    outer loop
      vertex 2.13209 2.22453 9.5
      vertex 2.22453 2.13209 -5.5
      vertex 2.22453 2.13209 9.5
    endloop
  endfacet
  facet normal 0.965914 0.258862 0
    outer loop
      vertex -2.35477 -1.90651 9.5
      vertex -2.38861 -1.78024 -5.5
      vertex -2.38861 -1.78024 9.5
    endloop
  endfacet
  facet normal 0.965914 0.258862 0
    outer loop
      vertex -2.38861 -1.78024 -5.5
      vertex -2.35477 -1.90651 9.5
      vertex -2.35477 -1.90651 -5.5
    endloop
  endfacet
  facet normal 0.996198 0.0871214 0
    outer loop
      vertex -2.38861 -1.78024 9.5
      vertex -2.4 -1.65 -5.5
      vertex -2.4 -1.65 9.5
    endloop
  endfacet
  facet normal 0.996198 0.0871214 0
    outer loop
      vertex -2.4 -1.65 -5.5
      vertex -2.38861 -1.78024 9.5
      vertex -2.38861 -1.78024 -5.5
    endloop
  endfacet
  facet normal 0.819135 -0.573601 0
    outer loop
      vertex -2.29952 2.025 9.5
      vertex -2.22453 2.13209 -5.5
      vertex -2.22453 2.13209 9.5
    endloop
  endfacet
  facet normal 0.819135 -0.573601 0
    outer loop
      vertex -2.22453 2.13209 -5.5
      vertex -2.29952 2.025 9.5
      vertex -2.29952 2.025 -5.5
    endloop
  endfacet
  facet normal -0.906316 0.422601 0
    outer loop
      vertex 2.29952 -2.025 -5.5
      vertex 2.35477 -1.90651 9.5
      vertex 2.35477 -1.90651 -5.5
    endloop
  endfacet
  facet normal -0.906316 0.422601 0
    outer loop
      vertex 2.35477 -1.90651 9.5
      vertex 2.29952 -2.025 -5.5
      vertex 2.29952 -2.025 9.5
    endloop
  endfacet
  facet normal -0.707107 0.707107 0
    outer loop
      vertex 2.13209 -2.22453 -5.5
      vertex 2.22453 -2.13209 9.5
      vertex 2.22453 -2.13209 -5.5
    endloop
  endfacet
  facet normal -0.707107 0.707107 0
    outer loop
      vertex 2.22453 -2.13209 9.5
      vertex 2.13209 -2.22453 -5.5
      vertex 2.13209 -2.22453 9.5
    endloop
  endfacet
  facet normal -0.819135 -0.573601 0
    outer loop
      vertex 2.29952 2.025 -5.5
      vertex 2.22453 2.13209 9.5
      vertex 2.22453 2.13209 -5.5
    endloop
  endfacet
  facet normal -0.819135 -0.573601 0
    outer loop
      vertex 2.22453 2.13209 9.5
      vertex 2.29952 2.025 -5.5
      vertex 2.29952 2.025 9.5
    endloop
  endfacet
  facet normal -0.906316 -0.422601 0
    outer loop
      vertex 2.35477 1.90651 -5.5
      vertex 2.29952 2.025 9.5
      vertex 2.29952 2.025 -5.5
    endloop
  endfacet
  facet normal -0.906316 -0.422601 0
    outer loop
      vertex 2.29952 2.025 9.5
      vertex 2.35477 1.90651 -5.5
      vertex 2.35477 1.90651 9.5
    endloop
  endfacet
  facet normal 0.0871214 0.996198 -0
    outer loop
      vertex -1.65 -2.4 -5.5
      vertex -1.78024 -2.38861 9.5
      vertex -1.65 -2.4 9.5
    endloop
  endfacet
  facet normal 0.0871214 0.996198 0
    outer loop
      vertex -1.78024 -2.38861 9.5
      vertex -1.65 -2.4 -5.5
      vertex -1.78024 -2.38861 -5.5
    endloop
  endfacet
  facet normal 0.0871214 -0.996198 0
    outer loop
      vertex -1.78024 2.38861 -5.5
      vertex -1.65 2.4 9.5
      vertex -1.78024 2.38861 9.5
    endloop
  endfacet
  facet normal 0.0871214 -0.996198 0
    outer loop
      vertex -1.65 2.4 9.5
      vertex -1.78024 2.38861 -5.5
      vertex -1.65 2.4 -5.5
    endloop
  endfacet
  facet normal -0.819135 0.573601 0
    outer loop
      vertex 2.22453 -2.13209 -5.5
      vertex 2.29952 -2.025 9.5
      vertex 2.29952 -2.025 -5.5
    endloop
  endfacet
  facet normal -0.819135 0.573601 0
    outer loop
      vertex 2.29952 -2.025 9.5
      vertex 2.22453 -2.13209 -5.5
      vertex 2.22453 -2.13209 9.5
    endloop
  endfacet
  facet normal -0.258862 0.965914 0
    outer loop
      vertex 1.90651 -2.35477 -5.5
      vertex 1.78024 -2.38861 9.5
      vertex 1.90651 -2.35477 9.5
    endloop
  endfacet
  facet normal -0.258862 0.965914 0
    outer loop
      vertex 1.78024 -2.38861 9.5
      vertex 1.90651 -2.35477 -5.5
      vertex 1.78024 -2.38861 -5.5
    endloop
  endfacet
  facet normal 0 1 -0
    outer loop
      vertex 1.65 -2.4 -5.5
      vertex -1.65 -2.4 9.5
      vertex 1.65 -2.4 9.5
    endloop
  endfacet
  facet normal 0 1 0
    outer loop
      vertex -1.65 -2.4 9.5
      vertex 1.65 -2.4 -5.5
      vertex -1.65 -2.4 -5.5
    endloop
  endfacet
  facet normal 0 -1 0
    outer loop
      vertex -1.65 2.4 -5.5
      vertex 1.65 2.4 9.5
      vertex -1.65 2.4 9.5
    endloop
  endfacet
  facet normal 0 -1 -0
    outer loop
      vertex 1.65 2.4 9.5
      vertex -1.65 2.4 -5.5
      vertex 1.65 2.4 -5.5
    endloop
  endfacet
  facet normal -0.573601 0.819135 0
    outer loop
      vertex 2.13209 -2.22453 -5.5
      vertex 2.025 -2.29952 9.5
      vertex 2.13209 -2.22453 9.5
    endloop
  endfacet
  facet normal -0.573601 0.819135 0
    outer loop
      vertex 2.025 -2.29952 9.5
      vertex 2.13209 -2.22453 -5.5
      vertex 2.025 -2.29952 -5.5
    endloop
  endfacet
  facet normal 0.906316 -0.422601 0
    outer loop
      vertex -2.35477 1.90651 9.5
      vertex -2.29952 2.025 -5.5
      vertex -2.29952 2.025 9.5
    endloop
  endfacet
  facet normal 0.906316 -0.422601 0
    outer loop
      vertex -2.29952 2.025 -5.5
      vertex -2.35477 1.90651 9.5
      vertex -2.35477 1.90651 -5.5
    endloop
  endfacet
  facet normal 0.965914 -0.258862 0
    outer loop
      vertex -2.38861 1.78024 9.5
      vertex -2.35477 1.90651 -5.5
      vertex -2.35477 1.90651 9.5
    endloop
  endfacet
  facet normal 0.965914 -0.258862 0
    outer loop
      vertex -2.35477 1.90651 -5.5
      vertex -2.38861 1.78024 9.5
      vertex -2.38861 1.78024 -5.5
    endloop
  endfacet
  facet normal 0.906316 0.422601 0
    outer loop
      vertex -2.29952 -2.025 9.5
      vertex -2.35477 -1.90651 -5.5
      vertex -2.35477 -1.90651 9.5
    endloop
  endfacet
  facet normal 0.906316 0.422601 0
    outer loop
      vertex -2.35477 -1.90651 -5.5
      vertex -2.29952 -2.025 9.5
      vertex -2.29952 -2.025 -5.5
    endloop
  endfacet
  facet normal 0.573601 0.819135 -0
    outer loop
      vertex -2.025 -2.29952 -5.5
      vertex -2.13209 -2.22453 9.5
      vertex -2.025 -2.29952 9.5
    endloop
  endfacet
  facet normal 0.573601 0.819135 0
    outer loop
      vertex -2.13209 -2.22453 9.5
      vertex -2.025 -2.29952 -5.5
      vertex -2.13209 -2.22453 -5.5
    endloop
  endfacet
  facet normal 0.422601 0.906316 -0
    outer loop
      vertex -1.90651 -2.35477 -5.5
      vertex -2.025 -2.29952 9.5
      vertex -1.90651 -2.35477 9.5
    endloop
  endfacet
  facet normal 0.422601 0.906316 0
    outer loop
      vertex -2.025 -2.29952 9.5
      vertex -1.90651 -2.35477 -5.5
      vertex -2.025 -2.29952 -5.5
    endloop
  endfacet
  facet normal -0.573601 -0.819135 0
    outer loop
      vertex 2.025 2.29952 -5.5
      vertex 2.13209 2.22453 9.5
      vertex 2.025 2.29952 9.5
    endloop
  endfacet
  facet normal -0.573601 -0.819135 -0
    outer loop
      vertex 2.13209 2.22453 9.5
      vertex 2.025 2.29952 -5.5
      vertex 2.13209 2.22453 -5.5
    endloop
  endfacet
  facet normal 0.707107 -0.707107 0
    outer loop
      vertex -2.22453 2.13209 9.5
      vertex -2.13209 2.22453 -5.5
      vertex -2.13209 2.22453 9.5
    endloop
  endfacet
  facet normal 0.707107 -0.707107 0
    outer loop
      vertex -2.13209 2.22453 -5.5
      vertex -2.22453 2.13209 9.5
      vertex -2.22453 2.13209 -5.5
    endloop
  endfacet
  facet normal -0.0871214 -0.996198 0
    outer loop
      vertex 1.65 2.4 -5.5
      vertex 1.78024 2.38861 9.5
      vertex 1.65 2.4 9.5
    endloop
  endfacet
  facet normal -0.0871214 -0.996198 -0
    outer loop
      vertex 1.78024 2.38861 9.5
      vertex 1.65 2.4 -5.5
      vertex 1.78024 2.38861 -5.5
    endloop
  endfacet
  facet normal 0.258862 -0.965914 0
    outer loop
      vertex -1.90651 2.35477 -5.5
      vertex -1.78024 2.38861 9.5
      vertex -1.90651 2.35477 9.5
    endloop
  endfacet
  facet normal 0.258862 -0.965914 0
    outer loop
      vertex -1.78024 2.38861 9.5
      vertex -1.90651 2.35477 -5.5
      vertex -1.78024 2.38861 -5.5
    endloop
  endfacet
  facet normal -0.422601 -0.906316 0
    outer loop
      vertex 1.90651 2.35477 -5.5
      vertex 2.025 2.29952 9.5
      vertex 1.90651 2.35477 9.5
    endloop
  endfacet
  facet normal -0.422601 -0.906316 -0
    outer loop
      vertex 2.025 2.29952 9.5
      vertex 1.90651 2.35477 -5.5
      vertex 2.025 2.29952 -5.5
    endloop
  endfacet
  facet normal 0.573601 -0.819135 0
    outer loop
      vertex -2.13209 2.22453 -5.5
      vertex -2.025 2.29952 9.5
      vertex -2.13209 2.22453 9.5
    endloop
  endfacet
  facet normal 0.573601 -0.819135 0
    outer loop
      vertex -2.025 2.29952 9.5
      vertex -2.13209 2.22453 -5.5
      vertex -2.025 2.29952 -5.5
    endloop
  endfacet
endsolid OpenSCAD_Model
