solid OpenSCAD_Model
  facet normal 0.939694 0.342016 0
    outer loop
      vertex 3.76423 2.34461 4.5
      vertex 3.64454 2.67346 -0.5
      vertex 3.64454 2.67346 4.5
    endloop
  endfacet
  facet normal 0.939694 0.342016 0
    outer loop
      vertex 3.64454 2.67346 -0.5
      vertex 3.76423 2.34461 4.5
      vertex 3.76423 2.34461 -0.5
    endloop
  endfacet
  facet normal 0.984807 0.173655 0
    outer loop
      vertex 3.825 1.99998 4.5
      vertex 3.76423 2.34461 -0.5
      vertex 3.76423 2.34461 4.5
    endloop
  endfacet
  facet normal 0.984807 0.173655 0
    outer loop
      vertex 3.76423 2.34461 -0.5
      vertex 3.825 1.99998 4.5
      vertex 3.825 1.99998 -0.5
    endloop
  endfacet
  facet normal 0.866022 0.500005 0
    outer loop
      vertex 3.64454 2.67346 4.5
      vertex 3.46956 2.97653 -0.5
      vertex 3.46956 2.97653 4.5
    endloop
  endfacet
  facet normal 0.866022 0.500005 0
    outer loop
      vertex 3.46956 2.97653 -0.5
      vertex 3.64454 2.67346 4.5
      vertex 3.64454 2.67346 -0.5
    endloop
  endfacet
  facet normal 1 -0 0
    outer loop
      vertex 3.825 -1.99998 4.5
      vertex 3.825 1.99998 -0.5
      vertex 3.825 1.99998 4.5
    endloop
  endfacet
  facet normal 1 0 0
    outer loop
      vertex 3.825 1.99998 -0.5
      vertex 3.825 -1.99998 4.5
      vertex 3.825 -1.99998 -0.5
    endloop
  endfacet
  facet normal 0.500005 0.866022 -0
    outer loop
      vertex 2.97653 3.46956 -0.5
      vertex 2.67346 3.64454 4.5
      vertex 2.97653 3.46956 4.5
    endloop
  endfacet
  facet normal 0.500005 0.866022 0
    outer loop
      vertex 2.67346 3.64454 4.5
      vertex 2.97653 3.46956 -0.5
      vertex 2.67346 3.64454 -0.5
    endloop
  endfacet
  facet normal 0.766064 0.642764 0
    outer loop
      vertex 3.46956 2.97653 4.5
      vertex 3.24462 3.24462 -0.5
      vertex 3.24462 3.24462 4.5
    endloop
  endfacet
  facet normal 0.766064 0.642764 0
    outer loop
      vertex 3.24462 3.24462 -0.5
      vertex 3.46956 2.97653 4.5
      vertex 3.46956 2.97653 -0.5
    endloop
  endfacet
  facet normal 0 1 -0
    outer loop
      vertex 1.99998 3.825 -0.5
      vertex -1.99998 3.825 4.5
      vertex 1.99998 3.825 4.5
    endloop
  endfacet
  facet normal 0 1 0
    outer loop
      vertex -1.99998 3.825 4.5
      vertex 1.99998 3.825 -0.5
      vertex -1.99998 3.825 -0.5
    endloop
  endfacet
  facet normal 0.342016 0.939694 -0
    outer loop
      vertex 2.67346 3.64454 -0.5
      vertex 2.34461 3.76423 4.5
      vertex 2.67346 3.64454 4.5
    endloop
  endfacet
  facet normal 0.342016 0.939694 0
    outer loop
      vertex 2.34461 3.76423 4.5
      vertex 2.67346 3.64454 -0.5
      vertex 2.34461 3.76423 -0.5
    endloop
  endfacet
  facet normal 0.173655 0.984807 -0
    outer loop
      vertex 2.34461 3.76423 -0.5
      vertex 1.99998 3.825 4.5
      vertex 2.34461 3.76423 4.5
    endloop
  endfacet
  facet normal 0.173655 0.984807 0
    outer loop
      vertex 1.99998 3.825 4.5
      vertex 2.34461 3.76423 -0.5
      vertex 1.99998 3.825 -0.5
    endloop
  endfacet
  facet normal 0.642764 0.766064 -0
    outer loop
      vertex 3.24462 3.24462 -0.5
      vertex 2.97653 3.46956 4.5
      vertex 3.24462 3.24462 4.5
    endloop
  endfacet
  facet normal 0.642764 0.766064 0
    outer loop
      vertex 2.97653 3.46956 4.5
      vertex 3.24462 3.24462 -0.5
      vertex 2.97653 3.46956 -0.5
    endloop
  endfacet
  facet normal -0.173655 0.984807 0
    outer loop
      vertex -1.99998 3.825 -0.5
      vertex -2.34461 3.76423 4.5
      vertex -1.99998 3.825 4.5
    endloop
  endfacet
  facet normal -0.173655 0.984807 0
    outer loop
      vertex -2.34461 3.76423 4.5
      vertex -1.99998 3.825 -0.5
      vertex -2.34461 3.76423 -0.5
    endloop
  endfacet
  facet normal -0.866022 0.500005 0
    outer loop
      vertex -3.64454 2.67346 -0.5
      vertex -3.46956 2.97653 4.5
      vertex -3.46956 2.97653 -0.5
    endloop
  endfacet
  facet normal -0.866022 0.500005 0
    outer loop
      vertex -3.46956 2.97653 4.5
      vertex -3.64454 2.67346 -0.5
      vertex -3.64454 2.67346 4.5
    endloop
  endfacet
  facet normal -0.342016 0.939694 0
    outer loop
      vertex -2.34461 3.76423 -0.5
      vertex -2.67346 3.64454 4.5
      vertex -2.34461 3.76423 4.5
    endloop
  endfacet
  facet normal -0.342016 0.939694 0
    outer loop
      vertex -2.67346 3.64454 4.5
      vertex -2.34461 3.76423 -0.5
      vertex -2.67346 3.64454 -0.5
    endloop
  endfacet
  facet normal -0.642764 0.766064 0
    outer loop
      vertex -2.97653 3.46956 -0.5
      vertex -3.24462 3.24462 4.5
      vertex -2.97653 3.46956 4.5
    endloop
  endfacet
  facet normal -0.642764 0.766064 0
    outer loop
      vertex -3.24462 3.24462 4.5
      vertex -2.97653 3.46956 -0.5
      vertex -3.24462 3.24462 -0.5
    endloop
  endfacet
  facet normal -0.766064 0.642764 0
    outer loop
      vertex -3.46956 2.97653 -0.5
      vertex -3.24462 3.24462 4.5
      vertex -3.24462 3.24462 -0.5
    endloop
  endfacet
  facet normal -0.766064 0.642764 0
    outer loop
      vertex -3.24462 3.24462 4.5
      vertex -3.46956 2.97653 -0.5
      vertex -3.46956 2.97653 4.5
    endloop
  endfacet
  facet normal -1 0 0
    outer loop
      vertex -3.825 -1.99998 -0.5
      vertex -3.825 1.99998 4.5
      vertex -3.825 1.99998 -0.5
    endloop
  endfacet
  facet normal -1 -0 0
    outer loop
      vertex -3.825 1.99998 4.5
      vertex -3.825 -1.99998 -0.5
      vertex -3.825 -1.99998 4.5
    endloop
  endfacet
  facet normal -0.939694 0.342016 0
    outer loop
      vertex -3.76423 2.34461 -0.5
      vertex -3.64454 2.67346 4.5
      vertex -3.64454 2.67346 -0.5
    endloop
  endfacet
  facet normal -0.939694 0.342016 0
    outer loop
      vertex -3.64454 2.67346 4.5
      vertex -3.76423 2.34461 -0.5
      vertex -3.76423 2.34461 4.5
    endloop
  endfacet
  facet normal -0.984807 0.173655 0
    outer loop
      vertex -3.825 1.99998 -0.5
      vertex -3.76423 2.34461 4.5
      vertex -3.76423 2.34461 -0.5
    endloop
  endfacet
  facet normal -0.984807 0.173655 0
    outer loop
      vertex -3.76423 2.34461 4.5
      vertex -3.825 1.99998 -0.5
      vertex -3.825 1.99998 4.5
    endloop
  endfacet
  facet normal -0.500005 0.866022 0
    outer loop
      vertex -2.67346 3.64454 -0.5
      vertex -2.97653 3.46956 4.5
      vertex -2.67346 3.64454 4.5
    endloop
  endfacet
  facet normal -0.500005 0.866022 0
    outer loop
      vertex -2.97653 3.46956 4.5
      vertex -2.67346 3.64454 -0.5
      vertex -2.97653 3.46956 -0.5
    endloop
  endfacet
  facet normal -0.939694 -0.342016 0
    outer loop
      vertex -3.64454 -2.67346 -0.5
      vertex -3.76423 -2.34461 4.5
      vertex -3.76423 -2.34461 -0.5
    endloop
  endfacet
  facet normal -0.939694 -0.342016 0
    outer loop
      vertex -3.76423 -2.34461 4.5
      vertex -3.64454 -2.67346 -0.5
      vertex -3.64454 -2.67346 4.5
    endloop
  endfacet
  facet normal -0.984807 -0.173655 0
    outer loop
      vertex -3.76423 -2.34461 -0.5
      vertex -3.825 -1.99998 4.5
      vertex -3.825 -1.99998 -0.5
    endloop
  endfacet
  facet normal -0.984807 -0.173655 0
    outer loop
      vertex -3.825 -1.99998 4.5
      vertex -3.76423 -2.34461 -0.5
      vertex -3.76423 -2.34461 4.5
    endloop
  endfacet
  facet normal -0.173655 -0.984807 0
    outer loop
      vertex -2.34461 -3.76423 -0.5
      vertex -1.99998 -3.825 4.5
      vertex -2.34461 -3.76423 4.5
    endloop
  endfacet
  facet normal -0.173655 -0.984807 -0
    outer loop
      vertex -1.99998 -3.825 4.5
      vertex -2.34461 -3.76423 -0.5
      vertex -1.99998 -3.825 -0.5
    endloop
  endfacet
  facet normal -0.342016 -0.939694 0
    outer loop
      vertex -2.67346 -3.64454 -0.5
      vertex -2.34461 -3.76423 4.5
      vertex -2.67346 -3.64454 4.5
    endloop
  endfacet
  facet normal -0.342016 -0.939694 -0
    outer loop
      vertex -2.34461 -3.76423 4.5
      vertex -2.67346 -3.64454 -0.5
      vertex -2.34461 -3.76423 -0.5
    endloop
  endfacet
  facet normal -0.866022 -0.500005 0
    outer loop
      vertex -3.46956 -2.97653 -0.5
      vertex -3.64454 -2.67346 4.5
      vertex -3.64454 -2.67346 -0.5
    endloop
  endfacet
  facet normal -0.866022 -0.500005 0
    outer loop
      vertex -3.64454 -2.67346 4.5
      vertex -3.46956 -2.97653 -0.5
      vertex -3.46956 -2.97653 4.5
    endloop
  endfacet
  facet normal -0.766064 -0.642764 0
    outer loop
      vertex -3.24462 -3.24462 -0.5
      vertex -3.46956 -2.97653 4.5
      vertex -3.46956 -2.97653 -0.5
    endloop
  endfacet
  facet normal -0.766064 -0.642764 0
    outer loop
      vertex -3.46956 -2.97653 4.5
      vertex -3.24462 -3.24462 -0.5
      vertex -3.24462 -3.24462 4.5
    endloop
  endfacet
  facet normal -0.642764 -0.766064 0
    outer loop
      vertex -3.24462 -3.24462 -0.5
      vertex -2.97653 -3.46956 4.5
      vertex -3.24462 -3.24462 4.5
    endloop
  endfacet
  facet normal -0.642764 -0.766064 -0
    outer loop
      vertex -2.97653 -3.46956 4.5
      vertex -3.24462 -3.24462 -0.5
      vertex -2.97653 -3.46956 -0.5
    endloop
  endfacet
  facet normal -0.500005 -0.866022 0
    outer loop
      vertex -2.97653 -3.46956 -0.5
      vertex -2.67346 -3.64454 4.5
      vertex -2.97653 -3.46956 4.5
    endloop
  endfacet
  facet normal -0.500005 -0.866022 -0
    outer loop
      vertex -2.67346 -3.64454 4.5
      vertex -2.97653 -3.46956 -0.5
      vertex -2.67346 -3.64454 -0.5
    endloop
  endfacet
  facet normal 0 -1 0
    outer loop
      vertex -1.99998 -3.825 -0.5
      vertex 1.99998 -3.825 4.5
      vertex -1.99998 -3.825 4.5
    endloop
  endfacet
  facet normal 0 -1 -0
    outer loop
      vertex 1.99998 -3.825 4.5
      vertex -1.99998 -3.825 -0.5
      vertex 1.99998 -3.825 -0.5
    endloop
  endfacet
  facet normal 0.866022 -0.500005 0
    outer loop
      vertex 3.46956 -2.97653 4.5
      vertex 3.64454 -2.67346 -0.5
      vertex 3.64454 -2.67346 4.5
    endloop
  endfacet
  facet normal 0.866022 -0.500005 0
    outer loop
      vertex 3.64454 -2.67346 -0.5
      vertex 3.46956 -2.97653 4.5
      vertex 3.46956 -2.97653 -0.5
    endloop
  endfacet
  facet normal 0.342016 -0.939694 0
    outer loop
      vertex 2.34461 -3.76423 -0.5
      vertex 2.67346 -3.64454 4.5
      vertex 2.34461 -3.76423 4.5
    endloop
  endfacet
  facet normal 0.342016 -0.939694 0
    outer loop
      vertex 2.67346 -3.64454 4.5
      vertex 2.34461 -3.76423 -0.5
      vertex 2.67346 -3.64454 -0.5
    endloop
  endfacet
  facet normal 0.173655 -0.984807 0
    outer loop
      vertex 1.99998 -3.825 -0.5
      vertex 2.34461 -3.76423 4.5
      vertex 1.99998 -3.825 4.5
    endloop
  endfacet
  facet normal 0.173655 -0.984807 0
    outer loop
      vertex 2.34461 -3.76423 4.5
      vertex 1.99998 -3.825 -0.5
      vertex 2.34461 -3.76423 -0.5
    endloop
  endfacet
  facet normal 0.766064 -0.642764 0
    outer loop
      vertex 3.24462 -3.24462 4.5
      vertex 3.46956 -2.97653 -0.5
      vertex 3.46956 -2.97653 4.5
    endloop
  endfacet
  facet normal 0.766064 -0.642764 0
    outer loop
      vertex 3.46956 -2.97653 -0.5
      vertex 3.24462 -3.24462 4.5
      vertex 3.24462 -3.24462 -0.5
    endloop
  endfacet
  facet normal 0.500005 -0.866022 0
    outer loop
      vertex 2.67346 -3.64454 -0.5
      vertex 2.97653 -3.46956 4.5
      vertex 2.67346 -3.64454 4.5
    endloop
  endfacet
  facet normal 0.500005 -0.866022 0
    outer loop
      vertex 2.97653 -3.46956 4.5
      vertex 2.67346 -3.64454 -0.5
      vertex 2.97653 -3.46956 -0.5
    endloop
  endfacet
  facet normal 0.939694 -0.342016 0
    outer loop
      vertex 3.64454 -2.67346 4.5
      vertex 3.76423 -2.34461 -0.5
      vertex 3.76423 -2.34461 4.5
    endloop
  endfacet
  facet normal 0.939694 -0.342016 0
    outer loop
      vertex 3.76423 -2.34461 -0.5
      vertex 3.64454 -2.67346 4.5
      vertex 3.64454 -2.67346 -0.5
    endloop
  endfacet
  facet normal 0.984807 -0.173655 0
    outer loop
      vertex 3.76423 -2.34461 4.5
      vertex 3.825 -1.99998 -0.5
      vertex 3.825 -1.99998 4.5
    endloop
  endfacet
  facet normal 0.984807 -0.173655 0
    outer loop
      vertex 3.825 -1.99998 -0.5
      vertex 3.76423 -2.34461 4.5
      vertex 3.76423 -2.34461 -0.5
    endloop
  endfacet
  facet normal 0.642764 -0.766064 0
    outer loop
      vertex 2.97653 -3.46956 -0.5
      vertex 3.24462 -3.24462 4.5
      vertex 2.97653 -3.46956 4.5
    endloop
  endfacet
  facet normal 0.642764 -0.766064 0
    outer loop
      vertex 3.24462 -3.24462 4.5
      vertex 2.97653 -3.46956 -0.5
      vertex 3.24462 -3.24462 -0.5
    endloop
  endfacet
  facet normal 0 0 1
    outer loop
      vertex 2.27977 1.83151 4.5
      vertex 3.825 1.99998 4.5
      vertex 3.76423 2.34461 4.5
    endloop
  endfacet
  facet normal 0 0 1
    outer loop
      vertex 3.825 1.99998 4.5
      vertex 2.325 1.575 4.5
      vertex 3.825 -1.99998 4.5
    endloop
  endfacet
  facet normal 0 0 1
    outer loop
      vertex 2.22452 1.95 4.5
      vertex 3.76423 2.34461 4.5
      vertex 3.64454 2.67346 4.5
    endloop
  endfacet
  facet normal -0 0 1
    outer loop
      vertex 2.325 -1.575 4.5
      vertex 3.825 -1.99998 4.5
      vertex 2.325 1.575 4.5
    endloop
  endfacet
  facet normal 0 0 1
    outer loop
      vertex 2.22452 1.95 4.5
      vertex 3.64454 2.67346 4.5
      vertex 3.46956 2.97653 4.5
    endloop
  endfacet
  facet normal -0 0 1
    outer loop
      vertex 2.31361 -1.70524 4.5
      vertex 3.825 -1.99998 4.5
      vertex 2.325 -1.575 4.5
    endloop
  endfacet
  facet normal 0 0 1
    outer loop
      vertex 2.14953 2.05709 4.5
      vertex 3.46956 2.97653 4.5
      vertex 3.24462 3.24462 4.5
    endloop
  endfacet
  facet normal -0 0 1
    outer loop
      vertex 2.27977 -1.83151 4.5
      vertex 3.825 -1.99998 4.5
      vertex 2.31361 -1.70524 4.5
    endloop
  endfacet
  facet normal 0 0 1
    outer loop
      vertex 2.05709 2.14953 4.5
      vertex 3.24462 3.24462 4.5
      vertex 2.97653 3.46956 4.5
    endloop
  endfacet
  facet normal 0 0 1
    outer loop
      vertex 3.825 -1.99998 4.5
      vertex 2.27977 -1.83151 4.5
      vertex 3.76423 -2.34461 4.5
    endloop
  endfacet
  facet normal 0 0 1
    outer loop
      vertex 1.95 2.22452 4.5
      vertex 2.97653 3.46956 4.5
      vertex 2.67346 3.64454 4.5
    endloop
  endfacet
  facet normal -0 0 1
    outer loop
      vertex 2.22452 -1.95 4.5
      vertex 3.76423 -2.34461 4.5
      vertex 2.27977 -1.83151 4.5
    endloop
  endfacet
  facet normal 0 0 1
    outer loop
      vertex 1.95 2.22452 4.5
      vertex 2.67346 3.64454 4.5
      vertex 2.34461 3.76423 4.5
    endloop
  endfacet
  facet normal 0 0 1
    outer loop
      vertex 3.76423 -2.34461 4.5
      vertex 2.22452 -1.95 4.5
      vertex 3.64454 -2.67346 4.5
    endloop
  endfacet
  facet normal 0 0 1
    outer loop
      vertex 3.64454 -2.67346 4.5
      vertex 2.22452 -1.95 4.5
      vertex 3.46956 -2.97653 4.5
    endloop
  endfacet
  facet normal 0 0 1
    outer loop
      vertex 3.825 1.99998 4.5
      vertex 2.31361 1.70524 4.5
      vertex 2.325 1.575 4.5
    endloop
  endfacet
  facet normal 0 0 1
    outer loop
      vertex 3.825 1.99998 4.5
      vertex 2.27977 1.83151 4.5
      vertex 2.31361 1.70524 4.5
    endloop
  endfacet
  facet normal 0 0 1
    outer loop
      vertex 3.76423 2.34461 4.5
      vertex 2.22452 1.95 4.5
      vertex 2.27977 1.83151 4.5
    endloop
  endfacet
  facet normal 0 0 1
    outer loop
      vertex 3.46956 2.97653 4.5
      vertex 2.14953 2.05709 4.5
      vertex 2.22452 1.95 4.5
    endloop
  endfacet
  facet normal 0 0 1
    outer loop
      vertex 3.24462 3.24462 4.5
      vertex 2.05709 2.14953 4.5
      vertex 2.14953 2.05709 4.5
    endloop
  endfacet
  facet normal 0 0 1
    outer loop
      vertex 1.83151 2.27977 4.5
      vertex 2.34461 3.76423 4.5
      vertex 1.99998 3.825 4.5
    endloop
  endfacet
  facet normal 0 0 1
    outer loop
      vertex 2.97653 3.46956 4.5
      vertex 1.95 2.22452 4.5
      vertex 2.05709 2.14953 4.5
    endloop
  endfacet
  facet normal 0 0 1
    outer loop
      vertex 2.34461 3.76423 4.5
      vertex 1.83151 2.27977 4.5
      vertex 1.95 2.22452 4.5
    endloop
  endfacet
  facet normal 0 0 1
    outer loop
      vertex 1.99998 3.825 4.5
      vertex 1.70524 2.31361 4.5
      vertex 1.83151 2.27977 4.5
    endloop
  endfacet
  facet normal 0 0 1
    outer loop
      vertex 1.99998 3.825 4.5
      vertex 1.575 2.325 4.5
      vertex 1.70524 2.31361 4.5
    endloop
  endfacet
  facet normal 0 0 1
    outer loop
      vertex 1.99998 3.825 4.5
      vertex -1.575 2.325 4.5
      vertex 1.575 2.325 4.5
    endloop
  endfacet
  facet normal -0 0 1
    outer loop
      vertex -1.99998 3.825 4.5
      vertex -1.575 2.325 4.5
      vertex 1.99998 3.825 4.5
    endloop
  endfacet
  facet normal 0 0 1
    outer loop
      vertex -1.575 2.325 4.5
      vertex -1.99998 3.825 4.5
      vertex -1.70524 2.31361 4.5
    endloop
  endfacet
  facet normal 0 0 1
    outer loop
      vertex -1.70524 2.31361 4.5
      vertex -1.99998 3.825 4.5
      vertex -1.83151 2.27977 4.5
    endloop
  endfacet
  facet normal -0 0 1
    outer loop
      vertex -2.34461 3.76423 4.5
      vertex -1.83151 2.27977 4.5
      vertex -1.99998 3.825 4.5
    endloop
  endfacet
  facet normal 0 0 1
    outer loop
      vertex -1.83151 2.27977 4.5
      vertex -2.34461 3.76423 4.5
      vertex -1.95 2.22452 4.5
    endloop
  endfacet
  facet normal -0 0 1
    outer loop
      vertex -2.67346 3.64454 4.5
      vertex -1.95 2.22452 4.5
      vertex -2.34461 3.76423 4.5
    endloop
  endfacet
  facet normal -0 0 1
    outer loop
      vertex -2.97653 3.46956 4.5
      vertex -1.95 2.22452 4.5
      vertex -2.67346 3.64454 4.5
    endloop
  endfacet
  facet normal 0 0 1
    outer loop
      vertex -1.95 2.22452 4.5
      vertex -2.97653 3.46956 4.5
      vertex -2.05709 2.14953 4.5
    endloop
  endfacet
  facet normal -0 0 1
    outer loop
      vertex -3.24462 3.24462 4.5
      vertex -2.05709 2.14953 4.5
      vertex -2.97653 3.46956 4.5
    endloop
  endfacet
  facet normal 0 0 1
    outer loop
      vertex -2.14953 2.05709 4.5
      vertex -3.46956 2.97653 4.5
      vertex -2.22452 1.95 4.5
    endloop
  endfacet
  facet normal -0 0 1
    outer loop
      vertex -3.46956 2.97653 4.5
      vertex -2.14953 2.05709 4.5
      vertex -3.24462 3.24462 4.5
    endloop
  endfacet
  facet normal 0 0 1
    outer loop
      vertex -2.05709 2.14953 4.5
      vertex -3.24462 3.24462 4.5
      vertex -2.14953 2.05709 4.5
    endloop
  endfacet
  facet normal -0 0 1
    outer loop
      vertex 2.14953 -2.05709 4.5
      vertex 3.46956 -2.97653 4.5
      vertex 2.22452 -1.95 4.5
    endloop
  endfacet
  facet normal 0 0 1
    outer loop
      vertex 3.46956 -2.97653 4.5
      vertex 2.14953 -2.05709 4.5
      vertex 3.24462 -3.24462 4.5
    endloop
  endfacet
  facet normal -0 0 1
    outer loop
      vertex 2.05709 -2.14953 4.5
      vertex 3.24462 -3.24462 4.5
      vertex 2.14953 -2.05709 4.5
    endloop
  endfacet
  facet normal 0 0 1
    outer loop
      vertex 3.24462 -3.24462 4.5
      vertex 2.05709 -2.14953 4.5
      vertex 2.97653 -3.46956 4.5
    endloop
  endfacet
  facet normal -0 0 1
    outer loop
      vertex 1.95 -2.22452 4.5
      vertex 2.97653 -3.46956 4.5
      vertex 2.05709 -2.14953 4.5
    endloop
  endfacet
  facet normal 0 0 1
    outer loop
      vertex 2.97653 -3.46956 4.5
      vertex 1.95 -2.22452 4.5
      vertex 2.67346 -3.64454 4.5
    endloop
  endfacet
  facet normal 0 0 1
    outer loop
      vertex 2.67346 -3.64454 4.5
      vertex 1.95 -2.22452 4.5
      vertex 2.34461 -3.76423 4.5
    endloop
  endfacet
  facet normal -0 0 1
    outer loop
      vertex 1.83151 -2.27977 4.5
      vertex 2.34461 -3.76423 4.5
      vertex 1.95 -2.22452 4.5
    endloop
  endfacet
  facet normal 0 0 1
    outer loop
      vertex 2.34461 -3.76423 4.5
      vertex 1.83151 -2.27977 4.5
      vertex 1.99998 -3.825 4.5
    endloop
  endfacet
  facet normal -0 0 1
    outer loop
      vertex 1.70524 -2.31361 4.5
      vertex 1.99998 -3.825 4.5
      vertex 1.83151 -2.27977 4.5
    endloop
  endfacet
  facet normal -0 0 1
    outer loop
      vertex 1.575 -2.325 4.5
      vertex 1.99998 -3.825 4.5
      vertex 1.70524 -2.31361 4.5
    endloop
  endfacet
  facet normal -0 0 1
    outer loop
      vertex -1.575 -2.325 4.5
      vertex 1.99998 -3.825 4.5
      vertex 1.575 -2.325 4.5
    endloop
  endfacet
  facet normal 0 0 1
    outer loop
      vertex -1.99998 -3.825 4.5
      vertex -1.575 -2.325 4.5
      vertex -1.70524 -2.31361 4.5
    endloop
  endfacet
  facet normal 0 0 1
    outer loop
      vertex -1.99998 -3.825 4.5
      vertex -1.70524 -2.31361 4.5
      vertex -1.83151 -2.27977 4.5
    endloop
  endfacet
  facet normal 0 0 1
    outer loop
      vertex -1.575 -2.325 4.5
      vertex -1.99998 -3.825 4.5
      vertex 1.99998 -3.825 4.5
    endloop
  endfacet
  facet normal 0 0 1
    outer loop
      vertex -2.34461 -3.76423 4.5
      vertex -1.83151 -2.27977 4.5
      vertex -1.95 -2.22452 4.5
    endloop
  endfacet
  facet normal 0 0 1
    outer loop
      vertex -2.97653 -3.46956 4.5
      vertex -1.95 -2.22452 4.5
      vertex -2.05709 -2.14953 4.5
    endloop
  endfacet
  facet normal 0 0 1
    outer loop
      vertex -3.24462 -3.24462 4.5
      vertex -2.05709 -2.14953 4.5
      vertex -2.14953 -2.05709 4.5
    endloop
  endfacet
  facet normal 0 0 1
    outer loop
      vertex -3.46956 -2.97653 4.5
      vertex -2.14953 -2.05709 4.5
      vertex -2.22452 -1.95 4.5
    endloop
  endfacet
  facet normal 0 0 1
    outer loop
      vertex -3.76423 -2.34461 4.5
      vertex -2.22452 -1.95 4.5
      vertex -2.27977 -1.83151 4.5
    endloop
  endfacet
  facet normal 0 0 1
    outer loop
      vertex -3.825 -1.99998 4.5
      vertex -2.27977 -1.83151 4.5
      vertex -2.31361 -1.70524 4.5
    endloop
  endfacet
  facet normal 0 0 1
    outer loop
      vertex -1.83151 -2.27977 4.5
      vertex -2.34461 -3.76423 4.5
      vertex -1.99998 -3.825 4.5
    endloop
  endfacet
  facet normal 0 0 1
    outer loop
      vertex -3.825 -1.99998 4.5
      vertex -2.31361 -1.70524 4.5
      vertex -2.325 -1.575 4.5
    endloop
  endfacet
  facet normal 0 0 1
    outer loop
      vertex -2.325 1.575 4.5
      vertex -3.825 1.99998 4.5
      vertex -2.325 -1.575 4.5
    endloop
  endfacet
  facet normal -0 0 1
    outer loop
      vertex -3.64454 2.67346 4.5
      vertex -2.22452 1.95 4.5
      vertex -3.46956 2.97653 4.5
    endloop
  endfacet
  facet normal 0 0 1
    outer loop
      vertex -3.825 -1.99998 4.5
      vertex -2.325 -1.575 4.5
      vertex -3.825 1.99998 4.5
    endloop
  endfacet
  facet normal -0 0 1
    outer loop
      vertex -3.76423 2.34461 4.5
      vertex -2.22452 1.95 4.5
      vertex -3.64454 2.67346 4.5
    endloop
  endfacet
  facet normal 0 0 1
    outer loop
      vertex -2.27977 -1.83151 4.5
      vertex -3.825 -1.99998 4.5
      vertex -3.76423 -2.34461 4.5
    endloop
  endfacet
  facet normal 0 0 1
    outer loop
      vertex -2.22452 1.95 4.5
      vertex -3.76423 2.34461 4.5
      vertex -2.27977 1.83151 4.5
    endloop
  endfacet
  facet normal 0 0 1
    outer loop
      vertex -1.95 -2.22452 4.5
      vertex -2.67346 -3.64454 4.5
      vertex -2.34461 -3.76423 4.5
    endloop
  endfacet
  facet normal -0 0 1
    outer loop
      vertex -3.825 1.99998 4.5
      vertex -2.27977 1.83151 4.5
      vertex -3.76423 2.34461 4.5
    endloop
  endfacet
  facet normal 0 0 1
    outer loop
      vertex -1.95 -2.22452 4.5
      vertex -2.97653 -3.46956 4.5
      vertex -2.67346 -3.64454 4.5
    endloop
  endfacet
  facet normal 0 0 1
    outer loop
      vertex -2.27977 1.83151 4.5
      vertex -3.825 1.99998 4.5
      vertex -2.31361 1.70524 4.5
    endloop
  endfacet
  facet normal 0 0 1
    outer loop
      vertex -2.05709 -2.14953 4.5
      vertex -3.24462 -3.24462 4.5
      vertex -2.97653 -3.46956 4.5
    endloop
  endfacet
  facet normal 0 0 1
    outer loop
      vertex -2.31361 1.70524 4.5
      vertex -3.825 1.99998 4.5
      vertex -2.325 1.575 4.5
    endloop
  endfacet
  facet normal 0 0 1
    outer loop
      vertex -2.14953 -2.05709 4.5
      vertex -3.46956 -2.97653 4.5
      vertex -3.24462 -3.24462 4.5
    endloop
  endfacet
  facet normal 0 0 1
    outer loop
      vertex -2.22452 -1.95 4.5
      vertex -3.64454 -2.67346 4.5
      vertex -3.46956 -2.97653 4.5
    endloop
  endfacet
  facet normal 0 0 1
    outer loop
      vertex -2.22452 -1.95 4.5
      vertex -3.76423 -2.34461 4.5
      vertex -3.64454 -2.67346 4.5
    endloop
  endfacet
  facet normal 0 0 -1
    outer loop
      vertex 2.27977 -1.83151 -0.5
      vertex 3.825 -1.99998 -0.5
      vertex 3.76423 -2.34461 -0.5
    endloop
  endfacet
  facet normal 0 0 -1
    outer loop
      vertex 3.825 -1.99998 -0.5
      vertex 2.325 -1.575 -0.5
      vertex 3.825 1.99998 -0.5
    endloop
  endfacet
  facet normal 0 0 -1
    outer loop
      vertex 2.22452 -1.95 -0.5
      vertex 3.76423 -2.34461 -0.5
      vertex 3.64454 -2.67346 -0.5
    endloop
  endfacet
  facet normal 0 0 -1
    outer loop
      vertex 2.325 1.575 -0.5
      vertex 3.825 1.99998 -0.5
      vertex 2.325 -1.575 -0.5
    endloop
  endfacet
  facet normal 0 0 -1
    outer loop
      vertex 2.22452 -1.95 -0.5
      vertex 3.64454 -2.67346 -0.5
      vertex 3.46956 -2.97653 -0.5
    endloop
  endfacet
  facet normal 0 0 -1
    outer loop
      vertex 2.31361 1.70524 -0.5
      vertex 3.825 1.99998 -0.5
      vertex 2.325 1.575 -0.5
    endloop
  endfacet
  facet normal 0 0 -1
    outer loop
      vertex 2.14953 -2.05709 -0.5
      vertex 3.46956 -2.97653 -0.5
      vertex 3.24462 -3.24462 -0.5
    endloop
  endfacet
  facet normal 0 0 -1
    outer loop
      vertex 2.27977 1.83151 -0.5
      vertex 3.825 1.99998 -0.5
      vertex 2.31361 1.70524 -0.5
    endloop
  endfacet
  facet normal 0 0 -1
    outer loop
      vertex 2.05709 -2.14953 -0.5
      vertex 3.24462 -3.24462 -0.5
      vertex 2.97653 -3.46956 -0.5
    endloop
  endfacet
  facet normal -0 0 -1
    outer loop
      vertex 3.825 1.99998 -0.5
      vertex 2.27977 1.83151 -0.5
      vertex 3.76423 2.34461 -0.5
    endloop
  endfacet
  facet normal 0 0 -1
    outer loop
      vertex 1.95 -2.22452 -0.5
      vertex 2.97653 -3.46956 -0.5
      vertex 2.67346 -3.64454 -0.5
    endloop
  endfacet
  facet normal 0 0 -1
    outer loop
      vertex 2.22452 1.95 -0.5
      vertex 3.76423 2.34461 -0.5
      vertex 2.27977 1.83151 -0.5
    endloop
  endfacet
  facet normal 0 0 -1
    outer loop
      vertex 1.95 -2.22452 -0.5
      vertex 2.67346 -3.64454 -0.5
      vertex 2.34461 -3.76423 -0.5
    endloop
  endfacet
  facet normal -0 0 -1
    outer loop
      vertex 3.76423 2.34461 -0.5
      vertex 2.22452 1.95 -0.5
      vertex 3.64454 2.67346 -0.5
    endloop
  endfacet
  facet normal -0 0 -1
    outer loop
      vertex 3.64454 2.67346 -0.5
      vertex 2.22452 1.95 -0.5
      vertex 3.46956 2.97653 -0.5
    endloop
  endfacet
  facet normal 0 0 -1
    outer loop
      vertex 3.825 -1.99998 -0.5
      vertex 2.31361 -1.70524 -0.5
      vertex 2.325 -1.575 -0.5
    endloop
  endfacet
  facet normal 0 0 -1
    outer loop
      vertex 3.825 -1.99998 -0.5
      vertex 2.27977 -1.83151 -0.5
      vertex 2.31361 -1.70524 -0.5
    endloop
  endfacet
  facet normal 0 0 -1
    outer loop
      vertex 3.76423 -2.34461 -0.5
      vertex 2.22452 -1.95 -0.5
      vertex 2.27977 -1.83151 -0.5
    endloop
  endfacet
  facet normal 0 0 -1
    outer loop
      vertex 3.46956 -2.97653 -0.5
      vertex 2.14953 -2.05709 -0.5
      vertex 2.22452 -1.95 -0.5
    endloop
  endfacet
  facet normal 0 0 -1
    outer loop
      vertex 3.24462 -3.24462 -0.5
      vertex 2.05709 -2.14953 -0.5
      vertex 2.14953 -2.05709 -0.5
    endloop
  endfacet
  facet normal 0 0 -1
    outer loop
      vertex 1.83151 -2.27977 -0.5
      vertex 2.34461 -3.76423 -0.5
      vertex 1.99998 -3.825 -0.5
    endloop
  endfacet
  facet normal 0 0 -1
    outer loop
      vertex 2.97653 -3.46956 -0.5
      vertex 1.95 -2.22452 -0.5
      vertex 2.05709 -2.14953 -0.5
    endloop
  endfacet
  facet normal 0 0 -1
    outer loop
      vertex 2.34461 -3.76423 -0.5
      vertex 1.83151 -2.27977 -0.5
      vertex 1.95 -2.22452 -0.5
    endloop
  endfacet
  facet normal 0 0 -1
    outer loop
      vertex 1.99998 -3.825 -0.5
      vertex 1.70524 -2.31361 -0.5
      vertex 1.83151 -2.27977 -0.5
    endloop
  endfacet
  facet normal 0 0 -1
    outer loop
      vertex 1.99998 -3.825 -0.5
      vertex 1.575 -2.325 -0.5
      vertex 1.70524 -2.31361 -0.5
    endloop
  endfacet
  facet normal 0 0 -1
    outer loop
      vertex 1.99998 -3.825 -0.5
      vertex -1.575 -2.325 -0.5
      vertex 1.575 -2.325 -0.5
    endloop
  endfacet
  facet normal 0 0 -1
    outer loop
      vertex -1.99998 -3.825 -0.5
      vertex -1.575 -2.325 -0.5
      vertex 1.99998 -3.825 -0.5
    endloop
  endfacet
  facet normal -0 0 -1
    outer loop
      vertex -1.575 -2.325 -0.5
      vertex -1.99998 -3.825 -0.5
      vertex -1.70524 -2.31361 -0.5
    endloop
  endfacet
  facet normal -0 0 -1
    outer loop
      vertex -1.70524 -2.31361 -0.5
      vertex -1.99998 -3.825 -0.5
      vertex -1.83151 -2.27977 -0.5
    endloop
  endfacet
  facet normal 0 0 -1
    outer loop
      vertex -2.34461 -3.76423 -0.5
      vertex -1.83151 -2.27977 -0.5
      vertex -1.99998 -3.825 -0.5
    endloop
  endfacet
  facet normal -0 0 -1
    outer loop
      vertex -1.83151 -2.27977 -0.5
      vertex -2.34461 -3.76423 -0.5
      vertex -1.95 -2.22452 -0.5
    endloop
  endfacet
  facet normal 0 0 -1
    outer loop
      vertex -2.67346 -3.64454 -0.5
      vertex -1.95 -2.22452 -0.5
      vertex -2.34461 -3.76423 -0.5
    endloop
  endfacet
  facet normal 0 0 -1
    outer loop
      vertex -2.97653 -3.46956 -0.5
      vertex -1.95 -2.22452 -0.5
      vertex -2.67346 -3.64454 -0.5
    endloop
  endfacet
  facet normal -0 0 -1
    outer loop
      vertex -1.95 -2.22452 -0.5
      vertex -2.97653 -3.46956 -0.5
      vertex -2.05709 -2.14953 -0.5
    endloop
  endfacet
  facet normal 0 0 -1
    outer loop
      vertex -3.24462 -3.24462 -0.5
      vertex -2.05709 -2.14953 -0.5
      vertex -2.97653 -3.46956 -0.5
    endloop
  endfacet
  facet normal -0 0 -1
    outer loop
      vertex -2.14953 -2.05709 -0.5
      vertex -3.46956 -2.97653 -0.5
      vertex -2.22452 -1.95 -0.5
    endloop
  endfacet
  facet normal 0 0 -1
    outer loop
      vertex -3.46956 -2.97653 -0.5
      vertex -2.14953 -2.05709 -0.5
      vertex -3.24462 -3.24462 -0.5
    endloop
  endfacet
  facet normal -0 0 -1
    outer loop
      vertex -2.05709 -2.14953 -0.5
      vertex -3.24462 -3.24462 -0.5
      vertex -2.14953 -2.05709 -0.5
    endloop
  endfacet
  facet normal 0 0 -1
    outer loop
      vertex 2.14953 2.05709 -0.5
      vertex 3.46956 2.97653 -0.5
      vertex 2.22452 1.95 -0.5
    endloop
  endfacet
  facet normal -0 0 -1
    outer loop
      vertex 3.46956 2.97653 -0.5
      vertex 2.14953 2.05709 -0.5
      vertex 3.24462 3.24462 -0.5
    endloop
  endfacet
  facet normal 0 0 -1
    outer loop
      vertex 2.05709 2.14953 -0.5
      vertex 3.24462 3.24462 -0.5
      vertex 2.14953 2.05709 -0.5
    endloop
  endfacet
  facet normal -0 0 -1
    outer loop
      vertex 3.24462 3.24462 -0.5
      vertex 2.05709 2.14953 -0.5
      vertex 2.97653 3.46956 -0.5
    endloop
  endfacet
  facet normal 0 0 -1
    outer loop
      vertex 1.95 2.22452 -0.5
      vertex 2.97653 3.46956 -0.5
      vertex 2.05709 2.14953 -0.5
    endloop
  endfacet
  facet normal -0 0 -1
    outer loop
      vertex 2.97653 3.46956 -0.5
      vertex 1.95 2.22452 -0.5
      vertex 2.67346 3.64454 -0.5
    endloop
  endfacet
  facet normal -0 0 -1
    outer loop
      vertex 2.67346 3.64454 -0.5
      vertex 1.95 2.22452 -0.5
      vertex 2.34461 3.76423 -0.5
    endloop
  endfacet
  facet normal 0 0 -1
    outer loop
      vertex 1.83151 2.27977 -0.5
      vertex 2.34461 3.76423 -0.5
      vertex 1.95 2.22452 -0.5
    endloop
  endfacet
  facet normal -0 0 -1
    outer loop
      vertex 2.34461 3.76423 -0.5
      vertex 1.83151 2.27977 -0.5
      vertex 1.99998 3.825 -0.5
    endloop
  endfacet
  facet normal 0 0 -1
    outer loop
      vertex 1.70524 2.31361 -0.5
      vertex 1.99998 3.825 -0.5
      vertex 1.83151 2.27977 -0.5
    endloop
  endfacet
  facet normal 0 0 -1
    outer loop
      vertex 1.575 2.325 -0.5
      vertex 1.99998 3.825 -0.5
      vertex 1.70524 2.31361 -0.5
    endloop
  endfacet
  facet normal 0 0 -1
    outer loop
      vertex -1.575 2.325 -0.5
      vertex 1.99998 3.825 -0.5
      vertex 1.575 2.325 -0.5
    endloop
  endfacet
  facet normal 0 0 -1
    outer loop
      vertex -1.99998 3.825 -0.5
      vertex -1.575 2.325 -0.5
      vertex -1.70524 2.31361 -0.5
    endloop
  endfacet
  facet normal 0 0 -1
    outer loop
      vertex -1.99998 3.825 -0.5
      vertex -1.70524 2.31361 -0.5
      vertex -1.83151 2.27977 -0.5
    endloop
  endfacet
  facet normal 0 0 -1
    outer loop
      vertex -1.575 2.325 -0.5
      vertex -1.99998 3.825 -0.5
      vertex 1.99998 3.825 -0.5
    endloop
  endfacet
  facet normal 0 0 -1
    outer loop
      vertex -2.34461 3.76423 -0.5
      vertex -1.83151 2.27977 -0.5
      vertex -1.95 2.22452 -0.5
    endloop
  endfacet
  facet normal 0 0 -1
    outer loop
      vertex -2.97653 3.46956 -0.5
      vertex -1.95 2.22452 -0.5
      vertex -2.05709 2.14953 -0.5
    endloop
  endfacet
  facet normal 0 0 -1
    outer loop
      vertex -3.24462 3.24462 -0.5
      vertex -2.05709 2.14953 -0.5
      vertex -2.14953 2.05709 -0.5
    endloop
  endfacet
  facet normal 0 0 -1
    outer loop
      vertex -3.46956 2.97653 -0.5
      vertex -2.14953 2.05709 -0.5
      vertex -2.22452 1.95 -0.5
    endloop
  endfacet
  facet normal 0 0 -1
    outer loop
      vertex -3.76423 2.34461 -0.5
      vertex -2.22452 1.95 -0.5
      vertex -2.27977 1.83151 -0.5
    endloop
  endfacet
  facet normal 0 0 -1
    outer loop
      vertex -3.825 1.99998 -0.5
      vertex -2.27977 1.83151 -0.5
      vertex -2.31361 1.70524 -0.5
    endloop
  endfacet
  facet normal 0 0 -1
    outer loop
      vertex -1.83151 2.27977 -0.5
      vertex -2.34461 3.76423 -0.5
      vertex -1.99998 3.825 -0.5
    endloop
  endfacet
  facet normal 0 0 -1
    outer loop
      vertex -3.825 1.99998 -0.5
      vertex -2.31361 1.70524 -0.5
      vertex -2.325 1.575 -0.5
    endloop
  endfacet
  facet normal -0 0 -1
    outer loop
      vertex -2.325 -1.575 -0.5
      vertex -3.825 -1.99998 -0.5
      vertex -2.325 1.575 -0.5
    endloop
  endfacet
  facet normal 0 0 -1
    outer loop
      vertex -3.64454 -2.67346 -0.5
      vertex -2.22452 -1.95 -0.5
      vertex -3.46956 -2.97653 -0.5
    endloop
  endfacet
  facet normal 0 0 -1
    outer loop
      vertex -3.825 1.99998 -0.5
      vertex -2.325 1.575 -0.5
      vertex -3.825 -1.99998 -0.5
    endloop
  endfacet
  facet normal 0 0 -1
    outer loop
      vertex -3.76423 -2.34461 -0.5
      vertex -2.22452 -1.95 -0.5
      vertex -3.64454 -2.67346 -0.5
    endloop
  endfacet
  facet normal 0 0 -1
    outer loop
      vertex -2.27977 1.83151 -0.5
      vertex -3.825 1.99998 -0.5
      vertex -3.76423 2.34461 -0.5
    endloop
  endfacet
  facet normal -0 0 -1
    outer loop
      vertex -2.22452 -1.95 -0.5
      vertex -3.76423 -2.34461 -0.5
      vertex -2.27977 -1.83151 -0.5
    endloop
  endfacet
  facet normal 0 0 -1
    outer loop
      vertex -1.95 2.22452 -0.5
      vertex -2.67346 3.64454 -0.5
      vertex -2.34461 3.76423 -0.5
    endloop
  endfacet
  facet normal 0 0 -1
    outer loop
      vertex -3.825 -1.99998 -0.5
      vertex -2.27977 -1.83151 -0.5
      vertex -3.76423 -2.34461 -0.5
    endloop
  endfacet
  facet normal 0 0 -1
    outer loop
      vertex -1.95 2.22452 -0.5
      vertex -2.97653 3.46956 -0.5
      vertex -2.67346 3.64454 -0.5
    endloop
  endfacet
  facet normal -0 0 -1
    outer loop
      vertex -2.27977 -1.83151 -0.5
      vertex -3.825 -1.99998 -0.5
      vertex -2.31361 -1.70524 -0.5
    endloop
  endfacet
  facet normal 0 0 -1
    outer loop
      vertex -2.05709 2.14953 -0.5
      vertex -3.24462 3.24462 -0.5
      vertex -2.97653 3.46956 -0.5
    endloop
  endfacet
  facet normal -0 0 -1
    outer loop
      vertex -2.31361 -1.70524 -0.5
      vertex -3.825 -1.99998 -0.5
      vertex -2.325 -1.575 -0.5
    endloop
  endfacet
  facet normal 0 0 -1
    outer loop
      vertex -2.14953 2.05709 -0.5
      vertex -3.46956 2.97653 -0.5
      vertex -3.24462 3.24462 -0.5
    endloop
  endfacet
  facet normal 0 0 -1
    outer loop
      vertex -2.22452 1.95 -0.5
      vertex -3.64454 2.67346 -0.5
      vertex -3.46956 2.97653 -0.5
    endloop
  endfacet
  facet normal 0 0 -1
    outer loop
      vertex -2.22452 1.95 -0.5
      vertex -3.76423 2.34461 -0.5
      vertex -3.64454 2.67346 -0.5
    endloop
  endfacet
  facet normal 0.0871214 -0.996198 0
    outer loop
      vertex -1.70524 2.31361 -0.5
      vertex -1.575 2.325 4.5
      vertex -1.70524 2.31361 4.5
    endloop
  endfacet
  facet normal 0.0871214 -0.996198 0
    outer loop
      vertex -1.575 2.325 4.5
      vertex -1.70524 2.31361 -0.5
      vertex -1.575 2.325 -0.5
    endloop
  endfacet
  facet normal 1 -0 0
    outer loop
      vertex -2.325 -1.575 4.5
      vertex -2.325 1.575 -0.5
      vertex -2.325 1.575 4.5
    endloop
  endfacet
  facet normal 1 0 0
    outer loop
      vertex -2.325 1.575 -0.5
      vertex -2.325 -1.575 4.5
      vertex -2.325 -1.575 -0.5
    endloop
  endfacet
  facet normal 0.422601 -0.906316 0
    outer loop
      vertex -1.95 2.22452 -0.5
      vertex -1.83151 2.27977 4.5
      vertex -1.95 2.22452 4.5
    endloop
  endfacet
  facet normal 0.422601 -0.906316 0
    outer loop
      vertex -1.83151 2.27977 4.5
      vertex -1.95 2.22452 -0.5
      vertex -1.83151 2.27977 -0.5
    endloop
  endfacet
  facet normal 0.707107 -0.707107 0
    outer loop
      vertex -2.14953 2.05709 4.5
      vertex -2.05709 2.14953 -0.5
      vertex -2.05709 2.14953 4.5
    endloop
  endfacet
  facet normal 0.707107 -0.707107 0
    outer loop
      vertex -2.05709 2.14953 -0.5
      vertex -2.14953 2.05709 4.5
      vertex -2.14953 2.05709 -0.5
    endloop
  endfacet
  facet normal 0.996198 0.0871214 0
    outer loop
      vertex -2.31361 -1.70524 4.5
      vertex -2.325 -1.575 -0.5
      vertex -2.325 -1.575 4.5
    endloop
  endfacet
  facet normal 0.996198 0.0871214 0
    outer loop
      vertex -2.325 -1.575 -0.5
      vertex -2.31361 -1.70524 4.5
      vertex -2.31361 -1.70524 -0.5
    endloop
  endfacet
  facet normal 0.0871214 0.996198 -0
    outer loop
      vertex -1.575 -2.325 -0.5
      vertex -1.70524 -2.31361 4.5
      vertex -1.575 -2.325 4.5
    endloop
  endfacet
  facet normal 0.0871214 0.996198 0
    outer loop
      vertex -1.70524 -2.31361 4.5
      vertex -1.575 -2.325 -0.5
      vertex -1.70524 -2.31361 -0.5
    endloop
  endfacet
  facet normal 0.819135 0.573601 0
    outer loop
      vertex -2.14953 -2.05709 4.5
      vertex -2.22452 -1.95 -0.5
      vertex -2.22452 -1.95 4.5
    endloop
  endfacet
  facet normal 0.819135 0.573601 0
    outer loop
      vertex -2.22452 -1.95 -0.5
      vertex -2.14953 -2.05709 4.5
      vertex -2.14953 -2.05709 -0.5
    endloop
  endfacet
  facet normal -0.0871214 0.996198 0
    outer loop
      vertex 1.70524 -2.31361 -0.5
      vertex 1.575 -2.325 4.5
      vertex 1.70524 -2.31361 4.5
    endloop
  endfacet
  facet normal -0.0871214 0.996198 0
    outer loop
      vertex 1.575 -2.325 4.5
      vertex 1.70524 -2.31361 -0.5
      vertex 1.575 -2.325 -0.5
    endloop
  endfacet
  facet normal 0.996198 -0.0871214 0
    outer loop
      vertex -2.325 1.575 4.5
      vertex -2.31361 1.70524 -0.5
      vertex -2.31361 1.70524 4.5
    endloop
  endfacet
  facet normal 0.996198 -0.0871214 0
    outer loop
      vertex -2.31361 1.70524 -0.5
      vertex -2.325 1.575 4.5
      vertex -2.325 1.575 -0.5
    endloop
  endfacet
  facet normal -0.819135 0.573601 0
    outer loop
      vertex 2.14953 -2.05709 -0.5
      vertex 2.22452 -1.95 4.5
      vertex 2.22452 -1.95 -0.5
    endloop
  endfacet
  facet normal -0.819135 0.573601 0
    outer loop
      vertex 2.22452 -1.95 4.5
      vertex 2.14953 -2.05709 -0.5
      vertex 2.14953 -2.05709 4.5
    endloop
  endfacet
  facet normal -0.573601 -0.819135 0
    outer loop
      vertex 1.95 2.22452 -0.5
      vertex 2.05709 2.14953 4.5
      vertex 1.95 2.22452 4.5
    endloop
  endfacet
  facet normal -0.573601 -0.819135 -0
    outer loop
      vertex 2.05709 2.14953 4.5
      vertex 1.95 2.22452 -0.5
      vertex 2.05709 2.14953 -0.5
    endloop
  endfacet
  facet normal 0.258862 -0.965914 0
    outer loop
      vertex -1.83151 2.27977 -0.5
      vertex -1.70524 2.31361 4.5
      vertex -1.83151 2.27977 4.5
    endloop
  endfacet
  facet normal 0.258862 -0.965914 0
    outer loop
      vertex -1.70524 2.31361 4.5
      vertex -1.83151 2.27977 -0.5
      vertex -1.70524 2.31361 -0.5
    endloop
  endfacet
  facet normal -0.996198 0.0871214 0
    outer loop
      vertex 2.31361 -1.70524 -0.5
      vertex 2.325 -1.575 4.5
      vertex 2.325 -1.575 -0.5
    endloop
  endfacet
  facet normal -0.996198 0.0871214 0
    outer loop
      vertex 2.325 -1.575 4.5
      vertex 2.31361 -1.70524 -0.5
      vertex 2.31361 -1.70524 4.5
    endloop
  endfacet
  facet normal -0.996198 -0.0871214 0
    outer loop
      vertex 2.325 1.575 -0.5
      vertex 2.31361 1.70524 4.5
      vertex 2.31361 1.70524 -0.5
    endloop
  endfacet
  facet normal -0.996198 -0.0871214 0
    outer loop
      vertex 2.31361 1.70524 4.5
      vertex 2.325 1.575 -0.5
      vertex 2.325 1.575 4.5
    endloop
  endfacet
  facet normal 0.573601 -0.819135 0
    outer loop
      vertex -2.05709 2.14953 -0.5
      vertex -1.95 2.22452 4.5
      vertex -2.05709 2.14953 4.5
    endloop
  endfacet
  facet normal 0.573601 -0.819135 0
    outer loop
      vertex -1.95 2.22452 4.5
      vertex -2.05709 2.14953 -0.5
      vertex -1.95 2.22452 -0.5
    endloop
  endfacet
  facet normal -1 0 0
    outer loop
      vertex 2.325 -1.575 -0.5
      vertex 2.325 1.575 4.5
      vertex 2.325 1.575 -0.5
    endloop
  endfacet
  facet normal -1 -0 0
    outer loop
      vertex 2.325 1.575 4.5
      vertex 2.325 -1.575 -0.5
      vertex 2.325 -1.575 4.5
    endloop
  endfacet
  facet normal 0.573601 0.819135 -0
    outer loop
      vertex -1.95 -2.22452 -0.5
      vertex -2.05709 -2.14953 4.5
      vertex -1.95 -2.22452 4.5
    endloop
  endfacet
  facet normal 0.573601 0.819135 0
    outer loop
      vertex -2.05709 -2.14953 4.5
      vertex -1.95 -2.22452 -0.5
      vertex -2.05709 -2.14953 -0.5
    endloop
  endfacet
  facet normal -0.965914 -0.258862 0
    outer loop
      vertex 2.31361 1.70524 -0.5
      vertex 2.27977 1.83151 4.5
      vertex 2.27977 1.83151 -0.5
    endloop
  endfacet
  facet normal -0.965914 -0.258862 0
    outer loop
      vertex 2.27977 1.83151 4.5
      vertex 2.31361 1.70524 -0.5
      vertex 2.31361 1.70524 4.5
    endloop
  endfacet
  facet normal 0.906316 -0.422601 0
    outer loop
      vertex -2.27977 1.83151 4.5
      vertex -2.22452 1.95 -0.5
      vertex -2.22452 1.95 4.5
    endloop
  endfacet
  facet normal 0.906316 -0.422601 0
    outer loop
      vertex -2.22452 1.95 -0.5
      vertex -2.27977 1.83151 4.5
      vertex -2.27977 1.83151 -0.5
    endloop
  endfacet
  facet normal 0.965914 -0.258862 0
    outer loop
      vertex -2.31361 1.70524 4.5
      vertex -2.27977 1.83151 -0.5
      vertex -2.27977 1.83151 4.5
    endloop
  endfacet
  facet normal 0.965914 -0.258862 0
    outer loop
      vertex -2.27977 1.83151 -0.5
      vertex -2.31361 1.70524 4.5
      vertex -2.31361 1.70524 -0.5
    endloop
  endfacet
  facet normal 0.819135 -0.573601 0
    outer loop
      vertex -2.22452 1.95 4.5
      vertex -2.14953 2.05709 -0.5
      vertex -2.14953 2.05709 4.5
    endloop
  endfacet
  facet normal 0.819135 -0.573601 0
    outer loop
      vertex -2.14953 2.05709 -0.5
      vertex -2.22452 1.95 4.5
      vertex -2.22452 1.95 -0.5
    endloop
  endfacet
  facet normal 0.258862 0.965914 -0
    outer loop
      vertex -1.70524 -2.31361 -0.5
      vertex -1.83151 -2.27977 4.5
      vertex -1.70524 -2.31361 4.5
    endloop
  endfacet
  facet normal 0.258862 0.965914 0
    outer loop
      vertex -1.83151 -2.27977 4.5
      vertex -1.70524 -2.31361 -0.5
      vertex -1.83151 -2.27977 -0.5
    endloop
  endfacet
  facet normal 0 1 -0
    outer loop
      vertex 1.575 -2.325 -0.5
      vertex -1.575 -2.325 4.5
      vertex 1.575 -2.325 4.5
    endloop
  endfacet
  facet normal 0 1 0
    outer loop
      vertex -1.575 -2.325 4.5
      vertex 1.575 -2.325 -0.5
      vertex -1.575 -2.325 -0.5
    endloop
  endfacet
  facet normal -0.422601 -0.906316 0
    outer loop
      vertex 1.83151 2.27977 -0.5
      vertex 1.95 2.22452 4.5
      vertex 1.83151 2.27977 4.5
    endloop
  endfacet
  facet normal -0.422601 -0.906316 -0
    outer loop
      vertex 1.95 2.22452 4.5
      vertex 1.83151 2.27977 -0.5
      vertex 1.95 2.22452 -0.5
    endloop
  endfacet
  facet normal 0.422601 0.906316 -0
    outer loop
      vertex -1.83151 -2.27977 -0.5
      vertex -1.95 -2.22452 4.5
      vertex -1.83151 -2.27977 4.5
    endloop
  endfacet
  facet normal 0.422601 0.906316 0
    outer loop
      vertex -1.95 -2.22452 4.5
      vertex -1.83151 -2.27977 -0.5
      vertex -1.95 -2.22452 -0.5
    endloop
  endfacet
  facet normal -0.573601 0.819135 0
    outer loop
      vertex 2.05709 -2.14953 -0.5
      vertex 1.95 -2.22452 4.5
      vertex 2.05709 -2.14953 4.5
    endloop
  endfacet
  facet normal -0.573601 0.819135 0
    outer loop
      vertex 1.95 -2.22452 4.5
      vertex 2.05709 -2.14953 -0.5
      vertex 1.95 -2.22452 -0.5
    endloop
  endfacet
  facet normal -0.906316 0.422601 0
    outer loop
      vertex 2.22452 -1.95 -0.5
      vertex 2.27977 -1.83151 4.5
      vertex 2.27977 -1.83151 -0.5
    endloop
  endfacet
  facet normal -0.906316 0.422601 0
    outer loop
      vertex 2.27977 -1.83151 4.5
      vertex 2.22452 -1.95 -0.5
      vertex 2.22452 -1.95 4.5
    endloop
  endfacet
  facet normal 0.707107 0.707107 0
    outer loop
      vertex -2.05709 -2.14953 4.5
      vertex -2.14953 -2.05709 -0.5
      vertex -2.14953 -2.05709 4.5
    endloop
  endfacet
  facet normal 0.707107 0.707107 0
    outer loop
      vertex -2.14953 -2.05709 -0.5
      vertex -2.05709 -2.14953 4.5
      vertex -2.05709 -2.14953 -0.5
    endloop
  endfacet
  facet normal -0.707107 -0.707107 0
    outer loop
      vertex 2.14953 2.05709 -0.5
      vertex 2.05709 2.14953 4.5
      vertex 2.05709 2.14953 -0.5
    endloop
  endfacet
  facet normal -0.707107 -0.707107 0
    outer loop
      vertex 2.05709 2.14953 4.5
      vertex 2.14953 2.05709 -0.5
      vertex 2.14953 2.05709 4.5
    endloop
  endfacet
  facet normal -0.0871214 -0.996198 0
    outer loop
      vertex 1.575 2.325 -0.5
      vertex 1.70524 2.31361 4.5
      vertex 1.575 2.325 4.5
    endloop
  endfacet
  facet normal -0.0871214 -0.996198 -0
    outer loop
      vertex 1.70524 2.31361 4.5
      vertex 1.575 2.325 -0.5
      vertex 1.70524 2.31361 -0.5
    endloop
  endfacet
  facet normal 0 -1 0
    outer loop
      vertex -1.575 2.325 -0.5
      vertex 1.575 2.325 4.5
      vertex -1.575 2.325 4.5
    endloop
  endfacet
  facet normal 0 -1 -0
    outer loop
      vertex 1.575 2.325 4.5
      vertex -1.575 2.325 -0.5
      vertex 1.575 2.325 -0.5
    endloop
  endfacet
  facet normal -0.258862 -0.965914 0
    outer loop
      vertex 1.70524 2.31361 -0.5
      vertex 1.83151 2.27977 4.5
      vertex 1.70524 2.31361 4.5
    endloop
  endfacet
  facet normal -0.258862 -0.965914 -0
    outer loop
      vertex 1.83151 2.27977 4.5
      vertex 1.70524 2.31361 -0.5
      vertex 1.83151 2.27977 -0.5
    endloop
  endfacet
  facet normal -0.819135 -0.573601 0
    outer loop
      vertex 2.22452 1.95 -0.5
      vertex 2.14953 2.05709 4.5
      vertex 2.14953 2.05709 -0.5
    endloop
  endfacet
  facet normal -0.819135 -0.573601 0
    outer loop
      vertex 2.14953 2.05709 4.5
      vertex 2.22452 1.95 -0.5
      vertex 2.22452 1.95 4.5
    endloop
  endfacet
  facet normal -0.906316 -0.422601 0
    outer loop
      vertex 2.27977 1.83151 -0.5
      vertex 2.22452 1.95 4.5
      vertex 2.22452 1.95 -0.5
    endloop
  endfacet
  facet normal -0.906316 -0.422601 0
    outer loop
      vertex 2.22452 1.95 4.5
      vertex 2.27977 1.83151 -0.5
      vertex 2.27977 1.83151 4.5
    endloop
  endfacet
  facet normal -0.965914 0.258862 0
    outer loop
      vertex 2.27977 -1.83151 -0.5
      vertex 2.31361 -1.70524 4.5
      vertex 2.31361 -1.70524 -0.5
    endloop
  endfacet
  facet normal -0.965914 0.258862 0
    outer loop
      vertex 2.31361 -1.70524 4.5
      vertex 2.27977 -1.83151 -0.5
      vertex 2.27977 -1.83151 4.5
    endloop
  endfacet
  facet normal -0.422601 0.906316 0
    outer loop
      vertex 1.95 -2.22452 -0.5
      vertex 1.83151 -2.27977 4.5
      vertex 1.95 -2.22452 4.5
    endloop
  endfacet
  facet normal -0.422601 0.906316 0
    outer loop
      vertex 1.83151 -2.27977 4.5
      vertex 1.95 -2.22452 -0.5
      vertex 1.83151 -2.27977 -0.5
    endloop
  endfacet
  facet normal -0.707107 0.707107 0
    outer loop
      vertex 2.05709 -2.14953 -0.5
      vertex 2.14953 -2.05709 4.5
      vertex 2.14953 -2.05709 -0.5
    endloop
  endfacet
  facet normal -0.707107 0.707107 0
    outer loop
      vertex 2.14953 -2.05709 4.5
      vertex 2.05709 -2.14953 -0.5
      vertex 2.05709 -2.14953 4.5
    endloop
  endfacet
  facet normal -0.258862 0.965914 0
    outer loop
      vertex 1.83151 -2.27977 -0.5
      vertex 1.70524 -2.31361 4.5
      vertex 1.83151 -2.27977 4.5
    endloop
  endfacet
  facet normal -0.258862 0.965914 0
    outer loop
      vertex 1.70524 -2.31361 4.5
      vertex 1.83151 -2.27977 -0.5
      vertex 1.70524 -2.31361 -0.5
    endloop
  endfacet
  facet normal 0.965914 0.258862 0
    outer loop
      vertex -2.27977 -1.83151 4.5
      vertex -2.31361 -1.70524 -0.5
      vertex -2.31361 -1.70524 4.5
    endloop
  endfacet
  facet normal 0.965914 0.258862 0
    outer loop
      vertex -2.31361 -1.70524 -0.5
      vertex -2.27977 -1.83151 4.5
      vertex -2.27977 -1.83151 -0.5
    endloop
  endfacet
  facet normal 0.906316 0.422601 0
    outer loop
      vertex -2.22452 -1.95 4.5
      vertex -2.27977 -1.83151 -0.5
      vertex -2.27977 -1.83151 4.5
    endloop
  endfacet
  facet normal 0.906316 0.422601 0
    outer loop
      vertex -2.27977 -1.83151 -0.5
      vertex -2.22452 -1.95 4.5
      vertex -2.22452 -1.95 -0.5
    endloop
  endfacet
endsolid OpenSCAD_Model
