solid OpenSCAD_Model
  facet normal 1 -0 0
    outer loop
      vertex 120 0 3
      vertex 120 266.7 0
      vertex 120 266.7 3
    endloop
  endfacet
  facet normal 1 0 0
    outer loop
      vertex 120 266.7 0
      vertex 120 0 3
      vertex 120 0 0
    endloop
  endfacet
  facet normal 0 0 1
    outer loop
      vertex 120 266.7 3
      vertex 109.5 133.35 3
      vertex 120 0 3
    endloop
  endfacet
  facet normal 0 0 1
    outer loop
      vertex 120 266.7 3
      vertex 109.462 133.784 3
      vertex 109.5 133.35 3
    endloop
  endfacet
  facet normal 0 0 1
    outer loop
      vertex 120 266.7 3
      vertex 109.349 134.205 3
      vertex 109.462 133.784 3
    endloop
  endfacet
  facet normal 0 0 1
    outer loop
      vertex 120 266.7 3
      vertex 109.165 134.6 3
      vertex 109.349 134.205 3
    endloop
  endfacet
  facet normal 0 0 1
    outer loop
      vertex 120 266.7 3
      vertex 108.915 134.957 3
      vertex 109.165 134.6 3
    endloop
  endfacet
  facet normal -0 0 1
    outer loop
      vertex 93.5 226.85 3
      vertex 108.915 134.957 3
      vertex 120 266.7 3
    endloop
  endfacet
  facet normal 0 0 1
    outer loop
      vertex 108.915 134.957 3
      vertex 93.5 226.85 3
      vertex 108.607 135.265 3
    endloop
  endfacet
  facet normal 0 0 1
    outer loop
      vertex 108.607 135.265 3
      vertex 93.5 226.85 3
      vertex 108.25 135.515 3
    endloop
  endfacet
  facet normal 0 0 1
    outer loop
      vertex 108.25 135.515 3
      vertex 93.5 226.85 3
      vertex 107.855 135.699 3
    endloop
  endfacet
  facet normal 0 0 1
    outer loop
      vertex 107.855 135.699 3
      vertex 93.5 226.85 3
      vertex 107.434 135.812 3
    endloop
  endfacet
  facet normal 0 0 1
    outer loop
      vertex 107.434 135.812 3
      vertex 93.5 226.85 3
      vertex 107 135.85 3
    endloop
  endfacet
  facet normal 0 0 1
    outer loop
      vertex 107 135.85 3
      vertex 93.5 226.85 3
      vertex 106.566 135.812 3
    endloop
  endfacet
  facet normal 0 0 1
    outer loop
      vertex 106.566 135.812 3
      vertex 93.5 226.85 3
      vertex 106.145 135.699 3
    endloop
  endfacet
  facet normal 0 0 1
    outer loop
      vertex 106.145 135.699 3
      vertex 93.5 226.85 3
      vertex 105.75 135.515 3
    endloop
  endfacet
  facet normal 0 0 1
    outer loop
      vertex 105.75 135.515 3
      vertex 93.5 226.85 3
      vertex 105.393 135.265 3
    endloop
  endfacet
  facet normal 0 0 1
    outer loop
      vertex 105.393 135.265 3
      vertex 93.5 226.85 3
      vertex 105.085 134.957 3
    endloop
  endfacet
  facet normal 0 0 1
    outer loop
      vertex 105.085 134.957 3
      vertex 93.5 226.85 3
      vertex 104.835 134.6 3
    endloop
  endfacet
  facet normal 0 0 1
    outer loop
      vertex 104.835 134.6 3
      vertex 93.5 226.85 3
      vertex 104.651 134.205 3
    endloop
  endfacet
  facet normal 0 0 1
    outer loop
      vertex 104.538 133.784 3
      vertex 93.5 226.85 3
      vertex 104.5 133.35 3
    endloop
  endfacet
  facet normal 0 0 1
    outer loop
      vertex 104.651 134.205 3
      vertex 93.5 226.85 3
      vertex 104.538 133.784 3
    endloop
  endfacet
  facet normal 0 0 1
    outer loop
      vertex 120 266.7 3
      vertex 26.5 226.85 3
      vertex 93.5 226.85 3
    endloop
  endfacet
  facet normal 0 0 1
    outer loop
      vertex 26.5 226.85 3
      vertex 15.5 133.35 3
      vertex 26.5 39.85 3
    endloop
  endfacet
  facet normal 0 0 1
    outer loop
      vertex 26.5 226.85 3
      vertex 15.462 133.784 3
      vertex 15.5 133.35 3
    endloop
  endfacet
  facet normal 0 0 1
    outer loop
      vertex 26.5 226.85 3
      vertex 15.3492 134.205 3
      vertex 15.462 133.784 3
    endloop
  endfacet
  facet normal 0 0 1
    outer loop
      vertex 26.5 226.85 3
      vertex 15.1651 134.6 3
      vertex 15.3492 134.205 3
    endloop
  endfacet
  facet normal 0 0 1
    outer loop
      vertex 26.5 226.85 3
      vertex 14.9151 134.957 3
      vertex 15.1651 134.6 3
    endloop
  endfacet
  facet normal 0 0 1
    outer loop
      vertex 26.5 226.85 3
      vertex 14.607 135.265 3
      vertex 14.9151 134.957 3
    endloop
  endfacet
  facet normal 0 0 1
    outer loop
      vertex 26.5 226.85 3
      vertex 14.25 135.515 3
      vertex 14.607 135.265 3
    endloop
  endfacet
  facet normal 0 0 1
    outer loop
      vertex 26.5 226.85 3
      vertex 13.8551 135.699 3
      vertex 14.25 135.515 3
    endloop
  endfacet
  facet normal 0 0 1
    outer loop
      vertex 26.5 226.85 3
      vertex 13.4341 135.812 3
      vertex 13.8551 135.699 3
    endloop
  endfacet
  facet normal 0 0 1
    outer loop
      vertex 26.5 226.85 3
      vertex 13 135.85 3
      vertex 13.4341 135.812 3
    endloop
  endfacet
  facet normal 0 0 1
    outer loop
      vertex 26.5 226.85 3
      vertex 12.5659 135.812 3
      vertex 13 135.85 3
    endloop
  endfacet
  facet normal 0 0 1
    outer loop
      vertex 26.5 226.85 3
      vertex 12.1449 135.699 3
      vertex 12.5659 135.812 3
    endloop
  endfacet
  facet normal 0 0 1
    outer loop
      vertex 26.5 226.85 3
      vertex 11.75 135.515 3
      vertex 12.1449 135.699 3
    endloop
  endfacet
  facet normal 0 0 1
    outer loop
      vertex 26.5 226.85 3
      vertex 11.393 135.265 3
      vertex 11.75 135.515 3
    endloop
  endfacet
  facet normal 0 0 1
    outer loop
      vertex 26.5 226.85 3
      vertex 11.0849 134.957 3
      vertex 11.393 135.265 3
    endloop
  endfacet
  facet normal 0 0 1
    outer loop
      vertex 0 266.7 3
      vertex 11.0849 134.957 3
      vertex 26.5 226.85 3
    endloop
  endfacet
  facet normal 0 0 1
    outer loop
      vertex 11.0849 134.957 3
      vertex 0 266.7 3
      vertex 10.8349 134.6 3
    endloop
  endfacet
  facet normal 0 0 1
    outer loop
      vertex 10.8349 134.6 3
      vertex 0 266.7 3
      vertex 10.6508 134.205 3
    endloop
  endfacet
  facet normal 0 0 1
    outer loop
      vertex 10.538 133.784 3
      vertex 0 266.7 3
      vertex 10.5 133.35 3
    endloop
  endfacet
  facet normal 0 0 1
    outer loop
      vertex 10.6508 134.205 3
      vertex 0 266.7 3
      vertex 10.538 133.784 3
    endloop
  endfacet
  facet normal -0 0 1
    outer loop
      vertex 0 266.7 3
      vertex 26.5 226.85 3
      vertex 120 266.7 3
    endloop
  endfacet
  facet normal -0 0 1
    outer loop
      vertex 109.462 132.916 3
      vertex 120 0 3
      vertex 109.5 133.35 3
    endloop
  endfacet
  facet normal -0 0 1
    outer loop
      vertex 109.349 132.495 3
      vertex 120 0 3
      vertex 109.462 132.916 3
    endloop
  endfacet
  facet normal -0 0 1
    outer loop
      vertex 109.165 132.1 3
      vertex 120 0 3
      vertex 109.349 132.495 3
    endloop
  endfacet
  facet normal -0 0 1
    outer loop
      vertex 108.915 131.743 3
      vertex 120 0 3
      vertex 109.165 132.1 3
    endloop
  endfacet
  facet normal 0 0 1
    outer loop
      vertex 93.5 39.85 3
      vertex 108.915 131.743 3
      vertex 108.607 131.435 3
    endloop
  endfacet
  facet normal 0 0 1
    outer loop
      vertex 93.5 39.85 3
      vertex 108.607 131.435 3
      vertex 108.25 131.185 3
    endloop
  endfacet
  facet normal 0 0 1
    outer loop
      vertex 93.5 39.85 3
      vertex 108.25 131.185 3
      vertex 107.855 131.001 3
    endloop
  endfacet
  facet normal 0 0 1
    outer loop
      vertex 93.5 39.85 3
      vertex 107.855 131.001 3
      vertex 107.434 130.888 3
    endloop
  endfacet
  facet normal 0 0 1
    outer loop
      vertex 93.5 39.85 3
      vertex 107.434 130.888 3
      vertex 107 130.85 3
    endloop
  endfacet
  facet normal 0 0 1
    outer loop
      vertex 93.5 39.85 3
      vertex 107 130.85 3
      vertex 106.566 130.888 3
    endloop
  endfacet
  facet normal 0 0 1
    outer loop
      vertex 93.5 39.85 3
      vertex 106.566 130.888 3
      vertex 106.145 131.001 3
    endloop
  endfacet
  facet normal 0 0 1
    outer loop
      vertex 93.5 39.85 3
      vertex 106.145 131.001 3
      vertex 105.75 131.185 3
    endloop
  endfacet
  facet normal 0 0 1
    outer loop
      vertex 93.5 39.85 3
      vertex 105.75 131.185 3
      vertex 105.393 131.435 3
    endloop
  endfacet
  facet normal 0 0 1
    outer loop
      vertex 93.5 39.85 3
      vertex 105.393 131.435 3
      vertex 105.085 131.743 3
    endloop
  endfacet
  facet normal 0 0 1
    outer loop
      vertex 93.5 39.85 3
      vertex 105.085 131.743 3
      vertex 104.835 132.1 3
    endloop
  endfacet
  facet normal 0 0 1
    outer loop
      vertex 93.5 39.85 3
      vertex 104.835 132.1 3
      vertex 104.651 132.495 3
    endloop
  endfacet
  facet normal 0 0 1
    outer loop
      vertex 93.5 39.85 3
      vertex 104.651 132.495 3
      vertex 104.538 132.916 3
    endloop
  endfacet
  facet normal 0 0 1
    outer loop
      vertex 93.5 39.85 3
      vertex 104.5 133.35 3
      vertex 93.5 226.85 3
    endloop
  endfacet
  facet normal 0 0 1
    outer loop
      vertex 104.5 133.35 3
      vertex 93.5 39.85 3
      vertex 104.538 132.916 3
    endloop
  endfacet
  facet normal 0 0 1
    outer loop
      vertex 108.915 131.743 3
      vertex 93.5 39.85 3
      vertex 120 0 3
    endloop
  endfacet
  facet normal -0 0 1
    outer loop
      vertex 26.5 39.85 3
      vertex 120 0 3
      vertex 93.5 39.85 3
    endloop
  endfacet
  facet normal -0 0 1
    outer loop
      vertex 15.462 132.916 3
      vertex 26.5 39.85 3
      vertex 15.5 133.35 3
    endloop
  endfacet
  facet normal -0 0 1
    outer loop
      vertex 15.3492 132.495 3
      vertex 26.5 39.85 3
      vertex 15.462 132.916 3
    endloop
  endfacet
  facet normal -0 0 1
    outer loop
      vertex 15.1651 132.1 3
      vertex 26.5 39.85 3
      vertex 15.3492 132.495 3
    endloop
  endfacet
  facet normal -0 0 1
    outer loop
      vertex 14.9151 131.743 3
      vertex 26.5 39.85 3
      vertex 15.1651 132.1 3
    endloop
  endfacet
  facet normal -0 0 1
    outer loop
      vertex 14.607 131.435 3
      vertex 26.5 39.85 3
      vertex 14.9151 131.743 3
    endloop
  endfacet
  facet normal -0 0 1
    outer loop
      vertex 14.25 131.185 3
      vertex 26.5 39.85 3
      vertex 14.607 131.435 3
    endloop
  endfacet
  facet normal -0 0 1
    outer loop
      vertex 13.8551 131.001 3
      vertex 26.5 39.85 3
      vertex 14.25 131.185 3
    endloop
  endfacet
  facet normal -0 0 1
    outer loop
      vertex 13.4341 130.888 3
      vertex 26.5 39.85 3
      vertex 13.8551 131.001 3
    endloop
  endfacet
  facet normal -0 0 1
    outer loop
      vertex 13 130.85 3
      vertex 26.5 39.85 3
      vertex 13.4341 130.888 3
    endloop
  endfacet
  facet normal 0 0 1
    outer loop
      vertex 12.5659 130.888 3
      vertex 26.5 39.85 3
      vertex 13 130.85 3
    endloop
  endfacet
  facet normal 0 0 1
    outer loop
      vertex 12.1449 131.001 3
      vertex 26.5 39.85 3
      vertex 12.5659 130.888 3
    endloop
  endfacet
  facet normal 0 0 1
    outer loop
      vertex 11.75 131.185 3
      vertex 26.5 39.85 3
      vertex 12.1449 131.001 3
    endloop
  endfacet
  facet normal 0 0 1
    outer loop
      vertex 11.393 131.435 3
      vertex 26.5 39.85 3
      vertex 11.75 131.185 3
    endloop
  endfacet
  facet normal 0 0 1
    outer loop
      vertex 11.0849 131.743 3
      vertex 26.5 39.85 3
      vertex 11.393 131.435 3
    endloop
  endfacet
  facet normal 0 0 1
    outer loop
      vertex 0 0 3
      vertex 11.0849 131.743 3
      vertex 10.8349 132.1 3
    endloop
  endfacet
  facet normal 0 0 1
    outer loop
      vertex 0 0 3
      vertex 10.8349 132.1 3
      vertex 10.6508 132.495 3
    endloop
  endfacet
  facet normal 0 0 1
    outer loop
      vertex 0 0 3
      vertex 10.6508 132.495 3
      vertex 10.538 132.916 3
    endloop
  endfacet
  facet normal 0 0 1
    outer loop
      vertex 26.5 39.85 3
      vertex 0 0 3
      vertex 120 0 3
    endloop
  endfacet
  facet normal 0 0 1
    outer loop
      vertex 11.0849 131.743 3
      vertex 0 0 3
      vertex 26.5 39.85 3
    endloop
  endfacet
  facet normal 0 0 1
    outer loop
      vertex 10.5 133.35 3
      vertex 0 0 3
      vertex 10.538 132.916 3
    endloop
  endfacet
  facet normal 0 0 1
    outer loop
      vertex 0 0 3
      vertex 10.5 133.35 3
      vertex 0 266.7 3
    endloop
  endfacet
  facet normal 0 0 -1
    outer loop
      vertex 120 0 0
      vertex 109.5 133.35 0
      vertex 120 266.7 0
    endloop
  endfacet
  facet normal 0 0 -1
    outer loop
      vertex 120 0 0
      vertex 109.462 132.916 0
      vertex 109.5 133.35 0
    endloop
  endfacet
  facet normal 0 0 -1
    outer loop
      vertex 120 0 0
      vertex 109.349 132.495 0
      vertex 109.462 132.916 0
    endloop
  endfacet
  facet normal 0 0 -1
    outer loop
      vertex 120 0 0
      vertex 109.165 132.1 0
      vertex 109.349 132.495 0
    endloop
  endfacet
  facet normal 0 0 -1
    outer loop
      vertex 120 0 0
      vertex 108.915 131.743 0
      vertex 109.165 132.1 0
    endloop
  endfacet
  facet normal 0 0 -1
    outer loop
      vertex 90.5 42.85 0
      vertex 108.915 131.743 0
      vertex 120 0 0
    endloop
  endfacet
  facet normal 0 0 -1
    outer loop
      vertex 108.915 131.743 0
      vertex 90.5 42.85 0
      vertex 108.607 131.435 0
    endloop
  endfacet
  facet normal 0 0 -1
    outer loop
      vertex 108.607 131.435 0
      vertex 90.5 42.85 0
      vertex 108.25 131.185 0
    endloop
  endfacet
  facet normal 0 0 -1
    outer loop
      vertex 108.25 131.185 0
      vertex 90.5 42.85 0
      vertex 107.855 131.001 0
    endloop
  endfacet
  facet normal 0 0 -1
    outer loop
      vertex 107.855 131.001 0
      vertex 90.5 42.85 0
      vertex 107.434 130.888 0
    endloop
  endfacet
  facet normal 0 0 -1
    outer loop
      vertex 107.434 130.888 0
      vertex 90.5 42.85 0
      vertex 107 130.85 0
    endloop
  endfacet
  facet normal -0 0 -1
    outer loop
      vertex 107 130.85 0
      vertex 90.5 42.85 0
      vertex 106.566 130.888 0
    endloop
  endfacet
  facet normal -0 0 -1
    outer loop
      vertex 106.566 130.888 0
      vertex 90.5 42.85 0
      vertex 106.145 131.001 0
    endloop
  endfacet
  facet normal -0 0 -1
    outer loop
      vertex 106.145 131.001 0
      vertex 90.5 42.85 0
      vertex 105.75 131.185 0
    endloop
  endfacet
  facet normal -0 0 -1
    outer loop
      vertex 105.75 131.185 0
      vertex 90.5 42.85 0
      vertex 105.393 131.435 0
    endloop
  endfacet
  facet normal -0 0 -1
    outer loop
      vertex 105.393 131.435 0
      vertex 90.5 42.85 0
      vertex 105.085 131.743 0
    endloop
  endfacet
  facet normal -0 0 -1
    outer loop
      vertex 105.085 131.743 0
      vertex 90.5 42.85 0
      vertex 104.835 132.1 0
    endloop
  endfacet
  facet normal -0 0 -1
    outer loop
      vertex 104.835 132.1 0
      vertex 90.5 42.85 0
      vertex 104.651 132.495 0
    endloop
  endfacet
  facet normal -0 0 -1
    outer loop
      vertex 104.538 132.916 0
      vertex 90.5 42.85 0
      vertex 104.5 133.35 0
    endloop
  endfacet
  facet normal -0 0 -1
    outer loop
      vertex 104.651 132.495 0
      vertex 90.5 42.85 0
      vertex 104.538 132.916 0
    endloop
  endfacet
  facet normal 0 0 -1
    outer loop
      vertex 120 0 0
      vertex 29.5 42.85 0
      vertex 90.5 42.85 0
    endloop
  endfacet
  facet normal 0 0 -1
    outer loop
      vertex 29.5 42.85 0
      vertex 15.5 133.35 0
      vertex 29.5 223.85 0
    endloop
  endfacet
  facet normal 0 0 -1
    outer loop
      vertex 29.5 42.85 0
      vertex 15.462 132.916 0
      vertex 15.5 133.35 0
    endloop
  endfacet
  facet normal 0 0 -1
    outer loop
      vertex 29.5 42.85 0
      vertex 15.3492 132.495 0
      vertex 15.462 132.916 0
    endloop
  endfacet
  facet normal 0 0 -1
    outer loop
      vertex 29.5 42.85 0
      vertex 15.1651 132.1 0
      vertex 15.3492 132.495 0
    endloop
  endfacet
  facet normal 0 0 -1
    outer loop
      vertex 29.5 42.85 0
      vertex 14.9151 131.743 0
      vertex 15.1651 132.1 0
    endloop
  endfacet
  facet normal 0 0 -1
    outer loop
      vertex 29.5 42.85 0
      vertex 14.607 131.435 0
      vertex 14.9151 131.743 0
    endloop
  endfacet
  facet normal 0 0 -1
    outer loop
      vertex 29.5 42.85 0
      vertex 14.25 131.185 0
      vertex 14.607 131.435 0
    endloop
  endfacet
  facet normal 0 0 -1
    outer loop
      vertex 29.5 42.85 0
      vertex 13.8551 131.001 0
      vertex 14.25 131.185 0
    endloop
  endfacet
  facet normal 0 0 -1
    outer loop
      vertex 29.5 42.85 0
      vertex 13.4341 130.888 0
      vertex 13.8551 131.001 0
    endloop
  endfacet
  facet normal 0 0 -1
    outer loop
      vertex 29.5 42.85 0
      vertex 13 130.85 0
      vertex 13.4341 130.888 0
    endloop
  endfacet
  facet normal 0 0 -1
    outer loop
      vertex 29.5 42.85 0
      vertex 12.5659 130.888 0
      vertex 13 130.85 0
    endloop
  endfacet
  facet normal 0 0 -1
    outer loop
      vertex 29.5 42.85 0
      vertex 12.1449 131.001 0
      vertex 12.5659 130.888 0
    endloop
  endfacet
  facet normal 0 0 -1
    outer loop
      vertex 29.5 42.85 0
      vertex 11.75 131.185 0
      vertex 12.1449 131.001 0
    endloop
  endfacet
  facet normal 0 0 -1
    outer loop
      vertex 29.5 42.85 0
      vertex 11.393 131.435 0
      vertex 11.75 131.185 0
    endloop
  endfacet
  facet normal 0 0 -1
    outer loop
      vertex 29.5 42.85 0
      vertex 11.0849 131.743 0
      vertex 11.393 131.435 0
    endloop
  endfacet
  facet normal 0 0 -1
    outer loop
      vertex 0 0 0
      vertex 11.0849 131.743 0
      vertex 29.5 42.85 0
    endloop
  endfacet
  facet normal -0 0 -1
    outer loop
      vertex 11.0849 131.743 0
      vertex 0 0 0
      vertex 10.8349 132.1 0
    endloop
  endfacet
  facet normal -0 0 -1
    outer loop
      vertex 10.8349 132.1 0
      vertex 0 0 0
      vertex 10.6508 132.495 0
    endloop
  endfacet
  facet normal -0 0 -1
    outer loop
      vertex 10.538 132.916 0
      vertex 0 0 0
      vertex 10.5 133.35 0
    endloop
  endfacet
  facet normal -0 0 -1
    outer loop
      vertex 10.6508 132.495 0
      vertex 0 0 0
      vertex 10.538 132.916 0
    endloop
  endfacet
  facet normal 0 0 -1
    outer loop
      vertex 0 0 0
      vertex 29.5 42.85 0
      vertex 120 0 0
    endloop
  endfacet
  facet normal 0 0 -1
    outer loop
      vertex 109.462 133.784 0
      vertex 120 266.7 0
      vertex 109.5 133.35 0
    endloop
  endfacet
  facet normal 0 0 -1
    outer loop
      vertex 109.349 134.205 0
      vertex 120 266.7 0
      vertex 109.462 133.784 0
    endloop
  endfacet
  facet normal 0 0 -1
    outer loop
      vertex 109.165 134.6 0
      vertex 120 266.7 0
      vertex 109.349 134.205 0
    endloop
  endfacet
  facet normal 0 0 -1
    outer loop
      vertex 108.915 134.957 0
      vertex 120 266.7 0
      vertex 109.165 134.6 0
    endloop
  endfacet
  facet normal 0 0 -1
    outer loop
      vertex 90.5 223.85 0
      vertex 108.915 134.957 0
      vertex 108.607 135.265 0
    endloop
  endfacet
  facet normal 0 0 -1
    outer loop
      vertex 90.5 223.85 0
      vertex 108.607 135.265 0
      vertex 108.25 135.515 0
    endloop
  endfacet
  facet normal 0 0 -1
    outer loop
      vertex 90.5 223.85 0
      vertex 108.25 135.515 0
      vertex 107.855 135.699 0
    endloop
  endfacet
  facet normal 0 0 -1
    outer loop
      vertex 90.5 223.85 0
      vertex 107.855 135.699 0
      vertex 107.434 135.812 0
    endloop
  endfacet
  facet normal 0 0 -1
    outer loop
      vertex 90.5 223.85 0
      vertex 107.434 135.812 0
      vertex 107 135.85 0
    endloop
  endfacet
  facet normal 0 0 -1
    outer loop
      vertex 90.5 223.85 0
      vertex 107 135.85 0
      vertex 106.566 135.812 0
    endloop
  endfacet
  facet normal 0 0 -1
    outer loop
      vertex 90.5 223.85 0
      vertex 106.566 135.812 0
      vertex 106.145 135.699 0
    endloop
  endfacet
  facet normal 0 0 -1
    outer loop
      vertex 90.5 223.85 0
      vertex 106.145 135.699 0
      vertex 105.75 135.515 0
    endloop
  endfacet
  facet normal 0 0 -1
    outer loop
      vertex 90.5 223.85 0
      vertex 105.75 135.515 0
      vertex 105.393 135.265 0
    endloop
  endfacet
  facet normal 0 0 -1
    outer loop
      vertex 90.5 223.85 0
      vertex 105.393 135.265 0
      vertex 105.085 134.957 0
    endloop
  endfacet
  facet normal 0 0 -1
    outer loop
      vertex 90.5 223.85 0
      vertex 105.085 134.957 0
      vertex 104.835 134.6 0
    endloop
  endfacet
  facet normal 0 0 -1
    outer loop
      vertex 90.5 223.85 0
      vertex 104.835 134.6 0
      vertex 104.651 134.205 0
    endloop
  endfacet
  facet normal 0 0 -1
    outer loop
      vertex 90.5 223.85 0
      vertex 104.651 134.205 0
      vertex 104.538 133.784 0
    endloop
  endfacet
  facet normal 0 0 -1
    outer loop
      vertex 90.5 223.85 0
      vertex 104.5 133.35 0
      vertex 90.5 42.85 0
    endloop
  endfacet
  facet normal 0 0 -1
    outer loop
      vertex 104.5 133.35 0
      vertex 90.5 223.85 0
      vertex 104.538 133.784 0
    endloop
  endfacet
  facet normal 0 0 -1
    outer loop
      vertex 108.915 134.957 0
      vertex 90.5 223.85 0
      vertex 120 266.7 0
    endloop
  endfacet
  facet normal 0 0 -1
    outer loop
      vertex 29.5 223.85 0
      vertex 120 266.7 0
      vertex 90.5 223.85 0
    endloop
  endfacet
  facet normal 0 0 -1
    outer loop
      vertex 15.462 133.784 0
      vertex 29.5 223.85 0
      vertex 15.5 133.35 0
    endloop
  endfacet
  facet normal 0 0 -1
    outer loop
      vertex 15.3492 134.205 0
      vertex 29.5 223.85 0
      vertex 15.462 133.784 0
    endloop
  endfacet
  facet normal 0 0 -1
    outer loop
      vertex 15.1651 134.6 0
      vertex 29.5 223.85 0
      vertex 15.3492 134.205 0
    endloop
  endfacet
  facet normal 0 0 -1
    outer loop
      vertex 14.9151 134.957 0
      vertex 29.5 223.85 0
      vertex 15.1651 134.6 0
    endloop
  endfacet
  facet normal 0 0 -1
    outer loop
      vertex 14.607 135.265 0
      vertex 29.5 223.85 0
      vertex 14.9151 134.957 0
    endloop
  endfacet
  facet normal 0 0 -1
    outer loop
      vertex 14.25 135.515 0
      vertex 29.5 223.85 0
      vertex 14.607 135.265 0
    endloop
  endfacet
  facet normal 0 0 -1
    outer loop
      vertex 13.8551 135.699 0
      vertex 29.5 223.85 0
      vertex 14.25 135.515 0
    endloop
  endfacet
  facet normal 0 0 -1
    outer loop
      vertex 13.4341 135.812 0
      vertex 29.5 223.85 0
      vertex 13.8551 135.699 0
    endloop
  endfacet
  facet normal 0 0 -1
    outer loop
      vertex 13 135.85 0
      vertex 29.5 223.85 0
      vertex 13.4341 135.812 0
    endloop
  endfacet
  facet normal 0 0 -1
    outer loop
      vertex 12.5659 135.812 0
      vertex 29.5 223.85 0
      vertex 13 135.85 0
    endloop
  endfacet
  facet normal 0 0 -1
    outer loop
      vertex 12.1449 135.699 0
      vertex 29.5 223.85 0
      vertex 12.5659 135.812 0
    endloop
  endfacet
  facet normal 0 0 -1
    outer loop
      vertex 11.75 135.515 0
      vertex 29.5 223.85 0
      vertex 12.1449 135.699 0
    endloop
  endfacet
  facet normal 0 0 -1
    outer loop
      vertex 11.393 135.265 0
      vertex 29.5 223.85 0
      vertex 11.75 135.515 0
    endloop
  endfacet
  facet normal 0 0 -1
    outer loop
      vertex 11.0849 134.957 0
      vertex 29.5 223.85 0
      vertex 11.393 135.265 0
    endloop
  endfacet
  facet normal 0 0 -1
    outer loop
      vertex 0 266.7 0
      vertex 11.0849 134.957 0
      vertex 10.8349 134.6 0
    endloop
  endfacet
  facet normal 0 0 -1
    outer loop
      vertex 0 266.7 0
      vertex 10.8349 134.6 0
      vertex 10.6508 134.205 0
    endloop
  endfacet
  facet normal 0 0 -1
    outer loop
      vertex 0 266.7 0
      vertex 10.6508 134.205 0
      vertex 10.538 133.784 0
    endloop
  endfacet
  facet normal 0 0 -1
    outer loop
      vertex 29.5 223.85 0
      vertex 0 266.7 0
      vertex 120 266.7 0
    endloop
  endfacet
  facet normal 0 0 -1
    outer loop
      vertex 11.0849 134.957 0
      vertex 0 266.7 0
      vertex 29.5 223.85 0
    endloop
  endfacet
  facet normal 0 0 -1
    outer loop
      vertex 10.5 133.35 0
      vertex 0 266.7 0
      vertex 10.538 133.784 0
    endloop
  endfacet
  facet normal 0 0 -1
    outer loop
      vertex 0 266.7 0
      vertex 10.5 133.35 0
      vertex 0 0 0
    endloop
  endfacet
  facet normal -1 0 0
    outer loop
      vertex 0 0 0
      vertex 0 266.7 3
      vertex 0 266.7 0
    endloop
  endfacet
  facet normal -1 -0 0
    outer loop
      vertex 0 266.7 3
      vertex 0 0 0
      vertex 0 0 3
    endloop
  endfacet
  facet normal 0 1 -0
    outer loop
      vertex 120 266.7 0
      vertex 0 266.7 3
      vertex 120 266.7 3
    endloop
  endfacet
  facet normal 0 1 0
    outer loop
      vertex 0 266.7 3
      vertex 120 266.7 0
      vertex 0 266.7 0
    endloop
  endfacet
  facet normal 0 -1 0
    outer loop
      vertex 0 0 0
      vertex 120 0 3
      vertex 0 0 3
    endloop
  endfacet
  facet normal 0 -1 -0
    outer loop
      vertex 120 0 3
      vertex 0 0 0
      vertex 120 0 0
    endloop
  endfacet
  facet normal 1 -0 0
    outer loop
      vertex 93.5 39.85 30
      vertex 93.5 226.85 3
      vertex 93.5 226.85 30
    endloop
  endfacet
  facet normal 1 0 0
    outer loop
      vertex 93.5 226.85 3
      vertex 93.5 39.85 30
      vertex 93.5 39.85 3
    endloop
  endfacet
  facet normal 0 0 1
    outer loop
      vertex 93.5 226.85 30
      vertex 90.5 223.85 30
      vertex 93.5 39.85 30
    endloop
  endfacet
  facet normal 0 0 1
    outer loop
      vertex 93.5 226.85 30
      vertex 29.5 223.85 30
      vertex 90.5 223.85 30
    endloop
  endfacet
  facet normal 0 0 1
    outer loop
      vertex 29.5 223.85 30
      vertex 26.5 226.85 30
      vertex 29.5 42.85 30
    endloop
  endfacet
  facet normal -0 0 1
    outer loop
      vertex 26.5 226.85 30
      vertex 29.5 223.85 30
      vertex 93.5 226.85 30
    endloop
  endfacet
  facet normal -0 0 1
    outer loop
      vertex 90.5 42.85 30
      vertex 93.5 39.85 30
      vertex 90.5 223.85 30
    endloop
  endfacet
  facet normal -0 0 1
    outer loop
      vertex 29.5 42.85 30
      vertex 93.5 39.85 30
      vertex 90.5 42.85 30
    endloop
  endfacet
  facet normal 0 0 1
    outer loop
      vertex 29.5 42.85 30
      vertex 26.5 39.85 30
      vertex 93.5 39.85 30
    endloop
  endfacet
  facet normal 0 0 1
    outer loop
      vertex 26.5 39.85 30
      vertex 29.5 42.85 30
      vertex 26.5 226.85 30
    endloop
  endfacet
  facet normal -1 0 0
    outer loop
      vertex 26.5 39.85 3
      vertex 26.5 226.85 30
      vertex 26.5 226.85 3
    endloop
  endfacet
  facet normal -1 -0 0
    outer loop
      vertex 26.5 226.85 30
      vertex 26.5 39.85 3
      vertex 26.5 39.85 30
    endloop
  endfacet
  facet normal 0 1 -0
    outer loop
      vertex 93.5 226.85 3
      vertex 26.5 226.85 30
      vertex 93.5 226.85 30
    endloop
  endfacet
  facet normal 0 1 0
    outer loop
      vertex 26.5 226.85 30
      vertex 93.5 226.85 3
      vertex 26.5 226.85 3
    endloop
  endfacet
  facet normal 0 -1 0
    outer loop
      vertex 26.5 39.85 3
      vertex 93.5 39.85 30
      vertex 26.5 39.85 30
    endloop
  endfacet
  facet normal 0 -1 -0
    outer loop
      vertex 93.5 39.85 30
      vertex 26.5 39.85 3
      vertex 93.5 39.85 3
    endloop
  endfacet
  facet normal -1 0 0
    outer loop
      vertex 90.5 42.85 0
      vertex 90.5 223.85 30
      vertex 90.5 223.85 0
    endloop
  endfacet
  facet normal -1 -0 0
    outer loop
      vertex 90.5 223.85 30
      vertex 90.5 42.85 0
      vertex 90.5 42.85 30
    endloop
  endfacet
  facet normal 1 -0 0
    outer loop
      vertex 29.5 42.85 30
      vertex 29.5 223.85 0
      vertex 29.5 223.85 30
    endloop
  endfacet
  facet normal 1 0 0
    outer loop
      vertex 29.5 223.85 0
      vertex 29.5 42.85 30
      vertex 29.5 42.85 0
    endloop
  endfacet
  facet normal 0 -1 0
    outer loop
      vertex 29.5 223.85 0
      vertex 90.5 223.85 30
      vertex 29.5 223.85 30
    endloop
  endfacet
  facet normal 0 -1 -0
    outer loop
      vertex 90.5 223.85 30
      vertex 29.5 223.85 0
      vertex 90.5 223.85 0
    endloop
  endfacet
  facet normal 0 1 -0
    outer loop
      vertex 90.5 42.85 0
      vertex 29.5 42.85 30
      vertex 90.5 42.85 30
    endloop
  endfacet
  facet normal 0 1 0
    outer loop
      vertex 29.5 42.85 30
      vertex 90.5 42.85 0
      vertex 29.5 42.85 0
    endloop
  endfacet
  facet normal 0.087204 0.99619 -0
    outer loop
      vertex 13 130.85 0
      vertex 12.5659 130.888 3
      vertex 13 130.85 3
    endloop
  endfacet
  facet normal 0.087204 0.99619 0
    outer loop
      vertex 12.5659 130.888 3
      vertex 13 130.85 0
      vertex 12.5659 130.888 0
    endloop
  endfacet
  facet normal 0.259233 -0.965815 0
    outer loop
      vertex 12.1449 135.699 0
      vertex 12.5659 135.812 3
      vertex 12.1449 135.699 3
    endloop
  endfacet
  facet normal 0.259233 -0.965815 0
    outer loop
      vertex 12.5659 135.812 3
      vertex 12.1449 135.699 0
      vertex 12.5659 135.812 0
    endloop
  endfacet
  facet normal -0.96593 -0.258805 0
    outer loop
      vertex 15.462 133.784 0
      vertex 15.3492 134.205 3
      vertex 15.3492 134.205 0
    endloop
  endfacet
  facet normal -0.96593 -0.258805 0
    outer loop
      vertex 15.3492 134.205 3
      vertex 15.462 133.784 0
      vertex 15.462 133.784 3
    endloop
  endfacet
  facet normal -0.996189 -0.0872239 0
    outer loop
      vertex 15.5 133.35 0
      vertex 15.462 133.784 3
      vertex 15.462 133.784 0
    endloop
  endfacet
  facet normal -0.996189 -0.0872239 0
    outer loop
      vertex 15.462 133.784 3
      vertex 15.5 133.35 0
      vertex 15.5 133.35 3
    endloop
  endfacet
  facet normal -0.906388 -0.422446 0
    outer loop
      vertex 15.3492 134.205 0
      vertex 15.1651 134.6 3
      vertex 15.1651 134.6 0
    endloop
  endfacet
  facet normal -0.906388 -0.422446 0
    outer loop
      vertex 15.1651 134.6 3
      vertex 15.3492 134.205 0
      vertex 15.3492 134.205 3
    endloop
  endfacet
  facet normal 0.422345 0.906435 -0
    outer loop
      vertex 12.1449 131.001 0
      vertex 11.75 131.185 3
      vertex 12.1449 131.001 3
    endloop
  endfacet
  facet normal 0.422345 0.906435 0
    outer loop
      vertex 11.75 131.185 3
      vertex 12.1449 131.001 0
      vertex 11.75 131.185 0
    endloop
  endfacet
  facet normal -0.996189 0.0872239 0
    outer loop
      vertex 15.462 132.916 0
      vertex 15.5 133.35 3
      vertex 15.5 133.35 0
    endloop
  endfacet
  facet normal -0.996189 0.0872239 0
    outer loop
      vertex 15.5 133.35 3
      vertex 15.462 132.916 0
      vertex 15.462 132.916 3
    endloop
  endfacet
  facet normal -0.259233 0.965815 0
    outer loop
      vertex 13.8551 131.001 0
      vertex 13.4341 130.888 3
      vertex 13.8551 131.001 3
    endloop
  endfacet
  facet normal -0.259233 0.965815 0
    outer loop
      vertex 13.4341 130.888 3
      vertex 13.8551 131.001 0
      vertex 13.4341 130.888 0
    endloop
  endfacet
  facet normal -0.819124 -0.573616 0
    outer loop
      vertex 15.1651 134.6 0
      vertex 14.9151 134.957 3
      vertex 14.9151 134.957 0
    endloop
  endfacet
  facet normal -0.819124 -0.573616 0
    outer loop
      vertex 14.9151 134.957 3
      vertex 15.1651 134.6 0
      vertex 15.1651 134.6 3
    endloop
  endfacet
  facet normal -0.573616 0.819124 0
    outer loop
      vertex 14.607 131.435 0
      vertex 14.25 131.185 3
      vertex 14.607 131.435 3
    endloop
  endfacet
  facet normal -0.573616 0.819124 0
    outer loop
      vertex 14.25 131.185 3
      vertex 14.607 131.435 0
      vertex 14.25 131.185 0
    endloop
  endfacet
  facet normal 0.819124 -0.573616 0
    outer loop
      vertex 10.8349 134.6 3
      vertex 11.0849 134.957 0
      vertex 11.0849 134.957 3
    endloop
  endfacet
  facet normal 0.819124 -0.573616 0
    outer loop
      vertex 11.0849 134.957 0
      vertex 10.8349 134.6 3
      vertex 10.8349 134.6 0
    endloop
  endfacet
  facet normal 0.819124 0.573616 0
    outer loop
      vertex 11.0849 131.743 3
      vertex 10.8349 132.1 0
      vertex 10.8349 132.1 3
    endloop
  endfacet
  facet normal 0.819124 0.573616 0
    outer loop
      vertex 10.8349 132.1 0
      vertex 11.0849 131.743 3
      vertex 11.0849 131.743 0
    endloop
  endfacet
  facet normal -0.259233 -0.965815 0
    outer loop
      vertex 13.4341 135.812 0
      vertex 13.8551 135.699 3
      vertex 13.4341 135.812 3
    endloop
  endfacet
  facet normal -0.259233 -0.965815 -0
    outer loop
      vertex 13.8551 135.699 3
      vertex 13.4341 135.812 0
      vertex 13.8551 135.699 0
    endloop
  endfacet
  facet normal 0.422345 -0.906435 0
    outer loop
      vertex 11.75 135.515 0
      vertex 12.1449 135.699 3
      vertex 11.75 135.515 3
    endloop
  endfacet
  facet normal 0.422345 -0.906435 0
    outer loop
      vertex 12.1449 135.699 3
      vertex 11.75 135.515 0
      vertex 12.1449 135.699 0
    endloop
  endfacet
  facet normal 0.996189 0.0872239 0
    outer loop
      vertex 10.538 132.916 3
      vertex 10.5 133.35 0
      vertex 10.5 133.35 3
    endloop
  endfacet
  facet normal 0.996189 0.0872239 0
    outer loop
      vertex 10.5 133.35 0
      vertex 10.538 132.916 3
      vertex 10.538 132.916 0
    endloop
  endfacet
  facet normal 0.573616 0.819124 -0
    outer loop
      vertex 11.75 131.185 0
      vertex 11.393 131.435 3
      vertex 11.75 131.185 3
    endloop
  endfacet
  facet normal 0.573616 0.819124 0
    outer loop
      vertex 11.393 131.435 3
      vertex 11.75 131.185 0
      vertex 11.393 131.435 0
    endloop
  endfacet
  facet normal -0.96593 0.258805 0
    outer loop
      vertex 15.3492 132.495 0
      vertex 15.462 132.916 3
      vertex 15.462 132.916 0
    endloop
  endfacet
  facet normal -0.96593 0.258805 0
    outer loop
      vertex 15.462 132.916 3
      vertex 15.3492 132.495 0
      vertex 15.3492 132.495 3
    endloop
  endfacet
  facet normal 0.706992 -0.707222 0
    outer loop
      vertex 11.0849 134.957 0
      vertex 11.393 135.265 3
      vertex 11.0849 134.957 3
    endloop
  endfacet
  facet normal 0.706992 -0.707222 0
    outer loop
      vertex 11.393 135.265 3
      vertex 11.0849 134.957 0
      vertex 11.393 135.265 0
    endloop
  endfacet
  facet normal 0.087204 -0.99619 0
    outer loop
      vertex 12.5659 135.812 0
      vertex 13 135.85 3
      vertex 12.5659 135.812 3
    endloop
  endfacet
  facet normal 0.087204 -0.99619 0
    outer loop
      vertex 13 135.85 3
      vertex 12.5659 135.812 0
      vertex 13 135.85 0
    endloop
  endfacet
  facet normal -0.422345 0.906435 0
    outer loop
      vertex 14.25 131.185 0
      vertex 13.8551 131.001 3
      vertex 14.25 131.185 3
    endloop
  endfacet
  facet normal -0.422345 0.906435 0
    outer loop
      vertex 13.8551 131.001 3
      vertex 14.25 131.185 0
      vertex 13.8551 131.001 0
    endloop
  endfacet
  facet normal 0.706992 0.707222 -0
    outer loop
      vertex 11.393 131.435 0
      vertex 11.0849 131.743 3
      vertex 11.393 131.435 3
    endloop
  endfacet
  facet normal 0.706992 0.707222 0
    outer loop
      vertex 11.0849 131.743 3
      vertex 11.393 131.435 0
      vertex 11.0849 131.743 0
    endloop
  endfacet
  facet normal 0.259233 0.965815 -0
    outer loop
      vertex 12.5659 130.888 0
      vertex 12.1449 131.001 3
      vertex 12.5659 130.888 3
    endloop
  endfacet
  facet normal 0.259233 0.965815 0
    outer loop
      vertex 12.1449 131.001 3
      vertex 12.5659 130.888 0
      vertex 12.1449 131.001 0
    endloop
  endfacet
  facet normal -0.819124 0.573616 0
    outer loop
      vertex 14.9151 131.743 0
      vertex 15.1651 132.1 3
      vertex 15.1651 132.1 0
    endloop
  endfacet
  facet normal -0.819124 0.573616 0
    outer loop
      vertex 15.1651 132.1 3
      vertex 14.9151 131.743 0
      vertex 14.9151 131.743 3
    endloop
  endfacet
  facet normal -0.706992 -0.707222 0
    outer loop
      vertex 14.607 135.265 0
      vertex 14.9151 134.957 3
      vertex 14.607 135.265 3
    endloop
  endfacet
  facet normal -0.706992 -0.707222 -0
    outer loop
      vertex 14.9151 134.957 3
      vertex 14.607 135.265 0
      vertex 14.9151 134.957 0
    endloop
  endfacet
  facet normal 0.96593 0.258805 0
    outer loop
      vertex 10.6508 132.495 3
      vertex 10.538 132.916 0
      vertex 10.538 132.916 3
    endloop
  endfacet
  facet normal 0.96593 0.258805 0
    outer loop
      vertex 10.538 132.916 0
      vertex 10.6508 132.495 3
      vertex 10.6508 132.495 0
    endloop
  endfacet
  facet normal -0.573616 -0.819124 0
    outer loop
      vertex 14.25 135.515 0
      vertex 14.607 135.265 3
      vertex 14.25 135.515 3
    endloop
  endfacet
  facet normal -0.573616 -0.819124 -0
    outer loop
      vertex 14.607 135.265 3
      vertex 14.25 135.515 0
      vertex 14.607 135.265 0
    endloop
  endfacet
  facet normal -0.087204 0.99619 0
    outer loop
      vertex 13.4341 130.888 0
      vertex 13 130.85 3
      vertex 13.4341 130.888 3
    endloop
  endfacet
  facet normal -0.087204 0.99619 0
    outer loop
      vertex 13 130.85 3
      vertex 13.4341 130.888 0
      vertex 13 130.85 0
    endloop
  endfacet
  facet normal -0.906388 0.422446 0
    outer loop
      vertex 15.1651 132.1 0
      vertex 15.3492 132.495 3
      vertex 15.3492 132.495 0
    endloop
  endfacet
  facet normal -0.906388 0.422446 0
    outer loop
      vertex 15.3492 132.495 3
      vertex 15.1651 132.1 0
      vertex 15.1651 132.1 3
    endloop
  endfacet
  facet normal -0.087204 -0.99619 0
    outer loop
      vertex 13 135.85 0
      vertex 13.4341 135.812 3
      vertex 13 135.85 3
    endloop
  endfacet
  facet normal -0.087204 -0.99619 -0
    outer loop
      vertex 13.4341 135.812 3
      vertex 13 135.85 0
      vertex 13.4341 135.812 0
    endloop
  endfacet
  facet normal 0.573616 -0.819124 0
    outer loop
      vertex 11.393 135.265 0
      vertex 11.75 135.515 3
      vertex 11.393 135.265 3
    endloop
  endfacet
  facet normal 0.573616 -0.819124 0
    outer loop
      vertex 11.75 135.515 3
      vertex 11.393 135.265 0
      vertex 11.75 135.515 0
    endloop
  endfacet
  facet normal -0.422345 -0.906435 0
    outer loop
      vertex 13.8551 135.699 0
      vertex 14.25 135.515 3
      vertex 13.8551 135.699 3
    endloop
  endfacet
  facet normal -0.422345 -0.906435 -0
    outer loop
      vertex 14.25 135.515 3
      vertex 13.8551 135.699 0
      vertex 14.25 135.515 0
    endloop
  endfacet
  facet normal 0.996189 -0.0872239 0
    outer loop
      vertex 10.5 133.35 3
      vertex 10.538 133.784 0
      vertex 10.538 133.784 3
    endloop
  endfacet
  facet normal 0.996189 -0.0872239 0
    outer loop
      vertex 10.538 133.784 0
      vertex 10.5 133.35 3
      vertex 10.5 133.35 0
    endloop
  endfacet
  facet normal -0.706992 0.707222 0
    outer loop
      vertex 14.9151 131.743 0
      vertex 14.607 131.435 3
      vertex 14.9151 131.743 3
    endloop
  endfacet
  facet normal -0.706992 0.707222 0
    outer loop
      vertex 14.607 131.435 3
      vertex 14.9151 131.743 0
      vertex 14.607 131.435 0
    endloop
  endfacet
  facet normal 0.906388 0.422446 0
    outer loop
      vertex 10.8349 132.1 3
      vertex 10.6508 132.495 0
      vertex 10.6508 132.495 3
    endloop
  endfacet
  facet normal 0.906388 0.422446 0
    outer loop
      vertex 10.6508 132.495 0
      vertex 10.8349 132.1 3
      vertex 10.8349 132.1 0
    endloop
  endfacet
  facet normal 0.906388 -0.422446 0
    outer loop
      vertex 10.6508 134.205 3
      vertex 10.8349 134.6 0
      vertex 10.8349 134.6 3
    endloop
  endfacet
  facet normal 0.906388 -0.422446 0
    outer loop
      vertex 10.8349 134.6 0
      vertex 10.6508 134.205 3
      vertex 10.6508 134.205 0
    endloop
  endfacet
  facet normal 0.96593 -0.258805 0
    outer loop
      vertex 10.538 133.784 3
      vertex 10.6508 134.205 0
      vertex 10.6508 134.205 3
    endloop
  endfacet
  facet normal 0.96593 -0.258805 0
    outer loop
      vertex 10.6508 134.205 0
      vertex 10.538 133.784 3
      vertex 10.538 133.784 0
    endloop
  endfacet
  facet normal 0.0872239 0.996189 -0
    outer loop
      vertex 107 130.85 0
      vertex 106.566 130.888 3
      vertex 107 130.85 3
    endloop
  endfacet
  facet normal 0.0872239 0.996189 0
    outer loop
      vertex 106.566 130.888 3
      vertex 107 130.85 0
      vertex 106.566 130.888 0
    endloop
  endfacet
  facet normal 0.259233 -0.965815 0
    outer loop
      vertex 106.145 135.699 0
      vertex 106.566 135.812 3
      vertex 106.145 135.699 3
    endloop
  endfacet
  facet normal 0.259233 -0.965815 0
    outer loop
      vertex 106.566 135.812 3
      vertex 106.145 135.699 0
      vertex 106.566 135.812 0
    endloop
  endfacet
  facet normal -0.965815 -0.259233 0
    outer loop
      vertex 109.462 133.784 0
      vertex 109.349 134.205 3
      vertex 109.349 134.205 0
    endloop
  endfacet
  facet normal -0.965815 -0.259233 0
    outer loop
      vertex 109.349 134.205 3
      vertex 109.462 133.784 0
      vertex 109.462 133.784 3
    endloop
  endfacet
  facet normal -0.996189 -0.0872239 0
    outer loop
      vertex 109.5 133.35 0
      vertex 109.462 133.784 3
      vertex 109.462 133.784 0
    endloop
  endfacet
  facet normal -0.996189 -0.0872239 0
    outer loop
      vertex 109.462 133.784 3
      vertex 109.5 133.35 0
      vertex 109.5 133.35 3
    endloop
  endfacet
  facet normal -0.906476 -0.422257 0
    outer loop
      vertex 109.349 134.205 0
      vertex 109.165 134.6 3
      vertex 109.165 134.6 0
    endloop
  endfacet
  facet normal -0.906476 -0.422257 0
    outer loop
      vertex 109.165 134.6 3
      vertex 109.349 134.205 0
      vertex 109.349 134.205 3
    endloop
  endfacet
  facet normal 0.422257 0.906476 -0
    outer loop
      vertex 106.145 131.001 0
      vertex 105.75 131.185 3
      vertex 106.145 131.001 3
    endloop
  endfacet
  facet normal 0.422257 0.906476 0
    outer loop
      vertex 105.75 131.185 3
      vertex 106.145 131.001 0
      vertex 105.75 131.185 0
    endloop
  endfacet
  facet normal -0.996189 0.0872239 0
    outer loop
      vertex 109.462 132.916 0
      vertex 109.5 133.35 3
      vertex 109.5 133.35 0
    endloop
  endfacet
  facet normal -0.996189 0.0872239 0
    outer loop
      vertex 109.5 133.35 3
      vertex 109.462 132.916 0
      vertex 109.462 132.916 3
    endloop
  endfacet
  facet normal -0.259233 0.965815 0
    outer loop
      vertex 107.855 131.001 0
      vertex 107.434 130.888 3
      vertex 107.855 131.001 3
    endloop
  endfacet
  facet normal -0.259233 0.965815 0
    outer loop
      vertex 107.434 130.888 3
      vertex 107.855 131.001 0
      vertex 107.434 130.888 0
    endloop
  endfacet
  facet normal -0.819124 -0.573616 0
    outer loop
      vertex 109.165 134.6 0
      vertex 108.915 134.957 3
      vertex 108.915 134.957 0
    endloop
  endfacet
  facet normal -0.819124 -0.573616 0
    outer loop
      vertex 108.915 134.957 3
      vertex 109.165 134.6 0
      vertex 109.165 134.6 3
    endloop
  endfacet
  facet normal -0.573616 0.819124 0
    outer loop
      vertex 108.607 131.435 0
      vertex 108.25 131.185 3
      vertex 108.607 131.435 3
    endloop
  endfacet
  facet normal -0.573616 0.819124 0
    outer loop
      vertex 108.25 131.185 3
      vertex 108.607 131.435 0
      vertex 108.25 131.185 0
    endloop
  endfacet
  facet normal 0.819124 -0.573616 0
    outer loop
      vertex 104.835 134.6 3
      vertex 105.085 134.957 0
      vertex 105.085 134.957 3
    endloop
  endfacet
  facet normal 0.819124 -0.573616 0
    outer loop
      vertex 105.085 134.957 0
      vertex 104.835 134.6 3
      vertex 104.835 134.6 0
    endloop
  endfacet
  facet normal 0.819124 0.573616 0
    outer loop
      vertex 105.085 131.743 3
      vertex 104.835 132.1 0
      vertex 104.835 132.1 3
    endloop
  endfacet
  facet normal 0.819124 0.573616 0
    outer loop
      vertex 104.835 132.1 0
      vertex 105.085 131.743 3
      vertex 105.085 131.743 0
    endloop
  endfacet
  facet normal -0.259233 -0.965815 0
    outer loop
      vertex 107.434 135.812 0
      vertex 107.855 135.699 3
      vertex 107.434 135.812 3
    endloop
  endfacet
  facet normal -0.259233 -0.965815 -0
    outer loop
      vertex 107.855 135.699 3
      vertex 107.434 135.812 0
      vertex 107.855 135.699 0
    endloop
  endfacet
  facet normal 0.422257 -0.906476 0
    outer loop
      vertex 105.75 135.515 0
      vertex 106.145 135.699 3
      vertex 105.75 135.515 3
    endloop
  endfacet
  facet normal 0.422257 -0.906476 0
    outer loop
      vertex 106.145 135.699 3
      vertex 105.75 135.515 0
      vertex 106.145 135.699 0
    endloop
  endfacet
  facet normal 0.996189 0.0872239 0
    outer loop
      vertex 104.538 132.916 3
      vertex 104.5 133.35 0
      vertex 104.5 133.35 3
    endloop
  endfacet
  facet normal 0.996189 0.0872239 0
    outer loop
      vertex 104.5 133.35 0
      vertex 104.538 132.916 3
      vertex 104.538 132.916 0
    endloop
  endfacet
  facet normal 0.573616 0.819124 -0
    outer loop
      vertex 105.75 131.185 0
      vertex 105.393 131.435 3
      vertex 105.75 131.185 3
    endloop
  endfacet
  facet normal 0.573616 0.819124 0
    outer loop
      vertex 105.393 131.435 3
      vertex 105.75 131.185 0
      vertex 105.393 131.435 0
    endloop
  endfacet
  facet normal -0.422257 -0.906476 0
    outer loop
      vertex 107.855 135.699 0
      vertex 108.25 135.515 3
      vertex 107.855 135.699 3
    endloop
  endfacet
  facet normal -0.422257 -0.906476 -0
    outer loop
      vertex 108.25 135.515 3
      vertex 107.855 135.699 0
      vertex 108.25 135.515 0
    endloop
  endfacet
  facet normal -0.965815 0.259233 0
    outer loop
      vertex 109.349 132.495 0
      vertex 109.462 132.916 3
      vertex 109.462 132.916 0
    endloop
  endfacet
  facet normal -0.965815 0.259233 0
    outer loop
      vertex 109.462 132.916 3
      vertex 109.349 132.495 0
      vertex 109.349 132.495 3
    endloop
  endfacet
  facet normal 0.707107 -0.707107 0
    outer loop
      vertex 105.085 134.957 0
      vertex 105.393 135.265 3
      vertex 105.085 134.957 3
    endloop
  endfacet
  facet normal 0.707107 -0.707107 0
    outer loop
      vertex 105.393 135.265 3
      vertex 105.085 134.957 0
      vertex 105.393 135.265 0
    endloop
  endfacet
  facet normal 0.0872239 -0.996189 0
    outer loop
      vertex 106.566 135.812 0
      vertex 107 135.85 3
      vertex 106.566 135.812 3
    endloop
  endfacet
  facet normal 0.0872239 -0.996189 0
    outer loop
      vertex 107 135.85 3
      vertex 106.566 135.812 0
      vertex 107 135.85 0
    endloop
  endfacet
  facet normal -0.422257 0.906476 0
    outer loop
      vertex 108.25 131.185 0
      vertex 107.855 131.001 3
      vertex 108.25 131.185 3
    endloop
  endfacet
  facet normal -0.422257 0.906476 0
    outer loop
      vertex 107.855 131.001 3
      vertex 108.25 131.185 0
      vertex 107.855 131.001 0
    endloop
  endfacet
  facet normal 0.707107 0.707107 -0
    outer loop
      vertex 105.393 131.435 0
      vertex 105.085 131.743 3
      vertex 105.393 131.435 3
    endloop
  endfacet
  facet normal 0.707107 0.707107 0
    outer loop
      vertex 105.085 131.743 3
      vertex 105.393 131.435 0
      vertex 105.085 131.743 0
    endloop
  endfacet
  facet normal 0.259233 0.965815 -0
    outer loop
      vertex 106.566 130.888 0
      vertex 106.145 131.001 3
      vertex 106.566 130.888 3
    endloop
  endfacet
  facet normal 0.259233 0.965815 0
    outer loop
      vertex 106.145 131.001 3
      vertex 106.566 130.888 0
      vertex 106.145 131.001 0
    endloop
  endfacet
  facet normal -0.819124 0.573616 0
    outer loop
      vertex 108.915 131.743 0
      vertex 109.165 132.1 3
      vertex 109.165 132.1 0
    endloop
  endfacet
  facet normal -0.819124 0.573616 0
    outer loop
      vertex 109.165 132.1 3
      vertex 108.915 131.743 0
      vertex 108.915 131.743 3
    endloop
  endfacet
  facet normal -0.707107 -0.707107 0
    outer loop
      vertex 108.915 134.957 0
      vertex 108.607 135.265 3
      vertex 108.607 135.265 0
    endloop
  endfacet
  facet normal -0.707107 -0.707107 0
    outer loop
      vertex 108.607 135.265 3
      vertex 108.915 134.957 0
      vertex 108.915 134.957 3
    endloop
  endfacet
  facet normal 0.965815 0.259233 0
    outer loop
      vertex 104.651 132.495 3
      vertex 104.538 132.916 0
      vertex 104.538 132.916 3
    endloop
  endfacet
  facet normal 0.965815 0.259233 0
    outer loop
      vertex 104.538 132.916 0
      vertex 104.651 132.495 3
      vertex 104.651 132.495 0
    endloop
  endfacet
  facet normal -0.573616 -0.819124 0
    outer loop
      vertex 108.25 135.515 0
      vertex 108.607 135.265 3
      vertex 108.25 135.515 3
    endloop
  endfacet
  facet normal -0.573616 -0.819124 -0
    outer loop
      vertex 108.607 135.265 3
      vertex 108.25 135.515 0
      vertex 108.607 135.265 0
    endloop
  endfacet
  facet normal -0.0872239 0.996189 0
    outer loop
      vertex 107.434 130.888 0
      vertex 107 130.85 3
      vertex 107.434 130.888 3
    endloop
  endfacet
  facet normal -0.0872239 0.996189 0
    outer loop
      vertex 107 130.85 3
      vertex 107.434 130.888 0
      vertex 107 130.85 0
    endloop
  endfacet
  facet normal -0.906476 0.422257 0
    outer loop
      vertex 109.165 132.1 0
      vertex 109.349 132.495 3
      vertex 109.349 132.495 0
    endloop
  endfacet
  facet normal -0.906476 0.422257 0
    outer loop
      vertex 109.349 132.495 3
      vertex 109.165 132.1 0
      vertex 109.165 132.1 3
    endloop
  endfacet
  facet normal -0.0872239 -0.996189 0
    outer loop
      vertex 107 135.85 0
      vertex 107.434 135.812 3
      vertex 107 135.85 3
    endloop
  endfacet
  facet normal -0.0872239 -0.996189 -0
    outer loop
      vertex 107.434 135.812 3
      vertex 107 135.85 0
      vertex 107.434 135.812 0
    endloop
  endfacet
  facet normal 0.906476 -0.422257 0
    outer loop
      vertex 104.651 134.205 3
      vertex 104.835 134.6 0
      vertex 104.835 134.6 3
    endloop
  endfacet
  facet normal 0.906476 -0.422257 0
    outer loop
      vertex 104.835 134.6 0
      vertex 104.651 134.205 3
      vertex 104.651 134.205 0
    endloop
  endfacet
  facet normal 0.573616 -0.819124 0
    outer loop
      vertex 105.393 135.265 0
      vertex 105.75 135.515 3
      vertex 105.393 135.265 3
    endloop
  endfacet
  facet normal 0.573616 -0.819124 0
    outer loop
      vertex 105.75 135.515 3
      vertex 105.393 135.265 0
      vertex 105.75 135.515 0
    endloop
  endfacet
  facet normal 0.996189 -0.0872239 0
    outer loop
      vertex 104.5 133.35 3
      vertex 104.538 133.784 0
      vertex 104.538 133.784 3
    endloop
  endfacet
  facet normal 0.996189 -0.0872239 0
    outer loop
      vertex 104.538 133.784 0
      vertex 104.5 133.35 3
      vertex 104.5 133.35 0
    endloop
  endfacet
  facet normal -0.707107 0.707107 0
    outer loop
      vertex 108.607 131.435 0
      vertex 108.915 131.743 3
      vertex 108.915 131.743 0
    endloop
  endfacet
  facet normal -0.707107 0.707107 0
    outer loop
      vertex 108.915 131.743 3
      vertex 108.607 131.435 0
      vertex 108.607 131.435 3
    endloop
  endfacet
  facet normal 0.906476 0.422257 0
    outer loop
      vertex 104.835 132.1 3
      vertex 104.651 132.495 0
      vertex 104.651 132.495 3
    endloop
  endfacet
  facet normal 0.906476 0.422257 0
    outer loop
      vertex 104.651 132.495 0
      vertex 104.835 132.1 3
      vertex 104.835 132.1 0
    endloop
  endfacet
  facet normal 0.965815 -0.259233 0
    outer loop
      vertex 104.538 133.784 3
      vertex 104.651 134.205 0
      vertex 104.651 134.205 3
    endloop
  endfacet
  facet normal 0.965815 -0.259233 0
    outer loop
      vertex 104.651 134.205 0
      vertex 104.538 133.784 3
      vertex 104.538 133.784 0
    endloop
  endfacet
endsolid OpenSCAD_Model
