solid OpenSCAD_Model
  facet normal -0 0 1
    outer loop
      vertex -42.5 -47.5 2.5
      vertex 42.5 -47.8291 2.5
      vertex 42.5 -47.5 2.5
    endloop
  endfacet
  facet normal 0 0 1
    outer loop
      vertex 42.5 -47.8291 2.5
      vertex -42.5 -47.5 2.5
      vertex -42.5 -47.8291 2.5
    endloop
  endfacet
  facet normal -0 0 1
    outer loop
      vertex -42.5 47.8291 2.5
      vertex 42.5 47.5 2.5
      vertex 42.5 47.8291 2.5
    endloop
  endfacet
  facet normal 0 0 1
    outer loop
      vertex 42.5 47.5 2.5
      vertex -42.5 47.8291 2.5
      vertex -42.5 47.5 2.5
    endloop
  endfacet
  facet normal -0 0.500046 0.865999
    outer loop
      vertex -42.5 49.035 2.0005
      vertex 42.5 48.465 2.32963
      vertex 42.5 49.035 2.0005
    endloop
  endfacet
  facet normal 0 0.500046 0.865999
    outer loop
      vertex 42.5 48.465 2.32963
      vertex -42.5 49.035 2.0005
      vertex -42.5 48.465 2.32963
    endloop
  endfacet
  facet normal 0 0.866047 0.499962
    outer loop
      vertex 42.5 49.8296 0.964964
      vertex -42.5 49.5005 1.53504
      vertex 42.5 49.5005 1.53504
    endloop
  endfacet
  facet normal 0 0.866047 0.499962
    outer loop
      vertex -42.5 49.5005 1.53504
      vertex 42.5 49.8296 0.964964
      vertex -42.5 49.8296 0.964964
    endloop
  endfacet
  facet normal 0 1 -0
    outer loop
      vertex 42.5 50 -0.329131
      vertex -42.5 50 0.329131
      vertex 42.5 50 0.329131
    endloop
  endfacet
  facet normal 0 1 0
    outer loop
      vertex -42.5 50 0.329131
      vertex 42.5 50 -0.329131
      vertex -42.5 50 -0.329131
    endloop
  endfacet
  facet normal 0 0.965915 0.25886
    outer loop
      vertex 42.5 50 0.329131
      vertex -42.5 49.8296 0.964964
      vertex 42.5 49.8296 0.964964
    endloop
  endfacet
  facet normal 0 0.965915 0.25886
    outer loop
      vertex -42.5 49.8296 0.964964
      vertex 42.5 50 0.329131
      vertex -42.5 50 0.329131
    endloop
  endfacet
  facet normal 0 0.707076 0.707137
    outer loop
      vertex 42.5 49.5005 1.53504
      vertex -42.5 49.035 2.0005
      vertex 42.5 49.035 2.0005
    endloop
  endfacet
  facet normal 0 0.707076 0.707137
    outer loop
      vertex -42.5 49.035 2.0005
      vertex 42.5 49.5005 1.53504
      vertex -42.5 49.5005 1.53504
    endloop
  endfacet
  facet normal -0 0.258792 0.965933
    outer loop
      vertex -42.5 48.465 2.32963
      vertex 42.5 47.8291 2.5
      vertex 42.5 48.465 2.32963
    endloop
  endfacet
  facet normal 0 0.258792 0.965933
    outer loop
      vertex 42.5 47.8291 2.5
      vertex -42.5 48.465 2.32963
      vertex -42.5 47.8291 2.5
    endloop
  endfacet
  facet normal 0 -0.258792 0.965933
    outer loop
      vertex -42.5 -47.8291 2.5
      vertex 42.5 -48.465 2.32963
      vertex 42.5 -47.8291 2.5
    endloop
  endfacet
  facet normal 0 -0.258792 0.965933
    outer loop
      vertex 42.5 -48.465 2.32963
      vertex -42.5 -47.8291 2.5
      vertex -42.5 -48.465 2.32963
    endloop
  endfacet
  facet normal 0 -0.965915 0.25886
    outer loop
      vertex -42.5 -50 0.329131
      vertex 42.5 -49.8296 0.964964
      vertex -42.5 -49.8296 0.964964
    endloop
  endfacet
  facet normal 0 -0.965915 0.25886
    outer loop
      vertex 42.5 -49.8296 0.964964
      vertex -42.5 -50 0.329131
      vertex 42.5 -50 0.329131
    endloop
  endfacet
  facet normal 0 -1 0
    outer loop
      vertex -42.5 -50 -0.329131
      vertex 42.5 -50 0.329131
      vertex -42.5 -50 0.329131
    endloop
  endfacet
  facet normal 0 -1 -0
    outer loop
      vertex 42.5 -50 0.329131
      vertex -42.5 -50 -0.329131
      vertex 42.5 -50 -0.329131
    endloop
  endfacet
  facet normal 0 -0.500046 0.865999
    outer loop
      vertex -42.5 -48.465 2.32963
      vertex 42.5 -49.035 2.0005
      vertex 42.5 -48.465 2.32963
    endloop
  endfacet
  facet normal 0 -0.500046 0.865999
    outer loop
      vertex 42.5 -49.035 2.0005
      vertex -42.5 -48.465 2.32963
      vertex -42.5 -49.035 2.0005
    endloop
  endfacet
  facet normal 0 -0.707076 0.707137
    outer loop
      vertex -42.5 -49.5005 1.53504
      vertex 42.5 -49.035 2.0005
      vertex -42.5 -49.035 2.0005
    endloop
  endfacet
  facet normal 0 -0.707076 0.707137
    outer loop
      vertex 42.5 -49.035 2.0005
      vertex -42.5 -49.5005 1.53504
      vertex 42.5 -49.5005 1.53504
    endloop
  endfacet
  facet normal 0 -0.866047 0.499962
    outer loop
      vertex -42.5 -49.8296 0.964964
      vertex 42.5 -49.5005 1.53504
      vertex -42.5 -49.5005 1.53504
    endloop
  endfacet
  facet normal 0 -0.866047 0.499962
    outer loop
      vertex 42.5 -49.5005 1.53504
      vertex -42.5 -49.8296 0.964964
      vertex 42.5 -49.8296 0.964964
    endloop
  endfacet
  facet normal 0 -0.866047 -0.499962
    outer loop
      vertex -42.5 -49.5005 -1.53504
      vertex 42.5 -49.8296 -0.964964
      vertex -42.5 -49.8296 -0.964964
    endloop
  endfacet
  facet normal 0 -0.866047 -0.499962
    outer loop
      vertex 42.5 -49.8296 -0.964964
      vertex -42.5 -49.5005 -1.53504
      vertex 42.5 -49.5005 -1.53504
    endloop
  endfacet
  facet normal 0 0 -1
    outer loop
      vertex 34.7906 -1.5 -2.5
      vertex 42.5 -47.8291 -2.5
      vertex 34.7906 -32.5 -2.5
    endloop
  endfacet
  facet normal 0 0 -1
    outer loop
      vertex 42.5 -47.8291 -2.5
      vertex 34.5147 -33.8872 -2.5
      vertex 34.7906 -32.5 -2.5
    endloop
  endfacet
  facet normal 0 0 -1
    outer loop
      vertex 42.5 -47.8291 -2.5
      vertex 34.426 -34.3333 -2.5
      vertex 34.5147 -33.8872 -2.5
    endloop
  endfacet
  facet normal 0 0 -1
    outer loop
      vertex 42.5 -47.8291 -2.5
      vertex 33.6402 -35.5093 -2.5
      vertex 34.426 -34.3333 -2.5
    endloop
  endfacet
  facet normal 0 0 -1
    outer loop
      vertex 42.5 -47.8291 -2.5
      vertex 33.3875 -35.8875 -2.5
      vertex 33.6402 -35.5093 -2.5
    endloop
  endfacet
  facet normal 0 0 -1
    outer loop
      vertex 42.5 -47.8291 -2.5
      vertex 33.0093 -36.1402 -2.5
      vertex 33.3875 -35.8875 -2.5
    endloop
  endfacet
  facet normal 0 0 -1
    outer loop
      vertex 42.5 -47.8291 -2.5
      vertex 31.8333 -36.926 -2.5
      vertex 33.0093 -36.1402 -2.5
    endloop
  endfacet
  facet normal 0 0 -1
    outer loop
      vertex 42.5 -47.8291 -2.5
      vertex 31.3872 -37.0147 -2.5
      vertex 31.8333 -36.926 -2.5
    endloop
  endfacet
  facet normal 0 0 -1
    outer loop
      vertex 42.5 -47.8291 -2.5
      vertex 30 -37.2906 -2.5
      vertex 31.3872 -37.0147 -2.5
    endloop
  endfacet
  facet normal 0 0 -1
    outer loop
      vertex 42.5 -47.8291 -2.5
      vertex -30 -37.2906 -2.5
      vertex 30 -37.2906 -2.5
    endloop
  endfacet
  facet normal 0 0 -1
    outer loop
      vertex -42.5 -47.8291 -2.5
      vertex -31.3872 -37.0147 -2.5
      vertex -30 -37.2906 -2.5
    endloop
  endfacet
  facet normal 0 0 -1
    outer loop
      vertex -42.5 -47.8291 -2.5
      vertex -34.5147 -33.8872 -2.5
      vertex -34.426 -34.3333 -2.5
    endloop
  endfacet
  facet normal -0 0 -1
    outer loop
      vertex -34.7906 -32.5 -2.5
      vertex -42.5 -47.8291 -2.5
      vertex -34.7906 -1.5 -2.5
    endloop
  endfacet
  facet normal -0 0 -1
    outer loop
      vertex -34.5147 -33.8872 -2.5
      vertex -42.5 -47.8291 -2.5
      vertex -34.7906 -32.5 -2.5
    endloop
  endfacet
  facet normal -0 0 -1
    outer loop
      vertex -33.6402 -35.5093 -2.5
      vertex -42.5 -47.8291 -2.5
      vertex -34.426 -34.3333 -2.5
    endloop
  endfacet
  facet normal -0 0 -1
    outer loop
      vertex -33.3875 -35.8875 -2.5
      vertex -42.5 -47.8291 -2.5
      vertex -33.6402 -35.5093 -2.5
    endloop
  endfacet
  facet normal -0 0 -1
    outer loop
      vertex -33.0093 -36.1402 -2.5
      vertex -42.5 -47.8291 -2.5
      vertex -33.3875 -35.8875 -2.5
    endloop
  endfacet
  facet normal -0 0 -1
    outer loop
      vertex -31.8333 -36.926 -2.5
      vertex -42.5 -47.8291 -2.5
      vertex -33.0093 -36.1402 -2.5
    endloop
  endfacet
  facet normal -0 0 -1
    outer loop
      vertex -31.3872 -37.0147 -2.5
      vertex -42.5 -47.8291 -2.5
      vertex -31.8333 -36.926 -2.5
    endloop
  endfacet
  facet normal 0 0 -1
    outer loop
      vertex -42.5 -47.8291 -2.5
      vertex -30 -37.2906 -2.5
      vertex 42.5 -47.8291 -2.5
    endloop
  endfacet
  facet normal 0 0 -1
    outer loop
      vertex 42.5 -47.8291 -2.5
      vertex 34.7906 -1.5 -2.5
      vertex 42.5 47.8291 -2.5
    endloop
  endfacet
  facet normal 0 0 -1
    outer loop
      vertex 34.5147 -0.112844 -2.5
      vertex 42.5 47.8291 -2.5
      vertex 34.7906 -1.5 -2.5
    endloop
  endfacet
  facet normal 0 0 -1
    outer loop
      vertex 34.426 0.333298 -2.5
      vertex 42.5 47.8291 -2.5
      vertex 34.5147 -0.112844 -2.5
    endloop
  endfacet
  facet normal 0 0 -1
    outer loop
      vertex 33.6402 1.50927 -2.5
      vertex 42.5 47.8291 -2.5
      vertex 34.426 0.333298 -2.5
    endloop
  endfacet
  facet normal 0 0 -1
    outer loop
      vertex 33.3875 1.88749 -2.5
      vertex 42.5 47.8291 -2.5
      vertex 33.6402 1.50927 -2.5
    endloop
  endfacet
  facet normal 0 0 -1
    outer loop
      vertex 33.0093 2.14021 -2.5
      vertex 42.5 47.8291 -2.5
      vertex 33.3875 1.88749 -2.5
    endloop
  endfacet
  facet normal 0 0 -1
    outer loop
      vertex 31.8333 2.92597 -2.5
      vertex 42.5 47.8291 -2.5
      vertex 33.0093 2.14021 -2.5
    endloop
  endfacet
  facet normal 0 0 -1
    outer loop
      vertex 31.3872 3.01472 -2.5
      vertex 42.5 47.8291 -2.5
      vertex 31.8333 2.92597 -2.5
    endloop
  endfacet
  facet normal 0 0 -1
    outer loop
      vertex 30 3.29064 -2.5
      vertex 42.5 47.8291 -2.5
      vertex 31.3872 3.01472 -2.5
    endloop
  endfacet
  facet normal 0 0 -1
    outer loop
      vertex -30 3.29064 -2.5
      vertex 42.5 47.8291 -2.5
      vertex 30 3.29064 -2.5
    endloop
  endfacet
  facet normal 0 0 -1
    outer loop
      vertex -42.5 47.8291 -2.5
      vertex -30 3.29064 -2.5
      vertex -31.3872 3.01472 -2.5
    endloop
  endfacet
  facet normal 0 0 -1
    outer loop
      vertex -42.5 47.8291 -2.5
      vertex -31.3872 3.01472 -2.5
      vertex -31.8333 2.92597 -2.5
    endloop
  endfacet
  facet normal 0 0 -1
    outer loop
      vertex -42.5 47.8291 -2.5
      vertex -33.6402 1.50927 -2.5
      vertex -34.426 0.333298 -2.5
    endloop
  endfacet
  facet normal 0 0 -1
    outer loop
      vertex -42.5 47.8291 -2.5
      vertex -34.5147 -0.112844 -2.5
      vertex -34.7906 -1.5 -2.5
    endloop
  endfacet
  facet normal 0 0 -1
    outer loop
      vertex -30 3.29064 -2.5
      vertex -42.5 47.8291 -2.5
      vertex 42.5 47.8291 -2.5
    endloop
  endfacet
  facet normal 0 0 -1
    outer loop
      vertex -33.0093 2.14021 -2.5
      vertex -42.5 47.8291 -2.5
      vertex -31.8333 2.92597 -2.5
    endloop
  endfacet
  facet normal 0 0 -1
    outer loop
      vertex -33.3875 1.88749 -2.5
      vertex -42.5 47.8291 -2.5
      vertex -33.0093 2.14021 -2.5
    endloop
  endfacet
  facet normal 0 0 -1
    outer loop
      vertex -33.6402 1.50927 -2.5
      vertex -42.5 47.8291 -2.5
      vertex -33.3875 1.88749 -2.5
    endloop
  endfacet
  facet normal 0 0 -1
    outer loop
      vertex -34.5147 -0.112844 -2.5
      vertex -42.5 47.8291 -2.5
      vertex -34.426 0.333298 -2.5
    endloop
  endfacet
  facet normal 0 0 -1
    outer loop
      vertex -42.5 47.8291 -2.5
      vertex -34.7906 -1.5 -2.5
      vertex -42.5 -47.8291 -2.5
    endloop
  endfacet
  facet normal 0 -0.258792 -0.965933
    outer loop
      vertex -42.5 -48.465 -2.32963
      vertex 42.5 -47.8291 -2.5
      vertex 42.5 -48.465 -2.32963
    endloop
  endfacet
  facet normal -0 -0.258792 -0.965933
    outer loop
      vertex 42.5 -47.8291 -2.5
      vertex -42.5 -48.465 -2.32963
      vertex -42.5 -47.8291 -2.5
    endloop
  endfacet
  facet normal 0 -0.965915 -0.25886
    outer loop
      vertex -42.5 -49.8296 -0.964964
      vertex 42.5 -50 -0.329131
      vertex -42.5 -50 -0.329131
    endloop
  endfacet
  facet normal 0 -0.965915 -0.25886
    outer loop
      vertex 42.5 -50 -0.329131
      vertex -42.5 -49.8296 -0.964964
      vertex 42.5 -49.8296 -0.964964
    endloop
  endfacet
  facet normal 0 -0.500046 -0.865999
    outer loop
      vertex -42.5 -49.035 -2.0005
      vertex 42.5 -48.465 -2.32963
      vertex 42.5 -49.035 -2.0005
    endloop
  endfacet
  facet normal -0 -0.500046 -0.865999
    outer loop
      vertex 42.5 -48.465 -2.32963
      vertex -42.5 -49.035 -2.0005
      vertex -42.5 -48.465 -2.32963
    endloop
  endfacet
  facet normal 0 -0.707076 -0.707137
    outer loop
      vertex -42.5 -49.035 -2.0005
      vertex 42.5 -49.5005 -1.53504
      vertex -42.5 -49.5005 -1.53504
    endloop
  endfacet
  facet normal 0 -0.707076 -0.707137
    outer loop
      vertex 42.5 -49.5005 -1.53504
      vertex -42.5 -49.035 -2.0005
      vertex 42.5 -49.035 -2.0005
    endloop
  endfacet
  facet normal 0 0.258792 -0.965933
    outer loop
      vertex -42.5 47.8291 -2.5
      vertex 42.5 48.465 -2.32963
      vertex 42.5 47.8291 -2.5
    endloop
  endfacet
  facet normal 0 0.258792 -0.965933
    outer loop
      vertex 42.5 48.465 -2.32963
      vertex -42.5 47.8291 -2.5
      vertex -42.5 48.465 -2.32963
    endloop
  endfacet
  facet normal 0 0.500046 -0.865999
    outer loop
      vertex -42.5 48.465 -2.32963
      vertex 42.5 49.035 -2.0005
      vertex 42.5 48.465 -2.32963
    endloop
  endfacet
  facet normal 0 0.500046 -0.865999
    outer loop
      vertex 42.5 49.035 -2.0005
      vertex -42.5 48.465 -2.32963
      vertex -42.5 49.035 -2.0005
    endloop
  endfacet
  facet normal 0 0.866047 -0.499962
    outer loop
      vertex 42.5 49.5005 -1.53504
      vertex -42.5 49.8296 -0.964964
      vertex 42.5 49.8296 -0.964964
    endloop
  endfacet
  facet normal 0 0.866047 -0.499962
    outer loop
      vertex -42.5 49.8296 -0.964964
      vertex 42.5 49.5005 -1.53504
      vertex -42.5 49.5005 -1.53504
    endloop
  endfacet
  facet normal 0 0.965915 -0.25886
    outer loop
      vertex 42.5 49.8296 -0.964964
      vertex -42.5 50 -0.329131
      vertex 42.5 50 -0.329131
    endloop
  endfacet
  facet normal 0 0.965915 -0.25886
    outer loop
      vertex -42.5 50 -0.329131
      vertex 42.5 49.8296 -0.964964
      vertex -42.5 49.8296 -0.964964
    endloop
  endfacet
  facet normal 0 0.707076 -0.707137
    outer loop
      vertex 42.5 49.035 -2.0005
      vertex -42.5 49.5005 -1.53504
      vertex 42.5 49.5005 -1.53504
    endloop
  endfacet
  facet normal 0 0.707076 -0.707137
    outer loop
      vertex -42.5 49.5005 -1.53504
      vertex 42.5 49.035 -2.0005
      vertex -42.5 49.035 -2.0005
    endloop
  endfacet
  facet normal 1 0 0
    outer loop
      vertex 42.5 -47.5 2.5
      vertex 42.5 -47.8291 2.5
      vertex 42.5 -47.5 0
    endloop
  endfacet
  facet normal 1 0 0
    outer loop
      vertex 42.5 47.5 0
      vertex 42.5 50 0.329131
      vertex 42.5 49.8296 0.964964
    endloop
  endfacet
  facet normal 1 0 0
    outer loop
      vertex 42.5 50 0.329131
      vertex 42.5 47.5 0
      vertex 42.5 50 -0.329131
    endloop
  endfacet
  facet normal 1 0 0
    outer loop
      vertex 42.5 47.5 0
      vertex 42.5 49.8296 0.964964
      vertex 42.5 49.5005 1.53504
    endloop
  endfacet
  facet normal 1 0 0
    outer loop
      vertex 42.5 50 -0.329131
      vertex 42.5 47.5 0
      vertex 42.5 49.8296 -0.964964
    endloop
  endfacet
  facet normal 1 0 0
    outer loop
      vertex 42.5 47.5 0
      vertex 42.5 49.5005 1.53504
      vertex 42.5 49.035 2.0005
    endloop
  endfacet
  facet normal 1 0 0
    outer loop
      vertex 42.5 49.8296 -0.964964
      vertex 42.5 47.5 0
      vertex 42.5 49.5005 -1.53504
    endloop
  endfacet
  facet normal 1 0 0
    outer loop
      vertex 42.5 47.5 0
      vertex 42.5 49.035 2.0005
      vertex 42.5 48.465 2.32963
    endloop
  endfacet
  facet normal 1 0 0
    outer loop
      vertex 42.5 49.5005 -1.53504
      vertex 42.5 47.5 0
      vertex 42.5 49.035 -2.0005
    endloop
  endfacet
  facet normal 1 0 0
    outer loop
      vertex 42.5 47.5 0
      vertex 42.5 48.465 2.32963
      vertex 42.5 47.8291 2.5
    endloop
  endfacet
  facet normal 1 0 0
    outer loop
      vertex 42.5 49.035 -2.0005
      vertex 42.5 47.5 0
      vertex 42.5 48.465 -2.32963
    endloop
  endfacet
  facet normal 1 0 0
    outer loop
      vertex 42.5 47.5 0
      vertex 42.5 47.8291 2.5
      vertex 42.5 47.5 2.5
    endloop
  endfacet
  facet normal 1 0 0
    outer loop
      vertex 42.5 48.465 -2.32963
      vertex 42.5 47.5 0
      vertex 42.5 47.8291 -2.5
    endloop
  endfacet
  facet normal 1 -0 0
    outer loop
      vertex 42.5 -47.5 0
      vertex 42.5 47.8291 -2.5
      vertex 42.5 47.5 0
    endloop
  endfacet
  facet normal 1 0 0
    outer loop
      vertex 42.5 -47.5 0
      vertex 42.5 -47.8291 -2.5
      vertex 42.5 47.8291 -2.5
    endloop
  endfacet
  facet normal 1 -0 0
    outer loop
      vertex 42.5 -48.465 2.32963
      vertex 42.5 -47.5 0
      vertex 42.5 -47.8291 2.5
    endloop
  endfacet
  facet normal 1 -0 0
    outer loop
      vertex 42.5 -49.035 2.0005
      vertex 42.5 -47.5 0
      vertex 42.5 -48.465 2.32963
    endloop
  endfacet
  facet normal 1 0 0
    outer loop
      vertex 42.5 -47.5 0
      vertex 42.5 -48.465 -2.32963
      vertex 42.5 -47.8291 -2.5
    endloop
  endfacet
  facet normal 1 -0 0
    outer loop
      vertex 42.5 -49.5005 1.53504
      vertex 42.5 -47.5 0
      vertex 42.5 -49.035 2.0005
    endloop
  endfacet
  facet normal 1 0 0
    outer loop
      vertex 42.5 -47.5 0
      vertex 42.5 -49.035 -2.0005
      vertex 42.5 -48.465 -2.32963
    endloop
  endfacet
  facet normal 1 -0 0
    outer loop
      vertex 42.5 -49.8296 0.964964
      vertex 42.5 -47.5 0
      vertex 42.5 -49.5005 1.53504
    endloop
  endfacet
  facet normal 1 0 0
    outer loop
      vertex 42.5 -47.5 0
      vertex 42.5 -49.5005 -1.53504
      vertex 42.5 -49.035 -2.0005
    endloop
  endfacet
  facet normal 1 -0 0
    outer loop
      vertex 42.5 -50 0.329131
      vertex 42.5 -47.5 0
      vertex 42.5 -49.8296 0.964964
    endloop
  endfacet
  facet normal 1 0 0
    outer loop
      vertex 42.5 -47.5 0
      vertex 42.5 -49.8296 -0.964964
      vertex 42.5 -49.5005 -1.53504
    endloop
  endfacet
  facet normal 1 0 0
    outer loop
      vertex 42.5 -50 -0.329131
      vertex 42.5 -47.5 0
      vertex 42.5 -50 0.329131
    endloop
  endfacet
  facet normal 1 0 0
    outer loop
      vertex 42.5 -47.5 0
      vertex 42.5 -50 -0.329131
      vertex 42.5 -49.8296 -0.964964
    endloop
  endfacet
  facet normal -1 0 0
    outer loop
      vertex -42.5 47.5 0
      vertex -42.5 50 -0.329131
      vertex -42.5 49.8296 -0.964964
    endloop
  endfacet
  facet normal -1 0 0
    outer loop
      vertex -42.5 50 -0.329131
      vertex -42.5 47.5 0
      vertex -42.5 50 0.329131
    endloop
  endfacet
  facet normal -1 0 0
    outer loop
      vertex -42.5 47.5 0
      vertex -42.5 49.8296 -0.964964
      vertex -42.5 49.5005 -1.53504
    endloop
  endfacet
  facet normal -1 -0 0
    outer loop
      vertex -42.5 50 0.329131
      vertex -42.5 47.5 0
      vertex -42.5 49.8296 0.964964
    endloop
  endfacet
  facet normal -1 0 0
    outer loop
      vertex -42.5 47.5 0
      vertex -42.5 49.5005 -1.53504
      vertex -42.5 49.035 -2.0005
    endloop
  endfacet
  facet normal -1 -0 0
    outer loop
      vertex -42.5 49.8296 0.964964
      vertex -42.5 47.5 0
      vertex -42.5 49.5005 1.53504
    endloop
  endfacet
  facet normal -1 0 0
    outer loop
      vertex -42.5 47.5 0
      vertex -42.5 49.035 -2.0005
      vertex -42.5 48.465 -2.32963
    endloop
  endfacet
  facet normal -1 -0 0
    outer loop
      vertex -42.5 49.5005 1.53504
      vertex -42.5 47.5 0
      vertex -42.5 49.035 2.0005
    endloop
  endfacet
  facet normal -1 0 0
    outer loop
      vertex -42.5 47.5 0
      vertex -42.5 48.465 -2.32963
      vertex -42.5 47.8291 -2.5
    endloop
  endfacet
  facet normal -1 -0 0
    outer loop
      vertex -42.5 49.035 2.0005
      vertex -42.5 47.5 0
      vertex -42.5 48.465 2.32963
    endloop
  endfacet
  facet normal -1 -0 0
    outer loop
      vertex -42.5 48.465 2.32963
      vertex -42.5 47.5 0
      vertex -42.5 47.8291 2.5
    endloop
  endfacet
  facet normal -1 0 0
    outer loop
      vertex -42.5 47.8291 -2.5
      vertex -42.5 -47.5 0
      vertex -42.5 47.5 0
    endloop
  endfacet
  facet normal -1 0 0
    outer loop
      vertex -42.5 -47.8291 -2.5
      vertex -42.5 -47.5 0
      vertex -42.5 47.8291 -2.5
    endloop
  endfacet
  facet normal -1 0 0
    outer loop
      vertex -42.5 -48.465 -2.32963
      vertex -42.5 -47.5 0
      vertex -42.5 -47.8291 -2.5
    endloop
  endfacet
  facet normal -1 0 0
    outer loop
      vertex -42.5 -49.035 -2.0005
      vertex -42.5 -47.5 0
      vertex -42.5 -48.465 -2.32963
    endloop
  endfacet
  facet normal -1 0 0
    outer loop
      vertex -42.5 -49.5005 -1.53504
      vertex -42.5 -47.5 0
      vertex -42.5 -49.035 -2.0005
    endloop
  endfacet
  facet normal -1 0 0
    outer loop
      vertex -42.5 -47.5 0
      vertex -42.5 -47.8291 2.5
      vertex -42.5 -47.5 2.5
    endloop
  endfacet
  facet normal -1 0 0
    outer loop
      vertex -42.5 -49.8296 -0.964964
      vertex -42.5 -47.5 0
      vertex -42.5 -49.5005 -1.53504
    endloop
  endfacet
  facet normal -1 0 -0
    outer loop
      vertex -42.5 -47.8291 2.5
      vertex -42.5 -47.5 0
      vertex -42.5 -48.465 2.32963
    endloop
  endfacet
  facet normal -1 0 -0
    outer loop
      vertex -42.5 -49.035 2.0005
      vertex -42.5 -47.5 0
      vertex -42.5 -49.5005 1.53504
    endloop
  endfacet
  facet normal -1 0 -0
    outer loop
      vertex -42.5 -48.465 2.32963
      vertex -42.5 -47.5 0
      vertex -42.5 -49.035 2.0005
    endloop
  endfacet
  facet normal -1 0 0
    outer loop
      vertex -42.5 -50 -0.329131
      vertex -42.5 -47.5 0
      vertex -42.5 -49.8296 -0.964964
    endloop
  endfacet
  facet normal -1 0 0
    outer loop
      vertex -42.5 -47.5 0
      vertex -42.5 -49.8296 0.964964
      vertex -42.5 -49.5005 1.53504
    endloop
  endfacet
  facet normal -1 0 0
    outer loop
      vertex -42.5 -50 0.329131
      vertex -42.5 -47.5 0
      vertex -42.5 -50 -0.329131
    endloop
  endfacet
  facet normal -1 0 0
    outer loop
      vertex -42.5 -47.5 0
      vertex -42.5 -50 0.329131
      vertex -42.5 -49.8296 0.964964
    endloop
  endfacet
  facet normal -1 -0 0
    outer loop
      vertex -42.5 47.8291 2.5
      vertex -42.5 47.5 0
      vertex -42.5 47.5 2.5
    endloop
  endfacet
  facet normal 0 0 1
    outer loop
      vertex -19.309 -40.5489 0
      vertex -18.191 -42.0878 0
      vertex -18.191 -40.9122 0
    endloop
  endfacet
  facet normal 0 0 1
    outer loop
      vertex -19.309 -40.5489 0
      vertex -19.309 -42.4511 0
      vertex -18.191 -42.0878 0
    endloop
  endfacet
  facet normal 0 -0 1
    outer loop
      vertex -19.309 -42.4511 0
      vertex -19.309 -40.5489 0
      vertex -20 -41.5 0
    endloop
  endfacet
  facet normal 0 0 1
    outer loop
      vertex 38.691 -40.5489 0
      vertex 39.809 -42.0878 0
      vertex 39.809 -40.9122 0
    endloop
  endfacet
  facet normal 0 0 1
    outer loop
      vertex 38.691 -40.5489 0
      vertex 38.691 -42.4511 0
      vertex 39.809 -42.0878 0
    endloop
  endfacet
  facet normal 0 -0 1
    outer loop
      vertex 38.691 -42.4511 0
      vertex 38.691 -40.5489 0
      vertex 38 -41.5 0
    endloop
  endfacet
  facet normal 0 0 1
    outer loop
      vertex -19.309 8.45106 0
      vertex -18.191 6.91222 0
      vertex -18.191 8.08778 0
    endloop
  endfacet
  facet normal 0 0 1
    outer loop
      vertex -19.309 8.45106 0
      vertex -19.309 6.54894 0
      vertex -18.191 6.91222 0
    endloop
  endfacet
  facet normal 0 -0 1
    outer loop
      vertex -19.309 6.54894 0
      vertex -19.309 8.45106 0
      vertex -20 7.5 0
    endloop
  endfacet
  facet normal 0 0 1
    outer loop
      vertex 38.691 8.45106 0
      vertex 39.809 6.91222 0
      vertex 39.809 8.08778 0
    endloop
  endfacet
  facet normal 0 0 1
    outer loop
      vertex 38.691 8.45106 0
      vertex 38.691 6.54894 0
      vertex 39.809 6.91222 0
    endloop
  endfacet
  facet normal 0 -0 1
    outer loop
      vertex 38.691 6.54894 0
      vertex 38.691 8.45106 0
      vertex 38 7.5 0
    endloop
  endfacet
  facet normal 0 0 1
    outer loop
      vertex 30 -37.5 0
      vertex -17.675 -39.205 0
      vertex -16.5098 -40.5936 0
    endloop
  endfacet
  facet normal 0 0 1
    outer loop
      vertex 30 -37.5 0
      vertex -19.4602 -38.8903 0
      vertex -17.675 -39.205 0
    endloop
  endfacet
  facet normal 0 0 1
    outer loop
      vertex -21.03 -39.7966 0
      vertex -30 -37.5 0
      vertex -21.65 -41.5 0
    endloop
  endfacet
  facet normal 0 0 1
    outer loop
      vertex -19.4602 -38.8903 0
      vertex -30 -37.5 0
      vertex -21.03 -39.7966 0
    endloop
  endfacet
  facet normal -0 0 1
    outer loop
      vertex -30 -37.5 0
      vertex -19.4602 -38.8903 0
      vertex 30 -37.5 0
    endloop
  endfacet
  facet normal -0 0 1
    outer loop
      vertex 40.325 5.20503 0
      vertex 41.4902 -40.5936 0
      vertex 41.4902 6.59365 0
    endloop
  endfacet
  facet normal 0 0 1
    outer loop
      vertex 40.325 5.20503 0
      vertex 40.325 -39.205 0
      vertex 41.4902 -40.5936 0
    endloop
  endfacet
  facet normal 0 0 1
    outer loop
      vertex 35 -1.5 0
      vertex 40.325 5.20503 0
      vertex 38.5398 4.89026 0
    endloop
  endfacet
  facet normal 0 0 1
    outer loop
      vertex 40.325 5.20503 0
      vertex 35 -1.5 0
      vertex 40.325 -39.205 0
    endloop
  endfacet
  facet normal 0 0 1
    outer loop
      vertex 33.5355 2.03553 0
      vertex 38.5398 4.89026 0
      vertex 36.97 5.79661 0
    endloop
  endfacet
  facet normal -0 0 1
    outer loop
      vertex 35 -32.5 0
      vertex 40.325 -39.205 0
      vertex 35 -1.5 0
    endloop
  endfacet
  facet normal 0 0 1
    outer loop
      vertex 31.9134 3.1194 0
      vertex 36.97 5.79661 0
      vertex 36.35 7.5 0
    endloop
  endfacet
  facet normal 0 0 1
    outer loop
      vertex 40.325 -39.205 0
      vertex 35 -32.5 0
      vertex 38.5398 -38.8903 0
    endloop
  endfacet
  facet normal 0 0 1
    outer loop
      vertex 42.5 47.5 0
      vertex 41.4902 8.40635 0
      vertex 42.5 -47.5 0
    endloop
  endfacet
  facet normal 0 0 1
    outer loop
      vertex 42.5 47.5 0
      vertex 40.325 9.79497 0
      vertex 41.4902 8.40635 0
    endloop
  endfacet
  facet normal 0 0 1
    outer loop
      vertex 42.5 47.5 0
      vertex 38.5398 10.1097 0
      vertex 40.325 9.79497 0
    endloop
  endfacet
  facet normal 0 0 1
    outer loop
      vertex 42.5 47.5 0
      vertex 36.97 9.20339 0
      vertex 38.5398 10.1097 0
    endloop
  endfacet
  facet normal 0 0 1
    outer loop
      vertex 30 3.5 0
      vertex 36.97 9.20339 0
      vertex 42.5 47.5 0
    endloop
  endfacet
  facet normal -0 0 1
    outer loop
      vertex 34.6194 -34.4134 0
      vertex 38.5398 -38.8903 0
      vertex 35 -32.5 0
    endloop
  endfacet
  facet normal 0 0 1
    outer loop
      vertex 38.5398 4.89026 0
      vertex 34.6194 0.413417 0
      vertex 35 -1.5 0
    endloop
  endfacet
  facet normal 0 0 1
    outer loop
      vertex 36.97 9.20339 0
      vertex 30 3.5 0
      vertex 36.35 7.5 0
    endloop
  endfacet
  facet normal 0 0 1
    outer loop
      vertex 38.5398 4.89026 0
      vertex 33.5355 2.03553 0
      vertex 34.6194 0.413417 0
    endloop
  endfacet
  facet normal 0 0 1
    outer loop
      vertex 36.97 5.79661 0
      vertex 31.9134 3.1194 0
      vertex 33.5355 2.03553 0
    endloop
  endfacet
  facet normal 0 0 1
    outer loop
      vertex 36.35 7.5 0
      vertex 30 3.5 0
      vertex 31.9134 3.1194 0
    endloop
  endfacet
  facet normal -0 0 1
    outer loop
      vertex -17.675 9.79497 0
      vertex 30 3.5 0
      vertex 42.5 47.5 0
    endloop
  endfacet
  facet normal 0 0 1
    outer loop
      vertex 30 3.5 0
      vertex -17.675 9.79497 0
      vertex -16.5098 8.40635 0
    endloop
  endfacet
  facet normal -0 0 1
    outer loop
      vertex -42.5 47.5 0
      vertex -17.675 9.79497 0
      vertex 42.5 47.5 0
    endloop
  endfacet
  facet normal 0 0 1
    outer loop
      vertex -17.675 9.79497 0
      vertex -42.5 47.5 0
      vertex -19.4602 10.1097 0
    endloop
  endfacet
  facet normal 0 0 1
    outer loop
      vertex -21.03 9.20339 0
      vertex -30 3.5 0
      vertex -21.65 7.5 0
    endloop
  endfacet
  facet normal 0 0 1
    outer loop
      vertex -21.03 9.20339 0
      vertex -31.9134 3.1194 0
      vertex -30 3.5 0
    endloop
  endfacet
  facet normal 0 0 1
    outer loop
      vertex -19.4602 10.1097 0
      vertex -42.5 47.5 0
      vertex -21.03 9.20339 0
    endloop
  endfacet
  facet normal 0 0 1
    outer loop
      vertex -42.5 -47.5 0
      vertex -35 -1.5 0
      vertex -42.5 47.5 0
    endloop
  endfacet
  facet normal 0 0 1
    outer loop
      vertex -34.6194 0.413417 0
      vertex -42.5 47.5 0
      vertex -35 -1.5 0
    endloop
  endfacet
  facet normal 0 0 1
    outer loop
      vertex -33.5355 2.03553 0
      vertex -42.5 47.5 0
      vertex -34.6194 0.413417 0
    endloop
  endfacet
  facet normal 0 0 1
    outer loop
      vertex -31.9134 3.1194 0
      vertex -42.5 47.5 0
      vertex -33.5355 2.03553 0
    endloop
  endfacet
  facet normal 0 0 1
    outer loop
      vertex -21.03 9.20339 0
      vertex -42.5 47.5 0
      vertex -31.9134 3.1194 0
    endloop
  endfacet
  facet normal -0 0 1
    outer loop
      vertex 41.4902 6.59365 0
      vertex 42.5 -47.5 0
      vertex 41.4902 8.40635 0
    endloop
  endfacet
  facet normal -0 0 1
    outer loop
      vertex 41.4902 -40.5936 0
      vertex 42.5 -47.5 0
      vertex 41.4902 6.59365 0
    endloop
  endfacet
  facet normal -0 0 1
    outer loop
      vertex 41.4902 -42.4064 0
      vertex 42.5 -47.5 0
      vertex 41.4902 -40.5936 0
    endloop
  endfacet
  facet normal -0 0 1
    outer loop
      vertex 40.325 -43.795 0
      vertex 42.5 -47.5 0
      vertex 41.4902 -42.4064 0
    endloop
  endfacet
  facet normal -0 0 1
    outer loop
      vertex 38.5398 -44.1097 0
      vertex 42.5 -47.5 0
      vertex 40.325 -43.795 0
    endloop
  endfacet
  facet normal 0 0 1
    outer loop
      vertex 36.97 -43.2034 0
      vertex 42.5 -47.5 0
      vertex 38.5398 -44.1097 0
    endloop
  endfacet
  facet normal -0 0 1
    outer loop
      vertex 33.5355 -36.0355 0
      vertex 38.5398 -38.8903 0
      vertex 34.6194 -34.4134 0
    endloop
  endfacet
  facet normal 0 0 1
    outer loop
      vertex 38.5398 -38.8903 0
      vertex 33.5355 -36.0355 0
      vertex 36.97 -39.7966 0
    endloop
  endfacet
  facet normal -0 0 1
    outer loop
      vertex 31.9134 -37.1194 0
      vertex 36.97 -39.7966 0
      vertex 33.5355 -36.0355 0
    endloop
  endfacet
  facet normal 0 0 1
    outer loop
      vertex 36.97 -39.7966 0
      vertex 31.9134 -37.1194 0
      vertex 36.35 -41.5 0
    endloop
  endfacet
  facet normal -0 0 1
    outer loop
      vertex 30 -37.5 0
      vertex 36.35 -41.5 0
      vertex 31.9134 -37.1194 0
    endloop
  endfacet
  facet normal 0 0 1
    outer loop
      vertex 36.35 -41.5 0
      vertex 30 -37.5 0
      vertex 36.97 -43.2034 0
    endloop
  endfacet
  facet normal 0 0 1
    outer loop
      vertex -16.5098 -42.4064 0
      vertex 30 -37.5 0
      vertex -16.5098 -40.5936 0
    endloop
  endfacet
  facet normal 0 0 1
    outer loop
      vertex -17.675 -43.795 0
      vertex 30 -37.5 0
      vertex -16.5098 -42.4064 0
    endloop
  endfacet
  facet normal 0 0 1
    outer loop
      vertex 30 -37.5 0
      vertex -17.675 -43.795 0
      vertex 36.97 -43.2034 0
    endloop
  endfacet
  facet normal 0 0 1
    outer loop
      vertex 36.97 -43.2034 0
      vertex -17.675 -43.795 0
      vertex 42.5 -47.5 0
    endloop
  endfacet
  facet normal -0 0 1
    outer loop
      vertex -19.4602 -44.1097 0
      vertex 42.5 -47.5 0
      vertex -17.675 -43.795 0
    endloop
  endfacet
  facet normal 0 0 1
    outer loop
      vertex -30 -37.5 0
      vertex -21.03 -43.2034 0
      vertex -21.65 -41.5 0
    endloop
  endfacet
  facet normal 0 0 1
    outer loop
      vertex -42.5 -47.5 0
      vertex -30 -37.5 0
      vertex -31.9134 -37.1194 0
    endloop
  endfacet
  facet normal 0 0 1
    outer loop
      vertex -30 -37.5 0
      vertex -42.5 -47.5 0
      vertex -21.03 -43.2034 0
    endloop
  endfacet
  facet normal 0 0 1
    outer loop
      vertex -19.4602 -44.1097 0
      vertex -42.5 -47.5 0
      vertex 42.5 -47.5 0
    endloop
  endfacet
  facet normal 0 0 1
    outer loop
      vertex -21.03 -43.2034 0
      vertex -42.5 -47.5 0
      vertex -19.4602 -44.1097 0
    endloop
  endfacet
  facet normal 0 0 1
    outer loop
      vertex -33.5355 -36.0355 0
      vertex -42.5 -47.5 0
      vertex -31.9134 -37.1194 0
    endloop
  endfacet
  facet normal 0 0 1
    outer loop
      vertex -34.6194 -34.4134 0
      vertex -42.5 -47.5 0
      vertex -33.5355 -36.0355 0
    endloop
  endfacet
  facet normal 0 0 1
    outer loop
      vertex -35 -32.5 0
      vertex -42.5 -47.5 0
      vertex -34.6194 -34.4134 0
    endloop
  endfacet
  facet normal 0 0 1
    outer loop
      vertex -35 -1.5 0
      vertex -42.5 -47.5 0
      vertex -35 -32.5 0
    endloop
  endfacet
  facet normal -0 0 1
    outer loop
      vertex -16.5098 6.59365 0
      vertex 30 3.5 0
      vertex -16.5098 8.40635 0
    endloop
  endfacet
  facet normal -0 0 1
    outer loop
      vertex -17.675 5.20503 0
      vertex 30 3.5 0
      vertex -16.5098 6.59365 0
    endloop
  endfacet
  facet normal -0 0 1
    outer loop
      vertex -19.4602 4.89026 0
      vertex 30 3.5 0
      vertex -17.675 5.20503 0
    endloop
  endfacet
  facet normal 0 0 1
    outer loop
      vertex -19.4602 4.89026 0
      vertex -30 3.5 0
      vertex 30 3.5 0
    endloop
  endfacet
  facet normal 0 0 1
    outer loop
      vertex -21.03 5.79661 0
      vertex -30 3.5 0
      vertex -19.4602 4.89026 0
    endloop
  endfacet
  facet normal 0 0 1
    outer loop
      vertex -30 3.5 0
      vertex -21.03 5.79661 0
      vertex -21.65 7.5 0
    endloop
  endfacet
  facet normal 0 -1 0
    outer loop
      vertex -42.5 47.5 0
      vertex 42.5 47.5 2.5
      vertex -42.5 47.5 2.5
    endloop
  endfacet
  facet normal 0 -1 -0
    outer loop
      vertex 42.5 47.5 2.5
      vertex -42.5 47.5 0
      vertex 42.5 47.5 0
    endloop
  endfacet
  facet normal 0 1 -0
    outer loop
      vertex 42.5 -47.5 0
      vertex -42.5 -47.5 2.5
      vertex 42.5 -47.5 2.5
    endloop
  endfacet
  facet normal 0 1 0
    outer loop
      vertex -42.5 -47.5 2.5
      vertex 42.5 -47.5 0
      vertex -42.5 -47.5 0
    endloop
  endfacet
  facet normal 0.83146 -0.555584 0
    outer loop
      vertex -34.6194 0.413417 0
      vertex -33.5355 2.03553 -1.99456
      vertex -33.5355 2.03553 0
    endloop
  endfacet
  facet normal 0.83146 -0.555584 0
    outer loop
      vertex -33.5355 2.03553 -1.99456
      vertex -34.6194 0.413417 0
      vertex -34.6194 0.413417 -1.99456
    endloop
  endfacet
  facet normal 0.980785 0.195091 0
    outer loop
      vertex -34.6194 -34.4134 0
      vertex -35 -32.5 -1.99456
      vertex -35 -32.5 0
    endloop
  endfacet
  facet normal 0.980785 0.195091 0
    outer loop
      vertex -35 -32.5 -1.99456
      vertex -34.6194 -34.4134 0
      vertex -34.6194 -34.4134 -1.99456
    endloop
  endfacet
  facet normal 0 1 -0
    outer loop
      vertex 30 -37.5 -1.99456
      vertex -30 -37.5 0
      vertex 30 -37.5 0
    endloop
  endfacet
  facet normal 0 1 0
    outer loop
      vertex -30 -37.5 0
      vertex 30 -37.5 -1.99456
      vertex -30 -37.5 -1.99456
    endloop
  endfacet
  facet normal 0.555576 -0.831465 0
    outer loop
      vertex -33.5355 2.03553 -1.99456
      vertex -31.9134 3.1194 0
      vertex -33.5355 2.03553 0
    endloop
  endfacet
  facet normal 0.555576 -0.831465 0
    outer loop
      vertex -31.9134 3.1194 0
      vertex -33.5355 2.03553 -1.99456
      vertex -31.9134 3.1194 -1.99456
    endloop
  endfacet
  facet normal -0.555587 0.831458 0
    outer loop
      vertex 33.5355 -36.0355 -1.99456
      vertex 31.9134 -37.1194 0
      vertex 33.5355 -36.0355 0
    endloop
  endfacet
  facet normal -0.555587 0.831458 0
    outer loop
      vertex 31.9134 -37.1194 0
      vertex 33.5355 -36.0355 -1.99456
      vertex 31.9134 -37.1194 -1.99456
    endloop
  endfacet
  facet normal 0.180774 -0.908655 0.376387
    outer loop
      vertex -31.8333 2.92597 -2.5
      vertex -31.3872 3.01472 -2.5
      vertex -31.9134 3.1194 -1.99456
    endloop
  endfacet
  facet normal 0.555587 0.831458 -0
    outer loop
      vertex -31.9134 -37.1194 -1.99456
      vertex -33.5355 -36.0355 0
      vertex -31.9134 -37.1194 0
    endloop
  endfacet
  facet normal 0.555587 0.831458 0
    outer loop
      vertex -33.5355 -36.0355 0
      vertex -31.9134 -37.1194 -1.99456
      vertex -33.5355 -36.0355 -1.99456
    endloop
  endfacet
  facet normal -1 0 0
    outer loop
      vertex 35 -32.5 -1.99456
      vertex 35 -1.5 0
      vertex 35 -1.5 -1.99456
    endloop
  endfacet
  facet normal -1 -0 0
    outer loop
      vertex 35 -1.5 0
      vertex 35 -32.5 -1.99456
      vertex 35 -32.5 0
    endloop
  endfacet
  facet normal -0.908697 -0.180663 0.376339
    outer loop
      vertex 34.5147 -0.112844 -2.5
      vertex 34.6194 0.413417 -1.99456
      vertex 34.426 0.333298 -2.5
    endloop
  endfacet
  facet normal 0.18072 0.908642 0.376444
    outer loop
      vertex -31.3872 -37.0147 -2.5
      vertex -30 -37.5 -1.99456
      vertex -30 -37.2906 -2.5
    endloop
  endfacet
  facet normal 0.180744 0.908658 0.376393
    outer loop
      vertex -30 -37.5 -1.99456
      vertex -31.3872 -37.0147 -2.5
      vertex -31.9134 -37.1194 -1.99456
    endloop
  endfacet
  facet normal 0 0.923854 0.382746
    outer loop
      vertex 30 -37.2906 -2.5
      vertex -30 -37.5 -1.99456
      vertex 30 -37.5 -1.99456
    endloop
  endfacet
  facet normal 0 0.923854 0.382746
    outer loop
      vertex -30 -37.5 -1.99456
      vertex 30 -37.2906 -2.5
      vertex -30 -37.2906 -2.5
    endloop
  endfacet
  facet normal 0.831458 0.555587 0
    outer loop
      vertex -33.5355 -36.0355 0
      vertex -34.6194 -34.4134 -1.99456
      vertex -34.6194 -34.4134 0
    endloop
  endfacet
  facet normal 0.831458 0.555587 0
    outer loop
      vertex -34.6194 -34.4134 -1.99456
      vertex -33.5355 -36.0355 0
      vertex -33.5355 -36.0355 -1.99456
    endloop
  endfacet
  facet normal -0.908641 -0.180725 0.376443
    outer loop
      vertex 35 -1.5 -1.99456
      vertex 34.5147 -0.112844 -2.5
      vertex 34.7906 -1.5 -2.5
    endloop
  endfacet
  facet normal -0.908652 -0.180741 0.37641
    outer loop
      vertex 34.5147 -0.112844 -2.5
      vertex 35 -1.5 -1.99456
      vertex 34.6194 0.413417 -1.99456
    endloop
  endfacet
  facet normal -0.831458 0.555587 0
    outer loop
      vertex 33.5355 -36.0355 -1.99456
      vertex 34.6194 -34.4134 0
      vertex 34.6194 -34.4134 -1.99456
    endloop
  endfacet
  facet normal -0.831458 0.555587 0
    outer loop
      vertex 34.6194 -34.4134 0
      vertex 33.5355 -36.0355 -1.99456
      vertex 33.5355 -36.0355 0
    endloop
  endfacet
  facet normal 0 -0.92388 0.382683
    outer loop
      vertex -30 3.29064 -2.5
      vertex 30 3.5 -1.99456
      vertex -30 3.5 -1.99456
    endloop
  endfacet
  facet normal 0 -0.92388 0.382683
    outer loop
      vertex 30 3.5 -1.99456
      vertex -30 3.29064 -2.5
      vertex 30 3.29064 -2.5
    endloop
  endfacet
  facet normal 0 -1 0
    outer loop
      vertex -30 3.5 -1.99456
      vertex 30 3.5 0
      vertex -30 3.5 0
    endloop
  endfacet
  facet normal 0 -1 -0
    outer loop
      vertex 30 3.5 0
      vertex -30 3.5 -1.99456
      vertex 30 3.5 -1.99456
    endloop
  endfacet
  facet normal 0.514729 0.770362 0.376293
    outer loop
      vertex -33.0093 -36.1402 -2.5
      vertex -33.3875 -35.8875 -2.5
      vertex -33.5355 -36.0355 -1.99456
    endloop
  endfacet
  facet normal 0.195091 0.980785 -0
    outer loop
      vertex -30 -37.5 -1.99456
      vertex -31.9134 -37.1194 0
      vertex -30 -37.5 0
    endloop
  endfacet
  facet normal 0.195091 0.980785 0
    outer loop
      vertex -31.9134 -37.1194 0
      vertex -30 -37.5 -1.99456
      vertex -31.9134 -37.1194 -1.99456
    endloop
  endfacet
  facet normal 0.770324 -0.514733 0.376366
    outer loop
      vertex -34.6194 0.413417 -1.99456
      vertex -33.6402 1.50927 -2.5
      vertex -33.5355 2.03553 -1.99456
    endloop
  endfacet
  facet normal 0.770326 -0.514742 0.376349
    outer loop
      vertex -33.6402 1.50927 -2.5
      vertex -34.6194 0.413417 -1.99456
      vertex -34.426 0.333298 -2.5
    endloop
  endfacet
  facet normal -0.980785 0.195091 0
    outer loop
      vertex 34.6194 -34.4134 -1.99456
      vertex 35 -32.5 0
      vertex 35 -32.5 -1.99456
    endloop
  endfacet
  facet normal -0.980785 0.195091 0
    outer loop
      vertex 35 -32.5 0
      vertex 34.6194 -34.4134 -1.99456
      vertex 34.6194 -34.4134 0
    endloop
  endfacet
  facet normal -0.195091 0.980785 0
    outer loop
      vertex 31.9134 -37.1194 -1.99456
      vertex 30 -37.5 0
      vertex 31.9134 -37.1194 0
    endloop
  endfacet
  facet normal -0.195091 0.980785 0
    outer loop
      vertex 30 -37.5 0
      vertex 31.9134 -37.1194 -1.99456
      vertex 30 -37.5 -1.99456
    endloop
  endfacet
  facet normal -0.770363 -0.514703 0.376326
    outer loop
      vertex 33.6402 1.50927 -2.5
      vertex 33.5355 2.03553 -1.99456
      vertex 33.3875 1.88749 -2.5
    endloop
  endfacet
  facet normal 0.180746 -0.908671 0.376362
    outer loop
      vertex -31.3872 3.01472 -2.5
      vertex -30 3.5 -1.99456
      vertex -31.9134 3.1194 -1.99456
    endloop
  endfacet
  facet normal 0.180737 -0.908665 0.376381
    outer loop
      vertex -30 3.5 -1.99456
      vertex -31.3872 3.01472 -2.5
      vertex -30 3.29064 -2.5
    endloop
  endfacet
  facet normal 0.195091 -0.980785 0
    outer loop
      vertex -31.9134 3.1194 -1.99456
      vertex -30 3.5 0
      vertex -31.9134 3.1194 0
    endloop
  endfacet
  facet normal 0.195091 -0.980785 0
    outer loop
      vertex -30 3.5 0
      vertex -31.9134 3.1194 -1.99456
      vertex -30 3.5 -1.99456
    endloop
  endfacet
  facet normal 1 -0 0
    outer loop
      vertex -35 -32.5 0
      vertex -35 -1.5 -1.99456
      vertex -35 -1.5 0
    endloop
  endfacet
  facet normal 1 0 0
    outer loop
      vertex -35 -1.5 -1.99456
      vertex -35 -32.5 0
      vertex -35 -32.5 -1.99456
    endloop
  endfacet
  facet normal 0.18068 0.908696 0.376334
    outer loop
      vertex -31.3872 -37.0147 -2.5
      vertex -31.8333 -36.926 -2.5
      vertex -31.9134 -37.1194 -1.99456
    endloop
  endfacet
  facet normal 0.514737 0.770337 0.376333
    outer loop
      vertex -33.0093 -36.1402 -2.5
      vertex -31.9134 -37.1194 -1.99456
      vertex -31.8333 -36.926 -2.5
    endloop
  endfacet
  facet normal 0.514747 0.770339 0.376316
    outer loop
      vertex -31.9134 -37.1194 -1.99456
      vertex -33.0093 -36.1402 -2.5
      vertex -33.5355 -36.0355 -1.99456
    endloop
  endfacet
  facet normal -0.770324 -0.514733 0.376366
    outer loop
      vertex 33.6402 1.50927 -2.5
      vertex 34.6194 0.413417 -1.99456
      vertex 33.5355 2.03553 -1.99456
    endloop
  endfacet
  facet normal -0.770326 -0.514742 0.376349
    outer loop
      vertex 34.6194 0.413417 -1.99456
      vertex 33.6402 1.50927 -2.5
      vertex 34.426 0.333298 -2.5
    endloop
  endfacet
  facet normal -0.770362 0.514729 0.376293
    outer loop
      vertex 33.5355 -36.0355 -1.99456
      vertex 33.6402 -35.5093 -2.5
      vertex 33.3875 -35.8875 -2.5
    endloop
  endfacet
  facet normal -0.923854 0 0.382746
    outer loop
      vertex 34.7906 -32.5 -2.5
      vertex 35 -1.5 -1.99456
      vertex 34.7906 -1.5 -2.5
    endloop
  endfacet
  facet normal -0.923854 0 0.382746
    outer loop
      vertex 35 -1.5 -1.99456
      vertex 34.7906 -32.5 -2.5
      vertex 35 -32.5 -1.99456
    endloop
  endfacet
  facet normal -0.180737 -0.908665 0.376381
    outer loop
      vertex 31.3872 3.01472 -2.5
      vertex 30 3.5 -1.99456
      vertex 30 3.29064 -2.5
    endloop
  endfacet
  facet normal -0.180746 -0.908671 0.376362
    outer loop
      vertex 30 3.5 -1.99456
      vertex 31.3872 3.01472 -2.5
      vertex 31.9134 3.1194 -1.99456
    endloop
  endfacet
  facet normal -0.83146 -0.555584 0
    outer loop
      vertex 34.6194 0.413417 -1.99456
      vertex 33.5355 2.03553 0
      vertex 33.5355 2.03553 -1.99456
    endloop
  endfacet
  facet normal -0.83146 -0.555584 0
    outer loop
      vertex 33.5355 2.03553 0
      vertex 34.6194 0.413417 -1.99456
      vertex 34.6194 0.413417 0
    endloop
  endfacet
  facet normal 0.980786 -0.195089 0
    outer loop
      vertex -35 -1.5 0
      vertex -34.6194 0.413417 -1.99456
      vertex -34.6194 0.413417 0
    endloop
  endfacet
  facet normal 0.980786 -0.195089 0
    outer loop
      vertex -34.6194 0.413417 -1.99456
      vertex -35 -1.5 0
      vertex -35 -1.5 -1.99456
    endloop
  endfacet
  facet normal -0.980786 -0.195089 0
    outer loop
      vertex 35 -1.5 -1.99456
      vertex 34.6194 0.413417 0
      vertex 34.6194 0.413417 -1.99456
    endloop
  endfacet
  facet normal -0.980786 -0.195089 0
    outer loop
      vertex 34.6194 0.413417 0
      vertex 35 -1.5 -1.99456
      vertex 35 -1.5 0
    endloop
  endfacet
  facet normal 0.923854 -0 0.382746
    outer loop
      vertex -35 -32.5 -1.99456
      vertex -34.7906 -1.5 -2.5
      vertex -35 -1.5 -1.99456
    endloop
  endfacet
  facet normal 0.923854 0 0.382746
    outer loop
      vertex -34.7906 -1.5 -2.5
      vertex -35 -32.5 -1.99456
      vertex -34.7906 -32.5 -2.5
    endloop
  endfacet
  facet normal -0.180744 0.908658 0.376393
    outer loop
      vertex 31.3872 -37.0147 -2.5
      vertex 30 -37.5 -1.99456
      vertex 31.9134 -37.1194 -1.99456
    endloop
  endfacet
  facet normal -0.18072 0.908642 0.376444
    outer loop
      vertex 30 -37.5 -1.99456
      vertex 31.3872 -37.0147 -2.5
      vertex 30 -37.2906 -2.5
    endloop
  endfacet
  facet normal -0.770337 0.514737 0.376333
    outer loop
      vertex 33.6402 -35.5093 -2.5
      vertex 34.6194 -34.4134 -1.99456
      vertex 34.426 -34.3333 -2.5
    endloop
  endfacet
  facet normal -0.770339 0.514747 0.376316
    outer loop
      vertex 34.6194 -34.4134 -1.99456
      vertex 33.6402 -35.5093 -2.5
      vertex 33.5355 -36.0355 -1.99456
    endloop
  endfacet
  facet normal -0.908642 0.18072 0.376444
    outer loop
      vertex 34.5147 -33.8872 -2.5
      vertex 35 -32.5 -1.99456
      vertex 34.7906 -32.5 -2.5
    endloop
  endfacet
  facet normal -0.908658 0.180744 0.376393
    outer loop
      vertex 35 -32.5 -1.99456
      vertex 34.5147 -33.8872 -2.5
      vertex 34.6194 -34.4134 -1.99456
    endloop
  endfacet
  facet normal -0.514729 0.770362 0.376293
    outer loop
      vertex 33.5355 -36.0355 -1.99456
      vertex 33.3875 -35.8875 -2.5
      vertex 33.0093 -36.1402 -2.5
    endloop
  endfacet
  facet normal -0.555576 -0.831465 0
    outer loop
      vertex 31.9134 3.1194 -1.99456
      vertex 33.5355 2.03553 0
      vertex 31.9134 3.1194 0
    endloop
  endfacet
  facet normal -0.555576 -0.831465 -0
    outer loop
      vertex 33.5355 2.03553 0
      vertex 31.9134 3.1194 -1.99456
      vertex 33.5355 2.03553 -1.99456
    endloop
  endfacet
  facet normal -0.180774 -0.908655 0.376387
    outer loop
      vertex 31.8333 2.92597 -2.5
      vertex 31.9134 3.1194 -1.99456
      vertex 31.3872 3.01472 -2.5
    endloop
  endfacet
  facet normal 0.514733 -0.77034 0.376332
    outer loop
      vertex -33.0093 2.14021 -2.5
      vertex -31.9134 3.1194 -1.99456
      vertex -33.5355 2.03553 -1.99456
    endloop
  endfacet
  facet normal 0.51471 -0.770335 0.376374
    outer loop
      vertex -31.9134 3.1194 -1.99456
      vertex -33.0093 2.14021 -2.5
      vertex -31.8333 2.92597 -2.5
    endloop
  endfacet
  facet normal 0.770362 0.514729 0.376293
    outer loop
      vertex -33.5355 -36.0355 -1.99456
      vertex -33.3875 -35.8875 -2.5
      vertex -33.6402 -35.5093 -2.5
    endloop
  endfacet
  facet normal 0.770337 0.514737 0.376333
    outer loop
      vertex -34.6194 -34.4134 -1.99456
      vertex -33.6402 -35.5093 -2.5
      vertex -34.426 -34.3333 -2.5
    endloop
  endfacet
  facet normal 0.770339 0.514747 0.376316
    outer loop
      vertex -33.6402 -35.5093 -2.5
      vertex -34.6194 -34.4134 -1.99456
      vertex -33.5355 -36.0355 -1.99456
    endloop
  endfacet
  facet normal -0.514747 0.770339 0.376316
    outer loop
      vertex 33.0093 -36.1402 -2.5
      vertex 31.9134 -37.1194 -1.99456
      vertex 33.5355 -36.0355 -1.99456
    endloop
  endfacet
  facet normal -0.514737 0.770337 0.376333
    outer loop
      vertex 31.9134 -37.1194 -1.99456
      vertex 33.0093 -36.1402 -2.5
      vertex 31.8333 -36.926 -2.5
    endloop
  endfacet
  facet normal -0.18068 0.908696 0.376334
    outer loop
      vertex 31.9134 -37.1194 -1.99456
      vertex 31.8333 -36.926 -2.5
      vertex 31.3872 -37.0147 -2.5
    endloop
  endfacet
  facet normal -0.195091 -0.980785 0
    outer loop
      vertex 30 3.5 -1.99456
      vertex 31.9134 3.1194 0
      vertex 30 3.5 0
    endloop
  endfacet
  facet normal -0.195091 -0.980785 -0
    outer loop
      vertex 31.9134 3.1194 0
      vertex 30 3.5 -1.99456
      vertex 31.9134 3.1194 -1.99456
    endloop
  endfacet
  facet normal 0.514745 -0.770325 0.376348
    outer loop
      vertex -33.3875 1.88749 -2.5
      vertex -33.0093 2.14021 -2.5
      vertex -33.5355 2.03553 -1.99456
    endloop
  endfacet
  facet normal 0.908642 0.18072 0.376444
    outer loop
      vertex -35 -32.5 -1.99456
      vertex -34.5147 -33.8872 -2.5
      vertex -34.7906 -32.5 -2.5
    endloop
  endfacet
  facet normal 0.908658 0.180744 0.376393
    outer loop
      vertex -34.5147 -33.8872 -2.5
      vertex -35 -32.5 -1.99456
      vertex -34.6194 -34.4134 -1.99456
    endloop
  endfacet
  facet normal -0.908696 0.18068 0.376334
    outer loop
      vertex 34.6194 -34.4134 -1.99456
      vertex 34.5147 -33.8872 -2.5
      vertex 34.426 -34.3333 -2.5
    endloop
  endfacet
  facet normal -0.51471 -0.770335 0.376374
    outer loop
      vertex 33.0093 2.14021 -2.5
      vertex 31.9134 3.1194 -1.99456
      vertex 31.8333 2.92597 -2.5
    endloop
  endfacet
  facet normal -0.514733 -0.77034 0.376332
    outer loop
      vertex 31.9134 3.1194 -1.99456
      vertex 33.0093 2.14021 -2.5
      vertex 33.5355 2.03553 -1.99456
    endloop
  endfacet
  facet normal -0.514745 -0.770325 0.376348
    outer loop
      vertex 33.3875 1.88749 -2.5
      vertex 33.5355 2.03553 -1.99456
      vertex 33.0093 2.14021 -2.5
    endloop
  endfacet
  facet normal 0.908696 0.18068 0.376334
    outer loop
      vertex -34.426 -34.3333 -2.5
      vertex -34.5147 -33.8872 -2.5
      vertex -34.6194 -34.4134 -1.99456
    endloop
  endfacet
  facet normal 0.908697 -0.180663 0.376339
    outer loop
      vertex -34.5147 -0.112844 -2.5
      vertex -34.426 0.333298 -2.5
      vertex -34.6194 0.413417 -1.99456
    endloop
  endfacet
  facet normal 0.770363 -0.514703 0.376326
    outer loop
      vertex -33.3875 1.88749 -2.5
      vertex -33.5355 2.03553 -1.99456
      vertex -33.6402 1.50927 -2.5
    endloop
  endfacet
  facet normal 0.908652 -0.180741 0.37641
    outer loop
      vertex -35 -1.5 -1.99456
      vertex -34.5147 -0.112844 -2.5
      vertex -34.6194 0.413417 -1.99456
    endloop
  endfacet
  facet normal 0.908641 -0.180725 0.376443
    outer loop
      vertex -34.5147 -0.112844 -2.5
      vertex -35 -1.5 -1.99456
      vertex -34.7906 -1.5 -2.5
    endloop
  endfacet
  facet normal 0 1 0
    outer loop
      vertex 39.9125 9.0805 5
      vertex 38.7213 9.0805 1.30147
      vertex 38.0875 9.0805 5
    endloop
  endfacet
  facet normal -0 1 0
    outer loop
      vertex 38.7213 9.0805 1.30147
      vertex 39.9125 9.0805 5
      vertex 39.9125 9.0805 1.02736
    endloop
  endfacet
  facet normal 0 1 0
    outer loop
      vertex 38.0875 9.0805 5
      vertex 38.7213 9.0805 1.30147
      vertex 38.0875 9.0805 0.881505
    endloop
  endfacet
  facet normal -0.866031 0.499991 0
    outer loop
      vertex 37.7706 8.5316 1.30147
      vertex 38.0875 9.0805 5
      vertex 38.0875 9.0805 0.881505
    endloop
  endfacet
  facet normal -0.866023 0.500003 0
    outer loop
      vertex 37.175 7.5 5
      vertex 37.7706 8.5316 1.30147
      vertex 37.175 7.5 1.02736
    endloop
  endfacet
  facet normal -0.866026 0.499999 -1.60004e-06
    outer loop
      vertex 37.7706 8.5316 1.30147
      vertex 37.175 7.5 5
      vertex 38.0875 9.0805 5
    endloop
  endfacet
  facet normal 0 -1 0
    outer loop
      vertex 38.0875 5.9195 5
      vertex 38.7213 5.9195 1.30147
      vertex 39.9125 5.9195 5
    endloop
  endfacet
  facet normal -0 -1 0
    outer loop
      vertex 38.7213 5.9195 1.30147
      vertex 38.0875 5.9195 5
      vertex 38.0875 5.9195 0.881505
    endloop
  endfacet
  facet normal 0 -1 -0
    outer loop
      vertex 39.9125 5.9195 5
      vertex 38.7213 5.9195 1.30147
      vertex 39.9125 5.9195 1.02736
    endloop
  endfacet
  facet normal -0.866023 -0.500003 0
    outer loop
      vertex 37.7706 6.4684 1.30147
      vertex 37.175 7.5 5
      vertex 37.175 7.5 1.02736
    endloop
  endfacet
  facet normal -0.866031 -0.499991 -0
    outer loop
      vertex 38.0875 5.9195 5
      vertex 37.7706 6.4684 1.30147
      vertex 38.0875 5.9195 0.881505
    endloop
  endfacet
  facet normal -0.866026 -0.499999 -1.60004e-06
    outer loop
      vertex 37.7706 6.4684 1.30147
      vertex 38.0875 5.9195 5
      vertex 37.175 7.5 5
    endloop
  endfacet
  facet normal 0.866031 -0.499991 0
    outer loop
      vertex 40.825 7.5 5
      vertex 40.5081 6.9511 1.30147
      vertex 40.825 7.5 0.881505
    endloop
  endfacet
  facet normal 0.866026 -0.499999 1.60004e-06
    outer loop
      vertex 39.9125 5.9195 5
      vertex 40.5081 6.9511 1.30147
      vertex 40.825 7.5 5
    endloop
  endfacet
  facet normal 0.866023 -0.500003 0
    outer loop
      vertex 40.5081 6.9511 1.30147
      vertex 39.9125 5.9195 5
      vertex 39.9125 5.9195 1.02736
    endloop
  endfacet
  facet normal 0.866023 0.500003 0
    outer loop
      vertex 39.9125 9.0805 5
      vertex 40.5081 8.0489 1.30147
      vertex 39.9125 9.0805 1.02736
    endloop
  endfacet
  facet normal 0.866026 0.499999 1.60004e-06
    outer loop
      vertex 40.825 7.5 5
      vertex 40.5081 8.0489 1.30147
      vertex 39.9125 9.0805 5
    endloop
  endfacet
  facet normal 0.866031 0.499991 0
    outer loop
      vertex 40.5081 8.0489 1.30147
      vertex 40.825 7.5 5
      vertex 40.825 7.5 0.881505
    endloop
  endfacet
  facet normal -0 0 1
    outer loop
      vertex 39.809 8.08778 5
      vertex 40.825 7.5 5
      vertex 39.9125 9.0805 5
    endloop
  endfacet
  facet normal 0 0 1
    outer loop
      vertex 39.809 6.91222 5
      vertex 40.825 7.5 5
      vertex 39.809 8.08778 5
    endloop
  endfacet
  facet normal 0 0 1
    outer loop
      vertex 39.9125 9.0805 5
      vertex 38.691 8.45106 5
      vertex 39.809 8.08778 5
    endloop
  endfacet
  facet normal -0 0 1
    outer loop
      vertex 38.0875 9.0805 5
      vertex 38.691 8.45106 5
      vertex 39.9125 9.0805 5
    endloop
  endfacet
  facet normal 0 0 1
    outer loop
      vertex 38.0875 9.0805 5
      vertex 38 7.5 5
      vertex 38.691 8.45106 5
    endloop
  endfacet
  facet normal 0 -0 1
    outer loop
      vertex 38 7.5 5
      vertex 38.0875 9.0805 5
      vertex 37.175 7.5 5
    endloop
  endfacet
  facet normal 0 0 1
    outer loop
      vertex 40.825 7.5 5
      vertex 39.809 6.91222 5
      vertex 39.9125 5.9195 5
    endloop
  endfacet
  facet normal -0 0 1
    outer loop
      vertex 38.691 6.54894 5
      vertex 39.9125 5.9195 5
      vertex 39.809 6.91222 5
    endloop
  endfacet
  facet normal 0 0 1
    outer loop
      vertex 38.691 6.54894 5
      vertex 38.0875 5.9195 5
      vertex 39.9125 5.9195 5
    endloop
  endfacet
  facet normal 0 0 1
    outer loop
      vertex 38 7.5 5
      vertex 38.0875 5.9195 5
      vertex 38.691 6.54894 5
    endloop
  endfacet
  facet normal 0 0 1
    outer loop
      vertex 38.0875 5.9195 5
      vertex 38 7.5 5
      vertex 37.175 7.5 5
    endloop
  endfacet
  facet normal -0.750093 -0.273019 0.602346
    outer loop
      vertex 36.35 7.5 0
      vertex 37.7706 6.4684 1.30147
      vertex 37.175 7.5 1.02736
    endloop
  endfacet
  facet normal -0.750093 -0.273019 0.602346
    outer loop
      vertex 37.7706 6.4684 1.30147
      vertex 36.35 7.5 0
      vertex 36.97 5.79661 0
    endloop
  endfacet
  facet normal 0.798232 -1.08803e-05 0.60235
    outer loop
      vertex 40.825 7.5 0.881505
      vertex 41.4902 8.40635 0
      vertex 40.5081 8.0489 1.30147
    endloop
  endfacet
  facet normal 0.798232 1.08803e-05 0.60235
    outer loop
      vertex 41.4902 6.59365 0
      vertex 40.825 7.5 0.881505
      vertex 40.5081 6.9511 1.30147
    endloop
  endfacet
  facet normal 0.798227 0 0.602357
    outer loop
      vertex 40.825 7.5 0.881505
      vertex 41.4902 6.59365 0
      vertex 41.4902 8.40635 0
    endloop
  endfacet
  facet normal -0.399118 0.691299 0.602338
    outer loop
      vertex 38.7213 9.0805 1.30147
      vertex 38.5398 10.1097 0
      vertex 38.0875 9.0805 0.881505
    endloop
  endfacet
  facet normal -0.399115 0.691299 0.602339
    outer loop
      vertex 36.97 9.20339 0
      vertex 38.0875 9.0805 0.881505
      vertex 38.5398 10.1097 0
    endloop
  endfacet
  facet normal -0.399123 0.691287 0.602348
    outer loop
      vertex 38.0875 9.0805 0.881505
      vertex 36.97 9.20339 0
      vertex 37.7706 8.5316 1.30147
    endloop
  endfacet
  facet normal 0.138592 0.786114 0.602344
    outer loop
      vertex 38.5398 10.1097 0
      vertex 39.9125 9.0805 1.02736
      vertex 40.325 9.79497 0
    endloop
  endfacet
  facet normal 0.138604 0.78612 0.602333
    outer loop
      vertex 39.9125 9.0805 1.02736
      vertex 38.5398 10.1097 0
      vertex 38.7213 9.0805 1.30147
    endloop
  endfacet
  facet normal 0.611481 -0.513094 0.60235
    outer loop
      vertex 39.9125 5.9195 1.02736
      vertex 41.4902 6.59365 0
      vertex 40.5081 6.9511 1.30147
    endloop
  endfacet
  facet normal 0.61148 -0.513097 0.602348
    outer loop
      vertex 41.4902 6.59365 0
      vertex 39.9125 5.9195 1.02736
      vertex 40.325 5.20503 0
    endloop
  endfacet
  facet normal -0.750093 0.273019 0.602346
    outer loop
      vertex 36.35 7.5 0
      vertex 37.7706 8.5316 1.30147
      vertex 36.97 9.20339 0
    endloop
  endfacet
  facet normal -0.750093 0.273019 0.602346
    outer loop
      vertex 37.7706 8.5316 1.30147
      vertex 36.35 7.5 0
      vertex 37.175 7.5 1.02736
    endloop
  endfacet
  facet normal 0.138608 -0.786108 0.602347
    outer loop
      vertex 38.7213 5.9195 1.30147
      vertex 38.5398 4.89026 0
      vertex 39.9125 5.9195 1.02736
    endloop
  endfacet
  facet normal 0.138608 -0.786108 0.602347
    outer loop
      vertex 40.325 5.20503 0
      vertex 39.9125 5.9195 1.02736
      vertex 38.5398 4.89026 0
    endloop
  endfacet
  facet normal -0.399123 -0.691287 0.602348
    outer loop
      vertex 37.7706 6.4684 1.30147
      vertex 36.97 5.79661 0
      vertex 38.0875 5.9195 0.881505
    endloop
  endfacet
  facet normal -0.399125 -0.691285 0.602349
    outer loop
      vertex 38.5398 4.89026 0
      vertex 38.0875 5.9195 0.881505
      vertex 36.97 5.79661 0
    endloop
  endfacet
  facet normal -0.399125 -0.691285 0.602349
    outer loop
      vertex 38.0875 5.9195 0.881505
      vertex 38.5398 4.89026 0
      vertex 38.7213 5.9195 1.30147
    endloop
  endfacet
  facet normal 0.61148 0.513097 0.602348
    outer loop
      vertex 39.9125 9.0805 1.02736
      vertex 41.4902 8.40635 0
      vertex 40.325 9.79497 0
    endloop
  endfacet
  facet normal 0.611481 0.513094 0.60235
    outer loop
      vertex 41.4902 8.40635 0
      vertex 39.9125 9.0805 1.02736
      vertex 40.5081 8.0489 1.30147
    endloop
  endfacet
  facet normal -0.309032 -0.951052 0
    outer loop
      vertex 38.691 8.45106 0
      vertex 39.809 8.08778 5
      vertex 38.691 8.45106 5
    endloop
  endfacet
  facet normal -0.309032 -0.951052 -0
    outer loop
      vertex 39.809 8.08778 5
      vertex 38.691 8.45106 0
      vertex 39.809 8.08778 0
    endloop
  endfacet
  facet normal -0.309032 0.951052 0
    outer loop
      vertex 39.809 6.91222 0
      vertex 38.691 6.54894 5
      vertex 39.809 6.91222 5
    endloop
  endfacet
  facet normal -0.309032 0.951052 0
    outer loop
      vertex 38.691 6.54894 5
      vertex 39.809 6.91222 0
      vertex 38.691 6.54894 0
    endloop
  endfacet
  facet normal 0.809011 0.587793 0
    outer loop
      vertex 38.691 6.54894 5
      vertex 38 7.5 0
      vertex 38 7.5 5
    endloop
  endfacet
  facet normal 0.809011 0.587793 0
    outer loop
      vertex 38 7.5 0
      vertex 38.691 6.54894 5
      vertex 38.691 6.54894 0
    endloop
  endfacet
  facet normal -1 0 0
    outer loop
      vertex 39.809 6.91222 0
      vertex 39.809 8.08778 5
      vertex 39.809 8.08778 0
    endloop
  endfacet
  facet normal -1 -0 0
    outer loop
      vertex 39.809 8.08778 5
      vertex 39.809 6.91222 0
      vertex 39.809 6.91222 5
    endloop
  endfacet
  facet normal 0.809011 -0.587793 0
    outer loop
      vertex 38 7.5 5
      vertex 38.691 8.45106 0
      vertex 38.691 8.45106 5
    endloop
  endfacet
  facet normal 0.809011 -0.587793 0
    outer loop
      vertex 38.691 8.45106 0
      vertex 38 7.5 5
      vertex 38 7.5 0
    endloop
  endfacet
  facet normal 0 1 0
    outer loop
      vertex -18.0875 9.0805 5
      vertex -19.2787 9.0805 1.30147
      vertex -19.9125 9.0805 5
    endloop
  endfacet
  facet normal -0 1 0
    outer loop
      vertex -19.2787 9.0805 1.30147
      vertex -18.0875 9.0805 5
      vertex -18.0875 9.0805 1.02736
    endloop
  endfacet
  facet normal 0 1 0
    outer loop
      vertex -19.9125 9.0805 5
      vertex -19.2787 9.0805 1.30147
      vertex -19.9125 9.0805 0.881505
    endloop
  endfacet
  facet normal -0.866031 0.499991 0
    outer loop
      vertex -20.2294 8.5316 1.30147
      vertex -19.9125 9.0805 5
      vertex -19.9125 9.0805 0.881505
    endloop
  endfacet
  facet normal -0.866023 0.500003 0
    outer loop
      vertex -20.825 7.5 5
      vertex -20.2294 8.5316 1.30147
      vertex -20.825 7.5 1.02736
    endloop
  endfacet
  facet normal -0.866026 0.499999 -1.60004e-06
    outer loop
      vertex -20.2294 8.5316 1.30147
      vertex -20.825 7.5 5
      vertex -19.9125 9.0805 5
    endloop
  endfacet
  facet normal 0 -1 0
    outer loop
      vertex -19.9125 5.9195 5
      vertex -19.2787 5.9195 1.30147
      vertex -18.0875 5.9195 5
    endloop
  endfacet
  facet normal -0 -1 0
    outer loop
      vertex -19.2787 5.9195 1.30147
      vertex -19.9125 5.9195 5
      vertex -19.9125 5.9195 0.881505
    endloop
  endfacet
  facet normal 0 -1 -0
    outer loop
      vertex -18.0875 5.9195 5
      vertex -19.2787 5.9195 1.30147
      vertex -18.0875 5.9195 1.02736
    endloop
  endfacet
  facet normal -0.866023 -0.500003 0
    outer loop
      vertex -20.2294 6.4684 1.30147
      vertex -20.825 7.5 5
      vertex -20.825 7.5 1.02736
    endloop
  endfacet
  facet normal -0.866031 -0.499991 -0
    outer loop
      vertex -19.9125 5.9195 5
      vertex -20.2294 6.4684 1.30147
      vertex -19.9125 5.9195 0.881505
    endloop
  endfacet
  facet normal -0.866026 -0.499999 -1.60004e-06
    outer loop
      vertex -20.2294 6.4684 1.30147
      vertex -19.9125 5.9195 5
      vertex -20.825 7.5 5
    endloop
  endfacet
  facet normal 0.866031 -0.499991 0
    outer loop
      vertex -17.175 7.5 5
      vertex -17.4919 6.9511 1.30147
      vertex -17.175 7.5 0.881505
    endloop
  endfacet
  facet normal 0.866026 -0.499999 1.60004e-06
    outer loop
      vertex -18.0875 5.9195 5
      vertex -17.4919 6.9511 1.30147
      vertex -17.175 7.5 5
    endloop
  endfacet
  facet normal 0.866023 -0.500003 0
    outer loop
      vertex -17.4919 6.9511 1.30147
      vertex -18.0875 5.9195 5
      vertex -18.0875 5.9195 1.02736
    endloop
  endfacet
  facet normal 0.866023 0.500003 0
    outer loop
      vertex -18.0875 9.0805 5
      vertex -17.4919 8.0489 1.30147
      vertex -18.0875 9.0805 1.02736
    endloop
  endfacet
  facet normal 0.866026 0.499999 1.60004e-06
    outer loop
      vertex -17.175 7.5 5
      vertex -17.4919 8.0489 1.30147
      vertex -18.0875 9.0805 5
    endloop
  endfacet
  facet normal 0.866031 0.499991 0
    outer loop
      vertex -17.4919 8.0489 1.30147
      vertex -17.175 7.5 5
      vertex -17.175 7.5 0.881505
    endloop
  endfacet
  facet normal -0 0 1
    outer loop
      vertex -18.191 8.08778 5
      vertex -17.175 7.5 5
      vertex -18.0875 9.0805 5
    endloop
  endfacet
  facet normal 0 0 1
    outer loop
      vertex -18.191 6.91222 5
      vertex -17.175 7.5 5
      vertex -18.191 8.08778 5
    endloop
  endfacet
  facet normal 0 0 1
    outer loop
      vertex -18.0875 9.0805 5
      vertex -19.309 8.45106 5
      vertex -18.191 8.08778 5
    endloop
  endfacet
  facet normal -0 0 1
    outer loop
      vertex -19.9125 9.0805 5
      vertex -19.309 8.45106 5
      vertex -18.0875 9.0805 5
    endloop
  endfacet
  facet normal 0 0 1
    outer loop
      vertex -19.9125 9.0805 5
      vertex -20 7.5 5
      vertex -19.309 8.45106 5
    endloop
  endfacet
  facet normal 0 -0 1
    outer loop
      vertex -20 7.5 5
      vertex -19.9125 9.0805 5
      vertex -20.825 7.5 5
    endloop
  endfacet
  facet normal 0 0 1
    outer loop
      vertex -17.175 7.5 5
      vertex -18.191 6.91222 5
      vertex -18.0875 5.9195 5
    endloop
  endfacet
  facet normal -0 0 1
    outer loop
      vertex -19.309 6.54894 5
      vertex -18.0875 5.9195 5
      vertex -18.191 6.91222 5
    endloop
  endfacet
  facet normal 0 0 1
    outer loop
      vertex -19.309 6.54894 5
      vertex -19.9125 5.9195 5
      vertex -18.0875 5.9195 5
    endloop
  endfacet
  facet normal 0 0 1
    outer loop
      vertex -20 7.5 5
      vertex -19.9125 5.9195 5
      vertex -19.309 6.54894 5
    endloop
  endfacet
  facet normal 0 0 1
    outer loop
      vertex -19.9125 5.9195 5
      vertex -20 7.5 5
      vertex -20.825 7.5 5
    endloop
  endfacet
  facet normal -0.750093 -0.273019 0.602346
    outer loop
      vertex -21.65 7.5 0
      vertex -20.2294 6.4684 1.30147
      vertex -20.825 7.5 1.02736
    endloop
  endfacet
  facet normal -0.750093 -0.273019 0.602346
    outer loop
      vertex -20.2294 6.4684 1.30147
      vertex -21.65 7.5 0
      vertex -21.03 5.79661 0
    endloop
  endfacet
  facet normal 0.798232 -1.08803e-05 0.60235
    outer loop
      vertex -17.175 7.5 0.881505
      vertex -16.5098 8.40635 0
      vertex -17.4919 8.0489 1.30147
    endloop
  endfacet
  facet normal 0.798232 1.08803e-05 0.60235
    outer loop
      vertex -16.5098 6.59365 0
      vertex -17.175 7.5 0.881505
      vertex -17.4919 6.9511 1.30147
    endloop
  endfacet
  facet normal 0.798227 0 0.602357
    outer loop
      vertex -17.175 7.5 0.881505
      vertex -16.5098 6.59365 0
      vertex -16.5098 8.40635 0
    endloop
  endfacet
  facet normal -0.399118 0.691299 0.602338
    outer loop
      vertex -19.2787 9.0805 1.30147
      vertex -19.4602 10.1097 0
      vertex -19.9125 9.0805 0.881505
    endloop
  endfacet
  facet normal -0.399115 0.691299 0.602339
    outer loop
      vertex -21.03 9.20339 0
      vertex -19.9125 9.0805 0.881505
      vertex -19.4602 10.1097 0
    endloop
  endfacet
  facet normal -0.399123 0.691287 0.602348
    outer loop
      vertex -19.9125 9.0805 0.881505
      vertex -21.03 9.20339 0
      vertex -20.2294 8.5316 1.30147
    endloop
  endfacet
  facet normal 0.138592 0.786114 0.602344
    outer loop
      vertex -19.4602 10.1097 0
      vertex -18.0875 9.0805 1.02736
      vertex -17.675 9.79497 0
    endloop
  endfacet
  facet normal 0.138604 0.78612 0.602333
    outer loop
      vertex -18.0875 9.0805 1.02736
      vertex -19.4602 10.1097 0
      vertex -19.2787 9.0805 1.30147
    endloop
  endfacet
  facet normal 0.611481 -0.513094 0.60235
    outer loop
      vertex -18.0875 5.9195 1.02736
      vertex -16.5098 6.59365 0
      vertex -17.4919 6.9511 1.30147
    endloop
  endfacet
  facet normal 0.61148 -0.513097 0.602348
    outer loop
      vertex -16.5098 6.59365 0
      vertex -18.0875 5.9195 1.02736
      vertex -17.675 5.20503 0
    endloop
  endfacet
  facet normal -0.750093 0.273019 0.602346
    outer loop
      vertex -21.65 7.5 0
      vertex -20.2294 8.5316 1.30147
      vertex -21.03 9.20339 0
    endloop
  endfacet
  facet normal -0.750093 0.273019 0.602346
    outer loop
      vertex -20.2294 8.5316 1.30147
      vertex -21.65 7.5 0
      vertex -20.825 7.5 1.02736
    endloop
  endfacet
  facet normal 0.138608 -0.786108 0.602347
    outer loop
      vertex -19.2787 5.9195 1.30147
      vertex -19.4602 4.89026 0
      vertex -18.0875 5.9195 1.02736
    endloop
  endfacet
  facet normal 0.138608 -0.786108 0.602347
    outer loop
      vertex -17.675 5.20503 0
      vertex -18.0875 5.9195 1.02736
      vertex -19.4602 4.89026 0
    endloop
  endfacet
  facet normal -0.399123 -0.691287 0.602348
    outer loop
      vertex -20.2294 6.4684 1.30147
      vertex -21.03 5.79661 0
      vertex -19.9125 5.9195 0.881505
    endloop
  endfacet
  facet normal -0.399125 -0.691285 0.602349
    outer loop
      vertex -19.4602 4.89026 0
      vertex -19.9125 5.9195 0.881505
      vertex -21.03 5.79661 0
    endloop
  endfacet
  facet normal -0.399125 -0.691285 0.602349
    outer loop
      vertex -19.9125 5.9195 0.881505
      vertex -19.4602 4.89026 0
      vertex -19.2787 5.9195 1.30147
    endloop
  endfacet
  facet normal 0.61148 0.513097 0.602348
    outer loop
      vertex -18.0875 9.0805 1.02736
      vertex -16.5098 8.40635 0
      vertex -17.675 9.79497 0
    endloop
  endfacet
  facet normal 0.611481 0.513094 0.60235
    outer loop
      vertex -16.5098 8.40635 0
      vertex -18.0875 9.0805 1.02736
      vertex -17.4919 8.0489 1.30147
    endloop
  endfacet
  facet normal -0.309032 -0.951052 0
    outer loop
      vertex -19.309 8.45106 0
      vertex -18.191 8.08778 5
      vertex -19.309 8.45106 5
    endloop
  endfacet
  facet normal -0.309032 -0.951052 -0
    outer loop
      vertex -18.191 8.08778 5
      vertex -19.309 8.45106 0
      vertex -18.191 8.08778 0
    endloop
  endfacet
  facet normal -0.309032 0.951052 0
    outer loop
      vertex -18.191 6.91222 0
      vertex -19.309 6.54894 5
      vertex -18.191 6.91222 5
    endloop
  endfacet
  facet normal -0.309032 0.951052 0
    outer loop
      vertex -19.309 6.54894 5
      vertex -18.191 6.91222 0
      vertex -19.309 6.54894 0
    endloop
  endfacet
  facet normal 0.809011 0.587793 0
    outer loop
      vertex -19.309 6.54894 5
      vertex -20 7.5 0
      vertex -20 7.5 5
    endloop
  endfacet
  facet normal 0.809011 0.587793 0
    outer loop
      vertex -20 7.5 0
      vertex -19.309 6.54894 5
      vertex -19.309 6.54894 0
    endloop
  endfacet
  facet normal -1 0 0
    outer loop
      vertex -18.191 6.91222 0
      vertex -18.191 8.08778 5
      vertex -18.191 8.08778 0
    endloop
  endfacet
  facet normal -1 -0 0
    outer loop
      vertex -18.191 8.08778 5
      vertex -18.191 6.91222 0
      vertex -18.191 6.91222 5
    endloop
  endfacet
  facet normal 0.809011 -0.587793 0
    outer loop
      vertex -20 7.5 5
      vertex -19.309 8.45106 0
      vertex -19.309 8.45106 5
    endloop
  endfacet
  facet normal 0.809011 -0.587793 0
    outer loop
      vertex -19.309 8.45106 0
      vertex -20 7.5 5
      vertex -20 7.5 0
    endloop
  endfacet
  facet normal 0 1 0
    outer loop
      vertex 39.9125 -39.9195 5
      vertex 38.7213 -39.9195 1.30147
      vertex 38.0875 -39.9195 5
    endloop
  endfacet
  facet normal -0 1 0
    outer loop
      vertex 38.7213 -39.9195 1.30147
      vertex 39.9125 -39.9195 5
      vertex 39.9125 -39.9195 1.02736
    endloop
  endfacet
  facet normal 0 1 0
    outer loop
      vertex 38.0875 -39.9195 5
      vertex 38.7213 -39.9195 1.30147
      vertex 38.0875 -39.9195 0.881505
    endloop
  endfacet
  facet normal -0.866031 0.499991 0
    outer loop
      vertex 37.7706 -40.4684 1.30147
      vertex 38.0875 -39.9195 5
      vertex 38.0875 -39.9195 0.881505
    endloop
  endfacet
  facet normal -0.866023 0.500003 0
    outer loop
      vertex 37.175 -41.5 5
      vertex 37.7706 -40.4684 1.30147
      vertex 37.175 -41.5 1.02736
    endloop
  endfacet
  facet normal -0.866026 0.499999 -1.60004e-06
    outer loop
      vertex 37.7706 -40.4684 1.30147
      vertex 37.175 -41.5 5
      vertex 38.0875 -39.9195 5
    endloop
  endfacet
  facet normal 0 -1 0
    outer loop
      vertex 38.0875 -43.0805 5
      vertex 38.7213 -43.0805 1.30147
      vertex 39.9125 -43.0805 5
    endloop
  endfacet
  facet normal -0 -1 0
    outer loop
      vertex 38.7213 -43.0805 1.30147
      vertex 38.0875 -43.0805 5
      vertex 38.0875 -43.0805 0.881505
    endloop
  endfacet
  facet normal 0 -1 -0
    outer loop
      vertex 39.9125 -43.0805 5
      vertex 38.7213 -43.0805 1.30147
      vertex 39.9125 -43.0805 1.02736
    endloop
  endfacet
  facet normal -0.866023 -0.500003 0
    outer loop
      vertex 37.7706 -42.5316 1.30147
      vertex 37.175 -41.5 5
      vertex 37.175 -41.5 1.02736
    endloop
  endfacet
  facet normal -0.866031 -0.499991 -0
    outer loop
      vertex 38.0875 -43.0805 5
      vertex 37.7706 -42.5316 1.30147
      vertex 38.0875 -43.0805 0.881505
    endloop
  endfacet
  facet normal -0.866026 -0.499999 -1.60004e-06
    outer loop
      vertex 37.7706 -42.5316 1.30147
      vertex 38.0875 -43.0805 5
      vertex 37.175 -41.5 5
    endloop
  endfacet
  facet normal 0.866031 -0.499991 0
    outer loop
      vertex 40.825 -41.5 5
      vertex 40.5081 -42.0489 1.30147
      vertex 40.825 -41.5 0.881505
    endloop
  endfacet
  facet normal 0.866026 -0.499999 1.60004e-06
    outer loop
      vertex 39.9125 -43.0805 5
      vertex 40.5081 -42.0489 1.30147
      vertex 40.825 -41.5 5
    endloop
  endfacet
  facet normal 0.866023 -0.500003 0
    outer loop
      vertex 40.5081 -42.0489 1.30147
      vertex 39.9125 -43.0805 5
      vertex 39.9125 -43.0805 1.02736
    endloop
  endfacet
  facet normal 0.866023 0.500003 0
    outer loop
      vertex 39.9125 -39.9195 5
      vertex 40.5081 -40.9511 1.30147
      vertex 39.9125 -39.9195 1.02736
    endloop
  endfacet
  facet normal 0.866026 0.499999 1.60004e-06
    outer loop
      vertex 40.825 -41.5 5
      vertex 40.5081 -40.9511 1.30147
      vertex 39.9125 -39.9195 5
    endloop
  endfacet
  facet normal 0.866031 0.499991 0
    outer loop
      vertex 40.5081 -40.9511 1.30147
      vertex 40.825 -41.5 5
      vertex 40.825 -41.5 0.881505
    endloop
  endfacet
  facet normal -0 0 1
    outer loop
      vertex 39.809 -40.9122 5
      vertex 40.825 -41.5 5
      vertex 39.9125 -39.9195 5
    endloop
  endfacet
  facet normal 0 0 1
    outer loop
      vertex 39.809 -42.0878 5
      vertex 40.825 -41.5 5
      vertex 39.809 -40.9122 5
    endloop
  endfacet
  facet normal 0 0 1
    outer loop
      vertex 39.9125 -39.9195 5
      vertex 38.691 -40.5489 5
      vertex 39.809 -40.9122 5
    endloop
  endfacet
  facet normal -0 0 1
    outer loop
      vertex 38.0875 -39.9195 5
      vertex 38.691 -40.5489 5
      vertex 39.9125 -39.9195 5
    endloop
  endfacet
  facet normal 0 0 1
    outer loop
      vertex 38.0875 -39.9195 5
      vertex 38 -41.5 5
      vertex 38.691 -40.5489 5
    endloop
  endfacet
  facet normal 0 -0 1
    outer loop
      vertex 38 -41.5 5
      vertex 38.0875 -39.9195 5
      vertex 37.175 -41.5 5
    endloop
  endfacet
  facet normal 0 0 1
    outer loop
      vertex 40.825 -41.5 5
      vertex 39.809 -42.0878 5
      vertex 39.9125 -43.0805 5
    endloop
  endfacet
  facet normal -0 0 1
    outer loop
      vertex 38.691 -42.4511 5
      vertex 39.9125 -43.0805 5
      vertex 39.809 -42.0878 5
    endloop
  endfacet
  facet normal 0 0 1
    outer loop
      vertex 38.691 -42.4511 5
      vertex 38.0875 -43.0805 5
      vertex 39.9125 -43.0805 5
    endloop
  endfacet
  facet normal 0 0 1
    outer loop
      vertex 38 -41.5 5
      vertex 38.0875 -43.0805 5
      vertex 38.691 -42.4511 5
    endloop
  endfacet
  facet normal 0 0 1
    outer loop
      vertex 38.0875 -43.0805 5
      vertex 38 -41.5 5
      vertex 37.175 -41.5 5
    endloop
  endfacet
  facet normal -0.750093 -0.273019 0.602346
    outer loop
      vertex 36.35 -41.5 0
      vertex 37.7706 -42.5316 1.30147
      vertex 37.175 -41.5 1.02736
    endloop
  endfacet
  facet normal -0.750093 -0.273017 0.602347
    outer loop
      vertex 37.7706 -42.5316 1.30147
      vertex 36.35 -41.5 0
      vertex 36.97 -43.2034 0
    endloop
  endfacet
  facet normal 0.798232 -1.08801e-05 0.60235
    outer loop
      vertex 40.825 -41.5 0.881505
      vertex 41.4902 -40.5936 0
      vertex 40.5081 -40.9511 1.30147
    endloop
  endfacet
  facet normal 0.798232 1.08801e-05 0.60235
    outer loop
      vertex 41.4902 -42.4064 0
      vertex 40.825 -41.5 0.881505
      vertex 40.5081 -42.0489 1.30147
    endloop
  endfacet
  facet normal 0.798227 0 0.602357
    outer loop
      vertex 40.825 -41.5 0.881505
      vertex 41.4902 -42.4064 0
      vertex 41.4902 -40.5936 0
    endloop
  endfacet
  facet normal -0.399118 0.691299 0.602338
    outer loop
      vertex 38.7213 -39.9195 1.30147
      vertex 38.5398 -38.8903 0
      vertex 38.0875 -39.9195 0.881505
    endloop
  endfacet
  facet normal -0.399111 0.691299 0.602342
    outer loop
      vertex 36.97 -39.7966 0
      vertex 38.0875 -39.9195 0.881505
      vertex 38.5398 -38.8903 0
    endloop
  endfacet
  facet normal -0.39912 0.691287 0.602351
    outer loop
      vertex 38.0875 -39.9195 0.881505
      vertex 36.97 -39.7966 0
      vertex 37.7706 -40.4684 1.30147
    endloop
  endfacet
  facet normal 0.138577 0.786107 0.602356
    outer loop
      vertex 38.5398 -38.8903 0
      vertex 39.9125 -39.9195 1.02736
      vertex 40.325 -39.205 0
    endloop
  endfacet
  facet normal 0.138604 0.78612 0.602333
    outer loop
      vertex 39.9125 -39.9195 1.02736
      vertex 38.5398 -38.8903 0
      vertex 38.7213 -39.9195 1.30147
    endloop
  endfacet
  facet normal 0.611471 -0.513092 0.602362
    outer loop
      vertex 39.9125 -43.0805 1.02736
      vertex 41.4902 -42.4064 0
      vertex 40.5081 -42.0489 1.30147
    endloop
  endfacet
  facet normal 0.611471 -0.513096 0.602358
    outer loop
      vertex 41.4902 -42.4064 0
      vertex 39.9125 -43.0805 1.02736
      vertex 40.325 -43.795 0
    endloop
  endfacet
  facet normal -0.750093 0.273017 0.602347
    outer loop
      vertex 36.35 -41.5 0
      vertex 37.7706 -40.4684 1.30147
      vertex 36.97 -39.7966 0
    endloop
  endfacet
  facet normal -0.750093 0.273019 0.602346
    outer loop
      vertex 37.7706 -40.4684 1.30147
      vertex 36.35 -41.5 0
      vertex 37.175 -41.5 1.02736
    endloop
  endfacet
  facet normal 0.138604 -0.78612 0.602333
    outer loop
      vertex 38.7213 -43.0805 1.30147
      vertex 38.5398 -44.1097 0
      vertex 39.9125 -43.0805 1.02736
    endloop
  endfacet
  facet normal 0.138577 -0.786107 0.602356
    outer loop
      vertex 40.325 -43.795 0
      vertex 39.9125 -43.0805 1.02736
      vertex 38.5398 -44.1097 0
    endloop
  endfacet
  facet normal -0.39912 -0.691287 0.602351
    outer loop
      vertex 37.7706 -42.5316 1.30147
      vertex 36.97 -43.2034 0
      vertex 38.0875 -43.0805 0.881505
    endloop
  endfacet
  facet normal -0.399111 -0.691299 0.602342
    outer loop
      vertex 38.5398 -44.1097 0
      vertex 38.0875 -43.0805 0.881505
      vertex 36.97 -43.2034 0
    endloop
  endfacet
  facet normal -0.399118 -0.691299 0.602338
    outer loop
      vertex 38.0875 -43.0805 0.881505
      vertex 38.5398 -44.1097 0
      vertex 38.7213 -43.0805 1.30147
    endloop
  endfacet
  facet normal 0.611471 0.513096 0.602358
    outer loop
      vertex 39.9125 -39.9195 1.02736
      vertex 41.4902 -40.5936 0
      vertex 40.325 -39.205 0
    endloop
  endfacet
  facet normal 0.611471 0.513092 0.602362
    outer loop
      vertex 41.4902 -40.5936 0
      vertex 39.9125 -39.9195 1.02736
      vertex 40.5081 -40.9511 1.30147
    endloop
  endfacet
  facet normal -0.309048 -0.951047 0
    outer loop
      vertex 38.691 -40.5489 0
      vertex 39.809 -40.9122 5
      vertex 38.691 -40.5489 5
    endloop
  endfacet
  facet normal -0.309048 -0.951047 -0
    outer loop
      vertex 39.809 -40.9122 5
      vertex 38.691 -40.5489 0
      vertex 39.809 -40.9122 0
    endloop
  endfacet
  facet normal -0.309048 0.951047 0
    outer loop
      vertex 39.809 -42.0878 0
      vertex 38.691 -42.4511 5
      vertex 39.809 -42.0878 5
    endloop
  endfacet
  facet normal -0.309048 0.951047 0
    outer loop
      vertex 38.691 -42.4511 5
      vertex 39.809 -42.0878 0
      vertex 38.691 -42.4511 0
    endloop
  endfacet
  facet normal 0.809023 0.587777 0
    outer loop
      vertex 38.691 -42.4511 5
      vertex 38 -41.5 0
      vertex 38 -41.5 5
    endloop
  endfacet
  facet normal 0.809023 0.587777 0
    outer loop
      vertex 38 -41.5 0
      vertex 38.691 -42.4511 5
      vertex 38.691 -42.4511 0
    endloop
  endfacet
  facet normal -1 0 0
    outer loop
      vertex 39.809 -42.0878 0
      vertex 39.809 -40.9122 5
      vertex 39.809 -40.9122 0
    endloop
  endfacet
  facet normal -1 -0 0
    outer loop
      vertex 39.809 -40.9122 5
      vertex 39.809 -42.0878 0
      vertex 39.809 -42.0878 5
    endloop
  endfacet
  facet normal 0.809023 -0.587777 0
    outer loop
      vertex 38 -41.5 5
      vertex 38.691 -40.5489 0
      vertex 38.691 -40.5489 5
    endloop
  endfacet
  facet normal 0.809023 -0.587777 0
    outer loop
      vertex 38.691 -40.5489 0
      vertex 38 -41.5 5
      vertex 38 -41.5 0
    endloop
  endfacet
  facet normal 0 1 0
    outer loop
      vertex -18.0875 -39.9195 5
      vertex -19.2787 -39.9195 1.30147
      vertex -19.9125 -39.9195 5
    endloop
  endfacet
  facet normal -0 1 0
    outer loop
      vertex -19.2787 -39.9195 1.30147
      vertex -18.0875 -39.9195 5
      vertex -18.0875 -39.9195 1.02736
    endloop
  endfacet
  facet normal 0 1 0
    outer loop
      vertex -19.9125 -39.9195 5
      vertex -19.2787 -39.9195 1.30147
      vertex -19.9125 -39.9195 0.881505
    endloop
  endfacet
  facet normal -0.866031 0.499991 0
    outer loop
      vertex -20.2294 -40.4684 1.30147
      vertex -19.9125 -39.9195 5
      vertex -19.9125 -39.9195 0.881505
    endloop
  endfacet
  facet normal -0.866023 0.500003 0
    outer loop
      vertex -20.825 -41.5 5
      vertex -20.2294 -40.4684 1.30147
      vertex -20.825 -41.5 1.02736
    endloop
  endfacet
  facet normal -0.866026 0.499999 -1.60004e-06
    outer loop
      vertex -20.2294 -40.4684 1.30147
      vertex -20.825 -41.5 5
      vertex -19.9125 -39.9195 5
    endloop
  endfacet
  facet normal 0 -1 0
    outer loop
      vertex -19.9125 -43.0805 5
      vertex -19.2787 -43.0805 1.30147
      vertex -18.0875 -43.0805 5
    endloop
  endfacet
  facet normal -0 -1 0
    outer loop
      vertex -19.2787 -43.0805 1.30147
      vertex -19.9125 -43.0805 5
      vertex -19.9125 -43.0805 0.881505
    endloop
  endfacet
  facet normal 0 -1 -0
    outer loop
      vertex -18.0875 -43.0805 5
      vertex -19.2787 -43.0805 1.30147
      vertex -18.0875 -43.0805 1.02736
    endloop
  endfacet
  facet normal -0.866023 -0.500003 0
    outer loop
      vertex -20.2294 -42.5316 1.30147
      vertex -20.825 -41.5 5
      vertex -20.825 -41.5 1.02736
    endloop
  endfacet
  facet normal -0.866031 -0.499991 -0
    outer loop
      vertex -19.9125 -43.0805 5
      vertex -20.2294 -42.5316 1.30147
      vertex -19.9125 -43.0805 0.881505
    endloop
  endfacet
  facet normal -0.866026 -0.499999 -1.60004e-06
    outer loop
      vertex -20.2294 -42.5316 1.30147
      vertex -19.9125 -43.0805 5
      vertex -20.825 -41.5 5
    endloop
  endfacet
  facet normal 0.866031 -0.499991 0
    outer loop
      vertex -17.175 -41.5 5
      vertex -17.4919 -42.0489 1.30147
      vertex -17.175 -41.5 0.881505
    endloop
  endfacet
  facet normal 0.866026 -0.499999 1.60004e-06
    outer loop
      vertex -18.0875 -43.0805 5
      vertex -17.4919 -42.0489 1.30147
      vertex -17.175 -41.5 5
    endloop
  endfacet
  facet normal 0.866023 -0.500003 0
    outer loop
      vertex -17.4919 -42.0489 1.30147
      vertex -18.0875 -43.0805 5
      vertex -18.0875 -43.0805 1.02736
    endloop
  endfacet
  facet normal 0.866023 0.500003 0
    outer loop
      vertex -18.0875 -39.9195 5
      vertex -17.4919 -40.9511 1.30147
      vertex -18.0875 -39.9195 1.02736
    endloop
  endfacet
  facet normal 0.866026 0.499999 1.60004e-06
    outer loop
      vertex -17.175 -41.5 5
      vertex -17.4919 -40.9511 1.30147
      vertex -18.0875 -39.9195 5
    endloop
  endfacet
  facet normal 0.866031 0.499991 0
    outer loop
      vertex -17.4919 -40.9511 1.30147
      vertex -17.175 -41.5 5
      vertex -17.175 -41.5 0.881505
    endloop
  endfacet
  facet normal -0 0 1
    outer loop
      vertex -18.191 -40.9122 5
      vertex -17.175 -41.5 5
      vertex -18.0875 -39.9195 5
    endloop
  endfacet
  facet normal 0 0 1
    outer loop
      vertex -18.191 -42.0878 5
      vertex -17.175 -41.5 5
      vertex -18.191 -40.9122 5
    endloop
  endfacet
  facet normal 0 0 1
    outer loop
      vertex -18.0875 -39.9195 5
      vertex -19.309 -40.5489 5
      vertex -18.191 -40.9122 5
    endloop
  endfacet
  facet normal -0 0 1
    outer loop
      vertex -19.9125 -39.9195 5
      vertex -19.309 -40.5489 5
      vertex -18.0875 -39.9195 5
    endloop
  endfacet
  facet normal 0 0 1
    outer loop
      vertex -19.9125 -39.9195 5
      vertex -20 -41.5 5
      vertex -19.309 -40.5489 5
    endloop
  endfacet
  facet normal 0 -0 1
    outer loop
      vertex -20 -41.5 5
      vertex -19.9125 -39.9195 5
      vertex -20.825 -41.5 5
    endloop
  endfacet
  facet normal 0 0 1
    outer loop
      vertex -17.175 -41.5 5
      vertex -18.191 -42.0878 5
      vertex -18.0875 -43.0805 5
    endloop
  endfacet
  facet normal -0 0 1
    outer loop
      vertex -19.309 -42.4511 5
      vertex -18.0875 -43.0805 5
      vertex -18.191 -42.0878 5
    endloop
  endfacet
  facet normal 0 0 1
    outer loop
      vertex -19.309 -42.4511 5
      vertex -19.9125 -43.0805 5
      vertex -18.0875 -43.0805 5
    endloop
  endfacet
  facet normal 0 0 1
    outer loop
      vertex -20 -41.5 5
      vertex -19.9125 -43.0805 5
      vertex -19.309 -42.4511 5
    endloop
  endfacet
  facet normal 0 0 1
    outer loop
      vertex -19.9125 -43.0805 5
      vertex -20 -41.5 5
      vertex -20.825 -41.5 5
    endloop
  endfacet
  facet normal -0.750093 -0.273019 0.602346
    outer loop
      vertex -21.65 -41.5 0
      vertex -20.2294 -42.5316 1.30147
      vertex -20.825 -41.5 1.02736
    endloop
  endfacet
  facet normal -0.750093 -0.273017 0.602347
    outer loop
      vertex -20.2294 -42.5316 1.30147
      vertex -21.65 -41.5 0
      vertex -21.03 -43.2034 0
    endloop
  endfacet
  facet normal 0.798232 -1.08801e-05 0.60235
    outer loop
      vertex -17.175 -41.5 0.881505
      vertex -16.5098 -40.5936 0
      vertex -17.4919 -40.9511 1.30147
    endloop
  endfacet
  facet normal 0.798232 1.08801e-05 0.60235
    outer loop
      vertex -16.5098 -42.4064 0
      vertex -17.175 -41.5 0.881505
      vertex -17.4919 -42.0489 1.30147
    endloop
  endfacet
  facet normal 0.798227 0 0.602357
    outer loop
      vertex -17.175 -41.5 0.881505
      vertex -16.5098 -42.4064 0
      vertex -16.5098 -40.5936 0
    endloop
  endfacet
  facet normal -0.399118 0.691299 0.602338
    outer loop
      vertex -19.2787 -39.9195 1.30147
      vertex -19.4602 -38.8903 0
      vertex -19.9125 -39.9195 0.881505
    endloop
  endfacet
  facet normal -0.399111 0.691299 0.602342
    outer loop
      vertex -21.03 -39.7966 0
      vertex -19.9125 -39.9195 0.881505
      vertex -19.4602 -38.8903 0
    endloop
  endfacet
  facet normal -0.39912 0.691287 0.602351
    outer loop
      vertex -19.9125 -39.9195 0.881505
      vertex -21.03 -39.7966 0
      vertex -20.2294 -40.4684 1.30147
    endloop
  endfacet
  facet normal 0.138577 0.786107 0.602356
    outer loop
      vertex -19.4602 -38.8903 0
      vertex -18.0875 -39.9195 1.02736
      vertex -17.675 -39.205 0
    endloop
  endfacet
  facet normal 0.138604 0.78612 0.602333
    outer loop
      vertex -18.0875 -39.9195 1.02736
      vertex -19.4602 -38.8903 0
      vertex -19.2787 -39.9195 1.30147
    endloop
  endfacet
  facet normal 0.611471 -0.513092 0.602362
    outer loop
      vertex -18.0875 -43.0805 1.02736
      vertex -16.5098 -42.4064 0
      vertex -17.4919 -42.0489 1.30147
    endloop
  endfacet
  facet normal 0.611471 -0.513096 0.602358
    outer loop
      vertex -16.5098 -42.4064 0
      vertex -18.0875 -43.0805 1.02736
      vertex -17.675 -43.795 0
    endloop
  endfacet
  facet normal -0.750093 0.273017 0.602347
    outer loop
      vertex -21.65 -41.5 0
      vertex -20.2294 -40.4684 1.30147
      vertex -21.03 -39.7966 0
    endloop
  endfacet
  facet normal -0.750093 0.273019 0.602346
    outer loop
      vertex -20.2294 -40.4684 1.30147
      vertex -21.65 -41.5 0
      vertex -20.825 -41.5 1.02736
    endloop
  endfacet
  facet normal 0.138604 -0.78612 0.602333
    outer loop
      vertex -19.2787 -43.0805 1.30147
      vertex -19.4602 -44.1097 0
      vertex -18.0875 -43.0805 1.02736
    endloop
  endfacet
  facet normal 0.138577 -0.786107 0.602356
    outer loop
      vertex -17.675 -43.795 0
      vertex -18.0875 -43.0805 1.02736
      vertex -19.4602 -44.1097 0
    endloop
  endfacet
  facet normal -0.39912 -0.691287 0.602351
    outer loop
      vertex -20.2294 -42.5316 1.30147
      vertex -21.03 -43.2034 0
      vertex -19.9125 -43.0805 0.881505
    endloop
  endfacet
  facet normal -0.399111 -0.691299 0.602342
    outer loop
      vertex -19.4602 -44.1097 0
      vertex -19.9125 -43.0805 0.881505
      vertex -21.03 -43.2034 0
    endloop
  endfacet
  facet normal -0.399118 -0.691299 0.602338
    outer loop
      vertex -19.9125 -43.0805 0.881505
      vertex -19.4602 -44.1097 0
      vertex -19.2787 -43.0805 1.30147
    endloop
  endfacet
  facet normal 0.611471 0.513096 0.602358
    outer loop
      vertex -18.0875 -39.9195 1.02736
      vertex -16.5098 -40.5936 0
      vertex -17.675 -39.205 0
    endloop
  endfacet
  facet normal 0.611471 0.513092 0.602362
    outer loop
      vertex -16.5098 -40.5936 0
      vertex -18.0875 -39.9195 1.02736
      vertex -17.4919 -40.9511 1.30147
    endloop
  endfacet
  facet normal -0.309048 -0.951047 0
    outer loop
      vertex -19.309 -40.5489 0
      vertex -18.191 -40.9122 5
      vertex -19.309 -40.5489 5
    endloop
  endfacet
  facet normal -0.309048 -0.951047 -0
    outer loop
      vertex -18.191 -40.9122 5
      vertex -19.309 -40.5489 0
      vertex -18.191 -40.9122 0
    endloop
  endfacet
  facet normal -0.309048 0.951047 0
    outer loop
      vertex -18.191 -42.0878 0
      vertex -19.309 -42.4511 5
      vertex -18.191 -42.0878 5
    endloop
  endfacet
  facet normal -0.309048 0.951047 0
    outer loop
      vertex -19.309 -42.4511 5
      vertex -18.191 -42.0878 0
      vertex -19.309 -42.4511 0
    endloop
  endfacet
  facet normal 0.809023 0.587777 0
    outer loop
      vertex -19.309 -42.4511 5
      vertex -20 -41.5 0
      vertex -20 -41.5 5
    endloop
  endfacet
  facet normal 0.809023 0.587777 0
    outer loop
      vertex -20 -41.5 0
      vertex -19.309 -42.4511 5
      vertex -19.309 -42.4511 0
    endloop
  endfacet
  facet normal -1 0 0
    outer loop
      vertex -18.191 -42.0878 0
      vertex -18.191 -40.9122 5
      vertex -18.191 -40.9122 0
    endloop
  endfacet
  facet normal -1 -0 0
    outer loop
      vertex -18.191 -40.9122 5
      vertex -18.191 -42.0878 0
      vertex -18.191 -42.0878 5
    endloop
  endfacet
  facet normal 0.809023 -0.587777 0
    outer loop
      vertex -20 -41.5 5
      vertex -19.309 -40.5489 0
      vertex -19.309 -40.5489 5
    endloop
  endfacet
  facet normal 0.809023 -0.587777 0
    outer loop
      vertex -19.309 -40.5489 0
      vertex -20 -41.5 5
      vertex -20 -41.5 0
    endloop
  endfacet
endsolid OpenSCAD_Model
