solid OpenSCAD_Model
  facet normal 0 0 -1
    outer loop
      vertex -45 -46.7437 3.75
      vertex 45 -46.25 3.75
      vertex 45 -46.7437 3.75
    endloop
  endfacet
  facet normal -0 0 -1
    outer loop
      vertex 45 -46.25 3.75
      vertex -45 -46.7437 3.75
      vertex -45 -46.25 3.75
    endloop
  endfacet
  facet normal 0 0.499954 -0.866052
    outer loop
      vertex -45 -48.5526 3.00075
      vertex 45 -47.6974 3.49444
      vertex 45 -48.5526 3.00075
    endloop
  endfacet
  facet normal 0 0.499954 -0.866052
    outer loop
      vertex 45 -47.6974 3.49444
      vertex -45 -48.5526 3.00075
      vertex -45 -47.6974 3.49444
    endloop
  endfacet
  facet normal 0 1 -0
    outer loop
      vertex 45 -50 -0.493696
      vertex -45 -50 0.493696
      vertex 45 -50 0.493696
    endloop
  endfacet
  facet normal 0 1 0
    outer loop
      vertex -45 -50 0.493696
      vertex 45 -50 -0.493696
      vertex -45 -50 -0.493696
    endloop
  endfacet
  facet normal 0 0.258835 -0.965922
    outer loop
      vertex -45 -47.6974 3.49444
      vertex 45 -46.7437 3.75
      vertex 45 -47.6974 3.49444
    endloop
  endfacet
  facet normal 0 0.258835 -0.965922
    outer loop
      vertex 45 -46.7437 3.75
      vertex -45 -47.6974 3.49444
      vertex -45 -46.7437 3.75
    endloop
  endfacet
  facet normal 0 0.707157 -0.707056
    outer loop
      vertex -45 -49.2507 2.30255
      vertex 45 -48.5526 3.00075
      vertex 45 -49.2507 2.30255
    endloop
  endfacet
  facet normal 0 0.707157 -0.707056
    outer loop
      vertex 45 -48.5526 3.00075
      vertex -45 -49.2507 2.30255
      vertex -45 -48.5526 3.00075
    endloop
  endfacet
  facet normal 0 0.866022 -0.500006
    outer loop
      vertex 45 -49.7444 1.44745
      vertex -45 -49.2507 2.30255
      vertex 45 -49.2507 2.30255
    endloop
  endfacet
  facet normal 0 0.866022 -0.500006
    outer loop
      vertex -45 -49.2507 2.30255
      vertex 45 -49.7444 1.44745
      vertex -45 -49.7444 1.44745
    endloop
  endfacet
  facet normal 0 0.965915 -0.258859
    outer loop
      vertex 45 -50 0.493696
      vertex -45 -49.7444 1.44745
      vertex 45 -49.7444 1.44745
    endloop
  endfacet
  facet normal 0 0.965915 -0.258859
    outer loop
      vertex -45 -49.7444 1.44745
      vertex 45 -50 0.493696
      vertex -45 -50 0.493696
    endloop
  endfacet
  facet normal 0 0.866022 0.500006
    outer loop
      vertex 45 -49.2507 -2.30255
      vertex -45 -49.7444 -1.44745
      vertex 45 -49.7444 -1.44745
    endloop
  endfacet
  facet normal 0 0.866022 0.500006
    outer loop
      vertex -45 -49.7444 -1.44745
      vertex 45 -49.2507 -2.30255
      vertex -45 -49.2507 -2.30255
    endloop
  endfacet
  facet normal -0 0.707157 0.707056
    outer loop
      vertex -45 -48.5526 -3.00075
      vertex 45 -49.2507 -2.30255
      vertex 45 -48.5526 -3.00075
    endloop
  endfacet
  facet normal 0 0.707157 0.707056
    outer loop
      vertex 45 -49.2507 -2.30255
      vertex -45 -48.5526 -3.00075
      vertex -45 -49.2507 -2.30255
    endloop
  endfacet
  facet normal -0 0 1
    outer loop
      vertex -45 -46.25 -3.75
      vertex 45 -46.7437 -3.75
      vertex 45 -46.25 -3.75
    endloop
  endfacet
  facet normal 0 0 1
    outer loop
      vertex 45 -46.7437 -3.75
      vertex -45 -46.25 -3.75
      vertex -45 -46.7437 -3.75
    endloop
  endfacet
  facet normal 0 0.965915 0.258859
    outer loop
      vertex 45 -49.7444 -1.44745
      vertex -45 -50 -0.493696
      vertex 45 -50 -0.493696
    endloop
  endfacet
  facet normal 0 0.965915 0.258859
    outer loop
      vertex -45 -50 -0.493696
      vertex 45 -49.7444 -1.44745
      vertex -45 -49.7444 -1.44745
    endloop
  endfacet
  facet normal -0 0.499954 0.866052
    outer loop
      vertex -45 -47.6974 -3.49444
      vertex 45 -48.5526 -3.00075
      vertex 45 -47.6974 -3.49444
    endloop
  endfacet
  facet normal 0 0.499954 0.866052
    outer loop
      vertex 45 -48.5526 -3.00075
      vertex -45 -47.6974 -3.49444
      vertex -45 -48.5526 -3.00075
    endloop
  endfacet
  facet normal -0 0.258835 0.965922
    outer loop
      vertex -45 -46.7437 -3.75
      vertex 45 -47.6974 -3.49444
      vertex 45 -46.7437 -3.75
    endloop
  endfacet
  facet normal 0 0.258835 0.965922
    outer loop
      vertex 45 -47.6974 -3.49444
      vertex -45 -46.7437 -3.75
      vertex -45 -47.6974 -3.49444
    endloop
  endfacet
  facet normal 1 0 0
    outer loop
      vertex 45 -46.25 15
      vertex 45 -46.7437 3.75
      vertex 45 -46.25 3.75
    endloop
  endfacet
  facet normal 1 0 0
    outer loop
      vertex 45 -46.25 15
      vertex 45 -47.6974 3.49444
      vertex 45 -46.7437 3.75
    endloop
  endfacet
  facet normal 1 0 0
    outer loop
      vertex 45 -46.25 15
      vertex 45 -48.5526 3.00075
      vertex 45 -47.6974 3.49444
    endloop
  endfacet
  facet normal 1 -0 0
    outer loop
      vertex 45 -66.675 15
      vertex 45 -48.5526 3.00075
      vertex 45 -46.25 15
    endloop
  endfacet
  facet normal 1 0 0
    outer loop
      vertex 45 -48.5526 3.00075
      vertex 45 -66.675 15
      vertex 45 -49.2507 2.30255
    endloop
  endfacet
  facet normal 1 0 0
    outer loop
      vertex 45 -49.2507 2.30255
      vertex 45 -66.675 15
      vertex 45 -49.7444 1.44745
    endloop
  endfacet
  facet normal 1 0 0
    outer loop
      vertex 45 -50 0.493696
      vertex 45 -66.675 15
      vertex 45 -50 -0.493696
    endloop
  endfacet
  facet normal 1 0 0
    outer loop
      vertex 45 -49.7444 1.44745
      vertex 45 -66.675 15
      vertex 45 -50 0.493696
    endloop
  endfacet
  facet normal 1 -0 0
    outer loop
      vertex 45 -46.7437 -3.75
      vertex 45 -46.25 -15
      vertex 45 -46.25 -3.75
    endloop
  endfacet
  facet normal 1 0 0
    outer loop
      vertex 45 -47.6974 -3.49444
      vertex 45 -46.25 -15
      vertex 45 -46.7437 -3.75
    endloop
  endfacet
  facet normal 1 0 0
    outer loop
      vertex 45 -48.5526 -3.00075
      vertex 45 -46.25 -15
      vertex 45 -47.6974 -3.49444
    endloop
  endfacet
  facet normal 1 0 0
    outer loop
      vertex 45 -66.675 -15
      vertex 45 -48.5526 -3.00075
      vertex 45 -49.2507 -2.30255
    endloop
  endfacet
  facet normal 1 0 0
    outer loop
      vertex 45 -66.675 -15
      vertex 45 -49.2507 -2.30255
      vertex 45 -49.7444 -1.44745
    endloop
  endfacet
  facet normal 1 0 0
    outer loop
      vertex 45 -66.675 -15
      vertex 45 -49.7444 -1.44745
      vertex 45 -50 -0.493696
    endloop
  endfacet
  facet normal 1 0 0
    outer loop
      vertex 45 -66.675 -15
      vertex 45 -50 -0.493696
      vertex 45 -66.675 15
    endloop
  endfacet
  facet normal 1 0 0
    outer loop
      vertex 45 -48.5526 -3.00075
      vertex 45 -66.675 -15
      vertex 45 -46.25 -15
    endloop
  endfacet
  facet normal -1 0 0
    outer loop
      vertex -45 -46.25 -15
      vertex -45 -46.7437 -3.75
      vertex -45 -46.25 -3.75
    endloop
  endfacet
  facet normal -1 0 0
    outer loop
      vertex -45 -46.25 -15
      vertex -45 -47.6974 -3.49444
      vertex -45 -46.7437 -3.75
    endloop
  endfacet
  facet normal -1 0 0
    outer loop
      vertex -45 -46.25 -15
      vertex -45 -48.5526 -3.00075
      vertex -45 -47.6974 -3.49444
    endloop
  endfacet
  facet normal -1 0 0
    outer loop
      vertex -45 -66.675 -15
      vertex -45 -48.5526 -3.00075
      vertex -45 -46.25 -15
    endloop
  endfacet
  facet normal -1 -0 0
    outer loop
      vertex -45 -48.5526 -3.00075
      vertex -45 -66.675 -15
      vertex -45 -49.2507 -2.30255
    endloop
  endfacet
  facet normal -1 -0 0
    outer loop
      vertex -45 -49.2507 -2.30255
      vertex -45 -66.675 -15
      vertex -45 -49.7444 -1.44745
    endloop
  endfacet
  facet normal -1 -0 0
    outer loop
      vertex -45 -50 -0.493696
      vertex -45 -66.675 -15
      vertex -45 -50 0.493696
    endloop
  endfacet
  facet normal -1 -0 0
    outer loop
      vertex -45 -49.7444 -1.44745
      vertex -45 -66.675 -15
      vertex -45 -50 -0.493696
    endloop
  endfacet
  facet normal -1 0 0
    outer loop
      vertex -45 -46.7437 3.75
      vertex -45 -46.25 15
      vertex -45 -46.25 3.75
    endloop
  endfacet
  facet normal -1 0 0
    outer loop
      vertex -45 -47.6974 3.49444
      vertex -45 -46.25 15
      vertex -45 -46.7437 3.75
    endloop
  endfacet
  facet normal -1 0 0
    outer loop
      vertex -45 -48.5526 3.00075
      vertex -45 -46.25 15
      vertex -45 -47.6974 3.49444
    endloop
  endfacet
  facet normal -1 0 0
    outer loop
      vertex -45 -66.675 15
      vertex -45 -48.5526 3.00075
      vertex -45 -49.2507 2.30255
    endloop
  endfacet
  facet normal -1 0 0
    outer loop
      vertex -45 -66.675 15
      vertex -45 -49.2507 2.30255
      vertex -45 -49.7444 1.44745
    endloop
  endfacet
  facet normal -1 0 0
    outer loop
      vertex -45 -66.675 15
      vertex -45 -49.7444 1.44745
      vertex -45 -50 0.493696
    endloop
  endfacet
  facet normal -1 0 0
    outer loop
      vertex -45 -66.675 15
      vertex -45 -50 0.493696
      vertex -45 -66.675 -15
    endloop
  endfacet
  facet normal -1 0 0
    outer loop
      vertex -45 -48.5526 3.00075
      vertex -45 -66.675 15
      vertex -45 -46.25 15
    endloop
  endfacet
  facet normal -0.923891 -0.382656 0
    outer loop
      vertex -8.55111 -56.2868 10
      vertex -8.70096 -55.925 15
      vertex -8.70096 -55.925 10
    endloop
  endfacet
  facet normal -0.923891 -0.382656 0
    outer loop
      vertex -8.70096 -55.925 15
      vertex -8.55111 -56.2868 10
      vertex -8.55111 -56.2868 15
    endloop
  endfacet
  facet normal -0.991444 -0.130532 0
    outer loop
      vertex -8.5 -56.675 10
      vertex -8.55111 -56.2868 15
      vertex -8.55111 -56.2868 10
    endloop
  endfacet
  facet normal -0.991444 -0.130532 0
    outer loop
      vertex -8.55111 -56.2868 15
      vertex -8.5 -56.675 10
      vertex -8.5 -56.675 15
    endloop
  endfacet
  facet normal -0.793388 -0.608716 0
    outer loop
      vertex -8.70096 -55.925 10
      vertex -8.93934 -55.6143 15
      vertex -8.93934 -55.6143 10
    endloop
  endfacet
  facet normal -0.793388 -0.608716 0
    outer loop
      vertex -8.93934 -55.6143 15
      vertex -8.70096 -55.925 10
      vertex -8.70096 -55.925 15
    endloop
  endfacet
  facet normal -0.793388 0.608716 0
    outer loop
      vertex -8.93934 -57.7357 10
      vertex -8.70096 -57.425 15
      vertex -8.70096 -57.425 10
    endloop
  endfacet
  facet normal -0.793388 0.608716 0
    outer loop
      vertex -8.70096 -57.425 15
      vertex -8.93934 -57.7357 10
      vertex -8.93934 -57.7357 15
    endloop
  endfacet
  facet normal 0.382765 -0.923846 0
    outer loop
      vertex -10.75 -55.376 10
      vertex -10.3882 -55.2261 15
      vertex -10.75 -55.376 15
    endloop
  endfacet
  facet normal 0.382765 -0.923846 0
    outer loop
      vertex -10.3882 -55.2261 15
      vertex -10.75 -55.376 10
      vertex -10.3882 -55.2261 10
    endloop
  endfacet
  facet normal 0.382765 0.923846 -0
    outer loop
      vertex -10.3882 -58.1239 10
      vertex -10.75 -57.974 15
      vertex -10.3882 -58.1239 15
    endloop
  endfacet
  facet normal 0.382765 0.923846 0
    outer loop
      vertex -10.75 -57.974 15
      vertex -10.3882 -58.1239 10
      vertex -10.75 -57.974 10
    endloop
  endfacet
  facet normal 0.923846 0.382765 0
    outer loop
      vertex -11.299 -57.425 15
      vertex -11.4489 -57.0632 10
      vertex -11.4489 -57.0632 15
    endloop
  endfacet
  facet normal 0.923846 0.382765 0
    outer loop
      vertex -11.4489 -57.0632 10
      vertex -11.299 -57.425 15
      vertex -11.299 -57.425 10
    endloop
  endfacet
  facet normal -0.923891 0.382656 0
    outer loop
      vertex -8.70096 -57.425 10
      vertex -8.55111 -57.0632 15
      vertex -8.55111 -57.0632 10
    endloop
  endfacet
  facet normal -0.923891 0.382656 0
    outer loop
      vertex -8.55111 -57.0632 15
      vertex -8.70096 -57.425 10
      vertex -8.70096 -57.425 15
    endloop
  endfacet
  facet normal -0.382792 0.923834 0
    outer loop
      vertex -9.25 -57.974 10
      vertex -9.61177 -58.1239 15
      vertex -9.25 -57.974 15
    endloop
  endfacet
  facet normal -0.382792 0.923834 0
    outer loop
      vertex -9.61177 -58.1239 15
      vertex -9.25 -57.974 10
      vertex -9.61177 -58.1239 10
    endloop
  endfacet
  facet normal -0.608636 0.793449 0
    outer loop
      vertex -8.93934 -57.7357 10
      vertex -9.25 -57.974 15
      vertex -8.93934 -57.7357 15
    endloop
  endfacet
  facet normal -0.608636 0.793449 0
    outer loop
      vertex -9.25 -57.974 15
      vertex -8.93934 -57.7357 10
      vertex -9.25 -57.974 10
    endloop
  endfacet
  facet normal -0.608636 -0.793449 0
    outer loop
      vertex -9.25 -55.376 10
      vertex -8.93934 -55.6143 15
      vertex -9.25 -55.376 15
    endloop
  endfacet
  facet normal -0.608636 -0.793449 -0
    outer loop
      vertex -8.93934 -55.6143 15
      vertex -9.25 -55.376 10
      vertex -8.93934 -55.6143 10
    endloop
  endfacet
  facet normal 0.991447 0.130507 0
    outer loop
      vertex -11.4489 -57.0632 15
      vertex -11.5 -56.675 10
      vertex -11.5 -56.675 15
    endloop
  endfacet
  facet normal 0.991447 0.130507 0
    outer loop
      vertex -11.5 -56.675 10
      vertex -11.4489 -57.0632 15
      vertex -11.4489 -57.0632 10
    endloop
  endfacet
  facet normal 0.991447 -0.130507 0
    outer loop
      vertex -11.5 -56.675 15
      vertex -11.4489 -56.2868 10
      vertex -11.4489 -56.2868 15
    endloop
  endfacet
  facet normal 0.991447 -0.130507 0
    outer loop
      vertex -11.4489 -56.2868 10
      vertex -11.5 -56.675 15
      vertex -11.5 -56.675 10
    endloop
  endfacet
  facet normal -0.130497 -0.991449 0
    outer loop
      vertex -10 -55.175 10
      vertex -9.61177 -55.2261 15
      vertex -10 -55.175 15
    endloop
  endfacet
  facet normal -0.130497 -0.991449 -0
    outer loop
      vertex -9.61177 -55.2261 15
      vertex -10 -55.175 10
      vertex -9.61177 -55.2261 10
    endloop
  endfacet
  facet normal 0.793487 -0.608587 0
    outer loop
      vertex -11.299 -55.925 15
      vertex -11.0607 -55.6143 10
      vertex -11.0607 -55.6143 15
    endloop
  endfacet
  facet normal 0.793487 -0.608587 0
    outer loop
      vertex -11.0607 -55.6143 10
      vertex -11.299 -55.925 15
      vertex -11.299 -55.925 10
    endloop
  endfacet
  facet normal 0.130507 -0.991447 0
    outer loop
      vertex -10.3882 -55.2261 10
      vertex -10 -55.175 15
      vertex -10.3882 -55.2261 15
    endloop
  endfacet
  facet normal 0.130507 -0.991447 0
    outer loop
      vertex -10 -55.175 15
      vertex -10.3882 -55.2261 10
      vertex -10 -55.175 10
    endloop
  endfacet
  facet normal 0.923846 -0.382765 0
    outer loop
      vertex -11.4489 -56.2868 15
      vertex -11.299 -55.925 10
      vertex -11.299 -55.925 15
    endloop
  endfacet
  facet normal 0.923846 -0.382765 0
    outer loop
      vertex -11.299 -55.925 10
      vertex -11.4489 -56.2868 15
      vertex -11.4489 -56.2868 10
    endloop
  endfacet
  facet normal 0.608587 -0.793487 0
    outer loop
      vertex -11.0607 -55.6143 10
      vertex -10.75 -55.376 15
      vertex -11.0607 -55.6143 15
    endloop
  endfacet
  facet normal 0.608587 -0.793487 0
    outer loop
      vertex -10.75 -55.376 15
      vertex -11.0607 -55.6143 10
      vertex -10.75 -55.376 10
    endloop
  endfacet
  facet normal -0.991444 0.130532 0
    outer loop
      vertex -8.55111 -57.0632 10
      vertex -8.5 -56.675 15
      vertex -8.5 -56.675 10
    endloop
  endfacet
  facet normal -0.991444 0.130532 0
    outer loop
      vertex -8.5 -56.675 15
      vertex -8.55111 -57.0632 10
      vertex -8.55111 -57.0632 15
    endloop
  endfacet
  facet normal -0.382792 -0.923834 0
    outer loop
      vertex -9.61177 -55.2261 10
      vertex -9.25 -55.376 15
      vertex -9.61177 -55.2261 15
    endloop
  endfacet
  facet normal -0.382792 -0.923834 -0
    outer loop
      vertex -9.25 -55.376 15
      vertex -9.61177 -55.2261 10
      vertex -9.25 -55.376 10
    endloop
  endfacet
  facet normal 0.130507 0.991447 -0
    outer loop
      vertex -10 -58.175 10
      vertex -10.3882 -58.1239 15
      vertex -10 -58.175 15
    endloop
  endfacet
  facet normal 0.130507 0.991447 0
    outer loop
      vertex -10.3882 -58.1239 15
      vertex -10 -58.175 10
      vertex -10.3882 -58.1239 10
    endloop
  endfacet
  facet normal -0.130497 0.991449 0
    outer loop
      vertex -9.61177 -58.1239 10
      vertex -10 -58.175 15
      vertex -9.61177 -58.1239 15
    endloop
  endfacet
  facet normal -0.130497 0.991449 0
    outer loop
      vertex -10 -58.175 15
      vertex -9.61177 -58.1239 10
      vertex -10 -58.175 10
    endloop
  endfacet
  facet normal 0.793487 0.608587 0
    outer loop
      vertex -11.0607 -57.7357 15
      vertex -11.299 -57.425 10
      vertex -11.299 -57.425 15
    endloop
  endfacet
  facet normal 0.793487 0.608587 0
    outer loop
      vertex -11.299 -57.425 10
      vertex -11.0607 -57.7357 15
      vertex -11.0607 -57.7357 10
    endloop
  endfacet
  facet normal 0.608587 0.793487 -0
    outer loop
      vertex -10.75 -57.974 10
      vertex -11.0607 -57.7357 15
      vertex -10.75 -57.974 15
    endloop
  endfacet
  facet normal 0.608587 0.793487 0
    outer loop
      vertex -11.0607 -57.7357 15
      vertex -10.75 -57.974 10
      vertex -11.0607 -57.7357 10
    endloop
  endfacet
  facet normal -0.923846 -0.382765 0
    outer loop
      vertex -18.5511 -56.2868 10
      vertex -18.701 -55.925 15
      vertex -18.701 -55.925 10
    endloop
  endfacet
  facet normal -0.923846 -0.382765 0
    outer loop
      vertex -18.701 -55.925 15
      vertex -18.5511 -56.2868 10
      vertex -18.5511 -56.2868 15
    endloop
  endfacet
  facet normal -0.991447 -0.130507 0
    outer loop
      vertex -18.5 -56.675 10
      vertex -18.5511 -56.2868 15
      vertex -18.5511 -56.2868 10
    endloop
  endfacet
  facet normal -0.991447 -0.130507 0
    outer loop
      vertex -18.5511 -56.2868 15
      vertex -18.5 -56.675 10
      vertex -18.5 -56.675 15
    endloop
  endfacet
  facet normal -0.793487 -0.608587 0
    outer loop
      vertex -18.701 -55.925 10
      vertex -18.9393 -55.6143 15
      vertex -18.9393 -55.6143 10
    endloop
  endfacet
  facet normal -0.793487 -0.608587 0
    outer loop
      vertex -18.9393 -55.6143 15
      vertex -18.701 -55.925 10
      vertex -18.701 -55.925 15
    endloop
  endfacet
  facet normal -0.793487 0.608587 0
    outer loop
      vertex -18.9393 -57.7357 10
      vertex -18.701 -57.425 15
      vertex -18.701 -57.425 10
    endloop
  endfacet
  facet normal -0.793487 0.608587 0
    outer loop
      vertex -18.701 -57.425 15
      vertex -18.9393 -57.7357 10
      vertex -18.9393 -57.7357 15
    endloop
  endfacet
  facet normal 0.382765 -0.923846 0
    outer loop
      vertex -20.75 -55.376 10
      vertex -20.3882 -55.2261 15
      vertex -20.75 -55.376 15
    endloop
  endfacet
  facet normal 0.382765 -0.923846 0
    outer loop
      vertex -20.3882 -55.2261 15
      vertex -20.75 -55.376 10
      vertex -20.3882 -55.2261 10
    endloop
  endfacet
  facet normal 0.382765 0.923846 -0
    outer loop
      vertex -20.3882 -58.1239 10
      vertex -20.75 -57.974 15
      vertex -20.3882 -58.1239 15
    endloop
  endfacet
  facet normal 0.382765 0.923846 0
    outer loop
      vertex -20.75 -57.974 15
      vertex -20.3882 -58.1239 10
      vertex -20.75 -57.974 10
    endloop
  endfacet
  facet normal 0.923846 0.382765 0
    outer loop
      vertex -21.299 -57.425 15
      vertex -21.4489 -57.0632 10
      vertex -21.4489 -57.0632 15
    endloop
  endfacet
  facet normal 0.923846 0.382765 0
    outer loop
      vertex -21.4489 -57.0632 10
      vertex -21.299 -57.425 15
      vertex -21.299 -57.425 10
    endloop
  endfacet
  facet normal -0.923846 0.382765 0
    outer loop
      vertex -18.701 -57.425 10
      vertex -18.5511 -57.0632 15
      vertex -18.5511 -57.0632 10
    endloop
  endfacet
  facet normal -0.923846 0.382765 0
    outer loop
      vertex -18.5511 -57.0632 15
      vertex -18.701 -57.425 10
      vertex -18.701 -57.425 15
    endloop
  endfacet
  facet normal -0.382765 0.923846 0
    outer loop
      vertex -19.25 -57.974 10
      vertex -19.6118 -58.1239 15
      vertex -19.25 -57.974 15
    endloop
  endfacet
  facet normal -0.382765 0.923846 0
    outer loop
      vertex -19.6118 -58.1239 15
      vertex -19.25 -57.974 10
      vertex -19.6118 -58.1239 10
    endloop
  endfacet
  facet normal -0.608587 0.793487 0
    outer loop
      vertex -18.9393 -57.7357 10
      vertex -19.25 -57.974 15
      vertex -18.9393 -57.7357 15
    endloop
  endfacet
  facet normal -0.608587 0.793487 0
    outer loop
      vertex -19.25 -57.974 15
      vertex -18.9393 -57.7357 10
      vertex -19.25 -57.974 10
    endloop
  endfacet
  facet normal -0.608587 -0.793487 0
    outer loop
      vertex -19.25 -55.376 10
      vertex -18.9393 -55.6143 15
      vertex -19.25 -55.376 15
    endloop
  endfacet
  facet normal -0.608587 -0.793487 -0
    outer loop
      vertex -18.9393 -55.6143 15
      vertex -19.25 -55.376 10
      vertex -18.9393 -55.6143 10
    endloop
  endfacet
  facet normal 0.991447 0.130507 0
    outer loop
      vertex -21.4489 -57.0632 15
      vertex -21.5 -56.675 10
      vertex -21.5 -56.675 15
    endloop
  endfacet
  facet normal 0.991447 0.130507 0
    outer loop
      vertex -21.5 -56.675 10
      vertex -21.4489 -57.0632 15
      vertex -21.4489 -57.0632 10
    endloop
  endfacet
  facet normal 0.991447 -0.130507 0
    outer loop
      vertex -21.5 -56.675 15
      vertex -21.4489 -56.2868 10
      vertex -21.4489 -56.2868 15
    endloop
  endfacet
  facet normal 0.991447 -0.130507 0
    outer loop
      vertex -21.4489 -56.2868 10
      vertex -21.5 -56.675 15
      vertex -21.5 -56.675 10
    endloop
  endfacet
  facet normal -0.130507 -0.991447 0
    outer loop
      vertex -20 -55.175 10
      vertex -19.6118 -55.2261 15
      vertex -20 -55.175 15
    endloop
  endfacet
  facet normal -0.130507 -0.991447 -0
    outer loop
      vertex -19.6118 -55.2261 15
      vertex -20 -55.175 10
      vertex -19.6118 -55.2261 10
    endloop
  endfacet
  facet normal 0.793487 -0.608587 0
    outer loop
      vertex -21.299 -55.925 15
      vertex -21.0607 -55.6143 10
      vertex -21.0607 -55.6143 15
    endloop
  endfacet
  facet normal 0.793487 -0.608587 0
    outer loop
      vertex -21.0607 -55.6143 10
      vertex -21.299 -55.925 15
      vertex -21.299 -55.925 10
    endloop
  endfacet
  facet normal 0.130507 -0.991447 0
    outer loop
      vertex -20.3882 -55.2261 10
      vertex -20 -55.175 15
      vertex -20.3882 -55.2261 15
    endloop
  endfacet
  facet normal 0.130507 -0.991447 0
    outer loop
      vertex -20 -55.175 15
      vertex -20.3882 -55.2261 10
      vertex -20 -55.175 10
    endloop
  endfacet
  facet normal 0.923846 -0.382765 0
    outer loop
      vertex -21.4489 -56.2868 15
      vertex -21.299 -55.925 10
      vertex -21.299 -55.925 15
    endloop
  endfacet
  facet normal 0.923846 -0.382765 0
    outer loop
      vertex -21.299 -55.925 10
      vertex -21.4489 -56.2868 15
      vertex -21.4489 -56.2868 10
    endloop
  endfacet
  facet normal 0.608587 -0.793487 0
    outer loop
      vertex -21.0607 -55.6143 10
      vertex -20.75 -55.376 15
      vertex -21.0607 -55.6143 15
    endloop
  endfacet
  facet normal 0.608587 -0.793487 0
    outer loop
      vertex -20.75 -55.376 15
      vertex -21.0607 -55.6143 10
      vertex -20.75 -55.376 10
    endloop
  endfacet
  facet normal -0.991447 0.130507 0
    outer loop
      vertex -18.5511 -57.0632 10
      vertex -18.5 -56.675 15
      vertex -18.5 -56.675 10
    endloop
  endfacet
  facet normal -0.991447 0.130507 0
    outer loop
      vertex -18.5 -56.675 15
      vertex -18.5511 -57.0632 10
      vertex -18.5511 -57.0632 15
    endloop
  endfacet
  facet normal -0.382765 -0.923846 0
    outer loop
      vertex -19.6118 -55.2261 10
      vertex -19.25 -55.376 15
      vertex -19.6118 -55.2261 15
    endloop
  endfacet
  facet normal -0.382765 -0.923846 -0
    outer loop
      vertex -19.25 -55.376 15
      vertex -19.6118 -55.2261 10
      vertex -19.25 -55.376 10
    endloop
  endfacet
  facet normal 0.130507 0.991447 -0
    outer loop
      vertex -20 -58.175 10
      vertex -20.3882 -58.1239 15
      vertex -20 -58.175 15
    endloop
  endfacet
  facet normal 0.130507 0.991447 0
    outer loop
      vertex -20.3882 -58.1239 15
      vertex -20 -58.175 10
      vertex -20.3882 -58.1239 10
    endloop
  endfacet
  facet normal -0.130507 0.991447 0
    outer loop
      vertex -19.6118 -58.1239 10
      vertex -20 -58.175 15
      vertex -19.6118 -58.1239 15
    endloop
  endfacet
  facet normal -0.130507 0.991447 0
    outer loop
      vertex -20 -58.175 15
      vertex -19.6118 -58.1239 10
      vertex -20 -58.175 10
    endloop
  endfacet
  facet normal 0.793487 0.608587 0
    outer loop
      vertex -21.0607 -57.7357 15
      vertex -21.299 -57.425 10
      vertex -21.299 -57.425 15
    endloop
  endfacet
  facet normal 0.793487 0.608587 0
    outer loop
      vertex -21.299 -57.425 10
      vertex -21.0607 -57.7357 15
      vertex -21.0607 -57.7357 10
    endloop
  endfacet
  facet normal 0.608587 0.793487 -0
    outer loop
      vertex -20.75 -57.974 10
      vertex -21.0607 -57.7357 15
      vertex -20.75 -57.974 15
    endloop
  endfacet
  facet normal 0.608587 0.793487 0
    outer loop
      vertex -21.0607 -57.7357 15
      vertex -20.75 -57.974 10
      vertex -21.0607 -57.7357 10
    endloop
  endfacet
  facet normal 0.608587 0.793487 -0
    outer loop
      vertex -30.75 -57.974 10
      vertex -31.0607 -57.7357 15
      vertex -30.75 -57.974 15
    endloop
  endfacet
  facet normal 0.608587 0.793487 0
    outer loop
      vertex -31.0607 -57.7357 15
      vertex -30.75 -57.974 10
      vertex -31.0607 -57.7357 10
    endloop
  endfacet
  facet normal -0.991447 -0.130507 0
    outer loop
      vertex -28.5 -56.675 10
      vertex -28.5511 -56.2868 15
      vertex -28.5511 -56.2868 10
    endloop
  endfacet
  facet normal -0.991447 -0.130507 0
    outer loop
      vertex -28.5511 -56.2868 15
      vertex -28.5 -56.675 10
      vertex -28.5 -56.675 15
    endloop
  endfacet
  facet normal -0.382765 -0.923846 0
    outer loop
      vertex -29.6118 -55.2261 10
      vertex -29.25 -55.376 15
      vertex -29.6118 -55.2261 15
    endloop
  endfacet
  facet normal -0.382765 -0.923846 -0
    outer loop
      vertex -29.25 -55.376 15
      vertex -29.6118 -55.2261 10
      vertex -29.25 -55.376 10
    endloop
  endfacet
  facet normal -0.923846 -0.382765 0
    outer loop
      vertex -28.5511 -56.2868 10
      vertex -28.701 -55.925 15
      vertex -28.701 -55.925 10
    endloop
  endfacet
  facet normal -0.923846 -0.382765 0
    outer loop
      vertex -28.701 -55.925 15
      vertex -28.5511 -56.2868 10
      vertex -28.5511 -56.2868 15
    endloop
  endfacet
  facet normal 0.382765 -0.923846 0
    outer loop
      vertex -30.75 -55.376 10
      vertex -30.3882 -55.2261 15
      vertex -30.75 -55.376 15
    endloop
  endfacet
  facet normal 0.382765 -0.923846 0
    outer loop
      vertex -30.3882 -55.2261 15
      vertex -30.75 -55.376 10
      vertex -30.3882 -55.2261 10
    endloop
  endfacet
  facet normal -0.608587 0.793487 0
    outer loop
      vertex -28.9393 -57.7357 10
      vertex -29.25 -57.974 15
      vertex -28.9393 -57.7357 15
    endloop
  endfacet
  facet normal -0.608587 0.793487 0
    outer loop
      vertex -29.25 -57.974 15
      vertex -28.9393 -57.7357 10
      vertex -29.25 -57.974 10
    endloop
  endfacet
  facet normal 0.793487 -0.608587 0
    outer loop
      vertex -31.299 -55.925 15
      vertex -31.0607 -55.6143 10
      vertex -31.0607 -55.6143 15
    endloop
  endfacet
  facet normal 0.793487 -0.608587 0
    outer loop
      vertex -31.0607 -55.6143 10
      vertex -31.299 -55.925 15
      vertex -31.299 -55.925 10
    endloop
  endfacet
  facet normal 0.608587 -0.793487 0
    outer loop
      vertex -31.0607 -55.6143 10
      vertex -30.75 -55.376 15
      vertex -31.0607 -55.6143 15
    endloop
  endfacet
  facet normal 0.608587 -0.793487 0
    outer loop
      vertex -30.75 -55.376 15
      vertex -31.0607 -55.6143 10
      vertex -30.75 -55.376 10
    endloop
  endfacet
  facet normal -0.793487 0.608587 0
    outer loop
      vertex -28.9393 -57.7357 10
      vertex -28.701 -57.425 15
      vertex -28.701 -57.425 10
    endloop
  endfacet
  facet normal -0.793487 0.608587 0
    outer loop
      vertex -28.701 -57.425 15
      vertex -28.9393 -57.7357 10
      vertex -28.9393 -57.7357 15
    endloop
  endfacet
  facet normal -0.923846 0.382765 0
    outer loop
      vertex -28.701 -57.425 10
      vertex -28.5511 -57.0632 15
      vertex -28.5511 -57.0632 10
    endloop
  endfacet
  facet normal -0.923846 0.382765 0
    outer loop
      vertex -28.5511 -57.0632 15
      vertex -28.701 -57.425 10
      vertex -28.701 -57.425 15
    endloop
  endfacet
  facet normal 0.382765 0.923846 -0
    outer loop
      vertex -30.3882 -58.1239 10
      vertex -30.75 -57.974 15
      vertex -30.3882 -58.1239 15
    endloop
  endfacet
  facet normal 0.382765 0.923846 0
    outer loop
      vertex -30.75 -57.974 15
      vertex -30.3882 -58.1239 10
      vertex -30.75 -57.974 10
    endloop
  endfacet
  facet normal -0.608587 -0.793487 0
    outer loop
      vertex -29.25 -55.376 10
      vertex -28.9393 -55.6143 15
      vertex -29.25 -55.376 15
    endloop
  endfacet
  facet normal -0.608587 -0.793487 -0
    outer loop
      vertex -28.9393 -55.6143 15
      vertex -29.25 -55.376 10
      vertex -28.9393 -55.6143 10
    endloop
  endfacet
  facet normal -0.793487 -0.608587 0
    outer loop
      vertex -28.701 -55.925 10
      vertex -28.9393 -55.6143 15
      vertex -28.9393 -55.6143 10
    endloop
  endfacet
  facet normal -0.793487 -0.608587 0
    outer loop
      vertex -28.9393 -55.6143 15
      vertex -28.701 -55.925 10
      vertex -28.701 -55.925 15
    endloop
  endfacet
  facet normal 0.130507 0.991447 -0
    outer loop
      vertex -30 -58.175 10
      vertex -30.3882 -58.1239 15
      vertex -30 -58.175 15
    endloop
  endfacet
  facet normal 0.130507 0.991447 0
    outer loop
      vertex -30.3882 -58.1239 15
      vertex -30 -58.175 10
      vertex -30.3882 -58.1239 10
    endloop
  endfacet
  facet normal 0.991447 -0.130507 0
    outer loop
      vertex -31.5 -56.675 15
      vertex -31.4489 -56.2868 10
      vertex -31.4489 -56.2868 15
    endloop
  endfacet
  facet normal 0.991447 -0.130507 0
    outer loop
      vertex -31.4489 -56.2868 10
      vertex -31.5 -56.675 15
      vertex -31.5 -56.675 10
    endloop
  endfacet
  facet normal 0.991447 0.130507 0
    outer loop
      vertex -31.4489 -57.0632 15
      vertex -31.5 -56.675 10
      vertex -31.5 -56.675 15
    endloop
  endfacet
  facet normal 0.991447 0.130507 0
    outer loop
      vertex -31.5 -56.675 10
      vertex -31.4489 -57.0632 15
      vertex -31.4489 -57.0632 10
    endloop
  endfacet
  facet normal 0.130507 -0.991447 0
    outer loop
      vertex -30.3882 -55.2261 10
      vertex -30 -55.175 15
      vertex -30.3882 -55.2261 15
    endloop
  endfacet
  facet normal 0.130507 -0.991447 0
    outer loop
      vertex -30 -55.175 15
      vertex -30.3882 -55.2261 10
      vertex -30 -55.175 10
    endloop
  endfacet
  facet normal -0.130507 -0.991447 0
    outer loop
      vertex -30 -55.175 10
      vertex -29.6118 -55.2261 15
      vertex -30 -55.175 15
    endloop
  endfacet
  facet normal -0.130507 -0.991447 -0
    outer loop
      vertex -29.6118 -55.2261 15
      vertex -30 -55.175 10
      vertex -29.6118 -55.2261 10
    endloop
  endfacet
  facet normal 0.923846 -0.382765 0
    outer loop
      vertex -31.4489 -56.2868 15
      vertex -31.299 -55.925 10
      vertex -31.299 -55.925 15
    endloop
  endfacet
  facet normal 0.923846 -0.382765 0
    outer loop
      vertex -31.299 -55.925 10
      vertex -31.4489 -56.2868 15
      vertex -31.4489 -56.2868 10
    endloop
  endfacet
  facet normal 0.793487 0.608587 0
    outer loop
      vertex -31.0607 -57.7357 15
      vertex -31.299 -57.425 10
      vertex -31.299 -57.425 15
    endloop
  endfacet
  facet normal 0.793487 0.608587 0
    outer loop
      vertex -31.299 -57.425 10
      vertex -31.0607 -57.7357 15
      vertex -31.0607 -57.7357 10
    endloop
  endfacet
  facet normal -0.991447 0.130507 0
    outer loop
      vertex -28.5511 -57.0632 10
      vertex -28.5 -56.675 15
      vertex -28.5 -56.675 10
    endloop
  endfacet
  facet normal -0.991447 0.130507 0
    outer loop
      vertex -28.5 -56.675 15
      vertex -28.5511 -57.0632 10
      vertex -28.5511 -57.0632 15
    endloop
  endfacet
  facet normal -0.130507 0.991447 0
    outer loop
      vertex -29.6118 -58.1239 10
      vertex -30 -58.175 15
      vertex -29.6118 -58.1239 15
    endloop
  endfacet
  facet normal -0.130507 0.991447 0
    outer loop
      vertex -30 -58.175 15
      vertex -29.6118 -58.1239 10
      vertex -30 -58.175 10
    endloop
  endfacet
  facet normal -0.382765 0.923846 0
    outer loop
      vertex -29.25 -57.974 10
      vertex -29.6118 -58.1239 15
      vertex -29.25 -57.974 15
    endloop
  endfacet
  facet normal -0.382765 0.923846 0
    outer loop
      vertex -29.6118 -58.1239 15
      vertex -29.25 -57.974 10
      vertex -29.6118 -58.1239 10
    endloop
  endfacet
  facet normal 0.923846 0.382765 0
    outer loop
      vertex -31.299 -57.425 15
      vertex -31.4489 -57.0632 10
      vertex -31.4489 -57.0632 15
    endloop
  endfacet
  facet normal 0.923846 0.382765 0
    outer loop
      vertex -31.4489 -57.0632 10
      vertex -31.299 -57.425 15
      vertex -31.299 -57.425 10
    endloop
  endfacet
  facet normal -0.923846 -0.382765 0
    outer loop
      vertex -38.5511 -56.2868 10
      vertex -38.701 -55.925 15
      vertex -38.701 -55.925 10
    endloop
  endfacet
  facet normal -0.923846 -0.382765 0
    outer loop
      vertex -38.701 -55.925 15
      vertex -38.5511 -56.2868 10
      vertex -38.5511 -56.2868 15
    endloop
  endfacet
  facet normal -0.991447 -0.130507 0
    outer loop
      vertex -38.5 -56.675 10
      vertex -38.5511 -56.2868 15
      vertex -38.5511 -56.2868 10
    endloop
  endfacet
  facet normal -0.991447 -0.130507 0
    outer loop
      vertex -38.5511 -56.2868 15
      vertex -38.5 -56.675 10
      vertex -38.5 -56.675 15
    endloop
  endfacet
  facet normal -0.793487 -0.608587 0
    outer loop
      vertex -38.701 -55.925 10
      vertex -38.9393 -55.6143 15
      vertex -38.9393 -55.6143 10
    endloop
  endfacet
  facet normal -0.793487 -0.608587 0
    outer loop
      vertex -38.9393 -55.6143 15
      vertex -38.701 -55.925 10
      vertex -38.701 -55.925 15
    endloop
  endfacet
  facet normal -0.793487 0.608587 0
    outer loop
      vertex -38.9393 -57.7357 10
      vertex -38.701 -57.425 15
      vertex -38.701 -57.425 10
    endloop
  endfacet
  facet normal -0.793487 0.608587 0
    outer loop
      vertex -38.701 -57.425 15
      vertex -38.9393 -57.7357 10
      vertex -38.9393 -57.7357 15
    endloop
  endfacet
  facet normal 0.382765 -0.923846 0
    outer loop
      vertex -40.75 -55.376 10
      vertex -40.3882 -55.2261 15
      vertex -40.75 -55.376 15
    endloop
  endfacet
  facet normal 0.382765 -0.923846 0
    outer loop
      vertex -40.3882 -55.2261 15
      vertex -40.75 -55.376 10
      vertex -40.3882 -55.2261 10
    endloop
  endfacet
  facet normal 0.382765 0.923846 -0
    outer loop
      vertex -40.3882 -58.1239 10
      vertex -40.75 -57.974 15
      vertex -40.3882 -58.1239 15
    endloop
  endfacet
  facet normal 0.382765 0.923846 0
    outer loop
      vertex -40.75 -57.974 15
      vertex -40.3882 -58.1239 10
      vertex -40.75 -57.974 10
    endloop
  endfacet
  facet normal 0.923846 0.382765 0
    outer loop
      vertex -41.299 -57.425 15
      vertex -41.4489 -57.0632 10
      vertex -41.4489 -57.0632 15
    endloop
  endfacet
  facet normal 0.923846 0.382765 0
    outer loop
      vertex -41.4489 -57.0632 10
      vertex -41.299 -57.425 15
      vertex -41.299 -57.425 10
    endloop
  endfacet
  facet normal -0.923846 0.382765 0
    outer loop
      vertex -38.701 -57.425 10
      vertex -38.5511 -57.0632 15
      vertex -38.5511 -57.0632 10
    endloop
  endfacet
  facet normal -0.923846 0.382765 0
    outer loop
      vertex -38.5511 -57.0632 15
      vertex -38.701 -57.425 10
      vertex -38.701 -57.425 15
    endloop
  endfacet
  facet normal -0.382765 0.923846 0
    outer loop
      vertex -39.25 -57.974 10
      vertex -39.6118 -58.1239 15
      vertex -39.25 -57.974 15
    endloop
  endfacet
  facet normal -0.382765 0.923846 0
    outer loop
      vertex -39.6118 -58.1239 15
      vertex -39.25 -57.974 10
      vertex -39.6118 -58.1239 10
    endloop
  endfacet
  facet normal -0.608587 0.793487 0
    outer loop
      vertex -38.9393 -57.7357 10
      vertex -39.25 -57.974 15
      vertex -38.9393 -57.7357 15
    endloop
  endfacet
  facet normal -0.608587 0.793487 0
    outer loop
      vertex -39.25 -57.974 15
      vertex -38.9393 -57.7357 10
      vertex -39.25 -57.974 10
    endloop
  endfacet
  facet normal 0.130507 -0.991447 0
    outer loop
      vertex -40.3882 -55.2261 10
      vertex -40 -55.175 15
      vertex -40.3882 -55.2261 15
    endloop
  endfacet
  facet normal 0.130507 -0.991447 0
    outer loop
      vertex -40 -55.175 15
      vertex -40.3882 -55.2261 10
      vertex -40 -55.175 10
    endloop
  endfacet
  facet normal -0.608587 -0.793487 0
    outer loop
      vertex -39.25 -55.376 10
      vertex -38.9393 -55.6143 15
      vertex -39.25 -55.376 15
    endloop
  endfacet
  facet normal -0.608587 -0.793487 -0
    outer loop
      vertex -38.9393 -55.6143 15
      vertex -39.25 -55.376 10
      vertex -38.9393 -55.6143 10
    endloop
  endfacet
  facet normal 0.991447 0.130507 0
    outer loop
      vertex -41.4489 -57.0632 15
      vertex -41.5 -56.675 10
      vertex -41.5 -56.675 15
    endloop
  endfacet
  facet normal 0.991447 0.130507 0
    outer loop
      vertex -41.5 -56.675 10
      vertex -41.4489 -57.0632 15
      vertex -41.4489 -57.0632 10
    endloop
  endfacet
  facet normal -0.130507 -0.991447 0
    outer loop
      vertex -40 -55.175 10
      vertex -39.6118 -55.2261 15
      vertex -40 -55.175 15
    endloop
  endfacet
  facet normal -0.130507 -0.991447 -0
    outer loop
      vertex -39.6118 -55.2261 15
      vertex -40 -55.175 10
      vertex -39.6118 -55.2261 10
    endloop
  endfacet
  facet normal 0.793487 -0.608587 0
    outer loop
      vertex -41.299 -55.925 15
      vertex -41.0607 -55.6143 10
      vertex -41.0607 -55.6143 15
    endloop
  endfacet
  facet normal 0.793487 -0.608587 0
    outer loop
      vertex -41.0607 -55.6143 10
      vertex -41.299 -55.925 15
      vertex -41.299 -55.925 10
    endloop
  endfacet
  facet normal 0.991447 -0.130507 0
    outer loop
      vertex -41.5 -56.675 15
      vertex -41.4489 -56.2868 10
      vertex -41.4489 -56.2868 15
    endloop
  endfacet
  facet normal 0.991447 -0.130507 0
    outer loop
      vertex -41.4489 -56.2868 10
      vertex -41.5 -56.675 15
      vertex -41.5 -56.675 10
    endloop
  endfacet
  facet normal 0.923846 -0.382765 0
    outer loop
      vertex -41.4489 -56.2868 15
      vertex -41.299 -55.925 10
      vertex -41.299 -55.925 15
    endloop
  endfacet
  facet normal 0.923846 -0.382765 0
    outer loop
      vertex -41.299 -55.925 10
      vertex -41.4489 -56.2868 15
      vertex -41.4489 -56.2868 10
    endloop
  endfacet
  facet normal 0.608587 -0.793487 0
    outer loop
      vertex -41.0607 -55.6143 10
      vertex -40.75 -55.376 15
      vertex -41.0607 -55.6143 15
    endloop
  endfacet
  facet normal 0.608587 -0.793487 0
    outer loop
      vertex -40.75 -55.376 15
      vertex -41.0607 -55.6143 10
      vertex -40.75 -55.376 10
    endloop
  endfacet
  facet normal -0.991447 0.130507 0
    outer loop
      vertex -38.5511 -57.0632 10
      vertex -38.5 -56.675 15
      vertex -38.5 -56.675 10
    endloop
  endfacet
  facet normal -0.991447 0.130507 0
    outer loop
      vertex -38.5 -56.675 15
      vertex -38.5511 -57.0632 10
      vertex -38.5511 -57.0632 15
    endloop
  endfacet
  facet normal -0.382765 -0.923846 0
    outer loop
      vertex -39.6118 -55.2261 10
      vertex -39.25 -55.376 15
      vertex -39.6118 -55.2261 15
    endloop
  endfacet
  facet normal -0.382765 -0.923846 -0
    outer loop
      vertex -39.25 -55.376 15
      vertex -39.6118 -55.2261 10
      vertex -39.25 -55.376 10
    endloop
  endfacet
  facet normal 0.130507 0.991447 -0
    outer loop
      vertex -40 -58.175 10
      vertex -40.3882 -58.1239 15
      vertex -40 -58.175 15
    endloop
  endfacet
  facet normal 0.130507 0.991447 0
    outer loop
      vertex -40.3882 -58.1239 15
      vertex -40 -58.175 10
      vertex -40.3882 -58.1239 10
    endloop
  endfacet
  facet normal -0.130507 0.991447 0
    outer loop
      vertex -39.6118 -58.1239 10
      vertex -40 -58.175 15
      vertex -39.6118 -58.1239 15
    endloop
  endfacet
  facet normal -0.130507 0.991447 0
    outer loop
      vertex -40 -58.175 15
      vertex -39.6118 -58.1239 10
      vertex -40 -58.175 10
    endloop
  endfacet
  facet normal 0.793487 0.608587 0
    outer loop
      vertex -41.0607 -57.7357 15
      vertex -41.299 -57.425 10
      vertex -41.299 -57.425 15
    endloop
  endfacet
  facet normal 0.793487 0.608587 0
    outer loop
      vertex -41.299 -57.425 10
      vertex -41.0607 -57.7357 15
      vertex -41.0607 -57.7357 10
    endloop
  endfacet
  facet normal 0.608587 0.793487 -0
    outer loop
      vertex -40.75 -57.974 10
      vertex -41.0607 -57.7357 15
      vertex -40.75 -57.974 15
    endloop
  endfacet
  facet normal 0.608587 0.793487 0
    outer loop
      vertex -41.0607 -57.7357 15
      vertex -40.75 -57.974 10
      vertex -41.0607 -57.7357 10
    endloop
  endfacet
  facet normal 0 1 -0
    outer loop
      vertex 45 -46.25 -15
      vertex -45 -46.25 -3.75
      vertex 45 -46.25 -3.75
    endloop
  endfacet
  facet normal 0 1 0
    outer loop
      vertex -45 -46.25 -3.75
      vertex 45 -46.25 -15
      vertex -45 -46.25 -15
    endloop
  endfacet
  facet normal 0 1 -0
    outer loop
      vertex 45 -46.25 3.75
      vertex -45 -46.25 15
      vertex 45 -46.25 15
    endloop
  endfacet
  facet normal 0 1 0
    outer loop
      vertex -45 -46.25 15
      vertex 45 -46.25 3.75
      vertex -45 -46.25 3.75
    endloop
  endfacet
  facet normal -1 0 0
    outer loop
      vertex 42.5 -66.675 -15
      vertex 42.5 -52.925 10
      vertex 42.5 -52.925 -15
    endloop
  endfacet
  facet normal -1 -0 0
    outer loop
      vertex 42.5 -52.925 10
      vertex 42.5 -66.675 -15
      vertex 42.5 -66.675 10
    endloop
  endfacet
  facet normal 0 0 -1
    outer loop
      vertex 42.5 -66.675 10
      vertex -8.5 -56.675 10
      vertex 42.5 -52.925 10
    endloop
  endfacet
  facet normal 0 0 -1
    outer loop
      vertex 42.5 -66.675 10
      vertex -8.55111 -57.0632 10
      vertex -8.5 -56.675 10
    endloop
  endfacet
  facet normal 0 0 -1
    outer loop
      vertex 42.5 -66.675 10
      vertex -8.70096 -57.425 10
      vertex -8.55111 -57.0632 10
    endloop
  endfacet
  facet normal 0 0 -1
    outer loop
      vertex 42.5 -66.675 10
      vertex -8.93934 -57.7357 10
      vertex -8.70096 -57.425 10
    endloop
  endfacet
  facet normal 0 0 -1
    outer loop
      vertex 42.5 -66.675 10
      vertex -9.25 -57.974 10
      vertex -8.93934 -57.7357 10
    endloop
  endfacet
  facet normal 0 0 -1
    outer loop
      vertex 42.5 -66.675 10
      vertex -9.61177 -58.1239 10
      vertex -9.25 -57.974 10
    endloop
  endfacet
  facet normal 0 0 -1
    outer loop
      vertex 42.5 -66.675 10
      vertex -10 -58.175 10
      vertex -9.61177 -58.1239 10
    endloop
  endfacet
  facet normal 0 0 -1
    outer loop
      vertex -42.5 -66.675 10
      vertex -10 -58.175 10
      vertex 42.5 -66.675 10
    endloop
  endfacet
  facet normal 0 0 -1
    outer loop
      vertex -11.4489 -57.0632 10
      vertex -18.5 -56.675 10
      vertex -11.5 -56.675 10
    endloop
  endfacet
  facet normal 0 0 -1
    outer loop
      vertex -18.5511 -57.0632 10
      vertex -11.4489 -57.0632 10
      vertex -11.299 -57.425 10
    endloop
  endfacet
  facet normal 0 0 -1
    outer loop
      vertex -18.701 -57.425 10
      vertex -11.299 -57.425 10
      vertex -11.0607 -57.7357 10
    endloop
  endfacet
  facet normal 0 0 -1
    outer loop
      vertex -18.9393 -57.7357 10
      vertex -11.0607 -57.7357 10
      vertex -10.75 -57.974 10
    endloop
  endfacet
  facet normal 0 0 -1
    outer loop
      vertex -19.25 -57.974 10
      vertex -10.75 -57.974 10
      vertex -10.3882 -58.1239 10
    endloop
  endfacet
  facet normal 0 0 -1
    outer loop
      vertex -11.4489 -57.0632 10
      vertex -18.5511 -57.0632 10
      vertex -18.5 -56.675 10
    endloop
  endfacet
  facet normal 0 -0 -1
    outer loop
      vertex -20 -58.175 10
      vertex -10 -58.175 10
      vertex -42.5 -66.675 10
    endloop
  endfacet
  facet normal 0 0 -1
    outer loop
      vertex -11.299 -57.425 10
      vertex -18.701 -57.425 10
      vertex -18.5511 -57.0632 10
    endloop
  endfacet
  facet normal 0 0 -1
    outer loop
      vertex -11.0607 -57.7357 10
      vertex -18.9393 -57.7357 10
      vertex -18.701 -57.425 10
    endloop
  endfacet
  facet normal 0 0 -1
    outer loop
      vertex -10.75 -57.974 10
      vertex -19.25 -57.974 10
      vertex -18.9393 -57.7357 10
    endloop
  endfacet
  facet normal 0 0 -1
    outer loop
      vertex -10.3882 -58.1239 10
      vertex -19.6118 -58.1239 10
      vertex -19.25 -57.974 10
    endloop
  endfacet
  facet normal 0 0 -1
    outer loop
      vertex -10 -58.175 10
      vertex -20 -58.175 10
      vertex -10.3882 -58.1239 10
    endloop
  endfacet
  facet normal -0 0 -1
    outer loop
      vertex -10.3882 -58.1239 10
      vertex -20 -58.175 10
      vertex -19.6118 -58.1239 10
    endloop
  endfacet
  facet normal 0 0 -1
    outer loop
      vertex -21.4489 -57.0632 10
      vertex -28.5 -56.675 10
      vertex -21.5 -56.675 10
    endloop
  endfacet
  facet normal 0 0 -1
    outer loop
      vertex -28.5511 -57.0632 10
      vertex -21.4489 -57.0632 10
      vertex -21.299 -57.425 10
    endloop
  endfacet
  facet normal 0 0 -1
    outer loop
      vertex -28.701 -57.425 10
      vertex -21.299 -57.425 10
      vertex -21.0607 -57.7357 10
    endloop
  endfacet
  facet normal 0 0 -1
    outer loop
      vertex -28.9393 -57.7357 10
      vertex -21.0607 -57.7357 10
      vertex -20.75 -57.974 10
    endloop
  endfacet
  facet normal 0 0 -1
    outer loop
      vertex -29.25 -57.974 10
      vertex -20.75 -57.974 10
      vertex -20.3882 -58.1239 10
    endloop
  endfacet
  facet normal 0 0 -1
    outer loop
      vertex -21.4489 -57.0632 10
      vertex -28.5511 -57.0632 10
      vertex -28.5 -56.675 10
    endloop
  endfacet
  facet normal -0 0 -1
    outer loop
      vertex -20 -58.175 10
      vertex -42.5 -66.675 10
      vertex -20.3882 -58.1239 10
    endloop
  endfacet
  facet normal 0 0 -1
    outer loop
      vertex -21.299 -57.425 10
      vertex -28.701 -57.425 10
      vertex -28.5511 -57.0632 10
    endloop
  endfacet
  facet normal 0 0 -1
    outer loop
      vertex -21.0607 -57.7357 10
      vertex -28.9393 -57.7357 10
      vertex -28.701 -57.425 10
    endloop
  endfacet
  facet normal 0 0 -1
    outer loop
      vertex -20.75 -57.974 10
      vertex -29.25 -57.974 10
      vertex -28.9393 -57.7357 10
    endloop
  endfacet
  facet normal 0 -0 -1
    outer loop
      vertex -29.6118 -58.1239 10
      vertex -20.3882 -58.1239 10
      vertex -42.5 -66.675 10
    endloop
  endfacet
  facet normal 0 0 -1
    outer loop
      vertex -20.3882 -58.1239 10
      vertex -29.6118 -58.1239 10
      vertex -29.25 -57.974 10
    endloop
  endfacet
  facet normal 0 0 -1
    outer loop
      vertex -31.4489 -57.0632 10
      vertex -38.5 -56.675 10
      vertex -31.5 -56.675 10
    endloop
  endfacet
  facet normal 0 0 -1
    outer loop
      vertex -38.5511 -57.0632 10
      vertex -31.4489 -57.0632 10
      vertex -31.299 -57.425 10
    endloop
  endfacet
  facet normal 0 0 -1
    outer loop
      vertex -38.701 -57.425 10
      vertex -31.299 -57.425 10
      vertex -31.0607 -57.7357 10
    endloop
  endfacet
  facet normal 0 0 -1
    outer loop
      vertex -38.9393 -57.7357 10
      vertex -31.0607 -57.7357 10
      vertex -30.75 -57.974 10
    endloop
  endfacet
  facet normal 0 0 -1
    outer loop
      vertex -42.5 -66.675 10
      vertex -30.75 -57.974 10
      vertex -30.3882 -58.1239 10
    endloop
  endfacet
  facet normal 0 0 -1
    outer loop
      vertex -31.4489 -57.0632 10
      vertex -38.5511 -57.0632 10
      vertex -38.5 -56.675 10
    endloop
  endfacet
  facet normal 0 0 -1
    outer loop
      vertex -42.5 -66.675 10
      vertex -30.3882 -58.1239 10
      vertex -30 -58.175 10
    endloop
  endfacet
  facet normal 0 0 -1
    outer loop
      vertex -31.299 -57.425 10
      vertex -38.701 -57.425 10
      vertex -38.5511 -57.0632 10
    endloop
  endfacet
  facet normal 0 0 -1
    outer loop
      vertex -29.6118 -58.1239 10
      vertex -42.5 -66.675 10
      vertex -30 -58.175 10
    endloop
  endfacet
  facet normal -0 0 -1
    outer loop
      vertex -30.75 -57.974 10
      vertex -42.5 -66.675 10
      vertex -39.25 -57.974 10
    endloop
  endfacet
  facet normal 0 0 -1
    outer loop
      vertex -31.0607 -57.7357 10
      vertex -38.9393 -57.7357 10
      vertex -38.701 -57.425 10
    endloop
  endfacet
  facet normal 0 0 -1
    outer loop
      vertex -30.75 -57.974 10
      vertex -39.25 -57.974 10
      vertex -38.9393 -57.7357 10
    endloop
  endfacet
  facet normal 0 0 -1
    outer loop
      vertex -39.25 -57.974 10
      vertex -42.5 -66.675 10
      vertex -39.6118 -58.1239 10
    endloop
  endfacet
  facet normal 0 0 -1
    outer loop
      vertex -42.5 -52.925 10
      vertex -41.4489 -57.0632 10
      vertex -42.5 -66.675 10
    endloop
  endfacet
  facet normal -0 0 -1
    outer loop
      vertex -41.299 -57.425 10
      vertex -42.5 -66.675 10
      vertex -41.4489 -57.0632 10
    endloop
  endfacet
  facet normal -0 0 -1
    outer loop
      vertex -41.0607 -57.7357 10
      vertex -42.5 -66.675 10
      vertex -41.299 -57.425 10
    endloop
  endfacet
  facet normal -0 0 -1
    outer loop
      vertex -40.75 -57.974 10
      vertex -42.5 -66.675 10
      vertex -41.0607 -57.7357 10
    endloop
  endfacet
  facet normal -0 0 -1
    outer loop
      vertex -40.3882 -58.1239 10
      vertex -42.5 -66.675 10
      vertex -40.75 -57.974 10
    endloop
  endfacet
  facet normal -0 0 -1
    outer loop
      vertex -40 -58.175 10
      vertex -42.5 -66.675 10
      vertex -40.3882 -58.1239 10
    endloop
  endfacet
  facet normal 0 0 -1
    outer loop
      vertex -39.6118 -58.1239 10
      vertex -42.5 -66.675 10
      vertex -40 -58.175 10
    endloop
  endfacet
  facet normal 0 0 -1
    outer loop
      vertex -8.55111 -56.2868 10
      vertex 42.5 -52.925 10
      vertex -8.5 -56.675 10
    endloop
  endfacet
  facet normal 0 0 -1
    outer loop
      vertex -8.70096 -55.925 10
      vertex 42.5 -52.925 10
      vertex -8.55111 -56.2868 10
    endloop
  endfacet
  facet normal 0 0 -1
    outer loop
      vertex -8.93934 -55.6143 10
      vertex 42.5 -52.925 10
      vertex -8.70096 -55.925 10
    endloop
  endfacet
  facet normal 0 0 -1
    outer loop
      vertex -9.25 -55.376 10
      vertex 42.5 -52.925 10
      vertex -8.93934 -55.6143 10
    endloop
  endfacet
  facet normal 0 0 -1
    outer loop
      vertex -9.61177 -55.2261 10
      vertex 42.5 -52.925 10
      vertex -9.25 -55.376 10
    endloop
  endfacet
  facet normal 0 0 -1
    outer loop
      vertex -10 -55.175 10
      vertex 42.5 -52.925 10
      vertex -9.61177 -55.2261 10
    endloop
  endfacet
  facet normal 0 0 -1
    outer loop
      vertex -18.5 -56.675 10
      vertex -11.4489 -56.2868 10
      vertex -11.5 -56.675 10
    endloop
  endfacet
  facet normal 0 0 -1
    outer loop
      vertex -18.5511 -56.2868 10
      vertex -11.4489 -56.2868 10
      vertex -18.5 -56.675 10
    endloop
  endfacet
  facet normal 0 0 -1
    outer loop
      vertex -11.4489 -56.2868 10
      vertex -18.5511 -56.2868 10
      vertex -11.299 -55.925 10
    endloop
  endfacet
  facet normal 0 0 -1
    outer loop
      vertex -18.701 -55.925 10
      vertex -11.299 -55.925 10
      vertex -18.5511 -56.2868 10
    endloop
  endfacet
  facet normal 0 0 -1
    outer loop
      vertex -11.299 -55.925 10
      vertex -18.701 -55.925 10
      vertex -11.0607 -55.6143 10
    endloop
  endfacet
  facet normal 0 0 -1
    outer loop
      vertex -18.9393 -55.6143 10
      vertex -11.0607 -55.6143 10
      vertex -18.701 -55.925 10
    endloop
  endfacet
  facet normal 0 0 -1
    outer loop
      vertex -11.0607 -55.6143 10
      vertex -18.9393 -55.6143 10
      vertex -10.75 -55.376 10
    endloop
  endfacet
  facet normal 0 0 -1
    outer loop
      vertex -19.25 -55.376 10
      vertex -10.75 -55.376 10
      vertex -18.9393 -55.6143 10
    endloop
  endfacet
  facet normal 0 0 -1
    outer loop
      vertex -10.75 -55.376 10
      vertex -19.25 -55.376 10
      vertex -10.3882 -55.2261 10
    endloop
  endfacet
  facet normal 0 0 -1
    outer loop
      vertex -19.6118 -55.2261 10
      vertex -10.3882 -55.2261 10
      vertex -19.25 -55.376 10
    endloop
  endfacet
  facet normal 0 0 -1
    outer loop
      vertex -10.3882 -55.2261 10
      vertex -19.6118 -55.2261 10
      vertex -10 -55.175 10
    endloop
  endfacet
  facet normal 0 0 -1
    outer loop
      vertex -20 -55.175 10
      vertex -10 -55.175 10
      vertex -19.6118 -55.2261 10
    endloop
  endfacet
  facet normal 0 0 -1
    outer loop
      vertex -42.5 -52.925 10
      vertex -10 -55.175 10
      vertex -20 -55.175 10
    endloop
  endfacet
  facet normal 0 0 -1
    outer loop
      vertex -28.5 -56.675 10
      vertex -21.4489 -56.2868 10
      vertex -21.5 -56.675 10
    endloop
  endfacet
  facet normal 0 0 -1
    outer loop
      vertex -28.5511 -56.2868 10
      vertex -21.4489 -56.2868 10
      vertex -28.5 -56.675 10
    endloop
  endfacet
  facet normal 0 0 -1
    outer loop
      vertex -21.4489 -56.2868 10
      vertex -28.5511 -56.2868 10
      vertex -21.299 -55.925 10
    endloop
  endfacet
  facet normal 0 0 -1
    outer loop
      vertex -28.701 -55.925 10
      vertex -21.299 -55.925 10
      vertex -28.5511 -56.2868 10
    endloop
  endfacet
  facet normal 0 0 -1
    outer loop
      vertex -21.299 -55.925 10
      vertex -28.701 -55.925 10
      vertex -21.0607 -55.6143 10
    endloop
  endfacet
  facet normal 0 0 -1
    outer loop
      vertex -28.9393 -55.6143 10
      vertex -21.0607 -55.6143 10
      vertex -28.701 -55.925 10
    endloop
  endfacet
  facet normal 0 0 -1
    outer loop
      vertex -21.0607 -55.6143 10
      vertex -28.9393 -55.6143 10
      vertex -20.75 -55.376 10
    endloop
  endfacet
  facet normal 0 0 -1
    outer loop
      vertex -29.25 -55.376 10
      vertex -20.75 -55.376 10
      vertex -28.9393 -55.6143 10
    endloop
  endfacet
  facet normal 0 0 -1
    outer loop
      vertex -20.75 -55.376 10
      vertex -29.25 -55.376 10
      vertex -20.3882 -55.2261 10
    endloop
  endfacet
  facet normal 0 0 -1
    outer loop
      vertex -29.6118 -55.2261 10
      vertex -20.3882 -55.2261 10
      vertex -29.25 -55.376 10
    endloop
  endfacet
  facet normal 0 0 -1
    outer loop
      vertex -20.3882 -55.2261 10
      vertex -29.6118 -55.2261 10
      vertex -20 -55.175 10
    endloop
  endfacet
  facet normal 0 0 -1
    outer loop
      vertex -30 -55.175 10
      vertex -20 -55.175 10
      vertex -29.6118 -55.2261 10
    endloop
  endfacet
  facet normal 0 0 -1
    outer loop
      vertex -20 -55.175 10
      vertex -30 -55.175 10
      vertex -42.5 -52.925 10
    endloop
  endfacet
  facet normal 0 0 -1
    outer loop
      vertex -38.5 -56.675 10
      vertex -31.4489 -56.2868 10
      vertex -31.5 -56.675 10
    endloop
  endfacet
  facet normal 0 0 -1
    outer loop
      vertex -38.5511 -56.2868 10
      vertex -31.4489 -56.2868 10
      vertex -38.5 -56.675 10
    endloop
  endfacet
  facet normal 0 0 -1
    outer loop
      vertex -31.4489 -56.2868 10
      vertex -38.5511 -56.2868 10
      vertex -31.299 -55.925 10
    endloop
  endfacet
  facet normal 0 0 -1
    outer loop
      vertex -38.701 -55.925 10
      vertex -31.299 -55.925 10
      vertex -38.5511 -56.2868 10
    endloop
  endfacet
  facet normal 0 0 -1
    outer loop
      vertex -31.299 -55.925 10
      vertex -38.701 -55.925 10
      vertex -31.0607 -55.6143 10
    endloop
  endfacet
  facet normal 0 0 -1
    outer loop
      vertex -38.9393 -55.6143 10
      vertex -31.0607 -55.6143 10
      vertex -38.701 -55.925 10
    endloop
  endfacet
  facet normal 0 0 -1
    outer loop
      vertex -31.0607 -55.6143 10
      vertex -38.9393 -55.6143 10
      vertex -30.75 -55.376 10
    endloop
  endfacet
  facet normal 0 0 -1
    outer loop
      vertex -39.25 -55.376 10
      vertex -30.75 -55.376 10
      vertex -38.9393 -55.6143 10
    endloop
  endfacet
  facet normal 0 0 -1
    outer loop
      vertex -42.5 -52.925 10
      vertex -30.75 -55.376 10
      vertex -39.25 -55.376 10
    endloop
  endfacet
  facet normal 0 0 -1
    outer loop
      vertex -30.75 -55.376 10
      vertex -42.5 -52.925 10
      vertex -30.3882 -55.2261 10
    endloop
  endfacet
  facet normal 0 0 -1
    outer loop
      vertex -30.3882 -55.2261 10
      vertex -42.5 -52.925 10
      vertex -30 -55.175 10
    endloop
  endfacet
  facet normal 0 0 -1
    outer loop
      vertex -42.5 -52.925 10
      vertex -39.25 -55.376 10
      vertex -39.6118 -55.2261 10
    endloop
  endfacet
  facet normal 0 0 -1
    outer loop
      vertex -42.5 -52.925 10
      vertex -39.6118 -55.2261 10
      vertex -40 -55.175 10
    endloop
  endfacet
  facet normal 0 0 -1
    outer loop
      vertex -10 -55.175 10
      vertex -42.5 -52.925 10
      vertex 42.5 -52.925 10
    endloop
  endfacet
  facet normal 0 0 -1
    outer loop
      vertex -40.3882 -55.2261 10
      vertex -42.5 -52.925 10
      vertex -40 -55.175 10
    endloop
  endfacet
  facet normal 0 0 -1
    outer loop
      vertex -40.75 -55.376 10
      vertex -42.5 -52.925 10
      vertex -40.3882 -55.2261 10
    endloop
  endfacet
  facet normal 0 0 -1
    outer loop
      vertex -41.0607 -55.6143 10
      vertex -42.5 -52.925 10
      vertex -40.75 -55.376 10
    endloop
  endfacet
  facet normal 0 0 -1
    outer loop
      vertex -41.299 -55.925 10
      vertex -42.5 -52.925 10
      vertex -41.0607 -55.6143 10
    endloop
  endfacet
  facet normal 0 0 -1
    outer loop
      vertex -41.4489 -56.2868 10
      vertex -42.5 -52.925 10
      vertex -41.299 -55.925 10
    endloop
  endfacet
  facet normal 0 0 -1
    outer loop
      vertex -41.5 -56.675 10
      vertex -42.5 -52.925 10
      vertex -41.4489 -56.2868 10
    endloop
  endfacet
  facet normal 0 0 -1
    outer loop
      vertex -41.4489 -57.0632 10
      vertex -42.5 -52.925 10
      vertex -41.5 -56.675 10
    endloop
  endfacet
  facet normal 1 -0 0
    outer loop
      vertex -42.5 -66.675 10
      vertex -42.5 -52.925 -15
      vertex -42.5 -52.925 10
    endloop
  endfacet
  facet normal 1 0 0
    outer loop
      vertex -42.5 -52.925 -15
      vertex -42.5 -66.675 10
      vertex -42.5 -66.675 -15
    endloop
  endfacet
  facet normal 0 -1 0
    outer loop
      vertex -42.5 -52.925 -15
      vertex 42.5 -52.925 10
      vertex -42.5 -52.925 10
    endloop
  endfacet
  facet normal 0 -1 -0
    outer loop
      vertex 42.5 -52.925 10
      vertex -42.5 -52.925 -15
      vertex 42.5 -52.925 -15
    endloop
  endfacet
  facet normal 0 0 1
    outer loop
      vertex 45 -46.25 15
      vertex -8.5 -56.675 15
      vertex 45 -66.675 15
    endloop
  endfacet
  facet normal 0 0 1
    outer loop
      vertex 45 -46.25 15
      vertex -8.55111 -56.2868 15
      vertex -8.5 -56.675 15
    endloop
  endfacet
  facet normal 0 0 1
    outer loop
      vertex 45 -46.25 15
      vertex -8.70096 -55.925 15
      vertex -8.55111 -56.2868 15
    endloop
  endfacet
  facet normal 0 0 1
    outer loop
      vertex 45 -46.25 15
      vertex -8.93934 -55.6143 15
      vertex -8.70096 -55.925 15
    endloop
  endfacet
  facet normal 0 0 1
    outer loop
      vertex 45 -46.25 15
      vertex -9.25 -55.376 15
      vertex -8.93934 -55.6143 15
    endloop
  endfacet
  facet normal 0 0 1
    outer loop
      vertex 45 -46.25 15
      vertex -9.61177 -55.2261 15
      vertex -9.25 -55.376 15
    endloop
  endfacet
  facet normal 0 0 1
    outer loop
      vertex 45 -46.25 15
      vertex -10 -55.175 15
      vertex -9.61177 -55.2261 15
    endloop
  endfacet
  facet normal -0 0 1
    outer loop
      vertex -45 -46.25 15
      vertex -10 -55.175 15
      vertex 45 -46.25 15
    endloop
  endfacet
  facet normal 0 0 1
    outer loop
      vertex -11.4489 -56.2868 15
      vertex -18.5 -56.675 15
      vertex -11.5 -56.675 15
    endloop
  endfacet
  facet normal 0 0 1
    outer loop
      vertex -18.5511 -56.2868 15
      vertex -11.4489 -56.2868 15
      vertex -11.299 -55.925 15
    endloop
  endfacet
  facet normal 0 0 1
    outer loop
      vertex -18.701 -55.925 15
      vertex -11.299 -55.925 15
      vertex -11.0607 -55.6143 15
    endloop
  endfacet
  facet normal 0 0 1
    outer loop
      vertex -18.9393 -55.6143 15
      vertex -11.0607 -55.6143 15
      vertex -10.75 -55.376 15
    endloop
  endfacet
  facet normal 0 0 1
    outer loop
      vertex -19.25 -55.376 15
      vertex -10.75 -55.376 15
      vertex -10.3882 -55.2261 15
    endloop
  endfacet
  facet normal 0 0 1
    outer loop
      vertex -11.4489 -56.2868 15
      vertex -18.5511 -56.2868 15
      vertex -18.5 -56.675 15
    endloop
  endfacet
  facet normal 0 -0 1
    outer loop
      vertex -20 -55.175 15
      vertex -10 -55.175 15
      vertex -45 -46.25 15
    endloop
  endfacet
  facet normal 0 0 1
    outer loop
      vertex -11.299 -55.925 15
      vertex -18.701 -55.925 15
      vertex -18.5511 -56.2868 15
    endloop
  endfacet
  facet normal 0 0 1
    outer loop
      vertex -11.0607 -55.6143 15
      vertex -18.9393 -55.6143 15
      vertex -18.701 -55.925 15
    endloop
  endfacet
  facet normal 0 0 1
    outer loop
      vertex -10.75 -55.376 15
      vertex -19.25 -55.376 15
      vertex -18.9393 -55.6143 15
    endloop
  endfacet
  facet normal 0 0 1
    outer loop
      vertex -10.3882 -55.2261 15
      vertex -19.6118 -55.2261 15
      vertex -19.25 -55.376 15
    endloop
  endfacet
  facet normal 0 0 1
    outer loop
      vertex -10 -55.175 15
      vertex -20 -55.175 15
      vertex -10.3882 -55.2261 15
    endloop
  endfacet
  facet normal 0 0 1
    outer loop
      vertex -10.3882 -55.2261 15
      vertex -20 -55.175 15
      vertex -19.6118 -55.2261 15
    endloop
  endfacet
  facet normal 0 0 1
    outer loop
      vertex -21.4489 -56.2868 15
      vertex -28.5 -56.675 15
      vertex -21.5 -56.675 15
    endloop
  endfacet
  facet normal 0 0 1
    outer loop
      vertex -28.5511 -56.2868 15
      vertex -21.4489 -56.2868 15
      vertex -21.299 -55.925 15
    endloop
  endfacet
  facet normal 0 0 1
    outer loop
      vertex -28.701 -55.925 15
      vertex -21.299 -55.925 15
      vertex -21.0607 -55.6143 15
    endloop
  endfacet
  facet normal 0 0 1
    outer loop
      vertex -28.9393 -55.6143 15
      vertex -21.0607 -55.6143 15
      vertex -20.75 -55.376 15
    endloop
  endfacet
  facet normal 0 0 1
    outer loop
      vertex -29.25 -55.376 15
      vertex -20.75 -55.376 15
      vertex -20.3882 -55.2261 15
    endloop
  endfacet
  facet normal 0 0 1
    outer loop
      vertex -21.4489 -56.2868 15
      vertex -28.5511 -56.2868 15
      vertex -28.5 -56.675 15
    endloop
  endfacet
  facet normal 0 0 1
    outer loop
      vertex -20 -55.175 15
      vertex -45 -46.25 15
      vertex -20.3882 -55.2261 15
    endloop
  endfacet
  facet normal 0 0 1
    outer loop
      vertex -21.299 -55.925 15
      vertex -28.701 -55.925 15
      vertex -28.5511 -56.2868 15
    endloop
  endfacet
  facet normal 0 0 1
    outer loop
      vertex -21.0607 -55.6143 15
      vertex -28.9393 -55.6143 15
      vertex -28.701 -55.925 15
    endloop
  endfacet
  facet normal 0 0 1
    outer loop
      vertex -20.75 -55.376 15
      vertex -29.25 -55.376 15
      vertex -28.9393 -55.6143 15
    endloop
  endfacet
  facet normal 0 -0 1
    outer loop
      vertex -29.6118 -55.2261 15
      vertex -20.3882 -55.2261 15
      vertex -45 -46.25 15
    endloop
  endfacet
  facet normal 0 0 1
    outer loop
      vertex -20.3882 -55.2261 15
      vertex -29.6118 -55.2261 15
      vertex -29.25 -55.376 15
    endloop
  endfacet
  facet normal 0 0 1
    outer loop
      vertex -31.4489 -56.2868 15
      vertex -38.5 -56.675 15
      vertex -31.5 -56.675 15
    endloop
  endfacet
  facet normal 0 0 1
    outer loop
      vertex -38.5511 -56.2868 15
      vertex -31.4489 -56.2868 15
      vertex -31.299 -55.925 15
    endloop
  endfacet
  facet normal 0 0 1
    outer loop
      vertex -38.701 -55.925 15
      vertex -31.299 -55.925 15
      vertex -31.0607 -55.6143 15
    endloop
  endfacet
  facet normal 0 0 1
    outer loop
      vertex -38.9393 -55.6143 15
      vertex -31.0607 -55.6143 15
      vertex -30.75 -55.376 15
    endloop
  endfacet
  facet normal 0 0 1
    outer loop
      vertex -45 -46.25 15
      vertex -30.75 -55.376 15
      vertex -30.3882 -55.2261 15
    endloop
  endfacet
  facet normal 0 0 1
    outer loop
      vertex -31.4489 -56.2868 15
      vertex -38.5511 -56.2868 15
      vertex -38.5 -56.675 15
    endloop
  endfacet
  facet normal 0 0 1
    outer loop
      vertex -45 -46.25 15
      vertex -30.3882 -55.2261 15
      vertex -30 -55.175 15
    endloop
  endfacet
  facet normal 0 0 1
    outer loop
      vertex -31.299 -55.925 15
      vertex -38.701 -55.925 15
      vertex -38.5511 -56.2868 15
    endloop
  endfacet
  facet normal 0 0 1
    outer loop
      vertex -29.6118 -55.2261 15
      vertex -45 -46.25 15
      vertex -30 -55.175 15
    endloop
  endfacet
  facet normal 0 0 1
    outer loop
      vertex -31.0607 -55.6143 15
      vertex -38.9393 -55.6143 15
      vertex -38.701 -55.925 15
    endloop
  endfacet
  facet normal 0 0 1
    outer loop
      vertex -30.75 -55.376 15
      vertex -45 -46.25 15
      vertex -39.25 -55.376 15
    endloop
  endfacet
  facet normal 0 0 1
    outer loop
      vertex -30.75 -55.376 15
      vertex -39.25 -55.376 15
      vertex -38.9393 -55.6143 15
    endloop
  endfacet
  facet normal 0 0 1
    outer loop
      vertex -39.25 -55.376 15
      vertex -45 -46.25 15
      vertex -39.6118 -55.2261 15
    endloop
  endfacet
  facet normal 0 0 1
    outer loop
      vertex -41.4489 -56.2868 15
      vertex -45 -46.25 15
      vertex -41.5 -56.675 15
    endloop
  endfacet
  facet normal 0 0 1
    outer loop
      vertex -41.299 -55.925 15
      vertex -45 -46.25 15
      vertex -41.4489 -56.2868 15
    endloop
  endfacet
  facet normal 0 0 1
    outer loop
      vertex -41.0607 -55.6143 15
      vertex -45 -46.25 15
      vertex -41.299 -55.925 15
    endloop
  endfacet
  facet normal 0 0 1
    outer loop
      vertex -40.75 -55.376 15
      vertex -45 -46.25 15
      vertex -41.0607 -55.6143 15
    endloop
  endfacet
  facet normal 0 0 1
    outer loop
      vertex -40.3882 -55.2261 15
      vertex -45 -46.25 15
      vertex -40.75 -55.376 15
    endloop
  endfacet
  facet normal 0 0 1
    outer loop
      vertex -40 -55.175 15
      vertex -45 -46.25 15
      vertex -40.3882 -55.2261 15
    endloop
  endfacet
  facet normal 0 0 1
    outer loop
      vertex -39.6118 -55.2261 15
      vertex -45 -46.25 15
      vertex -40 -55.175 15
    endloop
  endfacet
  facet normal -0 0 1
    outer loop
      vertex -8.55111 -57.0632 15
      vertex 45 -66.675 15
      vertex -8.5 -56.675 15
    endloop
  endfacet
  facet normal -0 0 1
    outer loop
      vertex -8.70096 -57.425 15
      vertex 45 -66.675 15
      vertex -8.55111 -57.0632 15
    endloop
  endfacet
  facet normal -0 0 1
    outer loop
      vertex -8.93934 -57.7357 15
      vertex 45 -66.675 15
      vertex -8.70096 -57.425 15
    endloop
  endfacet
  facet normal -0 0 1
    outer loop
      vertex -9.25 -57.974 15
      vertex 45 -66.675 15
      vertex -8.93934 -57.7357 15
    endloop
  endfacet
  facet normal -0 0 1
    outer loop
      vertex -9.61177 -58.1239 15
      vertex 45 -66.675 15
      vertex -9.25 -57.974 15
    endloop
  endfacet
  facet normal -0 0 1
    outer loop
      vertex -10 -58.175 15
      vertex 45 -66.675 15
      vertex -9.61177 -58.1239 15
    endloop
  endfacet
  facet normal 0 0 1
    outer loop
      vertex -20 -58.175 15
      vertex -10 -58.175 15
      vertex -10.3882 -58.1239 15
    endloop
  endfacet
  facet normal -0 0 1
    outer loop
      vertex -18.5 -56.675 15
      vertex -11.4489 -57.0632 15
      vertex -11.5 -56.675 15
    endloop
  endfacet
  facet normal 0 0 1
    outer loop
      vertex -18.5511 -57.0632 15
      vertex -11.4489 -57.0632 15
      vertex -18.5 -56.675 15
    endloop
  endfacet
  facet normal 0 0 1
    outer loop
      vertex -11.4489 -57.0632 15
      vertex -18.5511 -57.0632 15
      vertex -11.299 -57.425 15
    endloop
  endfacet
  facet normal 0 0 1
    outer loop
      vertex -18.701 -57.425 15
      vertex -11.299 -57.425 15
      vertex -18.5511 -57.0632 15
    endloop
  endfacet
  facet normal 0 0 1
    outer loop
      vertex -11.299 -57.425 15
      vertex -18.701 -57.425 15
      vertex -11.0607 -57.7357 15
    endloop
  endfacet
  facet normal 0 0 1
    outer loop
      vertex -18.9393 -57.7357 15
      vertex -11.0607 -57.7357 15
      vertex -18.701 -57.425 15
    endloop
  endfacet
  facet normal 0 0 1
    outer loop
      vertex -11.0607 -57.7357 15
      vertex -18.9393 -57.7357 15
      vertex -10.75 -57.974 15
    endloop
  endfacet
  facet normal 0 0 1
    outer loop
      vertex -19.25 -57.974 15
      vertex -10.75 -57.974 15
      vertex -18.9393 -57.7357 15
    endloop
  endfacet
  facet normal 0 0 1
    outer loop
      vertex -10.75 -57.974 15
      vertex -19.25 -57.974 15
      vertex -10.3882 -58.1239 15
    endloop
  endfacet
  facet normal 0 0 1
    outer loop
      vertex -19.6118 -58.1239 15
      vertex -10.3882 -58.1239 15
      vertex -19.25 -57.974 15
    endloop
  endfacet
  facet normal 0 0 1
    outer loop
      vertex -20 -58.175 15
      vertex -10.3882 -58.1239 15
      vertex -19.6118 -58.1239 15
    endloop
  endfacet
  facet normal 0 0 1
    outer loop
      vertex -10 -58.175 15
      vertex -20 -58.175 15
      vertex -45 -66.675 15
    endloop
  endfacet
  facet normal -0 0 1
    outer loop
      vertex -28.5 -56.675 15
      vertex -21.4489 -57.0632 15
      vertex -21.5 -56.675 15
    endloop
  endfacet
  facet normal 0 0 1
    outer loop
      vertex -28.5511 -57.0632 15
      vertex -21.4489 -57.0632 15
      vertex -28.5 -56.675 15
    endloop
  endfacet
  facet normal 0 0 1
    outer loop
      vertex -21.4489 -57.0632 15
      vertex -28.5511 -57.0632 15
      vertex -21.299 -57.425 15
    endloop
  endfacet
  facet normal 0 0 1
    outer loop
      vertex -28.701 -57.425 15
      vertex -21.299 -57.425 15
      vertex -28.5511 -57.0632 15
    endloop
  endfacet
  facet normal 0 0 1
    outer loop
      vertex -21.299 -57.425 15
      vertex -28.701 -57.425 15
      vertex -21.0607 -57.7357 15
    endloop
  endfacet
  facet normal 0 0 1
    outer loop
      vertex -28.9393 -57.7357 15
      vertex -21.0607 -57.7357 15
      vertex -28.701 -57.425 15
    endloop
  endfacet
  facet normal 0 0 1
    outer loop
      vertex -21.0607 -57.7357 15
      vertex -28.9393 -57.7357 15
      vertex -20.75 -57.974 15
    endloop
  endfacet
  facet normal 0 0 1
    outer loop
      vertex -29.25 -57.974 15
      vertex -20.75 -57.974 15
      vertex -28.9393 -57.7357 15
    endloop
  endfacet
  facet normal 0 0 1
    outer loop
      vertex -20.75 -57.974 15
      vertex -29.25 -57.974 15
      vertex -20.3882 -58.1239 15
    endloop
  endfacet
  facet normal 0 0 1
    outer loop
      vertex -29.6118 -58.1239 15
      vertex -20.3882 -58.1239 15
      vertex -29.25 -57.974 15
    endloop
  endfacet
  facet normal 0 0 1
    outer loop
      vertex -45 -66.675 15
      vertex -20.3882 -58.1239 15
      vertex -29.6118 -58.1239 15
    endloop
  endfacet
  facet normal 0 0 1
    outer loop
      vertex -20.3882 -58.1239 15
      vertex -45 -66.675 15
      vertex -20 -58.175 15
    endloop
  endfacet
  facet normal 0 0 1
    outer loop
      vertex -45 -66.675 15
      vertex -29.6118 -58.1239 15
      vertex -30 -58.175 15
    endloop
  endfacet
  facet normal -0 0 1
    outer loop
      vertex -38.5 -56.675 15
      vertex -31.4489 -57.0632 15
      vertex -31.5 -56.675 15
    endloop
  endfacet
  facet normal 0 0 1
    outer loop
      vertex -38.5511 -57.0632 15
      vertex -31.4489 -57.0632 15
      vertex -38.5 -56.675 15
    endloop
  endfacet
  facet normal 0 0 1
    outer loop
      vertex -31.4489 -57.0632 15
      vertex -38.5511 -57.0632 15
      vertex -31.299 -57.425 15
    endloop
  endfacet
  facet normal 0 0 1
    outer loop
      vertex -38.701 -57.425 15
      vertex -31.299 -57.425 15
      vertex -38.5511 -57.0632 15
    endloop
  endfacet
  facet normal 0 0 1
    outer loop
      vertex -31.299 -57.425 15
      vertex -38.701 -57.425 15
      vertex -31.0607 -57.7357 15
    endloop
  endfacet
  facet normal 0 0 1
    outer loop
      vertex -38.9393 -57.7357 15
      vertex -31.0607 -57.7357 15
      vertex -38.701 -57.425 15
    endloop
  endfacet
  facet normal 0 0 1
    outer loop
      vertex -31.0607 -57.7357 15
      vertex -38.9393 -57.7357 15
      vertex -30.75 -57.974 15
    endloop
  endfacet
  facet normal 0 0 1
    outer loop
      vertex -39.25 -57.974 15
      vertex -30.75 -57.974 15
      vertex -38.9393 -57.7357 15
    endloop
  endfacet
  facet normal 0 0 1
    outer loop
      vertex -45 -66.675 15
      vertex -30.75 -57.974 15
      vertex -39.25 -57.974 15
    endloop
  endfacet
  facet normal 0 0 1
    outer loop
      vertex -30.75 -57.974 15
      vertex -45 -66.675 15
      vertex -30.3882 -58.1239 15
    endloop
  endfacet
  facet normal 0 0 1
    outer loop
      vertex -30.3882 -58.1239 15
      vertex -45 -66.675 15
      vertex -30 -58.175 15
    endloop
  endfacet
  facet normal 0 0 1
    outer loop
      vertex -45 -66.675 15
      vertex -39.25 -57.974 15
      vertex -39.6118 -58.1239 15
    endloop
  endfacet
  facet normal 0 0 1
    outer loop
      vertex -45 -66.675 15
      vertex -39.6118 -58.1239 15
      vertex -40 -58.175 15
    endloop
  endfacet
  facet normal 0 0 1
    outer loop
      vertex -45 -66.675 15
      vertex -41.5 -56.675 15
      vertex -45 -46.25 15
    endloop
  endfacet
  facet normal 0 0 1
    outer loop
      vertex -10 -58.175 15
      vertex -45 -66.675 15
      vertex 45 -66.675 15
    endloop
  endfacet
  facet normal 0 0 1
    outer loop
      vertex -40.3882 -58.1239 15
      vertex -45 -66.675 15
      vertex -40 -58.175 15
    endloop
  endfacet
  facet normal 0 0 1
    outer loop
      vertex -40.75 -57.974 15
      vertex -45 -66.675 15
      vertex -40.3882 -58.1239 15
    endloop
  endfacet
  facet normal 0 0 1
    outer loop
      vertex -41.0607 -57.7357 15
      vertex -45 -66.675 15
      vertex -40.75 -57.974 15
    endloop
  endfacet
  facet normal 0 0 1
    outer loop
      vertex -41.299 -57.425 15
      vertex -45 -66.675 15
      vertex -41.0607 -57.7357 15
    endloop
  endfacet
  facet normal 0 0 1
    outer loop
      vertex -41.4489 -57.0632 15
      vertex -45 -66.675 15
      vertex -41.299 -57.425 15
    endloop
  endfacet
  facet normal 0 0 1
    outer loop
      vertex -41.5 -56.675 15
      vertex -45 -66.675 15
      vertex -41.4489 -57.0632 15
    endloop
  endfacet
  facet normal 0 0 -1
    outer loop
      vertex -42.5 -66.675 -15
      vertex -45 -66.675 -15
      vertex -42.5 -52.925 -15
    endloop
  endfacet
  facet normal 0 0 -1
    outer loop
      vertex 42.5 -52.925 -15
      vertex 45 -66.675 -15
      vertex 42.5 -66.675 -15
    endloop
  endfacet
  facet normal 0 0 -1
    outer loop
      vertex 45 -66.675 -15
      vertex 42.5 -52.925 -15
      vertex 45 -46.25 -15
    endloop
  endfacet
  facet normal 0 0 -1
    outer loop
      vertex -42.5 -52.925 -15
      vertex 45 -46.25 -15
      vertex 42.5 -52.925 -15
    endloop
  endfacet
  facet normal 0 0 -1
    outer loop
      vertex -42.5 -52.925 -15
      vertex -45 -46.25 -15
      vertex 45 -46.25 -15
    endloop
  endfacet
  facet normal 0 0 -1
    outer loop
      vertex -45 -46.25 -15
      vertex -42.5 -52.925 -15
      vertex -45 -66.675 -15
    endloop
  endfacet
  facet normal 0 -1 0
    outer loop
      vertex -45 -66.675 15
      vertex -42.5 -66.675 10
      vertex 45 -66.675 15
    endloop
  endfacet
  facet normal 0 -1 0
    outer loop
      vertex -45 -66.675 -15
      vertex -42.5 -66.675 10
      vertex -45 -66.675 15
    endloop
  endfacet
  facet normal 0 -1 -0
    outer loop
      vertex -42.5 -66.675 10
      vertex -45 -66.675 -15
      vertex -42.5 -66.675 -15
    endloop
  endfacet
  facet normal 0 -1 0
    outer loop
      vertex 42.5 -66.675 10
      vertex 45 -66.675 15
      vertex -42.5 -66.675 10
    endloop
  endfacet
  facet normal 0 -1 0
    outer loop
      vertex 45 -66.675 -15
      vertex 42.5 -66.675 10
      vertex 42.5 -66.675 -15
    endloop
  endfacet
  facet normal 0 -1 0
    outer loop
      vertex 42.5 -66.675 10
      vertex 45 -66.675 -15
      vertex 45 -66.675 15
    endloop
  endfacet
endsolid OpenSCAD_Model
