solid OpenSCAD_Model
  facet normal 0.965926 0.258819 0
    outer loop
      vertex 6.25353 1.10267 9.525
      vertex 5.96705 2.17183 0
      vertex 5.96705 2.17183 9.525
    endloop
  endfacet
  facet normal 0.965926 0.258819 0
    outer loop
      vertex 5.96705 2.17183 0
      vertex 6.25353 1.10267 9.525
      vertex 6.25353 1.10267 0
    endloop
  endfacet
  facet normal 0.996195 0.0871547 0
    outer loop
      vertex 6.35 0 9.525
      vertex 6.25353 1.10267 0
      vertex 6.25353 1.10267 9.525
    endloop
  endfacet
  facet normal 0.996195 0.0871547 0
    outer loop
      vertex 6.25353 1.10267 0
      vertex 6.35 0 9.525
      vertex 6.35 0 0
    endloop
  endfacet
  facet normal 0.906306 0.422621 0
    outer loop
      vertex 5.96705 2.17183 9.525
      vertex 5.49926 3.175 0
      vertex 5.49926 3.175 9.525
    endloop
  endfacet
  facet normal 0.906306 0.422621 0
    outer loop
      vertex 5.49926 3.175 0
      vertex 5.96705 2.17183 9.525
      vertex 5.96705 2.17183 0
    endloop
  endfacet
  facet normal 0.258819 -0.965926 0
    outer loop
      vertex 1.10267 -6.25353 0
      vertex 2.17183 -5.96705 9.525
      vertex 1.10267 -6.25353 9.525
    endloop
  endfacet
  facet normal 0.258819 -0.965926 0
    outer loop
      vertex 2.17183 -5.96705 9.525
      vertex 1.10267 -6.25353 0
      vertex 2.17183 -5.96705 0
    endloop
  endfacet
  facet normal -0.707107 0.707107 0
    outer loop
      vertex -4.86438 4.0817 0
      vertex -4.0817 4.86438 9.525
      vertex -4.0817 4.86438 0
    endloop
  endfacet
  facet normal -0.707107 0.707107 0
    outer loop
      vertex -4.0817 4.86438 9.525
      vertex -4.86438 4.0817 0
      vertex -4.86438 4.0817 9.525
    endloop
  endfacet
  facet normal 0.707107 0.707107 0
    outer loop
      vertex 4.86438 4.0817 9.525
      vertex 4.0817 4.86438 0
      vertex 4.0817 4.86438 9.525
    endloop
  endfacet
  facet normal 0.707107 0.707107 0
    outer loop
      vertex 4.0817 4.86438 0
      vertex 4.86438 4.0817 9.525
      vertex 4.86438 4.0817 0
    endloop
  endfacet
  facet normal -0.996195 0.0871547 0
    outer loop
      vertex -6.35 0 0
      vertex -6.25353 1.10267 9.525
      vertex -6.25353 1.10267 0
    endloop
  endfacet
  facet normal -0.996195 0.0871547 0
    outer loop
      vertex -6.25353 1.10267 9.525
      vertex -6.35 0 0
      vertex -6.35 0 9.525
    endloop
  endfacet
  facet normal -0.965926 -0.258819 0
    outer loop
      vertex -5.96705 -2.17183 0
      vertex -6.25353 -1.10267 9.525
      vertex -6.25353 -1.10267 0
    endloop
  endfacet
  facet normal -0.965926 -0.258819 0
    outer loop
      vertex -6.25353 -1.10267 9.525
      vertex -5.96705 -2.17183 0
      vertex -5.96705 -2.17183 9.525
    endloop
  endfacet
  facet normal -0.906306 0.422621 0
    outer loop
      vertex -5.96705 2.17183 0
      vertex -5.49926 3.175 9.525
      vertex -5.49926 3.175 0
    endloop
  endfacet
  facet normal -0.906306 0.422621 0
    outer loop
      vertex -5.49926 3.175 9.525
      vertex -5.96705 2.17183 0
      vertex -5.96705 2.17183 9.525
    endloop
  endfacet
  facet normal 0.0871547 0.996195 -0
    outer loop
      vertex 1.10267 6.25353 0
      vertex 0 6.35 9.525
      vertex 1.10267 6.25353 9.525
    endloop
  endfacet
  facet normal 0.0871547 0.996195 0
    outer loop
      vertex 0 6.35 9.525
      vertex 1.10267 6.25353 0
      vertex 0 6.35 0
    endloop
  endfacet
  facet normal 0 0 1
    outer loop
      vertex 6.25353 1.10267 9.525
      vertex 3.12676 0.551332 9.525
      vertex 3.175 0 9.525
    endloop
  endfacet
  facet normal 0 0 1
    outer loop
      vertex 4.0817 4.86438 9.525
      vertex 2.98352 1.08591 9.525
      vertex 3.12676 0.551332 9.525
    endloop
  endfacet
  facet normal 0 0 1
    outer loop
      vertex 4.0817 4.86438 9.525
      vertex 2.74963 1.5875 9.525
      vertex 2.98352 1.08591 9.525
    endloop
  endfacet
  facet normal 0 0 1
    outer loop
      vertex 4.0817 4.86438 9.525
      vertex 2.43219 2.04085 9.525
      vertex 2.74963 1.5875 9.525
    endloop
  endfacet
  facet normal 0 0 1
    outer loop
      vertex 1.5875 2.74963 9.525
      vertex 3.175 5.49926 9.525
      vertex 2.17183 5.96705 9.525
    endloop
  endfacet
  facet normal 0 0 1
    outer loop
      vertex 4.0817 4.86438 9.525
      vertex 2.04085 2.43219 9.525
      vertex 2.43219 2.04085 9.525
    endloop
  endfacet
  facet normal 0 0 1
    outer loop
      vertex 3.175 5.49926 9.525
      vertex 1.5875 2.74963 9.525
      vertex 2.04085 2.43219 9.525
    endloop
  endfacet
  facet normal 0 0 1
    outer loop
      vertex 1.08591 2.98352 9.525
      vertex 2.17183 5.96705 9.525
      vertex 1.10267 6.25353 9.525
    endloop
  endfacet
  facet normal 0 0 1
    outer loop
      vertex 2.17183 5.96705 9.525
      vertex 1.08591 2.98352 9.525
      vertex 1.5875 2.74963 9.525
    endloop
  endfacet
  facet normal 0 0 1
    outer loop
      vertex 1.10267 6.25353 9.525
      vertex 0.551332 3.12676 9.525
      vertex 1.08591 2.98352 9.525
    endloop
  endfacet
  facet normal 0 0 1
    outer loop
      vertex 0 6.35 9.525
      vertex 0.551332 3.12676 9.525
      vertex 1.10267 6.25353 9.525
    endloop
  endfacet
  facet normal 0 0 1
    outer loop
      vertex 0 6.35 9.525
      vertex 0 3.175 9.525
      vertex 0.551332 3.12676 9.525
    endloop
  endfacet
  facet normal 0 0 1
    outer loop
      vertex 0 6.35 9.525
      vertex -0.551332 3.12676 9.525
      vertex 0 3.175 9.525
    endloop
  endfacet
  facet normal -0 0 1
    outer loop
      vertex -1.10267 6.25353 9.525
      vertex -0.551332 3.12676 9.525
      vertex 0 6.35 9.525
    endloop
  endfacet
  facet normal 0 0 1
    outer loop
      vertex -0.551332 3.12676 9.525
      vertex -1.10267 6.25353 9.525
      vertex -1.08591 2.98352 9.525
    endloop
  endfacet
  facet normal -0 0 1
    outer loop
      vertex -2.17183 5.96705 9.525
      vertex -1.08591 2.98352 9.525
      vertex -1.10267 6.25353 9.525
    endloop
  endfacet
  facet normal 0 0 1
    outer loop
      vertex -1.08591 2.98352 9.525
      vertex -2.17183 5.96705 9.525
      vertex -1.5875 2.74963 9.525
    endloop
  endfacet
  facet normal -0 0 1
    outer loop
      vertex -3.175 5.49926 9.525
      vertex -1.5875 2.74963 9.525
      vertex -2.17183 5.96705 9.525
    endloop
  endfacet
  facet normal 0 0 1
    outer loop
      vertex -1.5875 2.74963 9.525
      vertex -3.175 5.49926 9.525
      vertex -2.04085 2.43219 9.525
    endloop
  endfacet
  facet normal -0 0 1
    outer loop
      vertex -4.0817 4.86438 9.525
      vertex -2.04085 2.43219 9.525
      vertex -3.175 5.49926 9.525
    endloop
  endfacet
  facet normal 0 0 1
    outer loop
      vertex -2.04085 2.43219 9.525
      vertex -4.0817 4.86438 9.525
      vertex -2.43219 2.04085 9.525
    endloop
  endfacet
  facet normal -0 0 1
    outer loop
      vertex -4.86438 4.0817 9.525
      vertex -2.43219 2.04085 9.525
      vertex -4.0817 4.86438 9.525
    endloop
  endfacet
  facet normal 0 0 1
    outer loop
      vertex -2.43219 2.04085 9.525
      vertex -4.86438 4.0817 9.525
      vertex -2.74963 1.5875 9.525
    endloop
  endfacet
  facet normal -0 0 1
    outer loop
      vertex -5.49926 3.175 9.525
      vertex -2.74963 1.5875 9.525
      vertex -4.86438 4.0817 9.525
    endloop
  endfacet
  facet normal 0 0 1
    outer loop
      vertex -2.74963 1.5875 9.525
      vertex -5.49926 3.175 9.525
      vertex -2.98352 1.08591 9.525
    endloop
  endfacet
  facet normal -0 0 1
    outer loop
      vertex -5.96705 2.17183 9.525
      vertex -2.98352 1.08591 9.525
      vertex -5.49926 3.175 9.525
    endloop
  endfacet
  facet normal 0 0 1
    outer loop
      vertex -3.175 0 9.525
      vertex -4.0817 -4.86438 9.525
      vertex -3.175 -5.49926 9.525
    endloop
  endfacet
  facet normal 0 0 1
    outer loop
      vertex -2.98352 1.08591 9.525
      vertex -5.96705 2.17183 9.525
      vertex -3.12676 0.551332 9.525
    endloop
  endfacet
  facet normal 0 0 1
    outer loop
      vertex -3.175 0 9.525
      vertex -4.86438 -4.0817 9.525
      vertex -4.0817 -4.86438 9.525
    endloop
  endfacet
  facet normal -0 0 1
    outer loop
      vertex -6.25353 1.10267 9.525
      vertex -3.12676 0.551332 9.525
      vertex -5.96705 2.17183 9.525
    endloop
  endfacet
  facet normal 0 0 1
    outer loop
      vertex -3.175 0 9.525
      vertex -5.49926 -3.175 9.525
      vertex -4.86438 -4.0817 9.525
    endloop
  endfacet
  facet normal 0 0 1
    outer loop
      vertex -3.12676 0.551332 9.525
      vertex -6.25353 1.10267 9.525
      vertex -3.175 0 9.525
    endloop
  endfacet
  facet normal 0 0 1
    outer loop
      vertex -3.175 0 9.525
      vertex -5.96705 -2.17183 9.525
      vertex -5.49926 -3.175 9.525
    endloop
  endfacet
  facet normal 0 0 1
    outer loop
      vertex -6.35 0 9.525
      vertex -3.175 0 9.525
      vertex -6.25353 1.10267 9.525
    endloop
  endfacet
  facet normal 0 0 1
    outer loop
      vertex -3.175 0 9.525
      vertex -6.25353 -1.10267 9.525
      vertex -5.96705 -2.17183 9.525
    endloop
  endfacet
  facet normal 0 0 1
    outer loop
      vertex -3.175 0 9.525
      vertex -6.35 0 9.525
      vertex -6.25353 -1.10267 9.525
    endloop
  endfacet
  facet normal 0 0 1
    outer loop
      vertex 3.175 0 9.525
      vertex 6.35 0 9.525
      vertex 6.25353 1.10267 9.525
    endloop
  endfacet
  facet normal 0 0 1
    outer loop
      vertex 3.12676 0.551332 9.525
      vertex 6.25353 1.10267 9.525
      vertex 5.96705 2.17183 9.525
    endloop
  endfacet
  facet normal 0 0 1
    outer loop
      vertex 6.35 0 9.525
      vertex 3.175 0 9.525
      vertex 6.25353 -1.10267 9.525
    endloop
  endfacet
  facet normal 0 0 1
    outer loop
      vertex 3.12676 0.551332 9.525
      vertex 5.96705 2.17183 9.525
      vertex 5.49926 3.175 9.525
    endloop
  endfacet
  facet normal -0 0 1
    outer loop
      vertex 3.12676 -0.551332 9.525
      vertex 6.25353 -1.10267 9.525
      vertex 3.175 0 9.525
    endloop
  endfacet
  facet normal 0 0 1
    outer loop
      vertex 3.12676 0.551332 9.525
      vertex 5.49926 3.175 9.525
      vertex 4.86438 4.0817 9.525
    endloop
  endfacet
  facet normal 0 0 1
    outer loop
      vertex 6.25353 -1.10267 9.525
      vertex 3.12676 -0.551332 9.525
      vertex 5.96705 -2.17183 9.525
    endloop
  endfacet
  facet normal 0 0 1
    outer loop
      vertex 3.12676 0.551332 9.525
      vertex 4.86438 4.0817 9.525
      vertex 4.0817 4.86438 9.525
    endloop
  endfacet
  facet normal -0 0 1
    outer loop
      vertex 2.98352 -1.08591 9.525
      vertex 5.96705 -2.17183 9.525
      vertex 3.12676 -0.551332 9.525
    endloop
  endfacet
  facet normal 0 0 1
    outer loop
      vertex 2.04085 2.43219 9.525
      vertex 4.0817 4.86438 9.525
      vertex 3.175 5.49926 9.525
    endloop
  endfacet
  facet normal 0 0 1
    outer loop
      vertex 5.96705 -2.17183 9.525
      vertex 2.98352 -1.08591 9.525
      vertex 5.49926 -3.175 9.525
    endloop
  endfacet
  facet normal -0 0 1
    outer loop
      vertex 2.74963 -1.5875 9.525
      vertex 5.49926 -3.175 9.525
      vertex 2.98352 -1.08591 9.525
    endloop
  endfacet
  facet normal 0 0 1
    outer loop
      vertex 5.49926 -3.175 9.525
      vertex 2.74963 -1.5875 9.525
      vertex 4.86438 -4.0817 9.525
    endloop
  endfacet
  facet normal -0 0 1
    outer loop
      vertex 2.43219 -2.04085 9.525
      vertex 4.86438 -4.0817 9.525
      vertex 2.74963 -1.5875 9.525
    endloop
  endfacet
  facet normal 0 0 1
    outer loop
      vertex 4.86438 -4.0817 9.525
      vertex 2.43219 -2.04085 9.525
      vertex 4.0817 -4.86438 9.525
    endloop
  endfacet
  facet normal -0 0 1
    outer loop
      vertex 2.04085 -2.43219 9.525
      vertex 4.0817 -4.86438 9.525
      vertex 2.43219 -2.04085 9.525
    endloop
  endfacet
  facet normal 0 0 1
    outer loop
      vertex 4.0817 -4.86438 9.525
      vertex 2.04085 -2.43219 9.525
      vertex 3.175 -5.49926 9.525
    endloop
  endfacet
  facet normal -0 0 1
    outer loop
      vertex 1.5875 -2.74963 9.525
      vertex 3.175 -5.49926 9.525
      vertex 2.04085 -2.43219 9.525
    endloop
  endfacet
  facet normal 0 0 1
    outer loop
      vertex 3.175 -5.49926 9.525
      vertex 1.5875 -2.74963 9.525
      vertex 2.17183 -5.96705 9.525
    endloop
  endfacet
  facet normal -0 0 1
    outer loop
      vertex 1.08591 -2.98352 9.525
      vertex 2.17183 -5.96705 9.525
      vertex 1.5875 -2.74963 9.525
    endloop
  endfacet
  facet normal 0 0 1
    outer loop
      vertex 2.17183 -5.96705 9.525
      vertex 1.08591 -2.98352 9.525
      vertex 1.10267 -6.25353 9.525
    endloop
  endfacet
  facet normal -0 0 1
    outer loop
      vertex 0.551332 -3.12676 9.525
      vertex 1.10267 -6.25353 9.525
      vertex 1.08591 -2.98352 9.525
    endloop
  endfacet
  facet normal -0 0 1
    outer loop
      vertex 0 -3.175 9.525
      vertex 1.10267 -6.25353 9.525
      vertex 0.551332 -3.12676 9.525
    endloop
  endfacet
  facet normal 0 0 1
    outer loop
      vertex 0 -3.175 9.525
      vertex 0 -6.35 9.525
      vertex 1.10267 -6.25353 9.525
    endloop
  endfacet
  facet normal 0 0 1
    outer loop
      vertex -0.551332 -3.12676 9.525
      vertex 0 -6.35 9.525
      vertex 0 -3.175 9.525
    endloop
  endfacet
  facet normal 0 0 1
    outer loop
      vertex -1.10267 -6.25353 9.525
      vertex -0.551332 -3.12676 9.525
      vertex -1.08591 -2.98352 9.525
    endloop
  endfacet
  facet normal 0 0 1
    outer loop
      vertex -0.551332 -3.12676 9.525
      vertex -1.10267 -6.25353 9.525
      vertex 0 -6.35 9.525
    endloop
  endfacet
  facet normal 0 0 1
    outer loop
      vertex -2.17183 -5.96705 9.525
      vertex -1.08591 -2.98352 9.525
      vertex -1.5875 -2.74963 9.525
    endloop
  endfacet
  facet normal 0 0 1
    outer loop
      vertex -3.175 -5.49926 9.525
      vertex -1.5875 -2.74963 9.525
      vertex -2.04085 -2.43219 9.525
    endloop
  endfacet
  facet normal 0 0 1
    outer loop
      vertex -1.08591 -2.98352 9.525
      vertex -2.17183 -5.96705 9.525
      vertex -1.10267 -6.25353 9.525
    endloop
  endfacet
  facet normal 0 0 1
    outer loop
      vertex -3.175 -5.49926 9.525
      vertex -2.04085 -2.43219 9.525
      vertex -2.43219 -2.04085 9.525
    endloop
  endfacet
  facet normal 0 0 1
    outer loop
      vertex -3.175 -5.49926 9.525
      vertex -2.43219 -2.04085 9.525
      vertex -2.74963 -1.5875 9.525
    endloop
  endfacet
  facet normal 0 0 1
    outer loop
      vertex -3.175 -5.49926 9.525
      vertex -2.74963 -1.5875 9.525
      vertex -2.98352 -1.08591 9.525
    endloop
  endfacet
  facet normal 0 0 1
    outer loop
      vertex -3.175 -5.49926 9.525
      vertex -2.98352 -1.08591 9.525
      vertex -3.12676 -0.551332 9.525
    endloop
  endfacet
  facet normal 0 0 1
    outer loop
      vertex -1.5875 -2.74963 9.525
      vertex -3.175 -5.49926 9.525
      vertex -2.17183 -5.96705 9.525
    endloop
  endfacet
  facet normal 0 0 1
    outer loop
      vertex -3.175 -5.49926 9.525
      vertex -3.12676 -0.551332 9.525
      vertex -3.175 0 9.525
    endloop
  endfacet
  facet normal -0.422621 0.906306 0
    outer loop
      vertex -2.17183 5.96705 0
      vertex -3.175 5.49926 9.525
      vertex -2.17183 5.96705 9.525
    endloop
  endfacet
  facet normal -0.422621 0.906306 0
    outer loop
      vertex -3.175 5.49926 9.525
      vertex -2.17183 5.96705 0
      vertex -3.175 5.49926 0
    endloop
  endfacet
  facet normal 0.996195 -0.0871547 0
    outer loop
      vertex 6.25353 -1.10267 9.525
      vertex 6.35 0 0
      vertex 6.35 0 9.525
    endloop
  endfacet
  facet normal 0.996195 -0.0871547 0
    outer loop
      vertex 6.35 0 0
      vertex 6.25353 -1.10267 9.525
      vertex 6.25353 -1.10267 0
    endloop
  endfacet
  facet normal 0.0871547 -0.996195 0
    outer loop
      vertex 0 -6.35 0
      vertex 1.10267 -6.25353 9.525
      vertex 0 -6.35 9.525
    endloop
  endfacet
  facet normal 0.0871547 -0.996195 0
    outer loop
      vertex 1.10267 -6.25353 9.525
      vertex 0 -6.35 0
      vertex 1.10267 -6.25353 0
    endloop
  endfacet
  facet normal -0.573578 0.819151 0
    outer loop
      vertex -3.175 5.49926 0
      vertex -4.0817 4.86438 9.525
      vertex -3.175 5.49926 9.525
    endloop
  endfacet
  facet normal -0.573578 0.819151 0
    outer loop
      vertex -4.0817 4.86438 9.525
      vertex -3.175 5.49926 0
      vertex -4.0817 4.86438 0
    endloop
  endfacet
  facet normal 0.819151 0.573578 0
    outer loop
      vertex 5.49926 3.175 9.525
      vertex 4.86438 4.0817 0
      vertex 4.86438 4.0817 9.525
    endloop
  endfacet
  facet normal 0.819151 0.573578 0
    outer loop
      vertex 4.86438 4.0817 0
      vertex 5.49926 3.175 9.525
      vertex 5.49926 3.175 0
    endloop
  endfacet
  facet normal -0.258819 0.965926 0
    outer loop
      vertex -1.10267 6.25353 0
      vertex -2.17183 5.96705 9.525
      vertex -1.10267 6.25353 9.525
    endloop
  endfacet
  facet normal -0.258819 0.965926 0
    outer loop
      vertex -2.17183 5.96705 9.525
      vertex -1.10267 6.25353 0
      vertex -2.17183 5.96705 0
    endloop
  endfacet
  facet normal -0.0871547 0.996195 0
    outer loop
      vertex 0 6.35 0
      vertex -1.10267 6.25353 9.525
      vertex 0 6.35 9.525
    endloop
  endfacet
  facet normal -0.0871547 0.996195 0
    outer loop
      vertex -1.10267 6.25353 9.525
      vertex 0 6.35 0
      vertex -1.10267 6.25353 0
    endloop
  endfacet
  facet normal -0.707107 -0.707107 0
    outer loop
      vertex -4.0817 -4.86438 0
      vertex -4.86438 -4.0817 9.525
      vertex -4.86438 -4.0817 0
    endloop
  endfacet
  facet normal -0.707107 -0.707107 0
    outer loop
      vertex -4.86438 -4.0817 9.525
      vertex -4.0817 -4.86438 0
      vertex -4.0817 -4.86438 9.525
    endloop
  endfacet
  facet normal 0.707107 -0.707107 0
    outer loop
      vertex 4.0817 -4.86438 9.525
      vertex 4.86438 -4.0817 0
      vertex 4.86438 -4.0817 9.525
    endloop
  endfacet
  facet normal 0.707107 -0.707107 0
    outer loop
      vertex 4.86438 -4.0817 0
      vertex 4.0817 -4.86438 9.525
      vertex 4.0817 -4.86438 0
    endloop
  endfacet
  facet normal -0.965926 0.258819 0
    outer loop
      vertex -6.25353 1.10267 0
      vertex -5.96705 2.17183 9.525
      vertex -5.96705 2.17183 0
    endloop
  endfacet
  facet normal -0.965926 0.258819 0
    outer loop
      vertex -5.96705 2.17183 9.525
      vertex -6.25353 1.10267 0
      vertex -6.25353 1.10267 9.525
    endloop
  endfacet
  facet normal 0.422621 0.906306 -0
    outer loop
      vertex 3.175 5.49926 0
      vertex 2.17183 5.96705 9.525
      vertex 3.175 5.49926 9.525
    endloop
  endfacet
  facet normal 0.422621 0.906306 0
    outer loop
      vertex 2.17183 5.96705 9.525
      vertex 3.175 5.49926 0
      vertex 2.17183 5.96705 0
    endloop
  endfacet
  facet normal -0.996195 -0.0871547 0
    outer loop
      vertex -6.25353 -1.10267 0
      vertex -6.35 0 9.525
      vertex -6.35 0 0
    endloop
  endfacet
  facet normal -0.996195 -0.0871547 0
    outer loop
      vertex -6.35 0 9.525
      vertex -6.25353 -1.10267 0
      vertex -6.25353 -1.10267 9.525
    endloop
  endfacet
  facet normal 0.573578 -0.819151 0
    outer loop
      vertex 3.175 -5.49926 0
      vertex 4.0817 -4.86438 9.525
      vertex 3.175 -5.49926 9.525
    endloop
  endfacet
  facet normal 0.573578 -0.819151 0
    outer loop
      vertex 4.0817 -4.86438 9.525
      vertex 3.175 -5.49926 0
      vertex 4.0817 -4.86438 0
    endloop
  endfacet
  facet normal 0.573578 0.819151 -0
    outer loop
      vertex 4.0817 4.86438 0
      vertex 3.175 5.49926 9.525
      vertex 4.0817 4.86438 9.525
    endloop
  endfacet
  facet normal 0.573578 0.819151 0
    outer loop
      vertex 3.175 5.49926 9.525
      vertex 4.0817 4.86438 0
      vertex 3.175 5.49926 0
    endloop
  endfacet
  facet normal 0.965926 -0.258819 0
    outer loop
      vertex 5.96705 -2.17183 9.525
      vertex 6.25353 -1.10267 0
      vertex 6.25353 -1.10267 9.525
    endloop
  endfacet
  facet normal 0.965926 -0.258819 0
    outer loop
      vertex 6.25353 -1.10267 0
      vertex 5.96705 -2.17183 9.525
      vertex 5.96705 -2.17183 0
    endloop
  endfacet
  facet normal -0.422621 -0.906306 0
    outer loop
      vertex -3.175 -5.49926 0
      vertex -2.17183 -5.96705 9.525
      vertex -3.175 -5.49926 9.525
    endloop
  endfacet
  facet normal -0.422621 -0.906306 -0
    outer loop
      vertex -2.17183 -5.96705 9.525
      vertex -3.175 -5.49926 0
      vertex -2.17183 -5.96705 0
    endloop
  endfacet
  facet normal 0.819151 -0.573578 0
    outer loop
      vertex 4.86438 -4.0817 9.525
      vertex 5.49926 -3.175 0
      vertex 5.49926 -3.175 9.525
    endloop
  endfacet
  facet normal 0.819151 -0.573578 0
    outer loop
      vertex 5.49926 -3.175 0
      vertex 4.86438 -4.0817 9.525
      vertex 4.86438 -4.0817 0
    endloop
  endfacet
  facet normal 0.906306 -0.422621 0
    outer loop
      vertex 5.49926 -3.175 9.525
      vertex 5.96705 -2.17183 0
      vertex 5.96705 -2.17183 9.525
    endloop
  endfacet
  facet normal 0.906306 -0.422621 0
    outer loop
      vertex 5.96705 -2.17183 0
      vertex 5.49926 -3.175 9.525
      vertex 5.49926 -3.175 0
    endloop
  endfacet
  facet normal -0.906306 -0.422621 0
    outer loop
      vertex -5.49926 -3.175 0
      vertex -5.96705 -2.17183 9.525
      vertex -5.96705 -2.17183 0
    endloop
  endfacet
  facet normal -0.906306 -0.422621 0
    outer loop
      vertex -5.96705 -2.17183 9.525
      vertex -5.49926 -3.175 0
      vertex -5.49926 -3.175 9.525
    endloop
  endfacet
  facet normal -0.819151 -0.573578 0
    outer loop
      vertex -4.86438 -4.0817 0
      vertex -5.49926 -3.175 9.525
      vertex -5.49926 -3.175 0
    endloop
  endfacet
  facet normal -0.819151 -0.573578 0
    outer loop
      vertex -5.49926 -3.175 9.525
      vertex -4.86438 -4.0817 0
      vertex -4.86438 -4.0817 9.525
    endloop
  endfacet
  facet normal 0.422621 -0.906306 0
    outer loop
      vertex 2.17183 -5.96705 0
      vertex 3.175 -5.49926 9.525
      vertex 2.17183 -5.96705 9.525
    endloop
  endfacet
  facet normal 0.422621 -0.906306 0
    outer loop
      vertex 3.175 -5.49926 9.525
      vertex 2.17183 -5.96705 0
      vertex 3.175 -5.49926 0
    endloop
  endfacet
  facet normal -0.819151 0.573578 0
    outer loop
      vertex -5.49926 3.175 0
      vertex -4.86438 4.0817 9.525
      vertex -4.86438 4.0817 0
    endloop
  endfacet
  facet normal -0.819151 0.573578 0
    outer loop
      vertex -4.86438 4.0817 9.525
      vertex -5.49926 3.175 0
      vertex -5.49926 3.175 9.525
    endloop
  endfacet
  facet normal 0.258819 0.965926 -0
    outer loop
      vertex 2.17183 5.96705 0
      vertex 1.10267 6.25353 9.525
      vertex 2.17183 5.96705 9.525
    endloop
  endfacet
  facet normal 0.258819 0.965926 0
    outer loop
      vertex 1.10267 6.25353 9.525
      vertex 2.17183 5.96705 0
      vertex 1.10267 6.25353 0
    endloop
  endfacet
  facet normal -0.0871547 -0.996195 0
    outer loop
      vertex -1.10267 -6.25353 0
      vertex 0 -6.35 9.525
      vertex -1.10267 -6.25353 9.525
    endloop
  endfacet
  facet normal -0.0871547 -0.996195 -0
    outer loop
      vertex 0 -6.35 9.525
      vertex -1.10267 -6.25353 0
      vertex 0 -6.35 0
    endloop
  endfacet
  facet normal -0.258819 -0.965926 0
    outer loop
      vertex -2.17183 -5.96705 0
      vertex -1.10267 -6.25353 9.525
      vertex -2.17183 -5.96705 9.525
    endloop
  endfacet
  facet normal -0.258819 -0.965926 -0
    outer loop
      vertex -1.10267 -6.25353 9.525
      vertex -2.17183 -5.96705 0
      vertex -1.10267 -6.25353 0
    endloop
  endfacet
  facet normal 0 0 -1
    outer loop
      vertex 6.25353 -1.10267 0
      vertex 3.12676 -0.551332 0
      vertex 3.175 0 0
    endloop
  endfacet
  facet normal 0 0 -1
    outer loop
      vertex 4.0817 -4.86438 0
      vertex 2.98352 -1.08591 0
      vertex 3.12676 -0.551332 0
    endloop
  endfacet
  facet normal 0 0 -1
    outer loop
      vertex 4.0817 -4.86438 0
      vertex 2.74963 -1.5875 0
      vertex 2.98352 -1.08591 0
    endloop
  endfacet
  facet normal 0 0 -1
    outer loop
      vertex 4.0817 -4.86438 0
      vertex 2.43219 -2.04085 0
      vertex 2.74963 -1.5875 0
    endloop
  endfacet
  facet normal 0 0 -1
    outer loop
      vertex 1.5875 -2.74963 0
      vertex 3.175 -5.49926 0
      vertex 2.17183 -5.96705 0
    endloop
  endfacet
  facet normal 0 0 -1
    outer loop
      vertex 4.0817 -4.86438 0
      vertex 2.04085 -2.43219 0
      vertex 2.43219 -2.04085 0
    endloop
  endfacet
  facet normal 0 0 -1
    outer loop
      vertex 3.175 -5.49926 0
      vertex 1.5875 -2.74963 0
      vertex 2.04085 -2.43219 0
    endloop
  endfacet
  facet normal 0 0 -1
    outer loop
      vertex 1.08591 -2.98352 0
      vertex 2.17183 -5.96705 0
      vertex 1.10267 -6.25353 0
    endloop
  endfacet
  facet normal 0 0 -1
    outer loop
      vertex 2.17183 -5.96705 0
      vertex 1.08591 -2.98352 0
      vertex 1.5875 -2.74963 0
    endloop
  endfacet
  facet normal 0 0 -1
    outer loop
      vertex 1.10267 -6.25353 0
      vertex 0.551332 -3.12676 0
      vertex 1.08591 -2.98352 0
    endloop
  endfacet
  facet normal 0 0 -1
    outer loop
      vertex 0 -6.35 0
      vertex 0.551332 -3.12676 0
      vertex 1.10267 -6.25353 0
    endloop
  endfacet
  facet normal 0 0 -1
    outer loop
      vertex 0 -6.35 0
      vertex 0 -3.175 0
      vertex 0.551332 -3.12676 0
    endloop
  endfacet
  facet normal 0 0 -1
    outer loop
      vertex 0 -6.35 0
      vertex -0.551332 -3.12676 0
      vertex 0 -3.175 0
    endloop
  endfacet
  facet normal 0 0 -1
    outer loop
      vertex -1.10267 -6.25353 0
      vertex -0.551332 -3.12676 0
      vertex 0 -6.35 0
    endloop
  endfacet
  facet normal -0 0 -1
    outer loop
      vertex -0.551332 -3.12676 0
      vertex -1.10267 -6.25353 0
      vertex -1.08591 -2.98352 0
    endloop
  endfacet
  facet normal 0 0 -1
    outer loop
      vertex -2.17183 -5.96705 0
      vertex -1.08591 -2.98352 0
      vertex -1.10267 -6.25353 0
    endloop
  endfacet
  facet normal -0 0 -1
    outer loop
      vertex -1.08591 -2.98352 0
      vertex -2.17183 -5.96705 0
      vertex -1.5875 -2.74963 0
    endloop
  endfacet
  facet normal 0 0 -1
    outer loop
      vertex -3.175 -5.49926 0
      vertex -1.5875 -2.74963 0
      vertex -2.17183 -5.96705 0
    endloop
  endfacet
  facet normal -0 0 -1
    outer loop
      vertex -1.5875 -2.74963 0
      vertex -3.175 -5.49926 0
      vertex -2.04085 -2.43219 0
    endloop
  endfacet
  facet normal 0 0 -1
    outer loop
      vertex -4.0817 -4.86438 0
      vertex -2.04085 -2.43219 0
      vertex -3.175 -5.49926 0
    endloop
  endfacet
  facet normal -0 0 -1
    outer loop
      vertex -2.04085 -2.43219 0
      vertex -4.0817 -4.86438 0
      vertex -2.43219 -2.04085 0
    endloop
  endfacet
  facet normal 0 0 -1
    outer loop
      vertex -4.86438 -4.0817 0
      vertex -2.43219 -2.04085 0
      vertex -4.0817 -4.86438 0
    endloop
  endfacet
  facet normal -0 0 -1
    outer loop
      vertex -2.43219 -2.04085 0
      vertex -4.86438 -4.0817 0
      vertex -2.74963 -1.5875 0
    endloop
  endfacet
  facet normal 0 0 -1
    outer loop
      vertex -5.49926 -3.175 0
      vertex -2.74963 -1.5875 0
      vertex -4.86438 -4.0817 0
    endloop
  endfacet
  facet normal -0 0 -1
    outer loop
      vertex -2.74963 -1.5875 0
      vertex -5.49926 -3.175 0
      vertex -2.98352 -1.08591 0
    endloop
  endfacet
  facet normal 0 0 -1
    outer loop
      vertex -5.96705 -2.17183 0
      vertex -2.98352 -1.08591 0
      vertex -5.49926 -3.175 0
    endloop
  endfacet
  facet normal 0 0 -1
    outer loop
      vertex -3.175 0 0
      vertex -4.0817 4.86438 0
      vertex -3.175 5.49926 0
    endloop
  endfacet
  facet normal -0 0 -1
    outer loop
      vertex -2.98352 -1.08591 0
      vertex -5.96705 -2.17183 0
      vertex -3.12676 -0.551332 0
    endloop
  endfacet
  facet normal 0 0 -1
    outer loop
      vertex -3.175 0 0
      vertex -4.86438 4.0817 0
      vertex -4.0817 4.86438 0
    endloop
  endfacet
  facet normal 0 0 -1
    outer loop
      vertex -6.25353 -1.10267 0
      vertex -3.12676 -0.551332 0
      vertex -5.96705 -2.17183 0
    endloop
  endfacet
  facet normal 0 0 -1
    outer loop
      vertex -3.175 0 0
      vertex -5.49926 3.175 0
      vertex -4.86438 4.0817 0
    endloop
  endfacet
  facet normal -0 0 -1
    outer loop
      vertex -3.12676 -0.551332 0
      vertex -6.25353 -1.10267 0
      vertex -3.175 0 0
    endloop
  endfacet
  facet normal 0 0 -1
    outer loop
      vertex -3.175 0 0
      vertex -5.96705 2.17183 0
      vertex -5.49926 3.175 0
    endloop
  endfacet
  facet normal 0 0 -1
    outer loop
      vertex -6.35 0 0
      vertex -3.175 0 0
      vertex -6.25353 -1.10267 0
    endloop
  endfacet
  facet normal 0 0 -1
    outer loop
      vertex -3.175 0 0
      vertex -6.25353 1.10267 0
      vertex -5.96705 2.17183 0
    endloop
  endfacet
  facet normal 0 0 -1
    outer loop
      vertex -3.175 0 0
      vertex -6.35 0 0
      vertex -6.25353 1.10267 0
    endloop
  endfacet
  facet normal 0 0 -1
    outer loop
      vertex 3.175 0 0
      vertex 6.35 0 0
      vertex 6.25353 -1.10267 0
    endloop
  endfacet
  facet normal 0 0 -1
    outer loop
      vertex 3.12676 -0.551332 0
      vertex 6.25353 -1.10267 0
      vertex 5.96705 -2.17183 0
    endloop
  endfacet
  facet normal 0 0 -1
    outer loop
      vertex 6.35 0 0
      vertex 3.175 0 0
      vertex 6.25353 1.10267 0
    endloop
  endfacet
  facet normal 0 0 -1
    outer loop
      vertex 3.12676 -0.551332 0
      vertex 5.96705 -2.17183 0
      vertex 5.49926 -3.175 0
    endloop
  endfacet
  facet normal 0 0 -1
    outer loop
      vertex 3.12676 0.551332 0
      vertex 6.25353 1.10267 0
      vertex 3.175 0 0
    endloop
  endfacet
  facet normal 0 0 -1
    outer loop
      vertex 3.12676 -0.551332 0
      vertex 5.49926 -3.175 0
      vertex 4.86438 -4.0817 0
    endloop
  endfacet
  facet normal -0 0 -1
    outer loop
      vertex 6.25353 1.10267 0
      vertex 3.12676 0.551332 0
      vertex 5.96705 2.17183 0
    endloop
  endfacet
  facet normal 0 0 -1
    outer loop
      vertex 3.12676 -0.551332 0
      vertex 4.86438 -4.0817 0
      vertex 4.0817 -4.86438 0
    endloop
  endfacet
  facet normal 0 0 -1
    outer loop
      vertex 2.98352 1.08591 0
      vertex 5.96705 2.17183 0
      vertex 3.12676 0.551332 0
    endloop
  endfacet
  facet normal 0 0 -1
    outer loop
      vertex 2.04085 -2.43219 0
      vertex 4.0817 -4.86438 0
      vertex 3.175 -5.49926 0
    endloop
  endfacet
  facet normal -0 0 -1
    outer loop
      vertex 5.96705 2.17183 0
      vertex 2.98352 1.08591 0
      vertex 5.49926 3.175 0
    endloop
  endfacet
  facet normal 0 0 -1
    outer loop
      vertex 2.74963 1.5875 0
      vertex 5.49926 3.175 0
      vertex 2.98352 1.08591 0
    endloop
  endfacet
  facet normal -0 0 -1
    outer loop
      vertex 5.49926 3.175 0
      vertex 2.74963 1.5875 0
      vertex 4.86438 4.0817 0
    endloop
  endfacet
  facet normal 0 0 -1
    outer loop
      vertex 2.43219 2.04085 0
      vertex 4.86438 4.0817 0
      vertex 2.74963 1.5875 0
    endloop
  endfacet
  facet normal -0 0 -1
    outer loop
      vertex 4.86438 4.0817 0
      vertex 2.43219 2.04085 0
      vertex 4.0817 4.86438 0
    endloop
  endfacet
  facet normal 0 0 -1
    outer loop
      vertex 2.04085 2.43219 0
      vertex 4.0817 4.86438 0
      vertex 2.43219 2.04085 0
    endloop
  endfacet
  facet normal -0 0 -1
    outer loop
      vertex 4.0817 4.86438 0
      vertex 2.04085 2.43219 0
      vertex 3.175 5.49926 0
    endloop
  endfacet
  facet normal 0 0 -1
    outer loop
      vertex 1.5875 2.74963 0
      vertex 3.175 5.49926 0
      vertex 2.04085 2.43219 0
    endloop
  endfacet
  facet normal -0 0 -1
    outer loop
      vertex 3.175 5.49926 0
      vertex 1.5875 2.74963 0
      vertex 2.17183 5.96705 0
    endloop
  endfacet
  facet normal 0 0 -1
    outer loop
      vertex 1.08591 2.98352 0
      vertex 2.17183 5.96705 0
      vertex 1.5875 2.74963 0
    endloop
  endfacet
  facet normal -0 0 -1
    outer loop
      vertex 2.17183 5.96705 0
      vertex 1.08591 2.98352 0
      vertex 1.10267 6.25353 0
    endloop
  endfacet
  facet normal 0 0 -1
    outer loop
      vertex 0.551332 3.12676 0
      vertex 1.10267 6.25353 0
      vertex 1.08591 2.98352 0
    endloop
  endfacet
  facet normal 0 0 -1
    outer loop
      vertex 0 3.175 0
      vertex 1.10267 6.25353 0
      vertex 0.551332 3.12676 0
    endloop
  endfacet
  facet normal 0 0 -1
    outer loop
      vertex 0 3.175 0
      vertex 0 6.35 0
      vertex 1.10267 6.25353 0
    endloop
  endfacet
  facet normal 0 0 -1
    outer loop
      vertex -0.551332 3.12676 0
      vertex 0 6.35 0
      vertex 0 3.175 0
    endloop
  endfacet
  facet normal 0 0 -1
    outer loop
      vertex -1.10267 6.25353 0
      vertex -0.551332 3.12676 0
      vertex -1.08591 2.98352 0
    endloop
  endfacet
  facet normal 0 0 -1
    outer loop
      vertex -0.551332 3.12676 0
      vertex -1.10267 6.25353 0
      vertex 0 6.35 0
    endloop
  endfacet
  facet normal 0 0 -1
    outer loop
      vertex -2.17183 5.96705 0
      vertex -1.08591 2.98352 0
      vertex -1.5875 2.74963 0
    endloop
  endfacet
  facet normal 0 0 -1
    outer loop
      vertex -3.175 5.49926 0
      vertex -1.5875 2.74963 0
      vertex -2.04085 2.43219 0
    endloop
  endfacet
  facet normal 0 0 -1
    outer loop
      vertex -1.08591 2.98352 0
      vertex -2.17183 5.96705 0
      vertex -1.10267 6.25353 0
    endloop
  endfacet
  facet normal 0 0 -1
    outer loop
      vertex -3.175 5.49926 0
      vertex -2.04085 2.43219 0
      vertex -2.43219 2.04085 0
    endloop
  endfacet
  facet normal 0 0 -1
    outer loop
      vertex -3.175 5.49926 0
      vertex -2.43219 2.04085 0
      vertex -2.74963 1.5875 0
    endloop
  endfacet
  facet normal 0 0 -1
    outer loop
      vertex -3.175 5.49926 0
      vertex -2.74963 1.5875 0
      vertex -2.98352 1.08591 0
    endloop
  endfacet
  facet normal 0 0 -1
    outer loop
      vertex -3.175 5.49926 0
      vertex -2.98352 1.08591 0
      vertex -3.12676 0.551332 0
    endloop
  endfacet
  facet normal 0 0 -1
    outer loop
      vertex -1.5875 2.74963 0
      vertex -3.175 5.49926 0
      vertex -2.17183 5.96705 0
    endloop
  endfacet
  facet normal 0 0 -1
    outer loop
      vertex -3.175 5.49926 0
      vertex -3.12676 0.551332 0
      vertex -3.175 0 0
    endloop
  endfacet
  facet normal -0.573578 -0.819151 0
    outer loop
      vertex -4.0817 -4.86438 0
      vertex -3.175 -5.49926 9.525
      vertex -4.0817 -4.86438 9.525
    endloop
  endfacet
  facet normal -0.573578 -0.819151 -0
    outer loop
      vertex -3.175 -5.49926 9.525
      vertex -4.0817 -4.86438 0
      vertex -3.175 -5.49926 0
    endloop
  endfacet
  facet normal -0.258819 -0.965926 0
    outer loop
      vertex 0.551332 3.12676 0
      vertex 1.08591 2.98352 9.525
      vertex 0.551332 3.12676 9.525
    endloop
  endfacet
  facet normal -0.258819 -0.965926 -0
    outer loop
      vertex 1.08591 2.98352 9.525
      vertex 0.551332 3.12676 0
      vertex 1.08591 2.98352 0
    endloop
  endfacet
  facet normal 0.258819 -0.965926 0
    outer loop
      vertex -1.08591 2.98352 0
      vertex -0.551332 3.12676 9.525
      vertex -1.08591 2.98352 9.525
    endloop
  endfacet
  facet normal 0.258819 -0.965926 0
    outer loop
      vertex -0.551332 3.12676 9.525
      vertex -1.08591 2.98352 0
      vertex -0.551332 3.12676 0
    endloop
  endfacet
  facet normal -0.819151 0.573578 0
    outer loop
      vertex 2.43219 -2.04085 0
      vertex 2.74963 -1.5875 9.525
      vertex 2.74963 -1.5875 0
    endloop
  endfacet
  facet normal -0.819151 0.573578 0
    outer loop
      vertex 2.74963 -1.5875 9.525
      vertex 2.43219 -2.04085 0
      vertex 2.43219 -2.04085 9.525
    endloop
  endfacet
  facet normal 0.965926 0.258819 0
    outer loop
      vertex -2.98352 -1.08591 9.525
      vertex -3.12676 -0.551332 0
      vertex -3.12676 -0.551332 9.525
    endloop
  endfacet
  facet normal 0.965926 0.258819 0
    outer loop
      vertex -3.12676 -0.551332 0
      vertex -2.98352 -1.08591 9.525
      vertex -2.98352 -1.08591 0
    endloop
  endfacet
  facet normal 0.996194 0.0871642 0
    outer loop
      vertex -3.12676 -0.551332 9.525
      vertex -3.175 0 0
      vertex -3.175 0 9.525
    endloop
  endfacet
  facet normal 0.996194 0.0871642 0
    outer loop
      vertex -3.175 0 0
      vertex -3.12676 -0.551332 9.525
      vertex -3.12676 -0.551332 0
    endloop
  endfacet
  facet normal 0.707107 -0.707107 0
    outer loop
      vertex -2.43219 2.04085 9.525
      vertex -2.04085 2.43219 0
      vertex -2.04085 2.43219 9.525
    endloop
  endfacet
  facet normal 0.707107 -0.707107 0
    outer loop
      vertex -2.04085 2.43219 0
      vertex -2.43219 2.04085 9.525
      vertex -2.43219 2.04085 0
    endloop
  endfacet
  facet normal -0.996194 0.0871642 0
    outer loop
      vertex 3.12676 -0.551332 0
      vertex 3.175 0 9.525
      vertex 3.175 0 0
    endloop
  endfacet
  facet normal -0.996194 0.0871642 0
    outer loop
      vertex 3.175 0 9.525
      vertex 3.12676 -0.551332 0
      vertex 3.12676 -0.551332 9.525
    endloop
  endfacet
  facet normal -0.906311 -0.42261 0
    outer loop
      vertex 2.98352 1.08591 0
      vertex 2.74963 1.5875 9.525
      vertex 2.74963 1.5875 0
    endloop
  endfacet
  facet normal -0.906311 -0.42261 0
    outer loop
      vertex 2.74963 1.5875 9.525
      vertex 2.98352 1.08591 0
      vertex 2.98352 1.08591 9.525
    endloop
  endfacet
  facet normal -0.707107 0.707107 0
    outer loop
      vertex 2.04085 -2.43219 0
      vertex 2.43219 -2.04085 9.525
      vertex 2.43219 -2.04085 0
    endloop
  endfacet
  facet normal -0.707107 0.707107 0
    outer loop
      vertex 2.43219 -2.04085 9.525
      vertex 2.04085 -2.43219 0
      vertex 2.04085 -2.43219 9.525
    endloop
  endfacet
  facet normal 0.965926 -0.258819 0
    outer loop
      vertex -3.12676 0.551332 9.525
      vertex -2.98352 1.08591 0
      vertex -2.98352 1.08591 9.525
    endloop
  endfacet
  facet normal 0.965926 -0.258819 0
    outer loop
      vertex -2.98352 1.08591 0
      vertex -3.12676 0.551332 9.525
      vertex -3.12676 0.551332 0
    endloop
  endfacet
  facet normal 0.996194 -0.0871642 0
    outer loop
      vertex -3.175 0 9.525
      vertex -3.12676 0.551332 0
      vertex -3.12676 0.551332 9.525
    endloop
  endfacet
  facet normal 0.996194 -0.0871642 0
    outer loop
      vertex -3.12676 0.551332 0
      vertex -3.175 0 9.525
      vertex -3.175 0 0
    endloop
  endfacet
  facet normal -0.996194 -0.0871642 0
    outer loop
      vertex 3.175 0 0
      vertex 3.12676 0.551332 9.525
      vertex 3.12676 0.551332 0
    endloop
  endfacet
  facet normal -0.996194 -0.0871642 0
    outer loop
      vertex 3.12676 0.551332 9.525
      vertex 3.175 0 0
      vertex 3.175 0 9.525
    endloop
  endfacet
  facet normal -0.42261 -0.906311 0
    outer loop
      vertex 1.08591 2.98352 0
      vertex 1.5875 2.74963 9.525
      vertex 1.08591 2.98352 9.525
    endloop
  endfacet
  facet normal -0.42261 -0.906311 -0
    outer loop
      vertex 1.5875 2.74963 9.525
      vertex 1.08591 2.98352 0
      vertex 1.5875 2.74963 0
    endloop
  endfacet
  facet normal -0.965926 -0.258819 0
    outer loop
      vertex 3.12676 0.551332 0
      vertex 2.98352 1.08591 9.525
      vertex 2.98352 1.08591 0
    endloop
  endfacet
  facet normal -0.965926 -0.258819 0
    outer loop
      vertex 2.98352 1.08591 9.525
      vertex 3.12676 0.551332 0
      vertex 3.12676 0.551332 9.525
    endloop
  endfacet
  facet normal -0.965926 0.258819 0
    outer loop
      vertex 2.98352 -1.08591 0
      vertex 3.12676 -0.551332 9.525
      vertex 3.12676 -0.551332 0
    endloop
  endfacet
  facet normal -0.965926 0.258819 0
    outer loop
      vertex 3.12676 -0.551332 9.525
      vertex 2.98352 -1.08591 0
      vertex 2.98352 -1.08591 9.525
    endloop
  endfacet
  facet normal -0.906311 0.42261 0
    outer loop
      vertex 2.74963 -1.5875 0
      vertex 2.98352 -1.08591 9.525
      vertex 2.98352 -1.08591 0
    endloop
  endfacet
  facet normal -0.906311 0.42261 0
    outer loop
      vertex 2.98352 -1.08591 9.525
      vertex 2.74963 -1.5875 0
      vertex 2.74963 -1.5875 9.525
    endloop
  endfacet
  facet normal -0.573578 -0.819151 0
    outer loop
      vertex 1.5875 2.74963 0
      vertex 2.04085 2.43219 9.525
      vertex 1.5875 2.74963 9.525
    endloop
  endfacet
  facet normal -0.573578 -0.819151 -0
    outer loop
      vertex 2.04085 2.43219 9.525
      vertex 1.5875 2.74963 0
      vertex 2.04085 2.43219 0
    endloop
  endfacet
  facet normal 0.42261 -0.906311 0
    outer loop
      vertex -1.5875 2.74963 0
      vertex -1.08591 2.98352 9.525
      vertex -1.5875 2.74963 9.525
    endloop
  endfacet
  facet normal 0.42261 -0.906311 0
    outer loop
      vertex -1.08591 2.98352 9.525
      vertex -1.5875 2.74963 0
      vertex -1.08591 2.98352 0
    endloop
  endfacet
  facet normal 0.707107 0.707107 0
    outer loop
      vertex -2.04085 -2.43219 9.525
      vertex -2.43219 -2.04085 0
      vertex -2.43219 -2.04085 9.525
    endloop
  endfacet
  facet normal 0.707107 0.707107 0
    outer loop
      vertex -2.43219 -2.04085 0
      vertex -2.04085 -2.43219 9.525
      vertex -2.04085 -2.43219 0
    endloop
  endfacet
  facet normal 0.42261 0.906311 -0
    outer loop
      vertex -1.08591 -2.98352 0
      vertex -1.5875 -2.74963 9.525
      vertex -1.08591 -2.98352 9.525
    endloop
  endfacet
  facet normal 0.42261 0.906311 0
    outer loop
      vertex -1.5875 -2.74963 9.525
      vertex -1.08591 -2.98352 0
      vertex -1.5875 -2.74963 0
    endloop
  endfacet
  facet normal 0.258819 0.965926 -0
    outer loop
      vertex -0.551332 -3.12676 0
      vertex -1.08591 -2.98352 9.525
      vertex -0.551332 -3.12676 9.525
    endloop
  endfacet
  facet normal 0.258819 0.965926 0
    outer loop
      vertex -1.08591 -2.98352 9.525
      vertex -0.551332 -3.12676 0
      vertex -1.08591 -2.98352 0
    endloop
  endfacet
  facet normal -0.707107 -0.707107 0
    outer loop
      vertex 2.43219 2.04085 0
      vertex 2.04085 2.43219 9.525
      vertex 2.04085 2.43219 0
    endloop
  endfacet
  facet normal -0.707107 -0.707107 0
    outer loop
      vertex 2.04085 2.43219 9.525
      vertex 2.43219 2.04085 0
      vertex 2.43219 2.04085 9.525
    endloop
  endfacet
  facet normal -0.0871642 0.996194 0
    outer loop
      vertex 0.551332 -3.12676 0
      vertex 0 -3.175 9.525
      vertex 0.551332 -3.12676 9.525
    endloop
  endfacet
  facet normal -0.0871642 0.996194 0
    outer loop
      vertex 0 -3.175 9.525
      vertex 0.551332 -3.12676 0
      vertex 0 -3.175 0
    endloop
  endfacet
  facet normal -0.819151 -0.573578 0
    outer loop
      vertex 2.74963 1.5875 0
      vertex 2.43219 2.04085 9.525
      vertex 2.43219 2.04085 0
    endloop
  endfacet
  facet normal -0.819151 -0.573578 0
    outer loop
      vertex 2.43219 2.04085 9.525
      vertex 2.74963 1.5875 0
      vertex 2.74963 1.5875 9.525
    endloop
  endfacet
  facet normal -0.0871642 -0.996194 0
    outer loop
      vertex 0 3.175 0
      vertex 0.551332 3.12676 9.525
      vertex 0 3.175 9.525
    endloop
  endfacet
  facet normal -0.0871642 -0.996194 -0
    outer loop
      vertex 0.551332 3.12676 9.525
      vertex 0 3.175 0
      vertex 0.551332 3.12676 0
    endloop
  endfacet
  facet normal -0.573578 0.819151 0
    outer loop
      vertex 2.04085 -2.43219 0
      vertex 1.5875 -2.74963 9.525
      vertex 2.04085 -2.43219 9.525
    endloop
  endfacet
  facet normal -0.573578 0.819151 0
    outer loop
      vertex 1.5875 -2.74963 9.525
      vertex 2.04085 -2.43219 0
      vertex 1.5875 -2.74963 0
    endloop
  endfacet
  facet normal 0.819151 -0.573578 0
    outer loop
      vertex -2.74963 1.5875 9.525
      vertex -2.43219 2.04085 0
      vertex -2.43219 2.04085 9.525
    endloop
  endfacet
  facet normal 0.819151 -0.573578 0
    outer loop
      vertex -2.43219 2.04085 0
      vertex -2.74963 1.5875 9.525
      vertex -2.74963 1.5875 0
    endloop
  endfacet
  facet normal 0.906311 -0.42261 0
    outer loop
      vertex -2.98352 1.08591 9.525
      vertex -2.74963 1.5875 0
      vertex -2.74963 1.5875 9.525
    endloop
  endfacet
  facet normal 0.906311 -0.42261 0
    outer loop
      vertex -2.74963 1.5875 0
      vertex -2.98352 1.08591 9.525
      vertex -2.98352 1.08591 0
    endloop
  endfacet
  facet normal 0.573578 -0.819151 0
    outer loop
      vertex -2.04085 2.43219 0
      vertex -1.5875 2.74963 9.525
      vertex -2.04085 2.43219 9.525
    endloop
  endfacet
  facet normal 0.573578 -0.819151 0
    outer loop
      vertex -1.5875 2.74963 9.525
      vertex -2.04085 2.43219 0
      vertex -1.5875 2.74963 0
    endloop
  endfacet
  facet normal 0.906311 0.42261 0
    outer loop
      vertex -2.74963 -1.5875 9.525
      vertex -2.98352 -1.08591 0
      vertex -2.98352 -1.08591 9.525
    endloop
  endfacet
  facet normal 0.906311 0.42261 0
    outer loop
      vertex -2.98352 -1.08591 0
      vertex -2.74963 -1.5875 9.525
      vertex -2.74963 -1.5875 0
    endloop
  endfacet
  facet normal -0.258819 0.965926 0
    outer loop
      vertex 1.08591 -2.98352 0
      vertex 0.551332 -3.12676 9.525
      vertex 1.08591 -2.98352 9.525
    endloop
  endfacet
  facet normal -0.258819 0.965926 0
    outer loop
      vertex 0.551332 -3.12676 9.525
      vertex 1.08591 -2.98352 0
      vertex 0.551332 -3.12676 0
    endloop
  endfacet
  facet normal -0.42261 0.906311 0
    outer loop
      vertex 1.5875 -2.74963 0
      vertex 1.08591 -2.98352 9.525
      vertex 1.5875 -2.74963 9.525
    endloop
  endfacet
  facet normal -0.42261 0.906311 0
    outer loop
      vertex 1.08591 -2.98352 9.525
      vertex 1.5875 -2.74963 0
      vertex 1.08591 -2.98352 0
    endloop
  endfacet
  facet normal 0.819151 0.573578 0
    outer loop
      vertex -2.43219 -2.04085 9.525
      vertex -2.74963 -1.5875 0
      vertex -2.74963 -1.5875 9.525
    endloop
  endfacet
  facet normal 0.819151 0.573578 0
    outer loop
      vertex -2.74963 -1.5875 0
      vertex -2.43219 -2.04085 9.525
      vertex -2.43219 -2.04085 0
    endloop
  endfacet
  facet normal 0.0871642 -0.996194 0
    outer loop
      vertex -0.551332 3.12676 0
      vertex 0 3.175 9.525
      vertex -0.551332 3.12676 9.525
    endloop
  endfacet
  facet normal 0.0871642 -0.996194 0
    outer loop
      vertex 0 3.175 9.525
      vertex -0.551332 3.12676 0
      vertex 0 3.175 0
    endloop
  endfacet
  facet normal 0.573578 0.819151 -0
    outer loop
      vertex -1.5875 -2.74963 0
      vertex -2.04085 -2.43219 9.525
      vertex -1.5875 -2.74963 9.525
    endloop
  endfacet
  facet normal 0.573578 0.819151 0
    outer loop
      vertex -2.04085 -2.43219 9.525
      vertex -1.5875 -2.74963 0
      vertex -2.04085 -2.43219 0
    endloop
  endfacet
  facet normal 0.0871642 0.996194 -0
    outer loop
      vertex 0 -3.175 0
      vertex -0.551332 -3.12676 9.525
      vertex 0 -3.175 9.525
    endloop
  endfacet
  facet normal 0.0871642 0.996194 0
    outer loop
      vertex -0.551332 -3.12676 9.525
      vertex 0 -3.175 0
      vertex -0.551332 -3.12676 0
    endloop
  endfacet
endsolid OpenSCAD_Model
