solid OpenSCAD_Model
  facet normal 0.0871372 -0.996196 0
    outer loop
      vertex 0 -12.7 0
      vertex 2.20533 -12.5071 9.525
      vertex 0 -12.7 9.525
    endloop
  endfacet
  facet normal 0.0871372 -0.996196 0
    outer loop
      vertex 2.20533 -12.5071 9.525
      vertex 0 -12.7 0
      vertex 2.20533 -12.5071 0
    endloop
  endfacet
  facet normal 0.965922 0.258834 0
    outer loop
      vertex 12.5071 2.20533 9.525
      vertex 11.9341 4.34366 0
      vertex 11.9341 4.34366 9.525
    endloop
  endfacet
  facet normal 0.965922 0.258834 0
    outer loop
      vertex 11.9341 4.34366 0
      vertex 12.5071 2.20533 9.525
      vertex 12.5071 2.20533 0
    endloop
  endfacet
  facet normal 0.996196 0.0871372 0
    outer loop
      vertex 12.7 0 9.525
      vertex 12.5071 2.20533 0
      vertex 12.5071 2.20533 9.525
    endloop
  endfacet
  facet normal 0.996196 0.0871372 0
    outer loop
      vertex 12.5071 2.20533 0
      vertex 12.7 0 9.525
      vertex 12.7 0 0
    endloop
  endfacet
  facet normal 0.906303 0.422629 0
    outer loop
      vertex 11.9341 4.34366 9.525
      vertex 10.9985 6.35 0
      vertex 10.9985 6.35 9.525
    endloop
  endfacet
  facet normal 0.906303 0.422629 0
    outer loop
      vertex 10.9985 6.35 0
      vertex 11.9341 4.34366 9.525
      vertex 11.9341 4.34366 0
    endloop
  endfacet
  facet normal -0.965922 -0.258834 0
    outer loop
      vertex -11.9341 -4.34366 0
      vertex -12.5071 -2.20533 9.525
      vertex -12.5071 -2.20533 0
    endloop
  endfacet
  facet normal -0.965922 -0.258834 0
    outer loop
      vertex -12.5071 -2.20533 9.525
      vertex -11.9341 -4.34366 0
      vertex -11.9341 -4.34366 9.525
    endloop
  endfacet
  facet normal 0.422629 0.906303 -0
    outer loop
      vertex 6.35 10.9985 0
      vertex 4.34366 11.9341 9.525
      vertex 6.35 10.9985 9.525
    endloop
  endfacet
  facet normal 0.422629 0.906303 0
    outer loop
      vertex 4.34366 11.9341 9.525
      vertex 6.35 10.9985 0
      vertex 4.34366 11.9341 0
    endloop
  endfacet
  facet normal -0.258834 0.965922 0
    outer loop
      vertex -2.20533 12.5071 0
      vertex -4.34366 11.9341 9.525
      vertex -2.20533 12.5071 9.525
    endloop
  endfacet
  facet normal -0.258834 0.965922 0
    outer loop
      vertex -4.34366 11.9341 9.525
      vertex -2.20533 12.5071 0
      vertex -4.34366 11.9341 0
    endloop
  endfacet
  facet normal -0.819156 0.573571 0
    outer loop
      vertex -10.9985 6.35 0
      vertex -9.72876 8.1634 9.525
      vertex -9.72876 8.1634 0
    endloop
  endfacet
  facet normal -0.819156 0.573571 0
    outer loop
      vertex -9.72876 8.1634 9.525
      vertex -10.9985 6.35 0
      vertex -10.9985 6.35 9.525
    endloop
  endfacet
  facet normal 0.258834 -0.965922 0
    outer loop
      vertex 2.20533 -12.5071 0
      vertex 4.34366 -11.9341 9.525
      vertex 2.20533 -12.5071 9.525
    endloop
  endfacet
  facet normal 0.258834 -0.965922 0
    outer loop
      vertex 4.34366 -11.9341 9.525
      vertex 2.20533 -12.5071 0
      vertex 4.34366 -11.9341 0
    endloop
  endfacet
  facet normal -0.573571 0.819156 0
    outer loop
      vertex -6.35 10.9985 0
      vertex -8.1634 9.72876 9.525
      vertex -6.35 10.9985 9.525
    endloop
  endfacet
  facet normal -0.573571 0.819156 0
    outer loop
      vertex -8.1634 9.72876 9.525
      vertex -6.35 10.9985 0
      vertex -8.1634 9.72876 0
    endloop
  endfacet
  facet normal 0.819156 0.573571 0
    outer loop
      vertex 10.9985 6.35 9.525
      vertex 9.72876 8.1634 0
      vertex 9.72876 8.1634 9.525
    endloop
  endfacet
  facet normal 0.819156 0.573571 0
    outer loop
      vertex 9.72876 8.1634 0
      vertex 10.9985 6.35 9.525
      vertex 10.9985 6.35 0
    endloop
  endfacet
  facet normal 0.707107 -0.707107 0
    outer loop
      vertex 8.1634 -9.72876 9.525
      vertex 9.72876 -8.1634 0
      vertex 9.72876 -8.1634 9.525
    endloop
  endfacet
  facet normal 0.707107 -0.707107 0
    outer loop
      vertex 9.72876 -8.1634 0
      vertex 8.1634 -9.72876 9.525
      vertex 8.1634 -9.72876 0
    endloop
  endfacet
  facet normal -0.0871372 0.996196 0
    outer loop
      vertex 0 12.7 0
      vertex -2.20533 12.5071 9.525
      vertex 0 12.7 9.525
    endloop
  endfacet
  facet normal -0.0871372 0.996196 0
    outer loop
      vertex -2.20533 12.5071 9.525
      vertex 0 12.7 0
      vertex -2.20533 12.5071 0
    endloop
  endfacet
  facet normal -0.906303 0.422629 0
    outer loop
      vertex -11.9341 4.34366 0
      vertex -10.9985 6.35 9.525
      vertex -10.9985 6.35 0
    endloop
  endfacet
  facet normal -0.906303 0.422629 0
    outer loop
      vertex -10.9985 6.35 9.525
      vertex -11.9341 4.34366 0
      vertex -11.9341 4.34366 9.525
    endloop
  endfacet
  facet normal -0.707107 -0.707107 0
    outer loop
      vertex -8.1634 -9.72876 0
      vertex -9.72876 -8.1634 9.525
      vertex -9.72876 -8.1634 0
    endloop
  endfacet
  facet normal -0.707107 -0.707107 0
    outer loop
      vertex -9.72876 -8.1634 9.525
      vertex -8.1634 -9.72876 0
      vertex -8.1634 -9.72876 9.525
    endloop
  endfacet
  facet normal 0.996196 -0.0871372 0
    outer loop
      vertex 12.5071 -2.20533 9.525
      vertex 12.7 0 0
      vertex 12.7 0 9.525
    endloop
  endfacet
  facet normal 0.996196 -0.0871372 0
    outer loop
      vertex 12.7 0 0
      vertex 12.5071 -2.20533 9.525
      vertex 12.5071 -2.20533 0
    endloop
  endfacet
  facet normal -0.996196 0.0871372 0
    outer loop
      vertex -12.7 0 0
      vertex -12.5071 2.20533 9.525
      vertex -12.5071 2.20533 0
    endloop
  endfacet
  facet normal -0.996196 0.0871372 0
    outer loop
      vertex -12.5071 2.20533 9.525
      vertex -12.7 0 0
      vertex -12.7 0 9.525
    endloop
  endfacet
  facet normal -0.996196 -0.0871372 0
    outer loop
      vertex -12.5071 -2.20533 0
      vertex -12.7 0 9.525
      vertex -12.7 0 0
    endloop
  endfacet
  facet normal -0.996196 -0.0871372 0
    outer loop
      vertex -12.7 0 9.525
      vertex -12.5071 -2.20533 0
      vertex -12.5071 -2.20533 9.525
    endloop
  endfacet
  facet normal -0.707107 0.707107 0
    outer loop
      vertex -9.72876 8.1634 0
      vertex -8.1634 9.72876 9.525
      vertex -8.1634 9.72876 0
    endloop
  endfacet
  facet normal -0.707107 0.707107 0
    outer loop
      vertex -8.1634 9.72876 9.525
      vertex -9.72876 8.1634 0
      vertex -9.72876 8.1634 9.525
    endloop
  endfacet
  facet normal 0.819156 -0.573571 0
    outer loop
      vertex 9.72876 -8.1634 9.525
      vertex 10.9985 -6.35 0
      vertex 10.9985 -6.35 9.525
    endloop
  endfacet
  facet normal 0.819156 -0.573571 0
    outer loop
      vertex 10.9985 -6.35 0
      vertex 9.72876 -8.1634 9.525
      vertex 9.72876 -8.1634 0
    endloop
  endfacet
  facet normal 0.0871372 0.996196 -0
    outer loop
      vertex 2.20533 12.5071 0
      vertex 0 12.7 9.525
      vertex 2.20533 12.5071 9.525
    endloop
  endfacet
  facet normal 0.0871372 0.996196 0
    outer loop
      vertex 0 12.7 9.525
      vertex 2.20533 12.5071 0
      vertex 0 12.7 0
    endloop
  endfacet
  facet normal 0.573571 -0.819156 0
    outer loop
      vertex 6.35 -10.9985 0
      vertex 8.1634 -9.72876 9.525
      vertex 6.35 -10.9985 9.525
    endloop
  endfacet
  facet normal 0.573571 -0.819156 0
    outer loop
      vertex 8.1634 -9.72876 9.525
      vertex 6.35 -10.9985 0
      vertex 8.1634 -9.72876 0
    endloop
  endfacet
  facet normal -0.422629 0.906303 0
    outer loop
      vertex -4.34366 11.9341 0
      vertex -6.35 10.9985 9.525
      vertex -4.34366 11.9341 9.525
    endloop
  endfacet
  facet normal -0.422629 0.906303 0
    outer loop
      vertex -6.35 10.9985 9.525
      vertex -4.34366 11.9341 0
      vertex -6.35 10.9985 0
    endloop
  endfacet
  facet normal 0.707107 0.707107 0
    outer loop
      vertex 9.72876 8.1634 9.525
      vertex 8.1634 9.72876 0
      vertex 8.1634 9.72876 9.525
    endloop
  endfacet
  facet normal 0.707107 0.707107 0
    outer loop
      vertex 8.1634 9.72876 0
      vertex 9.72876 8.1634 9.525
      vertex 9.72876 8.1634 0
    endloop
  endfacet
  facet normal 0.573571 0.819156 -0
    outer loop
      vertex 8.1634 9.72876 0
      vertex 6.35 10.9985 9.525
      vertex 8.1634 9.72876 9.525
    endloop
  endfacet
  facet normal 0.573571 0.819156 0
    outer loop
      vertex 6.35 10.9985 9.525
      vertex 8.1634 9.72876 0
      vertex 6.35 10.9985 0
    endloop
  endfacet
  facet normal -0.422629 -0.906303 0
    outer loop
      vertex -6.35 -10.9985 0
      vertex -4.34366 -11.9341 9.525
      vertex -6.35 -10.9985 9.525
    endloop
  endfacet
  facet normal -0.422629 -0.906303 -0
    outer loop
      vertex -4.34366 -11.9341 9.525
      vertex -6.35 -10.9985 0
      vertex -4.34366 -11.9341 0
    endloop
  endfacet
  facet normal 0.965922 -0.258834 0
    outer loop
      vertex 11.9341 -4.34366 9.525
      vertex 12.5071 -2.20533 0
      vertex 12.5071 -2.20533 9.525
    endloop
  endfacet
  facet normal 0.965922 -0.258834 0
    outer loop
      vertex 12.5071 -2.20533 0
      vertex 11.9341 -4.34366 9.525
      vertex 11.9341 -4.34366 0
    endloop
  endfacet
  facet normal 0.906303 -0.422629 0
    outer loop
      vertex 10.9985 -6.35 9.525
      vertex 11.9341 -4.34366 0
      vertex 11.9341 -4.34366 9.525
    endloop
  endfacet
  facet normal 0.906303 -0.422629 0
    outer loop
      vertex 11.9341 -4.34366 0
      vertex 10.9985 -6.35 9.525
      vertex 10.9985 -6.35 0
    endloop
  endfacet
  facet normal -0.906303 -0.422629 0
    outer loop
      vertex -10.9985 -6.35 0
      vertex -11.9341 -4.34366 9.525
      vertex -11.9341 -4.34366 0
    endloop
  endfacet
  facet normal -0.906303 -0.422629 0
    outer loop
      vertex -11.9341 -4.34366 9.525
      vertex -10.9985 -6.35 0
      vertex -10.9985 -6.35 9.525
    endloop
  endfacet
  facet normal -0.965922 0.258834 0
    outer loop
      vertex -12.5071 2.20533 0
      vertex -11.9341 4.34366 9.525
      vertex -11.9341 4.34366 0
    endloop
  endfacet
  facet normal -0.965922 0.258834 0
    outer loop
      vertex -11.9341 4.34366 9.525
      vertex -12.5071 2.20533 0
      vertex -12.5071 2.20533 9.525
    endloop
  endfacet
  facet normal 0.258834 0.965922 -0
    outer loop
      vertex 4.34366 11.9341 0
      vertex 2.20533 12.5071 9.525
      vertex 4.34366 11.9341 9.525
    endloop
  endfacet
  facet normal 0.258834 0.965922 0
    outer loop
      vertex 2.20533 12.5071 9.525
      vertex 4.34366 11.9341 0
      vertex 2.20533 12.5071 0
    endloop
  endfacet
  facet normal -0.819156 -0.573571 0
    outer loop
      vertex -9.72876 -8.1634 0
      vertex -10.9985 -6.35 9.525
      vertex -10.9985 -6.35 0
    endloop
  endfacet
  facet normal -0.819156 -0.573571 0
    outer loop
      vertex -10.9985 -6.35 9.525
      vertex -9.72876 -8.1634 0
      vertex -9.72876 -8.1634 9.525
    endloop
  endfacet
  facet normal 0.422629 -0.906303 0
    outer loop
      vertex 4.34366 -11.9341 0
      vertex 6.35 -10.9985 9.525
      vertex 4.34366 -11.9341 9.525
    endloop
  endfacet
  facet normal 0.422629 -0.906303 0
    outer loop
      vertex 6.35 -10.9985 9.525
      vertex 4.34366 -11.9341 0
      vertex 6.35 -10.9985 0
    endloop
  endfacet
  facet normal 0 0 1
    outer loop
      vertex 12.5071 2.20533 9.525
      vertex 6.25353 1.10267 9.525
      vertex 6.35 0 9.525
    endloop
  endfacet
  facet normal 0 0 1
    outer loop
      vertex 8.1634 9.72876 9.525
      vertex 5.96705 2.17183 9.525
      vertex 6.25353 1.10267 9.525
    endloop
  endfacet
  facet normal 0 0 1
    outer loop
      vertex 8.1634 9.72876 9.525
      vertex 5.49926 3.175 9.525
      vertex 5.96705 2.17183 9.525
    endloop
  endfacet
  facet normal 0 0 1
    outer loop
      vertex 8.1634 9.72876 9.525
      vertex 4.86438 4.0817 9.525
      vertex 5.49926 3.175 9.525
    endloop
  endfacet
  facet normal 0 0 1
    outer loop
      vertex 3.175 5.49926 9.525
      vertex 6.35 10.9985 9.525
      vertex 4.34366 11.9341 9.525
    endloop
  endfacet
  facet normal 0 0 1
    outer loop
      vertex 8.1634 9.72876 9.525
      vertex 4.0817 4.86438 9.525
      vertex 4.86438 4.0817 9.525
    endloop
  endfacet
  facet normal 0 0 1
    outer loop
      vertex 6.35 10.9985 9.525
      vertex 3.175 5.49926 9.525
      vertex 4.0817 4.86438 9.525
    endloop
  endfacet
  facet normal 0 0 1
    outer loop
      vertex 2.17183 5.96705 9.525
      vertex 4.34366 11.9341 9.525
      vertex 2.20533 12.5071 9.525
    endloop
  endfacet
  facet normal 0 0 1
    outer loop
      vertex 4.34366 11.9341 9.525
      vertex 2.17183 5.96705 9.525
      vertex 3.175 5.49926 9.525
    endloop
  endfacet
  facet normal 0 0 1
    outer loop
      vertex 2.20533 12.5071 9.525
      vertex 1.10267 6.25353 9.525
      vertex 2.17183 5.96705 9.525
    endloop
  endfacet
  facet normal 0 0 1
    outer loop
      vertex 0 12.7 9.525
      vertex 1.10267 6.25353 9.525
      vertex 2.20533 12.5071 9.525
    endloop
  endfacet
  facet normal 0 0 1
    outer loop
      vertex 0 12.7 9.525
      vertex 0 6.35 9.525
      vertex 1.10267 6.25353 9.525
    endloop
  endfacet
  facet normal 0 0 1
    outer loop
      vertex 0 12.7 9.525
      vertex -1.10267 6.25353 9.525
      vertex 0 6.35 9.525
    endloop
  endfacet
  facet normal -0 0 1
    outer loop
      vertex -2.20533 12.5071 9.525
      vertex -1.10267 6.25353 9.525
      vertex 0 12.7 9.525
    endloop
  endfacet
  facet normal 0 0 1
    outer loop
      vertex -1.10267 6.25353 9.525
      vertex -2.20533 12.5071 9.525
      vertex -2.17183 5.96705 9.525
    endloop
  endfacet
  facet normal -0 0 1
    outer loop
      vertex -4.34366 11.9341 9.525
      vertex -2.17183 5.96705 9.525
      vertex -2.20533 12.5071 9.525
    endloop
  endfacet
  facet normal 0 0 1
    outer loop
      vertex -2.17183 5.96705 9.525
      vertex -4.34366 11.9341 9.525
      vertex -3.175 5.49926 9.525
    endloop
  endfacet
  facet normal -0 0 1
    outer loop
      vertex -6.35 10.9985 9.525
      vertex -3.175 5.49926 9.525
      vertex -4.34366 11.9341 9.525
    endloop
  endfacet
  facet normal 0 0 1
    outer loop
      vertex -3.175 5.49926 9.525
      vertex -6.35 10.9985 9.525
      vertex -4.0817 4.86438 9.525
    endloop
  endfacet
  facet normal -0 0 1
    outer loop
      vertex -8.1634 9.72876 9.525
      vertex -4.0817 4.86438 9.525
      vertex -6.35 10.9985 9.525
    endloop
  endfacet
  facet normal 0 0 1
    outer loop
      vertex -4.0817 4.86438 9.525
      vertex -8.1634 9.72876 9.525
      vertex -4.86438 4.0817 9.525
    endloop
  endfacet
  facet normal -0 0 1
    outer loop
      vertex -9.72876 8.1634 9.525
      vertex -4.86438 4.0817 9.525
      vertex -8.1634 9.72876 9.525
    endloop
  endfacet
  facet normal 0 0 1
    outer loop
      vertex -4.86438 4.0817 9.525
      vertex -9.72876 8.1634 9.525
      vertex -5.49926 3.175 9.525
    endloop
  endfacet
  facet normal -0 0 1
    outer loop
      vertex -10.9985 6.35 9.525
      vertex -5.49926 3.175 9.525
      vertex -9.72876 8.1634 9.525
    endloop
  endfacet
  facet normal 0 0 1
    outer loop
      vertex -5.49926 3.175 9.525
      vertex -10.9985 6.35 9.525
      vertex -5.96705 2.17183 9.525
    endloop
  endfacet
  facet normal -0 0 1
    outer loop
      vertex -11.9341 4.34366 9.525
      vertex -5.96705 2.17183 9.525
      vertex -10.9985 6.35 9.525
    endloop
  endfacet
  facet normal 0 0 1
    outer loop
      vertex -6.35 0 9.525
      vertex -8.1634 -9.72876 9.525
      vertex -6.35 -10.9985 9.525
    endloop
  endfacet
  facet normal 0 0 1
    outer loop
      vertex -5.96705 2.17183 9.525
      vertex -11.9341 4.34366 9.525
      vertex -6.25353 1.10267 9.525
    endloop
  endfacet
  facet normal 0 0 1
    outer loop
      vertex -6.35 0 9.525
      vertex -9.72876 -8.1634 9.525
      vertex -8.1634 -9.72876 9.525
    endloop
  endfacet
  facet normal -0 0 1
    outer loop
      vertex -12.5071 2.20533 9.525
      vertex -6.25353 1.10267 9.525
      vertex -11.9341 4.34366 9.525
    endloop
  endfacet
  facet normal 0 0 1
    outer loop
      vertex -6.35 0 9.525
      vertex -10.9985 -6.35 9.525
      vertex -9.72876 -8.1634 9.525
    endloop
  endfacet
  facet normal 0 0 1
    outer loop
      vertex -6.25353 1.10267 9.525
      vertex -12.5071 2.20533 9.525
      vertex -6.35 0 9.525
    endloop
  endfacet
  facet normal 0 0 1
    outer loop
      vertex -6.35 0 9.525
      vertex -11.9341 -4.34366 9.525
      vertex -10.9985 -6.35 9.525
    endloop
  endfacet
  facet normal 0 0 1
    outer loop
      vertex -12.7 0 9.525
      vertex -6.35 0 9.525
      vertex -12.5071 2.20533 9.525
    endloop
  endfacet
  facet normal 0 0 1
    outer loop
      vertex -6.35 0 9.525
      vertex -12.5071 -2.20533 9.525
      vertex -11.9341 -4.34366 9.525
    endloop
  endfacet
  facet normal 0 0 1
    outer loop
      vertex -6.35 0 9.525
      vertex -12.7 0 9.525
      vertex -12.5071 -2.20533 9.525
    endloop
  endfacet
  facet normal 0 0 1
    outer loop
      vertex 6.35 0 9.525
      vertex 12.7 0 9.525
      vertex 12.5071 2.20533 9.525
    endloop
  endfacet
  facet normal 0 0 1
    outer loop
      vertex 6.25353 1.10267 9.525
      vertex 12.5071 2.20533 9.525
      vertex 11.9341 4.34366 9.525
    endloop
  endfacet
  facet normal 0 0 1
    outer loop
      vertex 12.7 0 9.525
      vertex 6.35 0 9.525
      vertex 12.5071 -2.20533 9.525
    endloop
  endfacet
  facet normal 0 0 1
    outer loop
      vertex 6.25353 1.10267 9.525
      vertex 11.9341 4.34366 9.525
      vertex 10.9985 6.35 9.525
    endloop
  endfacet
  facet normal -0 0 1
    outer loop
      vertex 6.25353 -1.10267 9.525
      vertex 12.5071 -2.20533 9.525
      vertex 6.35 0 9.525
    endloop
  endfacet
  facet normal 0 0 1
    outer loop
      vertex 6.25353 1.10267 9.525
      vertex 10.9985 6.35 9.525
      vertex 9.72876 8.1634 9.525
    endloop
  endfacet
  facet normal 0 0 1
    outer loop
      vertex 12.5071 -2.20533 9.525
      vertex 6.25353 -1.10267 9.525
      vertex 11.9341 -4.34366 9.525
    endloop
  endfacet
  facet normal 0 0 1
    outer loop
      vertex 6.25353 1.10267 9.525
      vertex 9.72876 8.1634 9.525
      vertex 8.1634 9.72876 9.525
    endloop
  endfacet
  facet normal -0 0 1
    outer loop
      vertex 5.96705 -2.17183 9.525
      vertex 11.9341 -4.34366 9.525
      vertex 6.25353 -1.10267 9.525
    endloop
  endfacet
  facet normal 0 0 1
    outer loop
      vertex 4.0817 4.86438 9.525
      vertex 8.1634 9.72876 9.525
      vertex 6.35 10.9985 9.525
    endloop
  endfacet
  facet normal 0 0 1
    outer loop
      vertex 11.9341 -4.34366 9.525
      vertex 5.96705 -2.17183 9.525
      vertex 10.9985 -6.35 9.525
    endloop
  endfacet
  facet normal -0 0 1
    outer loop
      vertex 5.49926 -3.175 9.525
      vertex 10.9985 -6.35 9.525
      vertex 5.96705 -2.17183 9.525
    endloop
  endfacet
  facet normal 0 0 1
    outer loop
      vertex 10.9985 -6.35 9.525
      vertex 5.49926 -3.175 9.525
      vertex 9.72876 -8.1634 9.525
    endloop
  endfacet
  facet normal -0 0 1
    outer loop
      vertex 4.86438 -4.0817 9.525
      vertex 9.72876 -8.1634 9.525
      vertex 5.49926 -3.175 9.525
    endloop
  endfacet
  facet normal 0 0 1
    outer loop
      vertex 9.72876 -8.1634 9.525
      vertex 4.86438 -4.0817 9.525
      vertex 8.1634 -9.72876 9.525
    endloop
  endfacet
  facet normal -0 0 1
    outer loop
      vertex 4.0817 -4.86438 9.525
      vertex 8.1634 -9.72876 9.525
      vertex 4.86438 -4.0817 9.525
    endloop
  endfacet
  facet normal 0 0 1
    outer loop
      vertex 8.1634 -9.72876 9.525
      vertex 4.0817 -4.86438 9.525
      vertex 6.35 -10.9985 9.525
    endloop
  endfacet
  facet normal -0 0 1
    outer loop
      vertex 3.175 -5.49926 9.525
      vertex 6.35 -10.9985 9.525
      vertex 4.0817 -4.86438 9.525
    endloop
  endfacet
  facet normal 0 0 1
    outer loop
      vertex 6.35 -10.9985 9.525
      vertex 3.175 -5.49926 9.525
      vertex 4.34366 -11.9341 9.525
    endloop
  endfacet
  facet normal -0 0 1
    outer loop
      vertex 2.17183 -5.96705 9.525
      vertex 4.34366 -11.9341 9.525
      vertex 3.175 -5.49926 9.525
    endloop
  endfacet
  facet normal 0 0 1
    outer loop
      vertex 4.34366 -11.9341 9.525
      vertex 2.17183 -5.96705 9.525
      vertex 2.20533 -12.5071 9.525
    endloop
  endfacet
  facet normal -0 0 1
    outer loop
      vertex 1.10267 -6.25353 9.525
      vertex 2.20533 -12.5071 9.525
      vertex 2.17183 -5.96705 9.525
    endloop
  endfacet
  facet normal -0 0 1
    outer loop
      vertex 0 -6.35 9.525
      vertex 2.20533 -12.5071 9.525
      vertex 1.10267 -6.25353 9.525
    endloop
  endfacet
  facet normal 0 0 1
    outer loop
      vertex 0 -6.35 9.525
      vertex 0 -12.7 9.525
      vertex 2.20533 -12.5071 9.525
    endloop
  endfacet
  facet normal 0 0 1
    outer loop
      vertex -1.10267 -6.25353 9.525
      vertex 0 -12.7 9.525
      vertex 0 -6.35 9.525
    endloop
  endfacet
  facet normal 0 0 1
    outer loop
      vertex -2.20533 -12.5071 9.525
      vertex -1.10267 -6.25353 9.525
      vertex -2.17183 -5.96705 9.525
    endloop
  endfacet
  facet normal 0 0 1
    outer loop
      vertex -1.10267 -6.25353 9.525
      vertex -2.20533 -12.5071 9.525
      vertex 0 -12.7 9.525
    endloop
  endfacet
  facet normal 0 0 1
    outer loop
      vertex -4.34366 -11.9341 9.525
      vertex -2.17183 -5.96705 9.525
      vertex -3.175 -5.49926 9.525
    endloop
  endfacet
  facet normal 0 0 1
    outer loop
      vertex -6.35 -10.9985 9.525
      vertex -3.175 -5.49926 9.525
      vertex -4.0817 -4.86438 9.525
    endloop
  endfacet
  facet normal 0 0 1
    outer loop
      vertex -2.17183 -5.96705 9.525
      vertex -4.34366 -11.9341 9.525
      vertex -2.20533 -12.5071 9.525
    endloop
  endfacet
  facet normal 0 0 1
    outer loop
      vertex -6.35 -10.9985 9.525
      vertex -4.0817 -4.86438 9.525
      vertex -4.86438 -4.0817 9.525
    endloop
  endfacet
  facet normal 0 0 1
    outer loop
      vertex -6.35 -10.9985 9.525
      vertex -4.86438 -4.0817 9.525
      vertex -5.49926 -3.175 9.525
    endloop
  endfacet
  facet normal 0 0 1
    outer loop
      vertex -6.35 -10.9985 9.525
      vertex -5.49926 -3.175 9.525
      vertex -5.96705 -2.17183 9.525
    endloop
  endfacet
  facet normal 0 0 1
    outer loop
      vertex -6.35 -10.9985 9.525
      vertex -5.96705 -2.17183 9.525
      vertex -6.25353 -1.10267 9.525
    endloop
  endfacet
  facet normal 0 0 1
    outer loop
      vertex -3.175 -5.49926 9.525
      vertex -6.35 -10.9985 9.525
      vertex -4.34366 -11.9341 9.525
    endloop
  endfacet
  facet normal 0 0 1
    outer loop
      vertex -6.35 -10.9985 9.525
      vertex -6.25353 -1.10267 9.525
      vertex -6.35 0 9.525
    endloop
  endfacet
  facet normal -0.0871372 -0.996196 0
    outer loop
      vertex -2.20533 -12.5071 0
      vertex 0 -12.7 9.525
      vertex -2.20533 -12.5071 9.525
    endloop
  endfacet
  facet normal -0.0871372 -0.996196 -0
    outer loop
      vertex 0 -12.7 9.525
      vertex -2.20533 -12.5071 0
      vertex 0 -12.7 0
    endloop
  endfacet
  facet normal -0.258834 -0.965922 0
    outer loop
      vertex -4.34366 -11.9341 0
      vertex -2.20533 -12.5071 9.525
      vertex -4.34366 -11.9341 9.525
    endloop
  endfacet
  facet normal -0.258834 -0.965922 -0
    outer loop
      vertex -2.20533 -12.5071 9.525
      vertex -4.34366 -11.9341 0
      vertex -2.20533 -12.5071 0
    endloop
  endfacet
  facet normal 0 0 -1
    outer loop
      vertex 12.5071 -2.20533 0
      vertex 6.25353 -1.10267 0
      vertex 6.35 0 0
    endloop
  endfacet
  facet normal 0 0 -1
    outer loop
      vertex 8.1634 -9.72876 0
      vertex 5.96705 -2.17183 0
      vertex 6.25353 -1.10267 0
    endloop
  endfacet
  facet normal 0 0 -1
    outer loop
      vertex 8.1634 -9.72876 0
      vertex 5.49926 -3.175 0
      vertex 5.96705 -2.17183 0
    endloop
  endfacet
  facet normal 0 0 -1
    outer loop
      vertex 8.1634 -9.72876 0
      vertex 4.86438 -4.0817 0
      vertex 5.49926 -3.175 0
    endloop
  endfacet
  facet normal 0 0 -1
    outer loop
      vertex 3.175 -5.49926 0
      vertex 6.35 -10.9985 0
      vertex 4.34366 -11.9341 0
    endloop
  endfacet
  facet normal 0 0 -1
    outer loop
      vertex 8.1634 -9.72876 0
      vertex 4.0817 -4.86438 0
      vertex 4.86438 -4.0817 0
    endloop
  endfacet
  facet normal 0 0 -1
    outer loop
      vertex 6.35 -10.9985 0
      vertex 3.175 -5.49926 0
      vertex 4.0817 -4.86438 0
    endloop
  endfacet
  facet normal 0 0 -1
    outer loop
      vertex 2.17183 -5.96705 0
      vertex 4.34366 -11.9341 0
      vertex 2.20533 -12.5071 0
    endloop
  endfacet
  facet normal 0 0 -1
    outer loop
      vertex 4.34366 -11.9341 0
      vertex 2.17183 -5.96705 0
      vertex 3.175 -5.49926 0
    endloop
  endfacet
  facet normal 0 0 -1
    outer loop
      vertex 2.20533 -12.5071 0
      vertex 1.10267 -6.25353 0
      vertex 2.17183 -5.96705 0
    endloop
  endfacet
  facet normal 0 0 -1
    outer loop
      vertex 0 -12.7 0
      vertex 1.10267 -6.25353 0
      vertex 2.20533 -12.5071 0
    endloop
  endfacet
  facet normal 0 0 -1
    outer loop
      vertex 0 -12.7 0
      vertex 0 -6.35 0
      vertex 1.10267 -6.25353 0
    endloop
  endfacet
  facet normal 0 0 -1
    outer loop
      vertex 0 -12.7 0
      vertex -1.10267 -6.25353 0
      vertex 0 -6.35 0
    endloop
  endfacet
  facet normal 0 0 -1
    outer loop
      vertex -2.20533 -12.5071 0
      vertex -1.10267 -6.25353 0
      vertex 0 -12.7 0
    endloop
  endfacet
  facet normal -0 0 -1
    outer loop
      vertex -1.10267 -6.25353 0
      vertex -2.20533 -12.5071 0
      vertex -2.17183 -5.96705 0
    endloop
  endfacet
  facet normal 0 0 -1
    outer loop
      vertex -4.34366 -11.9341 0
      vertex -2.17183 -5.96705 0
      vertex -2.20533 -12.5071 0
    endloop
  endfacet
  facet normal -0 0 -1
    outer loop
      vertex -2.17183 -5.96705 0
      vertex -4.34366 -11.9341 0
      vertex -3.175 -5.49926 0
    endloop
  endfacet
  facet normal 0 0 -1
    outer loop
      vertex -6.35 -10.9985 0
      vertex -3.175 -5.49926 0
      vertex -4.34366 -11.9341 0
    endloop
  endfacet
  facet normal -0 0 -1
    outer loop
      vertex -3.175 -5.49926 0
      vertex -6.35 -10.9985 0
      vertex -4.0817 -4.86438 0
    endloop
  endfacet
  facet normal 0 0 -1
    outer loop
      vertex -8.1634 -9.72876 0
      vertex -4.0817 -4.86438 0
      vertex -6.35 -10.9985 0
    endloop
  endfacet
  facet normal -0 0 -1
    outer loop
      vertex -4.0817 -4.86438 0
      vertex -8.1634 -9.72876 0
      vertex -4.86438 -4.0817 0
    endloop
  endfacet
  facet normal 0 0 -1
    outer loop
      vertex -9.72876 -8.1634 0
      vertex -4.86438 -4.0817 0
      vertex -8.1634 -9.72876 0
    endloop
  endfacet
  facet normal -0 0 -1
    outer loop
      vertex -4.86438 -4.0817 0
      vertex -9.72876 -8.1634 0
      vertex -5.49926 -3.175 0
    endloop
  endfacet
  facet normal 0 0 -1
    outer loop
      vertex -10.9985 -6.35 0
      vertex -5.49926 -3.175 0
      vertex -9.72876 -8.1634 0
    endloop
  endfacet
  facet normal -0 0 -1
    outer loop
      vertex -5.49926 -3.175 0
      vertex -10.9985 -6.35 0
      vertex -5.96705 -2.17183 0
    endloop
  endfacet
  facet normal 0 0 -1
    outer loop
      vertex -11.9341 -4.34366 0
      vertex -5.96705 -2.17183 0
      vertex -10.9985 -6.35 0
    endloop
  endfacet
  facet normal 0 0 -1
    outer loop
      vertex -6.35 0 0
      vertex -8.1634 9.72876 0
      vertex -6.35 10.9985 0
    endloop
  endfacet
  facet normal -0 0 -1
    outer loop
      vertex -5.96705 -2.17183 0
      vertex -11.9341 -4.34366 0
      vertex -6.25353 -1.10267 0
    endloop
  endfacet
  facet normal 0 0 -1
    outer loop
      vertex -6.35 0 0
      vertex -9.72876 8.1634 0
      vertex -8.1634 9.72876 0
    endloop
  endfacet
  facet normal 0 0 -1
    outer loop
      vertex -12.5071 -2.20533 0
      vertex -6.25353 -1.10267 0
      vertex -11.9341 -4.34366 0
    endloop
  endfacet
  facet normal 0 0 -1
    outer loop
      vertex -6.35 0 0
      vertex -10.9985 6.35 0
      vertex -9.72876 8.1634 0
    endloop
  endfacet
  facet normal -0 0 -1
    outer loop
      vertex -6.25353 -1.10267 0
      vertex -12.5071 -2.20533 0
      vertex -6.35 0 0
    endloop
  endfacet
  facet normal 0 0 -1
    outer loop
      vertex -6.35 0 0
      vertex -11.9341 4.34366 0
      vertex -10.9985 6.35 0
    endloop
  endfacet
  facet normal 0 0 -1
    outer loop
      vertex -12.7 0 0
      vertex -6.35 0 0
      vertex -12.5071 -2.20533 0
    endloop
  endfacet
  facet normal 0 0 -1
    outer loop
      vertex -6.35 0 0
      vertex -12.5071 2.20533 0
      vertex -11.9341 4.34366 0
    endloop
  endfacet
  facet normal 0 0 -1
    outer loop
      vertex -6.35 0 0
      vertex -12.7 0 0
      vertex -12.5071 2.20533 0
    endloop
  endfacet
  facet normal 0 0 -1
    outer loop
      vertex 6.35 0 0
      vertex 12.7 0 0
      vertex 12.5071 -2.20533 0
    endloop
  endfacet
  facet normal 0 0 -1
    outer loop
      vertex 6.25353 -1.10267 0
      vertex 12.5071 -2.20533 0
      vertex 11.9341 -4.34366 0
    endloop
  endfacet
  facet normal 0 0 -1
    outer loop
      vertex 12.7 0 0
      vertex 6.35 0 0
      vertex 12.5071 2.20533 0
    endloop
  endfacet
  facet normal 0 0 -1
    outer loop
      vertex 6.25353 -1.10267 0
      vertex 11.9341 -4.34366 0
      vertex 10.9985 -6.35 0
    endloop
  endfacet
  facet normal 0 0 -1
    outer loop
      vertex 6.25353 1.10267 0
      vertex 12.5071 2.20533 0
      vertex 6.35 0 0
    endloop
  endfacet
  facet normal 0 0 -1
    outer loop
      vertex 6.25353 -1.10267 0
      vertex 10.9985 -6.35 0
      vertex 9.72876 -8.1634 0
    endloop
  endfacet
  facet normal -0 0 -1
    outer loop
      vertex 12.5071 2.20533 0
      vertex 6.25353 1.10267 0
      vertex 11.9341 4.34366 0
    endloop
  endfacet
  facet normal 0 0 -1
    outer loop
      vertex 6.25353 -1.10267 0
      vertex 9.72876 -8.1634 0
      vertex 8.1634 -9.72876 0
    endloop
  endfacet
  facet normal 0 0 -1
    outer loop
      vertex 5.96705 2.17183 0
      vertex 11.9341 4.34366 0
      vertex 6.25353 1.10267 0
    endloop
  endfacet
  facet normal 0 0 -1
    outer loop
      vertex 4.0817 -4.86438 0
      vertex 8.1634 -9.72876 0
      vertex 6.35 -10.9985 0
    endloop
  endfacet
  facet normal -0 0 -1
    outer loop
      vertex 11.9341 4.34366 0
      vertex 5.96705 2.17183 0
      vertex 10.9985 6.35 0
    endloop
  endfacet
  facet normal 0 0 -1
    outer loop
      vertex 5.49926 3.175 0
      vertex 10.9985 6.35 0
      vertex 5.96705 2.17183 0
    endloop
  endfacet
  facet normal -0 0 -1
    outer loop
      vertex 10.9985 6.35 0
      vertex 5.49926 3.175 0
      vertex 9.72876 8.1634 0
    endloop
  endfacet
  facet normal 0 0 -1
    outer loop
      vertex 4.86438 4.0817 0
      vertex 9.72876 8.1634 0
      vertex 5.49926 3.175 0
    endloop
  endfacet
  facet normal -0 0 -1
    outer loop
      vertex 9.72876 8.1634 0
      vertex 4.86438 4.0817 0
      vertex 8.1634 9.72876 0
    endloop
  endfacet
  facet normal 0 0 -1
    outer loop
      vertex 4.0817 4.86438 0
      vertex 8.1634 9.72876 0
      vertex 4.86438 4.0817 0
    endloop
  endfacet
  facet normal -0 0 -1
    outer loop
      vertex 8.1634 9.72876 0
      vertex 4.0817 4.86438 0
      vertex 6.35 10.9985 0
    endloop
  endfacet
  facet normal 0 0 -1
    outer loop
      vertex 3.175 5.49926 0
      vertex 6.35 10.9985 0
      vertex 4.0817 4.86438 0
    endloop
  endfacet
  facet normal -0 0 -1
    outer loop
      vertex 6.35 10.9985 0
      vertex 3.175 5.49926 0
      vertex 4.34366 11.9341 0
    endloop
  endfacet
  facet normal 0 0 -1
    outer loop
      vertex 2.17183 5.96705 0
      vertex 4.34366 11.9341 0
      vertex 3.175 5.49926 0
    endloop
  endfacet
  facet normal -0 0 -1
    outer loop
      vertex 4.34366 11.9341 0
      vertex 2.17183 5.96705 0
      vertex 2.20533 12.5071 0
    endloop
  endfacet
  facet normal 0 0 -1
    outer loop
      vertex 1.10267 6.25353 0
      vertex 2.20533 12.5071 0
      vertex 2.17183 5.96705 0
    endloop
  endfacet
  facet normal 0 0 -1
    outer loop
      vertex 0 6.35 0
      vertex 2.20533 12.5071 0
      vertex 1.10267 6.25353 0
    endloop
  endfacet
  facet normal 0 0 -1
    outer loop
      vertex 0 6.35 0
      vertex 0 12.7 0
      vertex 2.20533 12.5071 0
    endloop
  endfacet
  facet normal 0 0 -1
    outer loop
      vertex -1.10267 6.25353 0
      vertex 0 12.7 0
      vertex 0 6.35 0
    endloop
  endfacet
  facet normal 0 0 -1
    outer loop
      vertex -2.20533 12.5071 0
      vertex -1.10267 6.25353 0
      vertex -2.17183 5.96705 0
    endloop
  endfacet
  facet normal 0 0 -1
    outer loop
      vertex -1.10267 6.25353 0
      vertex -2.20533 12.5071 0
      vertex 0 12.7 0
    endloop
  endfacet
  facet normal 0 0 -1
    outer loop
      vertex -4.34366 11.9341 0
      vertex -2.17183 5.96705 0
      vertex -3.175 5.49926 0
    endloop
  endfacet
  facet normal 0 0 -1
    outer loop
      vertex -6.35 10.9985 0
      vertex -3.175 5.49926 0
      vertex -4.0817 4.86438 0
    endloop
  endfacet
  facet normal 0 0 -1
    outer loop
      vertex -2.17183 5.96705 0
      vertex -4.34366 11.9341 0
      vertex -2.20533 12.5071 0
    endloop
  endfacet
  facet normal 0 0 -1
    outer loop
      vertex -6.35 10.9985 0
      vertex -4.0817 4.86438 0
      vertex -4.86438 4.0817 0
    endloop
  endfacet
  facet normal 0 0 -1
    outer loop
      vertex -6.35 10.9985 0
      vertex -4.86438 4.0817 0
      vertex -5.49926 3.175 0
    endloop
  endfacet
  facet normal 0 0 -1
    outer loop
      vertex -6.35 10.9985 0
      vertex -5.49926 3.175 0
      vertex -5.96705 2.17183 0
    endloop
  endfacet
  facet normal 0 0 -1
    outer loop
      vertex -6.35 10.9985 0
      vertex -5.96705 2.17183 0
      vertex -6.25353 1.10267 0
    endloop
  endfacet
  facet normal 0 0 -1
    outer loop
      vertex -3.175 5.49926 0
      vertex -6.35 10.9985 0
      vertex -4.34366 11.9341 0
    endloop
  endfacet
  facet normal 0 0 -1
    outer loop
      vertex -6.35 10.9985 0
      vertex -6.25353 1.10267 0
      vertex -6.35 0 0
    endloop
  endfacet
  facet normal -0.573571 -0.819156 0
    outer loop
      vertex -8.1634 -9.72876 0
      vertex -6.35 -10.9985 9.525
      vertex -8.1634 -9.72876 9.525
    endloop
  endfacet
  facet normal -0.573571 -0.819156 -0
    outer loop
      vertex -6.35 -10.9985 9.525
      vertex -8.1634 -9.72876 0
      vertex -6.35 -10.9985 0
    endloop
  endfacet
  facet normal -0.965926 -0.258819 0
    outer loop
      vertex 6.25353 1.10267 0
      vertex 5.96705 2.17183 9.525
      vertex 5.96705 2.17183 0
    endloop
  endfacet
  facet normal -0.965926 -0.258819 0
    outer loop
      vertex 5.96705 2.17183 9.525
      vertex 6.25353 1.10267 0
      vertex 6.25353 1.10267 9.525
    endloop
  endfacet
  facet normal -0.996195 -0.0871547 0
    outer loop
      vertex 6.35 0 0
      vertex 6.25353 1.10267 9.525
      vertex 6.25353 1.10267 0
    endloop
  endfacet
  facet normal -0.996195 -0.0871547 0
    outer loop
      vertex 6.25353 1.10267 9.525
      vertex 6.35 0 0
      vertex 6.35 0 9.525
    endloop
  endfacet
  facet normal -0.906306 -0.422621 0
    outer loop
      vertex 5.96705 2.17183 0
      vertex 5.49926 3.175 9.525
      vertex 5.49926 3.175 0
    endloop
  endfacet
  facet normal -0.906306 -0.422621 0
    outer loop
      vertex 5.49926 3.175 9.525
      vertex 5.96705 2.17183 0
      vertex 5.96705 2.17183 9.525
    endloop
  endfacet
  facet normal -0.258819 0.965926 0
    outer loop
      vertex 2.17183 -5.96705 0
      vertex 1.10267 -6.25353 9.525
      vertex 2.17183 -5.96705 9.525
    endloop
  endfacet
  facet normal -0.258819 0.965926 0
    outer loop
      vertex 1.10267 -6.25353 9.525
      vertex 2.17183 -5.96705 0
      vertex 1.10267 -6.25353 0
    endloop
  endfacet
  facet normal 0.707107 -0.707107 0
    outer loop
      vertex -4.86438 4.0817 9.525
      vertex -4.0817 4.86438 0
      vertex -4.0817 4.86438 9.525
    endloop
  endfacet
  facet normal 0.707107 -0.707107 0
    outer loop
      vertex -4.0817 4.86438 0
      vertex -4.86438 4.0817 9.525
      vertex -4.86438 4.0817 0
    endloop
  endfacet
  facet normal -0.707107 -0.707107 0
    outer loop
      vertex 4.86438 4.0817 0
      vertex 4.0817 4.86438 9.525
      vertex 4.0817 4.86438 0
    endloop
  endfacet
  facet normal -0.707107 -0.707107 0
    outer loop
      vertex 4.0817 4.86438 9.525
      vertex 4.86438 4.0817 0
      vertex 4.86438 4.0817 9.525
    endloop
  endfacet
  facet normal 0.996195 -0.0871547 0
    outer loop
      vertex -6.35 0 9.525
      vertex -6.25353 1.10267 0
      vertex -6.25353 1.10267 9.525
    endloop
  endfacet
  facet normal 0.996195 -0.0871547 0
    outer loop
      vertex -6.25353 1.10267 0
      vertex -6.35 0 9.525
      vertex -6.35 0 0
    endloop
  endfacet
  facet normal 0.965926 0.258819 0
    outer loop
      vertex -5.96705 -2.17183 9.525
      vertex -6.25353 -1.10267 0
      vertex -6.25353 -1.10267 9.525
    endloop
  endfacet
  facet normal 0.965926 0.258819 0
    outer loop
      vertex -6.25353 -1.10267 0
      vertex -5.96705 -2.17183 9.525
      vertex -5.96705 -2.17183 0
    endloop
  endfacet
  facet normal 0.906306 -0.422621 0
    outer loop
      vertex -5.96705 2.17183 9.525
      vertex -5.49926 3.175 0
      vertex -5.49926 3.175 9.525
    endloop
  endfacet
  facet normal 0.906306 -0.422621 0
    outer loop
      vertex -5.49926 3.175 0
      vertex -5.96705 2.17183 9.525
      vertex -5.96705 2.17183 0
    endloop
  endfacet
  facet normal -0.0871547 -0.996195 0
    outer loop
      vertex 0 6.35 0
      vertex 1.10267 6.25353 9.525
      vertex 0 6.35 9.525
    endloop
  endfacet
  facet normal -0.0871547 -0.996195 -0
    outer loop
      vertex 1.10267 6.25353 9.525
      vertex 0 6.35 0
      vertex 1.10267 6.25353 0
    endloop
  endfacet
  facet normal 0.422621 -0.906306 0
    outer loop
      vertex -3.175 5.49926 0
      vertex -2.17183 5.96705 9.525
      vertex -3.175 5.49926 9.525
    endloop
  endfacet
  facet normal 0.422621 -0.906306 0
    outer loop
      vertex -2.17183 5.96705 9.525
      vertex -3.175 5.49926 0
      vertex -2.17183 5.96705 0
    endloop
  endfacet
  facet normal -0.996195 0.0871547 0
    outer loop
      vertex 6.25353 -1.10267 0
      vertex 6.35 0 9.525
      vertex 6.35 0 0
    endloop
  endfacet
  facet normal -0.996195 0.0871547 0
    outer loop
      vertex 6.35 0 9.525
      vertex 6.25353 -1.10267 0
      vertex 6.25353 -1.10267 9.525
    endloop
  endfacet
  facet normal -0.0871547 0.996195 0
    outer loop
      vertex 1.10267 -6.25353 0
      vertex 0 -6.35 9.525
      vertex 1.10267 -6.25353 9.525
    endloop
  endfacet
  facet normal -0.0871547 0.996195 0
    outer loop
      vertex 0 -6.35 9.525
      vertex 1.10267 -6.25353 0
      vertex 0 -6.35 0
    endloop
  endfacet
  facet normal 0.573578 -0.819151 0
    outer loop
      vertex -4.0817 4.86438 0
      vertex -3.175 5.49926 9.525
      vertex -4.0817 4.86438 9.525
    endloop
  endfacet
  facet normal 0.573578 -0.819151 0
    outer loop
      vertex -3.175 5.49926 9.525
      vertex -4.0817 4.86438 0
      vertex -3.175 5.49926 0
    endloop
  endfacet
  facet normal -0.819151 -0.573578 0
    outer loop
      vertex 5.49926 3.175 0
      vertex 4.86438 4.0817 9.525
      vertex 4.86438 4.0817 0
    endloop
  endfacet
  facet normal -0.819151 -0.573578 0
    outer loop
      vertex 4.86438 4.0817 9.525
      vertex 5.49926 3.175 0
      vertex 5.49926 3.175 9.525
    endloop
  endfacet
  facet normal 0.258819 -0.965926 0
    outer loop
      vertex -2.17183 5.96705 0
      vertex -1.10267 6.25353 9.525
      vertex -2.17183 5.96705 9.525
    endloop
  endfacet
  facet normal 0.258819 -0.965926 0
    outer loop
      vertex -1.10267 6.25353 9.525
      vertex -2.17183 5.96705 0
      vertex -1.10267 6.25353 0
    endloop
  endfacet
  facet normal 0.0871547 -0.996195 0
    outer loop
      vertex -1.10267 6.25353 0
      vertex 0 6.35 9.525
      vertex -1.10267 6.25353 9.525
    endloop
  endfacet
  facet normal 0.0871547 -0.996195 0
    outer loop
      vertex 0 6.35 9.525
      vertex -1.10267 6.25353 0
      vertex 0 6.35 0
    endloop
  endfacet
  facet normal 0.707107 0.707107 0
    outer loop
      vertex -4.0817 -4.86438 9.525
      vertex -4.86438 -4.0817 0
      vertex -4.86438 -4.0817 9.525
    endloop
  endfacet
  facet normal 0.707107 0.707107 0
    outer loop
      vertex -4.86438 -4.0817 0
      vertex -4.0817 -4.86438 9.525
      vertex -4.0817 -4.86438 0
    endloop
  endfacet
  facet normal -0.707107 0.707107 0
    outer loop
      vertex 4.0817 -4.86438 0
      vertex 4.86438 -4.0817 9.525
      vertex 4.86438 -4.0817 0
    endloop
  endfacet
  facet normal -0.707107 0.707107 0
    outer loop
      vertex 4.86438 -4.0817 9.525
      vertex 4.0817 -4.86438 0
      vertex 4.0817 -4.86438 9.525
    endloop
  endfacet
  facet normal 0.965926 -0.258819 0
    outer loop
      vertex -6.25353 1.10267 9.525
      vertex -5.96705 2.17183 0
      vertex -5.96705 2.17183 9.525
    endloop
  endfacet
  facet normal 0.965926 -0.258819 0
    outer loop
      vertex -5.96705 2.17183 0
      vertex -6.25353 1.10267 9.525
      vertex -6.25353 1.10267 0
    endloop
  endfacet
  facet normal -0.422621 -0.906306 0
    outer loop
      vertex 2.17183 5.96705 0
      vertex 3.175 5.49926 9.525
      vertex 2.17183 5.96705 9.525
    endloop
  endfacet
  facet normal -0.422621 -0.906306 -0
    outer loop
      vertex 3.175 5.49926 9.525
      vertex 2.17183 5.96705 0
      vertex 3.175 5.49926 0
    endloop
  endfacet
  facet normal 0.996195 0.0871547 0
    outer loop
      vertex -6.25353 -1.10267 9.525
      vertex -6.35 0 0
      vertex -6.35 0 9.525
    endloop
  endfacet
  facet normal 0.996195 0.0871547 0
    outer loop
      vertex -6.35 0 0
      vertex -6.25353 -1.10267 9.525
      vertex -6.25353 -1.10267 0
    endloop
  endfacet
  facet normal -0.573578 0.819151 0
    outer loop
      vertex 4.0817 -4.86438 0
      vertex 3.175 -5.49926 9.525
      vertex 4.0817 -4.86438 9.525
    endloop
  endfacet
  facet normal -0.573578 0.819151 0
    outer loop
      vertex 3.175 -5.49926 9.525
      vertex 4.0817 -4.86438 0
      vertex 3.175 -5.49926 0
    endloop
  endfacet
  facet normal -0.573578 -0.819151 0
    outer loop
      vertex 3.175 5.49926 0
      vertex 4.0817 4.86438 9.525
      vertex 3.175 5.49926 9.525
    endloop
  endfacet
  facet normal -0.573578 -0.819151 -0
    outer loop
      vertex 4.0817 4.86438 9.525
      vertex 3.175 5.49926 0
      vertex 4.0817 4.86438 0
    endloop
  endfacet
  facet normal -0.965926 0.258819 0
    outer loop
      vertex 5.96705 -2.17183 0
      vertex 6.25353 -1.10267 9.525
      vertex 6.25353 -1.10267 0
    endloop
  endfacet
  facet normal -0.965926 0.258819 0
    outer loop
      vertex 6.25353 -1.10267 9.525
      vertex 5.96705 -2.17183 0
      vertex 5.96705 -2.17183 9.525
    endloop
  endfacet
  facet normal 0.422621 0.906306 -0
    outer loop
      vertex -2.17183 -5.96705 0
      vertex -3.175 -5.49926 9.525
      vertex -2.17183 -5.96705 9.525
    endloop
  endfacet
  facet normal 0.422621 0.906306 0
    outer loop
      vertex -3.175 -5.49926 9.525
      vertex -2.17183 -5.96705 0
      vertex -3.175 -5.49926 0
    endloop
  endfacet
  facet normal -0.819151 0.573578 0
    outer loop
      vertex 4.86438 -4.0817 0
      vertex 5.49926 -3.175 9.525
      vertex 5.49926 -3.175 0
    endloop
  endfacet
  facet normal -0.819151 0.573578 0
    outer loop
      vertex 5.49926 -3.175 9.525
      vertex 4.86438 -4.0817 0
      vertex 4.86438 -4.0817 9.525
    endloop
  endfacet
  facet normal -0.906306 0.422621 0
    outer loop
      vertex 5.49926 -3.175 0
      vertex 5.96705 -2.17183 9.525
      vertex 5.96705 -2.17183 0
    endloop
  endfacet
  facet normal -0.906306 0.422621 0
    outer loop
      vertex 5.96705 -2.17183 9.525
      vertex 5.49926 -3.175 0
      vertex 5.49926 -3.175 9.525
    endloop
  endfacet
  facet normal 0.906306 0.422621 0
    outer loop
      vertex -5.49926 -3.175 9.525
      vertex -5.96705 -2.17183 0
      vertex -5.96705 -2.17183 9.525
    endloop
  endfacet
  facet normal 0.906306 0.422621 0
    outer loop
      vertex -5.96705 -2.17183 0
      vertex -5.49926 -3.175 9.525
      vertex -5.49926 -3.175 0
    endloop
  endfacet
  facet normal 0.819151 0.573578 0
    outer loop
      vertex -4.86438 -4.0817 9.525
      vertex -5.49926 -3.175 0
      vertex -5.49926 -3.175 9.525
    endloop
  endfacet
  facet normal 0.819151 0.573578 0
    outer loop
      vertex -5.49926 -3.175 0
      vertex -4.86438 -4.0817 9.525
      vertex -4.86438 -4.0817 0
    endloop
  endfacet
  facet normal -0.422621 0.906306 0
    outer loop
      vertex 3.175 -5.49926 0
      vertex 2.17183 -5.96705 9.525
      vertex 3.175 -5.49926 9.525
    endloop
  endfacet
  facet normal -0.422621 0.906306 0
    outer loop
      vertex 2.17183 -5.96705 9.525
      vertex 3.175 -5.49926 0
      vertex 2.17183 -5.96705 0
    endloop
  endfacet
  facet normal 0.819151 -0.573578 0
    outer loop
      vertex -5.49926 3.175 9.525
      vertex -4.86438 4.0817 0
      vertex -4.86438 4.0817 9.525
    endloop
  endfacet
  facet normal 0.819151 -0.573578 0
    outer loop
      vertex -4.86438 4.0817 0
      vertex -5.49926 3.175 9.525
      vertex -5.49926 3.175 0
    endloop
  endfacet
  facet normal -0.258819 -0.965926 0
    outer loop
      vertex 1.10267 6.25353 0
      vertex 2.17183 5.96705 9.525
      vertex 1.10267 6.25353 9.525
    endloop
  endfacet
  facet normal -0.258819 -0.965926 -0
    outer loop
      vertex 2.17183 5.96705 9.525
      vertex 1.10267 6.25353 0
      vertex 2.17183 5.96705 0
    endloop
  endfacet
  facet normal 0.0871547 0.996195 -0
    outer loop
      vertex 0 -6.35 0
      vertex -1.10267 -6.25353 9.525
      vertex 0 -6.35 9.525
    endloop
  endfacet
  facet normal 0.0871547 0.996195 0
    outer loop
      vertex -1.10267 -6.25353 9.525
      vertex 0 -6.35 0
      vertex -1.10267 -6.25353 0
    endloop
  endfacet
  facet normal 0.258819 0.965926 -0
    outer loop
      vertex -1.10267 -6.25353 0
      vertex -2.17183 -5.96705 9.525
      vertex -1.10267 -6.25353 9.525
    endloop
  endfacet
  facet normal 0.258819 0.965926 0
    outer loop
      vertex -2.17183 -5.96705 9.525
      vertex -1.10267 -6.25353 0
      vertex -2.17183 -5.96705 0
    endloop
  endfacet
  facet normal 0.573578 0.819151 -0
    outer loop
      vertex -3.175 -5.49926 0
      vertex -4.0817 -4.86438 9.525
      vertex -3.175 -5.49926 9.525
    endloop
  endfacet
  facet normal 0.573578 0.819151 0
    outer loop
      vertex -4.0817 -4.86438 9.525
      vertex -3.175 -5.49926 0
      vertex -4.0817 -4.86438 0
    endloop
  endfacet
endsolid OpenSCAD_Model
