solid OpenSCAD_Model
  facet normal 1 -0 0
    outer loop
      vertex 240 0 3
      vertex 240 44.45 0
      vertex 240 44.45 3
    endloop
  endfacet
  facet normal 1 0 0
    outer loop
      vertex 240 44.45 0
      vertex 240 0 3
      vertex 240 0 0
    endloop
  endfacet
  facet normal 0 0 1
    outer loop
      vertex 240 44.45 3
      vertex 229.5 22.225 3
      vertex 240 0 3
    endloop
  endfacet
  facet normal 0 0 1
    outer loop
      vertex 240 44.45 3
      vertex 229.462 22.6591 3
      vertex 229.5 22.225 3
    endloop
  endfacet
  facet normal 0 0 1
    outer loop
      vertex 240 44.45 3
      vertex 229.349 23.08 3
      vertex 229.462 22.6591 3
    endloop
  endfacet
  facet normal 0 0 1
    outer loop
      vertex 240 44.45 3
      vertex 229.165 23.475 3
      vertex 229.349 23.08 3
    endloop
  endfacet
  facet normal 0 0 1
    outer loop
      vertex 240 44.45 3
      vertex 228.915 23.832 3
      vertex 229.165 23.475 3
    endloop
  endfacet
  facet normal 0 0 1
    outer loop
      vertex 240 44.45 3
      vertex 228.607 24.1401 3
      vertex 228.915 23.832 3
    endloop
  endfacet
  facet normal 0 0 1
    outer loop
      vertex 240 44.45 3
      vertex 228.25 24.3901 3
      vertex 228.607 24.1401 3
    endloop
  endfacet
  facet normal 0 0 1
    outer loop
      vertex 240 44.45 3
      vertex 227.855 24.5742 3
      vertex 228.25 24.3901 3
    endloop
  endfacet
  facet normal 0 0 1
    outer loop
      vertex 240 44.45 3
      vertex 227.434 24.687 3
      vertex 227.855 24.5742 3
    endloop
  endfacet
  facet normal -0 0 1
    outer loop
      vertex 218.5 38.225 3
      vertex 227.434 24.687 3
      vertex 240 44.45 3
    endloop
  endfacet
  facet normal 0 0 1
    outer loop
      vertex 227.434 24.687 3
      vertex 218.5 38.225 3
      vertex 227 24.725 3
    endloop
  endfacet
  facet normal 0 0 1
    outer loop
      vertex 227 24.725 3
      vertex 218.5 38.225 3
      vertex 226.566 24.687 3
    endloop
  endfacet
  facet normal 0 0 1
    outer loop
      vertex 226.566 24.687 3
      vertex 218.5 38.225 3
      vertex 226.145 24.5742 3
    endloop
  endfacet
  facet normal 0 0 1
    outer loop
      vertex 226.145 24.5742 3
      vertex 218.5 38.225 3
      vertex 225.75 24.3901 3
    endloop
  endfacet
  facet normal 0 0 1
    outer loop
      vertex 225.75 24.3901 3
      vertex 218.5 38.225 3
      vertex 225.393 24.1401 3
    endloop
  endfacet
  facet normal 0 0 1
    outer loop
      vertex 224.538 22.6591 3
      vertex 218.5 38.225 3
      vertex 224.5 22.225 3
    endloop
  endfacet
  facet normal 0 0 1
    outer loop
      vertex 224.651 23.08 3
      vertex 218.5 38.225 3
      vertex 224.538 22.6591 3
    endloop
  endfacet
  facet normal 0 0 1
    outer loop
      vertex 224.835 23.475 3
      vertex 218.5 38.225 3
      vertex 224.651 23.08 3
    endloop
  endfacet
  facet normal 0 0 1
    outer loop
      vertex 225.085 23.832 3
      vertex 218.5 38.225 3
      vertex 224.835 23.475 3
    endloop
  endfacet
  facet normal 0 0 1
    outer loop
      vertex 225.393 24.1401 3
      vertex 218.5 38.225 3
      vertex 225.085 23.832 3
    endloop
  endfacet
  facet normal 0 0 1
    outer loop
      vertex 240 44.45 3
      vertex 53.5 38.225 3
      vertex 218.5 38.225 3
    endloop
  endfacet
  facet normal 0 0 1
    outer loop
      vertex 45.663 27.409 3
      vertex 53.5 38.225 3
      vertex 45.663 30.225 3
    endloop
  endfacet
  facet normal 0 0 1
    outer loop
      vertex 53.5 38.225 3
      vertex 34.884 30.225 3
      vertex 45.663 30.225 3
    endloop
  endfacet
  facet normal 0 0 1
    outer loop
      vertex 15.1651 23.475 3
      vertex 34.884 27.409 3
      vertex 34.884 30.225 3
    endloop
  endfacet
  facet normal 0 -0 1
    outer loop
      vertex 15.5 22.225 3
      vertex 34.884 27.409 3
      vertex 15.462 22.6591 3
    endloop
  endfacet
  facet normal -0 0 1
    outer loop
      vertex 15.462 21.7909 3
      vertex 34.884 18.897 3
      vertex 15.5 22.225 3
    endloop
  endfacet
  facet normal 0 0 1
    outer loop
      vertex 0 44.45 3
      vertex 34.884 30.225 3
      vertex 53.5 38.225 3
    endloop
  endfacet
  facet normal 0 0 1
    outer loop
      vertex 34.884 27.409 3
      vertex 15.5 22.225 3
      vertex 34.884 18.897 3
    endloop
  endfacet
  facet normal 0 0 1
    outer loop
      vertex 34.884 27.409 3
      vertex 15.3492 23.08 3
      vertex 15.462 22.6591 3
    endloop
  endfacet
  facet normal 0 0 1
    outer loop
      vertex 34.884 27.409 3
      vertex 15.1651 23.475 3
      vertex 15.3492 23.08 3
    endloop
  endfacet
  facet normal 0 0 1
    outer loop
      vertex 34.884 30.225 3
      vertex 14.9151 23.832 3
      vertex 15.1651 23.475 3
    endloop
  endfacet
  facet normal 0 0 1
    outer loop
      vertex 34.884 30.225 3
      vertex 14.607 24.1401 3
      vertex 14.9151 23.832 3
    endloop
  endfacet
  facet normal 0 0 1
    outer loop
      vertex 34.884 30.225 3
      vertex 14.25 24.3901 3
      vertex 14.607 24.1401 3
    endloop
  endfacet
  facet normal 0 -0 1
    outer loop
      vertex 13.8551 24.5742 3
      vertex 34.884 30.225 3
      vertex 0 44.45 3
    endloop
  endfacet
  facet normal 0 0 1
    outer loop
      vertex 34.884 30.225 3
      vertex 13.8551 24.5742 3
      vertex 14.25 24.3901 3
    endloop
  endfacet
  facet normal 0 0 1
    outer loop
      vertex 13.8551 24.5742 3
      vertex 0 44.45 3
      vertex 13.4341 24.687 3
    endloop
  endfacet
  facet normal 0 0 1
    outer loop
      vertex 13.4341 24.687 3
      vertex 0 44.45 3
      vertex 13 24.725 3
    endloop
  endfacet
  facet normal 0 0 1
    outer loop
      vertex 13 24.725 3
      vertex 0 44.45 3
      vertex 12.5659 24.687 3
    endloop
  endfacet
  facet normal 0 0 1
    outer loop
      vertex 10.538 22.6591 3
      vertex 0 44.45 3
      vertex 10.5 22.225 3
    endloop
  endfacet
  facet normal 0 0 1
    outer loop
      vertex 10.6508 23.08 3
      vertex 0 44.45 3
      vertex 10.538 22.6591 3
    endloop
  endfacet
  facet normal 0 0 1
    outer loop
      vertex 10.8349 23.475 3
      vertex 0 44.45 3
      vertex 10.6508 23.08 3
    endloop
  endfacet
  facet normal 0 0 1
    outer loop
      vertex 11.0849 23.832 3
      vertex 0 44.45 3
      vertex 10.8349 23.475 3
    endloop
  endfacet
  facet normal 0 0 1
    outer loop
      vertex 11.393 24.1401 3
      vertex 0 44.45 3
      vertex 11.0849 23.832 3
    endloop
  endfacet
  facet normal 0 0 1
    outer loop
      vertex 11.75 24.3901 3
      vertex 0 44.45 3
      vertex 11.393 24.1401 3
    endloop
  endfacet
  facet normal 0 0 1
    outer loop
      vertex 12.1449 24.5742 3
      vertex 0 44.45 3
      vertex 11.75 24.3901 3
    endloop
  endfacet
  facet normal 0 0 1
    outer loop
      vertex 12.5659 24.687 3
      vertex 0 44.45 3
      vertex 12.1449 24.5742 3
    endloop
  endfacet
  facet normal -0 0 1
    outer loop
      vertex 0 44.45 3
      vertex 53.5 38.225 3
      vertex 240 44.45 3
    endloop
  endfacet
  facet normal -0 0 1
    outer loop
      vertex 229.462 21.7909 3
      vertex 240 0 3
      vertex 229.5 22.225 3
    endloop
  endfacet
  facet normal -0 0 1
    outer loop
      vertex 229.349 21.3699 3
      vertex 240 0 3
      vertex 229.462 21.7909 3
    endloop
  endfacet
  facet normal -0 0 1
    outer loop
      vertex 229.165 20.975 3
      vertex 240 0 3
      vertex 229.349 21.3699 3
    endloop
  endfacet
  facet normal -0 0 1
    outer loop
      vertex 228.915 20.618 3
      vertex 240 0 3
      vertex 229.165 20.975 3
    endloop
  endfacet
  facet normal -0 0 1
    outer loop
      vertex 228.607 20.3099 3
      vertex 240 0 3
      vertex 228.915 20.618 3
    endloop
  endfacet
  facet normal -0 0 1
    outer loop
      vertex 228.25 20.0599 3
      vertex 240 0 3
      vertex 228.607 20.3099 3
    endloop
  endfacet
  facet normal -0 0 1
    outer loop
      vertex 227.855 19.8758 3
      vertex 240 0 3
      vertex 228.25 20.0599 3
    endloop
  endfacet
  facet normal -0 0 1
    outer loop
      vertex 227.434 19.763 3
      vertex 240 0 3
      vertex 227.855 19.8758 3
    endloop
  endfacet
  facet normal 0 0 1
    outer loop
      vertex 218.5 6.225 3
      vertex 227.434 19.763 3
      vertex 227 19.725 3
    endloop
  endfacet
  facet normal 0 0 1
    outer loop
      vertex 218.5 6.225 3
      vertex 227 19.725 3
      vertex 226.566 19.763 3
    endloop
  endfacet
  facet normal 0 0 1
    outer loop
      vertex 218.5 6.225 3
      vertex 226.566 19.763 3
      vertex 226.145 19.8758 3
    endloop
  endfacet
  facet normal 0 0 1
    outer loop
      vertex 218.5 6.225 3
      vertex 226.145 19.8758 3
      vertex 225.75 20.0599 3
    endloop
  endfacet
  facet normal 0 0 1
    outer loop
      vertex 218.5 6.225 3
      vertex 225.75 20.0599 3
      vertex 225.393 20.3099 3
    endloop
  endfacet
  facet normal 0 0 1
    outer loop
      vertex 218.5 6.225 3
      vertex 225.393 20.3099 3
      vertex 225.085 20.618 3
    endloop
  endfacet
  facet normal 0 0 1
    outer loop
      vertex 218.5 6.225 3
      vertex 224.5 22.225 3
      vertex 218.5 38.225 3
    endloop
  endfacet
  facet normal 0 0 1
    outer loop
      vertex 224.5 22.225 3
      vertex 218.5 6.225 3
      vertex 224.538 21.7909 3
    endloop
  endfacet
  facet normal 0 0 1
    outer loop
      vertex 224.538 21.7909 3
      vertex 218.5 6.225 3
      vertex 224.651 21.3699 3
    endloop
  endfacet
  facet normal 0 0 1
    outer loop
      vertex 218.5 6.225 3
      vertex 224.835 20.975 3
      vertex 224.651 21.3699 3
    endloop
  endfacet
  facet normal 0 0 1
    outer loop
      vertex 218.5 6.225 3
      vertex 225.085 20.618 3
      vertex 224.835 20.975 3
    endloop
  endfacet
  facet normal 0 0 1
    outer loop
      vertex 227.434 19.763 3
      vertex 218.5 6.225 3
      vertex 240 0 3
    endloop
  endfacet
  facet normal -0 0 1
    outer loop
      vertex 53.5 6.225 3
      vertex 240 0 3
      vertex 218.5 6.225 3
    endloop
  endfacet
  facet normal 0 0 1
    outer loop
      vertex 53.5 38.225 3
      vertex 45.663 27.409 3
      vertex 53.5 6.225 3
    endloop
  endfacet
  facet normal 0 0 1
    outer loop
      vertex 42.334 14.097 3
      vertex 45.663 27.409 3
      vertex 42.334 27.409 3
    endloop
  endfacet
  facet normal 0 0 1
    outer loop
      vertex 45.663 27.409 3
      vertex 42.334 14.097 3
      vertex 53.5 6.225 3
    endloop
  endfacet
  facet normal -0 0 1
    outer loop
      vertex 38.745 14.097 3
      vertex 53.5 6.225 3
      vertex 42.334 14.097 3
    endloop
  endfacet
  facet normal 0 0 1
    outer loop
      vertex 37.7883 15.7524 3
      vertex 38.7182 14.3457 3
      vertex 38.6723 14.5772 3
    endloop
  endfacet
  facet normal 0 0 1
    outer loop
      vertex 37.7883 15.7524 3
      vertex 38.6723 14.5772 3
      vertex 38.6073 14.7916 3
    endloop
  endfacet
  facet normal 0 0 1
    outer loop
      vertex 37.9801 15.6258 3
      vertex 38.6073 14.7916 3
      vertex 38.5232 14.9889 3
    endloop
  endfacet
  facet normal 0 0 1
    outer loop
      vertex 38.1493 15.4864 3
      vertex 38.5232 14.9889 3
      vertex 38.42 15.169 3
    endloop
  endfacet
  facet normal 0 0 1
    outer loop
      vertex 38.1493 15.4864 3
      vertex 38.42 15.169 3
      vertex 38.2959 15.3342 3
    endloop
  endfacet
  facet normal 0 0 1
    outer loop
      vertex 37.9801 15.6258 3
      vertex 38.5232 14.9889 3
      vertex 38.1493 15.4864 3
    endloop
  endfacet
  facet normal 0 0 1
    outer loop
      vertex 37.7883 15.7524 3
      vertex 38.6073 14.7916 3
      vertex 37.9801 15.6258 3
    endloop
  endfacet
  facet normal 0 0 1
    outer loop
      vertex 37.574 15.866 3
      vertex 38.7182 14.3457 3
      vertex 37.7883 15.7524 3
    endloop
  endfacet
  facet normal 0 0 1
    outer loop
      vertex 38.7182 14.3457 3
      vertex 37.574 15.866 3
      vertex 38.745 14.097 3
    endloop
  endfacet
  facet normal 0 0 1
    outer loop
      vertex 37.3733 15.9506 3
      vertex 38.745 14.097 3
      vertex 37.574 15.866 3
    endloop
  endfacet
  facet normal 0 0 1
    outer loop
      vertex 37.1535 16.0246 3
      vertex 38.745 14.097 3
      vertex 37.3733 15.9506 3
    endloop
  endfacet
  facet normal 0 0 1
    outer loop
      vertex 36.9147 16.0878 3
      vertex 38.745 14.097 3
      vertex 37.1535 16.0246 3
    endloop
  endfacet
  facet normal 0 0 1
    outer loop
      vertex 36.6569 16.1403 3
      vertex 38.745 14.097 3
      vertex 36.9147 16.0878 3
    endloop
  endfacet
  facet normal 0 0 1
    outer loop
      vertex 36.38 16.182 3
      vertex 38.745 14.097 3
      vertex 36.6569 16.1403 3
    endloop
  endfacet
  facet normal 0 0 1
    outer loop
      vertex 36.0914 16.2148 3
      vertex 38.745 14.097 3
      vertex 36.38 16.182 3
    endloop
  endfacet
  facet normal 0 0 1
    outer loop
      vertex 35.7974 16.2402 3
      vertex 38.745 14.097 3
      vertex 36.0914 16.2148 3
    endloop
  endfacet
  facet normal 0 0 1
    outer loop
      vertex 35.4982 16.2584 3
      vertex 38.745 14.097 3
      vertex 35.7974 16.2402 3
    endloop
  endfacet
  facet normal 0 0 1
    outer loop
      vertex 35.1938 16.2694 3
      vertex 38.745 14.097 3
      vertex 35.4982 16.2584 3
    endloop
  endfacet
  facet normal 0 0 1
    outer loop
      vertex 34.884 16.273 3
      vertex 38.745 14.097 3
      vertex 35.1938 16.2694 3
    endloop
  endfacet
  facet normal -0 0 1
    outer loop
      vertex 15.3492 21.3699 3
      vertex 34.884 18.897 3
      vertex 15.462 21.7909 3
    endloop
  endfacet
  facet normal 0 0 1
    outer loop
      vertex 34.884 18.897 3
      vertex 15.3492 21.3699 3
      vertex 34.884 16.273 3
    endloop
  endfacet
  facet normal -0 0 1
    outer loop
      vertex 15.1651 20.975 3
      vertex 34.884 16.273 3
      vertex 15.3492 21.3699 3
    endloop
  endfacet
  facet normal -0 0 1
    outer loop
      vertex 14.9151 20.618 3
      vertex 34.884 16.273 3
      vertex 15.1651 20.975 3
    endloop
  endfacet
  facet normal -0 0 1
    outer loop
      vertex 14.607 20.3099 3
      vertex 34.884 16.273 3
      vertex 14.9151 20.618 3
    endloop
  endfacet
  facet normal -0 0 1
    outer loop
      vertex 14.25 20.0599 3
      vertex 34.884 16.273 3
      vertex 14.607 20.3099 3
    endloop
  endfacet
  facet normal -0 0 1
    outer loop
      vertex 13.8551 19.8758 3
      vertex 34.884 16.273 3
      vertex 14.25 20.0599 3
    endloop
  endfacet
  facet normal 0 0 1
    outer loop
      vertex 0 0 3
      vertex 34.884 16.273 3
      vertex 13.8551 19.8758 3
    endloop
  endfacet
  facet normal 0 0 1
    outer loop
      vertex 34.884 16.273 3
      vertex 0 0 3
      vertex 38.745 14.097 3
    endloop
  endfacet
  facet normal 0 0 1
    outer loop
      vertex 0 0 3
      vertex 13.8551 19.8758 3
      vertex 13.4341 19.763 3
    endloop
  endfacet
  facet normal 0 0 1
    outer loop
      vertex 0 0 3
      vertex 13.4341 19.763 3
      vertex 13 19.725 3
    endloop
  endfacet
  facet normal 0 0 1
    outer loop
      vertex 0 0 3
      vertex 13 19.725 3
      vertex 12.5659 19.763 3
    endloop
  endfacet
  facet normal 0 0 1
    outer loop
      vertex 0 0 3
      vertex 12.5659 19.763 3
      vertex 12.1449 19.8758 3
    endloop
  endfacet
  facet normal 0 0 1
    outer loop
      vertex 0 0 3
      vertex 10.5 22.225 3
      vertex 0 44.45 3
    endloop
  endfacet
  facet normal 0 0 1
    outer loop
      vertex 10.5 22.225 3
      vertex 0 0 3
      vertex 10.538 21.7909 3
    endloop
  endfacet
  facet normal 0 0 1
    outer loop
      vertex 53.5 6.225 3
      vertex 0 0 3
      vertex 240 0 3
    endloop
  endfacet
  facet normal 0 0 1
    outer loop
      vertex 38.745 14.097 3
      vertex 0 0 3
      vertex 53.5 6.225 3
    endloop
  endfacet
  facet normal 0 0 1
    outer loop
      vertex 11.75 20.0599 3
      vertex 0 0 3
      vertex 12.1449 19.8758 3
    endloop
  endfacet
  facet normal 0 0 1
    outer loop
      vertex 11.393 20.3099 3
      vertex 0 0 3
      vertex 11.75 20.0599 3
    endloop
  endfacet
  facet normal 0 0 1
    outer loop
      vertex 11.0849 20.618 3
      vertex 0 0 3
      vertex 11.393 20.3099 3
    endloop
  endfacet
  facet normal 0 0 1
    outer loop
      vertex 10.8349 20.975 3
      vertex 0 0 3
      vertex 11.0849 20.618 3
    endloop
  endfacet
  facet normal 0 0 1
    outer loop
      vertex 10.6508 21.3699 3
      vertex 0 0 3
      vertex 10.8349 20.975 3
    endloop
  endfacet
  facet normal 0 0 1
    outer loop
      vertex 10.538 21.7909 3
      vertex 0 0 3
      vertex 10.6508 21.3699 3
    endloop
  endfacet
  facet normal -0 0 1
    outer loop
      vertex 34.884 27.409 3
      vertex 38.289 18.897 3
      vertex 38.289 27.409 3
    endloop
  endfacet
  facet normal 0 0 1
    outer loop
      vertex 38.289 18.897 3
      vertex 34.884 27.409 3
      vertex 34.884 18.897 3
    endloop
  endfacet
  facet normal 0 0 -1
    outer loop
      vertex 240 0 0
      vertex 229.5 22.225 0
      vertex 240 44.45 0
    endloop
  endfacet
  facet normal 0 0 -1
    outer loop
      vertex 240 0 0
      vertex 229.462 21.7909 0
      vertex 229.5 22.225 0
    endloop
  endfacet
  facet normal 0 0 -1
    outer loop
      vertex 240 0 0
      vertex 229.349 21.3699 0
      vertex 229.462 21.7909 0
    endloop
  endfacet
  facet normal 0 0 -1
    outer loop
      vertex 240 0 0
      vertex 229.165 20.975 0
      vertex 229.349 21.3699 0
    endloop
  endfacet
  facet normal 0 0 -1
    outer loop
      vertex 240 0 0
      vertex 228.915 20.618 0
      vertex 229.165 20.975 0
    endloop
  endfacet
  facet normal 0 0 -1
    outer loop
      vertex 240 0 0
      vertex 228.607 20.3099 0
      vertex 228.915 20.618 0
    endloop
  endfacet
  facet normal 0 0 -1
    outer loop
      vertex 240 0 0
      vertex 228.25 20.0599 0
      vertex 228.607 20.3099 0
    endloop
  endfacet
  facet normal 0 0 -1
    outer loop
      vertex 240 0 0
      vertex 227.855 19.8758 0
      vertex 228.25 20.0599 0
    endloop
  endfacet
  facet normal 0 0 -1
    outer loop
      vertex 240 0 0
      vertex 227.434 19.763 0
      vertex 227.855 19.8758 0
    endloop
  endfacet
  facet normal 0 0 -1
    outer loop
      vertex 240 0 0
      vertex 227 19.725 0
      vertex 227.434 19.763 0
    endloop
  endfacet
  facet normal 0 0 -1
    outer loop
      vertex 215.5 9.225 0
      vertex 227 19.725 0
      vertex 240 0 0
    endloop
  endfacet
  facet normal -0 0 -1
    outer loop
      vertex 227 19.725 0
      vertex 215.5 9.225 0
      vertex 226.566 19.763 0
    endloop
  endfacet
  facet normal -0 0 -1
    outer loop
      vertex 226.566 19.763 0
      vertex 215.5 9.225 0
      vertex 226.145 19.8758 0
    endloop
  endfacet
  facet normal -0 0 -1
    outer loop
      vertex 226.145 19.8758 0
      vertex 215.5 9.225 0
      vertex 225.75 20.0599 0
    endloop
  endfacet
  facet normal -0 0 -1
    outer loop
      vertex 225.75 20.0599 0
      vertex 215.5 9.225 0
      vertex 225.393 20.3099 0
    endloop
  endfacet
  facet normal -0 0 -1
    outer loop
      vertex 224.538 21.7909 0
      vertex 215.5 9.225 0
      vertex 224.5 22.225 0
    endloop
  endfacet
  facet normal -0 0 -1
    outer loop
      vertex 224.651 21.3699 0
      vertex 215.5 9.225 0
      vertex 224.538 21.7909 0
    endloop
  endfacet
  facet normal -0 0 -1
    outer loop
      vertex 224.835 20.975 0
      vertex 215.5 9.225 0
      vertex 224.651 21.3699 0
    endloop
  endfacet
  facet normal -0 0 -1
    outer loop
      vertex 225.085 20.618 0
      vertex 215.5 9.225 0
      vertex 224.835 20.975 0
    endloop
  endfacet
  facet normal -0 0 -1
    outer loop
      vertex 225.393 20.3099 0
      vertex 215.5 9.225 0
      vertex 225.085 20.618 0
    endloop
  endfacet
  facet normal 0 0 -1
    outer loop
      vertex 240 0 0
      vertex 56.5 9.225 0
      vertex 215.5 9.225 0
    endloop
  endfacet
  facet normal 0 0 -1
    outer loop
      vertex 56.5 9.225 0
      vertex 45.663 27.409 0
      vertex 56.5 35.225 0
    endloop
  endfacet
  facet normal 0 0 -1
    outer loop
      vertex 56.5 9.225 0
      vertex 42.334 14.097 0
      vertex 45.663 27.409 0
    endloop
  endfacet
  facet normal 0 0 -1
    outer loop
      vertex 56.5 9.225 0
      vertex 38.745 14.097 0
      vertex 42.334 14.097 0
    endloop
  endfacet
  facet normal 0 0 -1
    outer loop
      vertex 37.574 15.866 0
      vertex 38.7182 14.3457 0
      vertex 38.745 14.097 0
    endloop
  endfacet
  facet normal 0 0 -1
    outer loop
      vertex 38.7182 14.3457 0
      vertex 37.7883 15.7524 0
      vertex 38.6723 14.5772 0
    endloop
  endfacet
  facet normal 0 0 -1
    outer loop
      vertex 38.6723 14.5772 0
      vertex 37.7883 15.7524 0
      vertex 38.6073 14.7916 0
    endloop
  endfacet
  facet normal 0 0 -1
    outer loop
      vertex 38.6073 14.7916 0
      vertex 37.9801 15.6258 0
      vertex 38.5232 14.9889 0
    endloop
  endfacet
  facet normal 0 0 -1
    outer loop
      vertex 38.5232 14.9889 0
      vertex 38.1493 15.4864 0
      vertex 38.42 15.169 0
    endloop
  endfacet
  facet normal 0 0 -1
    outer loop
      vertex 38.42 15.169 0
      vertex 38.1493 15.4864 0
      vertex 38.2959 15.3342 0
    endloop
  endfacet
  facet normal 0 0 -1
    outer loop
      vertex 38.5232 14.9889 0
      vertex 37.9801 15.6258 0
      vertex 38.1493 15.4864 0
    endloop
  endfacet
  facet normal 0 0 -1
    outer loop
      vertex 38.6073 14.7916 0
      vertex 37.7883 15.7524 0
      vertex 37.9801 15.6258 0
    endloop
  endfacet
  facet normal 0 0 -1
    outer loop
      vertex 38.7182 14.3457 0
      vertex 37.574 15.866 0
      vertex 37.7883 15.7524 0
    endloop
  endfacet
  facet normal 0 0 -1
    outer loop
      vertex 38.745 14.097 0
      vertex 37.3733 15.9506 0
      vertex 37.574 15.866 0
    endloop
  endfacet
  facet normal 0 0 -1
    outer loop
      vertex 38.745 14.097 0
      vertex 37.1535 16.0246 0
      vertex 37.3733 15.9506 0
    endloop
  endfacet
  facet normal 0 0 -1
    outer loop
      vertex 38.745 14.097 0
      vertex 36.9147 16.0878 0
      vertex 37.1535 16.0246 0
    endloop
  endfacet
  facet normal 0 0 -1
    outer loop
      vertex 38.745 14.097 0
      vertex 36.6569 16.1403 0
      vertex 36.9147 16.0878 0
    endloop
  endfacet
  facet normal 0 0 -1
    outer loop
      vertex 38.745 14.097 0
      vertex 36.38 16.182 0
      vertex 36.6569 16.1403 0
    endloop
  endfacet
  facet normal 0 0 -1
    outer loop
      vertex 38.745 14.097 0
      vertex 36.0914 16.2148 0
      vertex 36.38 16.182 0
    endloop
  endfacet
  facet normal 0 0 -1
    outer loop
      vertex 38.745 14.097 0
      vertex 35.7974 16.2402 0
      vertex 36.0914 16.2148 0
    endloop
  endfacet
  facet normal 0 0 -1
    outer loop
      vertex 38.745 14.097 0
      vertex 35.4982 16.2584 0
      vertex 35.7974 16.2402 0
    endloop
  endfacet
  facet normal 0 0 -1
    outer loop
      vertex 38.745 14.097 0
      vertex 35.1938 16.2694 0
      vertex 35.4982 16.2584 0
    endloop
  endfacet
  facet normal 0 0 -1
    outer loop
      vertex 38.745 14.097 0
      vertex 34.884 16.273 0
      vertex 35.1938 16.2694 0
    endloop
  endfacet
  facet normal 0 0 -1
    outer loop
      vertex 15.3492 21.3699 0
      vertex 34.884 18.897 0
      vertex 34.884 16.273 0
    endloop
  endfacet
  facet normal 0 0 -1
    outer loop
      vertex 34.884 18.897 0
      vertex 15.5 22.225 0
      vertex 34.884 27.409 0
    endloop
  endfacet
  facet normal 0 0 -1
    outer loop
      vertex 15.462 22.6591 0
      vertex 34.884 27.409 0
      vertex 15.5 22.225 0
    endloop
  endfacet
  facet normal 0 0 -1
    outer loop
      vertex 0 0 0
      vertex 34.884 16.273 0
      vertex 38.745 14.097 0
    endloop
  endfacet
  facet normal 0 0 -1
    outer loop
      vertex 34.884 18.897 0
      vertex 15.462 21.7909 0
      vertex 15.5 22.225 0
    endloop
  endfacet
  facet normal 0 0 -1
    outer loop
      vertex 34.884 18.897 0
      vertex 15.3492 21.3699 0
      vertex 15.462 21.7909 0
    endloop
  endfacet
  facet normal 0 0 -1
    outer loop
      vertex 34.884 16.273 0
      vertex 15.1651 20.975 0
      vertex 15.3492 21.3699 0
    endloop
  endfacet
  facet normal 0 0 -1
    outer loop
      vertex 34.884 16.273 0
      vertex 14.9151 20.618 0
      vertex 15.1651 20.975 0
    endloop
  endfacet
  facet normal 0 0 -1
    outer loop
      vertex 0 0 0
      vertex 38.745 14.097 0
      vertex 56.5 9.225 0
    endloop
  endfacet
  facet normal 0 0 -1
    outer loop
      vertex 34.884 16.273 0
      vertex 14.607 20.3099 0
      vertex 14.9151 20.618 0
    endloop
  endfacet
  facet normal 0 0 -1
    outer loop
      vertex 34.884 16.273 0
      vertex 14.25 20.0599 0
      vertex 14.607 20.3099 0
    endloop
  endfacet
  facet normal -0 0 -1
    outer loop
      vertex 34.884 16.273 0
      vertex 0 0 0
      vertex 13.8551 19.8758 0
    endloop
  endfacet
  facet normal 0 0 -1
    outer loop
      vertex 34.884 16.273 0
      vertex 13.8551 19.8758 0
      vertex 14.25 20.0599 0
    endloop
  endfacet
  facet normal 0 0 -1
    outer loop
      vertex 13.8551 19.8758 0
      vertex 0 0 0
      vertex 13.4341 19.763 0
    endloop
  endfacet
  facet normal 0 0 -1
    outer loop
      vertex 13.4341 19.763 0
      vertex 0 0 0
      vertex 13 19.725 0
    endloop
  endfacet
  facet normal -0 0 -1
    outer loop
      vertex 10.538 21.7909 0
      vertex 0 0 0
      vertex 10.5 22.225 0
    endloop
  endfacet
  facet normal -0 0 -1
    outer loop
      vertex 10.6508 21.3699 0
      vertex 0 0 0
      vertex 10.538 21.7909 0
    endloop
  endfacet
  facet normal -0 0 -1
    outer loop
      vertex 10.8349 20.975 0
      vertex 0 0 0
      vertex 10.6508 21.3699 0
    endloop
  endfacet
  facet normal -0 0 -1
    outer loop
      vertex 11.0849 20.618 0
      vertex 0 0 0
      vertex 10.8349 20.975 0
    endloop
  endfacet
  facet normal -0 0 -1
    outer loop
      vertex 11.393 20.3099 0
      vertex 0 0 0
      vertex 11.0849 20.618 0
    endloop
  endfacet
  facet normal -0 0 -1
    outer loop
      vertex 11.75 20.0599 0
      vertex 0 0 0
      vertex 11.393 20.3099 0
    endloop
  endfacet
  facet normal -0 0 -1
    outer loop
      vertex 12.1449 19.8758 0
      vertex 0 0 0
      vertex 11.75 20.0599 0
    endloop
  endfacet
  facet normal -0 0 -1
    outer loop
      vertex 12.5659 19.763 0
      vertex 0 0 0
      vertex 12.1449 19.8758 0
    endloop
  endfacet
  facet normal -0 0 -1
    outer loop
      vertex 13 19.725 0
      vertex 0 0 0
      vertex 12.5659 19.763 0
    endloop
  endfacet
  facet normal 0 0 -1
    outer loop
      vertex 0 0 0
      vertex 56.5 9.225 0
      vertex 240 0 0
    endloop
  endfacet
  facet normal 0 0 -1
    outer loop
      vertex 229.462 22.6591 0
      vertex 240 44.45 0
      vertex 229.5 22.225 0
    endloop
  endfacet
  facet normal 0 0 -1
    outer loop
      vertex 229.349 23.08 0
      vertex 240 44.45 0
      vertex 229.462 22.6591 0
    endloop
  endfacet
  facet normal 0 0 -1
    outer loop
      vertex 229.165 23.475 0
      vertex 240 44.45 0
      vertex 229.349 23.08 0
    endloop
  endfacet
  facet normal 0 0 -1
    outer loop
      vertex 228.915 23.832 0
      vertex 240 44.45 0
      vertex 229.165 23.475 0
    endloop
  endfacet
  facet normal 0 0 -1
    outer loop
      vertex 228.607 24.1401 0
      vertex 240 44.45 0
      vertex 228.915 23.832 0
    endloop
  endfacet
  facet normal 0 0 -1
    outer loop
      vertex 228.25 24.3901 0
      vertex 240 44.45 0
      vertex 228.607 24.1401 0
    endloop
  endfacet
  facet normal 0 0 -1
    outer loop
      vertex 227.855 24.5742 0
      vertex 240 44.45 0
      vertex 228.25 24.3901 0
    endloop
  endfacet
  facet normal 0 0 -1
    outer loop
      vertex 227.434 24.687 0
      vertex 240 44.45 0
      vertex 227.855 24.5742 0
    endloop
  endfacet
  facet normal 0 0 -1
    outer loop
      vertex 227 24.725 0
      vertex 240 44.45 0
      vertex 227.434 24.687 0
    endloop
  endfacet
  facet normal 0 0 -1
    outer loop
      vertex 215.5 35.225 0
      vertex 227 24.725 0
      vertex 226.566 24.687 0
    endloop
  endfacet
  facet normal 0 0 -1
    outer loop
      vertex 215.5 35.225 0
      vertex 226.566 24.687 0
      vertex 226.145 24.5742 0
    endloop
  endfacet
  facet normal 0 0 -1
    outer loop
      vertex 215.5 35.225 0
      vertex 226.145 24.5742 0
      vertex 225.75 24.3901 0
    endloop
  endfacet
  facet normal 0 0 -1
    outer loop
      vertex 215.5 35.225 0
      vertex 225.75 24.3901 0
      vertex 225.393 24.1401 0
    endloop
  endfacet
  facet normal 0 0 -1
    outer loop
      vertex 215.5 35.225 0
      vertex 225.393 24.1401 0
      vertex 225.085 23.832 0
    endloop
  endfacet
  facet normal 0 0 -1
    outer loop
      vertex 215.5 35.225 0
      vertex 224.5 22.225 0
      vertex 215.5 9.225 0
    endloop
  endfacet
  facet normal 0 0 -1
    outer loop
      vertex 224.5 22.225 0
      vertex 215.5 35.225 0
      vertex 224.538 22.6591 0
    endloop
  endfacet
  facet normal 0 0 -1
    outer loop
      vertex 224.538 22.6591 0
      vertex 215.5 35.225 0
      vertex 224.651 23.08 0
    endloop
  endfacet
  facet normal 0 0 -1
    outer loop
      vertex 224.651 23.08 0
      vertex 215.5 35.225 0
      vertex 224.835 23.475 0
    endloop
  endfacet
  facet normal 0 0 -1
    outer loop
      vertex 215.5 35.225 0
      vertex 225.085 23.832 0
      vertex 224.835 23.475 0
    endloop
  endfacet
  facet normal 0 0 -1
    outer loop
      vertex 227 24.725 0
      vertex 215.5 35.225 0
      vertex 240 44.45 0
    endloop
  endfacet
  facet normal 0 0 -1
    outer loop
      vertex 56.5 35.225 0
      vertex 240 44.45 0
      vertex 215.5 35.225 0
    endloop
  endfacet
  facet normal 0 0 -1
    outer loop
      vertex 45.663 30.225 0
      vertex 56.5 35.225 0
      vertex 45.663 27.409 0
    endloop
  endfacet
  facet normal 0 0 -1
    outer loop
      vertex 34.884 30.225 0
      vertex 56.5 35.225 0
      vertex 45.663 30.225 0
    endloop
  endfacet
  facet normal 0 0 -1
    outer loop
      vertex 15.3492 23.08 0
      vertex 34.884 27.409 0
      vertex 15.462 22.6591 0
    endloop
  endfacet
  facet normal 0 0 -1
    outer loop
      vertex 15.1651 23.475 0
      vertex 34.884 27.409 0
      vertex 15.3492 23.08 0
    endloop
  endfacet
  facet normal -0 0 -1
    outer loop
      vertex 34.884 27.409 0
      vertex 15.1651 23.475 0
      vertex 34.884 30.225 0
    endloop
  endfacet
  facet normal 0 0 -1
    outer loop
      vertex 14.9151 23.832 0
      vertex 34.884 30.225 0
      vertex 15.1651 23.475 0
    endloop
  endfacet
  facet normal 0 0 -1
    outer loop
      vertex 14.607 24.1401 0
      vertex 34.884 30.225 0
      vertex 14.9151 23.832 0
    endloop
  endfacet
  facet normal 0 0 -1
    outer loop
      vertex 14.25 24.3901 0
      vertex 34.884 30.225 0
      vertex 14.607 24.1401 0
    endloop
  endfacet
  facet normal 0 0 -1
    outer loop
      vertex 13.8551 24.5742 0
      vertex 34.884 30.225 0
      vertex 14.25 24.3901 0
    endloop
  endfacet
  facet normal 0 0 -1
    outer loop
      vertex 0 44.45 0
      vertex 13.8551 24.5742 0
      vertex 13.4341 24.687 0
    endloop
  endfacet
  facet normal 0 0 -1
    outer loop
      vertex 0 44.45 0
      vertex 13.4341 24.687 0
      vertex 13 24.725 0
    endloop
  endfacet
  facet normal 0 0 -1
    outer loop
      vertex 0 44.45 0
      vertex 13 24.725 0
      vertex 12.5659 24.687 0
    endloop
  endfacet
  facet normal 0 0 -1
    outer loop
      vertex 0 44.45 0
      vertex 10.5 22.225 0
      vertex 0 0 0
    endloop
  endfacet
  facet normal 0 0 -1
    outer loop
      vertex 10.5 22.225 0
      vertex 0 44.45 0
      vertex 10.538 22.6591 0
    endloop
  endfacet
  facet normal 0 0 -1
    outer loop
      vertex 56.5 35.225 0
      vertex 0 44.45 0
      vertex 240 44.45 0
    endloop
  endfacet
  facet normal 0 0 -1
    outer loop
      vertex 34.884 30.225 0
      vertex 0 44.45 0
      vertex 56.5 35.225 0
    endloop
  endfacet
  facet normal 0 0 -1
    outer loop
      vertex 13.8551 24.5742 0
      vertex 0 44.45 0
      vertex 34.884 30.225 0
    endloop
  endfacet
  facet normal 0 0 -1
    outer loop
      vertex 12.1449 24.5742 0
      vertex 0 44.45 0
      vertex 12.5659 24.687 0
    endloop
  endfacet
  facet normal 0 0 -1
    outer loop
      vertex 11.75 24.3901 0
      vertex 0 44.45 0
      vertex 12.1449 24.5742 0
    endloop
  endfacet
  facet normal 0 0 -1
    outer loop
      vertex 11.393 24.1401 0
      vertex 0 44.45 0
      vertex 11.75 24.3901 0
    endloop
  endfacet
  facet normal 0 0 -1
    outer loop
      vertex 11.0849 23.832 0
      vertex 0 44.45 0
      vertex 11.393 24.1401 0
    endloop
  endfacet
  facet normal 0 0 -1
    outer loop
      vertex 10.8349 23.475 0
      vertex 0 44.45 0
      vertex 11.0849 23.832 0
    endloop
  endfacet
  facet normal 0 0 -1
    outer loop
      vertex 10.6508 23.08 0
      vertex 0 44.45 0
      vertex 10.8349 23.475 0
    endloop
  endfacet
  facet normal 0 0 -1
    outer loop
      vertex 10.538 22.6591 0
      vertex 0 44.45 0
      vertex 10.6508 23.08 0
    endloop
  endfacet
  facet normal -0 0 -1
    outer loop
      vertex 45.663 27.409 0
      vertex 42.334 14.097 0
      vertex 42.334 27.409 0
    endloop
  endfacet
  facet normal 0 0 -1
    outer loop
      vertex 34.884 18.897 0
      vertex 38.289 27.409 0
      vertex 38.289 18.897 0
    endloop
  endfacet
  facet normal -0 0 -1
    outer loop
      vertex 38.289 27.409 0
      vertex 34.884 18.897 0
      vertex 34.884 27.409 0
    endloop
  endfacet
  facet normal -1 0 0
    outer loop
      vertex 0 0 0
      vertex 0 44.45 3
      vertex 0 44.45 0
    endloop
  endfacet
  facet normal -1 -0 0
    outer loop
      vertex 0 44.45 3
      vertex 0 0 0
      vertex 0 0 3
    endloop
  endfacet
  facet normal 0 1 -0
    outer loop
      vertex 240 44.45 0
      vertex 0 44.45 3
      vertex 240 44.45 3
    endloop
  endfacet
  facet normal 0 1 0
    outer loop
      vertex 0 44.45 3
      vertex 240 44.45 0
      vertex 0 44.45 0
    endloop
  endfacet
  facet normal 0 -1 0
    outer loop
      vertex 0 0 0
      vertex 240 0 3
      vertex 0 0 3
    endloop
  endfacet
  facet normal 0 -1 -0
    outer loop
      vertex 240 0 3
      vertex 0 0 0
      vertex 240 0 0
    endloop
  endfacet
  facet normal 1 -0 0
    outer loop
      vertex 218.5 6.225 30
      vertex 218.5 38.225 3
      vertex 218.5 38.225 30
    endloop
  endfacet
  facet normal 1 0 0
    outer loop
      vertex 218.5 38.225 3
      vertex 218.5 6.225 30
      vertex 218.5 6.225 3
    endloop
  endfacet
  facet normal 0 0 1
    outer loop
      vertex 218.5 38.225 30
      vertex 215.5 35.225 30
      vertex 218.5 6.225 30
    endloop
  endfacet
  facet normal 0 0 1
    outer loop
      vertex 218.5 38.225 30
      vertex 56.5 35.225 30
      vertex 215.5 35.225 30
    endloop
  endfacet
  facet normal 0 0 1
    outer loop
      vertex 56.5 35.225 30
      vertex 53.5 38.225 30
      vertex 56.5 9.225 30
    endloop
  endfacet
  facet normal -0 0 1
    outer loop
      vertex 53.5 38.225 30
      vertex 56.5 35.225 30
      vertex 218.5 38.225 30
    endloop
  endfacet
  facet normal -0 0 1
    outer loop
      vertex 215.5 9.225 30
      vertex 218.5 6.225 30
      vertex 215.5 35.225 30
    endloop
  endfacet
  facet normal -0 0 1
    outer loop
      vertex 56.5 9.225 30
      vertex 218.5 6.225 30
      vertex 215.5 9.225 30
    endloop
  endfacet
  facet normal 0 0 1
    outer loop
      vertex 56.5 9.225 30
      vertex 53.5 6.225 30
      vertex 218.5 6.225 30
    endloop
  endfacet
  facet normal 0 0 1
    outer loop
      vertex 53.5 6.225 30
      vertex 56.5 9.225 30
      vertex 53.5 38.225 30
    endloop
  endfacet
  facet normal -1 0 0
    outer loop
      vertex 53.5 6.225 3
      vertex 53.5 38.225 30
      vertex 53.5 38.225 3
    endloop
  endfacet
  facet normal -1 -0 0
    outer loop
      vertex 53.5 38.225 30
      vertex 53.5 6.225 3
      vertex 53.5 6.225 30
    endloop
  endfacet
  facet normal 0 1 -0
    outer loop
      vertex 218.5 38.225 3
      vertex 53.5 38.225 30
      vertex 218.5 38.225 30
    endloop
  endfacet
  facet normal 0 1 0
    outer loop
      vertex 53.5 38.225 30
      vertex 218.5 38.225 3
      vertex 53.5 38.225 3
    endloop
  endfacet
  facet normal 0 -1 0
    outer loop
      vertex 53.5 6.225 3
      vertex 218.5 6.225 30
      vertex 53.5 6.225 30
    endloop
  endfacet
  facet normal 0 -1 -0
    outer loop
      vertex 218.5 6.225 30
      vertex 53.5 6.225 3
      vertex 218.5 6.225 3
    endloop
  endfacet
  facet normal 0 1 -0
    outer loop
      vertex 45.663 27.409 0
      vertex 42.334 27.409 3
      vertex 45.663 27.409 3
    endloop
  endfacet
  facet normal 0 1 0
    outer loop
      vertex 42.334 27.409 3
      vertex 45.663 27.409 0
      vertex 42.334 27.409 0
    endloop
  endfacet
  facet normal -1 0 0
    outer loop
      vertex 45.663 27.409 0
      vertex 45.663 30.225 3
      vertex 45.663 30.225 0
    endloop
  endfacet
  facet normal -1 -0 0
    outer loop
      vertex 45.663 30.225 3
      vertex 45.663 27.409 0
      vertex 45.663 27.409 3
    endloop
  endfacet
  facet normal 0 -1 0
    outer loop
      vertex 34.884 30.225 0
      vertex 45.663 30.225 3
      vertex 34.884 30.225 3
    endloop
  endfacet
  facet normal 0 -1 -0
    outer loop
      vertex 45.663 30.225 3
      vertex 34.884 30.225 0
      vertex 45.663 30.225 0
    endloop
  endfacet
  facet normal 1 -0 0
    outer loop
      vertex 34.884 27.409 3
      vertex 34.884 30.225 0
      vertex 34.884 30.225 3
    endloop
  endfacet
  facet normal 1 0 0
    outer loop
      vertex 34.884 30.225 0
      vertex 34.884 27.409 3
      vertex 34.884 27.409 0
    endloop
  endfacet
  facet normal 0 1 -0
    outer loop
      vertex 38.289 27.409 0
      vertex 34.884 27.409 3
      vertex 38.289 27.409 3
    endloop
  endfacet
  facet normal 0 1 0
    outer loop
      vertex 34.884 27.409 3
      vertex 38.289 27.409 0
      vertex 34.884 27.409 0
    endloop
  endfacet
  facet normal 1 -0 0
    outer loop
      vertex 38.289 18.897 3
      vertex 38.289 27.409 0
      vertex 38.289 27.409 3
    endloop
  endfacet
  facet normal 1 0 0
    outer loop
      vertex 38.289 27.409 0
      vertex 38.289 18.897 3
      vertex 38.289 18.897 0
    endloop
  endfacet
  facet normal 0 -1 0
    outer loop
      vertex 34.884 18.897 0
      vertex 38.289 18.897 3
      vertex 34.884 18.897 3
    endloop
  endfacet
  facet normal 0 -1 -0
    outer loop
      vertex 38.289 18.897 3
      vertex 34.884 18.897 0
      vertex 38.289 18.897 0
    endloop
  endfacet
  facet normal 1 -0 0
    outer loop
      vertex 34.884 16.273 3
      vertex 34.884 18.897 0
      vertex 34.884 18.897 3
    endloop
  endfacet
  facet normal 1 0 0
    outer loop
      vertex 34.884 18.897 0
      vertex 34.884 16.273 3
      vertex 34.884 16.273 0
    endloop
  endfacet
  facet normal 0.0116196 0.999932 -0
    outer loop
      vertex 35.1938 16.2694 0
      vertex 34.884 16.273 3
      vertex 35.1938 16.2694 3
    endloop
  endfacet
  facet normal 0.0116196 0.999932 0
    outer loop
      vertex 34.884 16.273 3
      vertex 35.1938 16.2694 0
      vertex 34.884 16.273 0
    endloop
  endfacet
  facet normal 0.0361131 0.999348 -0
    outer loop
      vertex 35.4982 16.2584 0
      vertex 35.1938 16.2694 3
      vertex 35.4982 16.2584 3
    endloop
  endfacet
  facet normal 0.0361131 0.999348 0
    outer loop
      vertex 35.1938 16.2694 3
      vertex 35.4982 16.2584 0
      vertex 35.1938 16.2694 0
    endloop
  endfacet
  facet normal 0.0607167 0.998155 -0
    outer loop
      vertex 35.7974 16.2402 0
      vertex 35.4982 16.2584 3
      vertex 35.7974 16.2402 3
    endloop
  endfacet
  facet normal 0.0607167 0.998155 0
    outer loop
      vertex 35.4982 16.2584 3
      vertex 35.7974 16.2402 0
      vertex 35.4982 16.2584 0
    endloop
  endfacet
  facet normal 0.0860739 0.996289 -0
    outer loop
      vertex 36.0914 16.2148 0
      vertex 35.7974 16.2402 3
      vertex 36.0914 16.2148 3
    endloop
  endfacet
  facet normal 0.0860739 0.996289 0
    outer loop
      vertex 35.7974 16.2402 3
      vertex 36.0914 16.2148 0
      vertex 35.7974 16.2402 0
    endloop
  endfacet
  facet normal 0.112925 0.993603 -0
    outer loop
      vertex 36.38 16.182 0
      vertex 36.0914 16.2148 3
      vertex 36.38 16.182 3
    endloop
  endfacet
  facet normal 0.112925 0.993603 0
    outer loop
      vertex 36.0914 16.2148 3
      vertex 36.38 16.182 0
      vertex 36.0914 16.2148 0
    endloop
  endfacet
  facet normal 0.148917 0.98885 -0
    outer loop
      vertex 36.6569 16.1403 0
      vertex 36.38 16.182 3
      vertex 36.6569 16.1403 3
    endloop
  endfacet
  facet normal 0.148917 0.98885 0
    outer loop
      vertex 36.38 16.182 3
      vertex 36.6569 16.1403 0
      vertex 36.38 16.182 0
    endloop
  endfacet
  facet normal 0.19955 0.979888 -0
    outer loop
      vertex 36.9147 16.0878 0
      vertex 36.6569 16.1403 3
      vertex 36.9147 16.0878 3
    endloop
  endfacet
  facet normal 0.19955 0.979888 0
    outer loop
      vertex 36.6569 16.1403 3
      vertex 36.9147 16.0878 0
      vertex 36.6569 16.1403 0
    endloop
  endfacet
  facet normal 0.255848 0.966717 -0
    outer loop
      vertex 37.1535 16.0246 0
      vertex 36.9147 16.0878 3
      vertex 37.1535 16.0246 3
    endloop
  endfacet
  facet normal 0.255848 0.966717 0
    outer loop
      vertex 36.9147 16.0878 3
      vertex 37.1535 16.0246 0
      vertex 36.9147 16.0878 0
    endloop
  endfacet
  facet normal 0.319072 0.94773 -0
    outer loop
      vertex 37.3733 15.9506 0
      vertex 37.1535 16.0246 3
      vertex 37.3733 15.9506 3
    endloop
  endfacet
  facet normal 0.319072 0.94773 0
    outer loop
      vertex 37.1535 16.0246 3
      vertex 37.3733 15.9506 0
      vertex 37.1535 16.0246 0
    endloop
  endfacet
  facet normal 0.388426 0.92148 -0
    outer loop
      vertex 37.574 15.866 0
      vertex 37.3733 15.9506 3
      vertex 37.574 15.866 3
    endloop
  endfacet
  facet normal 0.388426 0.92148 0
    outer loop
      vertex 37.3733 15.9506 3
      vertex 37.574 15.866 0
      vertex 37.3733 15.9506 0
    endloop
  endfacet
  facet normal 0.468361 0.883537 -0
    outer loop
      vertex 37.7883 15.7524 0
      vertex 37.574 15.866 3
      vertex 37.7883 15.7524 3
    endloop
  endfacet
  facet normal 0.468361 0.883537 0
    outer loop
      vertex 37.574 15.866 3
      vertex 37.7883 15.7524 0
      vertex 37.574 15.866 0
    endloop
  endfacet
  facet normal 0.550879 0.834585 -0
    outer loop
      vertex 37.9801 15.6258 0
      vertex 37.7883 15.7524 3
      vertex 37.9801 15.6258 3
    endloop
  endfacet
  facet normal 0.550879 0.834585 0
    outer loop
      vertex 37.7883 15.7524 3
      vertex 37.9801 15.6258 0
      vertex 37.7883 15.7524 0
    endloop
  endfacet
  facet normal 0.635867 0.771799 -0
    outer loop
      vertex 38.1493 15.4864 0
      vertex 37.9801 15.6258 3
      vertex 38.1493 15.4864 3
    endloop
  endfacet
  facet normal 0.635867 0.771799 0
    outer loop
      vertex 37.9801 15.6258 3
      vertex 38.1493 15.4864 0
      vertex 37.9801 15.6258 0
    endloop
  endfacet
  facet normal 0.720233 0.693733 0
    outer loop
      vertex 38.2959 15.3342 3
      vertex 38.1493 15.4864 0
      vertex 38.1493 15.4864 3
    endloop
  endfacet
  facet normal 0.720233 0.693733 0
    outer loop
      vertex 38.1493 15.4864 0
      vertex 38.2959 15.3342 3
      vertex 38.2959 15.3342 0
    endloop
  endfacet
  facet normal 0.799535 0.600619 0
    outer loop
      vertex 38.42 15.169 3
      vertex 38.2959 15.3342 0
      vertex 38.2959 15.3342 3
    endloop
  endfacet
  facet normal 0.799535 0.600619 0
    outer loop
      vertex 38.2959 15.3342 0
      vertex 38.42 15.169 3
      vertex 38.42 15.169 0
    endloop
  endfacet
  facet normal 0.86765 0.497176 0
    outer loop
      vertex 38.5232 14.9889 3
      vertex 38.42 15.169 0
      vertex 38.42 15.169 3
    endloop
  endfacet
  facet normal 0.86765 0.497176 0
    outer loop
      vertex 38.42 15.169 0
      vertex 38.5232 14.9889 3
      vertex 38.5232 14.9889 0
    endloop
  endfacet
  facet normal 0.919915 0.392118 0
    outer loop
      vertex 38.6073 14.7916 3
      vertex 38.5232 14.9889 0
      vertex 38.5232 14.9889 3
    endloop
  endfacet
  facet normal 0.919915 0.392118 0
    outer loop
      vertex 38.5232 14.9889 0
      vertex 38.6073 14.7916 3
      vertex 38.6073 14.7916 0
    endloop
  endfacet
  facet normal 0.956987 0.290131 0
    outer loop
      vertex 38.6723 14.5772 3
      vertex 38.6073 14.7916 0
      vertex 38.6073 14.7916 3
    endloop
  endfacet
  facet normal 0.956987 0.290131 0
    outer loop
      vertex 38.6073 14.7916 0
      vertex 38.6723 14.5772 3
      vertex 38.6723 14.5772 0
    endloop
  endfacet
  facet normal 0.980905 0.194486 0
    outer loop
      vertex 38.7182 14.3457 3
      vertex 38.6723 14.5772 0
      vertex 38.6723 14.5772 3
    endloop
  endfacet
  facet normal 0.980905 0.194486 0
    outer loop
      vertex 38.6723 14.5772 0
      vertex 38.7182 14.3457 3
      vertex 38.7182 14.3457 0
    endloop
  endfacet
  facet normal 0.994244 0.10714 0
    outer loop
      vertex 38.745 14.097 3
      vertex 38.7182 14.3457 0
      vertex 38.7182 14.3457 3
    endloop
  endfacet
  facet normal 0.994244 0.10714 0
    outer loop
      vertex 38.7182 14.3457 0
      vertex 38.745 14.097 3
      vertex 38.745 14.097 0
    endloop
  endfacet
  facet normal 0 1 -0
    outer loop
      vertex 42.334 14.097 0
      vertex 38.745 14.097 3
      vertex 42.334 14.097 3
    endloop
  endfacet
  facet normal 0 1 0
    outer loop
      vertex 38.745 14.097 3
      vertex 42.334 14.097 0
      vertex 38.745 14.097 0
    endloop
  endfacet
  facet normal -1 0 0
    outer loop
      vertex 42.334 14.097 0
      vertex 42.334 27.409 3
      vertex 42.334 27.409 0
    endloop
  endfacet
  facet normal -1 -0 0
    outer loop
      vertex 42.334 27.409 3
      vertex 42.334 14.097 0
      vertex 42.334 14.097 3
    endloop
  endfacet
  facet normal -1 0 0
    outer loop
      vertex 215.5 9.225 0
      vertex 215.5 35.225 30
      vertex 215.5 35.225 0
    endloop
  endfacet
  facet normal -1 -0 0
    outer loop
      vertex 215.5 35.225 30
      vertex 215.5 9.225 0
      vertex 215.5 9.225 30
    endloop
  endfacet
  facet normal 1 -0 0
    outer loop
      vertex 56.5 9.225 30
      vertex 56.5 35.225 0
      vertex 56.5 35.225 30
    endloop
  endfacet
  facet normal 1 0 0
    outer loop
      vertex 56.5 35.225 0
      vertex 56.5 9.225 30
      vertex 56.5 9.225 0
    endloop
  endfacet
  facet normal 0 -1 0
    outer loop
      vertex 56.5 35.225 0
      vertex 215.5 35.225 30
      vertex 56.5 35.225 30
    endloop
  endfacet
  facet normal 0 -1 -0
    outer loop
      vertex 215.5 35.225 30
      vertex 56.5 35.225 0
      vertex 215.5 35.225 0
    endloop
  endfacet
  facet normal 0 1 -0
    outer loop
      vertex 215.5 9.225 0
      vertex 56.5 9.225 30
      vertex 215.5 9.225 30
    endloop
  endfacet
  facet normal 0 1 0
    outer loop
      vertex 56.5 9.225 30
      vertex 215.5 9.225 0
      vertex 56.5 9.225 0
    endloop
  endfacet
  facet normal 0.087204 0.99619 -0
    outer loop
      vertex 13 19.725 0
      vertex 12.5659 19.763 3
      vertex 13 19.725 3
    endloop
  endfacet
  facet normal 0.087204 0.99619 0
    outer loop
      vertex 12.5659 19.763 3
      vertex 13 19.725 0
      vertex 12.5659 19.763 0
    endloop
  endfacet
  facet normal 0.258805 -0.96593 0
    outer loop
      vertex 12.1449 24.5742 0
      vertex 12.5659 24.687 3
      vertex 12.1449 24.5742 3
    endloop
  endfacet
  facet normal 0.258805 -0.96593 0
    outer loop
      vertex 12.5659 24.687 3
      vertex 12.1449 24.5742 0
      vertex 12.5659 24.687 0
    endloop
  endfacet
  facet normal -0.965914 -0.258862 0
    outer loop
      vertex 15.462 22.6591 0
      vertex 15.3492 23.08 3
      vertex 15.3492 23.08 0
    endloop
  endfacet
  facet normal -0.965914 -0.258862 0
    outer loop
      vertex 15.3492 23.08 3
      vertex 15.462 22.6591 0
      vertex 15.462 22.6591 3
    endloop
  endfacet
  facet normal -0.99619 -0.087204 0
    outer loop
      vertex 15.5 22.225 0
      vertex 15.462 22.6591 3
      vertex 15.462 22.6591 0
    endloop
  endfacet
  facet normal -0.99619 -0.087204 0
    outer loop
      vertex 15.462 22.6591 3
      vertex 15.5 22.225 0
      vertex 15.5 22.225 3
    endloop
  endfacet
  facet normal -0.906388 -0.422446 0
    outer loop
      vertex 15.3492 23.08 0
      vertex 15.1651 23.475 3
      vertex 15.1651 23.475 0
    endloop
  endfacet
  facet normal -0.906388 -0.422446 0
    outer loop
      vertex 15.1651 23.475 3
      vertex 15.3492 23.08 0
      vertex 15.3492 23.08 3
    endloop
  endfacet
  facet normal 0.422534 0.906347 -0
    outer loop
      vertex 12.1449 19.8758 0
      vertex 11.75 20.0599 3
      vertex 12.1449 19.8758 3
    endloop
  endfacet
  facet normal 0.422534 0.906347 0
    outer loop
      vertex 11.75 20.0599 3
      vertex 12.1449 19.8758 0
      vertex 11.75 20.0599 0
    endloop
  endfacet
  facet normal -0.99619 0.087204 0
    outer loop
      vertex 15.462 21.7909 0
      vertex 15.5 22.225 3
      vertex 15.5 22.225 0
    endloop
  endfacet
  facet normal -0.99619 0.087204 0
    outer loop
      vertex 15.5 22.225 3
      vertex 15.462 21.7909 0
      vertex 15.462 21.7909 3
    endloop
  endfacet
  facet normal -0.258805 0.96593 0
    outer loop
      vertex 13.8551 19.8758 0
      vertex 13.4341 19.763 3
      vertex 13.8551 19.8758 3
    endloop
  endfacet
  facet normal -0.258805 0.96593 0
    outer loop
      vertex 13.4341 19.763 3
      vertex 13.8551 19.8758 0
      vertex 13.4341 19.763 0
    endloop
  endfacet
  facet normal -0.819124 -0.573616 0
    outer loop
      vertex 15.1651 23.475 0
      vertex 14.9151 23.832 3
      vertex 14.9151 23.832 0
    endloop
  endfacet
  facet normal -0.819124 -0.573616 0
    outer loop
      vertex 14.9151 23.832 3
      vertex 15.1651 23.475 0
      vertex 15.1651 23.475 3
    endloop
  endfacet
  facet normal -0.573616 0.819124 0
    outer loop
      vertex 14.607 20.3099 0
      vertex 14.25 20.0599 3
      vertex 14.607 20.3099 3
    endloop
  endfacet
  facet normal -0.573616 0.819124 0
    outer loop
      vertex 14.25 20.0599 3
      vertex 14.607 20.3099 0
      vertex 14.25 20.0599 0
    endloop
  endfacet
  facet normal 0.819124 -0.573616 0
    outer loop
      vertex 10.8349 23.475 3
      vertex 11.0849 23.832 0
      vertex 11.0849 23.832 3
    endloop
  endfacet
  facet normal 0.819124 -0.573616 0
    outer loop
      vertex 11.0849 23.832 0
      vertex 10.8349 23.475 3
      vertex 10.8349 23.475 0
    endloop
  endfacet
  facet normal 0.819124 0.573616 0
    outer loop
      vertex 11.0849 20.618 3
      vertex 10.8349 20.975 0
      vertex 10.8349 20.975 3
    endloop
  endfacet
  facet normal 0.819124 0.573616 0
    outer loop
      vertex 10.8349 20.975 0
      vertex 11.0849 20.618 3
      vertex 11.0849 20.618 0
    endloop
  endfacet
  facet normal -0.258805 -0.96593 0
    outer loop
      vertex 13.4341 24.687 0
      vertex 13.8551 24.5742 3
      vertex 13.4341 24.687 3
    endloop
  endfacet
  facet normal -0.258805 -0.96593 -0
    outer loop
      vertex 13.8551 24.5742 3
      vertex 13.4341 24.687 0
      vertex 13.8551 24.5742 0
    endloop
  endfacet
  facet normal 0.422534 -0.906347 0
    outer loop
      vertex 11.75 24.3901 0
      vertex 12.1449 24.5742 3
      vertex 11.75 24.3901 3
    endloop
  endfacet
  facet normal 0.422534 -0.906347 0
    outer loop
      vertex 12.1449 24.5742 3
      vertex 11.75 24.3901 0
      vertex 12.1449 24.5742 0
    endloop
  endfacet
  facet normal 0.99619 0.087204 0
    outer loop
      vertex 10.538 21.7909 3
      vertex 10.5 22.225 0
      vertex 10.5 22.225 3
    endloop
  endfacet
  facet normal 0.99619 0.087204 0
    outer loop
      vertex 10.5 22.225 0
      vertex 10.538 21.7909 3
      vertex 10.538 21.7909 0
    endloop
  endfacet
  facet normal 0.573616 0.819124 -0
    outer loop
      vertex 11.75 20.0599 0
      vertex 11.393 20.3099 3
      vertex 11.75 20.0599 3
    endloop
  endfacet
  facet normal 0.573616 0.819124 0
    outer loop
      vertex 11.393 20.3099 3
      vertex 11.75 20.0599 0
      vertex 11.393 20.3099 0
    endloop
  endfacet
  facet normal -0.96593 0.258805 0
    outer loop
      vertex 15.3492 21.3699 0
      vertex 15.462 21.7909 3
      vertex 15.462 21.7909 0
    endloop
  endfacet
  facet normal -0.96593 0.258805 0
    outer loop
      vertex 15.462 21.7909 3
      vertex 15.3492 21.3699 0
      vertex 15.3492 21.3699 3
    endloop
  endfacet
  facet normal 0.707107 -0.707107 0
    outer loop
      vertex 11.0849 23.832 3
      vertex 11.393 24.1401 0
      vertex 11.393 24.1401 3
    endloop
  endfacet
  facet normal 0.707107 -0.707107 0
    outer loop
      vertex 11.393 24.1401 0
      vertex 11.0849 23.832 3
      vertex 11.0849 23.832 0
    endloop
  endfacet
  facet normal 0.087204 -0.99619 0
    outer loop
      vertex 12.5659 24.687 0
      vertex 13 24.725 3
      vertex 12.5659 24.687 3
    endloop
  endfacet
  facet normal 0.087204 -0.99619 0
    outer loop
      vertex 13 24.725 3
      vertex 12.5659 24.687 0
      vertex 13 24.725 0
    endloop
  endfacet
  facet normal -0.422534 0.906347 0
    outer loop
      vertex 14.25 20.0599 0
      vertex 13.8551 19.8758 3
      vertex 14.25 20.0599 3
    endloop
  endfacet
  facet normal -0.422534 0.906347 0
    outer loop
      vertex 13.8551 19.8758 3
      vertex 14.25 20.0599 0
      vertex 13.8551 19.8758 0
    endloop
  endfacet
  facet normal 0.707107 0.707107 0
    outer loop
      vertex 11.393 20.3099 3
      vertex 11.0849 20.618 0
      vertex 11.0849 20.618 3
    endloop
  endfacet
  facet normal 0.707107 0.707107 0
    outer loop
      vertex 11.0849 20.618 0
      vertex 11.393 20.3099 3
      vertex 11.393 20.3099 0
    endloop
  endfacet
  facet normal 0.258805 0.96593 -0
    outer loop
      vertex 12.5659 19.763 0
      vertex 12.1449 19.8758 3
      vertex 12.5659 19.763 3
    endloop
  endfacet
  facet normal 0.258805 0.96593 0
    outer loop
      vertex 12.1449 19.8758 3
      vertex 12.5659 19.763 0
      vertex 12.1449 19.8758 0
    endloop
  endfacet
  facet normal -0.819124 0.573616 0
    outer loop
      vertex 14.9151 20.618 0
      vertex 15.1651 20.975 3
      vertex 15.1651 20.975 0
    endloop
  endfacet
  facet normal -0.819124 0.573616 0
    outer loop
      vertex 15.1651 20.975 3
      vertex 14.9151 20.618 0
      vertex 14.9151 20.618 3
    endloop
  endfacet
  facet normal -0.707107 -0.707107 0
    outer loop
      vertex 14.9151 23.832 0
      vertex 14.607 24.1401 3
      vertex 14.607 24.1401 0
    endloop
  endfacet
  facet normal -0.707107 -0.707107 0
    outer loop
      vertex 14.607 24.1401 3
      vertex 14.9151 23.832 0
      vertex 14.9151 23.832 3
    endloop
  endfacet
  facet normal 0.96593 0.258805 0
    outer loop
      vertex 10.6508 21.3699 3
      vertex 10.538 21.7909 0
      vertex 10.538 21.7909 3
    endloop
  endfacet
  facet normal 0.96593 0.258805 0
    outer loop
      vertex 10.538 21.7909 0
      vertex 10.6508 21.3699 3
      vertex 10.6508 21.3699 0
    endloop
  endfacet
  facet normal -0.573616 -0.819124 0
    outer loop
      vertex 14.25 24.3901 0
      vertex 14.607 24.1401 3
      vertex 14.25 24.3901 3
    endloop
  endfacet
  facet normal -0.573616 -0.819124 -0
    outer loop
      vertex 14.607 24.1401 3
      vertex 14.25 24.3901 0
      vertex 14.607 24.1401 0
    endloop
  endfacet
  facet normal -0.087204 0.99619 0
    outer loop
      vertex 13.4341 19.763 0
      vertex 13 19.725 3
      vertex 13.4341 19.763 3
    endloop
  endfacet
  facet normal -0.087204 0.99619 0
    outer loop
      vertex 13 19.725 3
      vertex 13.4341 19.763 0
      vertex 13 19.725 0
    endloop
  endfacet
  facet normal -0.906347 0.422534 0
    outer loop
      vertex 15.1651 20.975 0
      vertex 15.3492 21.3699 3
      vertex 15.3492 21.3699 0
    endloop
  endfacet
  facet normal -0.906347 0.422534 0
    outer loop
      vertex 15.3492 21.3699 3
      vertex 15.1651 20.975 0
      vertex 15.1651 20.975 3
    endloop
  endfacet
  facet normal -0.087204 -0.99619 0
    outer loop
      vertex 13 24.725 0
      vertex 13.4341 24.687 3
      vertex 13 24.725 3
    endloop
  endfacet
  facet normal -0.087204 -0.99619 -0
    outer loop
      vertex 13.4341 24.687 3
      vertex 13 24.725 0
      vertex 13.4341 24.687 0
    endloop
  endfacet
  facet normal 0.573616 -0.819124 0
    outer loop
      vertex 11.393 24.1401 0
      vertex 11.75 24.3901 3
      vertex 11.393 24.1401 3
    endloop
  endfacet
  facet normal 0.573616 -0.819124 0
    outer loop
      vertex 11.75 24.3901 3
      vertex 11.393 24.1401 0
      vertex 11.75 24.3901 0
    endloop
  endfacet
  facet normal -0.422534 -0.906347 0
    outer loop
      vertex 13.8551 24.5742 0
      vertex 14.25 24.3901 3
      vertex 13.8551 24.5742 3
    endloop
  endfacet
  facet normal -0.422534 -0.906347 -0
    outer loop
      vertex 14.25 24.3901 3
      vertex 13.8551 24.5742 0
      vertex 14.25 24.3901 0
    endloop
  endfacet
  facet normal 0.99619 -0.087204 0
    outer loop
      vertex 10.5 22.225 3
      vertex 10.538 22.6591 0
      vertex 10.538 22.6591 3
    endloop
  endfacet
  facet normal 0.99619 -0.087204 0
    outer loop
      vertex 10.538 22.6591 0
      vertex 10.5 22.225 3
      vertex 10.5 22.225 0
    endloop
  endfacet
  facet normal -0.707107 0.707107 0
    outer loop
      vertex 14.607 20.3099 0
      vertex 14.9151 20.618 3
      vertex 14.9151 20.618 0
    endloop
  endfacet
  facet normal -0.707107 0.707107 0
    outer loop
      vertex 14.9151 20.618 3
      vertex 14.607 20.3099 0
      vertex 14.607 20.3099 3
    endloop
  endfacet
  facet normal 0.906347 0.422534 0
    outer loop
      vertex 10.8349 20.975 3
      vertex 10.6508 21.3699 0
      vertex 10.6508 21.3699 3
    endloop
  endfacet
  facet normal 0.906347 0.422534 0
    outer loop
      vertex 10.6508 21.3699 0
      vertex 10.8349 20.975 3
      vertex 10.8349 20.975 0
    endloop
  endfacet
  facet normal 0.906388 -0.422446 0
    outer loop
      vertex 10.6508 23.08 3
      vertex 10.8349 23.475 0
      vertex 10.8349 23.475 3
    endloop
  endfacet
  facet normal 0.906388 -0.422446 0
    outer loop
      vertex 10.8349 23.475 0
      vertex 10.6508 23.08 3
      vertex 10.6508 23.08 0
    endloop
  endfacet
  facet normal 0.965914 -0.258862 0
    outer loop
      vertex 10.538 22.6591 3
      vertex 10.6508 23.08 0
      vertex 10.6508 23.08 3
    endloop
  endfacet
  facet normal 0.965914 -0.258862 0
    outer loop
      vertex 10.6508 23.08 0
      vertex 10.538 22.6591 3
      vertex 10.538 22.6591 0
    endloop
  endfacet
  facet normal 0.258805 -0.96593 0
    outer loop
      vertex 226.145 24.5742 0
      vertex 226.566 24.687 3
      vertex 226.145 24.5742 3
    endloop
  endfacet
  facet normal 0.258805 -0.96593 0
    outer loop
      vertex 226.566 24.687 3
      vertex 226.145 24.5742 0
      vertex 226.566 24.687 0
    endloop
  endfacet
  facet normal -0.422446 0.906388 0
    outer loop
      vertex 228.25 20.0599 0
      vertex 227.855 19.8758 3
      vertex 228.25 20.0599 3
    endloop
  endfacet
  facet normal -0.422446 0.906388 0
    outer loop
      vertex 227.855 19.8758 3
      vertex 228.25 20.0599 0
      vertex 227.855 19.8758 0
    endloop
  endfacet
  facet normal 0.819124 -0.573616 0
    outer loop
      vertex 224.835 23.475 3
      vertex 225.085 23.832 0
      vertex 225.085 23.832 3
    endloop
  endfacet
  facet normal 0.819124 -0.573616 0
    outer loop
      vertex 225.085 23.832 0
      vertex 224.835 23.475 3
      vertex 224.835 23.475 0
    endloop
  endfacet
  facet normal -0.99619 0.087204 0
    outer loop
      vertex 229.462 21.7909 0
      vertex 229.5 22.225 3
      vertex 229.5 22.225 0
    endloop
  endfacet
  facet normal -0.99619 0.087204 0
    outer loop
      vertex 229.5 22.225 3
      vertex 229.462 21.7909 0
      vertex 229.462 21.7909 3
    endloop
  endfacet
  facet normal -0.906476 -0.422257 0
    outer loop
      vertex 229.349 23.08 0
      vertex 229.165 23.475 3
      vertex 229.165 23.475 0
    endloop
  endfacet
  facet normal -0.906476 -0.422257 0
    outer loop
      vertex 229.165 23.475 3
      vertex 229.349 23.08 0
      vertex 229.349 23.08 3
    endloop
  endfacet
  facet normal 0.819124 0.573616 0
    outer loop
      vertex 225.085 20.618 3
      vertex 224.835 20.975 0
      vertex 224.835 20.975 3
    endloop
  endfacet
  facet normal 0.819124 0.573616 0
    outer loop
      vertex 224.835 20.975 0
      vertex 225.085 20.618 3
      vertex 225.085 20.618 0
    endloop
  endfacet
  facet normal 0.99619 -0.087204 0
    outer loop
      vertex 224.5 22.225 3
      vertex 224.538 22.6591 0
      vertex 224.538 22.6591 3
    endloop
  endfacet
  facet normal 0.99619 -0.087204 0
    outer loop
      vertex 224.538 22.6591 0
      vertex 224.5 22.225 3
      vertex 224.5 22.225 0
    endloop
  endfacet
  facet normal -0.99619 -0.087204 0
    outer loop
      vertex 229.5 22.225 0
      vertex 229.462 22.6591 3
      vertex 229.462 22.6591 0
    endloop
  endfacet
  facet normal -0.99619 -0.087204 0
    outer loop
      vertex 229.462 22.6591 3
      vertex 229.5 22.225 0
      vertex 229.5 22.225 3
    endloop
  endfacet
  facet normal -0.573616 0.819124 0
    outer loop
      vertex 228.607 20.3099 0
      vertex 228.25 20.0599 3
      vertex 228.607 20.3099 3
    endloop
  endfacet
  facet normal -0.573616 0.819124 0
    outer loop
      vertex 228.25 20.0599 3
      vertex 228.607 20.3099 0
      vertex 228.25 20.0599 0
    endloop
  endfacet
  facet normal -0.965799 -0.25929 0
    outer loop
      vertex 229.462 22.6591 0
      vertex 229.349 23.08 3
      vertex 229.349 23.08 0
    endloop
  endfacet
  facet normal -0.965799 -0.25929 0
    outer loop
      vertex 229.349 23.08 3
      vertex 229.462 22.6591 0
      vertex 229.462 22.6591 3
    endloop
  endfacet
  facet normal 0.965815 0.259233 0
    outer loop
      vertex 224.651 21.3699 3
      vertex 224.538 21.7909 0
      vertex 224.538 21.7909 3
    endloop
  endfacet
  facet normal 0.965815 0.259233 0
    outer loop
      vertex 224.538 21.7909 0
      vertex 224.651 21.3699 3
      vertex 224.651 21.3699 0
    endloop
  endfacet
  facet normal 0.99619 0.087204 0
    outer loop
      vertex 224.538 21.7909 3
      vertex 224.5 22.225 0
      vertex 224.5 22.225 3
    endloop
  endfacet
  facet normal 0.99619 0.087204 0
    outer loop
      vertex 224.5 22.225 0
      vertex 224.538 21.7909 3
      vertex 224.538 21.7909 0
    endloop
  endfacet
  facet normal -0.258805 -0.96593 0
    outer loop
      vertex 227.434 24.687 0
      vertex 227.855 24.5742 3
      vertex 227.434 24.687 3
    endloop
  endfacet
  facet normal -0.258805 -0.96593 -0
    outer loop
      vertex 227.855 24.5742 3
      vertex 227.434 24.687 0
      vertex 227.855 24.5742 0
    endloop
  endfacet
  facet normal 0.965799 -0.25929 0
    outer loop
      vertex 224.538 22.6591 3
      vertex 224.651 23.08 0
      vertex 224.651 23.08 3
    endloop
  endfacet
  facet normal 0.965799 -0.25929 0
    outer loop
      vertex 224.651 23.08 0
      vertex 224.538 22.6591 3
      vertex 224.538 22.6591 0
    endloop
  endfacet
  facet normal -0.258805 0.96593 0
    outer loop
      vertex 227.855 19.8758 0
      vertex 227.434 19.763 3
      vertex 227.855 19.8758 3
    endloop
  endfacet
  facet normal -0.258805 0.96593 0
    outer loop
      vertex 227.434 19.763 3
      vertex 227.855 19.8758 0
      vertex 227.434 19.763 0
    endloop
  endfacet
  facet normal 0.422446 0.906388 -0
    outer loop
      vertex 226.145 19.8758 0
      vertex 225.75 20.0599 3
      vertex 226.145 19.8758 3
    endloop
  endfacet
  facet normal 0.422446 0.906388 0
    outer loop
      vertex 225.75 20.0599 3
      vertex 226.145 19.8758 0
      vertex 225.75 20.0599 0
    endloop
  endfacet
  facet normal -0.707222 0.706992 0
    outer loop
      vertex 228.915 20.618 0
      vertex 228.607 20.3099 3
      vertex 228.915 20.618 3
    endloop
  endfacet
  facet normal -0.707222 0.706992 0
    outer loop
      vertex 228.607 20.3099 3
      vertex 228.915 20.618 0
      vertex 228.607 20.3099 0
    endloop
  endfacet
  facet normal -0.819124 0.573616 0
    outer loop
      vertex 228.915 20.618 0
      vertex 229.165 20.975 3
      vertex 229.165 20.975 0
    endloop
  endfacet
  facet normal -0.819124 0.573616 0
    outer loop
      vertex 229.165 20.975 3
      vertex 228.915 20.618 0
      vertex 228.915 20.618 3
    endloop
  endfacet
  facet normal -0.965815 0.259233 0
    outer loop
      vertex 229.349 21.3699 0
      vertex 229.462 21.7909 3
      vertex 229.462 21.7909 0
    endloop
  endfacet
  facet normal -0.965815 0.259233 0
    outer loop
      vertex 229.462 21.7909 3
      vertex 229.349 21.3699 0
      vertex 229.349 21.3699 3
    endloop
  endfacet
  facet normal -0.707222 -0.706992 0
    outer loop
      vertex 228.607 24.1401 0
      vertex 228.915 23.832 3
      vertex 228.607 24.1401 3
    endloop
  endfacet
  facet normal -0.707222 -0.706992 -0
    outer loop
      vertex 228.915 23.832 3
      vertex 228.607 24.1401 0
      vertex 228.915 23.832 0
    endloop
  endfacet
  facet normal 0.573616 0.819124 -0
    outer loop
      vertex 225.75 20.0599 0
      vertex 225.393 20.3099 3
      vertex 225.75 20.0599 3
    endloop
  endfacet
  facet normal 0.573616 0.819124 0
    outer loop
      vertex 225.393 20.3099 3
      vertex 225.75 20.0599 0
      vertex 225.393 20.3099 0
    endloop
  endfacet
  facet normal -0.0872239 0.996189 0
    outer loop
      vertex 227.434 19.763 0
      vertex 227 19.725 3
      vertex 227.434 19.763 3
    endloop
  endfacet
  facet normal -0.0872239 0.996189 0
    outer loop
      vertex 227 19.725 3
      vertex 227.434 19.763 0
      vertex 227 19.725 0
    endloop
  endfacet
  facet normal 0.0872239 -0.996189 0
    outer loop
      vertex 226.566 24.687 0
      vertex 227 24.725 3
      vertex 226.566 24.687 3
    endloop
  endfacet
  facet normal 0.0872239 -0.996189 0
    outer loop
      vertex 227 24.725 3
      vertex 226.566 24.687 0
      vertex 227 24.725 0
    endloop
  endfacet
  facet normal -0.819124 -0.573616 0
    outer loop
      vertex 229.165 23.475 0
      vertex 228.915 23.832 3
      vertex 228.915 23.832 0
    endloop
  endfacet
  facet normal -0.819124 -0.573616 0
    outer loop
      vertex 228.915 23.832 3
      vertex 229.165 23.475 0
      vertex 229.165 23.475 3
    endloop
  endfacet
  facet normal 0.422446 -0.906388 0
    outer loop
      vertex 225.75 24.3901 0
      vertex 226.145 24.5742 3
      vertex 225.75 24.3901 3
    endloop
  endfacet
  facet normal 0.422446 -0.906388 0
    outer loop
      vertex 226.145 24.5742 3
      vertex 225.75 24.3901 0
      vertex 226.145 24.5742 0
    endloop
  endfacet
  facet normal -0.573616 -0.819124 0
    outer loop
      vertex 228.25 24.3901 0
      vertex 228.607 24.1401 3
      vertex 228.25 24.3901 3
    endloop
  endfacet
  facet normal -0.573616 -0.819124 -0
    outer loop
      vertex 228.607 24.1401 3
      vertex 228.25 24.3901 0
      vertex 228.607 24.1401 0
    endloop
  endfacet
  facet normal -0.422446 -0.906388 0
    outer loop
      vertex 227.855 24.5742 0
      vertex 228.25 24.3901 3
      vertex 227.855 24.5742 3
    endloop
  endfacet
  facet normal -0.422446 -0.906388 -0
    outer loop
      vertex 228.25 24.3901 3
      vertex 227.855 24.5742 0
      vertex 228.25 24.3901 0
    endloop
  endfacet
  facet normal -0.0872239 -0.996189 0
    outer loop
      vertex 227 24.725 0
      vertex 227.434 24.687 3
      vertex 227 24.725 3
    endloop
  endfacet
  facet normal -0.0872239 -0.996189 -0
    outer loop
      vertex 227.434 24.687 3
      vertex 227 24.725 0
      vertex 227.434 24.687 0
    endloop
  endfacet
  facet normal 0.707222 -0.706992 0
    outer loop
      vertex 225.085 23.832 0
      vertex 225.393 24.1401 3
      vertex 225.085 23.832 3
    endloop
  endfacet
  facet normal 0.707222 -0.706992 0
    outer loop
      vertex 225.393 24.1401 3
      vertex 225.085 23.832 0
      vertex 225.393 24.1401 0
    endloop
  endfacet
  facet normal 0.258805 0.96593 -0
    outer loop
      vertex 226.566 19.763 0
      vertex 226.145 19.8758 3
      vertex 226.566 19.763 3
    endloop
  endfacet
  facet normal 0.258805 0.96593 0
    outer loop
      vertex 226.145 19.8758 3
      vertex 226.566 19.763 0
      vertex 226.145 19.8758 0
    endloop
  endfacet
  facet normal -0.906435 0.422345 0
    outer loop
      vertex 229.165 20.975 0
      vertex 229.349 21.3699 3
      vertex 229.349 21.3699 0
    endloop
  endfacet
  facet normal -0.906435 0.422345 0
    outer loop
      vertex 229.349 21.3699 3
      vertex 229.165 20.975 0
      vertex 229.165 20.975 3
    endloop
  endfacet
  facet normal 0.906435 0.422345 0
    outer loop
      vertex 224.835 20.975 3
      vertex 224.651 21.3699 0
      vertex 224.651 21.3699 3
    endloop
  endfacet
  facet normal 0.906435 0.422345 0
    outer loop
      vertex 224.651 21.3699 0
      vertex 224.835 20.975 3
      vertex 224.835 20.975 0
    endloop
  endfacet
  facet normal 0.0872239 0.996189 -0
    outer loop
      vertex 227 19.725 0
      vertex 226.566 19.763 3
      vertex 227 19.725 3
    endloop
  endfacet
  facet normal 0.0872239 0.996189 0
    outer loop
      vertex 226.566 19.763 3
      vertex 227 19.725 0
      vertex 226.566 19.763 0
    endloop
  endfacet
  facet normal 0.573616 -0.819124 0
    outer loop
      vertex 225.393 24.1401 0
      vertex 225.75 24.3901 3
      vertex 225.393 24.1401 3
    endloop
  endfacet
  facet normal 0.573616 -0.819124 0
    outer loop
      vertex 225.75 24.3901 3
      vertex 225.393 24.1401 0
      vertex 225.75 24.3901 0
    endloop
  endfacet
  facet normal 0.707222 0.706992 -0
    outer loop
      vertex 225.393 20.3099 0
      vertex 225.085 20.618 3
      vertex 225.393 20.3099 3
    endloop
  endfacet
  facet normal 0.707222 0.706992 0
    outer loop
      vertex 225.085 20.618 3
      vertex 225.393 20.3099 0
      vertex 225.085 20.618 0
    endloop
  endfacet
  facet normal 0.906476 -0.422257 0
    outer loop
      vertex 224.651 23.08 3
      vertex 224.835 23.475 0
      vertex 224.835 23.475 3
    endloop
  endfacet
  facet normal 0.906476 -0.422257 0
    outer loop
      vertex 224.835 23.475 0
      vertex 224.651 23.08 3
      vertex 224.651 23.08 0
    endloop
  endfacet
endsolid OpenSCAD_Model
