solid OpenSCAD_Model
  facet normal 1 -0 0
    outer loop
      vertex 200 0 3
      vertex 200 44.45 0
      vertex 200 44.45 3
    endloop
  endfacet
  facet normal 1 0 0
    outer loop
      vertex 200 44.45 0
      vertex 200 0 3
      vertex 200 0 0
    endloop
  endfacet
  facet normal 0 0 1
    outer loop
      vertex 200 44.45 3
      vertex 189.5 22.225 3
      vertex 200 0 3
    endloop
  endfacet
  facet normal 0 0 1
    outer loop
      vertex 200 44.45 3
      vertex 189.462 22.6591 3
      vertex 189.5 22.225 3
    endloop
  endfacet
  facet normal 0 0 1
    outer loop
      vertex 200 44.45 3
      vertex 189.349 23.08 3
      vertex 189.462 22.6591 3
    endloop
  endfacet
  facet normal 0 0 1
    outer loop
      vertex 200 44.45 3
      vertex 189.165 23.475 3
      vertex 189.349 23.08 3
    endloop
  endfacet
  facet normal 0 0 1
    outer loop
      vertex 200 44.45 3
      vertex 188.915 23.832 3
      vertex 189.165 23.475 3
    endloop
  endfacet
  facet normal 0 0 1
    outer loop
      vertex 200 44.45 3
      vertex 188.607 24.1401 3
      vertex 188.915 23.832 3
    endloop
  endfacet
  facet normal 0 0 1
    outer loop
      vertex 200 44.45 3
      vertex 188.25 24.3901 3
      vertex 188.607 24.1401 3
    endloop
  endfacet
  facet normal 0 0 1
    outer loop
      vertex 200 44.45 3
      vertex 187.855 24.5742 3
      vertex 188.25 24.3901 3
    endloop
  endfacet
  facet normal -0 0 1
    outer loop
      vertex 182 40.5 3
      vertex 187.855 24.5742 3
      vertex 200 44.45 3
    endloop
  endfacet
  facet normal 0 0 1
    outer loop
      vertex 187.855 24.5742 3
      vertex 182 40.5 3
      vertex 187.434 24.687 3
    endloop
  endfacet
  facet normal 0 0 1
    outer loop
      vertex 187.434 24.687 3
      vertex 182 40.5 3
      vertex 187 24.725 3
    endloop
  endfacet
  facet normal 0 0 1
    outer loop
      vertex 187 24.725 3
      vertex 182 40.5 3
      vertex 186.566 24.687 3
    endloop
  endfacet
  facet normal 0 0 1
    outer loop
      vertex 186.566 24.687 3
      vertex 182 40.5 3
      vertex 186.145 24.5742 3
    endloop
  endfacet
  facet normal 0 0 1
    outer loop
      vertex 186.145 24.5742 3
      vertex 182 40.5 3
      vertex 185.75 24.3901 3
    endloop
  endfacet
  facet normal 0 0 1
    outer loop
      vertex 185.75 24.3901 3
      vertex 182 40.5 3
      vertex 185.393 24.1401 3
    endloop
  endfacet
  facet normal 0 0 1
    outer loop
      vertex 184.538 22.6591 3
      vertex 182 40.5 3
      vertex 184.5 22.225 3
    endloop
  endfacet
  facet normal 0 0 1
    outer loop
      vertex 184.651 23.08 3
      vertex 182 40.5 3
      vertex 184.538 22.6591 3
    endloop
  endfacet
  facet normal 0 0 1
    outer loop
      vertex 184.835 23.475 3
      vertex 182 40.5 3
      vertex 184.651 23.08 3
    endloop
  endfacet
  facet normal 0 0 1
    outer loop
      vertex 185.085 23.832 3
      vertex 182 40.5 3
      vertex 184.835 23.475 3
    endloop
  endfacet
  facet normal 0 0 1
    outer loop
      vertex 185.393 24.1401 3
      vertex 182 40.5 3
      vertex 185.085 23.832 3
    endloop
  endfacet
  facet normal 0 0 1
    outer loop
      vertex 200 44.45 3
      vertex 18 40.5 3
      vertex 182 40.5 3
    endloop
  endfacet
  facet normal 0 0 1
    outer loop
      vertex 18 40.5 3
      vertex 15.5 22.225 3
      vertex 18 4.5 3
    endloop
  endfacet
  facet normal 0 0 1
    outer loop
      vertex 18 40.5 3
      vertex 15.462 22.6591 3
      vertex 15.5 22.225 3
    endloop
  endfacet
  facet normal 0 0 1
    outer loop
      vertex 18 40.5 3
      vertex 15.3492 23.08 3
      vertex 15.462 22.6591 3
    endloop
  endfacet
  facet normal 0 0 1
    outer loop
      vertex 18 40.5 3
      vertex 15.1651 23.475 3
      vertex 15.3492 23.08 3
    endloop
  endfacet
  facet normal 0 0 1
    outer loop
      vertex 18 40.5 3
      vertex 14.9151 23.832 3
      vertex 15.1651 23.475 3
    endloop
  endfacet
  facet normal 0 0 1
    outer loop
      vertex 18 40.5 3
      vertex 14.607 24.1401 3
      vertex 14.9151 23.832 3
    endloop
  endfacet
  facet normal 0 0 1
    outer loop
      vertex 18 40.5 3
      vertex 14.25 24.3901 3
      vertex 14.607 24.1401 3
    endloop
  endfacet
  facet normal 0 0 1
    outer loop
      vertex 18 40.5 3
      vertex 13.8551 24.5742 3
      vertex 14.25 24.3901 3
    endloop
  endfacet
  facet normal 0 0 1
    outer loop
      vertex 18 40.5 3
      vertex 13.4341 24.687 3
      vertex 13.8551 24.5742 3
    endloop
  endfacet
  facet normal 0 0 1
    outer loop
      vertex 18 40.5 3
      vertex 13 24.725 3
      vertex 13.4341 24.687 3
    endloop
  endfacet
  facet normal 0 0 1
    outer loop
      vertex 18 40.5 3
      vertex 12.5659 24.687 3
      vertex 13 24.725 3
    endloop
  endfacet
  facet normal 0 0 1
    outer loop
      vertex 18 40.5 3
      vertex 12.1449 24.5742 3
      vertex 12.5659 24.687 3
    endloop
  endfacet
  facet normal 0 0 1
    outer loop
      vertex 0 44.45 3
      vertex 12.1449 24.5742 3
      vertex 18 40.5 3
    endloop
  endfacet
  facet normal 0 0 1
    outer loop
      vertex 12.1449 24.5742 3
      vertex 0 44.45 3
      vertex 11.75 24.3901 3
    endloop
  endfacet
  facet normal 0 0 1
    outer loop
      vertex 11.75 24.3901 3
      vertex 0 44.45 3
      vertex 11.393 24.1401 3
    endloop
  endfacet
  facet normal 0 0 1
    outer loop
      vertex 11.393 24.1401 3
      vertex 0 44.45 3
      vertex 11.0849 23.832 3
    endloop
  endfacet
  facet normal 0 0 1
    outer loop
      vertex 11.0849 23.832 3
      vertex 0 44.45 3
      vertex 10.8349 23.475 3
    endloop
  endfacet
  facet normal 0 0 1
    outer loop
      vertex 10.538 22.6591 3
      vertex 0 44.45 3
      vertex 10.5 22.225 3
    endloop
  endfacet
  facet normal 0 0 1
    outer loop
      vertex 10.6508 23.08 3
      vertex 0 44.45 3
      vertex 10.538 22.6591 3
    endloop
  endfacet
  facet normal 0 0 1
    outer loop
      vertex 10.8349 23.475 3
      vertex 0 44.45 3
      vertex 10.6508 23.08 3
    endloop
  endfacet
  facet normal -0 0 1
    outer loop
      vertex 0 44.45 3
      vertex 18 40.5 3
      vertex 200 44.45 3
    endloop
  endfacet
  facet normal -0 0 1
    outer loop
      vertex 189.462 21.7909 3
      vertex 200 0 3
      vertex 189.5 22.225 3
    endloop
  endfacet
  facet normal -0 0 1
    outer loop
      vertex 189.349 21.3699 3
      vertex 200 0 3
      vertex 189.462 21.7909 3
    endloop
  endfacet
  facet normal -0 0 1
    outer loop
      vertex 189.165 20.975 3
      vertex 200 0 3
      vertex 189.349 21.3699 3
    endloop
  endfacet
  facet normal -0 0 1
    outer loop
      vertex 188.915 20.618 3
      vertex 200 0 3
      vertex 189.165 20.975 3
    endloop
  endfacet
  facet normal -0 0 1
    outer loop
      vertex 188.607 20.3099 3
      vertex 200 0 3
      vertex 188.915 20.618 3
    endloop
  endfacet
  facet normal -0 0 1
    outer loop
      vertex 188.25 20.0599 3
      vertex 200 0 3
      vertex 188.607 20.3099 3
    endloop
  endfacet
  facet normal -0 0 1
    outer loop
      vertex 187.855 19.8758 3
      vertex 200 0 3
      vertex 188.25 20.0599 3
    endloop
  endfacet
  facet normal 0 0 1
    outer loop
      vertex 182 4.5 3
      vertex 187.855 19.8758 3
      vertex 187.434 19.763 3
    endloop
  endfacet
  facet normal 0 0 1
    outer loop
      vertex 182 4.5 3
      vertex 187.434 19.763 3
      vertex 187 19.725 3
    endloop
  endfacet
  facet normal 0 0 1
    outer loop
      vertex 182 4.5 3
      vertex 187 19.725 3
      vertex 186.566 19.763 3
    endloop
  endfacet
  facet normal 0 0 1
    outer loop
      vertex 182 4.5 3
      vertex 186.566 19.763 3
      vertex 186.145 19.8758 3
    endloop
  endfacet
  facet normal 0 0 1
    outer loop
      vertex 182 4.5 3
      vertex 186.145 19.8758 3
      vertex 185.75 20.0599 3
    endloop
  endfacet
  facet normal 0 0 1
    outer loop
      vertex 182 4.5 3
      vertex 185.75 20.0599 3
      vertex 185.393 20.3099 3
    endloop
  endfacet
  facet normal 0 0 1
    outer loop
      vertex 182 4.5 3
      vertex 185.393 20.3099 3
      vertex 185.085 20.618 3
    endloop
  endfacet
  facet normal 0 0 1
    outer loop
      vertex 182 4.5 3
      vertex 184.5 22.225 3
      vertex 182 40.5 3
    endloop
  endfacet
  facet normal 0 0 1
    outer loop
      vertex 184.5 22.225 3
      vertex 182 4.5 3
      vertex 184.538 21.7909 3
    endloop
  endfacet
  facet normal 0 0 1
    outer loop
      vertex 182 4.5 3
      vertex 184.651 21.3699 3
      vertex 184.538 21.7909 3
    endloop
  endfacet
  facet normal 0 0 1
    outer loop
      vertex 182 4.5 3
      vertex 184.835 20.975 3
      vertex 184.651 21.3699 3
    endloop
  endfacet
  facet normal 0 0 1
    outer loop
      vertex 182 4.5 3
      vertex 185.085 20.618 3
      vertex 184.835 20.975 3
    endloop
  endfacet
  facet normal 0 0 1
    outer loop
      vertex 187.855 19.8758 3
      vertex 182 4.5 3
      vertex 200 0 3
    endloop
  endfacet
  facet normal -0 0 1
    outer loop
      vertex 18 4.5 3
      vertex 200 0 3
      vertex 182 4.5 3
    endloop
  endfacet
  facet normal -0 0 1
    outer loop
      vertex 15.462 21.7909 3
      vertex 18 4.5 3
      vertex 15.5 22.225 3
    endloop
  endfacet
  facet normal -0 0 1
    outer loop
      vertex 15.3492 21.3699 3
      vertex 18 4.5 3
      vertex 15.462 21.7909 3
    endloop
  endfacet
  facet normal -0 0 1
    outer loop
      vertex 15.1651 20.975 3
      vertex 18 4.5 3
      vertex 15.3492 21.3699 3
    endloop
  endfacet
  facet normal -0 0 1
    outer loop
      vertex 14.9151 20.618 3
      vertex 18 4.5 3
      vertex 15.1651 20.975 3
    endloop
  endfacet
  facet normal -0 0 1
    outer loop
      vertex 14.607 20.3099 3
      vertex 18 4.5 3
      vertex 14.9151 20.618 3
    endloop
  endfacet
  facet normal -0 0 1
    outer loop
      vertex 14.25 20.0599 3
      vertex 18 4.5 3
      vertex 14.607 20.3099 3
    endloop
  endfacet
  facet normal -0 0 1
    outer loop
      vertex 13.8551 19.8758 3
      vertex 18 4.5 3
      vertex 14.25 20.0599 3
    endloop
  endfacet
  facet normal -0 0 1
    outer loop
      vertex 13.4341 19.763 3
      vertex 18 4.5 3
      vertex 13.8551 19.8758 3
    endloop
  endfacet
  facet normal -0 0 1
    outer loop
      vertex 13 19.725 3
      vertex 18 4.5 3
      vertex 13.4341 19.763 3
    endloop
  endfacet
  facet normal 0 0 1
    outer loop
      vertex 12.5659 19.763 3
      vertex 18 4.5 3
      vertex 13 19.725 3
    endloop
  endfacet
  facet normal 0 0 1
    outer loop
      vertex 12.1449 19.8758 3
      vertex 18 4.5 3
      vertex 12.5659 19.763 3
    endloop
  endfacet
  facet normal 0 0 1
    outer loop
      vertex 0 0 3
      vertex 12.1449 19.8758 3
      vertex 11.75 20.0599 3
    endloop
  endfacet
  facet normal 0 0 1
    outer loop
      vertex 0 0 3
      vertex 11.75 20.0599 3
      vertex 11.393 20.3099 3
    endloop
  endfacet
  facet normal 0 0 1
    outer loop
      vertex 0 0 3
      vertex 11.393 20.3099 3
      vertex 11.0849 20.618 3
    endloop
  endfacet
  facet normal 0 0 1
    outer loop
      vertex 0 0 3
      vertex 11.0849 20.618 3
      vertex 10.8349 20.975 3
    endloop
  endfacet
  facet normal 0 0 1
    outer loop
      vertex 0 0 3
      vertex 10.8349 20.975 3
      vertex 10.6508 21.3699 3
    endloop
  endfacet
  facet normal 0 0 1
    outer loop
      vertex 0 0 3
      vertex 10.5 22.225 3
      vertex 0 44.45 3
    endloop
  endfacet
  facet normal 0 0 1
    outer loop
      vertex 10.5 22.225 3
      vertex 0 0 3
      vertex 10.538 21.7909 3
    endloop
  endfacet
  facet normal 0 0 1
    outer loop
      vertex 10.538 21.7909 3
      vertex 0 0 3
      vertex 10.6508 21.3699 3
    endloop
  endfacet
  facet normal 0 0 1
    outer loop
      vertex 18 4.5 3
      vertex 0 0 3
      vertex 200 0 3
    endloop
  endfacet
  facet normal 0 0 1
    outer loop
      vertex 12.1449 19.8758 3
      vertex 0 0 3
      vertex 18 4.5 3
    endloop
  endfacet
  facet normal 0 0 -1
    outer loop
      vertex 200 0 0
      vertex 189.5 22.225 0
      vertex 200 44.45 0
    endloop
  endfacet
  facet normal 0 0 -1
    outer loop
      vertex 200 0 0
      vertex 189.462 21.7909 0
      vertex 189.5 22.225 0
    endloop
  endfacet
  facet normal 0 0 -1
    outer loop
      vertex 200 0 0
      vertex 189.349 21.3699 0
      vertex 189.462 21.7909 0
    endloop
  endfacet
  facet normal 0 0 -1
    outer loop
      vertex 200 0 0
      vertex 189.165 20.975 0
      vertex 189.349 21.3699 0
    endloop
  endfacet
  facet normal 0 0 -1
    outer loop
      vertex 200 0 0
      vertex 188.915 20.618 0
      vertex 189.165 20.975 0
    endloop
  endfacet
  facet normal 0 0 -1
    outer loop
      vertex 200 0 0
      vertex 188.607 20.3099 0
      vertex 188.915 20.618 0
    endloop
  endfacet
  facet normal 0 0 -1
    outer loop
      vertex 200 0 0
      vertex 188.25 20.0599 0
      vertex 188.607 20.3099 0
    endloop
  endfacet
  facet normal 0 0 -1
    outer loop
      vertex 200 0 0
      vertex 187.855 19.8758 0
      vertex 188.25 20.0599 0
    endloop
  endfacet
  facet normal 0 0 -1
    outer loop
      vertex 179 7.5 0
      vertex 187.855 19.8758 0
      vertex 200 0 0
    endloop
  endfacet
  facet normal 0 0 -1
    outer loop
      vertex 187.855 19.8758 0
      vertex 179 7.5 0
      vertex 187.434 19.763 0
    endloop
  endfacet
  facet normal 0 0 -1
    outer loop
      vertex 187.434 19.763 0
      vertex 179 7.5 0
      vertex 187 19.725 0
    endloop
  endfacet
  facet normal -0 0 -1
    outer loop
      vertex 187 19.725 0
      vertex 179 7.5 0
      vertex 186.566 19.763 0
    endloop
  endfacet
  facet normal -0 0 -1
    outer loop
      vertex 186.566 19.763 0
      vertex 179 7.5 0
      vertex 186.145 19.8758 0
    endloop
  endfacet
  facet normal -0 0 -1
    outer loop
      vertex 186.145 19.8758 0
      vertex 179 7.5 0
      vertex 185.75 20.0599 0
    endloop
  endfacet
  facet normal -0 0 -1
    outer loop
      vertex 185.75 20.0599 0
      vertex 179 7.5 0
      vertex 185.393 20.3099 0
    endloop
  endfacet
  facet normal -0 0 -1
    outer loop
      vertex 184.538 21.7909 0
      vertex 179 7.5 0
      vertex 184.5 22.225 0
    endloop
  endfacet
  facet normal -0 0 -1
    outer loop
      vertex 184.651 21.3699 0
      vertex 179 7.5 0
      vertex 184.538 21.7909 0
    endloop
  endfacet
  facet normal -0 0 -1
    outer loop
      vertex 184.835 20.975 0
      vertex 179 7.5 0
      vertex 184.651 21.3699 0
    endloop
  endfacet
  facet normal -0 0 -1
    outer loop
      vertex 185.085 20.618 0
      vertex 179 7.5 0
      vertex 184.835 20.975 0
    endloop
  endfacet
  facet normal -0 0 -1
    outer loop
      vertex 185.393 20.3099 0
      vertex 179 7.5 0
      vertex 185.085 20.618 0
    endloop
  endfacet
  facet normal 0 0 -1
    outer loop
      vertex 200 0 0
      vertex 21 7.5 0
      vertex 179 7.5 0
    endloop
  endfacet
  facet normal 0 0 -1
    outer loop
      vertex 21 7.5 0
      vertex 15.5 22.225 0
      vertex 21 37.5 0
    endloop
  endfacet
  facet normal 0 0 -1
    outer loop
      vertex 21 7.5 0
      vertex 15.462 21.7909 0
      vertex 15.5 22.225 0
    endloop
  endfacet
  facet normal 0 0 -1
    outer loop
      vertex 21 7.5 0
      vertex 15.3492 21.3699 0
      vertex 15.462 21.7909 0
    endloop
  endfacet
  facet normal 0 0 -1
    outer loop
      vertex 21 7.5 0
      vertex 15.1651 20.975 0
      vertex 15.3492 21.3699 0
    endloop
  endfacet
  facet normal 0 0 -1
    outer loop
      vertex 21 7.5 0
      vertex 14.9151 20.618 0
      vertex 15.1651 20.975 0
    endloop
  endfacet
  facet normal 0 0 -1
    outer loop
      vertex 21 7.5 0
      vertex 14.607 20.3099 0
      vertex 14.9151 20.618 0
    endloop
  endfacet
  facet normal 0 0 -1
    outer loop
      vertex 21 7.5 0
      vertex 14.25 20.0599 0
      vertex 14.607 20.3099 0
    endloop
  endfacet
  facet normal 0 0 -1
    outer loop
      vertex 21 7.5 0
      vertex 13.8551 19.8758 0
      vertex 14.25 20.0599 0
    endloop
  endfacet
  facet normal 0 0 -1
    outer loop
      vertex 21 7.5 0
      vertex 13.4341 19.763 0
      vertex 13.8551 19.8758 0
    endloop
  endfacet
  facet normal 0 0 -1
    outer loop
      vertex 21 7.5 0
      vertex 13 19.725 0
      vertex 13.4341 19.763 0
    endloop
  endfacet
  facet normal 0 0 -1
    outer loop
      vertex 21 7.5 0
      vertex 12.5659 19.763 0
      vertex 13 19.725 0
    endloop
  endfacet
  facet normal 0 0 -1
    outer loop
      vertex 21 7.5 0
      vertex 12.1449 19.8758 0
      vertex 12.5659 19.763 0
    endloop
  endfacet
  facet normal 0 0 -1
    outer loop
      vertex 0 0 0
      vertex 12.1449 19.8758 0
      vertex 21 7.5 0
    endloop
  endfacet
  facet normal -0 0 -1
    outer loop
      vertex 12.1449 19.8758 0
      vertex 0 0 0
      vertex 11.75 20.0599 0
    endloop
  endfacet
  facet normal -0 0 -1
    outer loop
      vertex 11.75 20.0599 0
      vertex 0 0 0
      vertex 11.393 20.3099 0
    endloop
  endfacet
  facet normal -0 0 -1
    outer loop
      vertex 10.538 21.7909 0
      vertex 0 0 0
      vertex 10.5 22.225 0
    endloop
  endfacet
  facet normal -0 0 -1
    outer loop
      vertex 10.6508 21.3699 0
      vertex 0 0 0
      vertex 10.538 21.7909 0
    endloop
  endfacet
  facet normal -0 0 -1
    outer loop
      vertex 10.8349 20.975 0
      vertex 0 0 0
      vertex 10.6508 21.3699 0
    endloop
  endfacet
  facet normal -0 0 -1
    outer loop
      vertex 11.0849 20.618 0
      vertex 0 0 0
      vertex 10.8349 20.975 0
    endloop
  endfacet
  facet normal -0 0 -1
    outer loop
      vertex 11.393 20.3099 0
      vertex 0 0 0
      vertex 11.0849 20.618 0
    endloop
  endfacet
  facet normal 0 0 -1
    outer loop
      vertex 0 0 0
      vertex 21 7.5 0
      vertex 200 0 0
    endloop
  endfacet
  facet normal 0 0 -1
    outer loop
      vertex 189.462 22.6591 0
      vertex 200 44.45 0
      vertex 189.5 22.225 0
    endloop
  endfacet
  facet normal 0 0 -1
    outer loop
      vertex 189.349 23.08 0
      vertex 200 44.45 0
      vertex 189.462 22.6591 0
    endloop
  endfacet
  facet normal 0 0 -1
    outer loop
      vertex 189.165 23.475 0
      vertex 200 44.45 0
      vertex 189.349 23.08 0
    endloop
  endfacet
  facet normal 0 0 -1
    outer loop
      vertex 188.915 23.832 0
      vertex 200 44.45 0
      vertex 189.165 23.475 0
    endloop
  endfacet
  facet normal 0 0 -1
    outer loop
      vertex 188.607 24.1401 0
      vertex 200 44.45 0
      vertex 188.915 23.832 0
    endloop
  endfacet
  facet normal 0 0 -1
    outer loop
      vertex 188.25 24.3901 0
      vertex 200 44.45 0
      vertex 188.607 24.1401 0
    endloop
  endfacet
  facet normal 0 0 -1
    outer loop
      vertex 187.855 24.5742 0
      vertex 200 44.45 0
      vertex 188.25 24.3901 0
    endloop
  endfacet
  facet normal 0 0 -1
    outer loop
      vertex 179 37.5 0
      vertex 187.855 24.5742 0
      vertex 187.434 24.687 0
    endloop
  endfacet
  facet normal 0 0 -1
    outer loop
      vertex 179 37.5 0
      vertex 187.434 24.687 0
      vertex 187 24.725 0
    endloop
  endfacet
  facet normal 0 0 -1
    outer loop
      vertex 179 37.5 0
      vertex 187 24.725 0
      vertex 186.566 24.687 0
    endloop
  endfacet
  facet normal 0 0 -1
    outer loop
      vertex 179 37.5 0
      vertex 186.566 24.687 0
      vertex 186.145 24.5742 0
    endloop
  endfacet
  facet normal 0 0 -1
    outer loop
      vertex 179 37.5 0
      vertex 186.145 24.5742 0
      vertex 185.75 24.3901 0
    endloop
  endfacet
  facet normal 0 0 -1
    outer loop
      vertex 179 37.5 0
      vertex 185.75 24.3901 0
      vertex 185.393 24.1401 0
    endloop
  endfacet
  facet normal 0 0 -1
    outer loop
      vertex 179 37.5 0
      vertex 185.393 24.1401 0
      vertex 185.085 23.832 0
    endloop
  endfacet
  facet normal 0 0 -1
    outer loop
      vertex 179 37.5 0
      vertex 184.5 22.225 0
      vertex 179 7.5 0
    endloop
  endfacet
  facet normal 0 0 -1
    outer loop
      vertex 184.5 22.225 0
      vertex 179 37.5 0
      vertex 184.538 22.6591 0
    endloop
  endfacet
  facet normal 0 0 -1
    outer loop
      vertex 184.538 22.6591 0
      vertex 179 37.5 0
      vertex 184.651 23.08 0
    endloop
  endfacet
  facet normal 0 0 -1
    outer loop
      vertex 179 37.5 0
      vertex 184.835 23.475 0
      vertex 184.651 23.08 0
    endloop
  endfacet
  facet normal 0 0 -1
    outer loop
      vertex 179 37.5 0
      vertex 185.085 23.832 0
      vertex 184.835 23.475 0
    endloop
  endfacet
  facet normal 0 0 -1
    outer loop
      vertex 187.855 24.5742 0
      vertex 179 37.5 0
      vertex 200 44.45 0
    endloop
  endfacet
  facet normal 0 0 -1
    outer loop
      vertex 21 37.5 0
      vertex 200 44.45 0
      vertex 179 37.5 0
    endloop
  endfacet
  facet normal 0 0 -1
    outer loop
      vertex 15.462 22.6591 0
      vertex 21 37.5 0
      vertex 15.5 22.225 0
    endloop
  endfacet
  facet normal 0 0 -1
    outer loop
      vertex 15.3492 23.08 0
      vertex 21 37.5 0
      vertex 15.462 22.6591 0
    endloop
  endfacet
  facet normal 0 0 -1
    outer loop
      vertex 15.1651 23.475 0
      vertex 21 37.5 0
      vertex 15.3492 23.08 0
    endloop
  endfacet
  facet normal 0 0 -1
    outer loop
      vertex 14.9151 23.832 0
      vertex 21 37.5 0
      vertex 15.1651 23.475 0
    endloop
  endfacet
  facet normal 0 0 -1
    outer loop
      vertex 14.607 24.1401 0
      vertex 21 37.5 0
      vertex 14.9151 23.832 0
    endloop
  endfacet
  facet normal 0 0 -1
    outer loop
      vertex 14.25 24.3901 0
      vertex 21 37.5 0
      vertex 14.607 24.1401 0
    endloop
  endfacet
  facet normal 0 0 -1
    outer loop
      vertex 13.8551 24.5742 0
      vertex 21 37.5 0
      vertex 14.25 24.3901 0
    endloop
  endfacet
  facet normal 0 0 -1
    outer loop
      vertex 13.4341 24.687 0
      vertex 21 37.5 0
      vertex 13.8551 24.5742 0
    endloop
  endfacet
  facet normal 0 0 -1
    outer loop
      vertex 13 24.725 0
      vertex 21 37.5 0
      vertex 13.4341 24.687 0
    endloop
  endfacet
  facet normal 0 0 -1
    outer loop
      vertex 12.5659 24.687 0
      vertex 21 37.5 0
      vertex 13 24.725 0
    endloop
  endfacet
  facet normal 0 0 -1
    outer loop
      vertex 12.1449 24.5742 0
      vertex 21 37.5 0
      vertex 12.5659 24.687 0
    endloop
  endfacet
  facet normal 0 0 -1
    outer loop
      vertex 0 44.45 0
      vertex 12.1449 24.5742 0
      vertex 11.75 24.3901 0
    endloop
  endfacet
  facet normal 0 0 -1
    outer loop
      vertex 0 44.45 0
      vertex 11.75 24.3901 0
      vertex 11.393 24.1401 0
    endloop
  endfacet
  facet normal 0 0 -1
    outer loop
      vertex 0 44.45 0
      vertex 11.393 24.1401 0
      vertex 11.0849 23.832 0
    endloop
  endfacet
  facet normal 0 0 -1
    outer loop
      vertex 0 44.45 0
      vertex 10.5 22.225 0
      vertex 0 0 0
    endloop
  endfacet
  facet normal 0 0 -1
    outer loop
      vertex 10.5 22.225 0
      vertex 0 44.45 0
      vertex 10.538 22.6591 0
    endloop
  endfacet
  facet normal 0 0 -1
    outer loop
      vertex 21 37.5 0
      vertex 0 44.45 0
      vertex 200 44.45 0
    endloop
  endfacet
  facet normal 0 0 -1
    outer loop
      vertex 12.1449 24.5742 0
      vertex 0 44.45 0
      vertex 21 37.5 0
    endloop
  endfacet
  facet normal 0 0 -1
    outer loop
      vertex 10.8349 23.475 0
      vertex 0 44.45 0
      vertex 11.0849 23.832 0
    endloop
  endfacet
  facet normal 0 0 -1
    outer loop
      vertex 10.6508 23.08 0
      vertex 0 44.45 0
      vertex 10.8349 23.475 0
    endloop
  endfacet
  facet normal 0 0 -1
    outer loop
      vertex 10.538 22.6591 0
      vertex 0 44.45 0
      vertex 10.6508 23.08 0
    endloop
  endfacet
  facet normal -1 0 0
    outer loop
      vertex 0 0 0
      vertex 0 44.45 3
      vertex 0 44.45 0
    endloop
  endfacet
  facet normal -1 -0 0
    outer loop
      vertex 0 44.45 3
      vertex 0 0 0
      vertex 0 0 3
    endloop
  endfacet
  facet normal 0 1 -0
    outer loop
      vertex 200 44.45 0
      vertex 0 44.45 3
      vertex 200 44.45 3
    endloop
  endfacet
  facet normal 0 1 0
    outer loop
      vertex 0 44.45 3
      vertex 200 44.45 0
      vertex 0 44.45 0
    endloop
  endfacet
  facet normal 0 -1 0
    outer loop
      vertex 0 0 0
      vertex 200 0 3
      vertex 0 0 3
    endloop
  endfacet
  facet normal 0 -1 -0
    outer loop
      vertex 200 0 3
      vertex 0 0 0
      vertex 200 0 0
    endloop
  endfacet
  facet normal 1 -0 0
    outer loop
      vertex 182 4.5 30
      vertex 182 40.5 3
      vertex 182 40.5 30
    endloop
  endfacet
  facet normal 1 0 0
    outer loop
      vertex 182 40.5 3
      vertex 182 4.5 30
      vertex 182 4.5 3
    endloop
  endfacet
  facet normal 0 0 1
    outer loop
      vertex 182 40.5 30
      vertex 179 37.5 30
      vertex 182 4.5 30
    endloop
  endfacet
  facet normal 0 0 1
    outer loop
      vertex 182 40.5 30
      vertex 21 37.5 30
      vertex 179 37.5 30
    endloop
  endfacet
  facet normal 0 0 1
    outer loop
      vertex 21 37.5 30
      vertex 18 40.5 30
      vertex 21 7.5 30
    endloop
  endfacet
  facet normal -0 0 1
    outer loop
      vertex 18 40.5 30
      vertex 21 37.5 30
      vertex 182 40.5 30
    endloop
  endfacet
  facet normal -0 0 1
    outer loop
      vertex 179 7.5 30
      vertex 182 4.5 30
      vertex 179 37.5 30
    endloop
  endfacet
  facet normal -0 0 1
    outer loop
      vertex 21 7.5 30
      vertex 182 4.5 30
      vertex 179 7.5 30
    endloop
  endfacet
  facet normal 0 0 1
    outer loop
      vertex 21 7.5 30
      vertex 18 4.5 30
      vertex 182 4.5 30
    endloop
  endfacet
  facet normal 0 0 1
    outer loop
      vertex 18 4.5 30
      vertex 21 7.5 30
      vertex 18 40.5 30
    endloop
  endfacet
  facet normal -1 0 0
    outer loop
      vertex 18 4.5 3
      vertex 18 40.5 30
      vertex 18 40.5 3
    endloop
  endfacet
  facet normal -1 -0 0
    outer loop
      vertex 18 40.5 30
      vertex 18 4.5 3
      vertex 18 4.5 30
    endloop
  endfacet
  facet normal 0 1 -0
    outer loop
      vertex 182 40.5 3
      vertex 18 40.5 30
      vertex 182 40.5 30
    endloop
  endfacet
  facet normal 0 1 0
    outer loop
      vertex 18 40.5 30
      vertex 182 40.5 3
      vertex 18 40.5 3
    endloop
  endfacet
  facet normal 0 -1 0
    outer loop
      vertex 18 4.5 3
      vertex 182 4.5 30
      vertex 18 4.5 30
    endloop
  endfacet
  facet normal 0 -1 -0
    outer loop
      vertex 182 4.5 30
      vertex 18 4.5 3
      vertex 182 4.5 3
    endloop
  endfacet
  facet normal -1 0 0
    outer loop
      vertex 179 7.5 0
      vertex 179 37.5 30
      vertex 179 37.5 0
    endloop
  endfacet
  facet normal -1 -0 0
    outer loop
      vertex 179 37.5 30
      vertex 179 7.5 0
      vertex 179 7.5 30
    endloop
  endfacet
  facet normal 1 -0 0
    outer loop
      vertex 21 7.5 30
      vertex 21 37.5 0
      vertex 21 37.5 30
    endloop
  endfacet
  facet normal 1 0 0
    outer loop
      vertex 21 37.5 0
      vertex 21 7.5 30
      vertex 21 7.5 0
    endloop
  endfacet
  facet normal 0 -1 0
    outer loop
      vertex 21 37.5 0
      vertex 179 37.5 30
      vertex 21 37.5 30
    endloop
  endfacet
  facet normal 0 -1 -0
    outer loop
      vertex 179 37.5 30
      vertex 21 37.5 0
      vertex 179 37.5 0
    endloop
  endfacet
  facet normal 0 1 -0
    outer loop
      vertex 179 7.5 0
      vertex 21 7.5 30
      vertex 179 7.5 30
    endloop
  endfacet
  facet normal 0 1 0
    outer loop
      vertex 21 7.5 30
      vertex 179 7.5 0
      vertex 21 7.5 0
    endloop
  endfacet
  facet normal 0.258805 -0.96593 0
    outer loop
      vertex 12.1449 24.5742 0
      vertex 12.5659 24.687 3
      vertex 12.1449 24.5742 3
    endloop
  endfacet
  facet normal 0.258805 -0.96593 0
    outer loop
      vertex 12.5659 24.687 3
      vertex 12.1449 24.5742 0
      vertex 12.5659 24.687 0
    endloop
  endfacet
  facet normal -0.422534 0.906347 0
    outer loop
      vertex 14.25 20.0599 0
      vertex 13.8551 19.8758 3
      vertex 14.25 20.0599 3
    endloop
  endfacet
  facet normal -0.422534 0.906347 0
    outer loop
      vertex 13.8551 19.8758 3
      vertex 14.25 20.0599 0
      vertex 13.8551 19.8758 0
    endloop
  endfacet
  facet normal 0.819124 -0.573616 0
    outer loop
      vertex 10.8349 23.475 3
      vertex 11.0849 23.832 0
      vertex 11.0849 23.832 3
    endloop
  endfacet
  facet normal 0.819124 -0.573616 0
    outer loop
      vertex 11.0849 23.832 0
      vertex 10.8349 23.475 3
      vertex 10.8349 23.475 0
    endloop
  endfacet
  facet normal -0.99619 0.087204 0
    outer loop
      vertex 15.462 21.7909 0
      vertex 15.5 22.225 3
      vertex 15.5 22.225 0
    endloop
  endfacet
  facet normal -0.99619 0.087204 0
    outer loop
      vertex 15.5 22.225 3
      vertex 15.462 21.7909 0
      vertex 15.462 21.7909 3
    endloop
  endfacet
  facet normal -0.906388 -0.422446 0
    outer loop
      vertex 15.3492 23.08 0
      vertex 15.1651 23.475 3
      vertex 15.1651 23.475 0
    endloop
  endfacet
  facet normal -0.906388 -0.422446 0
    outer loop
      vertex 15.1651 23.475 3
      vertex 15.3492 23.08 0
      vertex 15.3492 23.08 3
    endloop
  endfacet
  facet normal 0.819124 0.573616 0
    outer loop
      vertex 11.0849 20.618 3
      vertex 10.8349 20.975 0
      vertex 10.8349 20.975 3
    endloop
  endfacet
  facet normal 0.819124 0.573616 0
    outer loop
      vertex 10.8349 20.975 0
      vertex 11.0849 20.618 3
      vertex 11.0849 20.618 0
    endloop
  endfacet
  facet normal 0.99619 -0.087204 0
    outer loop
      vertex 10.5 22.225 3
      vertex 10.538 22.6591 0
      vertex 10.538 22.6591 3
    endloop
  endfacet
  facet normal 0.99619 -0.087204 0
    outer loop
      vertex 10.538 22.6591 0
      vertex 10.5 22.225 3
      vertex 10.5 22.225 0
    endloop
  endfacet
  facet normal -0.99619 -0.087204 0
    outer loop
      vertex 15.5 22.225 0
      vertex 15.462 22.6591 3
      vertex 15.462 22.6591 0
    endloop
  endfacet
  facet normal -0.99619 -0.087204 0
    outer loop
      vertex 15.462 22.6591 3
      vertex 15.5 22.225 0
      vertex 15.5 22.225 3
    endloop
  endfacet
  facet normal -0.573616 0.819124 0
    outer loop
      vertex 14.607 20.3099 0
      vertex 14.25 20.0599 3
      vertex 14.607 20.3099 3
    endloop
  endfacet
  facet normal -0.573616 0.819124 0
    outer loop
      vertex 14.25 20.0599 3
      vertex 14.607 20.3099 0
      vertex 14.25 20.0599 0
    endloop
  endfacet
  facet normal -0.965914 -0.258862 0
    outer loop
      vertex 15.462 22.6591 0
      vertex 15.3492 23.08 3
      vertex 15.3492 23.08 0
    endloop
  endfacet
  facet normal -0.965914 -0.258862 0
    outer loop
      vertex 15.3492 23.08 3
      vertex 15.462 22.6591 0
      vertex 15.462 22.6591 3
    endloop
  endfacet
  facet normal 0.96593 0.258805 0
    outer loop
      vertex 10.6508 21.3699 3
      vertex 10.538 21.7909 0
      vertex 10.538 21.7909 3
    endloop
  endfacet
  facet normal 0.96593 0.258805 0
    outer loop
      vertex 10.538 21.7909 0
      vertex 10.6508 21.3699 3
      vertex 10.6508 21.3699 0
    endloop
  endfacet
  facet normal 0.99619 0.087204 0
    outer loop
      vertex 10.538 21.7909 3
      vertex 10.5 22.225 0
      vertex 10.5 22.225 3
    endloop
  endfacet
  facet normal 0.99619 0.087204 0
    outer loop
      vertex 10.5 22.225 0
      vertex 10.538 21.7909 3
      vertex 10.538 21.7909 0
    endloop
  endfacet
  facet normal -0.258805 -0.96593 0
    outer loop
      vertex 13.4341 24.687 0
      vertex 13.8551 24.5742 3
      vertex 13.4341 24.687 3
    endloop
  endfacet
  facet normal -0.258805 -0.96593 -0
    outer loop
      vertex 13.8551 24.5742 3
      vertex 13.4341 24.687 0
      vertex 13.8551 24.5742 0
    endloop
  endfacet
  facet normal 0.965914 -0.258862 0
    outer loop
      vertex 10.538 22.6591 3
      vertex 10.6508 23.08 0
      vertex 10.6508 23.08 3
    endloop
  endfacet
  facet normal 0.965914 -0.258862 0
    outer loop
      vertex 10.6508 23.08 0
      vertex 10.538 22.6591 3
      vertex 10.538 22.6591 0
    endloop
  endfacet
  facet normal -0.258805 0.96593 0
    outer loop
      vertex 13.8551 19.8758 0
      vertex 13.4341 19.763 3
      vertex 13.8551 19.8758 3
    endloop
  endfacet
  facet normal -0.258805 0.96593 0
    outer loop
      vertex 13.4341 19.763 3
      vertex 13.8551 19.8758 0
      vertex 13.4341 19.763 0
    endloop
  endfacet
  facet normal 0.422534 0.906347 -0
    outer loop
      vertex 12.1449 19.8758 0
      vertex 11.75 20.0599 3
      vertex 12.1449 19.8758 3
    endloop
  endfacet
  facet normal 0.422534 0.906347 0
    outer loop
      vertex 11.75 20.0599 3
      vertex 12.1449 19.8758 0
      vertex 11.75 20.0599 0
    endloop
  endfacet
  facet normal -0.707107 0.707107 0
    outer loop
      vertex 14.607 20.3099 0
      vertex 14.9151 20.618 3
      vertex 14.9151 20.618 0
    endloop
  endfacet
  facet normal -0.707107 0.707107 0
    outer loop
      vertex 14.9151 20.618 3
      vertex 14.607 20.3099 0
      vertex 14.607 20.3099 3
    endloop
  endfacet
  facet normal -0.819124 0.573616 0
    outer loop
      vertex 14.9151 20.618 0
      vertex 15.1651 20.975 3
      vertex 15.1651 20.975 0
    endloop
  endfacet
  facet normal -0.819124 0.573616 0
    outer loop
      vertex 15.1651 20.975 3
      vertex 14.9151 20.618 0
      vertex 14.9151 20.618 3
    endloop
  endfacet
  facet normal -0.96593 0.258805 0
    outer loop
      vertex 15.3492 21.3699 0
      vertex 15.462 21.7909 3
      vertex 15.462 21.7909 0
    endloop
  endfacet
  facet normal -0.96593 0.258805 0
    outer loop
      vertex 15.462 21.7909 3
      vertex 15.3492 21.3699 0
      vertex 15.3492 21.3699 3
    endloop
  endfacet
  facet normal -0.707107 -0.707107 0
    outer loop
      vertex 14.9151 23.832 0
      vertex 14.607 24.1401 3
      vertex 14.607 24.1401 0
    endloop
  endfacet
  facet normal -0.707107 -0.707107 0
    outer loop
      vertex 14.607 24.1401 3
      vertex 14.9151 23.832 0
      vertex 14.9151 23.832 3
    endloop
  endfacet
  facet normal 0.573616 0.819124 -0
    outer loop
      vertex 11.75 20.0599 0
      vertex 11.393 20.3099 3
      vertex 11.75 20.0599 3
    endloop
  endfacet
  facet normal 0.573616 0.819124 0
    outer loop
      vertex 11.393 20.3099 3
      vertex 11.75 20.0599 0
      vertex 11.393 20.3099 0
    endloop
  endfacet
  facet normal -0.087204 0.99619 0
    outer loop
      vertex 13.4341 19.763 0
      vertex 13 19.725 3
      vertex 13.4341 19.763 3
    endloop
  endfacet
  facet normal -0.087204 0.99619 0
    outer loop
      vertex 13 19.725 3
      vertex 13.4341 19.763 0
      vertex 13 19.725 0
    endloop
  endfacet
  facet normal 0.087204 -0.99619 0
    outer loop
      vertex 12.5659 24.687 0
      vertex 13 24.725 3
      vertex 12.5659 24.687 3
    endloop
  endfacet
  facet normal 0.087204 -0.99619 0
    outer loop
      vertex 13 24.725 3
      vertex 12.5659 24.687 0
      vertex 13 24.725 0
    endloop
  endfacet
  facet normal -0.819124 -0.573616 0
    outer loop
      vertex 15.1651 23.475 0
      vertex 14.9151 23.832 3
      vertex 14.9151 23.832 0
    endloop
  endfacet
  facet normal -0.819124 -0.573616 0
    outer loop
      vertex 14.9151 23.832 3
      vertex 15.1651 23.475 0
      vertex 15.1651 23.475 3
    endloop
  endfacet
  facet normal 0.422534 -0.906347 0
    outer loop
      vertex 11.75 24.3901 0
      vertex 12.1449 24.5742 3
      vertex 11.75 24.3901 3
    endloop
  endfacet
  facet normal 0.422534 -0.906347 0
    outer loop
      vertex 12.1449 24.5742 3
      vertex 11.75 24.3901 0
      vertex 12.1449 24.5742 0
    endloop
  endfacet
  facet normal -0.573616 -0.819124 0
    outer loop
      vertex 14.25 24.3901 0
      vertex 14.607 24.1401 3
      vertex 14.25 24.3901 3
    endloop
  endfacet
  facet normal -0.573616 -0.819124 -0
    outer loop
      vertex 14.607 24.1401 3
      vertex 14.25 24.3901 0
      vertex 14.607 24.1401 0
    endloop
  endfacet
  facet normal -0.422534 -0.906347 0
    outer loop
      vertex 13.8551 24.5742 0
      vertex 14.25 24.3901 3
      vertex 13.8551 24.5742 3
    endloop
  endfacet
  facet normal -0.422534 -0.906347 -0
    outer loop
      vertex 14.25 24.3901 3
      vertex 13.8551 24.5742 0
      vertex 14.25 24.3901 0
    endloop
  endfacet
  facet normal -0.087204 -0.99619 0
    outer loop
      vertex 13 24.725 0
      vertex 13.4341 24.687 3
      vertex 13 24.725 3
    endloop
  endfacet
  facet normal -0.087204 -0.99619 -0
    outer loop
      vertex 13.4341 24.687 3
      vertex 13 24.725 0
      vertex 13.4341 24.687 0
    endloop
  endfacet
  facet normal 0.707107 -0.707107 0
    outer loop
      vertex 11.0849 23.832 3
      vertex 11.393 24.1401 0
      vertex 11.393 24.1401 3
    endloop
  endfacet
  facet normal 0.707107 -0.707107 0
    outer loop
      vertex 11.393 24.1401 0
      vertex 11.0849 23.832 3
      vertex 11.0849 23.832 0
    endloop
  endfacet
  facet normal 0.258805 0.96593 -0
    outer loop
      vertex 12.5659 19.763 0
      vertex 12.1449 19.8758 3
      vertex 12.5659 19.763 3
    endloop
  endfacet
  facet normal 0.258805 0.96593 0
    outer loop
      vertex 12.1449 19.8758 3
      vertex 12.5659 19.763 0
      vertex 12.1449 19.8758 0
    endloop
  endfacet
  facet normal -0.906347 0.422534 0
    outer loop
      vertex 15.1651 20.975 0
      vertex 15.3492 21.3699 3
      vertex 15.3492 21.3699 0
    endloop
  endfacet
  facet normal -0.906347 0.422534 0
    outer loop
      vertex 15.3492 21.3699 3
      vertex 15.1651 20.975 0
      vertex 15.1651 20.975 3
    endloop
  endfacet
  facet normal 0.906347 0.422534 0
    outer loop
      vertex 10.8349 20.975 3
      vertex 10.6508 21.3699 0
      vertex 10.6508 21.3699 3
    endloop
  endfacet
  facet normal 0.906347 0.422534 0
    outer loop
      vertex 10.6508 21.3699 0
      vertex 10.8349 20.975 3
      vertex 10.8349 20.975 0
    endloop
  endfacet
  facet normal 0.087204 0.99619 -0
    outer loop
      vertex 13 19.725 0
      vertex 12.5659 19.763 3
      vertex 13 19.725 3
    endloop
  endfacet
  facet normal 0.087204 0.99619 0
    outer loop
      vertex 12.5659 19.763 3
      vertex 13 19.725 0
      vertex 12.5659 19.763 0
    endloop
  endfacet
  facet normal 0.573616 -0.819124 0
    outer loop
      vertex 11.393 24.1401 0
      vertex 11.75 24.3901 3
      vertex 11.393 24.1401 3
    endloop
  endfacet
  facet normal 0.573616 -0.819124 0
    outer loop
      vertex 11.75 24.3901 3
      vertex 11.393 24.1401 0
      vertex 11.75 24.3901 0
    endloop
  endfacet
  facet normal 0.707107 0.707107 0
    outer loop
      vertex 11.393 20.3099 3
      vertex 11.0849 20.618 0
      vertex 11.0849 20.618 3
    endloop
  endfacet
  facet normal 0.707107 0.707107 0
    outer loop
      vertex 11.0849 20.618 0
      vertex 11.393 20.3099 3
      vertex 11.393 20.3099 0
    endloop
  endfacet
  facet normal 0.906388 -0.422446 0
    outer loop
      vertex 10.6508 23.08 3
      vertex 10.8349 23.475 0
      vertex 10.8349 23.475 3
    endloop
  endfacet
  facet normal 0.906388 -0.422446 0
    outer loop
      vertex 10.8349 23.475 0
      vertex 10.6508 23.08 3
      vertex 10.6508 23.08 0
    endloop
  endfacet
  facet normal 0.258805 -0.96593 0
    outer loop
      vertex 186.145 24.5742 0
      vertex 186.566 24.687 3
      vertex 186.145 24.5742 3
    endloop
  endfacet
  facet normal 0.258805 -0.96593 0
    outer loop
      vertex 186.566 24.687 3
      vertex 186.145 24.5742 0
      vertex 186.566 24.687 0
    endloop
  endfacet
  facet normal -0.422446 0.906388 0
    outer loop
      vertex 188.25 20.0599 0
      vertex 187.855 19.8758 3
      vertex 188.25 20.0599 3
    endloop
  endfacet
  facet normal -0.422446 0.906388 0
    outer loop
      vertex 187.855 19.8758 3
      vertex 188.25 20.0599 0
      vertex 187.855 19.8758 0
    endloop
  endfacet
  facet normal 0.819124 -0.573616 0
    outer loop
      vertex 184.835 23.475 3
      vertex 185.085 23.832 0
      vertex 185.085 23.832 3
    endloop
  endfacet
  facet normal 0.819124 -0.573616 0
    outer loop
      vertex 185.085 23.832 0
      vertex 184.835 23.475 3
      vertex 184.835 23.475 0
    endloop
  endfacet
  facet normal -0.99619 0.087204 0
    outer loop
      vertex 189.462 21.7909 0
      vertex 189.5 22.225 3
      vertex 189.5 22.225 0
    endloop
  endfacet
  facet normal -0.99619 0.087204 0
    outer loop
      vertex 189.5 22.225 3
      vertex 189.462 21.7909 0
      vertex 189.462 21.7909 3
    endloop
  endfacet
  facet normal -0.906476 -0.422257 0
    outer loop
      vertex 189.349 23.08 0
      vertex 189.165 23.475 3
      vertex 189.165 23.475 0
    endloop
  endfacet
  facet normal -0.906476 -0.422257 0
    outer loop
      vertex 189.165 23.475 3
      vertex 189.349 23.08 0
      vertex 189.349 23.08 3
    endloop
  endfacet
  facet normal 0.819124 0.573616 0
    outer loop
      vertex 185.085 20.618 3
      vertex 184.835 20.975 0
      vertex 184.835 20.975 3
    endloop
  endfacet
  facet normal 0.819124 0.573616 0
    outer loop
      vertex 184.835 20.975 0
      vertex 185.085 20.618 3
      vertex 185.085 20.618 0
    endloop
  endfacet
  facet normal 0.99619 -0.087204 0
    outer loop
      vertex 184.5 22.225 3
      vertex 184.538 22.6591 0
      vertex 184.538 22.6591 3
    endloop
  endfacet
  facet normal 0.99619 -0.087204 0
    outer loop
      vertex 184.538 22.6591 0
      vertex 184.5 22.225 3
      vertex 184.5 22.225 0
    endloop
  endfacet
  facet normal -0.99619 -0.087204 0
    outer loop
      vertex 189.5 22.225 0
      vertex 189.462 22.6591 3
      vertex 189.462 22.6591 0
    endloop
  endfacet
  facet normal -0.99619 -0.087204 0
    outer loop
      vertex 189.462 22.6591 3
      vertex 189.5 22.225 0
      vertex 189.5 22.225 3
    endloop
  endfacet
  facet normal 0.906476 -0.422257 0
    outer loop
      vertex 184.651 23.08 3
      vertex 184.835 23.475 0
      vertex 184.835 23.475 3
    endloop
  endfacet
  facet normal 0.906476 -0.422257 0
    outer loop
      vertex 184.835 23.475 0
      vertex 184.651 23.08 3
      vertex 184.651 23.08 0
    endloop
  endfacet
  facet normal -0.573616 0.819124 0
    outer loop
      vertex 188.607 20.3099 0
      vertex 188.25 20.0599 3
      vertex 188.607 20.3099 3
    endloop
  endfacet
  facet normal -0.573616 0.819124 0
    outer loop
      vertex 188.25 20.0599 3
      vertex 188.607 20.3099 0
      vertex 188.25 20.0599 0
    endloop
  endfacet
  facet normal -0.965799 -0.25929 0
    outer loop
      vertex 189.462 22.6591 0
      vertex 189.349 23.08 3
      vertex 189.349 23.08 0
    endloop
  endfacet
  facet normal -0.965799 -0.25929 0
    outer loop
      vertex 189.349 23.08 3
      vertex 189.462 22.6591 0
      vertex 189.462 22.6591 3
    endloop
  endfacet
  facet normal 0.965815 0.259233 0
    outer loop
      vertex 184.651 21.3699 3
      vertex 184.538 21.7909 0
      vertex 184.538 21.7909 3
    endloop
  endfacet
  facet normal 0.965815 0.259233 0
    outer loop
      vertex 184.538 21.7909 0
      vertex 184.651 21.3699 3
      vertex 184.651 21.3699 0
    endloop
  endfacet
  facet normal 0.99619 0.087204 0
    outer loop
      vertex 184.538 21.7909 3
      vertex 184.5 22.225 0
      vertex 184.5 22.225 3
    endloop
  endfacet
  facet normal 0.99619 0.087204 0
    outer loop
      vertex 184.5 22.225 0
      vertex 184.538 21.7909 3
      vertex 184.538 21.7909 0
    endloop
  endfacet
  facet normal -0.258805 -0.96593 0
    outer loop
      vertex 187.434 24.687 0
      vertex 187.855 24.5742 3
      vertex 187.434 24.687 3
    endloop
  endfacet
  facet normal -0.258805 -0.96593 -0
    outer loop
      vertex 187.855 24.5742 3
      vertex 187.434 24.687 0
      vertex 187.855 24.5742 0
    endloop
  endfacet
  facet normal 0.965799 -0.25929 0
    outer loop
      vertex 184.538 22.6591 3
      vertex 184.651 23.08 0
      vertex 184.651 23.08 3
    endloop
  endfacet
  facet normal 0.965799 -0.25929 0
    outer loop
      vertex 184.651 23.08 0
      vertex 184.538 22.6591 3
      vertex 184.538 22.6591 0
    endloop
  endfacet
  facet normal -0.258805 0.96593 0
    outer loop
      vertex 187.855 19.8758 0
      vertex 187.434 19.763 3
      vertex 187.855 19.8758 3
    endloop
  endfacet
  facet normal -0.258805 0.96593 0
    outer loop
      vertex 187.434 19.763 3
      vertex 187.855 19.8758 0
      vertex 187.434 19.763 0
    endloop
  endfacet
  facet normal 0.422446 0.906388 -0
    outer loop
      vertex 186.145 19.8758 0
      vertex 185.75 20.0599 3
      vertex 186.145 19.8758 3
    endloop
  endfacet
  facet normal 0.422446 0.906388 0
    outer loop
      vertex 185.75 20.0599 3
      vertex 186.145 19.8758 0
      vertex 185.75 20.0599 0
    endloop
  endfacet
  facet normal -0.707222 0.706992 0
    outer loop
      vertex 188.915 20.618 0
      vertex 188.607 20.3099 3
      vertex 188.915 20.618 3
    endloop
  endfacet
  facet normal -0.707222 0.706992 0
    outer loop
      vertex 188.607 20.3099 3
      vertex 188.915 20.618 0
      vertex 188.607 20.3099 0
    endloop
  endfacet
  facet normal -0.819124 0.573616 0
    outer loop
      vertex 188.915 20.618 0
      vertex 189.165 20.975 3
      vertex 189.165 20.975 0
    endloop
  endfacet
  facet normal -0.819124 0.573616 0
    outer loop
      vertex 189.165 20.975 3
      vertex 188.915 20.618 0
      vertex 188.915 20.618 3
    endloop
  endfacet
  facet normal -0.965815 0.259233 0
    outer loop
      vertex 189.349 21.3699 0
      vertex 189.462 21.7909 3
      vertex 189.462 21.7909 0
    endloop
  endfacet
  facet normal -0.965815 0.259233 0
    outer loop
      vertex 189.462 21.7909 3
      vertex 189.349 21.3699 0
      vertex 189.349 21.3699 3
    endloop
  endfacet
  facet normal -0.707222 -0.706992 0
    outer loop
      vertex 188.607 24.1401 0
      vertex 188.915 23.832 3
      vertex 188.607 24.1401 3
    endloop
  endfacet
  facet normal -0.707222 -0.706992 -0
    outer loop
      vertex 188.915 23.832 3
      vertex 188.607 24.1401 0
      vertex 188.915 23.832 0
    endloop
  endfacet
  facet normal 0.573616 0.819124 -0
    outer loop
      vertex 185.75 20.0599 0
      vertex 185.393 20.3099 3
      vertex 185.75 20.0599 3
    endloop
  endfacet
  facet normal 0.573616 0.819124 0
    outer loop
      vertex 185.393 20.3099 3
      vertex 185.75 20.0599 0
      vertex 185.393 20.3099 0
    endloop
  endfacet
  facet normal -0.0872239 0.996189 0
    outer loop
      vertex 187.434 19.763 0
      vertex 187 19.725 3
      vertex 187.434 19.763 3
    endloop
  endfacet
  facet normal -0.0872239 0.996189 0
    outer loop
      vertex 187 19.725 3
      vertex 187.434 19.763 0
      vertex 187 19.725 0
    endloop
  endfacet
  facet normal 0.0872239 -0.996189 0
    outer loop
      vertex 186.566 24.687 0
      vertex 187 24.725 3
      vertex 186.566 24.687 3
    endloop
  endfacet
  facet normal 0.0872239 -0.996189 0
    outer loop
      vertex 187 24.725 3
      vertex 186.566 24.687 0
      vertex 187 24.725 0
    endloop
  endfacet
  facet normal -0.819124 -0.573616 0
    outer loop
      vertex 189.165 23.475 0
      vertex 188.915 23.832 3
      vertex 188.915 23.832 0
    endloop
  endfacet
  facet normal -0.819124 -0.573616 0
    outer loop
      vertex 188.915 23.832 3
      vertex 189.165 23.475 0
      vertex 189.165 23.475 3
    endloop
  endfacet
  facet normal 0.422446 -0.906388 0
    outer loop
      vertex 185.75 24.3901 0
      vertex 186.145 24.5742 3
      vertex 185.75 24.3901 3
    endloop
  endfacet
  facet normal 0.422446 -0.906388 0
    outer loop
      vertex 186.145 24.5742 3
      vertex 185.75 24.3901 0
      vertex 186.145 24.5742 0
    endloop
  endfacet
  facet normal -0.573616 -0.819124 0
    outer loop
      vertex 188.25 24.3901 0
      vertex 188.607 24.1401 3
      vertex 188.25 24.3901 3
    endloop
  endfacet
  facet normal -0.573616 -0.819124 -0
    outer loop
      vertex 188.607 24.1401 3
      vertex 188.25 24.3901 0
      vertex 188.607 24.1401 0
    endloop
  endfacet
  facet normal -0.422446 -0.906388 0
    outer loop
      vertex 187.855 24.5742 0
      vertex 188.25 24.3901 3
      vertex 187.855 24.5742 3
    endloop
  endfacet
  facet normal -0.422446 -0.906388 -0
    outer loop
      vertex 188.25 24.3901 3
      vertex 187.855 24.5742 0
      vertex 188.25 24.3901 0
    endloop
  endfacet
  facet normal -0.0872239 -0.996189 0
    outer loop
      vertex 187 24.725 0
      vertex 187.434 24.687 3
      vertex 187 24.725 3
    endloop
  endfacet
  facet normal -0.0872239 -0.996189 -0
    outer loop
      vertex 187.434 24.687 3
      vertex 187 24.725 0
      vertex 187.434 24.687 0
    endloop
  endfacet
  facet normal 0.707222 -0.706992 0
    outer loop
      vertex 185.085 23.832 0
      vertex 185.393 24.1401 3
      vertex 185.085 23.832 3
    endloop
  endfacet
  facet normal 0.707222 -0.706992 0
    outer loop
      vertex 185.393 24.1401 3
      vertex 185.085 23.832 0
      vertex 185.393 24.1401 0
    endloop
  endfacet
  facet normal 0.258805 0.96593 -0
    outer loop
      vertex 186.566 19.763 0
      vertex 186.145 19.8758 3
      vertex 186.566 19.763 3
    endloop
  endfacet
  facet normal 0.258805 0.96593 0
    outer loop
      vertex 186.145 19.8758 3
      vertex 186.566 19.763 0
      vertex 186.145 19.8758 0
    endloop
  endfacet
  facet normal -0.906435 0.422345 0
    outer loop
      vertex 189.165 20.975 0
      vertex 189.349 21.3699 3
      vertex 189.349 21.3699 0
    endloop
  endfacet
  facet normal -0.906435 0.422345 0
    outer loop
      vertex 189.349 21.3699 3
      vertex 189.165 20.975 0
      vertex 189.165 20.975 3
    endloop
  endfacet
  facet normal 0.906435 0.422345 0
    outer loop
      vertex 184.835 20.975 3
      vertex 184.651 21.3699 0
      vertex 184.651 21.3699 3
    endloop
  endfacet
  facet normal 0.906435 0.422345 0
    outer loop
      vertex 184.651 21.3699 0
      vertex 184.835 20.975 3
      vertex 184.835 20.975 0
    endloop
  endfacet
  facet normal 0.0872239 0.996189 -0
    outer loop
      vertex 187 19.725 0
      vertex 186.566 19.763 3
      vertex 187 19.725 3
    endloop
  endfacet
  facet normal 0.0872239 0.996189 0
    outer loop
      vertex 186.566 19.763 3
      vertex 187 19.725 0
      vertex 186.566 19.763 0
    endloop
  endfacet
  facet normal 0.573616 -0.819124 0
    outer loop
      vertex 185.393 24.1401 0
      vertex 185.75 24.3901 3
      vertex 185.393 24.1401 3
    endloop
  endfacet
  facet normal 0.573616 -0.819124 0
    outer loop
      vertex 185.75 24.3901 3
      vertex 185.393 24.1401 0
      vertex 185.75 24.3901 0
    endloop
  endfacet
  facet normal 0.707222 0.706992 -0
    outer loop
      vertex 185.393 20.3099 0
      vertex 185.085 20.618 3
      vertex 185.393 20.3099 3
    endloop
  endfacet
  facet normal 0.707222 0.706992 0
    outer loop
      vertex 185.085 20.618 3
      vertex 185.393 20.3099 0
      vertex 185.085 20.618 0
    endloop
  endfacet
endsolid OpenSCAD_Model
