solid OpenSCAD_Model
  facet normal 1 -0 0
    outer loop
      vertex 5 3 10
      vertex 5 25 0
      vertex 5 25 10
    endloop
  endfacet
  facet normal 1 0 0
    outer loop
      vertex 5 25 0
      vertex 5 3 10
      vertex 5 3 0
    endloop
  endfacet
  facet normal 0 0 1
    outer loop
      vertex 10 30 10
      vertex 5 25 10
      vertex 10 25 10
    endloop
  endfacet
  facet normal 0 0 1
    outer loop
      vertex 0 0 10
      vertex 5 25 10
      vertex 0 30 10
    endloop
  endfacet
  facet normal -0 0 1
    outer loop
      vertex 0 30 10
      vertex 5 25 10
      vertex 10 30 10
    endloop
  endfacet
  facet normal -0 0 1
    outer loop
      vertex 5 3 10
      vertex 20 0 10
      vertex 20 3 10
    endloop
  endfacet
  facet normal 0 0 1
    outer loop
      vertex 5 3 10
      vertex 0 0 10
      vertex 20 0 10
    endloop
  endfacet
  facet normal 0 0 1
    outer loop
      vertex 5 25 10
      vertex 0 0 10
      vertex 5 3 10
    endloop
  endfacet
  facet normal 0 0 -1
    outer loop
      vertex 20 0 0
      vertex 5 3 0
      vertex 20 3 0
    endloop
  endfacet
  facet normal -0 0 -1
    outer loop
      vertex 5 3 0
      vertex 0 0 0
      vertex 5 25 0
    endloop
  endfacet
  facet normal 0 0 -1
    outer loop
      vertex 0 0 0
      vertex 5 3 0
      vertex 20 0 0
    endloop
  endfacet
  facet normal 0 0 -1
    outer loop
      vertex 5 25 0
      vertex 10 30 0
      vertex 10 25 0
    endloop
  endfacet
  facet normal 0 0 -1
    outer loop
      vertex 5 25 0
      vertex 0 30 0
      vertex 10 30 0
    endloop
  endfacet
  facet normal 0 0 -1
    outer loop
      vertex 0 30 0
      vertex 5 25 0
      vertex 0 0 0
    endloop
  endfacet
  facet normal -1 0 0
    outer loop
      vertex 0 0 0
      vertex 0 30 10
      vertex 0 30 0
    endloop
  endfacet
  facet normal -1 -0 0
    outer loop
      vertex 0 30 10
      vertex 0 0 0
      vertex 0 0 10
    endloop
  endfacet
  facet normal 0 1 -0
    outer loop
      vertex 10 30 0
      vertex 0 30 10
      vertex 10 30 10
    endloop
  endfacet
  facet normal 0 1 0
    outer loop
      vertex 0 30 10
      vertex 10 30 0
      vertex 0 30 0
    endloop
  endfacet
  facet normal 0 -1 0
    outer loop
      vertex 0 0 10
      vertex 14.555 0 6.94986
      vertex 20 0 10
    endloop
  endfacet
  facet normal 0 -1 0
    outer loop
      vertex 0 0 10
      vertex 13.1981 0 5.86777
      vertex 14.555 0 6.94986
    endloop
  endfacet
  facet normal 0 -1 0
    outer loop
      vertex 0 0 10
      vertex 13.1981 0 4.13223
      vertex 13.1981 0 5.86777
    endloop
  endfacet
  facet normal 0 -1 0
    outer loop
      vertex 0 0 0
      vertex 13.1981 0 4.13223
      vertex 0 0 10
    endloop
  endfacet
  facet normal 0 -1 -0
    outer loop
      vertex 13.1981 0 4.13223
      vertex 0 0 0
      vertex 14.555 0 3.05014
    endloop
  endfacet
  facet normal 0 -1 0
    outer loop
      vertex 16.247 0 6.56366
      vertex 20 0 10
      vertex 14.555 0 6.94986
    endloop
  endfacet
  facet normal 0 -1 0
    outer loop
      vertex 17 0 5
      vertex 20 0 10
      vertex 16.247 0 6.56366
    endloop
  endfacet
  facet normal 0 -1 0
    outer loop
      vertex 20 0 0
      vertex 17 0 5
      vertex 16.247 0 3.43634
    endloop
  endfacet
  facet normal 0 -1 0
    outer loop
      vertex 17 0 5
      vertex 20 0 0
      vertex 20 0 10
    endloop
  endfacet
  facet normal 0 -1 0
    outer loop
      vertex 14.555 0 3.05014
      vertex 20 0 0
      vertex 16.247 0 3.43634
    endloop
  endfacet
  facet normal 0 -1 0
    outer loop
      vertex 20 0 0
      vertex 14.555 0 3.05014
      vertex 0 0 0
    endloop
  endfacet
  facet normal 1 -0 0
    outer loop
      vertex 20 0 10
      vertex 20 3 0
      vertex 20 3 10
    endloop
  endfacet
  facet normal 1 0 0
    outer loop
      vertex 20 3 0
      vertex 20 0 10
      vertex 20 0 0
    endloop
  endfacet
  facet normal 0 1 0
    outer loop
      vertex 20 3 10
      vertex 14.555 3 6.94986
      vertex 5 3 10
    endloop
  endfacet
  facet normal 0 1 0
    outer loop
      vertex 20 3 10
      vertex 16.247 3 6.56366
      vertex 14.555 3 6.94986
    endloop
  endfacet
  facet normal 0 1 0
    outer loop
      vertex 20 3 10
      vertex 17 3 5
      vertex 16.247 3 6.56366
    endloop
  endfacet
  facet normal 0 1 -0
    outer loop
      vertex 20 3 0
      vertex 17 3 5
      vertex 20 3 10
    endloop
  endfacet
  facet normal 0 1 0
    outer loop
      vertex 16.247 3 3.43634
      vertex 20 3 0
      vertex 14.555 3 3.05014
    endloop
  endfacet
  facet normal 0 1 0
    outer loop
      vertex 17 3 5
      vertex 20 3 0
      vertex 16.247 3 3.43634
    endloop
  endfacet
  facet normal 0 1 -0
    outer loop
      vertex 13.1981 3 5.86777
      vertex 5 3 10
      vertex 14.555 3 6.94986
    endloop
  endfacet
  facet normal 0 1 -0
    outer loop
      vertex 13.1981 3 4.13223
      vertex 5 3 10
      vertex 13.1981 3 5.86777
    endloop
  endfacet
  facet normal 0 1 0
    outer loop
      vertex 5 3 0
      vertex 13.1981 3 4.13223
      vertex 14.555 3 3.05014
    endloop
  endfacet
  facet normal 0 1 0
    outer loop
      vertex 13.1981 3 4.13223
      vertex 5 3 0
      vertex 5 3 10
    endloop
  endfacet
  facet normal 0 1 0
    outer loop
      vertex 5 3 0
      vertex 14.555 3 3.05014
      vertex 20 3 0
    endloop
  endfacet
  facet normal 1 -0 0
    outer loop
      vertex 10 25 10
      vertex 10 30 0
      vertex 10 30 10
    endloop
  endfacet
  facet normal 1 0 0
    outer loop
      vertex 10 30 0
      vertex 10 25 10
      vertex 10 25 0
    endloop
  endfacet
  facet normal 0 -1 0
    outer loop
      vertex 5 25 0
      vertex 10 25 10
      vertex 5 25 10
    endloop
  endfacet
  facet normal 0 -1 -0
    outer loop
      vertex 10 25 10
      vertex 5 25 0
      vertex 10 25 0
    endloop
  endfacet
  facet normal -0.222528 0 -0.974926
    outer loop
      vertex 14.555 0 6.94986
      vertex 16.247 3 6.56366
      vertex 16.247 0 6.56366
    endloop
  endfacet
  facet normal -0.222528 0 -0.974926
    outer loop
      vertex 16.247 3 6.56366
      vertex 14.555 0 6.94986
      vertex 14.555 3 6.94986
    endloop
  endfacet
  facet normal -0.900973 0 -0.433875
    outer loop
      vertex 17 0 5
      vertex 16.247 3 6.56366
      vertex 17 3 5
    endloop
  endfacet
  facet normal -0.900973 -0 -0.433875
    outer loop
      vertex 16.247 3 6.56366
      vertex 17 0 5
      vertex 16.247 0 6.56366
    endloop
  endfacet
  facet normal -0.900973 0 0.433875
    outer loop
      vertex 16.247 0 3.43634
      vertex 17 3 5
      vertex 16.247 3 3.43634
    endloop
  endfacet
  facet normal -0.900973 0 0.433875
    outer loop
      vertex 17 3 5
      vertex 16.247 0 3.43634
      vertex 17 0 5
    endloop
  endfacet
  facet normal 0.623489 0 -0.781832
    outer loop
      vertex 13.1981 0 5.86777
      vertex 14.555 3 6.94986
      vertex 14.555 0 6.94986
    endloop
  endfacet
  facet normal 0.623489 0 -0.781832
    outer loop
      vertex 14.555 3 6.94986
      vertex 13.1981 0 5.86777
      vertex 13.1981 3 5.86777
    endloop
  endfacet
  facet normal 0.623489 0 0.781832
    outer loop
      vertex 13.1981 3 4.13223
      vertex 14.555 0 3.05014
      vertex 14.555 3 3.05014
    endloop
  endfacet
  facet normal 0.623489 0 0.781832
    outer loop
      vertex 14.555 0 3.05014
      vertex 13.1981 3 4.13223
      vertex 13.1981 0 4.13223
    endloop
  endfacet
  facet normal -0.222528 0 0.974926
    outer loop
      vertex 14.555 3 3.05014
      vertex 16.247 0 3.43634
      vertex 16.247 3 3.43634
    endloop
  endfacet
  facet normal -0.222528 0 0.974926
    outer loop
      vertex 16.247 0 3.43634
      vertex 14.555 3 3.05014
      vertex 14.555 0 3.05014
    endloop
  endfacet
  facet normal 1 -0 0
    outer loop
      vertex 13.1981 0 5.86777
      vertex 13.1981 3 4.13223
      vertex 13.1981 3 5.86777
    endloop
  endfacet
  facet normal 1 0 0
    outer loop
      vertex 13.1981 3 4.13223
      vertex 13.1981 0 5.86777
      vertex 13.1981 0 4.13223
    endloop
  endfacet
endsolid OpenSCAD_Model
