  0
SECTION
  2
HEADER
  9
$ACADVER
  1
AC1009
  9
$EXTMIN
 10
0.0
 20
0.0
 30
0.0
  9
$EXTMAX
 10
1000.0
 20
1000.0
 30
0.0
  9
$FILLMODE
 70
 0
  9
$SPLFRAME
 70
 1
  0
ENDSEC
  0
SECTION
  2
TABLES
  0
TABLE
  2
LAYER
 70
1
  0
LAYER
  2
0
 70
     0
 62
     7
  6
CONTINUOUS
  0
ENDTAB
  0
ENDSEC
  0
SECTION
  2
ENTITIES
  0
POLYLINE
  8
0
 62
     250
 66
     1
 10
0
 20
0
 30
0.0
 70
     1
 40
0
 41
0
  0
VERTEX
  8
0
 10
2.46582
 20
10.7591
 30
0.0
 40
0
 41
0
  0
VERTEX
  8
0
 10
2.45503
 20
10.759
 30
0.0
 40
0
 41
0
  0
VERTEX
  8
0
 10
2.40321
 20
10.7522
 30
0.0
 40
0
 41
0
  0
VERTEX
  8
0
 10
2.35406
 20
10.7374
 30
0.0
 40
0
 41
0
  0
VERTEX
  8
0
 10
2.34463
 20
10.7332
 30
0.0
 40
0
 41
0
  0
VERTEX
  8
0
 10
2.33649
 20
10.7297
 30
0.0
 40
0
 41
0
  0
VERTEX
  8
0
 10
2.31185
 20
10.7198
 30
0.0
 40
0
 41
0
  0
VERTEX
  8
0
 10
2.28624
 20
10.7145
 30
0.0
 40
0
 41
0
  0
VERTEX
  8
0
 10
2.25526
 20
10.7168
 30
0.0
 40
0
 41
0
  0
VERTEX
  8
0
 10
2.21853
 20
10.7236
 30
0.0
 40
0
 41
0
  0
VERTEX
  8
0
 10
2.20637
 20
10.726
 30
0.0
 40
0
 41
0
  0
VERTEX
  8
0
 10
2.18246
 20
10.7308
 30
0.0
 40
0
 41
0
  0
VERTEX
  8
0
 10
2.10981
 20
10.7408
 30
0.0
 40
0
 41
0
  0
VERTEX
  8
0
 10
2.03244
 20
10.7406
 30
0.0
 40
0
 41
0
  0
VERTEX
  8
0
 10
1.96565
 20
10.7243
 30
0.0
 40
0
 41
0
  0
VERTEX
  8
0
 10
1.91629
 20
10.7006
 30
0.0
 40
0
 41
0
  0
VERTEX
  8
0
 10
1.90104
 20
10.6909
 30
0.0
 40
0
 41
0
  0
VERTEX
  8
0
 10
1.8941
 20
10.6865
 30
0.0
 40
0
 41
0
  0
VERTEX
  8
0
 10
1.87256
 20
10.6745
 30
0.0
 40
0
 41
0
  0
VERTEX
  8
0
 10
1.84711
 20
10.665
 30
0.0
 40
0
 41
0
  0
VERTEX
  8
0
 10
1.81749
 20
10.6606
 30
0.0
 40
0
 41
0
  0
VERTEX
  8
0
 10
1.78668
 20
10.6595
 30
0.0
 40
0
 41
0
  0
VERTEX
  8
0
 10
1.77642
 20
10.6595
 30
0.0
 40
0
 41
0
  0
VERTEX
  8
0
 10
1.76069
 20
10.6595
 30
0.0
 40
0
 41
0
  0
VERTEX
  8
0
 10
1.71365
 20
10.6569
 30
0.0
 40
0
 41
0
  0
VERTEX
  8
0
 10
1.66308
 20
10.6477
 30
0.0
 40
0
 41
0
  0
VERTEX
  8
0
 10
1.61774
 20
10.63
 30
0.0
 40
0
 41
0
  0
VERTEX
  8
0
 10
1.58187
 20
10.6096
 30
0.0
 40
0
 41
0
  0
VERTEX
  8
0
 10
1.57053
 20
10.6019
 30
0.0
 40
0
 41
0
  0
VERTEX
  8
0
 10
1.56299
 20
10.5969
 30
0.0
 40
0
 41
0
  0
VERTEX
  8
0
 10
1.53965
 20
10.5826
 30
0.0
 40
0
 41
0
  0
VERTEX
  8
0
 10
1.514
 20
10.5717
 30
0.0
 40
0
 41
0
  0
VERTEX
  8
0
 10
1.48546
 20
10.5669
 30
0.0
 40
0
 41
0
  0
VERTEX
  8
0
 10
1.45578
 20
10.5658
 30
0.0
 40
0
 41
0
  0
VERTEX
  8
0
 10
1.4459
 20
10.5658
 30
0.0
 40
0
 41
0
  0
VERTEX
  8
0
 10
1.4184
 20
10.5658
 30
0.0
 40
0
 41
0
  0
VERTEX
  8
0
 10
1.33605
 20
10.5584
 30
0.0
 40
0
 41
0
  0
VERTEX
  8
0
 10
1.23991
 20
10.5365
 30
0.0
 40
0
 41
0
  0
VERTEX
  8
0
 10
1.15972
 20
10.5008
 30
0.0
 40
0
 41
0
  0
VERTEX
  8
0
 10
1.11117
 20
10.4663
 30
0.0
 40
0
 41
0
  0
VERTEX
  8
0
 10
1.09777
 20
10.4522
 30
0.0
 40
0
 41
0
  0
VERTEX
  8
0
 10
1.09337
 20
10.4475
 30
0.0
 40
0
 41
0
  0
VERTEX
  8
0
 10
1.07916
 20
10.4346
 30
0.0
 40
0
 41
0
  0
VERTEX
  8
0
 10
1.06103
 20
10.4249
 30
0.0
 40
0
 41
0
  0
VERTEX
  8
0
 10
1.03592
 20
10.4208
 30
0.0
 40
0
 41
0
  0
VERTEX
  8
0
 10
1.0064
 20
10.42
 30
0.0
 40
0
 41
0
  0
VERTEX
  8
0
 10
0.996582
 20
10.42
 30
0.0
 40
0
 41
0
  0
VERTEX
  8
0
 10
0.963542
 20
10.42
 30
0.0
 40
0
 41
0
  0
VERTEX
  8
0
 10
0.864475
 20
10.3956
 30
0.0
 40
0
 41
0
  0
VERTEX
  8
0
 10
0.759332
 20
10.328
 30
0.0
 40
0
 41
0
  0
VERTEX
  8
0
 10
0.689888
 20
10.2257
 30
0.0
 40
0
 41
0
  0
VERTEX
  8
0
 10
0.664822
 20
10.1292
 30
0.0
 40
0
 41
0
  0
VERTEX
  8
0
 10
0.664822
 20
10.0971
 30
0.0
 40
0
 41
0
  0
VERTEX
  8
0
 10
0.664822
 20
10.0828
 30
0.0
 40
0
 41
0
  0
VERTEX
  8
0
 10
0.669379
 20
10.0399
 30
0.0
 40
0
 41
0
  0
VERTEX
  8
0
 10
0.678276
 20
9.99567
 30
0.0
 40
0
 41
0
  0
VERTEX
  8
0
 10
0.680447
 20
9.98931
 30
0.0
 40
0
 41
0
  0
VERTEX
  8
0
 10
0.682671
 20
9.98264
 30
0.0
 40
0
 41
0
  0
VERTEX
  8
0
 10
0.688639
 20
9.96218
 30
0.0
 40
0
 41
0
  0
VERTEX
  8
0
 10
0.689942
 20
9.94125
 30
0.0
 40
0
 41
0
  0
VERTEX
  8
0
 10
0.683376
 20
9.91758
 30
0.0
 40
0
 41
0
  0
VERTEX
  8
0
 10
0.671821
 20
9.89094
 30
0.0
 40
0
 41
0
  0
VERTEX
  8
0
 10
0.667806
 20
9.88217
 30
0.0
 40
0
 41
0
  0
VERTEX
  8
0
 10
0.657118
 20
9.85906
 30
0.0
 40
0
 41
0
  0
VERTEX
  8
0
 10
0.638129
 20
9.74169
 30
0.0
 40
0
 41
0
  0
VERTEX
  8
0
 10
0.664985
 20
9.62001
 30
0.0
 40
0
 41
0
  0
VERTEX
  8
0
 10
0.677246
 20
9.59467
 30
0.0
 40
0
 41
0
  0
VERTEX
  8
0
 10
0.6824
 20
9.58399
 30
0.0
 40
0
 41
0
  0
VERTEX
  8
0
 10
0.697103
 20
9.55132
 30
0.0
 40
0
 41
0
  0
VERTEX
  8
0
 10
0.707519
 20
9.51915
 30
0.0
 40
0
 41
0
  0
VERTEX
  8
0
 10
0.710721
 20
9.48708
 30
0.0
 40
0
 41
0
  0
VERTEX
  8
0
 10
0.70969
 20
9.45497
 30
0.0
 40
0
 41
0
  0
VERTEX
  8
0
 10
0.709039
 20
9.44428
 30
0.0
 40
0
 41
0
  0
VERTEX
  8
0
 10
0.707954
 20
9.42796
 30
0.0
 40
0
 41
0
  0
VERTEX
  8
0
 10
0.709526
 20
9.37858
 30
0.0
 40
0
 41
0
  0
VERTEX
  8
0
 10
0.7213
 20
9.32004
 30
0.0
 40
0
 41
0
  0
VERTEX
  8
0
 10
0.745822
 20
9.26389
 30
0.0
 40
0
 41
0
  0
VERTEX
  8
0
 10
0.774089
 20
9.21912
 30
0.0
 40
0
 41
0
  0
VERTEX
  8
0
 10
0.784722
 20
9.20508
 30
0.0
 40
0
 41
0
  0
VERTEX
  8
0
 10
0.791287
 20
9.1964
 30
0.0
 40
0
 41
0
  0
VERTEX
  8
0
 10
0.810331
 20
9.1696
 30
0.0
 40
0
 41
0
  0
VERTEX
  8
0
 10
0.824164
 20
9.1429
 30
0.0
 40
0
 41
0
  0
VERTEX
  8
0
 10
0.829915
 20
9.1149
 30
0.0
 40
0
 41
0
  0
VERTEX
  8
0
 10
0.831108
 20
9.08535
 30
0.0
 40
0
 41
0
  0
VERTEX
  8
0
 10
0.831164
 20
9.07547
 30
0.0
 40
0
 41
0
  0
VERTEX
  8
0
 10
0.831218
 20
9.05865
 30
0.0
 40
0
 41
0
  0
VERTEX
  8
0
 10
0.836154
 20
9.00808
 30
0.0
 40
0
 41
0
  0
VERTEX
  8
0
 10
0.852051
 20
8.95057
 30
0.0
 40
0
 41
0
  0
VERTEX
  8
0
 10
0.880914
 20
8.89746
 30
0.0
 40
0
 41
0
  0
VERTEX
  8
0
 10
0.913194
 20
8.85618
 30
0.0
 40
0
 41
0
  0
VERTEX
  8
0
 10
0.925076
 20
8.84343
 30
0.0
 40
0
 41
0
  0
VERTEX
  8
0
 10
0.933322
 20
8.83464
 30
0.0
 40
0
 41
0
  0
VERTEX
  8
0
 10
0.957249
 20
8.80729
 30
0.0
 40
0
 41
0
  0
VERTEX
  8
0
 10
0.976833
 20
8.77919
 30
0.0
 40
0
 41
0
  0
VERTEX
  8
0
 10
0.988282
 20
8.75082
 30
0.0
 40
0
 41
0
  0
VERTEX
  8
0
 10
0.994575
 20
8.72319
 30
0.0
 40
0
 41
0
  0
VERTEX
  8
0
 10
0.996203
 20
8.71392
 30
0.0
 40
0
 41
0
  0
VERTEX
  8
0
 10
0.999729
 20
8.69362
 30
0.0
 40
0
 41
0
  0
VERTEX
  8
0
 10
1.0185
 20
8.63406
 30
0.0
 40
0
 41
0
  0
VERTEX
  8
0
 10
1.05903
 20
8.56332
 30
0.0
 40
0
 41
0
  0
VERTEX
  8
0
 10
1.12386
 20
8.49365
 30
0.0
 40
0
 41
0
  0
VERTEX
  8
0
 10
1.19455
 20
8.43494
 30
0.0
 40
0
 41
0
  0
VERTEX
  8
0
 10
1.21918
 20
8.41678
 30
0.0
 40
0
 41
0
  0
VERTEX
  8
0
 10
1.22602
 20
8.41174
 30
0.0
 40
0
 41
0
  0
VERTEX
  8
0
 10
1.25152
 20
8.3846
 30
0.0
 40
0
 41
0
  0
VERTEX
  8
0
 10
1.26742
 20
8.35206
 30
0.0
 40
0
 41
0
  0
VERTEX
  8
0
 10
1.26948
 20
8.34418
 30
0.0
 40
0
 41
0
  0
VERTEX
  8
0
 10
1.27458
 20
8.32476
 30
0.0
 40
0
 41
0
  0
VERTEX
  8
0
 10
1.29975
 20
8.26893
 30
0.0
 40
0
 41
0
  0
VERTEX
  8
0
 10
1.34956
 20
8.2029
 30
0.0
 40
0
 41
0
  0
VERTEX
  8
0
 10
1.42068
 20
8.14421
 30
0.0
 40
0
 41
0
  0
VERTEX
  8
0
 10
1.49072
 20
8.1026
 30
0.0
 40
0
 41
0
  0
VERTEX
  8
0
 10
1.51508
 20
8.09088
 30
0.0
 40
0
 41
0
  0
VERTEX
  8
0
 10
1.52479
 20
8.08621
 30
0.0
 40
0
 41
0
  0
VERTEX
  8
0
 10
1.55354
 20
8.07118
 30
0.0
 40
0
 41
0
  0
VERTEX
  8
0
 10
1.57949
 20
8.05447
 30
0.0
 40
0
 41
0
  0
VERTEX
  8
0
 10
1.59597
 20
8.03825
 30
0.0
 40
0
 41
0
  0
VERTEX
  8
0
 10
1.60439
 20
8.02479
 30
0.0
 40
0
 41
0
  0
VERTEX
  8
0
 10
1.60639
 20
8.01997
 30
0.0
 40
0
 41
0
  0
VERTEX
  8
0
 10
1.61068
 20
8.00971
 30
0.0
 40
0
 41
0
  0
VERTEX
  8
0
 10
1.62842
 20
7.98079
 30
0.0
 40
0
 41
0
  0
VERTEX
  8
0
 10
1.66064
 20
7.94189
 30
0.0
 40
0
 41
0
  0
VERTEX
  8
0
 10
1.70031
 20
7.90619
 30
0.0
 40
0
 41
0
  0
VERTEX
  8
0
 10
1.73324
 20
7.88286
 30
0.0
 40
0
 41
0
  0
VERTEX
  8
0
 10
1.7449
 20
7.87631
 30
0.0
 40
0
 41
0
  0
VERTEX
  8
0
 10
1.75028
 20
7.87326
 30
0.0
 40
0
 41
0
  0
VERTEX
  8
0
 10
1.76639
 20
7.86393
 30
0.0
 40
0
 41
0
  0
VERTEX
  8
0
 10
1.78396
 20
7.85331
 30
0.0
 40
0
 41
0
  0
VERTEX
  8
0
 10
1.79585
 20
7.8456
 30
0.0
 40
0
 41
0
  0
VERTEX
  8
0
 10
1.80024
 20
7.84283
 30
0.0
 40
0
 41
0
  0
VERTEX
  8
0
 10
1.80024
 20
7.84185
 30
0.0
 40
0
 41
0
  0
VERTEX
  8
0
 10
1.80024
 20
7.84028
 30
0.0
 40
0
 41
0
  0
VERTEX
  8
0
 10
1.79303
 20
7.83539
 30
0.0
 40
0
 41
0
  0
VERTEX
  8
0
 10
1.77339
 20
7.81999
 30
0.0
 40
0
 41
0
  0
VERTEX
  8
0
 10
1.74436
 20
7.79807
 30
0.0
 40
0
 41
0
  0
VERTEX
  8
0
 10
1.71778
 20
7.77838
 30
0.0
 40
0
 41
0
  0
VERTEX
  8
0
 10
1.70893
 20
7.77186
 30
0.0
 40
0
 41
0
  0
VERTEX
  8
0
 10
1.65147
 20
7.72988
 30
0.0
 40
0
 41
0
  0
VERTEX
  8
0
 10
1.49376
 20
7.58382
 30
0.0
 40
0
 41
0
  0
VERTEX
  8
0
 10
1.3144
 20
7.3629
 30
0.0
 40
0
 41
0
  0
VERTEX
  8
0
 10
1.17578
 20
7.11654
 30
0.0
 40
0
 41
0
  0
VERTEX
  8
0
 10
1.1001
 20
6.91992
 30
0.0
 40
0
 41
0
  0
VERTEX
  8
0
 10
1.08312
 20
6.85226
 30
0.0
 40
0
 41
0
  0
VERTEX
  8
0
 10
1.07693
 20
6.82781
 30
0.0
 40
0
 41
0
  0
VERTEX
  8
0
 10
1.06179
 20
6.75342
 30
0.0
 40
0
 41
0
  0
VERTEX
  8
0
 10
1.04476
 20
6.646
 30
0.0
 40
0
 41
0
  0
VERTEX
  8
0
 10
1.03331
 20
6.54081
 30
0.0
 40
0
 41
0
  0
VERTEX
  8
0
 10
1.02902
 20
6.47146
 30
0.0
 40
0
 41
0
  0
VERTEX
  8
0
 10
1.02897
 20
6.44835
 30
0.0
 40
0
 41
0
  0
VERTEX
  8
0
 10
1.02886
 20
6.42763
 30
0.0
 40
0
 41
0
  0
VERTEX
  8
0
 10
1.02289
 20
6.3654
 30
0.0
 40
0
 41
0
  0
VERTEX
  8
0
 10
1.00184
 20
6.30067
 30
0.0
 40
0
 41
0
  0
VERTEX
  8
0
 10
0.960178
 20
6.24317
 30
0.0
 40
0
 41
0
  0
VERTEX
  8
0
 10
0.910047
 20
6.19624
 30
0.0
 40
0
 41
0
  0
VERTEX
  8
0
 10
0.892307
 20
6.18192
 30
0.0
 40
0
 41
0
  0
VERTEX
  8
0
 10
0.840224
 20
6.14003
 30
0.0
 40
0
 41
0
  0
VERTEX
  8
0
 10
0.697971
 20
5.99696
 30
0.0
 40
0
 41
0
  0
VERTEX
  8
0
 10
0.538303
 20
5.78386
 30
0.0
 40
0
 41
0
  0
VERTEX
  8
0
 10
0.415799
 20
5.54671
 30
0.0
 40
0
 41
0
  0
VERTEX
  8
0
 10
0.348361
 20
5.35508
 30
0.0
 40
0
 41
0
  0
VERTEX
  8
0
 10
0.333062
 20
5.28956
 30
0.0
 40
0
 41
0
  0
VERTEX
  8
0
 10
0.32015
 20
5.23432
 30
0.0
 40
0
 41
0
  0
VERTEX
  8
0
 10
0.298882
 20
5.0644
 30
0.0
 40
0
 41
0
  0
VERTEX
  8
0
 10
0.29899
 20
4.83317
 30
0.0
 40
0
 41
0
  0
VERTEX
  8
0
 10
0.332954
 20
4.60124
 30
0.0
 40
0
 41
0
  0
VERTEX
  8
0
 10
0.379611
 20
4.42919
 30
0.0
 40
0
 41
0
  0
VERTEX
  8
0
 10
0.400444
 20
4.37386
 30
0.0
 40
0
 41
0
  0
VERTEX
  8
0
 10
0.411675
 20
4.34403
 30
0.0
 40
0
 41
0
  0
VERTEX
  8
0
 10
0.452311
 20
4.25689
 30
0.0
 40
0
 41
0
  0
VERTEX
  8
0
 10
0.520454
 20
4.13129
 30
0.0
 40
0
 41
0
  0
VERTEX
  8
0
 10
0.59375
 20
4.0159
 30
0.0
 40
0
 41
0
  0
VERTEX
  8
0
 10
0.642686
 20
3.94954
 30
0.0
 40
0
 41
0
  0
VERTEX
  8
0
 10
0.661296
 20
3.92947
 30
0.0
 40
0
 41
0
  0
VERTEX
  8
0
 10
0.665474
 20
3.92497
 30
0.0
 40
0
 41
0
  0
VERTEX
  8
0
 10
0.675022
 20
3.90842
 30
0.0
 40
0
 41
0
  0
VERTEX
  8
0
 10
0.689996
 20
3.87244
 30
0.0
 40
0
 41
0
  0
VERTEX
  8
0
 10
0.707086
 20
3.81896
 30
0.0
 40
0
 41
0
  0
VERTEX
  8
0
 10
0.722547
 20
3.76361
 30
0.0
 40
0
 41
0
  0
VERTEX
  8
0
 10
0.727376
 20
3.74507
 30
0.0
 40
0
 41
0
  0
VERTEX
  8
0
 10
0.735135
 20
3.71533
 30
0.0
 40
0
 41
0
  0
VERTEX
  8
0
 10
0.760906
 20
3.62668
 30
0.0
 40
0
 41
0
  0
VERTEX
  8
0
 10
0.801107
 20
3.50076
 30
0.0
 40
0
 41
0
  0
VERTEX
  8
0
 10
0.843533
 20
3.38037
 30
0.0
 40
0
 41
0
  0
VERTEX
  8
0
 10
0.873101
 20
3.30365
 30
0.0
 40
0
 41
0
  0
VERTEX
  8
0
 10
0.883897
 20
3.27849
 30
0.0
 40
0
 41
0
  0
VERTEX
  8
0
 10
0.886664
 20
3.27208
 30
0.0
 40
0
 41
0
  0
VERTEX
  8
0
 10
0.893608
 20
3.25217
 30
0.0
 40
0
 41
0
  0
VERTEX
  8
0
 10
0.903971
 20
3.21804
 30
0.0
 40
0
 41
0
  0
VERTEX
  8
0
 10
0.913629
 20
3.18056
 30
0.0
 40
0
 41
0
  0
VERTEX
  8
0
 10
0.91976
 20
3.15326
 30
0.0
 40
0
 41
0
  0
VERTEX
  8
0
 10
0.921496
 20
3.1441
 30
0.0
 40
0
 41
0
  0
VERTEX
  8
0
 10
0.932508
 20
3.08567
 30
0.0
 40
0
 41
0
  0
VERTEX
  8
0
 10
0.979926
 20
2.91288
 30
0.0
 40
0
 41
0
  0
VERTEX
  8
0
 10
1.06532
 20
2.69874
 30
0.0
 40
0
 41
0
  0
VERTEX
  8
0
 10
1.17898
 20
2.49892
 30
0.0
 40
0
 41
0
  0
VERTEX
  8
0
 10
1.28364
 20
2.35531
 30
0.0
 40
0
 41
0
  0
VERTEX
  8
0
 10
1.32227
 20
2.3106
 30
0.0
 40
0
 41
0
  0
VERTEX
  8
0
 10
1.35948
 20
2.26753
 30
0.0
 40
0
 41
0
  0
VERTEX
  8
0
 10
1.56933
 20
2.07769
 30
0.0
 40
0
 41
0
  0
VERTEX
  8
0
 10
1.81
 20
1.92264
 30
0.0
 40
0
 41
0
  0
VERTEX
  8
0
 10
1.86274
 20
1.89686
 30
0.0
 40
0
 41
0
  0
VERTEX
  8
0
 10
1.87625
 20
1.89025
 30
0.0
 40
0
 41
0
  0
VERTEX
  8
0
 10
1.91656
 20
1.86963
 30
0.0
 40
0
 41
0
  0
VERTEX
  8
0
 10
1.9669
 20
1.84233
 30
0.0
 40
0
 41
0
  0
VERTEX
  8
0
 10
2.00814
 20
1.81825
 30
0.0
 40
0
 41
0
  0
VERTEX
  8
0
 10
2.02886
 20
1.80501
 30
0.0
 40
0
 41
0
  0
VERTEX
  8
0
 10
2.03461
 20
1.80051
 30
0.0
 40
0
 41
0
  0
VERTEX
  8
0
 10
2.0734
 20
1.77001
 30
0.0
 40
0
 41
0
  0
VERTEX
  8
0
 10
2.19493
 20
1.685
 30
0.0
 40
0
 41
0
  0
VERTEX
  8
0
 10
2.37864
 20
1.57069
 30
0.0
 40
0
 41
0
  0
VERTEX
  8
0
 10
2.57568
 20
1.46343
 30
0.0
 40
0
 41
0
  0
VERTEX
  8
0
 10
2.72526
 20
1.391
 30
0.0
 40
0
 41
0
  0
VERTEX
  8
0
 10
2.7761
 20
1.36898
 30
0.0
 40
0
 41
0
  0
VERTEX
  8
0
 10
2.79053
 20
1.36274
 30
0.0
 40
0
 41
0
  0
VERTEX
  8
0
 10
2.83404
 20
1.34429
 30
0.0
 40
0
 41
0
  0
VERTEX
  8
0
 10
2.88336
 20
1.32411
 30
0.0
 40
0
 41
0
  0
VERTEX
  8
0
 10
2.91872
 20
1.31044
 30
0.0
 40
0
 41
0
  0
VERTEX
  8
0
 10
2.93099
 20
1.30539
 30
0.0
 40
0
 41
0
  0
VERTEX
  8
0
 10
2.93511
 20
1.30539
 30
0.0
 40
0
 41
0
  0
VERTEX
  8
0
 10
2.93787
 20
1.30539
 30
0.0
 40
0
 41
0
  0
VERTEX
  8
0
 10
2.94618
 20
1.29915
 30
0.0
 40
0
 41
0
  0
VERTEX
  8
0
 10
2.96729
 20
1.28201
 30
0.0
 40
0
 41
0
  0
VERTEX
  8
0
 10
2.99539
 20
1.25673
 30
0.0
 40
0
 41
0
  0
VERTEX
  8
0
 10
3.01953
 20
1.23362
 30
0.0
 40
0
 41
0
  0
VERTEX
  8
0
 10
3.02746
 20
1.22575
 30
0.0
 40
0
 41
0
  0
VERTEX
  8
0
 10
3.04622
 20
1.20709
 30
0.0
 40
0
 41
0
  0
VERTEX
  8
0
 10
3.10568
 20
1.15413
 30
0.0
 40
0
 41
0
  0
VERTEX
  8
0
 10
3.19851
 20
1.07878
 30
0.0
 40
0
 41
0
  0
VERTEX
  8
0
 10
3.29454
 20
1.00841
 30
0.0
 40
0
 41
0
  0
VERTEX
  8
0
 10
3.35992
 20
0.965007
 30
0.0
 40
0
 41
0
  0
VERTEX
  8
0
 10
3.38249
 20
0.951824
 30
0.0
 40
0
 41
0
  0
VERTEX
  8
0
 10
3.42144
 20
0.92909
 30
0.0
 40
0
 41
0
  0
VERTEX
  8
0
 10
3.54443
 20
0.870985
 30
0.0
 40
0
 41
0
  0
VERTEX
  8
0
 10
3.72521
 20
0.804525
 30
0.0
 40
0
 41
0
  0
VERTEX
  8
0
 10
3.91325
 20
0.756022
 30
0.0
 40
0
 41
0
  0
VERTEX
  8
0
 10
4.05089
 20
0.732964
 30
0.0
 40
0
 41
0
  0
VERTEX
  8
0
 10
4.09711
 20
0.729058
 30
0.0
 40
0
 41
0
  0
VERTEX
  8
0
 10
4.12631
 20
0.726617
 30
0.0
 40
0
 41
0
  0
VERTEX
  8
0
 10
4.21446
 20
0.725097
 30
0.0
 40
0
 41
0
  0
VERTEX
  8
0
 10
4.34517
 20
0.73036
 30
0.0
 40
0
 41
0
  0
VERTEX
  8
0
 10
4.47542
 20
0.743869
 30
0.0
 40
0
 41
0
  0
VERTEX
  8
0
 10
4.56288
 20
0.758083
 30
0.0
 40
0
 41
0
  0
VERTEX
  8
0
 10
4.59158
 20
0.764649
 30
0.0
 40
0
 41
0
  0
VERTEX
  8
0
 10
4.64876
 20
0.777832
 30
0.0
 40
0
 41
0
  0
VERTEX
  8
0
 10
4.81694
 20
0.832519
 30
0.0
 40
0
 41
0
  0
VERTEX
  8
0
 10
5.02707
 20
0.928874
 30
0.0
 40
0
 41
0
  0
VERTEX
  8
0
 10
5.22293
 20
1.05431
 30
0.0
 40
0
 41
0
  0
VERTEX
  8
0
 10
5.36268
 20
1.16797
 30
0.0
 40
0
 41
0
  0
VERTEX
  8
0
 10
5.40576
 20
1.20947
 30
0.0
 40
0
 41
0
  0
VERTEX
  8
0
 10
5.41504
 20
1.21848
 30
0.0
 40
0
 41
0
  0
VERTEX
  8
0
 10
5.44314
 20
1.24523
 30
0.0
 40
0
 41
0
  0
VERTEX
  8
0
 10
5.47396
 20
1.27382
 30
0.0
 40
0
 41
0
  0
VERTEX
  8
0
 10
5.49994
 20
1.2965
 30
0.0
 40
0
 41
0
  0
VERTEX
  8
0
 10
5.523
 20
1.31462
 30
0.0
 40
0
 41
0
  0
VERTEX
  8
0
 10
5.54476
 20
1.32943
 30
0.0
 40
0
 41
0
  0
VERTEX
  8
0
 10
5.56706
 20
1.34228
 30
0.0
 40
0
 41
0
  0
VERTEX
  8
0
 10
5.59169
 20
1.35449
 30
0.0
 40
0
 41
0
  0
VERTEX
  8
0
 10
5.61317
 20
1.3642
 30
0.0
 40
0
 41
0
  0
VERTEX
  8
0
 10
5.62039
 20
1.3673
 30
0.0
 40
0
 41
0
  0
VERTEX
  8
0
 10
5.67583
 20
1.39139
 30
0.0
 40
0
 41
0
  0
VERTEX
  8
0
 10
5.95031
 20
1.53088
 30
0.0
 40
0
 41
0
  0
VERTEX
  8
0
 10
6.21169
 20
1.69092
 30
0.0
 40
0
 41
0
  0
VERTEX
  8
0
 10
6.26069
 20
1.72521
 30
0.0
 40
0
 41
0
  0
VERTEX
  8
0
 10
6.27235
 20
1.73346
 30
0.0
 40
0
 41
0
  0
VERTEX
  8
0
 10
6.30826
 20
1.75706
 30
0.0
 40
0
 41
0
  0
VERTEX
  8
0
 10
6.35558
 20
1.78581
 30
0.0
 40
0
 41
0
  0
VERTEX
  8
0
 10
6.39708
 20
1.80838
 30
0.0
 40
0
 41
0
  0
VERTEX
  8
0
 10
6.41976
 20
1.81907
 30
0.0
 40
0
 41
0
  0
VERTEX
  8
0
 10
6.42736
 20
1.82156
 30
0.0
 40
0
 41
0
  0
VERTEX
  8
0
 10
6.49501
 20
1.84386
 30
0.0
 40
0
 41
0
  0
VERTEX
  8
0
 10
6.68951
 20
1.93668
 30
0.0
 40
0
 41
0
  0
VERTEX
  8
0
 10
6.93494
 20
2.10026
 30
0.0
 40
0
 41
0
  0
VERTEX
  8
0
 10
7.15181
 20
2.30285
 30
0.0
 40
0
 41
0
  0
VERTEX
  8
0
 10
7.28976
 20
2.47342
 30
0.0
 40
0
 41
0
  0
VERTEX
  8
0
 10
7.32824
 20
2.535
 30
0.0
 40
0
 41
0
  0
VERTEX
  8
0
 10
7.35883
 20
2.5841
 30
0.0
 40
0
 41
0
  0
VERTEX
  8
0
 10
7.43647
 20
2.74024
 30
0.0
 40
0
 41
0
  0
VERTEX
  8
0
 10
7.51964
 20
2.96343
 30
0.0
 40
0
 41
0
  0
VERTEX
  8
0
 10
7.57303
 20
3.18896
 30
0.0
 40
0
 41
0
  0
VERTEX
  8
0
 10
7.5919
 20
3.34825
 30
0.0
 40
0
 41
0
  0
VERTEX
  8
0
 10
7.5919
 20
3.40132
 30
0.0
 40
0
 41
0
  0
VERTEX
  8
0
 10
7.5919
 20
3.41146
 30
0.0
 40
0
 41
0
  0
VERTEX
  8
0
 10
7.59397
 20
3.44189
 30
0.0
 40
0
 41
0
  0
VERTEX
  8
0
 10
7.60075
 20
3.48639
 30
0.0
 40
0
 41
0
  0
VERTEX
  8
0
 10
7.61317
 20
3.53933
 30
0.0
 40
0
 41
0
  0
VERTEX
  8
0
 10
7.62717
 20
3.58897
 30
0.0
 40
0
 41
0
  0
VERTEX
  8
0
 10
7.63222
 20
3.60536
 30
0.0
 40
0
 41
0
  0
VERTEX
  8
0
 10
7.63775
 20
3.62358
 30
0.0
 40
0
 41
0
  0
VERTEX
  8
0
 10
7.66775
 20
3.72944
 30
0.0
 40
0
 41
0
  0
VERTEX
  8
0
 10
7.69325
 20
3.82753
 30
0.0
 40
0
 41
0
  0
VERTEX
  8
0
 10
7.69656
 20
3.84185
 30
0.0
 40
0
 41
0
  0
VERTEX
  8
0
 10
7.69971
 20
3.85553
 30
0.0
 40
0
 41
0
  0
VERTEX
  8
0
 10
7.71024
 20
3.89621
 30
0.0
 40
0
 41
0
  0
VERTEX
  8
0
 10
7.72379
 20
3.93599
 30
0.0
 40
0
 41
0
  0
VERTEX
  8
0
 10
7.73981
 20
3.96772
 30
0.0
 40
0
 41
0
  0
VERTEX
  8
0
 10
7.75543
 20
3.99083
 30
0.0
 40
0
 41
0
  0
VERTEX
  8
0
 10
7.76113
 20
3.9981
 30
0.0
 40
0
 41
0
  0
VERTEX
  8
0
 10
7.78939
 20
4.0345
 30
0.0
 40
0
 41
0
  0
VERTEX
  8
0
 10
7.86589
 20
4.15012
 30
0.0
 40
0
 41
0
  0
VERTEX
  8
0
 10
7.9541
 20
4.31407
 30
0.0
 40
0
 41
0
  0
VERTEX
  8
0
 10
8.02365
 20
4.48557
 30
0.0
 40
0
 41
0
  0
VERTEX
  8
0
 10
8.06287
 20
4.61583
 30
0.0
 40
0
 41
0
  0
VERTEX
  8
0
 10
8.07243
 20
4.66
 30
0.0
 40
0
 41
0
  0
VERTEX
  8
0
 10
8.07969
 20
4.69379
 30
0.0
 40
0
 41
0
  0
VERTEX
  8
0
 10
8.09088
 20
4.79736
 30
0.0
 40
0
 41
0
  0
VERTEX
  8
0
 10
8.09804
 20
4.96647
 30
0.0
 40
0
 41
0
  0
VERTEX
  8
0
 10
8.09364
 20
5.13721
 30
0.0
 40
0
 41
0
  0
VERTEX
  8
0
 10
8.0841
 20
5.24431
 30
0.0
 40
0
 41
0
  0
VERTEX
  8
0
 10
8.07753
 20
5.27935
 30
0.0
 40
0
 41
0
  0
VERTEX
  8
0
 10
8.06814
 20
5.32926
 30
0.0
 40
0
 41
0
  0
VERTEX
  8
0
 10
7.98867
 20
5.57482
 30
0.0
 40
0
 41
0
  0
VERTEX
  8
0
 10
7.86572
 20
5.81532
 30
0.0
 40
0
 41
0
  0
VERTEX
  8
0
 10
7.83458
 20
5.86268
 30
0.0
 40
0
 41
0
  0
VERTEX
  8
0
 10
7.82661
 20
5.87483
 30
0.0
 40
0
 41
0
  0
VERTEX
  8
0
 10
7.80051
 20
5.90989
 30
0.0
 40
0
 41
0
  0
VERTEX
  8
0
 10
7.75624
 20
5.96436
 30
0.0
 40
0
 41
0
  0
VERTEX
  8
0
 10
7.70497
 20
6.02279
 30
0.0
 40
0
 41
0
  0
VERTEX
  8
0
 10
7.64996
 20
6.08182
 30
0.0
 40
0
 41
0
  0
VERTEX
  8
0
 10
7.59429
 20
6.13813
 30
0.0
 40
0
 41
0
  0
VERTEX
  8
0
 10
7.54124
 20
6.18837
 30
0.0
 40
0
 41
0
  0
VERTEX
  8
0
 10
7.49397
 20
6.22922
 30
0.0
 40
0
 41
0
  0
VERTEX
  8
0
 10
7.46571
 20
6.25108
 30
0.0
 40
0
 41
0
  0
VERTEX
  8
0
 10
7.45574
 20
6.25738
 30
0.0
 40
0
 41
0
  0
VERTEX
  8
0
 10
7.44288
 20
6.26551
 30
0.0
 40
0
 41
0
  0
VERTEX
  8
0
 10
7.40847
 20
6.2965
 30
0.0
 40
0
 41
0
  0
VERTEX
  8
0
 10
7.37636
 20
6.34722
 30
0.0
 40
0
 41
0
  0
VERTEX
  8
0
 10
7.35678
 20
6.4159
 30
0.0
 40
0
 41
0
  0
VERTEX
  8
0
 10
7.34825
 20
6.48535
 30
0.0
 40
0
 41
0
  0
VERTEX
  8
0
 10
7.347
 20
6.50851
 30
0.0
 40
0
 41
0
  0
VERTEX
  8
0
 10
7.34347
 20
6.57389
 30
0.0
 40
0
 41
0
  0
VERTEX
  8
0
 10
7.31287
 20
6.76882
 30
0.0
 40
0
 41
0
  0
VERTEX
  8
0
 10
7.2405
 20
7.01844
 30
0.0
 40
0
 41
0
  0
VERTEX
  8
0
 10
7.13167
 20
7.25217
 30
0.0
 40
0
 41
0
  0
VERTEX
  8
0
 10
7.02832
 20
7.41487
 30
0.0
 40
0
 41
0
  0
VERTEX
  8
0
 10
6.9885
 20
7.46479
 30
0.0
 40
0
 41
0
  0
VERTEX
  8
0
 10
6.97179
 20
7.48574
 30
0.0
 40
0
 41
0
  0
VERTEX
  8
0
 10
6.91754
 20
7.54519
 30
0.0
 40
0
 41
0
  0
VERTEX
  8
0
 10
6.82872
 20
7.63444
 30
0.0
 40
0
 41
0
  0
VERTEX
  8
0
 10
6.73986
 20
7.71544
 30
0.0
 40
0
 41
0
  0
VERTEX
  8
0
 10
6.68744
 20
7.75874
 30
0.0
 40
0
 41
0
  0
VERTEX
  8
0
 10
6.66872
 20
7.77115
 30
0.0
 40
0
 41
0
  0
VERTEX
  8
0
 10
6.66325
 20
7.77479
 30
0.0
 40
0
 41
0
  0
VERTEX
  8
0
 10
6.64729
 20
7.7864
 30
0.0
 40
0
 41
0
  0
VERTEX
  8
0
 10
6.63103
 20
7.79997
 30
0.0
 40
0
 41
0
  0
VERTEX
  8
0
 10
6.62142
 20
7.81044
 30
0.0
 40
0
 41
0
  0
VERTEX
  8
0
 10
6.61957
 20
7.81581
 30
0.0
 40
0
 41
0
  0
VERTEX
  8
0
 10
6.62017
 20
7.81629
 30
0.0
 40
0
 41
0
  0
VERTEX
  8
0
 10
6.62125
 20
7.81733
 30
0.0
 40
0
 41
0
  0
VERTEX
  8
0
 10
6.63818
 20
7.82542
 30
0.0
 40
0
 41
0
  0
VERTEX
  8
0
 10
6.66428
 20
7.83501
 30
0.0
 40
0
 41
0
  0
VERTEX
  8
0
 10
6.67003
 20
7.83681
 30
0.0
 40
0
 41
0
  0
VERTEX
  8
0
 10
6.68967
 20
7.84299
 30
0.0
 40
0
 41
0
  0
VERTEX
  8
0
 10
6.74653
 20
7.86817
 30
0.0
 40
0
 41
0
  0
VERTEX
  8
0
 10
6.81174
 20
7.90994
 30
0.0
 40
0
 41
0
  0
VERTEX
  8
0
 10
6.86399
 20
7.96083
 30
0.0
 40
0
 41
0
  0
VERTEX
  8
0
 10
6.8941
 20
8.0039
 30
0.0
 40
0
 41
0
  0
VERTEX
  8
0
 10
6.90153
 20
8.01947
 30
0.0
 40
0
 41
0
  0
VERTEX
  8
0
 10
6.90397
 20
8.02468
 30
0.0
 40
0
 41
0
  0
VERTEX
  8
0
 10
6.91363
 20
8.03911
 30
0.0
 40
0
 41
0
  0
VERTEX
  8
0
 10
6.93197
 20
8.05647
 30
0.0
 40
0
 41
0
  0
VERTEX
  8
0
 10
6.96039
 20
8.07454
 30
0.0
 40
0
 41
0
  0
VERTEX
  8
0
 10
6.99203
 20
8.09104
 30
0.0
 40
0
 41
0
  0
VERTEX
  8
0
 10
7.00276
 20
8.09619
 30
0.0
 40
0
 41
0
  0
VERTEX
  8
0
 10
7.02636
 20
8.10764
 30
0.0
 40
0
 41
0
  0
VERTEX
  8
0
 10
7.09358
 20
8.14936
 30
0.0
 40
0
 41
0
  0
VERTEX
  8
0
 10
7.16461
 20
8.21083
 30
0.0
 40
0
 41
0
  0
VERTEX
  8
0
 10
7.21457
 20
8.27924
 30
0.0
 40
0
 41
0
  0
VERTEX
  8
0
 10
7.23822
 20
8.33415
 30
0.0
 40
0
 41
0
  0
VERTEX
  8
0
 10
7.24229
 20
8.35325
 30
0.0
 40
0
 41
0
  0
VERTEX
  8
0
 10
7.24328
 20
8.35812
 30
0.0
 40
0
 41
0
  0
VERTEX
  8
0
 10
7.24983
 20
8.37201
 30
0.0
 40
0
 41
0
  0
VERTEX
  8
0
 10
7.26639
 20
8.39328
 30
0.0
 40
0
 41
0
  0
VERTEX
  8
0
 10
7.29428
 20
8.41971
 30
0.0
 40
0
 41
0
  0
VERTEX
  8
0
 10
7.32531
 20
8.44542
 30
0.0
 40
0
 41
0
  0
VERTEX
  8
0
 10
7.33589
 20
8.45372
 30
0.0
 40
0
 41
0
  0
VERTEX
  8
0
 10
7.35562
 20
8.46929
 30
0.0
 40
0
 41
0
  0
VERTEX
  8
0
 10
7.41189
 20
8.51997
 30
0.0
 40
0
 41
0
  0
VERTEX
  8
0
 10
7.46317
 20
8.58242
 30
0.0
 40
0
 41
0
  0
VERTEX
  8
0
 10
7.49533
 20
8.65022
 30
0.0
 40
0
 41
0
  0
VERTEX
  8
0
 10
7.51113
 20
8.71169
 30
0.0
 40
0
 41
0
  0
VERTEX
  8
0
 10
7.51432
 20
8.73247
 30
0.0
 40
0
 41
0
  0
VERTEX
  8
0
 10
7.51531
 20
8.7391
 30
0.0
 40
0
 41
0
  0
VERTEX
  8
0
 10
7.52046
 20
8.75851
 30
0.0
 40
0
 41
0
  0
VERTEX
  8
0
 10
7.53201
 20
8.78276
 30
0.0
 40
0
 41
0
  0
VERTEX
  8
0
 10
7.55143
 20
8.80968
 30
0.0
 40
0
 41
0
  0
VERTEX
  8
0
 10
7.57374
 20
8.83518
 30
0.0
 40
0
 41
0
  0
VERTEX
  8
0
 10
7.58143
 20
8.84343
 30
0.0
 40
0
 41
0
  0
VERTEX
  8
0
 10
7.59326
 20
8.85612
 30
0.0
 40
0
 41
0
  0
VERTEX
  8
0
 10
7.62554
 20
8.89735
 30
0.0
 40
0
 41
0
  0
VERTEX
  8
0
 10
7.65451
 20
8.95025
 30
0.0
 40
0
 41
0
  0
VERTEX
  8
0
 10
7.67036
 20
9.00726
 30
0.0
 40
0
 41
0
  0
VERTEX
  8
0
 10
7.67524
 20
9.05686
 30
0.0
 40
0
 41
0
  0
VERTEX
  8
0
 10
7.67524
 20
9.07335
 30
0.0
 40
0
 41
0
  0
VERTEX
  8
0
 10
7.67524
 20
9.08279
 30
0.0
 40
0
 41
0
  0
VERTEX
  8
0
 10
7.67632
 20
9.11094
 30
0.0
 40
0
 41
0
  0
VERTEX
  8
0
 10
7.68158
 20
9.13786
 30
0.0
 40
0
 41
0
  0
VERTEX
  8
0
 10
7.69396
 20
9.16276
 30
0.0
 40
0
 41
0
  0
VERTEX
  8
0
 10
7.71067
 20
9.18664
 30
0.0
 40
0
 41
0
  0
VERTEX
  8
0
 10
7.71653
 20
9.19433
 30
0.0
 40
0
 41
0
  0
VERTEX
  8
0
 10
7.72781
 20
9.20931
 30
0.0
 40
0
 41
0
  0
VERTEX
  8
0
 10
7.75885
 20
9.25635
 30
0.0
 40
0
 41
0
  0
VERTEX
  8
0
 10
7.78472
 20
9.31158
 30
0.0
 40
0
 41
0
  0
VERTEX
  8
0
 10
7.79719
 20
9.36931
 30
0.0
 40
0
 41
0
  0
VERTEX
  8
0
 10
7.79986
 20
9.42139
 30
0.0
 40
0
 41
0
  0
VERTEX
  8
0
 10
7.79949
 20
9.43869
 30
0.0
 40
0
 41
0
  0
VERTEX
  8
0
 10
7.79915
 20
9.45139
 30
0.0
 40
0
 41
0
  0
VERTEX
  8
0
 10
7.79926
 20
9.48942
 30
0.0
 40
0
 41
0
  0
VERTEX
  8
0
 10
7.80279
 20
9.52539
 30
0.0
 40
0
 41
0
  0
VERTEX
  8
0
 10
7.81213
 20
9.55718
 30
0.0
 40
0
 41
0
  0
VERTEX
  8
0
 10
7.82465
 20
9.58589
 30
0.0
 40
0
 41
0
  0
VERTEX
  8
0
 10
7.82921
 20
9.59526
 30
0.0
 40
0
 41
0
  0
VERTEX
  8
0
 10
7.83968
 20
9.61703
 30
0.0
 40
0
 41
0
  0
VERTEX
  8
0
 10
7.86729
 20
9.71283
 30
0.0
 40
0
 41
0
  0
VERTEX
  8
0
 10
7.86367
 20
9.80528
 30
0.0
 40
0
 41
0
  0
VERTEX
  8
0
 10
7.85856
 20
9.82536
 30
0.0
 40
0
 41
0
  0
VERTEX
  8
0
 10
7.85628
 20
9.8341
 30
0.0
 40
0
 41
0
  0
VERTEX
  8
0
 10
7.84207
 20
9.87787
 30
0.0
 40
0
 41
0
  0
VERTEX
  8
0
 10
7.82764
 20
9.91124
 30
0.0
 40
0
 41
0
  0
VERTEX
  8
0
 10
7.82531
 20
9.91476
 30
0.0
 40
0
 41
0
  0
VERTEX
  8
0
 10
7.82286
 20
9.91846
 30
0.0
 40
0
 41
0
  0
VERTEX
  8
0
 10
7.81646
 20
9.93001
 30
0.0
 40
0
 41
0
  0
VERTEX
  8
0
 10
7.81353
 20
9.94319
 30
0.0
 40
0
 41
0
  0
VERTEX
  8
0
 10
7.81635
 20
9.95915
 30
0.0
 40
0
 41
0
  0
VERTEX
  8
0
 10
7.82275
 20
9.97683
 30
0.0
 40
0
 41
0
  0
VERTEX
  8
0
 10
7.82508
 20
9.98264
 30
0.0
 40
0
 41
0
  0
VERTEX
  8
0
 10
7.82758
 20
9.98893
 30
0.0
 40
0
 41
0
  0
VERTEX
  8
0
 10
7.83724
 20
10.034
 30
0.0
 40
0
 41
0
  0
VERTEX
  8
0
 10
7.8419
 20
10.0842
 30
0.0
 40
0
 41
0
  0
VERTEX
  8
0
 10
7.8419
 20
10.1009
 30
0.0
 40
0
 41
0
  0
VERTEX
  8
0
 10
7.8419
 20
10.1112
 30
0.0
 40
0
 41
0
  0
VERTEX
  8
0
 10
7.84065
 20
10.1423
 30
0.0
 40
0
 41
0
  0
VERTEX
  8
0
 10
7.83604
 20
10.1747
 30
0.0
 40
0
 41
0
  0
VERTEX
  8
0
 10
7.82633
 20
10.2052
 30
0.0
 40
0
 41
0
  0
VERTEX
  8
0
 10
7.81451
 20
10.2319
 30
0.0
 40
0
 41
0
  0
VERTEX
  8
0
 10
7.81017
 20
10.2406
 30
0.0
 40
0
 41
0
  0
VERTEX
  8
0
 10
7.80013
 20
10.2606
 30
0.0
 40
0
 41
0
  0
VERTEX
  8
0
 10
7.76113
 20
10.3161
 30
0.0
 40
0
 41
0
  0
VERTEX
  8
0
 10
7.69949
 20
10.37
 30
0.0
 40
0
 41
0
  0
VERTEX
  8
0
 10
7.62294
 20
10.4034
 30
0.0
 40
0
 41
0
  0
VERTEX
  8
0
 10
7.5529
 20
10.4167
 30
0.0
 40
0
 41
0
  0
VERTEX
  8
0
 10
7.5294
 20
10.4179
 30
0.0
 40
0
 41
0
  0
VERTEX
  8
0
 10
7.51671
 20
10.4186
 30
0.0
 40
0
 41
0
  0
VERTEX
  8
0
 10
7.47868
 20
10.4214
 30
0.0
 40
0
 41
0
  0
VERTEX
  8
0
 10
7.44715
 20
10.4275
 30
0.0
 40
0
 41
0
  0
VERTEX
  8
0
 10
7.42383
 20
10.4398
 30
0.0
 40
0
 41
0
  0
VERTEX
  8
0
 10
7.40408
 20
10.4563
 30
0.0
 40
0
 41
0
  0
VERTEX
  8
0
 10
7.39779
 20
10.4621
 30
0.0
 40
0
 41
0
  0
VERTEX
  8
0
 10
7.39182
 20
10.4675
 30
0.0
 40
0
 41
0
  0
VERTEX
  8
0
 10
7.35792
 20
10.4948
 30
0.0
 40
0
 41
0
  0
VERTEX
  8
0
 10
7.32704
 20
10.5158
 30
0.0
 40
0
 41
0
  0
VERTEX
  8
0
 10
7.32264
 20
10.5181
 30
0.0
 40
0
 41
0
  0
VERTEX
  8
0
 10
7.31125
 20
10.524
 30
0.0
 40
0
 41
0
  0
VERTEX
  8
0
 10
7.27425
 20
10.5361
 30
0.0
 40
0
 41
0
  0
VERTEX
  8
0
 10
7.2085
 20
10.5513
 30
0.0
 40
0
 41
0
  0
VERTEX
  8
0
 10
7.13569
 20
10.5619
 30
0.0
 40
0
 41
0
  0
VERTEX
  8
0
 10
7.08356
 20
10.5658
 30
0.0
 40
0
 41
0
  0
VERTEX
  8
0
 10
7.06619
 20
10.5658
 30
0.0
 40
0
 41
0
  0
VERTEX
  8
0
 10
7.05544
 20
10.5658
 30
0.0
 40
0
 41
0
  0
VERTEX
  8
0
 10
7.02328
 20
10.5668
 30
0.0
 40
0
 41
0
  0
VERTEX
  8
0
 10
6.99333
 20
10.5715
 30
0.0
 40
0
 41
0
  0
VERTEX
  8
0
 10
6.96733
 20
10.5824
 30
0.0
 40
0
 41
0
  0
VERTEX
  8
0
 10
6.94374
 20
10.5968
 30
0.0
 40
0
 41
0
  0
VERTEX
  8
0
 10
6.93614
 20
10.6019
 30
0.0
 40
0
 41
0
  0
VERTEX
  8
0
 10
6.92475
 20
10.6096
 30
0.0
 40
0
 41
0
  0
VERTEX
  8
0
 10
6.88889
 20
10.63
 30
0.0
 40
0
 41
0
  0
VERTEX
  8
0
 10
6.84353
 20
10.6477
 30
0.0
 40
0
 41
0
  0
VERTEX
  8
0
 10
6.79297
 20
10.6569
 30
0.0
 40
0
 41
0
  0
VERTEX
  8
0
 10
6.74593
 20
10.6595
 30
0.0
 40
0
 41
0
  0
VERTEX
  8
0
 10
6.73025
 20
10.6595
 30
0.0
 40
0
 41
0
  0
VERTEX
  8
0
 10
6.71994
 20
10.6595
 30
0.0
 40
0
 41
0
  0
VERTEX
  8
0
 10
6.68913
 20
10.6606
 30
0.0
 40
0
 41
0
  0
VERTEX
  8
0
 10
6.6595
 20
10.665
 30
0.0
 40
0
 41
0
  0
VERTEX
  8
0
 10
6.63406
 20
10.6745
 30
0.0
 40
0
 41
0
  0
VERTEX
  8
0
 10
6.61253
 20
10.6866
 30
0.0
 40
0
 41
0
  0
VERTEX
  8
0
 10
6.60563
 20
10.6909
 30
0.0
 40
0
 41
0
  0
VERTEX
  8
0
 10
6.59033
 20
10.7006
 30
0.0
 40
0
 41
0
  0
VERTEX
  8
0
 10
6.54096
 20
10.7243
 30
0.0
 40
0
 41
0
  0
VERTEX
  8
0
 10
6.47424
 20
10.7406
 30
0.0
 40
0
 41
0
  0
VERTEX
  8
0
 10
6.39686
 20
10.7408
 30
0.0
 40
0
 41
0
  0
VERTEX
  8
0
 10
6.32422
 20
10.7308
 30
0.0
 40
0
 41
0
  0
VERTEX
  8
0
 10
6.30035
 20
10.726
 30
0.0
 40
0
 41
0
  0
VERTEX
  8
0
 10
6.28814
 20
10.7236
 30
0.0
 40
0
 41
0
  0
VERTEX
  8
0
 10
6.25142
 20
10.7168
 30
0.0
 40
0
 41
0
  0
VERTEX
  8
0
 10
6.22038
 20
10.7145
 30
0.0
 40
0
 41
0
  0
VERTEX
  8
0
 10
6.19476
 20
10.7198
 30
0.0
 40
0
 41
0
  0
VERTEX
  8
0
 10
6.17014
 20
10.7297
 30
0.0
 40
0
 41
0
  0
VERTEX
  8
0
 10
6.16206
 20
10.7332
 30
0.0
 40
0
 41
0
  0
VERTEX
  8
0
 10
6.14074
 20
10.7426
 30
0.0
 40
0
 41
0
  0
VERTEX
  8
0
 10
6.02294
 20
10.7585
 30
0.0
 40
0
 41
0
  0
VERTEX
  8
0
 10
5.89106
 20
10.733
 30
0.0
 40
0
 41
0
  0
VERTEX
  8
0
 10
5.86274
 20
10.7217
 30
0.0
 40
0
 41
0
  0
VERTEX
  8
0
 10
5.85394
 20
10.7183
 30
0.0
 40
0
 41
0
  0
VERTEX
  8
0
 10
5.82753
 20
10.7083
 30
0.0
 40
0
 41
0
  0
VERTEX
  8
0
 10
5.79731
 20
10.6976
 30
0.0
 40
0
 41
0
  0
VERTEX
  8
0
 10
5.77522
 20
10.691
 30
0.0
 40
0
 41
0
  0
VERTEX
  8
0
 10
5.76579
 20
10.6889
 30
0.0
 40
0
 41
0
  0
VERTEX
  8
0
 10
5.76449
 20
10.6892
 30
0.0
 40
0
 41
0
  0
VERTEX
  8
0
 10
5.73876
 20
10.6967
 30
0.0
 40
0
 41
0
  0
VERTEX
  8
0
 10
5.61686
 20
10.7039
 30
0.0
 40
0
 41
0
  0
VERTEX
  8
0
 10
5.49343
 20
10.6698
 30
0.0
 40
0
 41
0
  0
VERTEX
  8
0
 10
5.46701
 20
10.6565
 30
0.0
 40
0
 41
0
  0
VERTEX
  8
0
 10
5.45779
 20
10.652
 30
0.0
 40
0
 41
0
  0
VERTEX
  8
0
 10
5.42969
 20
10.639
 30
0.0
 40
0
 41
0
  0
VERTEX
  8
0
 10
5.4031
 20
10.6299
 30
0.0
 40
0
 41
0
  0
VERTEX
  8
0
 10
5.38103
 20
10.6278
 30
0.0
 40
0
 41
0
  0
VERTEX
  8
0
 10
5.36301
 20
10.63
 30
0.0
 40
0
 41
0
  0
VERTEX
  8
0
 10
5.35715
 20
10.6313
 30
0.0
 40
0
 41
0
  0
VERTEX
  8
0
 10
5.33832
 20
10.6354
 30
0.0
 40
0
 41
0
  0
VERTEX
  8
0
 10
5.27951
 20
10.6367
 30
0.0
 40
0
 41
0
  0
VERTEX
  8
0
 10
5.20008
 20
10.6187
 30
0.0
 40
0
 41
0
  0
VERTEX
  8
0
 10
5.11649
 20
10.5763
 30
0.0
 40
0
 41
0
  0
VERTEX
  8
0
 10
5.04753
 20
10.5269
 30
0.0
 40
0
 41
0
  0
VERTEX
  8
0
 10
5.02615
 20
10.5086
 30
0.0
 40
0
 41
0
  0
VERTEX
  8
0
 10
5.01531
 20
10.4993
 30
0.0
 40
0
 41
0
  0
VERTEX
  8
0
 10
4.98226
 20
10.4723
 30
0.0
 40
0
 41
0
  0
VERTEX
  8
0
 10
4.95231
 20
10.4519
 30
0.0
 40
0
 41
0
  0
VERTEX
  8
0
 10
4.92806
 20
10.4429
 30
0.0
 40
0
 41
0
  0
VERTEX
  8
0
 10
4.90804
 20
10.4408
 30
0.0
 40
0
 41
0
  0
VERTEX
  8
0
 10
4.90142
 20
10.4408
 30
0.0
 40
0
 41
0
  0
VERTEX
  8
0
 10
4.8884
 20
10.4408
 30
0.0
 40
0
 41
0
  0
VERTEX
  8
0
 10
4.84939
 20
10.4356
 30
0.0
 40
0
 41
0
  0
VERTEX
  8
0
 10
4.79872
 20
10.4195
 30
0.0
 40
0
 41
0
  0
VERTEX
  8
0
 10
4.74832
 20
10.3923
 30
0.0
 40
0
 41
0
  0
VERTEX
  8
0
 10
4.70921
 20
10.3637
 30
0.0
 40
0
 41
0
  0
VERTEX
  8
0
 10
4.6971
 20
10.3532
 30
0.0
 40
0
 41
0
  0
VERTEX
  8
0
 10
4.66932
 20
10.3292
 30
0.0
 40
0
 41
0
  0
VERTEX
  8
0
 10
4.59164
 20
10.2505
 30
0.0
 40
0
 41
0
  0
VERTEX
  8
0
 10
4.49235
 20
10.1308
 30
0.0
 40
0
 41
0
  0
VERTEX
  8
0
 10
4.40088
 20
9.99642
 30
0.0
 40
0
 41
0
  0
VERTEX
  8
0
 10
4.33794
 20
9.88726
 30
0.0
 40
0
 41
0
  0
VERTEX
  8
0
 10
4.31912
 20
9.84978
 30
0.0
 40
0
 41
0
  0
VERTEX
  8
0
 10
4.31332
 20
9.83832
 30
0.0
 40
0
 41
0
  0
VERTEX
  8
0
 10
4.29557
 20
9.80399
 30
0.0
 40
0
 41
0
  0
VERTEX
  8
0
 10
4.27533
 20
9.7665
 30
0.0
 40
0
 41
0
  0
VERTEX
  8
0
 10
4.26053
 20
9.74121
 30
0.0
 40
0
 41
0
  0
VERTEX
  8
0
 10
4.25515
 20
9.73188
 30
0.0
 40
0
 41
0
  0
VERTEX
  8
0
 10
4.25336
 20
9.73188
 30
0.0
 40
0
 41
0
  0
VERTEX
  8
0
 10
4.25136
 20
9.73188
 30
0.0
 40
0
 41
0
  0
VERTEX
  8
0
 10
4.2455
 20
9.7424
 30
0.0
 40
0
 41
0
  0
VERTEX
  8
0
 10
4.22906
 20
9.771
 30
0.0
 40
0
 41
0
  0
VERTEX
  8
0
 10
4.20632
 20
9.81337
 30
0.0
 40
0
 41
0
  0
VERTEX
  8
0
 10
4.18631
 20
9.85211
 30
0.0
 40
0
 41
0
  0
VERTEX
  8
0
 10
4.17979
 20
9.86501
 30
0.0
 40
0
 41
0
  0
VERTEX
  8
0
 10
4.15924
 20
9.90576
 30
0.0
 40
0
 41
0
  0
VERTEX
  8
0
 10
4.04476
 20
10.0911
 30
0.0
 40
0
 41
0
  0
VERTEX
  8
0
 10
3.91243
 20
10.2547
 30
0.0
 40
0
 41
0
  0
VERTEX
  8
0
 10
3.88303
 20
10.2845
 30
0.0
 40
0
 41
0
  0
VERTEX
  8
0
 10
3.86475
 20
10.3031
 30
0.0
 40
0
 41
0
  0
VERTEX
  8
0
 10
3.80761
 20
10.3563
 30
0.0
 40
0
 41
0
  0
VERTEX
  8
0
 10
3.74593
 20
10.4021
 30
0.0
 40
0
 41
0
  0
VERTEX
  8
0
 10
3.68837
 20
10.4276
 30
0.0
 40
0
 41
0
  0
VERTEX
  8
0
 10
3.64117
 20
10.4371
 30
0.0
 40
0
 41
0
  0
VERTEX
  8
0
 10
3.62532
 20
10.4384
 30
0.0
 40
0
 41
0
  0
VERTEX
  8
0
 10
3.6154
 20
10.4392
 30
0.0
 40
0
 41
0
  0
VERTEX
  8
0
 10
3.58567
 20
10.4427
 30
0.0
 40
0
 41
0
  0
VERTEX
  8
0
 10
3.55811
 20
10.4503
 30
0.0
 40
0
 41
0
  0
VERTEX
  8
0
 10
3.53364
 20
10.465
 30
0.0
 40
0
 41
0
  0
VERTEX
  8
0
 10
3.51074
 20
10.4843
 30
0.0
 40
0
 41
0
  0
VERTEX
  8
0
 10
3.50336
 20
10.4909
 30
0.0
 40
0
 41
0
  0
VERTEX
  8
0
 10
3.48156
 20
10.5106
 30
0.0
 40
0
 41
0
  0
VERTEX
  8
0
 10
3.41124
 20
10.5641
 30
0.0
 40
0
 41
0
  0
VERTEX
  8
0
 10
3.32488
 20
10.6115
 30
0.0
 40
0
 41
0
  0
VERTEX
  8
0
 10
3.24262
 20
10.6341
 30
0.0
 40
0
 41
0
  0
VERTEX
  8
0
 10
3.18218
 20
10.6357
 30
0.0
 40
0
 41
0
  0
VERTEX
  8
0
 10
3.16271
 20
10.6324
 30
0.0
 40
0
 41
0
  0
VERTEX
  8
0
 10
3.15474
 20
10.6311
 30
0.0
 40
0
 41
0
  0
VERTEX
  8
0
 10
3.13069
 20
10.6282
 30
0.0
 40
0
 41
0
  0
VERTEX
  8
0
 10
3.10558
 20
10.6297
 30
0.0
 40
0
 41
0
  0
VERTEX
  8
0
 10
3.07824
 20
10.6388
 30
0.0
 40
0
 41
0
  0
VERTEX
  8
0
 10
3.04932
 20
10.6525
 30
0.0
 40
0
 41
0
  0
VERTEX
  8
0
 10
3.03982
 20
10.6572
 30
0.0
 40
0
 41
0
  0
VERTEX
  8
0
 10
3.01764
 20
10.6685
 30
0.0
 40
0
 41
0
  0
VERTEX
  8
0
 10
2.91004
 20
10.7013
 30
0.0
 40
0
 41
0
  0
VERTEX
  8
0
 10
2.80892
 20
10.7029
 30
0.0
 40
0
 41
0
  0
VERTEX
  8
0
 10
2.79004
 20
10.6985
 30
0.0
 40
0
 41
0
  0
VERTEX
  8
0
 10
2.78157
 20
10.6966
 30
0.0
 40
0
 41
0
  0
VERTEX
  8
0
 10
2.75603
 20
10.6917
 30
0.0
 40
0
 41
0
  0
VERTEX
  8
0
 10
2.72868
 20
10.6919
 30
0.0
 40
0
 41
0
  0
VERTEX
  8
0
 10
2.69558
 20
10.7012
 30
0.0
 40
0
 41
0
  0
VERTEX
  8
0
 10
2.65696
 20
10.7162
 30
0.0
 40
0
 41
0
  0
VERTEX
  8
0
 10
2.64421
 20
10.7214
 30
0.0
 40
0
 41
0
  0
VERTEX
  8
0
 10
2.62831
 20
10.7278
 30
0.0
 40
0
 41
0
  0
VERTEX
  8
0
 10
2.55192
 20
10.7502
 30
0.0
 40
0
 41
0
  0
VERTEX
  8
0
 10
2.47965
 20
10.7593
 30
0.0
 40
0
 41
0
  0
VERTEX
  8
0
 10
2.46582
 20
10.7591
 30
0.0
 40
0
 41
0
  0
SEQEND
 8
0
  0
POLYLINE
  8
0
 62
     250
 66
     1
 10
0
 20
0
 30
0.0
 70
     1
 40
0
 41
0
  0
VERTEX
  8
0
 10
6.0101
 20
10.4304
 30
0.0
 40
0
 41
0
  0
VERTEX
  8
0
 10
6.0101
 20
10.4304
 30
0.0
 40
0
 41
0
  0
VERTEX
  8
0
 10
6.00988
 20
10.4197
 30
0.0
 40
0
 41
0
  0
VERTEX
  8
0
 10
5.99729
 20
10.3988
 30
0.0
 40
0
 41
0
  0
VERTEX
  8
0
 10
5.99349
 20
10.3937
 30
0.0
 40
0
 41
0
  0
VERTEX
  8
0
 10
5.98742
 20
10.3858
 30
0.0
 40
0
 41
0
  0
VERTEX
  8
0
 10
5.9725
 20
10.3594
 30
0.0
 40
0
 41
0
  0
VERTEX
  8
0
 10
5.96115
 20
10.3253
 30
0.0
 40
0
 41
0
  0
VERTEX
  8
0
 10
5.96007
 20
10.2945
 30
0.0
 40
0
 41
0
  0
VERTEX
  8
0
 10
5.96599
 20
10.275
 30
0.0
 40
0
 41
0
  0
VERTEX
  8
0
 10
5.96983
 20
10.2699
 30
0.0
 40
0
 41
0
  0
VERTEX
  8
0
 10
5.9719
 20
10.2671
 30
0.0
 40
0
 41
0
  0
VERTEX
  8
0
 10
5.97944
 20
10.2594
 30
0.0
 40
0
 41
0
  0
VERTEX
  8
0
 10
5.99104
 20
10.2578
 30
0.0
 40
0
 41
0
  0
VERTEX
  8
0
 10
6.01107
 20
10.2665
 30
0.0
 40
0
 41
0
  0
VERTEX
  8
0
 10
6.03738
 20
10.2818
 30
0.0
 40
0
 41
0
  0
VERTEX
  8
0
 10
6.04606
 20
10.2871
 30
0.0
 40
0
 41
0
  0
VERTEX
  8
0
 10
6.06651
 20
10.2994
 30
0.0
 40
0
 41
0
  0
VERTEX
  8
0
 10
6.17443
 20
10.3515
 30
0.0
 40
0
 41
0
  0
VERTEX
  8
0
 10
6.29372
 20
10.3922
 30
0.0
 40
0
 41
0
  0
VERTEX
  8
0
 10
6.31999
 20
10.3989
 30
0.0
 40
0
 41
0
  0
VERTEX
  8
0
 10
6.33535
 20
10.4028
 30
0.0
 40
0
 41
0
  0
VERTEX
  8
0
 10
6.38178
 20
10.4131
 30
0.0
 40
0
 41
0
  0
VERTEX
  8
0
 10
6.41342
 20
10.4163
 30
0.0
 40
0
 41
0
  0
VERTEX
  8
0
 10
6.41575
 20
10.4084
 30
0.0
 40
0
 41
0
  0
VERTEX
  8
0
 10
6.39638
 20
10.3935
 30
0.0
 40
0
 41
0
  0
VERTEX
  8
0
 10
6.38954
 20
10.3892
 30
0.0
 40
0
 41
0
  0
VERTEX
  8
0
 10
6.38103
 20
10.384
 30
0.0
 40
0
 41
0
  0
VERTEX
  8
0
 10
6.35775
 20
10.3645
 30
0.0
 40
0
 41
0
  0
VERTEX
  8
0
 10
6.33279
 20
10.3348
 30
0.0
 40
0
 41
0
  0
VERTEX
  8
0
 10
6.31651
 20
10.303
 30
0.0
 40
0
 41
0
  0
VERTEX
  8
0
 10
6.31065
 20
10.2794
 30
0.0
 40
0
 41
0
  0
VERTEX
  8
0
 10
6.31065
 20
10.2715
 30
0.0
 40
0
 41
0
  0
VERTEX
  8
0
 10
6.31065
 20
10.2665
 30
0.0
 40
0
 41
0
  0
VERTEX
  8
0
 10
6.31332
 20
10.2516
 30
0.0
 40
0
 41
0
  0
VERTEX
  8
0
 10
6.32656
 20
10.2447
 30
0.0
 40
0
 41
0
  0
VERTEX
  8
0
 10
6.35801
 20
10.2507
 30
0.0
 40
0
 41
0
  0
VERTEX
  8
0
 10
6.40126
 20
10.2646
 30
0.0
 40
0
 41
0
  0
VERTEX
  8
0
 10
6.41558
 20
10.2695
 30
0.0
 40
0
 41
0
  0
VERTEX
  8
0
 10
6.43647
 20
10.2767
 30
0.0
 40
0
 41
0
  0
VERTEX
  8
0
 10
6.50006
 20
10.296
 30
0.0
 40
0
 41
0
  0
VERTEX
  8
0
 10
6.58208
 20
10.3173
 30
0.0
 40
0
 41
0
  0
VERTEX
  8
0
 10
6.6536
 20
10.3314
 30
0.0
 40
0
 41
0
  0
VERTEX
  8
0
 10
6.69325
 20
10.3365
 30
0.0
 40
0
 41
0
  0
VERTEX
  8
0
 10
6.70649
 20
10.3365
 30
0.0
 40
0
 41
0
  0
VERTEX
  8
0
 10
6.75336
 20
10.3366
 30
0.0
 40
0
 41
0
  0
VERTEX
  8
0
 10
6.72071
 20
10.3167
 30
0.0
 40
0
 41
0
  0
VERTEX
  8
0
 10
6.70964
 20
10.3099
 30
0.0
 40
0
 41
0
  0
VERTEX
  8
0
 10
6.67101
 20
10.2709
 30
0.0
 40
0
 41
0
  0
VERTEX
  8
0
 10
6.6544
 20
10.2286
 30
0.0
 40
0
 41
0
  0
VERTEX
  8
0
 10
6.6544
 20
10.2145
 30
0.0
 40
0
 41
0
  0
VERTEX
  8
0
 10
6.6544
 20
10.211
 30
0.0
 40
0
 41
0
  0
VERTEX
  8
0
 10
6.65506
 20
10.2005
 30
0.0
 40
0
 41
0
  0
VERTEX
  8
0
 10
6.65788
 20
10.1903
 30
0.0
 40
0
 41
0
  0
VERTEX
  8
0
 10
6.66407
 20
10.184
 30
0.0
 40
0
 41
0
  0
VERTEX
  8
0
 10
6.67481
 20
10.1814
 30
0.0
 40
0
 41
0
  0
VERTEX
  8
0
 10
6.69125
 20
10.1825
 30
0.0
 40
0
 41
0
  0
VERTEX
  8
0
 10
6.71468
 20
10.1872
 30
0.0
 40
0
 41
0
  0
VERTEX
  8
0
 10
6.74621
 20
10.1956
 30
0.0
 40
0
 41
0
  0
VERTEX
  8
0
 10
6.77686
 20
10.2044
 30
0.0
 40
0
 41
0
  0
VERTEX
  8
0
 10
6.78706
 20
10.2074
 30
0.0
 40
0
 41
0
  0
VERTEX
  8
0
 10
6.808
 20
10.2135
 30
0.0
 40
0
 41
0
  0
VERTEX
  8
0
 10
6.87278
 20
10.2262
 30
0.0
 40
0
 41
0
  0
VERTEX
  8
0
 10
6.972
 20
10.2388
 30
0.0
 40
0
 41
0
  0
VERTEX
  8
0
 10
7.06679
 20
10.2433
 30
0.0
 40
0
 41
0
  0
VERTEX
  8
0
 10
7.12125
 20
10.2416
 30
0.0
 40
0
 41
0
  0
VERTEX
  8
0
 10
7.13894
 20
10.2383
 30
0.0
 40
0
 41
0
  0
VERTEX
  8
0
 10
7.17828
 20
10.231
 30
0.0
 40
0
 41
0
  0
VERTEX
  8
0
 10
7.11794
 20
10.17
 30
0.0
 40
0
 41
0
  0
VERTEX
  8
0
 10
7.05757
 20
10.109
 30
0.0
 40
0
 41
0
  0
VERTEX
  8
0
 10
7.09814
 20
10.1008
 30
0.0
 40
0
 41
0
  0
VERTEX
  8
0
 10
7.10374
 20
10.0996
 30
0.0
 40
0
 41
0
  0
VERTEX
  8
0
 10
7.12879
 20
10.0975
 30
0.0
 40
0
 41
0
  0
VERTEX
  8
0
 10
7.18235
 20
10.0948
 30
0.0
 40
0
 41
0
  0
VERTEX
  8
0
 10
7.25125
 20
10.093
 30
0.0
 40
0
 41
0
  0
VERTEX
  8
0
 10
7.30871
 20
10.0923
 30
0.0
 40
0
 41
0
  0
VERTEX
  8
0
 10
7.3279
 20
10.0922
 30
0.0
 40
0
 41
0
  0
VERTEX
  8
0
 10
7.34619
 20
10.0922
 30
0.0
 40
0
 41
0
  0
VERTEX
  8
0
 10
7.40104
 20
10.0917
 30
0.0
 40
0
 41
0
  0
VERTEX
  8
0
 10
7.4605
 20
10.0906
 30
0.0
 40
0
 41
0
  0
VERTEX
  8
0
 10
7.50006
 20
10.0888
 30
0.0
 40
0
 41
0
  0
VERTEX
  8
0
 10
7.51372
 20
10.0867
 30
0.0
 40
0
 41
0
  0
VERTEX
  8
0
 10
7.51372
 20
10.0867
 30
0.0
 40
0
 41
0
  0
VERTEX
  8
0
 10
7.51324
 20
10.086
 30
0.0
 40
0
 41
0
  0
VERTEX
  8
0
 10
7.50874
 20
10.0793
 30
0.0
 40
0
 41
0
  0
VERTEX
  8
0
 10
7.49778
 20
10.0629
 30
0.0
 40
0
 41
0
  0
VERTEX
  8
0
 10
7.48242
 20
10.0399
 30
0.0
 40
0
 41
0
  0
VERTEX
  8
0
 10
7.46875
 20
10.0196
 30
0.0
 40
0
 41
0
  0
VERTEX
  8
0
 10
7.46425
 20
10.0128
 30
0.0
 40
0
 41
0
  0
VERTEX
  8
0
 10
7.45481
 20
9.99881
 30
0.0
 40
0
 41
0
  0
VERTEX
  8
0
 10
7.42953
 20
9.95464
 30
0.0
 40
0
 41
0
  0
VERTEX
  8
0
 10
7.39481
 20
9.88564
 30
0.0
 40
0
 41
0
  0
VERTEX
  8
0
 10
7.36546
 20
9.81733
 30
0.0
 40
0
 41
0
  0
VERTEX
  8
0
 10
7.35032
 20
9.77544
 30
0.0
 40
0
 41
0
  0
VERTEX
  8
0
 10
7.34679
 20
9.76113
 30
0.0
 40
0
 41
0
  0
VERTEX
  8
0
 10
7.34576
 20
9.75711
 30
0.0
 40
0
 41
0
  0
VERTEX
  8
0
 10
7.34347
 20
9.74474
 30
0.0
 40
0
 41
0
  0
VERTEX
  8
0
 10
7.347
 20
9.73633
 30
0.0
 40
0
 41
0
  0
VERTEX
  8
0
 10
7.36128
 20
9.73329
 30
0.0
 40
0
 41
0
  0
VERTEX
  8
0
 10
7.38297
 20
9.73307
 30
0.0
 40
0
 41
0
  0
VERTEX
  8
0
 10
7.39025
 20
9.73312
 30
0.0
 40
0
 41
0
  0
VERTEX
  8
0
 10
7.39719
 20
9.73324
 30
0.0
 40
0
 41
0
  0
VERTEX
  8
0
 10
7.44049
 20
9.73594
 30
0.0
 40
0
 41
0
  0
VERTEX
  8
0
 10
7.48351
 20
9.74078
 30
0.0
 40
0
 41
0
  0
VERTEX
  8
0
 10
7.49035
 20
9.74186
 30
0.0
 40
0
 41
0
  0
VERTEX
  8
0
 10
7.49951
 20
9.74338
 30
0.0
 40
0
 41
0
  0
VERTEX
  8
0
 10
7.52886
 20
9.74539
 30
0.0
 40
0
 41
0
  0
VERTEX
  8
0
 10
7.53982
 20
9.73921
 30
0.0
 40
0
 41
0
  0
VERTEX
  8
0
 10
7.53982
 20
9.73708
 30
0.0
 40
0
 41
0
  0
VERTEX
  8
0
 10
7.53982
 20
9.73372
 30
0.0
 40
0
 41
0
  0
VERTEX
  8
0
 10
7.5356
 20
9.72353
 30
0.0
 40
0
 41
0
  0
VERTEX
  8
0
 10
7.52376
 20
9.7035
 30
0.0
 40
0
 41
0
  0
VERTEX
  8
0
 10
7.50586
 20
9.67865
 30
0.0
 40
0
 41
0
  0
VERTEX
  8
0
 10
7.48312
 20
9.65061
 30
0.0
 40
0
 41
0
  0
VERTEX
  8
0
 10
7.45697
 20
9.62099
 30
0.0
 40
0
 41
0
  0
VERTEX
  8
0
 10
7.42876
 20
9.59142
 30
0.0
 40
0
 41
0
  0
VERTEX
  8
0
 10
7.3999
 20
9.56347
 30
0.0
 40
0
 41
0
  0
VERTEX
  8
0
 10
7.37901
 20
9.54476
 30
0.0
 40
0
 41
0
  0
VERTEX
  8
0
 10
7.37181
 20
9.53885
 30
0.0
 40
0
 41
0
  0
VERTEX
  8
0
 10
7.36079
 20
9.52983
 30
0.0
 40
0
 41
0
  0
VERTEX
  8
0
 10
7.32807
 20
9.50256
 30
0.0
 40
0
 41
0
  0
VERTEX
  8
0
 10
7.29536
 20
9.47385
 30
0.0
 40
0
 41
0
  0
VERTEX
  8
0
 10
7.27294
 20
9.45176
 30
0.0
 40
0
 41
0
  0
VERTEX
  8
0
 10
7.26036
 20
9.43522
 30
0.0
 40
0
 41
0
  0
VERTEX
  8
0
 10
7.25694
 20
9.42318
 30
0.0
 40
0
 41
0
  0
VERTEX
  8
0
 10
7.26215
 20
9.41456
 30
0.0
 40
0
 41
0
  0
VERTEX
  8
0
 10
7.27533
 20
9.40836
 30
0.0
 40
0
 41
0
  0
VERTEX
  8
0
 10
7.29081
 20
9.40446
 30
0.0
 40
0
 41
0
  0
VERTEX
  8
0
 10
7.29601
 20
9.40349
 30
0.0
 40
0
 41
0
  0
VERTEX
  8
0
 10
7.30528
 20
9.40175
 30
0.0
 40
0
 41
0
  0
VERTEX
  8
0
 10
7.33388
 20
9.40044
 30
0.0
 40
0
 41
0
  0
VERTEX
  8
0
 10
7.38092
 20
9.40192
 30
0.0
 40
0
 41
0
  0
VERTEX
  8
0
 10
7.42649
 20
9.40717
 30
0.0
 40
0
 41
0
  0
VERTEX
  8
0
 10
7.45226
 20
9.41233
 30
0.0
 40
0
 41
0
  0
VERTEX
  8
0
 10
7.46029
 20
9.41547
 30
0.0
 40
0
 41
0
  0
VERTEX
  8
0
 10
7.46294
 20
9.41656
 30
0.0
 40
0
 41
0
  0
VERTEX
  8
0
 10
7.47162
 20
9.41808
 30
0.0
 40
0
 41
0
  0
VERTEX
  8
0
 10
7.47439
 20
9.41336
 30
0.0
 40
0
 41
0
  0
VERTEX
  8
0
 10
7.46864
 20
9.40142
 30
0.0
 40
0
 41
0
  0
VERTEX
  8
0
 10
7.45426
 20
9.38211
 30
0.0
 40
0
 41
0
  0
VERTEX
  8
0
 10
7.43121
 20
9.35542
 30
0.0
 40
0
 41
0
  0
VERTEX
  8
0
 10
7.39942
 20
9.32124
 30
0.0
 40
0
 41
0
  0
VERTEX
  8
0
 10
7.35889
 20
9.27957
 30
0.0
 40
0
 41
0
  0
VERTEX
  8
0
 10
7.32189
 20
9.24251
 30
0.0
 40
0
 41
0
  0
VERTEX
  8
0
 10
7.30951
 20
9.23025
 30
0.0
 40
0
 41
0
  0
VERTEX
  8
0
 10
7.2959
 20
9.2169
 30
0.0
 40
0
 41
0
  0
VERTEX
  8
0
 10
7.25532
 20
9.17654
 30
0.0
 40
0
 41
0
  0
VERTEX
  8
0
 10
7.21631
 20
9.13601
 30
0.0
 40
0
 41
0
  0
VERTEX
  8
0
 10
7.19206
 20
9.10688
 30
0.0
 40
0
 41
0
  0
VERTEX
  8
0
 10
7.18224
 20
9.08713
 30
0.0
 40
0
 41
0
  0
VERTEX
  8
0
 10
7.18658
 20
9.07503
 30
0.0
 40
0
 41
0
  0
VERTEX
  8
0
 10
7.20475
 20
9.06862
 30
0.0
 40
0
 41
0
  0
VERTEX
  8
0
 10
7.23643
 20
9.06608
 30
0.0
 40
0
 41
0
  0
VERTEX
  8
0
 10
7.27007
 20
9.06549
 30
0.0
 40
0
 41
0
  0
VERTEX
  8
0
 10
7.28131
 20
9.06543
 30
0.0
 40
0
 41
0
  0
VERTEX
  8
0
 10
7.35753
 20
9.06506
 30
0.0
 40
0
 41
0
  0
VERTEX
  8
0
 10
7.30024
 20
9.0115
 30
0.0
 40
0
 41
0
  0
VERTEX
  8
0
 10
7.28575
 20
8.99799
 30
0.0
 40
0
 41
0
  0
VERTEX
  8
0
 10
7.24018
 20
8.95953
 30
0.0
 40
0
 41
0
  0
VERTEX
  8
0
 10
7.16797
 20
8.90272
 30
0.0
 40
0
 41
0
  0
VERTEX
  8
0
 10
7.09679
 20
8.85107
 30
0.0
 40
0
 41
0
  0
VERTEX
  8
0
 10
7.05447
 20
8.82286
 30
0.0
 40
0
 41
0
  0
VERTEX
  8
0
 10
7.03976
 20
8.81456
 30
0.0
 40
0
 41
0
  0
VERTEX
  8
0
 10
7.03401
 20
8.81136
 30
0.0
 40
0
 41
0
  0
VERTEX
  8
0
 10
7.01036
 20
8.79443
 30
0.0
 40
0
 41
0
  0
VERTEX
  8
0
 10
6.99815
 20
8.78271
 30
0.0
 40
0
 41
0
  0
VERTEX
  8
0
 10
6.99815
 20
8.77881
 30
0.0
 40
0
 41
0
  0
VERTEX
  8
0
 10
6.99815
 20
8.77522
 30
0.0
 40
0
 41
0
  0
VERTEX
  8
0
 10
7.01258
 20
8.76449
 30
0.0
 40
0
 41
0
  0
VERTEX
  8
0
 10
7.04839
 20
8.75282
 30
0.0
 40
0
 41
0
  0
VERTEX
  8
0
 10
7.09407
 20
8.74631
 30
0.0
 40
0
 41
0
  0
VERTEX
  8
0
 10
7.12744
 20
8.74593
 30
0.0
 40
0
 41
0
  0
VERTEX
  8
0
 10
7.13835
 20
8.7475
 30
0.0
 40
0
 41
0
  0
VERTEX
  8
0
 10
7.14481
 20
8.74849
 30
0.0
 40
0
 41
0
  0
VERTEX
  8
0
 10
7.17171
 20
8.75087
 30
0.0
 40
0
 41
0
  0
VERTEX
  8
0
 10
7.18565
 20
8.74951
 30
0.0
 40
0
 41
0
  0
VERTEX
  8
0
 10
7.18565
 20
8.74903
 30
0.0
 40
0
 41
0
  0
VERTEX
  8
0
 10
7.18565
 20
8.74164
 30
0.0
 40
0
 41
0
  0
VERTEX
  8
0
 10
7.15588
 20
8.71951
 30
0.0
 40
0
 41
0
  0
VERTEX
  8
0
 10
7.08106
 20
8.6671
 30
0.0
 40
0
 41
0
  0
VERTEX
  8
0
 10
6.98253
 20
8.60596
 30
0.0
 40
0
 41
0
  0
VERTEX
  8
0
 10
6.90744
 20
8.56321
 30
0.0
 40
0
 41
0
  0
VERTEX
  8
0
 10
6.88189
 20
8.55007
 30
0.0
 40
0
 41
0
  0
VERTEX
  8
0
 10
6.73469
 20
8.47456
 30
0.0
 40
0
 41
0
  0
VERTEX
  8
0
 10
6.76351
 20
8.45568
 30
0.0
 40
0
 41
0
  0
VERTEX
  8
0
 10
6.76758
 20
8.45301
 30
0.0
 40
0
 41
0
  0
VERTEX
  8
0
 10
6.8016
 20
8.44092
 30
0.0
 40
0
 41
0
  0
VERTEX
  8
0
 10
6.84483
 20
8.433
 30
0.0
 40
0
 41
0
  0
VERTEX
  8
0
 10
6.85357
 20
8.43235
 30
0.0
 40
0
 41
0
  0
VERTEX
  8
0
 10
6.86199
 20
8.43175
 30
0.0
 40
0
 41
0
  0
VERTEX
  8
0
 10
6.89681
 20
8.4266
 30
0.0
 40
0
 41
0
  0
VERTEX
  8
0
 10
6.91482
 20
8.4209
 30
0.0
 40
0
 41
0
  0
VERTEX
  8
0
 10
6.91482
 20
8.41894
 30
0.0
 40
0
 41
0
  0
VERTEX
  8
0
 10
6.91482
 20
8.41331
 30
0.0
 40
0
 41
0
  0
VERTEX
  8
0
 10
6.88775
 20
8.39621
 30
0.0
 40
0
 41
0
  0
VERTEX
  8
0
 10
6.815
 20
8.36268
 30
0.0
 40
0
 41
0
  0
VERTEX
  8
0
 10
6.70899
 20
8.3234
 30
0.0
 40
0
 41
0
  0
VERTEX
  8
0
 10
6.6141
 20
8.29275
 30
0.0
 40
0
 41
0
  0
VERTEX
  8
0
 10
6.58219
 20
8.28347
 30
0.0
 40
0
 41
0
  0
VERTEX
  8
0
 10
6.57129
 20
8.28033
 30
0.0
 40
0
 41
0
  0
VERTEX
  8
0
 10
6.53874
 20
8.27046
 30
0.0
 40
0
 41
0
  0
VERTEX
  8
0
 10
6.50196
 20
8.25857
 30
0.0
 40
0
 41
0
  0
VERTEX
  8
0
 10
6.47558
 20
8.24918
 30
0.0
 40
0
 41
0
  0
VERTEX
  8
0
 10
6.46479
 20
8.24462
 30
0.0
 40
0
 41
0
  0
VERTEX
  8
0
 10
6.46365
 20
8.24349
 30
0.0
 40
0
 41
0
  0
VERTEX
  8
0
 10
6.46218
 20
8.24208
 30
0.0
 40
0
 41
0
  0
VERTEX
  8
0
 10
6.46679
 20
8.2284
 30
0.0
 40
0
 41
0
  0
VERTEX
  8
0
 10
6.48969
 20
8.20703
 30
0.0
 40
0
 41
0
  0
VERTEX
  8
0
 10
6.52257
 20
8.18664
 30
0.0
 40
0
 41
0
  0
VERTEX
  8
0
 10
6.54725
 20
8.17606
 30
0.0
 40
0
 41
0
  0
VERTEX
  8
0
 10
6.55583
 20
8.17443
 30
0.0
 40
0
 41
0
  0
VERTEX
  8
0
 10
6.56082
 20
8.1735
 30
0.0
 40
0
 41
0
  0
VERTEX
  8
0
 10
6.58301
 20
8.16704
 30
0.0
 40
0
 41
0
  0
VERTEX
  8
0
 10
6.59674
 20
8.1601
 30
0.0
 40
0
 41
0
  0
VERTEX
  8
0
 10
6.5975
 20
8.15886
 30
0.0
 40
0
 41
0
  0
VERTEX
  8
0
 10
6.59754
 20
8.15881
 30
0.0
 40
0
 41
0
  0
VERTEX
  8
0
 10
6.56825
 20
8.14008
 30
0.0
 40
0
 41
0
  0
VERTEX
  8
0
 10
6.48047
 20
8.11703
 30
0.0
 40
0
 41
0
  0
VERTEX
  8
0
 10
6.36122
 20
8.09554
 30
0.0
 40
0
 41
0
  0
VERTEX
  8
0
 10
6.26867
 20
8.08371
 30
0.0
 40
0
 41
0
  0
VERTEX
  8
0
 10
6.23774
 20
8.08149
 30
0.0
 40
0
 41
0
  0
VERTEX
  8
0
 10
6.21864
 20
8.08014
 30
0.0
 40
0
 41
0
  0
VERTEX
  8
0
 10
6.16157
 20
8.07514
 30
0.0
 40
0
 41
0
  0
VERTEX
  8
0
 10
6.11735
 20
8.06831
 30
0.0
 40
0
 41
0
  0
VERTEX
  8
0
 10
6.0969
 20
8.05886
 30
0.0
 40
0
 41
0
  0
VERTEX
  8
0
 10
6.0919
 20
8.04829
 30
0.0
 40
0
 41
0
  0
VERTEX
  8
0
 10
6.0919
 20
8.04471
 30
0.0
 40
0
 41
0
  0
VERTEX
  8
0
 10
6.0919
 20
8.03987
 30
0.0
 40
0
 41
0
  0
VERTEX
  8
0
 10
6.10058
 20
8.02522
 30
0.0
 40
0
 41
0
  0
VERTEX
  8
0
 10
6.12332
 20
8.00196
 30
0.0
 40
0
 41
0
  0
VERTEX
  8
0
 10
6.15511
 20
7.97922
 30
0.0
 40
0
 41
0
  0
VERTEX
  8
0
 10
6.18158
 20
7.9649
 30
0.0
 40
0
 41
0
  0
VERTEX
  8
0
 10
6.19086
 20
7.96121
 30
0.0
 40
0
 41
0
  0
VERTEX
  8
0
 10
6.19499
 20
7.95964
 30
0.0
 40
0
 41
0
  0
VERTEX
  8
0
 10
6.20725
 20
7.95432
 30
0.0
 40
0
 41
0
  0
VERTEX
  8
0
 10
6.21397
 20
7.94954
 30
0.0
 40
0
 41
0
  0
VERTEX
  8
0
 10
6.21169
 20
7.94542
 30
0.0
 40
0
 41
0
  0
VERTEX
  8
0
 10
6.20394
 20
7.94151
 30
0.0
 40
0
 41
0
  0
VERTEX
  8
0
 10
6.20128
 20
7.94043
 30
0.0
 40
0
 41
0
  0
VERTEX
  8
0
 10
6.19194
 20
7.93664
 30
0.0
 40
0
 41
0
  0
VERTEX
  8
0
 10
6.14214
 20
7.93294
 30
0.0
 40
0
 41
0
  0
VERTEX
  8
0
 10
6.03982
 20
7.93278
 30
0.0
 40
0
 41
0
  0
VERTEX
  8
0
 10
5.92318
 20
7.93907
 30
0.0
 40
0
 41
0
  0
VERTEX
  8
0
 10
5.84636
 20
7.94678
 30
0.0
 40
0
 41
0
  0
VERTEX
  8
0
 10
5.82107
 20
7.95107
 30
0.0
 40
0
 41
0
  0
VERTEX
  8
0
 10
5.78022
 20
7.95806
 30
0.0
 40
0
 41
0
  0
VERTEX
  8
0
 10
5.65847
 20
7.98383
 30
0.0
 40
0
 41
0
  0
VERTEX
  8
0
 10
5.51585
 20
8.02333
 30
0.0
 40
0
 41
0
  0
VERTEX
  8
0
 10
5.39214
 20
8.07021
 30
0.0
 40
0
 41
0
  0
VERTEX
  8
0
 10
5.28646
 20
8.12506
 30
0.0
 40
0
 41
0
  0
VERTEX
  8
0
 10
5.19769
 20
8.18837
 30
0.0
 40
0
 41
0
  0
VERTEX
  8
0
 10
5.125
 20
8.26085
 30
0.0
 40
0
 41
0
  0
VERTEX
  8
0
 10
5.06733
 20
8.34304
 30
0.0
 40
0
 41
0
  0
VERTEX
  8
0
 10
5.03276
 20
8.41174
 30
0.0
 40
0
 41
0
  0
VERTEX
  8
0
 10
5.02382
 20
8.43554
 30
0.0
 40
0
 41
0
  0
VERTEX
  8
0
 10
5.02121
 20
8.44249
 30
0.0
 40
0
 41
0
  0
VERTEX
  8
0
 10
5.01383
 20
8.46337
 30
0.0
 40
0
 41
0
  0
VERTEX
  8
0
 10
5.00569
 20
8.48867
 30
0.0
 40
0
 41
0
  0
VERTEX
  8
0
 10
5.00017
 20
8.50862
 30
0.0
 40
0
 41
0
  0
VERTEX
  8
0
 10
4.99815
 20
8.51753
 30
0.0
 40
0
 41
0
  0
VERTEX
  8
0
 10
4.99815
 20
8.52046
 30
0.0
 40
0
 41
0
  0
VERTEX
  8
0
 10
4.99815
 20
8.52572
 30
0.0
 40
0
 41
0
  0
VERTEX
  8
0
 10
5.00874
 20
8.54139
 30
0.0
 40
0
 41
0
  0
VERTEX
  8
0
 10
5.03851
 20
8.57758
 30
0.0
 40
0
 41
0
  0
VERTEX
  8
0
 10
5.08447
 20
8.62608
 30
0.0
 40
0
 41
0
  0
VERTEX
  8
0
 10
5.14361
 20
8.68403
 30
0.0
 40
0
 41
0
  0
VERTEX
  8
0
 10
5.21283
 20
8.74854
 30
0.0
 40
0
 41
0
  0
VERTEX
  8
0
 10
5.28922
 20
8.81674
 30
0.0
 40
0
 41
0
  0
VERTEX
  8
0
 10
5.36968
 20
8.88574
 30
0.0
 40
0
 41
0
  0
VERTEX
  8
0
 10
5.43067
 20
8.93619
 30
0.0
 40
0
 41
0
  0
VERTEX
  8
0
 10
5.45128
 20
8.95269
 30
0.0
 40
0
 41
0
  0
VERTEX
  8
0
 10
5.51118
 20
9.00071
 30
0.0
 40
0
 41
0
  0
VERTEX
  8
0
 10
5.69732
 20
9.13672
 30
0.0
 40
0
 41
0
  0
VERTEX
  8
0
 10
5.98867
 20
9.33306
 30
0.0
 40
0
 41
0
  0
VERTEX
  8
0
 10
6.29992
 20
9.52556
 30
0.0
 40
0
 41
0
  0
VERTEX
  8
0
 10
6.52826
 20
9.65653
 30
0.0
 40
0
 41
0
  0
VERTEX
  8
0
 10
6.60574
 20
9.69764
 30
0.0
 40
0
 41
0
  0
VERTEX
  8
0
 10
6.61708
 20
9.70372
 30
0.0
 40
0
 41
0
  0
VERTEX
  8
0
 10
6.65115
 20
9.722
 30
0.0
 40
0
 41
0
  0
VERTEX
  8
0
 10
6.68257
 20
9.73953
 30
0.0
 40
0
 41
0
  0
VERTEX
  8
0
 10
6.69965
 20
9.75032
 30
0.0
 40
0
 41
0
  0
VERTEX
  8
0
 10
6.70188
 20
9.75439
 30
0.0
 40
0
 41
0
  0
VERTEX
  8
0
 10
6.68886
 20
9.7519
 30
0.0
 40
0
 41
0
  0
VERTEX
  8
0
 10
6.6601
 20
9.74289
 30
0.0
 40
0
 41
0
  0
VERTEX
  8
0
 10
6.61529
 20
9.72732
 30
0.0
 40
0
 41
0
  0
VERTEX
  8
0
 10
6.56917
 20
9.71089
 30
0.0
 40
0
 41
0
  0
VERTEX
  8
0
 10
6.55388
 20
9.70535
 30
0.0
 40
0
 41
0
  0
VERTEX
  8
0
 10
6.49756
 20
9.68511
 30
0.0
 40
0
 41
0
  0
VERTEX
  8
0
 10
6.33035
 20
9.61968
 30
0.0
 40
0
 41
0
  0
VERTEX
  8
0
 10
6.10508
 20
9.52333
 30
0.0
 40
0
 41
0
  0
VERTEX
  8
0
 10
5.88178
 20
9.41824
 30
0.0
 40
0
 41
0
  0
VERTEX
  8
0
 10
5.66396
 20
9.30632
 30
0.0
 40
0
 41
0
  0
VERTEX
  8
0
 10
5.45535
 20
9.18961
 30
0.0
 40
0
 41
0
  0
VERTEX
  8
0
 10
5.25956
 20
9.07004
 30
0.0
 40
0
 41
0
  0
VERTEX
  8
0
 10
5.08024
 20
8.94954
 30
0.0
 40
0
 41
0
  0
VERTEX
  8
0
 10
4.9599
 20
8.86111
 30
0.0
 40
0
 41
0
  0
VERTEX
  8
0
 10
4.92106
 20
8.83003
 30
0.0
 40
0
 41
0
  0
VERTEX
  8
0
 10
4.80751
 20
8.73921
 30
0.0
 40
0
 41
0
  0
VERTEX
  8
0
 10
4.74918
 20
8.76921
 30
0.0
 40
0
 41
0
  0
VERTEX
  8
0
 10
4.7416
 20
8.77311
 30
0.0
 40
0
 41
0
  0
VERTEX
  8
0
 10
4.72011
 20
8.78711
 30
0.0
 40
0
 41
0
  0
VERTEX
  8
0
 10
4.6849
 20
8.81332
 30
0.0
 40
0
 41
0
  0
VERTEX
  8
0
 10
4.64751
 20
8.84462
 30
0.0
 40
0
 41
0
  0
VERTEX
  8
0
 10
4.62056
 20
8.86931
 30
0.0
 40
0
 41
0
  0
VERTEX
  8
0
 10
4.61199
 20
8.87787
 30
0.0
 40
0
 41
0
  0
VERTEX
  8
0
 10
4.60157
 20
8.88824
 30
0.0
 40
0
 41
0
  0
VERTEX
  8
0
 10
4.57129
 20
8.92025
 30
0.0
 40
0
 41
0
  0
VERTEX
  8
0
 10
4.54275
 20
8.95535
 30
0.0
 40
0
 41
0
  0
VERTEX
  8
0
 10
4.52186
 20
8.98964
 30
0.0
 40
0
 41
0
  0
VERTEX
  8
0
 10
4.50808
 20
9.01926
 30
0.0
 40
0
 41
0
  0
VERTEX
  8
0
 10
4.50412
 20
9.02935
 30
0.0
 40
0
 41
0
  0
VERTEX
  8
0
 10
4.49533
 20
9.05149
 30
0.0
 40
0
 41
0
  0
VERTEX
  8
0
 10
4.47032
 20
9.17665
 30
0.0
 40
0
 41
0
  0
VERTEX
  8
0
 10
4.47217
 20
9.30474
 30
0.0
 40
0
 41
0
  0
VERTEX
  8
0
 10
4.47683
 20
9.32835
 30
0.0
 40
0
 41
0
  0
VERTEX
  8
0
 10
4.48383
 20
9.36436
 30
0.0
 40
0
 41
0
  0
VERTEX
  8
0
 10
4.51411
 20
9.4706
 30
0.0
 40
0
 41
0
  0
VERTEX
  8
0
 10
4.5701
 20
9.62022
 30
0.0
 40
0
 41
0
  0
VERTEX
  8
0
 10
4.6396
 20
9.7654
 30
0.0
 40
0
 41
0
  0
VERTEX
  8
0
 10
4.69635
 20
9.86333
 30
0.0
 40
0
 41
0
  0
VERTEX
  8
0
 10
4.71772
 20
9.89421
 30
0.0
 40
0
 41
0
  0
VERTEX
  8
0
 10
4.72993
 20
9.91194
 30
0.0
 40
0
 41
0
  0
VERTEX
  8
0
 10
4.76969
 20
9.963
 30
0.0
 40
0
 41
0
  0
VERTEX
  8
0
 10
4.83128
 20
10.0361
 30
0.0
 40
0
 41
0
  0
VERTEX
  8
0
 10
4.88519
 20
10.0942
 30
0.0
 40
0
 41
0
  0
VERTEX
  8
0
 10
4.90722
 20
10.1179
 30
0.0
 40
0
 41
0
  0
VERTEX
  8
0
 10
4.91461
 20
10.1179
 30
0.0
 40
0
 41
0
  0
VERTEX
  8
0
 10
4.91656
 20
10.1179
 30
0.0
 40
0
 41
0
  0
VERTEX
  8
0
 10
4.92258
 20
10.1066
 30
0.0
 40
0
 41
0
  0
VERTEX
  8
0
 10
4.92914
 20
10.0845
 30
0.0
 40
0
 41
0
  0
VERTEX
  8
0
 10
4.93018
 20
10.0792
 30
0.0
 40
0
 41
0
  0
VERTEX
  8
0
 10
4.93181
 20
10.0704
 30
0.0
 40
0
 41
0
  0
VERTEX
  8
0
 10
4.9394
 20
10.0443
 30
0.0
 40
0
 41
0
  0
VERTEX
  8
0
 10
4.95215
 20
10.0129
 30
0.0
 40
0
 41
0
  0
VERTEX
  8
0
 10
4.96544
 20
9.99083
 30
0.0
 40
0
 41
0
  0
VERTEX
  8
0
 10
4.97456
 20
9.98372
 30
0.0
 40
0
 41
0
  0
VERTEX
  8
0
 10
4.97635
 20
9.98443
 30
0.0
 40
0
 41
0
  0
VERTEX
  8
0
 10
4.97743
 20
9.98492
 30
0.0
 40
0
 41
0
  0
VERTEX
  8
0
 10
4.98568
 20
9.99311
 30
0.0
 40
0
 41
0
  0
VERTEX
  8
0
 10
5.00499
 20
10.0143
 30
0.0
 40
0
 41
0
  0
VERTEX
  8
0
 10
5.03157
 20
10.0448
 30
0.0
 40
0
 41
0
  0
VERTEX
  8
0
 10
5.05485
 20
10.0723
 30
0.0
 40
0
 41
0
  0
VERTEX
  8
0
 10
5.0625
 20
10.0814
 30
0.0
 40
0
 41
0
  0
VERTEX
  8
0
 10
5.07835
 20
10.1005
 30
0.0
 40
0
 41
0
  0
VERTEX
  8
0
 10
5.12819
 20
10.1558
 30
0.0
 40
0
 41
0
  0
VERTEX
  8
0
 10
5.19846
 20
10.2284
 30
0.0
 40
0
 41
0
  0
VERTEX
  8
0
 10
5.25732
 20
10.2835
 30
0.0
 40
0
 41
0
  0
VERTEX
  8
0
 10
5.28097
 20
10.3054
 30
0.0
 40
0
 41
0
  0
VERTEX
  8
0
 10
5.2889
 20
10.3054
 30
0.0
 40
0
 41
0
  0
VERTEX
  8
0
 10
5.29004
 20
10.3054
 30
0.0
 40
0
 41
0
  0
VERTEX
  8
0
 10
5.29351
 20
10.2917
 30
0.0
 40
0
 41
0
  0
VERTEX
  8
0
 10
5.29308
 20
10.2651
 30
0.0
 40
0
 41
0
  0
VERTEX
  8
0
 10
5.29237
 20
10.2587
 30
0.0
 40
0
 41
0
  0
VERTEX
  8
0
 10
5.29124
 20
10.2489
 30
0.0
 40
0
 41
0
  0
VERTEX
  8
0
 10
5.29204
 20
10.219
 30
0.0
 40
0
 41
0
  0
VERTEX
  8
0
 10
5.29958
 20
10.1841
 30
0.0
 40
0
 41
0
  0
VERTEX
  8
0
 10
5.31353
 20
10.1577
 30
0.0
 40
0
 41
0
  0
VERTEX
  8
0
 10
5.32731
 20
10.1453
 30
0.0
 40
0
 41
0
  0
VERTEX
  8
0
 10
5.33268
 20
10.1436
 30
0.0
 40
0
 41
0
  0
VERTEX
  8
0
 10
5.33561
 20
10.1426
 30
0.0
 40
0
 41
0
  0
VERTEX
  8
0
 10
5.34592
 20
10.1446
 30
0.0
 40
0
 41
0
  0
VERTEX
  8
0
 10
5.36481
 20
10.1562
 30
0.0
 40
0
 41
0
  0
VERTEX
  8
0
 10
5.39199
 20
10.1806
 30
0.0
 40
0
 41
0
  0
VERTEX
  8
0
 10
5.42085
 20
10.2099
 30
0.0
 40
0
 41
0
  0
VERTEX
  8
0
 10
5.43024
 20
10.2198
 30
0.0
 40
0
 41
0
  0
VERTEX
  8
0
 10
5.43728
 20
10.2274
 30
0.0
 40
0
 41
0
  0
VERTEX
  8
0
 10
5.45931
 20
10.2494
 30
0.0
 40
0
 41
0
  0
VERTEX
  8
0
 10
5.49046
 20
10.2788
 30
0.0
 40
0
 41
0
  0
VERTEX
  8
0
 10
5.52208
 20
10.3066
 30
0.0
 40
0
 41
0
  0
VERTEX
  8
0
 10
5.55251
 20
10.3317
 30
0.0
 40
0
 41
0
  0
VERTEX
  8
0
 10
5.57997
 20
10.3525
 30
0.0
 40
0
 41
0
  0
VERTEX
  8
0
 10
5.60286
 20
10.3679
 30
0.0
 40
0
 41
0
  0
VERTEX
  8
0
 10
5.61947
 20
10.3764
 30
0.0
 40
0
 41
0
  0
VERTEX
  8
0
 10
5.62711
 20
10.3778
 30
0.0
 40
0
 41
0
  0
VERTEX
  8
0
 10
5.62815
 20
10.3767
 30
0.0
 40
0
 41
0
  0
VERTEX
  8
0
 10
5.62879
 20
10.3761
 30
0.0
 40
0
 41
0
  0
VERTEX
  8
0
 10
5.6281
 20
10.3637
 30
0.0
 40
0
 41
0
  0
VERTEX
  8
0
 10
5.62261
 20
10.3438
 30
0.0
 40
0
 41
0
  0
VERTEX
  8
0
 10
5.62093
 20
10.3393
 30
0.0
 40
0
 41
0
  0
VERTEX
  8
0
 10
5.618
 20
10.3316
 30
0.0
 40
0
 41
0
  0
VERTEX
  8
0
 10
5.6149
 20
10.3063
 30
0.0
 40
0
 41
0
  0
VERTEX
  8
0
 10
5.618
 20
10.2703
 30
0.0
 40
0
 41
0
  0
VERTEX
  8
0
 10
5.62875
 20
10.2387
 30
0.0
 40
0
 41
0
  0
VERTEX
  8
0
 10
5.6404
 20
10.2218
 30
0.0
 40
0
 41
0
  0
VERTEX
  8
0
 10
5.64578
 20
10.2184
 30
0.0
 40
0
 41
0
  0
VERTEX
  8
0
 10
5.64806
 20
10.217
 30
0.0
 40
0
 41
0
  0
VERTEX
  8
0
 10
5.65631
 20
10.2149
 30
0.0
 40
0
 41
0
  0
VERTEX
  8
0
 10
5.66872
 20
10.218
 30
0.0
 40
0
 41
0
  0
VERTEX
  8
0
 10
5.68528
 20
10.2291
 30
0.0
 40
0
 41
0
  0
VERTEX
  8
0
 10
5.70275
 20
10.244
 30
0.0
 40
0
 41
0
  0
VERTEX
  8
0
 10
5.70839
 20
10.2492
 30
0.0
 40
0
 41
0
  0
VERTEX
  8
0
 10
5.72624
 20
10.2657
 30
0.0
 40
0
 41
0
  0
VERTEX
  8
0
 10
5.7845
 20
10.3101
 30
0.0
 40
0
 41
0
  0
VERTEX
  8
0
 10
5.87381
 20
10.3687
 30
0.0
 40
0
 41
0
  0
VERTEX
  8
0
 10
5.95583
 20
10.4129
 30
0.0
 40
0
 41
0
  0
VERTEX
  8
0
 10
5.99653
 20
10.4304
 30
0.0
 40
0
 41
0
  0
VERTEX
  8
0
 10
6.0101
 20
10.4304
 30
0.0
 40
0
 41
0
  0
SEQEND
 8
0
  0
POLYLINE
  8
0
 62
     250
 66
     1
 10
0
 20
0
 30
0.0
 70
     1
 40
0
 41
0
  0
VERTEX
  8
0
 10
2.50401
 20
10.4291
 30
0.0
 40
0
 41
0
  0
VERTEX
  8
0
 10
2.50683
 20
10.4293
 30
0.0
 40
0
 41
0
  0
VERTEX
  8
0
 10
2.53483
 20
10.4198
 30
0.0
 40
0
 41
0
  0
VERTEX
  8
0
 10
2.58247
 20
10.397
 30
0.0
 40
0
 41
0
  0
VERTEX
  8
0
 10
2.59517
 20
10.3904
 30
0.0
 40
0
 41
0
  0
VERTEX
  8
0
 10
2.61089
 20
10.3823
 30
0.0
 40
0
 41
0
  0
VERTEX
  8
0
 10
2.65674
 20
10.355
 30
0.0
 40
0
 41
0
  0
VERTEX
  8
0
 10
2.71978
 20
10.3128
 30
0.0
 40
0
 41
0
  0
VERTEX
  8
0
 10
2.77544
 20
10.2703
 30
0.0
 40
0
 41
0
  0
VERTEX
  8
0
 10
2.80587
 20
10.2437
 30
0.0
 40
0
 41
0
  0
VERTEX
  8
0
 10
2.81483
 20
10.2337
 30
0.0
 40
0
 41
0
  0
VERTEX
  8
0
 10
2.82113
 20
10.2267
 30
0.0
 40
0
 41
0
  0
VERTEX
  8
0
 10
2.84814
 20
10.2128
 30
0.0
 40
0
 41
0
  0
VERTEX
  8
0
 10
2.87272
 20
10.2277
 30
0.0
 40
0
 41
0
  0
VERTEX
  8
0
 10
2.87776
 20
10.2348
 30
0.0
 40
0
 41
0
  0
VERTEX
  8
0
 10
2.88194
 20
10.2408
 30
0.0
 40
0
 41
0
  0
VERTEX
  8
0
 10
2.88889
 20
10.2627
 30
0.0
 40
0
 41
0
  0
VERTEX
  8
0
 10
2.89344
 20
10.2987
 30
0.0
 40
0
 41
0
  0
VERTEX
  8
0
 10
2.89111
 20
10.3328
 30
0.0
 40
0
 41
0
  0
VERTEX
  8
0
 10
2.88558
 20
10.3513
 30
0.0
 40
0
 41
0
  0
VERTEX
  8
0
 10
2.88163
 20
10.3553
 30
0.0
 40
0
 41
0
  0
VERTEX
  8
0
 10
2.87989
 20
10.357
 30
0.0
 40
0
 41
0
  0
VERTEX
  8
0
 10
2.87489
 20
10.3659
 30
0.0
 40
0
 41
0
  0
VERTEX
  8
0
 10
2.87511
 20
10.3734
 30
0.0
 40
0
 41
0
  0
VERTEX
  8
0
 10
2.87603
 20
10.3743
 30
0.0
 40
0
 41
0
  0
VERTEX
  8
0
 10
2.87728
 20
10.3755
 30
0.0
 40
0
 41
0
  0
VERTEX
  8
0
 10
2.88499
 20
10.3754
 30
0.0
 40
0
 41
0
  0
VERTEX
  8
0
 10
2.90088
 20
10.3689
 30
0.0
 40
0
 41
0
  0
VERTEX
  8
0
 10
2.92253
 20
10.3556
 30
0.0
 40
0
 41
0
  0
VERTEX
  8
0
 10
2.94874
 20
10.3366
 30
0.0
 40
0
 41
0
  0
VERTEX
  8
0
 10
2.97831
 20
10.3128
 30
0.0
 40
0
 41
0
  0
VERTEX
  8
0
 10
3.0101
 20
10.285
 30
0.0
 40
0
 41
0
  0
VERTEX
  8
0
 10
3.04292
 20
10.2541
 30
0.0
 40
0
 41
0
  0
VERTEX
  8
0
 10
3.0676
 20
10.2294
 30
0.0
 40
0
 41
0
  0
VERTEX
  8
0
 10
3.07563
 20
10.221
 30
0.0
 40
0
 41
0
  0
VERTEX
  8
0
 10
3.0829
 20
10.2133
 30
0.0
 40
0
 41
0
  0
VERTEX
  8
0
 10
3.10493
 20
10.1903
 30
0.0
 40
0
 41
0
  0
VERTEX
  8
0
 10
3.12717
 20
10.1675
 30
0.0
 40
0
 41
0
  0
VERTEX
  8
0
 10
3.14372
 20
10.1517
 30
0.0
 40
0
 41
0
  0
VERTEX
  8
0
 10
3.15576
 20
10.1421
 30
0.0
 40
0
 41
0
  0
VERTEX
  8
0
 10
3.16465
 20
10.1379
 30
0.0
 40
0
 41
0
  0
VERTEX
  8
0
 10
3.17165
 20
10.1381
 30
0.0
 40
0
 41
0
  0
VERTEX
  8
0
 10
3.17806
 20
10.1419
 30
0.0
 40
0
 41
0
  0
VERTEX
  8
0
 10
3.18338
 20
10.1469
 30
0.0
 40
0
 41
0
  0
VERTEX
  8
0
 10
3.18511
 20
10.1486
 30
0.0
 40
0
 41
0
  0
VERTEX
  8
0
 10
3.19174
 20
10.1553
 30
0.0
 40
0
 41
0
  0
VERTEX
  8
0
 10
3.21208
 20
10.197
 30
0.0
 40
0
 41
0
  0
VERTEX
  8
0
 10
3.21571
 20
10.2514
 30
0.0
 40
0
 41
0
  0
VERTEX
  8
0
 10
3.21397
 20
10.2644
 30
0.0
 40
0
 41
0
  0
VERTEX
  8
0
 10
3.21311
 20
10.2706
 30
0.0
 40
0
 41
0
  0
VERTEX
  8
0
 10
3.21283
 20
10.2942
 30
0.0
 40
0
 41
0
  0
VERTEX
  8
0
 10
3.21761
 20
10.3054
 30
0.0
 40
0
 41
0
  0
VERTEX
  8
0
 10
3.21924
 20
10.3054
 30
0.0
 40
0
 41
0
  0
VERTEX
  8
0
 10
3.22244
 20
10.3054
 30
0.0
 40
0
 41
0
  0
VERTEX
  8
0
 10
3.23204
 20
10.298
 30
0.0
 40
0
 41
0
  0
VERTEX
  8
0
 10
3.25597
 20
10.2779
 30
0.0
 40
0
 41
0
  0
VERTEX
  8
0
 10
3.28808
 20
10.248
 30
0.0
 40
0
 41
0
  0
VERTEX
  8
0
 10
3.32542
 20
10.2113
 30
0.0
 40
0
 41
0
  0
VERTEX
  8
0
 10
3.3649
 20
10.1707
 30
0.0
 40
0
 41
0
  0
VERTEX
  8
0
 10
3.4036
 20
10.1294
 30
0.0
 40
0
 41
0
  0
VERTEX
  8
0
 10
3.43858
 20
10.0903
 30
0.0
 40
0
 41
0
  0
VERTEX
  8
0
 10
3.46007
 20
10.065
 30
0.0
 40
0
 41
0
  0
VERTEX
  8
0
 10
3.4669
 20
10.0563
 30
0.0
 40
0
 41
0
  0
VERTEX
  8
0
 10
3.4725
 20
10.0492
 30
0.0
 40
0
 41
0
  0
VERTEX
  8
0
 10
3.48975
 20
10.0281
 30
0.0
 40
0
 41
0
  0
VERTEX
  8
0
 10
3.50976
 20
10.0048
 30
0.0
 40
0
 41
0
  0
VERTEX
  8
0
 10
3.52474
 20
9.98899
 30
0.0
 40
0
 41
0
  0
VERTEX
  8
0
 10
3.53136
 20
9.98312
 30
0.0
 40
0
 41
0
  0
VERTEX
  8
0
 10
3.5325
 20
9.98301
 30
0.0
 40
0
 41
0
  0
VERTEX
  8
0
 10
3.53537
 20
9.98286
 30
0.0
 40
0
 41
0
  0
VERTEX
  8
0
 10
3.54497
 20
9.99615
 30
0.0
 40
0
 41
0
  0
VERTEX
  8
0
 10
3.56114
 20
10.0279
 30
0.0
 40
0
 41
0
  0
VERTEX
  8
0
 10
3.57508
 20
10.0651
 30
0.0
 40
0
 41
0
  0
VERTEX
  8
0
 10
3.58111
 20
10.0874
 30
0.0
 40
0
 41
0
  0
VERTEX
  8
0
 10
3.58122
 20
10.0945
 30
0.0
 40
0
 41
0
  0
VERTEX
  8
0
 10
3.58122
 20
10.0977
 30
0.0
 40
0
 41
0
  0
VERTEX
  8
0
 10
3.58415
 20
10.1111
 30
0.0
 40
0
 41
0
  0
VERTEX
  8
0
 10
3.58919
 20
10.1179
 30
0.0
 40
0
 41
0
  0
VERTEX
  8
0
 10
3.59093
 20
10.1179
 30
0.0
 40
0
 41
0
  0
VERTEX
  8
0
 10
3.59907
 20
10.1179
 30
0.0
 40
0
 41
0
  0
VERTEX
  8
0
 10
3.62354
 20
10.0924
 30
0.0
 40
0
 41
0
  0
VERTEX
  8
0
 10
3.68169
 20
10.0288
 30
0.0
 40
0
 41
0
  0
VERTEX
  8
0
 10
3.74864
 20
9.94656
 30
0.0
 40
0
 41
0
  0
VERTEX
  8
0
 10
3.79383
 20
9.88613
 30
0.0
 40
0
 41
0
  0
VERTEX
  8
0
 10
3.80778
 20
9.86518
 30
0.0
 40
0
 41
0
  0
VERTEX
  8
0
 10
3.84125
 20
9.81489
 30
0.0
 40
0
 41
0
  0
VERTEX
  8
0
 10
3.92589
 20
9.65343
 30
0.0
 40
0
 41
0
  0
VERTEX
  8
0
 10
4.00396
 20
9.44026
 30
0.0
 40
0
 41
0
  0
VERTEX
  8
0
 10
4.03717
 20
9.24328
 30
0.0
 40
0
 41
0
  0
VERTEX
  8
0
 10
4.03244
 20
9.11843
 30
0.0
 40
0
 41
0
  0
VERTEX
  8
0
 10
4.02072
 20
9.07992
 30
0.0
 40
0
 41
0
  0
VERTEX
  8
0
 10
4.01329
 20
9.05561
 30
0.0
 40
0
 41
0
  0
VERTEX
  8
0
 10
3.98107
 20
8.98563
 30
0.0
 40
0
 41
0
  0
VERTEX
  8
0
 10
3.92367
 20
8.90115
 30
0.0
 40
0
 41
0
  0
VERTEX
  8
0
 10
3.85081
 20
8.82943
 30
0.0
 40
0
 41
0
  0
VERTEX
  8
0
 10
3.78754
 20
8.78494
 30
0.0
 40
0
 41
0
  0
VERTEX
  8
0
 10
3.76486
 20
8.77317
 30
0.0
 40
0
 41
0
  0
VERTEX
  8
0
 10
3.70019
 20
8.73964
 30
0.0
 40
0
 41
0
  0
VERTEX
  8
0
 10
3.58615
 20
8.83018
 30
0.0
 40
0
 41
0
  0
VERTEX
  8
0
 10
3.51074
 20
8.89008
 30
0.0
 40
0
 41
0
  0
VERTEX
  8
0
 10
3.27251
 20
9.05447
 30
0.0
 40
0
 41
0
  0
VERTEX
  8
0
 10
2.9075
 20
9.27289
 30
0.0
 40
0
 41
0
  0
VERTEX
  8
0
 10
2.50956
 20
9.47532
 30
0.0
 40
0
 41
0
  0
VERTEX
  8
0
 10
2.20161
 20
9.61117
 30
0.0
 40
0
 41
0
  0
VERTEX
  8
0
 10
2.09711
 20
9.65153
 30
0.0
 40
0
 41
0
  0
VERTEX
  8
0
 10
2.07113
 20
9.66157
 30
0.0
 40
0
 41
0
  0
VERTEX
  8
0
 10
1.99289
 20
9.69081
 30
0.0
 40
0
 41
0
  0
VERTEX
  8
0
 10
1.89285
 20
9.727
 30
0.0
 40
0
 41
0
  0
VERTEX
  8
0
 10
1.81565
 20
9.75347
 30
0.0
 40
0
 41
0
  0
VERTEX
  8
0
 10
1.78288
 20
9.76367
 30
0.0
 40
0
 41
0
  0
VERTEX
  8
0
 10
1.78006
 20
9.76357
 30
0.0
 40
0
 41
0
  0
VERTEX
  8
0
 10
1.78006
 20
9.76357
 30
0.0
 40
0
 41
0
  0
VERTEX
  8
0
 10
1.78944
 20
9.75738
 30
0.0
 40
0
 41
0
  0
VERTEX
  8
0
 10
1.81939
 20
9.74067
 30
0.0
 40
0
 41
0
  0
VERTEX
  8
0
 10
1.86524
 20
9.71604
 30
0.0
 40
0
 41
0
  0
VERTEX
  8
0
 10
1.90799
 20
9.69336
 30
0.0
 40
0
 41
0
  0
VERTEX
  8
0
 10
1.92231
 20
9.68588
 30
0.0
 40
0
 41
0
  0
VERTEX
  8
0
 10
1.98378
 20
9.65375
 30
0.0
 40
0
 41
0
  0
VERTEX
  8
0
 10
2.1651
 20
9.551
 30
0.0
 40
0
 41
0
  0
VERTEX
  8
0
 10
2.42665
 20
9.39208
 30
0.0
 40
0
 41
0
  0
VERTEX
  8
0
 10
2.68494
 20
9.22293
 30
0.0
 40
0
 41
0
  0
VERTEX
  8
0
 10
2.86089
 20
9.10015
 30
0.0
 40
0
 41
0
  0
VERTEX
  8
0
 10
2.91824
 20
9.0574
 30
0.0
 40
0
 41
0
  0
VERTEX
  8
0
 10
2.95188
 20
9.03233
 30
0.0
 40
0
 41
0
  0
VERTEX
  8
0
 10
3.05171
 20
8.95546
 30
0.0
 40
0
 41
0
  0
VERTEX
  8
0
 10
3.16732
 20
8.86133
 30
0.0
 40
0
 41
0
  0
VERTEX
  8
0
 10
3.27431
 20
8.76725
 30
0.0
 40
0
 41
0
  0
VERTEX
  8
0
 10
3.35542
 20
8.69125
 30
0.0
 40
0
 41
0
  0
VERTEX
  8
0
 10
3.38194
 20
8.66536
 30
0.0
 40
0
 41
0
  0
VERTEX
  8
0
 10
3.39231
 20
8.65528
 30
0.0
 40
0
 41
0
  0
VERTEX
  8
0
 10
3.42339
 20
8.62472
 30
0.0
 40
0
 41
0
  0
VERTEX
  8
0
 10
3.45475
 20
8.59338
 30
0.0
 40
0
 41
0
  0
VERTEX
  8
0
 10
3.47732
 20
8.56961
 30
0.0
 40
0
 41
0
  0
VERTEX
  8
0
 10
3.49251
 20
8.55154
 30
0.0
 40
0
 41
0
  0
VERTEX
  8
0
 10
3.50151
 20
8.53749
 30
0.0
 40
0
 41
0
  0
VERTEX
  8
0
 10
3.50581
 20
8.52567
 30
0.0
 40
0
 41
0
  0
VERTEX
  8
0
 10
3.50667
 20
8.51421
 30
0.0
 40
0
 41
0
  0
VERTEX
  8
0
 10
3.50581
 20
8.50467
 30
0.0
 40
0
 41
0
  0
VERTEX
  8
0
 10
3.50543
 20
8.50146
 30
0.0
 40
0
 41
0
  0
VERTEX
  8
0
 10
3.50206
 20
8.4764
 30
0.0
 40
0
 41
0
  0
VERTEX
  8
0
 10
3.47325
 20
8.40354
 30
0.0
 40
0
 41
0
  0
VERTEX
  8
0
 10
3.40821
 20
8.29779
 30
0.0
 40
0
 41
0
  0
VERTEX
  8
0
 10
3.32189
 20
8.19993
 30
0.0
 40
0
 41
0
  0
VERTEX
  8
0
 10
3.25174
 20
8.14085
 30
0.0
 40
0
 41
0
  0
VERTEX
  8
0
 10
3.22586
 20
8.12549
 30
0.0
 40
0
 41
0
  0
VERTEX
  8
0
 10
3.199
 20
8.1096
 30
0.0
 40
0
 41
0
  0
VERTEX
  8
0
 10
3.11344
 20
8.07026
 30
0.0
 40
0
 41
0
  0
VERTEX
  8
0
 10
2.97407
 20
8.01958
 30
0.0
 40
0
 41
0
  0
VERTEX
  8
0
 10
2.81885
 20
7.97706
 30
0.0
 40
0
 41
0
  0
VERTEX
  8
0
 10
2.69917
 20
7.95221
 30
0.0
 40
0
 41
0
  0
VERTEX
  8
0
 10
2.65896
 20
7.94612
 30
0.0
 40
0
 41
0
  0
VERTEX
  8
0
 10
2.63525
 20
7.9426
 30
0.0
 40
0
 41
0
  0
VERTEX
  8
0
 10
2.56342
 20
7.93642
 30
0.0
 40
0
 41
0
  0
VERTEX
  8
0
 10
2.4554
 20
7.93175
 30
0.0
 40
0
 41
0
  0
VERTEX
  8
0
 10
2.361
 20
7.93267
 30
0.0
 40
0
 41
0
  0
VERTEX
  8
0
 10
2.31511
 20
7.93625
 30
0.0
 40
0
 41
0
  0
VERTEX
  8
0
 10
2.30647
 20
7.93961
 30
0.0
 40
0
 41
0
  0
VERTEX
  8
0
 10
2.3041
 20
7.9406
 30
0.0
 40
0
 41
0
  0
VERTEX
  8
0
 10
2.29725
 20
7.94417
 30
0.0
 40
0
 41
0
  0
VERTEX
  8
0
 10
2.29601
 20
7.94851
 30
0.0
 40
0
 41
0
  0
VERTEX
  8
0
 10
2.3036
 20
7.95394
 30
0.0
 40
0
 41
0
  0
VERTEX
  8
0
 10
2.31646
 20
7.95979
 30
0.0
 40
0
 41
0
  0
VERTEX
  8
0
 10
2.32086
 20
7.96158
 30
0.0
 40
0
 41
0
  0
VERTEX
  8
0
 10
2.32986
 20
7.96533
 30
0.0
 40
0
 41
0
  0
VERTEX
  8
0
 10
2.35568
 20
7.97982
 30
0.0
 40
0
 41
0
  0
VERTEX
  8
0
 10
2.38574
 20
8.00228
 30
0.0
 40
0
 41
0
  0
VERTEX
  8
0
 10
2.40685
 20
8.02528
 30
0.0
 40
0
 41
0
  0
VERTEX
  8
0
 10
2.41482
 20
8.04015
 30
0.0
 40
0
 41
0
  0
VERTEX
  8
0
 10
2.41482
 20
8.04508
 30
0.0
 40
0
 41
0
  0
VERTEX
  8
0
 10
2.41482
 20
8.04856
 30
0.0
 40
0
 41
0
  0
VERTEX
  8
0
 10
2.40972
 20
8.05897
 30
0.0
 40
0
 41
0
  0
VERTEX
  8
0
 10
2.38906
 20
8.06836
 30
0.0
 40
0
 41
0
  0
VERTEX
  8
0
 10
2.34483
 20
8.07519
 30
0.0
 40
0
 41
0
  0
VERTEX
  8
0
 10
2.28792
 20
8.08014
 30
0.0
 40
0
 41
0
  0
VERTEX
  8
0
 10
2.26899
 20
8.08149
 30
0.0
 40
0
 41
0
  0
VERTEX
  8
0
 10
2.23801
 20
8.08371
 30
0.0
 40
0
 41
0
  0
VERTEX
  8
0
 10
2.1454
 20
8.09554
 30
0.0
 40
0
 41
0
  0
VERTEX
  8
0
 10
2.02615
 20
8.11703
 30
0.0
 40
0
 41
0
  0
VERTEX
  8
0
 10
1.93838
 20
8.14008
 30
0.0
 40
0
 41
0
  0
VERTEX
  8
0
 10
1.90907
 20
8.15875
 30
0.0
 40
0
 41
0
  0
VERTEX
  8
0
 10
1.90918
 20
8.15886
 30
0.0
 40
0
 41
0
  0
VERTEX
  8
0
 10
1.90989
 20
8.1601
 30
0.0
 40
0
 41
0
  0
VERTEX
  8
0
 10
1.92361
 20
8.16704
 30
0.0
 40
0
 41
0
  0
VERTEX
  8
0
 10
1.94586
 20
8.1735
 30
0.0
 40
0
 41
0
  0
VERTEX
  8
0
 10
1.95085
 20
8.17443
 30
0.0
 40
0
 41
0
  0
VERTEX
  8
0
 10
1.95942
 20
8.17606
 30
0.0
 40
0
 41
0
  0
VERTEX
  8
0
 10
1.98421
 20
8.18668
 30
0.0
 40
0
 41
0
  0
VERTEX
  8
0
 10
2.01704
 20
8.20714
 30
0.0
 40
0
 41
0
  0
VERTEX
  8
0
 10
2.03982
 20
8.22863
 30
0.0
 40
0
 41
0
  0
VERTEX
  8
0
 10
2.04449
 20
8.2424
 30
0.0
 40
0
 41
0
  0
VERTEX
  8
0
 10
2.04297
 20
8.24393
 30
0.0
 40
0
 41
0
  0
VERTEX
  8
0
 10
2.04178
 20
8.24511
 30
0.0
 40
0
 41
0
  0
VERTEX
  8
0
 10
2.02979
 20
8.25011
 30
0.0
 40
0
 41
0
  0
VERTEX
  8
0
 10
2.00022
 20
8.26064
 30
0.0
 40
0
 41
0
  0
VERTEX
  8
0
 10
1.95865
 20
8.27399
 30
0.0
 40
0
 41
0
  0
VERTEX
  8
0
 10
1.92182
 20
8.28521
 30
0.0
 40
0
 41
0
  0
VERTEX
  8
0
 10
1.9095
 20
8.28874
 30
0.0
 40
0
 41
0
  0
VERTEX
  8
0
 10
1.87864
 20
8.29775
 30
0.0
 40
0
 41
0
  0
VERTEX
  8
0
 10
1.78689
 20
8.32775
 30
0.0
 40
0
 41
0
  0
VERTEX
  8
0
 10
1.68582
 20
8.3661
 30
0.0
 40
0
 41
0
  0
VERTEX
  8
0
 10
1.61719
 20
8.39919
 30
0.0
 40
0
 41
0
  0
VERTEX
  8
0
 10
1.5919
 20
8.41667
 30
0.0
 40
0
 41
0
  0
VERTEX
  8
0
 10
1.5919
 20
8.42247
 30
0.0
 40
0
 41
0
  0
VERTEX
  8
0
 10
1.5919
 20
8.42389
 30
0.0
 40
0
 41
0
  0
VERTEX
  8
0
 10
1.6071
 20
8.42811
 30
0.0
 40
0
 41
0
  0
VERTEX
  8
0
 10
1.63444
 20
8.43039
 30
0.0
 40
0
 41
0
  0
VERTEX
  8
0
 10
1.64361
 20
8.43039
 30
0.0
 40
0
 41
0
  0
VERTEX
  8
0
 10
1.65343
 20
8.43039
 30
0.0
 40
0
 41
0
  0
VERTEX
  8
0
 10
1.683
 20
8.43468
 30
0.0
 40
0
 41
0
  0
VERTEX
  8
0
 10
1.7239
 20
8.44532
 30
0.0
 40
0
 41
0
  0
VERTEX
  8
0
 10
1.75597
 20
8.45882
 30
0.0
 40
0
 41
0
  0
VERTEX
  8
0
 10
1.76899
 20
8.46858
 30
0.0
 40
0
 41
0
  0
VERTEX
  8
0
 10
1.76899
 20
8.47179
 30
0.0
 40
0
 41
0
  0
VERTEX
  8
0
 10
1.76899
 20
8.47347
 30
0.0
 40
0
 41
0
  0
VERTEX
  8
0
 10
1.76058
 20
8.47835
 30
0.0
 40
0
 41
0
  0
VERTEX
  8
0
 10
1.73768
 20
8.49143
 30
0.0
 40
0
 41
0
  0
VERTEX
  8
0
 10
1.70378
 20
8.50922
 30
0.0
 40
0
 41
0
  0
VERTEX
  8
0
 10
1.67279
 20
8.52479
 30
0.0
 40
0
 41
0
  0
VERTEX
  8
0
 10
1.66243
 20
8.52979
 30
0.0
 40
0
 41
0
  0
VERTEX
  8
0
 10
1.63867
 20
8.54135
 30
0.0
 40
0
 41
0
  0
VERTEX
  8
0
 10
1.56928
 20
8.57969
 30
0.0
 40
0
 41
0
  0
VERTEX
  8
0
 10
1.46669
 20
8.64133
 30
0.0
 40
0
 41
0
  0
VERTEX
  8
0
 10
1.37912
 20
8.69928
 30
0.0
 40
0
 41
0
  0
VERTEX
  8
0
 10
1.33778
 20
8.73004
 30
0.0
 40
0
 41
0
  0
VERTEX
  8
0
 10
1.33116
 20
8.73807
 30
0.0
 40
0
 41
0
  0
VERTEX
  8
0
 10
1.32937
 20
8.74018
 30
0.0
 40
0
 41
0
  0
VERTEX
  8
0
 10
1.32482
 20
8.74718
 30
0.0
 40
0
 41
0
  0
VERTEX
  8
0
 10
1.32693
 20
8.75136
 30
0.0
 40
0
 41
0
  0
VERTEX
  8
0
 10
1.33995
 20
8.75136
 30
0.0
 40
0
 41
0
  0
VERTEX
  8
0
 10
1.3597
 20
8.74881
 30
0.0
 40
0
 41
0
  0
VERTEX
  8
0
 10
1.36627
 20
8.74783
 30
0.0
 40
0
 41
0
  0
VERTEX
  8
0
 10
1.37733
 20
8.74621
 30
0.0
 40
0
 41
0
  0
VERTEX
  8
0
 10
1.41135
 20
8.74642
 30
0.0
 40
0
 41
0
  0
VERTEX
  8
0
 10
1.45774
 20
8.75261
 30
0.0
 40
0
 41
0
  0
VERTEX
  8
0
 10
1.49387
 20
8.764
 30
0.0
 40
0
 41
0
  0
VERTEX
  8
0
 10
1.50825
 20
8.77474
 30
0.0
 40
0
 41
0
  0
VERTEX
  8
0
 10
1.50819
 20
8.7781
 30
0.0
 40
0
 41
0
  0
VERTEX
  8
0
 10
1.50814
 20
8.77974
 30
0.0
 40
0
 41
0
  0
VERTEX
  8
0
 10
1.50119
 20
8.78706
 30
0.0
 40
0
 41
0
  0
VERTEX
  8
0
 10
1.48247
 20
8.80268
 30
0.0
 40
0
 41
0
  0
VERTEX
  8
0
 10
1.45486
 20
8.82281
 30
0.0
 40
0
 41
0
  0
VERTEX
  8
0
 10
1.42974
 20
8.83979
 30
0.0
 40
0
 41
0
  0
VERTEX
  8
0
 10
1.42128
 20
8.84521
 30
0.0
 40
0
 41
0
  0
VERTEX
  8
0
 10
1.41086
 20
8.85189
 30
0.0
 40
0
 41
0
  0
VERTEX
  8
0
 10
1.38032
 20
8.8731
 30
0.0
 40
0
 41
0
  0
VERTEX
  8
0
 10
1.3329
 20
8.90788
 30
0.0
 40
0
 41
0
  0
VERTEX
  8
0
 10
1.28483
 20
8.94521
 30
0.0
 40
0
 41
0
  0
VERTEX
  8
0
 10
1.2525
 20
8.97157
 30
0.0
 40
0
 41
0
  0
VERTEX
  8
0
 10
1.24202
 20
8.98062
 30
0.0
 40
0
 41
0
  0
VERTEX
  8
0
 10
1.14931
 20
9.0606
 30
0.0
 40
0
 41
0
  0
VERTEX
  8
0
 10
1.23258
 20
9.06581
 30
0.0
 40
0
 41
0
  0
VERTEX
  8
0
 10
1.24089
 20
9.06635
 30
0.0
 40
0
 41
0
  0
VERTEX
  8
0
 10
1.2659
 20
9.06853
 30
0.0
 40
0
 41
0
  0
VERTEX
  8
0
 10
1.29519
 20
9.072
 30
0.0
 40
0
 41
0
  0
VERTEX
  8
0
 10
1.31722
 20
9.07579
 30
0.0
 40
0
 41
0
  0
VERTEX
  8
0
 10
1.32704
 20
9.07829
 30
0.0
 40
0
 41
0
  0
VERTEX
  8
0
 10
1.32888
 20
9.07943
 30
0.0
 40
0
 41
0
  0
VERTEX
  8
0
 10
1.32981
 20
9.08003
 30
0.0
 40
0
 41
0
  0
VERTEX
  8
0
 10
1.32628
 20
9.09158
 30
0.0
 40
0
 41
0
  0
VERTEX
  8
0
 10
1.3042
 20
9.12001
 30
0.0
 40
0
 41
0
  0
VERTEX
  8
0
 10
1.26156
 20
9.1659
 30
0.0
 40
0
 41
0
  0
VERTEX
  8
0
 10
1.21354
 20
9.21451
 30
0.0
 40
0
 41
0
  0
VERTEX
  8
0
 10
1.19737
 20
9.23047
 30
0.0
 40
0
 41
0
  0
VERTEX
  8
0
 10
1.18495
 20
9.24274
 30
0.0
 40
0
 41
0
  0
VERTEX
  8
0
 10
1.148
 20
9.27974
 30
0.0
 40
0
 41
0
  0
VERTEX
  8
0
 10
1.10742
 20
9.3214
 30
0.0
 40
0
 41
0
  0
VERTEX
  8
0
 10
1.07563
 20
9.35558
 30
0.0
 40
0
 41
0
  0
VERTEX
  8
0
 10
1.05252
 20
9.38222
 30
0.0
 40
0
 41
0
  0
VERTEX
  8
0
 10
1.03809
 20
9.40153
 30
0.0
 40
0
 41
0
  0
VERTEX
  8
0
 10
1.03228
 20
9.41342
 30
0.0
 40
0
 41
0
  0
VERTEX
  8
0
 10
1.03505
 20
9.41803
 30
0.0
 40
0
 41
0
  0
VERTEX
  8
0
 10
1.04367
 20
9.41639
 30
0.0
 40
0
 41
0
  0
VERTEX
  8
0
 10
1.04639
 20
9.41531
 30
0.0
 40
0
 41
0
  0
VERTEX
  8
0
 10
1.05371
 20
9.41237
 30
0.0
 40
0
 41
0
  0
VERTEX
  8
0
 10
1.08171
 20
9.40739
 30
0.0
 40
0
 41
0
  0
VERTEX
  8
0
 10
1.1333
 20
9.40196
 30
0.0
 40
0
 41
0
  0
VERTEX
  8
0
 10
1.18506
 20
9.40022
 30
0.0
 40
0
 41
0
  0
VERTEX
  8
0
 10
1.21354
 20
9.40132
 30
0.0
 40
0
 41
0
  0
VERTEX
  8
0
 10
1.22119
 20
9.40321
 30
0.0
 40
0
 41
0
  0
VERTEX
  8
0
 10
1.22656
 20
9.40457
 30
0.0
 40
0
 41
0
  0
VERTEX
  8
0
 10
1.24159
 20
9.41308
 30
0.0
 40
0
 41
0
  0
VERTEX
  8
0
 10
1.24637
 20
9.4285
 30
0.0
 40
0
 41
0
  0
VERTEX
  8
0
 10
1.23562
 20
9.44933
 30
0.0
 40
0
 41
0
  0
VERTEX
  8
0
 10
1.21636
 20
9.46962
 30
0.0
 40
0
 41
0
  0
VERTEX
  8
0
 10
1.20936
 20
9.47558
 30
0.0
 40
0
 41
0
  0
VERTEX
  8
0
 10
1.18533
 20
9.49599
 30
0.0
 40
0
 41
0
  0
VERTEX
  8
0
 10
1.11556
 20
9.55979
 30
0.0
 40
0
 41
0
  0
VERTEX
  8
0
 10
1.03841
 20
9.63743
 30
0.0
 40
0
 41
0
  0
VERTEX
  8
0
 10
0.986111
 20
9.69965
 30
0.0
 40
0
 41
0
  0
VERTEX
  8
0
 10
0.966906
 20
9.72814
 30
0.0
 40
0
 41
0
  0
VERTEX
  8
0
 10
0.966906
 20
9.73763
 30
0.0
 40
0
 41
0
  0
VERTEX
  8
0
 10
0.966906
 20
9.73958
 30
0.0
 40
0
 41
0
  0
VERTEX
  8
0
 10
0.978136
 20
9.74539
 30
0.0
 40
0
 41
0
  0
VERTEX
  8
0
 10
1.00738
 20
9.74338
 30
0.0
 40
0
 41
0
  0
VERTEX
  8
0
 10
1.01638
 20
9.74186
 30
0.0
 40
0
 41
0
  0
VERTEX
  8
0
 10
1.02946
 20
9.73975
 30
0.0
 40
0
 41
0
  0
VERTEX
  8
0
 10
1.06923
 20
9.73546
 30
0.0
 40
0
 41
0
  0
VERTEX
  8
0
 10
1.11697
 20
9.73346
 30
0.0
 40
0
 41
0
  0
VERTEX
  8
0
 10
1.15148
 20
9.73589
 30
0.0
 40
0
 41
0
  0
VERTEX
  8
0
 10
1.16482
 20
9.741
 30
0.0
 40
0
 41
0
  0
VERTEX
  8
0
 10
1.16482
 20
9.74268
 30
0.0
 40
0
 41
0
  0
VERTEX
  8
0
 10
1.16482
 20
9.75624
 30
0.0
 40
0
 41
0
  0
VERTEX
  8
0
 10
1.15001
 20
9.79682
 30
0.0
 40
0
 41
0
  0
VERTEX
  8
0
 10
1.11372
 20
9.88226
 30
0.0
 40
0
 41
0
  0
VERTEX
  8
0
 10
1.06765
 20
9.97353
 30
0.0
 40
0
 41
0
  0
VERTEX
  8
0
 10
1.03613
 20
10.0282
 30
0.0
 40
0
 41
0
  0
VERTEX
  8
0
 10
1.02387
 20
10.045
 30
0.0
 40
0
 41
0
  0
VERTEX
  8
0
 10
0.989692
 20
10.092
 30
0.0
 40
0
 41
0
  0
VERTEX
  8
0
 10
1.17882
 20
10.0922
 30
0.0
 40
0
 41
0
  0
VERTEX
  8
0
 10
1.19797
 20
10.0923
 30
0.0
 40
0
 41
0
  0
VERTEX
  8
0
 10
1.25543
 20
10.093
 30
0.0
 40
0
 41
0
  0
VERTEX
  8
0
 10
1.32427
 20
10.0948
 30
0.0
 40
0
 41
0
  0
VERTEX
  8
0
 10
1.37782
 20
10.0975
 30
0.0
 40
0
 41
0
  0
VERTEX
  8
0
 10
1.40294
 20
10.0996
 30
0.0
 40
0
 41
0
  0
VERTEX
  8
0
 10
1.40853
 20
10.1008
 30
0.0
 40
0
 41
0
  0
VERTEX
  8
0
 10
1.44911
 20
10.109
 30
0.0
 40
0
 41
0
  0
VERTEX
  8
0
 10
1.38943
 20
10.1693
 30
0.0
 40
0
 41
0
  0
VERTEX
  8
0
 10
1.38113
 20
10.1777
 30
0.0
 40
0
 41
0
  0
VERTEX
  8
0
 10
1.35672
 20
10.2031
 30
0.0
 40
0
 41
0
  0
VERTEX
  8
0
 10
1.3418
 20
10.2219
 30
0.0
 40
0
 41
0
  0
VERTEX
  8
0
 10
1.34185
 20
10.2312
 30
0.0
 40
0
 41
0
  0
VERTEX
  8
0
 10
1.35091
 20
10.2353
 30
0.0
 40
0
 41
0
  0
VERTEX
  8
0
 10
1.35406
 20
10.2361
 30
0.0
 40
0
 41
0
  0
VERTEX
  8
0
 10
1.35737
 20
10.237
 30
0.0
 40
0
 41
0
  0
VERTEX
  8
0
 10
1.37126
 20
10.2387
 30
0.0
 40
0
 41
0
  0
VERTEX
  8
0
 10
1.40022
 20
10.2408
 30
0.0
 40
0
 41
0
  0
VERTEX
  8
0
 10
1.43696
 20
10.2423
 30
0.0
 40
0
 41
0
  0
VERTEX
  8
0
 10
1.46724
 20
10.2428
 30
0.0
 40
0
 41
0
  0
VERTEX
  8
0
 10
1.47732
 20
10.2428
 30
0.0
 40
0
 41
0
  0
VERTEX
  8
0
 10
1.49658
 20
10.2429
 30
0.0
 40
0
 41
0
  0
VERTEX
  8
0
 10
1.58322
 20
10.2361
 30
0.0
 40
0
 41
0
  0
VERTEX
  8
0
 10
1.68294
 20
10.2163
 30
0.0
 40
0
 41
0
  0
VERTEX
  8
0
 10
1.70882
 20
10.2098
 30
0.0
 40
0
 41
0
  0
VERTEX
  8
0
 10
1.72174
 20
10.2065
 30
0.0
 40
0
 41
0
  0
VERTEX
  8
0
 10
1.76085
 20
10.1974
 30
0.0
 40
0
 41
0
  0
VERTEX
  8
0
 10
1.80453
 20
10.1884
 30
0.0
 40
0
 41
0
  0
VERTEX
  8
0
 10
1.83529
 20
10.1835
 30
0.0
 40
0
 41
0
  0
VERTEX
  8
0
 10
1.8475
 20
10.1826
 30
0.0
 40
0
 41
0
  0
VERTEX
  8
0
 10
1.84847
 20
10.1835
 30
0.0
 40
0
 41
0
  0
VERTEX
  8
0
 10
1.8514
 20
10.1865
 30
0.0
 40
0
 41
0
  0
VERTEX
  8
0
 10
1.85465
 20
10.2009
 30
0.0
 40
0
 41
0
  0
VERTEX
  8
0
 10
1.85368
 20
10.2273
 30
0.0
 40
0
 41
0
  0
VERTEX
  8
0
 10
1.84663
 20
10.2552
 30
0.0
 40
0
 41
0
  0
VERTEX
  8
0
 10
1.83871
 20
10.2722
 30
0.0
 40
0
 41
0
  0
VERTEX
  8
0
 10
1.83475
 20
10.2767
 30
0.0
 40
0
 41
0
  0
VERTEX
  8
0
 10
1.83214
 20
10.2796
 30
0.0
 40
0
 41
0
  0
VERTEX
  8
0
 10
1.81218
 20
10.2974
 30
0.0
 40
0
 41
0
  0
VERTEX
  8
0
 10
1.7889
 20
10.3146
 30
0.0
 40
0
 41
0
  0
VERTEX
  8
0
 10
1.78461
 20
10.3173
 30
0.0
 40
0
 41
0
  0
VERTEX
  8
0
 10
1.75336
 20
10.3366
 30
0.0
 40
0
 41
0
  0
VERTEX
  8
0
 10
1.80024
 20
10.3365
 30
0.0
 40
0
 41
0
  0
VERTEX
  8
0
 10
1.81342
 20
10.3365
 30
0.0
 40
0
 41
0
  0
VERTEX
  8
0
 10
1.85303
 20
10.3314
 30
0.0
 40
0
 41
0
  0
VERTEX
  8
0
 10
1.92453
 20
10.3173
 30
0.0
 40
0
 41
0
  0
VERTEX
  8
0
 10
2.00657
 20
10.296
 30
0.0
 40
0
 41
0
  0
VERTEX
  8
0
 10
2.07015
 20
10.2767
 30
0.0
 40
0
 41
0
  0
VERTEX
  8
0
 10
2.0911
 20
10.2695
 30
0.0
 40
0
 41
0
  0
VERTEX
  8
0
 10
2.10574
 20
10.2645
 30
0.0
 40
0
 41
0
  0
VERTEX
  8
0
 10
2.15007
 20
10.2502
 30
0.0
 40
0
 41
0
  0
VERTEX
  8
0
 10
2.18143
 20
10.245
 30
0.0
 40
0
 41
0
  0
VERTEX
  8
0
 10
2.19385
 20
10.2546
 30
0.0
 40
0
 41
0
  0
VERTEX
  8
0
 10
2.19607
 20
10.2736
 30
0.0
 40
0
 41
0
  0
VERTEX
  8
0
 10
2.19607
 20
10.2799
 30
0.0
 40
0
 41
0
  0
VERTEX
  8
0
 10
2.19607
 20
10.2852
 30
0.0
 40
0
 41
0
  0
VERTEX
  8
0
 10
2.19396
 20
10.3008
 30
0.0
 40
0
 41
0
  0
VERTEX
  8
0
 10
2.18604
 20
10.3197
 30
0.0
 40
0
 41
0
  0
VERTEX
  8
0
 10
2.16971
 20
10.3409
 30
0.0
 40
0
 41
0
  0
VERTEX
  8
0
 10
2.14936
 20
10.3618
 30
0.0
 40
0
 41
0
  0
VERTEX
  8
0
 10
2.14236
 20
10.3685
 30
0.0
 40
0
 41
0
  0
VERTEX
  8
0
 10
2.13721
 20
10.3734
 30
0.0
 40
0
 41
0
  0
VERTEX
  8
0
 10
2.12229
 20
10.3885
 30
0.0
 40
0
 41
0
  0
VERTEX
  8
0
 10
2.10742
 20
10.4049
 30
0.0
 40
0
 41
0
  0
VERTEX
  8
0
 10
2.09918
 20
10.416
 30
0.0
 40
0
 41
0
  0
VERTEX
  8
0
 10
2.09901
 20
10.42
 30
0.0
 40
0
 41
0
  0
VERTEX
  8
0
 10
2.09901
 20
10.42
 30
0.0
 40
0
 41
0
  0
VERTEX
  8
0
 10
2.10157
 20
10.42
 30
0.0
 40
0
 41
0
  0
VERTEX
  8
0
 10
2.10921
 20
10.4184
 30
0.0
 40
0
 41
0
  0
VERTEX
  8
0
 10
2.12944
 20
10.4141
 30
0.0
 40
0
 41
0
  0
VERTEX
  8
0
 10
2.15668
 20
10.4077
 30
0.0
 40
0
 41
0
  0
VERTEX
  8
0
 10
2.18024
 20
10.4019
 30
0.0
 40
0
 41
0
  0
VERTEX
  8
0
 10
2.1881
 20
10.3998
 30
0.0
 40
0
 41
0
  0
VERTEX
  8
0
 10
2.21132
 20
10.3939
 30
0.0
 40
0
 41
0
  0
VERTEX
  8
0
 10
2.33729
 20
10.3492
 30
0.0
 40
0
 41
0
  0
VERTEX
  8
0
 10
2.45301
 20
10.2941
 30
0.0
 40
0
 41
0
  0
VERTEX
  8
0
 10
2.47108
 20
10.283
 30
0.0
 40
0
 41
0
  0
VERTEX
  8
0
 10
2.47825
 20
10.2786
 30
0.0
 40
0
 41
0
  0
VERTEX
  8
0
 10
2.50011
 20
10.2658
 30
0.0
 40
0
 41
0
  0
VERTEX
  8
0
 10
2.51731
 20
10.2585
 30
0.0
 40
0
 41
0
  0
VERTEX
  8
0
 10
2.52772
 20
10.2602
 30
0.0
 40
0
 41
0
  0
VERTEX
  8
0
 10
2.53461
 20
10.2673
 30
0.0
 40
0
 41
0
  0
VERTEX
  8
0
 10
2.53651
 20
10.2699
 30
0.0
 40
0
 41
0
  0
VERTEX
  8
0
 10
2.54042
 20
10.2752
 30
0.0
 40
0
 41
0
  0
VERTEX
  8
0
 10
2.54775
 20
10.2944
 30
0.0
 40
0
 41
0
  0
VERTEX
  8
0
 10
2.54856
 20
10.3225
 30
0.0
 40
0
 41
0
  0
VERTEX
  8
0
 10
2.5389
 20
10.3536
 30
0.0
 40
0
 41
0
  0
VERTEX
  8
0
 10
2.52458
 20
10.3793
 30
0.0
 40
0
 41
0
  0
VERTEX
  8
0
 10
2.51887
 20
10.3872
 30
0.0
 40
0
 41
0
  0
VERTEX
  8
0
 10
2.51389
 20
10.394
 30
0.0
 40
0
 41
0
  0
VERTEX
  8
0
 10
2.49972
 20
10.4183
 30
0.0
 40
0
 41
0
  0
VERTEX
  8
0
 10
2.50282
 20
10.4291
 30
0.0
 40
0
 41
0
  0
VERTEX
  8
0
 10
2.50401
 20
10.4291
 30
0.0
 40
0
 41
0
  0
SEQEND
 8
0
  0
POLYLINE
  8
0
 62
     250
 66
     1
 10
0
 20
0
 30
0.0
 70
     1
 40
0
 41
0
  0
VERTEX
  8
0
 10
4.20063
 20
7.91097
 30
0.0
 40
0
 41
0
  0
VERTEX
  8
0
 10
4.22054
 20
7.91118
 30
0.0
 40
0
 41
0
  0
VERTEX
  8
0
 10
4.31614
 20
7.9075
 30
0.0
 40
0
 41
0
  0
VERTEX
  8
0
 10
4.40246
 20
7.89763
 30
0.0
 40
0
 41
0
  0
VERTEX
  8
0
 10
4.41775
 20
7.89469
 30
0.0
 40
0
 41
0
  0
VERTEX
  8
0
 10
4.4656
 20
7.88558
 30
0.0
 40
0
 41
0
  0
VERTEX
  8
0
 10
4.60682
 20
7.84506
 30
0.0
 40
0
 41
0
  0
VERTEX
  8
0
 10
4.77924
 20
7.77106
 30
0.0
 40
0
 41
0
  0
VERTEX
  8
0
 10
4.93701
 20
7.67165
 30
0.0
 40
0
 41
0
  0
VERTEX
  8
0
 10
5.04839
 20
7.57964
 30
0.0
 40
0
 41
0
  0
VERTEX
  8
0
 10
5.08236
 20
7.54574
 30
0.0
 40
0
 41
0
  0
VERTEX
  8
0
 10
5.10075
 20
7.52735
 30
0.0
 40
0
 41
0
  0
VERTEX
  8
0
 10
5.15278
 20
7.46875
 30
0.0
 40
0
 41
0
  0
VERTEX
  8
0
 10
5.19911
 20
7.40001
 30
0.0
 40
0
 41
0
  0
VERTEX
  8
0
 10
5.22547
 20
7.33165
 30
0.0
 40
0
 41
0
  0
VERTEX
  8
0
 10
5.23519
 20
7.27485
 30
0.0
 40
0
 41
0
  0
VERTEX
  8
0
 10
5.23617
 20
7.25575
 30
0.0
 40
0
 41
0
  0
VERTEX
  8
0
 10
5.23665
 20
7.24544
 30
0.0
 40
0
 41
0
  0
VERTEX
  8
0
 10
5.23719
 20
7.21446
 30
0.0
 40
0
 41
0
  0
VERTEX
  8
0
 10
5.23443
 20
7.18354
 30
0.0
 40
0
 41
0
  0
VERTEX
  8
0
 10
5.22661
 20
7.15571
 30
0.0
 40
0
 41
0
  0
VERTEX
  8
0
 10
5.21619
 20
7.13157
 30
0.0
 40
0
 41
0
  0
VERTEX
  8
0
 10
5.2124
 20
7.12369
 30
0.0
 40
0
 41
0
  0
VERTEX
  8
0
 10
5.20383
 20
7.10622
 30
0.0
 40
0
 41
0
  0
VERTEX
  8
0
 10
5.17074
 20
7.05746
 30
0.0
 40
0
 41
0
  0
VERTEX
  8
0
 10
5.11317
 20
6.9924
 30
0.0
 40
0
 41
0
  0
VERTEX
  8
0
 10
5.04508
 20
6.93403
 30
0.0
 40
0
 41
0
  0
VERTEX
  8
0
 10
4.99115
 20
6.89763
 30
0.0
 40
0
 41
0
  0
VERTEX
  8
0
 10
4.97211
 20
6.88764
 30
0.0
 40
0
 41
0
  0
VERTEX
  8
0
 10
4.93978
 20
6.87076
 30
0.0
 40
0
 41
0
  0
VERTEX
  8
0
 10
4.80171
 20
6.80908
 30
0.0
 40
0
 41
0
  0
VERTEX
  8
0
 10
4.68272
 20
6.77328
 30
0.0
 40
0
 41
0
  0
VERTEX
  8
0
 10
4.65994
 20
6.76926
 30
0.0
 40
0
 41
0
  0
VERTEX
  8
0
 10
4.65088
 20
6.76768
 30
0.0
 40
0
 41
0
  0
VERTEX
  8
0
 10
4.62375
 20
6.76275
 30
0.0
 40
0
 41
0
  0
VERTEX
  8
0
 10
4.58708
 20
6.75564
 30
0.0
 40
0
 41
0
  0
VERTEX
  8
0
 10
4.55419
 20
6.74892
 30
0.0
 40
0
 41
0
  0
VERTEX
  8
0
 10
4.53554
 20
6.74485
 30
0.0
 40
0
 41
0
  0
VERTEX
  8
0
 10
4.5294
 20
6.74333
 30
0.0
 40
0
 41
0
  0
VERTEX
  8
0
 10
4.51324
 20
6.73942
 30
0.0
 40
0
 41
0
  0
VERTEX
  8
0
 10
4.45421
 20
6.73361
 30
0.0
 40
0
 41
0
  0
VERTEX
  8
0
 10
4.33968
 20
6.72825
 30
0.0
 40
0
 41
0
  0
VERTEX
  8
0
 10
4.20665
 20
6.72771
 30
0.0
 40
0
 41
0
  0
VERTEX
  8
0
 10
4.10878
 20
6.73042
 30
0.0
 40
0
 41
0
  0
VERTEX
  8
0
 10
4.07628
 20
6.73242
 30
0.0
 40
0
 41
0
  0
VERTEX
  8
0
 10
4.02311
 20
6.73574
 30
0.0
 40
0
 41
0
  0
VERTEX
  8
0
 10
3.86475
 20
6.76232
 30
0.0
 40
0
 41
0
  0
VERTEX
  8
0
 10
3.66015
 20
6.82254
 30
0.0
 40
0
 41
0
  0
VERTEX
  8
0
 10
3.47444
 20
6.90864
 30
0.0
 40
0
 41
0
  0
VERTEX
  8
0
 10
3.35508
 20
6.98551
 30
0.0
 40
0
 41
0
  0
VERTEX
  8
0
 10
3.31961
 20
7.01606
 30
0.0
 40
0
 41
0
  0
VERTEX
  8
0
 10
3.30925
 20
7.02496
 30
0.0
 40
0
 41
0
  0
VERTEX
  8
0
 10
3.28358
 20
7.05778
 30
0.0
 40
0
 41
0
  0
VERTEX
  8
0
 10
3.24539
 20
7.11789
 30
0.0
 40
0
 41
0
  0
VERTEX
  8
0
 10
3.213
 20
7.1824
 30
0.0
 40
0
 41
0
  0
VERTEX
  8
0
 10
3.19715
 20
7.22299
 30
0.0
 40
0
 41
0
  0
VERTEX
  8
0
 10
3.19439
 20
7.23699
 30
0.0
 40
0
 41
0
  0
VERTEX
  8
0
 10
3.19092
 20
7.25413
 30
0.0
 40
0
 41
0
  0
VERTEX
  8
0
 10
3.19889
 20
7.3526
 30
0.0
 40
0
 41
0
  0
VERTEX
  8
0
 10
3.23583
 20
7.44889
 30
0.0
 40
0
 41
0
  0
VERTEX
  8
0
 10
3.2469
 20
7.4649
 30
0.0
 40
0
 41
0
  0
VERTEX
  8
0
 10
3.25874
 20
7.4821
 30
0.0
 40
0
 41
0
  0
VERTEX
  8
0
 10
3.29943
 20
7.53006
 30
0.0
 40
0
 41
0
  0
VERTEX
  8
0
 10
3.36578
 20
7.59478
 30
0.0
 40
0
 41
0
  0
VERTEX
  8
0
 10
3.44325
 20
7.65744
 30
0.0
 40
0
 41
0
  0
VERTEX
  8
0
 10
3.52914
 20
7.71625
 30
0.0
 40
0
 41
0
  0
VERTEX
  8
0
 10
3.62071
 20
7.76958
 30
0.0
 40
0
 41
0
  0
VERTEX
  8
0
 10
3.71522
 20
7.81565
 30
0.0
 40
0
 41
0
  0
VERTEX
  8
0
 10
3.80994
 20
7.85275
 30
0.0
 40
0
 41
0
  0
VERTEX
  8
0
 10
3.87885
 20
7.87386
 30
0.0
 40
0
 41
0
  0
VERTEX
  8
0
 10
3.90224
 20
7.87918
 30
0.0
 40
0
 41
0
  0
VERTEX
  8
0
 10
3.92421
 20
7.88422
 30
0.0
 40
0
 41
0
  0
VERTEX
  8
0
 10
4.04601
 20
7.90229
 30
0.0
 40
0
 41
0
  0
VERTEX
  8
0
 10
4.17503
 20
7.91075
 30
0.0
 40
0
 41
0
  0
VERTEX
  8
0
 10
4.20063
 20
7.91097
 30
0.0
 40
0
 41
0
  0
SEQEND
 8
0
  0
POLYLINE
  8
0
 62
     250
 66
     1
 10
0
 20
0
 30
0.0
 70
     1
 40
0
 41
0
  0
VERTEX
  8
0
 10
5.74072
 20
7.69954
 30
0.0
 40
0
 41
0
  0
VERTEX
  8
0
 10
5.74983
 20
7.69937
 30
0.0
 40
0
 41
0
  0
VERTEX
  8
0
 10
5.79693
 20
7.69596
 30
0.0
 40
0
 41
0
  0
VERTEX
  8
0
 10
5.85232
 20
7.68907
 30
0.0
 40
0
 41
0
  0
VERTEX
  8
0
 10
5.86561
 20
7.68713
 30
0.0
 40
0
 41
0
  0
VERTEX
  8
0
 10
5.89144
 20
7.68343
 30
0.0
 40
0
 41
0
  0
VERTEX
  8
0
 10
5.96843
 20
7.66775
 30
0.0
 40
0
 41
0
  0
VERTEX
  8
0
 10
6.07579
 20
7.63971
 30
0.0
 40
0
 41
0
  0
VERTEX
  8
0
 10
6.17654
 20
7.60622
 30
0.0
 40
0
 41
0
  0
VERTEX
  8
0
 10
6.23953
 20
7.58078
 30
0.0
 40
0
 41
0
  0
VERTEX
  8
0
 10
6.25971
 20
7.57064
 30
0.0
 40
0
 41
0
  0
VERTEX
  8
0
 10
6.32032
 20
7.54015
 30
0.0
 40
0
 41
0
  0
VERTEX
  8
0
 10
6.48926
 20
7.42279
 30
0.0
 40
0
 41
0
  0
VERTEX
  8
0
 10
6.68018
 20
7.23242
 30
0.0
 40
0
 41
0
  0
VERTEX
  8
0
 10
6.82633
 20
7.00726
 30
0.0
 40
0
 41
0
  0
VERTEX
  8
0
 10
6.90483
 20
6.81982
 30
0.0
 40
0
 41
0
  0
VERTEX
  8
0
 10
6.9215
 20
6.75489
 30
0.0
 40
0
 41
0
  0
VERTEX
  8
0
 10
6.92817
 20
6.72885
 30
0.0
 40
0
 41
0
  0
VERTEX
  8
0
 10
6.94293
 20
6.64931
 30
0.0
 40
0
 41
0
  0
VERTEX
  8
0
 10
6.9579
 20
6.53347
 30
0.0
 40
0
 41
0
  0
VERTEX
  8
0
 10
6.96446
 20
6.42763
 30
0.0
 40
0
 41
0
  0
VERTEX
  8
0
 10
6.96382
 20
6.36996
 30
0.0
 40
0
 41
0
  0
VERTEX
  8
0
 10
6.96061
 20
6.35206
 30
0.0
 40
0
 41
0
  0
VERTEX
  8
0
 10
6.95925
 20
6.34462
 30
0.0
 40
0
 41
0
  0
VERTEX
  8
0
 10
6.95449
 20
6.32226
 30
0.0
 40
0
 41
0
  0
VERTEX
  8
0
 10
6.947
 20
6.30658
 30
0.0
 40
0
 41
0
  0
VERTEX
  8
0
 10
6.9336
 20
6.30003
 30
0.0
 40
0
 41
0
  0
VERTEX
  8
0
 10
6.91558
 20
6.29796
 30
0.0
 40
0
 41
0
  0
VERTEX
  8
0
 10
6.90956
 20
6.29758
 30
0.0
 40
0
 41
0
  0
VERTEX
  8
0
 10
6.90326
 20
6.29719
 30
0.0
 40
0
 41
0
  0
VERTEX
  8
0
 10
6.88422
 20
6.29889
 30
0.0
 40
0
 41
0
  0
VERTEX
  8
0
 10
6.85368
 20
6.30675
 30
0.0
 40
0
 41
0
  0
VERTEX
  8
0
 10
6.81332
 20
6.32275
 30
0.0
 40
0
 41
0
  0
VERTEX
  8
0
 10
6.77214
 20
6.34174
 30
0.0
 40
0
 41
0
  0
VERTEX
  8
0
 10
6.75857
 20
6.34836
 30
0.0
 40
0
 41
0
  0
VERTEX
  8
0
 10
6.74669
 20
6.35417
 30
0.0
 40
0
 41
0
  0
VERTEX
  8
0
 10
6.71153
 20
6.37218
 30
0.0
 40
0
 41
0
  0
VERTEX
  8
0
 10
6.66444
 20
6.39746
 30
0.0
 40
0
 41
0
  0
VERTEX
  8
0
 10
6.62272
 20
6.42122
 30
0.0
 40
0
 41
0
  0
VERTEX
  8
0
 10
6.59939
 20
6.43539
 30
0.0
 40
0
 41
0
  0
VERTEX
  8
0
 10
6.5919
 20
6.44043
 30
0.0
 40
0
 41
0
  0
VERTEX
  8
0
 10
6.5849
 20
6.44515
 30
0.0
 40
0
 41
0
  0
VERTEX
  8
0
 10
6.56392
 20
6.45915
 30
0.0
 40
0
 41
0
  0
VERTEX
  8
0
 10
6.53006
 20
6.48133
 30
0.0
 40
0
 41
0
  0
VERTEX
  8
0
 10
6.49463
 20
6.50424
 30
0.0
 40
0
 41
0
  0
VERTEX
  8
0
 10
6.47011
 20
6.51997
 30
0.0
 40
0
 41
0
  0
VERTEX
  8
0
 10
6.46192
 20
6.52512
 30
0.0
 40
0
 41
0
  0
VERTEX
  8
0
 10
6.45318
 20
6.53065
 30
0.0
 40
0
 41
0
  0
VERTEX
  8
0
 10
6.42763
 20
6.54812
 30
0.0
 40
0
 41
0
  0
VERTEX
  8
0
 10
6.38792
 20
6.57676
 30
0.0
 40
0
 41
0
  0
VERTEX
  8
0
 10
6.34776
 20
6.60747
 30
0.0
 40
0
 41
0
  0
VERTEX
  8
0
 10
6.32081
 20
6.62907
 30
0.0
 40
0
 41
0
  0
VERTEX
  8
0
 10
6.31207
 20
6.6365
 30
0.0
 40
0
 41
0
  0
VERTEX
  8
0
 10
6.3036
 20
6.64372
 30
0.0
 40
0
 41
0
  0
VERTEX
  8
0
 10
6.27778
 20
6.66476
 30
0.0
 40
0
 41
0
  0
VERTEX
  8
0
 10
6.24164
 20
6.69331
 30
0.0
 40
0
 41
0
  0
VERTEX
  8
0
 10
6.2079
 20
6.71881
 30
0.0
 40
0
 41
0
  0
VERTEX
  8
0
 10
6.18772
 20
6.73335
 30
0.0
 40
0
 41
0
  0
VERTEX
  8
0
 10
6.18083
 20
6.7379
 30
0.0
 40
0
 41
0
  0
VERTEX
  8
0
 10
6.16401
 20
6.74908
 30
0.0
 40
0
 41
0
  0
VERTEX
  8
0
 10
6.11594
 20
6.78618
 30
0.0
 40
0
 41
0
  0
VERTEX
  8
0
 10
6.0325
 20
6.85612
 30
0.0
 40
0
 41
0
  0
VERTEX
  8
0
 10
5.93619
 20
6.94222
 30
0.0
 40
0
 41
0
  0
VERTEX
  8
0
 10
5.83285
 20
7.03901
 30
0.0
 40
0
 41
0
  0
VERTEX
  8
0
 10
5.72814
 20
7.14106
 30
0.0
 40
0
 41
0
  0
VERTEX
  8
0
 10
5.62782
 20
7.24278
 30
0.0
 40
0
 41
0
  0
VERTEX
  8
0
 10
5.53765
 20
7.33876
 30
0.0
 40
0
 41
0
  0
VERTEX
  8
0
 10
5.48133
 20
7.40186
 30
0.0
 40
0
 41
0
  0
VERTEX
  8
0
 10
5.46332
 20
7.42344
 30
0.0
 40
0
 41
0
  0
VERTEX
  8
0
 10
5.44819
 20
7.44157
 30
0.0
 40
0
 41
0
  0
VERTEX
  8
0
 10
5.40674
 20
7.49908
 30
0.0
 40
0
 41
0
  0
VERTEX
  8
0
 10
5.36985
 20
7.56506
 30
0.0
 40
0
 41
0
  0
VERTEX
  8
0
 10
5.35504
 20
7.61589
 30
0.0
 40
0
 41
0
  0
VERTEX
  8
0
 10
5.35965
 20
7.64193
 30
0.0
 40
0
 41
0
  0
VERTEX
  8
0
 10
5.36486
 20
7.64594
 30
0.0
 40
0
 41
0
  0
VERTEX
  8
0
 10
5.37071
 20
7.65056
 30
0.0
 40
0
 41
0
  0
VERTEX
  8
0
 10
5.44271
 20
7.67133
 30
0.0
 40
0
 41
0
  0
VERTEX
  8
0
 10
5.57264
 20
7.68924
 30
0.0
 40
0
 41
0
  0
VERTEX
  8
0
 10
5.60753
 20
7.69239
 30
0.0
 40
0
 41
0
  0
VERTEX
  8
0
 10
5.62218
 20
7.69374
 30
0.0
 40
0
 41
0
  0
VERTEX
  8
0
 10
5.6824
 20
7.69829
 30
0.0
 40
0
 41
0
  0
VERTEX
  8
0
 10
5.73156
 20
7.69976
 30
0.0
 40
0
 41
0
  0
VERTEX
  8
0
 10
5.74072
 20
7.69954
 30
0.0
 40
0
 41
0
  0
SEQEND
 8
0
  0
POLYLINE
  8
0
 62
     250
 66
     1
 10
0
 20
0
 30
0.0
 70
     1
 40
0
 41
0
  0
VERTEX
  8
0
 10
2.66482
 20
7.69547
 30
0.0
 40
0
 41
0
  0
VERTEX
  8
0
 10
2.70264
 20
7.69564
 30
0.0
 40
0
 41
0
  0
VERTEX
  8
0
 10
2.81629
 20
7.69092
 30
0.0
 40
0
 41
0
  0
VERTEX
  8
0
 10
2.92736
 20
7.67622
 30
0.0
 40
0
 41
0
  0
VERTEX
  8
0
 10
2.99567
 20
7.65192
 30
0.0
 40
0
 41
0
  0
VERTEX
  8
0
 10
3.01899
 20
7.6269
 30
0.0
 40
0
 41
0
  0
VERTEX
  8
0
 10
3.01899
 20
7.61854
 30
0.0
 40
0
 41
0
  0
VERTEX
  8
0
 10
3.01899
 20
7.59814
 30
0.0
 40
0
 41
0
  0
VERTEX
  8
0
 10
2.99289
 20
7.53678
 30
0.0
 40
0
 41
0
  0
VERTEX
  8
0
 10
2.91575
 20
7.42236
 30
0.0
 40
0
 41
0
  0
VERTEX
  8
0
 10
2.78917
 20
7.2774
 30
0.0
 40
0
 41
0
  0
VERTEX
  8
0
 10
2.6594
 20
7.14621
 30
0.0
 40
0
 41
0
  0
VERTEX
  8
0
 10
2.61475
 20
7.10394
 30
0.0
 40
0
 41
0
  0
VERTEX
  8
0
 10
2.60151
 20
7.09147
 30
0.0
 40
0
 41
0
  0
VERTEX
  8
0
 10
2.56153
 20
7.0541
 30
0.0
 40
0
 41
0
  0
VERTEX
  8
0
 10
2.51183
 20
7.00851
 30
0.0
 40
0
 41
0
  0
VERTEX
  8
0
 10
2.46268
 20
6.96474
 30
0.0
 40
0
 41
0
  0
VERTEX
  8
0
 10
2.41118
 20
6.92036
 30
0.0
 40
0
 41
0
  0
VERTEX
  8
0
 10
2.35439
 20
6.87283
 30
0.0
 40
0
 41
0
  0
VERTEX
  8
0
 10
2.28939
 20
6.81972
 30
0.0
 40
0
 41
0
  0
VERTEX
  8
0
 10
2.21326
 20
6.75851
 30
0.0
 40
0
 41
0
  0
VERTEX
  8
0
 10
2.14567
 20
6.70458
 30
0.0
 40
0
 41
0
  0
VERTEX
  8
0
 10
2.12315
 20
6.68668
 30
0.0
 40
0
 41
0
  0
VERTEX
  8
0
 10
2.09028
 20
6.66064
 30
0.0
 40
0
 41
0
  0
VERTEX
  8
0
 10
1.98817
 20
6.58703
 30
0.0
 40
0
 41
0
  0
VERTEX
  8
0
 10
1.84125
 20
6.49035
 30
0.0
 40
0
 41
0
  0
VERTEX
  8
0
 10
1.70128
 20
6.40847
 30
0.0
 40
0
 41
0
  0
VERTEX
  8
0
 10
1.61654
 20
6.36496
 30
0.0
 40
0
 41
0
  0
VERTEX
  8
0
 10
1.58724
 20
6.35319
 30
0.0
 40
0
 41
0
  0
VERTEX
  8
0
 10
1.57329
 20
6.3476
 30
0.0
 40
0
 41
0
  0
VERTEX
  8
0
 10
1.53125
 20
6.33128
 30
0.0
 40
0
 41
0
  0
VERTEX
  8
0
 10
1.49756
 20
6.32064
 30
0.0
 40
0
 41
0
  0
VERTEX
  8
0
 10
1.47472
 20
6.3189
 30
0.0
 40
0
 41
0
  0
VERTEX
  8
0
 10
1.45703
 20
6.32206
 30
0.0
 40
0
 41
0
  0
VERTEX
  8
0
 10
1.45128
 20
6.32346
 30
0.0
 40
0
 41
0
  0
VERTEX
  8
0
 10
1.44629
 20
6.32471
 30
0.0
 40
0
 41
0
  0
VERTEX
  8
0
 10
1.43218
 20
6.33165
 30
0.0
 40
0
 41
0
  0
VERTEX
  8
0
 10
1.42122
 20
6.34896
 30
0.0
 40
0
 41
0
  0
VERTEX
  8
0
 10
1.41624
 20
6.38217
 30
0.0
 40
0
 41
0
  0
VERTEX
  8
0
 10
1.41499
 20
6.42426
 30
0.0
 40
0
 41
0
  0
VERTEX
  8
0
 10
1.41499
 20
6.43826
 30
0.0
 40
0
 41
0
  0
VERTEX
  8
0
 10
1.41488
 20
6.48606
 30
0.0
 40
0
 41
0
  0
VERTEX
  8
0
 10
1.43007
 20
6.62935
 30
0.0
 40
0
 41
0
  0
VERTEX
  8
0
 10
1.47478
 20
6.81819
 30
0.0
 40
0
 41
0
  0
VERTEX
  8
0
 10
1.54676
 20
6.99789
 30
0.0
 40
0
 41
0
  0
VERTEX
  8
0
 10
1.61649
 20
7.12283
 30
0.0
 40
0
 41
0
  0
VERTEX
  8
0
 10
1.64399
 20
7.16146
 30
0.0
 40
0
 41
0
  0
VERTEX
  8
0
 10
1.67785
 20
7.20915
 30
0.0
 40
0
 41
0
  0
VERTEX
  8
0
 10
1.79503
 20
7.34115
 30
0.0
 40
0
 41
0
  0
VERTEX
  8
0
 10
1.9675
 20
7.48367
 30
0.0
 40
0
 41
0
  0
VERTEX
  8
0
 10
2.16476
 20
7.59142
 30
0.0
 40
0
 41
0
  0
VERTEX
  8
0
 10
2.3329
 20
7.6525
 30
0.0
 40
0
 41
0
  0
VERTEX
  8
0
 10
2.39046
 20
7.66678
 30
0.0
 40
0
 41
0
  0
VERTEX
  8
0
 10
2.40647
 20
7.67079
 30
0.0
 40
0
 41
0
  0
VERTEX
  8
0
 10
2.45481
 20
7.68143
 30
0.0
 40
0
 41
0
  0
VERTEX
  8
0
 10
2.51187
 20
7.69006
 30
0.0
 40
0
 41
0
  0
VERTEX
  8
0
 10
2.57682
 20
7.69422
 30
0.0
 40
0
 41
0
  0
VERTEX
  8
0
 10
2.64279
 20
7.69542
 30
0.0
 40
0
 41
0
  0
VERTEX
  8
0
 10
2.66482
 20
7.69547
 30
0.0
 40
0
 41
0
  0
SEQEND
 8
0
  0
POLYLINE
  8
0
 62
     250
 66
     1
 10
0
 20
0
 30
0.0
 70
     1
 40
0
 41
0
  0
VERTEX
  8
0
 10
5.39079
 20
6.67931
 30
0.0
 40
0
 41
0
  0
VERTEX
  8
0
 10
5.40278
 20
6.67914
 30
0.0
 40
0
 41
0
  0
VERTEX
  8
0
 10
5.46408
 20
6.67404
 30
0.0
 40
0
 41
0
  0
VERTEX
  8
0
 10
5.53196
 20
6.66331
 30
0.0
 40
0
 41
0
  0
VERTEX
  8
0
 10
5.54725
 20
6.66026
 30
0.0
 40
0
 41
0
  0
VERTEX
  8
0
 10
5.59326
 20
6.65121
 30
0.0
 40
0
 41
0
  0
VERTEX
  8
0
 10
5.72863
 20
6.61025
 30
0.0
 40
0
 41
0
  0
VERTEX
  8
0
 10
5.89692
 20
6.53396
 30
0.0
 40
0
 41
0
  0
VERTEX
  8
0
 10
6.05442
 20
6.43012
 30
0.0
 40
0
 41
0
  0
VERTEX
  8
0
 10
6.16857
 20
6.33285
 30
0.0
 40
0
 41
0
  0
VERTEX
  8
0
 10
6.20361
 20
6.29736
 30
0.0
 40
0
 41
0
  0
VERTEX
  8
0
 10
6.25032
 20
6.25006
 30
0.0
 40
0
 41
0
  0
VERTEX
  8
0
 10
6.37229
 20
6.09011
 30
0.0
 40
0
 41
0
  0
VERTEX
  8
0
 10
6.4975
 20
5.85742
 30
0.0
 40
0
 41
0
  0
VERTEX
  8
0
 10
6.57547
 20
5.6084
 30
0.0
 40
0
 41
0
  0
VERTEX
  8
0
 10
6.60232
 20
5.41618
 30
0.0
 40
0
 41
0
  0
VERTEX
  8
0
 10
6.60232
 20
5.35211
 30
0.0
 40
0
 41
0
  0
VERTEX
  8
0
 10
6.60232
 20
5.31967
 30
0.0
 40
0
 41
0
  0
VERTEX
  8
0
 10
6.59663
 20
5.22222
 30
0.0
 40
0
 41
0
  0
VERTEX
  8
0
 10
6.57889
 20
5.10428
 30
0.0
 40
0
 41
0
  0
VERTEX
  8
0
 10
6.54796
 20
4.99294
 30
0.0
 40
0
 41
0
  0
VERTEX
  8
0
 10
6.51546
 20
4.90978
 30
0.0
 40
0
 41
0
  0
VERTEX
  8
0
 10
6.50276
 20
4.88297
 30
0.0
 40
0
 41
0
  0
VERTEX
  8
0
 10
6.48215
 20
4.83968
 30
0.0
 40
0
 41
0
  0
VERTEX
  8
0
 10
6.40386
 20
4.71761
 30
0.0
 40
0
 41
0
  0
VERTEX
  8
0
 10
6.27951
 20
4.58697
 30
0.0
 40
0
 41
0
  0
VERTEX
  8
0
 10
6.12625
 20
4.48822
 30
0.0
 40
0
 41
0
  0
VERTEX
  8
0
 10
5.98839
 20
4.43175
 30
0.0
 40
0
 41
0
  0
VERTEX
  8
0
 10
5.94086
 20
4.41862
 30
0.0
 40
0
 41
0
  0
VERTEX
  8
0
 10
5.90115
 20
4.40767
 30
0.0
 40
0
 41
0
  0
VERTEX
  8
0
 10
5.77664
 20
4.39404
 30
0.0
 40
0
 41
0
  0
VERTEX
  8
0
 10
5.59674
 20
4.4025
 30
0.0
 40
0
 41
0
  0
VERTEX
  8
0
 10
5.41601
 20
4.442
 30
0.0
 40
0
 41
0
  0
VERTEX
  8
0
 10
5.2889
 20
4.48947
 30
0.0
 40
0
 41
0
  0
VERTEX
  8
0
 10
5.24935
 20
4.51053
 30
0.0
 40
0
 41
0
  0
VERTEX
  8
0
 10
5.22211
 20
4.52507
 30
0.0
 40
0
 41
0
  0
VERTEX
  8
0
 10
5.1416
 20
4.57064
 30
0.0
 40
0
 41
0
  0
VERTEX
  8
0
 10
5.05951
 20
4.62446
 30
0.0
 40
0
 41
0
  0
VERTEX
  8
0
 10
4.98785
 20
4.68306
 30
0.0
 40
0
 41
0
  0
VERTEX
  8
0
 10
4.93007
 20
4.73844
 30
0.0
 40
0
 41
0
  0
VERTEX
  8
0
 10
4.91151
 20
4.75754
 30
0.0
 40
0
 41
0
  0
VERTEX
  8
0
 10
4.88846
 20
4.78125
 30
0.0
 40
0
 41
0
  0
VERTEX
  8
0
 10
4.82129
 20
4.85417
 30
0.0
 40
0
 41
0
  0
VERTEX
  8
0
 10
4.75537
 20
4.93707
 30
0.0
 40
0
 41
0
  0
VERTEX
  8
0
 10
4.69943
 20
5.02647
 30
0.0
 40
0
 41
0
  0
VERTEX
  8
0
 10
4.65369
 20
5.11322
 30
0.0
 40
0
 41
0
  0
VERTEX
  8
0
 10
4.63932
 20
5.14247
 30
0.0
 40
0
 41
0
  0
VERTEX
  8
0
 10
4.62153
 20
5.17854
 30
0.0
 40
0
 41
0
  0
VERTEX
  8
0
 10
4.57303
 20
5.28907
 30
0.0
 40
0
 41
0
  0
VERTEX
  8
0
 10
4.53256
 20
5.41601
 30
0.0
 40
0
 41
0
  0
VERTEX
  8
0
 10
4.51199
 20
5.54844
 30
0.0
 40
0
 41
0
  0
VERTEX
  8
0
 10
4.50575
 20
5.67085
 30
0.0
 40
0
 41
0
  0
VERTEX
  8
0
 10
4.50543
 20
5.71164
 30
0.0
 40
0
 41
0
  0
VERTEX
  8
0
 10
4.50521
 20
5.73622
 30
0.0
 40
0
 41
0
  0
VERTEX
  8
0
 10
4.50537
 20
5.80994
 30
0.0
 40
0
 41
0
  0
VERTEX
  8
0
 10
4.50819
 20
5.87831
 30
0.0
 40
0
 41
0
  0
VERTEX
  8
0
 10
4.51508
 20
5.93218
 30
0.0
 40
0
 41
0
  0
VERTEX
  8
0
 10
4.52387
 20
5.97336
 30
0.0
 40
0
 41
0
  0
VERTEX
  8
0
 10
4.52729
 20
5.98693
 30
0.0
 40
0
 41
0
  0
VERTEX
  8
0
 10
4.53261
 20
6.00825
 30
0.0
 40
0
 41
0
  0
VERTEX
  8
0
 10
4.55165
 20
6.0715
 30
0.0
 40
0
 41
0
  0
VERTEX
  8
0
 10
4.58128
 20
6.14729
 30
0.0
 40
0
 41
0
  0
VERTEX
  8
0
 10
4.62011
 20
6.22304
 30
0.0
 40
0
 41
0
  0
VERTEX
  8
0
 10
4.65853
 20
6.28674
 30
0.0
 40
0
 41
0
  0
VERTEX
  8
0
 10
4.6721
 20
6.30746
 30
0.0
 40
0
 41
0
  0
VERTEX
  8
0
 10
4.6951
 20
6.34278
 30
0.0
 40
0
 41
0
  0
VERTEX
  8
0
 10
4.77919
 20
6.43881
 30
0.0
 40
0
 41
0
  0
VERTEX
  8
0
 10
4.91064
 20
6.54378
 30
0.0
 40
0
 41
0
  0
VERTEX
  8
0
 10
5.0625
 20
6.61996
 30
0.0
 40
0
 41
0
  0
VERTEX
  8
0
 10
5.18821
 20
6.65793
 30
0.0
 40
0
 41
0
  0
VERTEX
  8
0
 10
5.23107
 20
6.66488
 30
0.0
 40
0
 41
0
  0
VERTEX
  8
0
 10
5.24685
 20
6.66749
 30
0.0
 40
0
 41
0
  0
VERTEX
  8
0
 10
5.31662
 20
6.67622
 30
0.0
 40
0
 41
0
  0
VERTEX
  8
0
 10
5.37879
 20
6.67953
 30
0.0
 40
0
 41
0
  0
VERTEX
  8
0
 10
5.39079
 20
6.67931
 30
0.0
 40
0
 41
0
  0
SEQEND
 8
0
  0
POLYLINE
  8
0
 62
     250
 66
     1
 10
0
 20
0
 30
0.0
 70
     1
 40
0
 41
0
  0
VERTEX
  8
0
 10
3.08697
 20
6.63704
 30
0.0
 40
0
 41
0
  0
VERTEX
  8
0
 10
3.11664
 20
6.63661
 30
0.0
 40
0
 41
0
  0
VERTEX
  8
0
 10
3.20557
 20
6.62765
 30
0.0
 40
0
 41
0
  0
VERTEX
  8
0
 10
3.32124
 20
6.60346
 30
0.0
 40
0
 41
0
  0
VERTEX
  8
0
 10
3.4324
 20
6.56521
 30
0.0
 40
0
 41
0
  0
VERTEX
  8
0
 10
3.53743
 20
6.51378
 30
0.0
 40
0
 41
0
  0
VERTEX
  8
0
 10
3.63476
 20
6.44982
 30
0.0
 40
0
 41
0
  0
VERTEX
  8
0
 10
3.72282
 20
6.37418
 30
0.0
 40
0
 41
0
  0
VERTEX
  8
0
 10
3.79992
 20
6.2876
 30
0.0
 40
0
 41
0
  0
VERTEX
  8
0
 10
3.85015
 20
6.21604
 30
0.0
 40
0
 41
0
  0
VERTEX
  8
0
 10
3.86453
 20
6.19081
 30
0.0
 40
0
 41
0
  0
VERTEX
  8
0
 10
3.87386
 20
6.17437
 30
0.0
 40
0
 41
0
  0
VERTEX
  8
0
 10
3.898
 20
6.12272
 30
0.0
 40
0
 41
0
  0
VERTEX
  8
0
 10
3.93213
 20
6.03819
 30
0.0
 40
0
 41
0
  0
VERTEX
  8
0
 10
3.96192
 20
5.95047
 30
0.0
 40
0
 41
0
  0
VERTEX
  8
0
 10
3.97835
 20
5.89253
 30
0.0
 40
0
 41
0
  0
VERTEX
  8
0
 10
3.98247
 20
5.87289
 30
0.0
 40
0
 41
0
  0
VERTEX
  8
0
 10
3.98921
 20
5.84071
 30
0.0
 40
0
 41
0
  0
VERTEX
  8
0
 10
3.99729
 20
5.74143
 30
0.0
 40
0
 41
0
  0
VERTEX
  8
0
 10
3.99588
 20
5.58524
 30
0.0
 40
0
 41
0
  0
VERTEX
  8
0
 10
3.97954
 20
5.42708
 30
0.0
 40
0
 41
0
  0
VERTEX
  8
0
 10
3.95985
 20
5.32329
 30
0.0
 40
0
 41
0
  0
VERTEX
  8
0
 10
3.94965
 20
5.28976
 30
0.0
 40
0
 41
0
  0
VERTEX
  8
0
 10
3.93642
 20
5.24631
 30
0.0
 40
0
 41
0
  0
VERTEX
  8
0
 10
3.88433
 20
5.11957
 30
0.0
 40
0
 41
0
  0
VERTEX
  8
0
 10
3.79671
 20
4.95947
 30
0.0
 40
0
 41
0
  0
VERTEX
  8
0
 10
3.68951
 20
4.81212
 30
0.0
 40
0
 41
0
  0
VERTEX
  8
0
 10
3.56569
 20
4.68028
 30
0.0
 40
0
 41
0
  0
VERTEX
  8
0
 10
3.42817
 20
4.56662
 30
0.0
 40
0
 41
0
  0
VERTEX
  8
0
 10
3.27974
 20
4.4739
 30
0.0
 40
0
 41
0
  0
VERTEX
  8
0
 10
3.12326
 20
4.40474
 30
0.0
 40
0
 41
0
  0
VERTEX
  8
0
 10
3.00265
 20
4.36908
 30
0.0
 40
0
 41
0
  0
VERTEX
  8
0
 10
2.96169
 20
4.36182
 30
0.0
 40
0
 41
0
  0
VERTEX
  8
0
 10
2.94069
 20
4.35813
 30
0.0
 40
0
 41
0
  0
VERTEX
  8
0
 10
2.87696
 20
4.35206
 30
0.0
 40
0
 41
0
  0
VERTEX
  8
0
 10
2.78039
 20
4.34885
 30
0.0
 40
0
 41
0
  0
VERTEX
  8
0
 10
2.68587
 20
4.35221
 30
0.0
 40
0
 41
0
  0
VERTEX
  8
0
 10
2.62679
 20
4.35829
 30
0.0
 40
0
 41
0
  0
VERTEX
  8
0
 10
2.60753
 20
4.36214
 30
0.0
 40
0
 41
0
  0
VERTEX
  8
0
 10
2.55012
 20
4.37369
 30
0.0
 40
0
 41
0
  0
VERTEX
  8
0
 10
2.38357
 20
4.43604
 30
0.0
 40
0
 41
0
  0
VERTEX
  8
0
 10
2.18967
 20
4.55849
 30
0.0
 40
0
 41
0
  0
VERTEX
  8
0
 10
2.03315
 20
4.72358
 30
0.0
 40
0
 41
0
  0
VERTEX
  8
0
 10
1.94239
 20
4.87224
 30
0.0
 40
0
 41
0
  0
VERTEX
  8
0
 10
1.92111
 20
4.92535
 30
0.0
 40
0
 41
0
  0
VERTEX
  8
0
 10
1.90853
 20
4.95676
 30
0.0
 40
0
 41
0
  0
VERTEX
  8
0
 10
1.88211
 20
5.0555
 30
0.0
 40
0
 41
0
  0
VERTEX
  8
0
 10
1.85872
 20
5.206
 30
0.0
 40
0
 41
0
  0
VERTEX
  8
0
 10
1.85211
 20
5.36481
 30
0.0
 40
0
 41
0
  0
VERTEX
  8
0
 10
1.85807
 20
5.48128
 30
0.0
 40
0
 41
0
  0
VERTEX
  8
0
 10
1.86344
 20
5.51964
 30
0.0
 40
0
 41
0
  0
VERTEX
  8
0
 10
1.87067
 20
5.57167
 30
0.0
 40
0
 41
0
  0
VERTEX
  8
0
 10
1.91206
 20
5.72499
 30
0.0
 40
0
 41
0
  0
VERTEX
  8
0
 10
1.99794
 20
5.92654
 30
0.0
 40
0
 41
0
  0
VERTEX
  8
0
 10
2.11626
 20
6.11518
 30
0.0
 40
0
 41
0
  0
VERTEX
  8
0
 10
2.22254
 20
6.24338
 30
0.0
 40
0
 41
0
  0
VERTEX
  8
0
 10
2.26226
 20
6.28163
 30
0.0
 40
0
 41
0
  0
VERTEX
  8
0
 10
2.29992
 20
6.31793
 30
0.0
 40
0
 41
0
  0
VERTEX
  8
0
 10
2.42236
 20
6.41694
 30
0.0
 40
0
 41
0
  0
VERTEX
  8
0
 10
2.58838
 20
6.51867
 30
0.0
 40
0
 41
0
  0
VERTEX
  8
0
 10
2.76411
 20
6.58876
 30
0.0
 40
0
 41
0
  0
VERTEX
  8
0
 10
2.90571
 20
6.62289
 30
0.0
 40
0
 41
0
  0
VERTEX
  8
0
 10
2.95356
 20
6.62924
 30
0.0
 40
0
 41
0
  0
VERTEX
  8
0
 10
2.96208
 20
6.63037
 30
0.0
 40
0
 41
0
  0
VERTEX
  8
0
 10
3.04753
 20
6.63688
 30
0.0
 40
0
 41
0
  0
VERTEX
  8
0
 10
3.0561
 20
6.63704
 30
0.0
 40
0
 41
0
  0
VERTEX
  8
0
 10
3.05865
 20
6.6371
 30
0.0
 40
0
 41
0
  0
VERTEX
  8
0
 10
3.08436
 20
6.63715
 30
0.0
 40
0
 41
0
  0
VERTEX
  8
0
 10
3.08697
 20
6.6371
 30
0.0
 40
0
 41
0
  0
VERTEX
  8
0
 10
3.08697
 20
6.63704
 30
0.0
 40
0
 41
0
  0
SEQEND
 8
0
  0
POLYLINE
  8
0
 62
     250
 66
     1
 10
0
 20
0
 30
0.0
 70
     1
 40
0
 41
0
  0
VERTEX
  8
0
 10
7.02181
 20
6.05257
 30
0.0
 40
0
 41
0
  0
VERTEX
  8
0
 10
7.02692
 20
6.05246
 30
0.0
 40
0
 41
0
  0
VERTEX
  8
0
 10
7.05512
 20
6.04622
 30
0.0
 40
0
 41
0
  0
VERTEX
  8
0
 10
7.08762
 20
6.03267
 30
0.0
 40
0
 41
0
  0
VERTEX
  8
0
 10
7.09483
 20
6.02886
 30
0.0
 40
0
 41
0
  0
VERTEX
  8
0
 10
7.12468
 20
6.01329
 30
0.0
 40
0
 41
0
  0
VERTEX
  8
0
 10
7.21013
 20
5.95871
 30
0.0
 40
0
 41
0
  0
VERTEX
  8
0
 10
7.317
 20
5.87375
 30
0.0
 40
0
 41
0
  0
VERTEX
  8
0
 10
7.41417
 20
5.77588
 30
0.0
 40
0
 41
0
  0
VERTEX
  8
0
 10
7.50028
 20
5.6671
 30
0.0
 40
0
 41
0
  0
VERTEX
  8
0
 10
7.57389
 20
5.54921
 30
0.0
 40
0
 41
0
  0
VERTEX
  8
0
 10
7.63385
 20
5.42415
 30
0.0
 40
0
 41
0
  0
VERTEX
  8
0
 10
7.6786
 20
5.29383
 30
0.0
 40
0
 41
0
  0
VERTEX
  8
0
 10
7.7021
 20
5.19385
 30
0.0
 40
0
 41
0
  0
VERTEX
  8
0
 10
7.70703
 20
5.1601
 30
0.0
 40
0
 41
0
  0
VERTEX
  8
0
 10
7.71089
 20
5.13363
 30
0.0
 40
0
 41
0
  0
VERTEX
  8
0
 10
7.71496
 20
5.05296
 30
0.0
 40
0
 41
0
  0
VERTEX
  8
0
 10
7.7136
 20
4.92497
 30
0.0
 40
0
 41
0
  0
VERTEX
  8
0
 10
7.70389
 20
4.79986
 30
0.0
 40
0
 41
0
  0
VERTEX
  8
0
 10
7.69319
 20
4.72537
 30
0.0
 40
0
 41
0
  0
VERTEX
  8
0
 10
7.6869
 20
4.70122
 30
0.0
 40
0
 41
0
  0
VERTEX
  8
0
 10
7.67589
 20
4.65929
 30
0.0
 40
0
 41
0
  0
VERTEX
  8
0
 10
7.63178
 20
4.53624
 30
0.0
 40
0
 41
0
  0
VERTEX
  8
0
 10
7.55724
 20
4.38286
 30
0.0
 40
0
 41
0
  0
VERTEX
  8
0
 10
7.46685
 20
4.2474
 30
0.0
 40
0
 41
0
  0
VERTEX
  8
0
 10
7.39219
 20
4.1614
 30
0.0
 40
0
 41
0
  0
VERTEX
  8
0
 10
7.36426
 20
4.13612
 30
0.0
 40
0
 41
0
  0
VERTEX
  8
0
 10
7.35829
 20
4.13075
 30
0.0
 40
0
 41
0
  0
VERTEX
  8
0
 10
7.32818
 20
4.10856
 30
0.0
 40
0
 41
0
  0
VERTEX
  8
0
 10
7.30871
 20
4.09706
 30
0.0
 40
0
 41
0
  0
VERTEX
  8
0
 10
7.30225
 20
4.09706
 30
0.0
 40
0
 41
0
  0
VERTEX
  8
0
 10
7.29574
 20
4.09706
 30
0.0
 40
0
 41
0
  0
VERTEX
  8
0
 10
7.27626
 20
4.10644
 30
0.0
 40
0
 41
0
  0
VERTEX
  8
0
 10
7.2461
 20
4.12462
 30
0.0
 40
0
 41
0
  0
VERTEX
  8
0
 10
7.24013
 20
4.12896
 30
0.0
 40
0
 41
0
  0
VERTEX
  8
0
 10
7.21556
 20
4.14703
 30
0.0
 40
0
 41
0
  0
VERTEX
  8
0
 10
7.15896
 20
4.22444
 30
0.0
 40
0
 41
0
  0
VERTEX
  8
0
 10
7.07769
 20
4.38292
 30
0.0
 40
0
 41
0
  0
VERTEX
  8
0
 10
7.00429
 20
4.58567
 30
0.0
 40
0
 41
0
  0
VERTEX
  8
0
 10
6.95828
 20
4.75624
 30
0.0
 40
0
 41
0
  0
VERTEX
  8
0
 10
6.94683
 20
4.81381
 30
0.0
 40
0
 41
0
  0
VERTEX
  8
0
 10
6.92925
 20
4.90181
 30
0.0
 40
0
 41
0
  0
VERTEX
  8
0
 10
6.88851
 20
5.16813
 30
0.0
 40
0
 41
0
  0
VERTEX
  8
0
 10
6.86453
 20
5.47364
 30
0.0
 40
0
 41
0
  0
VERTEX
  8
0
 10
6.875
 20
5.72933
 30
0.0
 40
0
 41
0
  0
VERTEX
  8
0
 10
6.90283
 20
5.88493
 30
0.0
 40
0
 41
0
  0
VERTEX
  8
0
 10
6.91992
 20
5.93403
 30
0.0
 40
0
 41
0
  0
VERTEX
  8
0
 10
6.92464
 20
5.94775
 30
0.0
 40
0
 41
0
  0
VERTEX
  8
0
 10
6.94168
 20
5.98785
 30
0.0
 40
0
 41
0
  0
VERTEX
  8
0
 10
6.96485
 20
6.02496
 30
0.0
 40
0
 41
0
  0
VERTEX
  8
0
 10
6.991
 20
6.04622
 30
0.0
 40
0
 41
0
  0
VERTEX
  8
0
 10
7.01417
 20
6.05279
 30
0.0
 40
0
 41
0
  0
VERTEX
  8
0
 10
7.02181
 20
6.05257
 30
0.0
 40
0
 41
0
  0
SEQEND
 8
0
  0
POLYLINE
  8
0
 62
     250
 66
     1
 10
0
 20
0
 30
0.0
 70
     1
 40
0
 41
0
  0
VERTEX
  8
0
 10
1.33247
 20
5.99289
 30
0.0
 40
0
 41
0
  0
VERTEX
  8
0
 10
1.33936
 20
5.99289
 30
0.0
 40
0
 41
0
  0
VERTEX
  8
0
 10
1.36013
 20
5.9904
 30
0.0
 40
0
 41
0
  0
VERTEX
  8
0
 10
1.38303
 20
5.98004
 30
0.0
 40
0
 41
0
  0
VERTEX
  8
0
 10
1.40696
 20
5.95779
 30
0.0
 40
0
 41
0
  0
VERTEX
  8
0
 10
1.43039
 20
5.92936
 30
0.0
 40
0
 41
0
  0
VERTEX
  8
0
 10
1.43782
 20
5.9196
 30
0.0
 40
0
 41
0
  0
VERTEX
  8
0
 10
1.44879
 20
5.90522
 30
0.0
 40
0
 41
0
  0
VERTEX
  8
0
 10
1.47439
 20
5.85633
 30
0.0
 40
0
 41
0
  0
VERTEX
  8
0
 10
1.50028
 20
5.77126
 30
0.0
 40
0
 41
0
  0
VERTEX
  8
0
 10
1.51768
 20
5.65369
 30
0.0
 40
0
 41
0
  0
VERTEX
  8
0
 10
1.52701
 20
5.53315
 30
0.0
 40
0
 41
0
  0
VERTEX
  8
0
 10
1.52897
 20
5.49289
 30
0.0
 40
0
 41
0
  0
VERTEX
  8
0
 10
1.53131
 20
5.44412
 30
0.0
 40
0
 41
0
  0
VERTEX
  8
0
 10
1.53276
 20
5.29731
 30
0.0
 40
0
 41
0
  0
VERTEX
  8
0
 10
1.5224
 20
5.11415
 30
0.0
 40
0
 41
0
  0
VERTEX
  8
0
 10
1.4955
 20
4.91986
 30
0.0
 40
0
 41
0
  0
VERTEX
  8
0
 10
1.46235
 20
4.74783
 30
0.0
 40
0
 41
0
  0
VERTEX
  8
0
 10
1.44982
 20
4.69081
 30
0.0
 40
0
 41
0
  0
VERTEX
  8
0
 10
1.44476
 20
4.66808
 30
0.0
 40
0
 41
0
  0
VERTEX
  8
0
 10
1.42393
 20
4.59733
 30
0.0
 40
0
 41
0
  0
VERTEX
  8
0
 10
1.38428
 20
4.47613
 30
0.0
 40
0
 41
0
  0
VERTEX
  8
0
 10
1.34256
 20
4.36139
 30
0.0
 40
0
 41
0
  0
VERTEX
  8
0
 10
1.31825
 20
4.30138
 30
0.0
 40
0
 41
0
  0
VERTEX
  8
0
 10
1.31055
 20
4.28717
 30
0.0
 40
0
 41
0
  0
VERTEX
  8
0
 10
1.30252
 20
4.27251
 30
0.0
 40
0
 41
0
  0
VERTEX
  8
0
 10
1.27577
 20
4.22999
 30
0.0
 40
0
 41
0
  0
VERTEX
  8
0
 10
1.23622
 20
4.17475
 30
0.0
 40
0
 41
0
  0
VERTEX
  8
0
 10
1.19759
 20
4.12896
 30
0.0
 40
0
 41
0
  0
VERTEX
  8
0
 10
1.17464
 20
4.10607
 30
0.0
 40
0
 41
0
  0
VERTEX
  8
0
 10
1.16585
 20
4.1001
 30
0.0
 40
0
 41
0
  0
VERTEX
  8
0
 10
1.15593
 20
4.09343
 30
0.0
 40
0
 41
0
  0
VERTEX
  8
0
 10
1.10254
 20
4.07769
 30
0.0
 40
0
 41
0
  0
VERTEX
  8
0
 10
1.04953
 20
4.08599
 30
0.0
 40
0
 41
0
  0
VERTEX
  8
0
 10
1.03982
 20
4.09125
 30
0.0
 40
0
 41
0
  0
VERTEX
  8
0
 10
1.03624
 20
4.09321
 30
0.0
 40
0
 41
0
  0
VERTEX
  8
0
 10
1.02544
 20
4.102
 30
0.0
 40
0
 41
0
  0
VERTEX
  8
0
 10
1.0057
 20
4.12071
 30
0.0
 40
0
 41
0
  0
VERTEX
  8
0
 10
0.983128
 20
4.14481
 30
0.0
 40
0
 41
0
  0
VERTEX
  8
0
 10
0.965875
 20
4.16476
 30
0.0
 40
0
 41
0
  0
VERTEX
  8
0
 10
0.960394
 20
4.17156
 30
0.0
 40
0
 41
0
  0
VERTEX
  8
0
 10
0.92909
 20
4.21035
 30
0.0
 40
0
 41
0
  0
VERTEX
  8
0
 10
0.846897
 20
4.33615
 30
0.0
 40
0
 41
0
  0
VERTEX
  8
0
 10
0.762424
 20
4.51079
 30
0.0
 40
0
 41
0
  0
VERTEX
  8
0
 10
0.707194
 20
4.69249
 30
0.0
 40
0
 41
0
  0
VERTEX
  8
0
 10
0.681369
 20
4.87815
 30
0.0
 40
0
 41
0
  0
VERTEX
  8
0
 10
0.685112
 20
5.06467
 30
0.0
 40
0
 41
0
  0
VERTEX
  8
0
 10
0.718642
 20
5.24897
 30
0.0
 40
0
 41
0
  0
VERTEX
  8
0
 10
0.782064
 20
5.42806
 30
0.0
 40
0
 41
0
  0
VERTEX
  8
0
 10
0.849012
 20
5.55821
 30
0.0
 40
0
 41
0
  0
VERTEX
  8
0
 10
0.875651
 20
5.59874
 30
0.0
 40
0
 41
0
  0
VERTEX
  8
0
 10
0.887424
 20
5.61669
 30
0.0
 40
0
 41
0
  0
VERTEX
  8
0
 10
0.926053
 20
5.66829
 30
0.0
 40
0
 41
0
  0
VERTEX
  8
0
 10
0.98481
 20
5.73763
 30
0.0
 40
0
 41
0
  0
VERTEX
  8
0
 10
1.04877
 20
5.80399
 30
0.0
 40
0
 41
0
  0
VERTEX
  8
0
 10
1.11464
 20
5.86453
 30
0.0
 40
0
 41
0
  0
VERTEX
  8
0
 10
1.1792
 20
5.9165
 30
0.0
 40
0
 41
0
  0
VERTEX
  8
0
 10
1.23915
 20
5.95708
 30
0.0
 40
0
 41
0
  0
VERTEX
  8
0
 10
1.29134
 20
5.98351
 30
0.0
 40
0
 41
0
  0
VERTEX
  8
0
 10
1.32216
 20
5.99289
 30
0.0
 40
0
 41
0
  0
VERTEX
  8
0
 10
1.33247
 20
5.99289
 30
0.0
 40
0
 41
0
  0
SEQEND
 8
0
  0
POLYLINE
  8
0
 62
     250
 66
     1
 10
0
 20
0
 30
0.0
 70
     1
 40
0
 41
0
  0
VERTEX
  8
0
 10
4.22575
 20
4.53276
 30
0.0
 40
0
 41
0
  0
VERTEX
  8
0
 10
4.22863
 20
4.53282
 30
0.0
 40
0
 41
0
  0
VERTEX
  8
0
 10
4.25711
 20
4.53282
 30
0.0
 40
0
 41
0
  0
VERTEX
  8
0
 10
4.25999
 20
4.53276
 30
0.0
 40
0
 41
0
  0
VERTEX
  8
0
 10
4.26292
 20
4.53276
 30
0.0
 40
0
 41
0
  0
VERTEX
  8
0
 10
4.2921
 20
4.53168
 30
0.0
 40
0
 41
0
  0
VERTEX
  8
0
 10
4.29503
 20
4.53153
 30
0.0
 40
0
 41
0
  0
VERTEX
  8
0
 10
4.33154
 20
4.52957
 30
0.0
 40
0
 41
0
  0
VERTEX
  8
0
 10
4.44054
 20
4.51221
 30
0.0
 40
0
 41
0
  0
VERTEX
  8
0
 10
4.59728
 20
4.47336
 30
0.0
 40
0
 41
0
  0
VERTEX
  8
0
 10
4.74219
 20
4.42193
 30
0.0
 40
0
 41
0
  0
VERTEX
  8
0
 10
4.82661
 20
4.38211
 30
0.0
 40
0
 41
0
  0
VERTEX
  8
0
 10
4.85206
 20
4.36481
 30
0.0
 40
0
 41
0
  0
VERTEX
  8
0
 10
4.88243
 20
4.34413
 30
0.0
 40
0
 41
0
  0
VERTEX
  8
0
 10
4.97114
 20
4.27815
 30
0.0
 40
0
 41
0
  0
VERTEX
  8
0
 10
5.06386
 20
4.19624
 30
0.0
 40
0
 41
0
  0
VERTEX
  8
0
 10
5.14019
 20
4.1091
 30
0.0
 40
0
 41
0
  0
VERTEX
  8
0
 10
5.1939
 20
4.03299
 30
0.0
 40
0
 41
0
  0
VERTEX
  8
0
 10
5.21024
 20
4.00662
 30
0.0
 40
0
 41
0
  0
VERTEX
  8
0
 10
5.22808
 20
3.97771
 30
0.0
 40
0
 41
0
  0
VERTEX
  8
0
 10
5.27463
 20
3.8865
 30
0.0
 40
0
 41
0
  0
VERTEX
  8
0
 10
5.31879
 20
3.76531
 30
0.0
 40
0
 41
0
  0
VERTEX
  8
0
 10
5.34418
 20
3.63753
 30
0.0
 40
0
 41
0
  0
VERTEX
  8
0
 10
5.35232
 20
3.53282
 30
0.0
 40
0
 41
0
  0
VERTEX
  8
0
 10
5.35232
 20
3.49789
 30
0.0
 40
0
 41
0
  0
VERTEX
  8
0
 10
5.35232
 20
3.44467
 30
0.0
 40
0
 41
0
  0
VERTEX
  8
0
 10
5.32753
 20
3.28494
 30
0.0
 40
0
 41
0
  0
VERTEX
  8
0
 10
5.25592
 20
3.08143
 30
0.0
 40
0
 41
0
  0
VERTEX
  8
0
 10
5.14122
 20
2.89546
 30
0.0
 40
0
 41
0
  0
VERTEX
  8
0
 10
5.02962
 20
2.77072
 30
0.0
 40
0
 41
0
  0
VERTEX
  8
0
 10
4.98736
 20
2.73514
 30
0.0
 40
0
 41
0
  0
VERTEX
  8
0
 10
4.95404
 20
2.70714
 30
0.0
 40
0
 41
0
  0
VERTEX
  8
0
 10
4.84614
 20
2.6326
 30
0.0
 40
0
 41
0
  0
VERTEX
  8
0
 10
4.69363
 20
2.55404
 30
0.0
 40
0
 41
0
  0
VERTEX
  8
0
 10
4.52572
 20
2.49767
 30
0.0
 40
0
 41
0
  0
VERTEX
  8
0
 10
4.38569
 20
2.4681
 30
0.0
 40
0
 41
0
  0
VERTEX
  8
0
 10
4.33854
 20
2.46192
 30
0.0
 40
0
 41
0
  0
VERTEX
  8
0
 10
4.32438
 20
2.46007
 30
0.0
 40
0
 41
0
  0
VERTEX
  8
0
 10
4.2819
 20
2.45535
 30
0.0
 40
0
 41
0
  0
VERTEX
  8
0
 10
4.23525
 20
2.45324
 30
0.0
 40
0
 41
0
  0
VERTEX
  8
0
 10
4.18175
 20
2.45562
 30
0.0
 40
0
 41
0
  0
VERTEX
  8
0
 10
4.12375
 20
2.46061
 30
0.0
 40
0
 41
0
  0
VERTEX
  8
0
 10
4.10449
 20
2.46246
 30
0.0
 40
0
 41
0
  0
VERTEX
  8
0
 10
4.08317
 20
2.46451
 30
0.0
 40
0
 41
0
  0
VERTEX
  8
0
 10
4.01947
 20
2.47265
 30
0.0
 40
0
 41
0
  0
VERTEX
  8
0
 10
3.94596
 20
2.48671
 30
0.0
 40
0
 41
0
  0
VERTEX
  8
0
 10
3.87299
 20
2.50717
 30
0.0
 40
0
 41
0
  0
VERTEX
  8
0
 10
3.81044
 20
2.52886
 30
0.0
 40
0
 41
0
  0
VERTEX
  8
0
 10
3.78982
 20
2.53662
 30
0.0
 40
0
 41
0
  0
VERTEX
  8
0
 10
3.75911
 20
2.54824
 30
0.0
 40
0
 41
0
  0
VERTEX
  8
0
 10
3.66938
 20
2.58903
 30
0.0
 40
0
 41
0
  0
VERTEX
  8
0
 10
3.5625
 20
2.65044
 30
0.0
 40
0
 41
0
  0
VERTEX
  8
0
 10
3.46576
 20
2.72314
 30
0.0
 40
0
 41
0
  0
VERTEX
  8
0
 10
3.39703
 20
2.78674
 30
0.0
 40
0
 41
0
  0
VERTEX
  8
0
 10
3.37582
 20
2.8094
 30
0.0
 40
0
 41
0
  0
VERTEX
  8
0
 10
3.35449
 20
2.83219
 30
0.0
 40
0
 41
0
  0
VERTEX
  8
0
 10
3.29514
 20
2.90489
 30
0.0
 40
0
 41
0
  0
VERTEX
  8
0
 10
3.2309
 20
3.00261
 30
0.0
 40
0
 41
0
  0
VERTEX
  8
0
 10
3.1799
 20
3.10846
 30
0.0
 40
0
 41
0
  0
VERTEX
  8
0
 10
3.14757
 20
3.19792
 30
0.0
 40
0
 41
0
  0
VERTEX
  8
0
 10
3.13878
 20
3.22831
 30
0.0
 40
0
 41
0
  0
VERTEX
  8
0
 10
3.13271
 20
3.24918
 30
0.0
 40
0
 41
0
  0
VERTEX
  8
0
 10
3.11794
 20
3.31278
 30
0.0
 40
0
 41
0
  0
VERTEX
  8
0
 10
3.10704
 20
3.39318
 30
0.0
 40
0
 41
0
  0
VERTEX
  8
0
 10
3.10531
 20
3.47922
 30
0.0
 40
0
 41
0
  0
VERTEX
  8
0
 10
3.1096
 20
3.55528
 30
0.0
 40
0
 41
0
  0
VERTEX
  8
0
 10
3.11199
 20
3.58051
 30
0.0
 40
0
 41
0
  0
VERTEX
  8
0
 10
3.11501
 20
3.61279
 30
0.0
 40
0
 41
0
  0
VERTEX
  8
0
 10
3.13103
 20
3.70888
 30
0.0
 40
0
 41
0
  0
VERTEX
  8
0
 10
3.16536
 20
3.82428
 30
0.0
 40
0
 41
0
  0
VERTEX
  8
0
 10
3.22021
 20
3.94054
 30
0.0
 40
0
 41
0
  0
VERTEX
  8
0
 10
3.27957
 20
4.03956
 30
0.0
 40
0
 41
0
  0
VERTEX
  8
0
 10
3.30094
 20
4.07146
 30
0.0
 40
0
 41
0
  0
VERTEX
  8
0
 10
3.31765
 20
4.09651
 30
0.0
 40
0
 41
0
  0
VERTEX
  8
0
 10
3.37625
 20
4.16613
 30
0.0
 40
0
 41
0
  0
VERTEX
  8
0
 10
3.46918
 20
4.25299
 30
0.0
 40
0
 41
0
  0
VERTEX
  8
0
 10
3.57667
 20
4.33074
 30
0.0
 40
0
 41
0
  0
VERTEX
  8
0
 10
3.69569
 20
4.39789
 30
0.0
 40
0
 41
0
  0
VERTEX
  8
0
 10
3.82314
 20
4.45313
 30
0.0
 40
0
 41
0
  0
VERTEX
  8
0
 10
3.956
 20
4.49496
 30
0.0
 40
0
 41
0
  0
VERTEX
  8
0
 10
4.09119
 20
4.52197
 30
0.0
 40
0
 41
0
  0
VERTEX
  8
0
 10
4.19206
 20
4.53222
 30
0.0
 40
0
 41
0
  0
VERTEX
  8
0
 10
4.22575
 20
4.53276
 30
0.0
 40
0
 41
0
  0
SEQEND
 8
0
  0
POLYLINE
  8
0
 62
     250
 66
     1
 10
0
 20
0
 30
0.0
 70
     1
 40
0
 41
0
  0
VERTEX
  8
0
 10
6.78386
 20
4.16997
 30
0.0
 40
0
 41
0
  0
VERTEX
  8
0
 10
6.79617
 20
4.16997
 30
0.0
 40
0
 41
0
  0
VERTEX
  8
0
 10
6.83311
 20
4.16331
 30
0.0
 40
0
 41
0
  0
VERTEX
  8
0
 10
6.89415
 20
4.14621
 30
0.0
 40
0
 41
0
  0
VERTEX
  8
0
 10
6.9529
 20
4.12343
 30
0.0
 40
0
 41
0
  0
VERTEX
  8
0
 10
6.98606
 20
4.10682
 30
0.0
 40
0
 41
0
  0
VERTEX
  8
0
 10
6.99571
 20
4.09944
 30
0.0
 40
0
 41
0
  0
VERTEX
  8
0
 10
7.01383
 20
4.08567
 30
0.0
 40
0
 41
0
  0
VERTEX
  8
0
 10
7.0594
 20
4.03261
 30
0.0
 40
0
 41
0
  0
VERTEX
  8
0
 10
7.11344
 20
3.93674
 30
0.0
 40
0
 41
0
  0
VERTEX
  8
0
 10
7.15756
 20
3.81222
 30
0.0
 40
0
 41
0
  0
VERTEX
  8
0
 10
7.1849
 20
3.69808
 30
0.0
 40
0
 41
0
  0
VERTEX
  8
0
 10
7.19163
 20
3.65956
 30
0.0
 40
0
 41
0
  0
VERTEX
  8
0
 10
7.19624
 20
3.63282
 30
0.0
 40
0
 41
0
  0
VERTEX
  8
0
 10
7.20231
 20
3.55111
 30
0.0
 40
0
 41
0
  0
VERTEX
  8
0
 10
7.20367
 20
3.42031
 30
0.0
 40
0
 41
0
  0
VERTEX
  8
0
 10
7.19607
 20
3.28939
 30
0.0
 40
0
 41
0
  0
VERTEX
  8
0
 10
7.18604
 20
3.20725
 30
0.0
 40
0
 41
0
  0
VERTEX
  8
0
 10
7.18012
 20
3.18039
 30
0.0
 40
0
 41
0
  0
VERTEX
  8
0
 10
7.16943
 20
3.13206
 30
0.0
 40
0
 41
0
  0
VERTEX
  8
0
 10
7.12381
 20
2.9899
 30
0.0
 40
0
 41
0
  0
VERTEX
  8
0
 10
7.04204
 20
2.81125
 30
0.0
 40
0
 41
0
  0
VERTEX
  8
0
 10
6.93647
 20
2.6474
 30
0.0
 40
0
 41
0
  0
VERTEX
  8
0
 10
6.8431
 20
2.53521
 30
0.0
 40
0
 41
0
  0
VERTEX
  8
0
 10
6.80865
 20
2.50119
 30
0.0
 40
0
 41
0
  0
VERTEX
  8
0
 10
6.77333
 20
2.46642
 30
0.0
 40
0
 41
0
  0
VERTEX
  8
0
 10
6.65707
 20
2.37261
 30
0.0
 40
0
 41
0
  0
VERTEX
  8
0
 10
6.48833
 20
2.26768
 30
0.0
 40
0
 41
0
  0
VERTEX
  8
0
 10
6.30442
 20
2.18761
 30
0.0
 40
0
 41
0
  0
VERTEX
  8
0
 10
6.15744
 20
2.14344
 30
0.0
 40
0
 41
0
  0
VERTEX
  8
0
 10
6.10753
 20
2.13336
 30
0.0
 40
0
 41
0
  0
VERTEX
  8
0
 10
6.06342
 20
2.12451
 30
0.0
 40
0
 41
0
  0
VERTEX
  8
0
 10
5.92865
 20
2.11057
 30
0.0
 40
0
 41
0
  0
VERTEX
  8
0
 10
5.78082
 20
2.12033
 30
0.0
 40
0
 41
0
  0
VERTEX
  8
0
 10
5.66422
 20
2.16276
 30
0.0
 40
0
 41
0
  0
VERTEX
  8
0
 10
5.59603
 20
2.2156
 30
0.0
 40
0
 41
0
  0
VERTEX
  8
0
 10
5.57926
 20
2.23768
 30
0.0
 40
0
 41
0
  0
VERTEX
  8
0
 10
5.5656
 20
2.25575
 30
0.0
 40
0
 41
0
  0
VERTEX
  8
0
 10
5.52983
 20
2.31386
 30
0.0
 40
0
 41
0
  0
VERTEX
  8
0
 10
5.49881
 20
2.39312
 30
0.0
 40
0
 41
0
  0
VERTEX
  8
0
 10
5.48258
 20
2.48872
 30
0.0
 40
0
 41
0
  0
VERTEX
  8
0
 10
5.47775
 20
2.58263
 30
0.0
 40
0
 41
0
  0
VERTEX
  8
0
 10
5.47765
 20
2.61388
 30
0.0
 40
0
 41
0
  0
VERTEX
  8
0
 10
5.47749
 20
2.64762
 30
0.0
 40
0
 41
0
  0
VERTEX
  8
0
 10
5.48936
 20
2.74886
 30
0.0
 40
0
 41
0
  0
VERTEX
  8
0
 10
5.52289
 20
2.90338
 30
0.0
 40
0
 41
0
  0
VERTEX
  8
0
 10
5.57433
 20
3.06315
 30
0.0
 40
0
 41
0
  0
VERTEX
  8
0
 10
5.62142
 20
3.17731
 30
0.0
 40
0
 41
0
  0
VERTEX
  8
0
 10
5.63992
 20
3.21392
 30
0.0
 40
0
 41
0
  0
VERTEX
  8
0
 10
5.65365
 20
3.24132
 30
0.0
 40
0
 41
0
  0
VERTEX
  8
0
 10
5.70079
 20
3.32047
 30
0.0
 40
0
 41
0
  0
VERTEX
  8
0
 10
5.78478
 20
3.45008
 30
0.0
 40
0
 41
0
  0
VERTEX
  8
0
 10
5.8744
 20
3.57704
 30
0.0
 40
0
 41
0
  0
VERTEX
  8
0
 10
5.93164
 20
3.65192
 30
0.0
 40
0
 41
0
  0
VERTEX
  8
0
 10
5.95231
 20
3.67546
 30
0.0
 40
0
 41
0
  0
VERTEX
  8
0
 10
5.98042
 20
3.70757
 30
0.0
 40
0
 41
0
  0
VERTEX
  8
0
 10
6.0701
 20
3.79926
 30
0.0
 40
0
 41
0
  0
VERTEX
  8
0
 10
6.19542
 20
3.91129
 30
0.0
 40
0
 41
0
  0
VERTEX
  8
0
 10
6.322
 20
4.00651
 30
0.0
 40
0
 41
0
  0
VERTEX
  8
0
 10
6.41222
 20
4.06347
 30
0.0
 40
0
 41
0
  0
VERTEX
  8
0
 10
6.44368
 20
4.07969
 30
0.0
 40
0
 41
0
  0
VERTEX
  8
0
 10
6.46322
 20
4.08979
 30
0.0
 40
0
 41
0
  0
VERTEX
  8
0
 10
6.52458
 20
4.11481
 30
0.0
 40
0
 41
0
  0
VERTEX
  8
0
 10
6.61572
 20
4.1435
 30
0.0
 40
0
 41
0
  0
VERTEX
  8
0
 10
6.70589
 20
4.16287
 30
0.0
 40
0
 41
0
  0
VERTEX
  8
0
 10
6.76432
 20
4.16997
 30
0.0
 40
0
 41
0
  0
VERTEX
  8
0
 10
6.78386
 20
4.16997
 30
0.0
 40
0
 41
0
  0
SEQEND
 8
0
  0
POLYLINE
  8
0
 62
     250
 66
     1
 10
0
 20
0
 30
0.0
 70
     1
 40
0
 41
0
  0
VERTEX
  8
0
 10
1.67839
 20
4.02083
 30
0.0
 40
0
 41
0
  0
VERTEX
  8
0
 10
1.69656
 20
4.02072
 30
0.0
 40
0
 41
0
  0
VERTEX
  8
0
 10
1.79432
 20
4.01107
 30
0.0
 40
0
 41
0
  0
VERTEX
  8
0
 10
1.8916
 20
3.98975
 30
0.0
 40
0
 41
0
  0
VERTEX
  8
0
 10
1.90961
 20
3.98383
 30
0.0
 40
0
 41
0
  0
VERTEX
  8
0
 10
1.9311
 20
3.97678
 30
0.0
 40
0
 41
0
  0
VERTEX
  8
0
 10
1.99393
 20
3.95014
 30
0.0
 40
0
 41
0
  0
VERTEX
  8
0
 10
2.08778
 20
3.90321
 30
0.0
 40
0
 41
0
  0
VERTEX
  8
0
 10
2.17736
 20
3.85053
 30
0.0
 40
0
 41
0
  0
VERTEX
  8
0
 10
2.23204
 20
3.81342
 30
0.0
 40
0
 41
0
  0
VERTEX
  8
0
 10
2.24903
 20
3.79949
 30
0.0
 40
0
 41
0
  0
VERTEX
  8
0
 10
2.25456
 20
3.79497
 30
0.0
 40
0
 41
0
  0
VERTEX
  8
0
 10
2.27143
 20
3.78157
 30
0.0
 40
0
 41
0
  0
VERTEX
  8
0
 10
2.29085
 20
3.76687
 30
0.0
 40
0
 41
0
  0
VERTEX
  8
0
 10
2.30528
 20
3.757
 30
0.0
 40
0
 41
0
  0
VERTEX
  8
0
 10
2.31076
 20
3.75331
 30
0.0
 40
0
 41
0
  0
VERTEX
  8
0
 10
2.31261
 20
3.75331
 30
0.0
 40
0
 41
0
  0
VERTEX
  8
0
 10
2.31717
 20
3.75331
 30
0.0
 40
0
 41
0
  0
VERTEX
  8
0
 10
2.331
 20
3.73915
 30
0.0
 40
0
 41
0
  0
VERTEX
  8
0
 10
2.36893
 20
3.70111
 30
0.0
 40
0
 41
0
  0
VERTEX
  8
0
 10
2.42051
 20
3.64594
 30
0.0
 40
0
 41
0
  0
VERTEX
  8
0
 10
2.47976
 20
3.58024
 30
0.0
 40
0
 41
0
  0
VERTEX
  8
0
 10
2.54069
 20
3.51085
 30
0.0
 40
0
 41
0
  0
VERTEX
  8
0
 10
2.59739
 20
3.44439
 30
0.0
 40
0
 41
0
  0
VERTEX
  8
0
 10
2.64378
 20
3.38753
 30
0.0
 40
0
 41
0
  0
VERTEX
  8
0
 10
2.66699
 20
3.35753
 30
0.0
 40
0
 41
0
  0
VERTEX
  8
0
 10
2.67399
 20
3.34706
 30
0.0
 40
0
 41
0
  0
VERTEX
  8
0
 10
2.68169
 20
3.33556
 30
0.0
 40
0
 41
0
  0
VERTEX
  8
0
 10
2.70324
 20
3.29997
 30
0.0
 40
0
 41
0
  0
VERTEX
  8
0
 10
2.73915
 20
3.23714
 30
0.0
 40
0
 41
0
  0
VERTEX
  8
0
 10
2.77713
 20
3.16678
 30
0.0
 40
0
 41
0
  0
VERTEX
  8
0
 10
2.80404
 20
3.11464
 30
0.0
 40
0
 41
0
  0
VERTEX
  8
0
 10
2.81267
 20
3.09706
 30
0.0
 40
0
 41
0
  0
VERTEX
  8
0
 10
2.83014
 20
3.06153
 30
0.0
 40
0
 41
0
  0
VERTEX
  8
0
 10
2.87701
 20
2.95204
 30
0.0
 40
0
 41
0
  0
VERTEX
  8
0
 10
2.91997
 20
2.81976
 30
0.0
 40
0
 41
0
  0
VERTEX
  8
0
 10
2.94353
 20
2.69249
 30
0.0
 40
0
 41
0
  0
VERTEX
  8
0
 10
2.95003
 20
2.59489
 30
0.0
 40
0
 41
0
  0
VERTEX
  8
0
 10
2.9496
 20
2.56239
 30
0.0
 40
0
 41
0
  0
VERTEX
  8
0
 10
2.94922
 20
2.53683
 30
0.0
 40
0
 41
0
  0
VERTEX
  8
0
 10
2.94401
 20
2.46024
 30
0.0
 40
0
 41
0
  0
VERTEX
  8
0
 10
2.92893
 20
2.38103
 30
0.0
 40
0
 41
0
  0
VERTEX
  8
0
 10
2.90153
 20
2.31538
 30
0.0
 40
0
 41
0
  0
VERTEX
  8
0
 10
2.87082
 20
2.26818
 30
0.0
 40
0
 41
0
  0
VERTEX
  8
0
 10
2.8591
 20
2.25369
 30
0.0
 40
0
 41
0
  0
VERTEX
  8
0
 10
2.84874
 20
2.24094
 30
0.0
 40
0
 41
0
  0
VERTEX
  8
0
 10
2.81635
 20
2.20378
 30
0.0
 40
0
 41
0
  0
VERTEX
  8
0
 10
2.78049
 20
2.17079
 30
0.0
 40
0
 41
0
  0
VERTEX
  8
0
 10
2.74257
 20
2.14789
 30
0.0
 40
0
 41
0
  0
VERTEX
  8
0
 10
2.70606
 20
2.13271
 30
0.0
 40
0
 41
0
  0
VERTEX
  8
0
 10
2.69368
 20
2.12836
 30
0.0
 40
0
 41
0
  0
VERTEX
  8
0
 10
2.67361
 20
2.12136
 30
0.0
 40
0
 41
0
  0
VERTEX
  8
0
 10
2.54546
 20
2.10856
 30
0.0
 40
0
 41
0
  0
VERTEX
  8
0
 10
2.38385
 20
2.12537
 30
0.0
 40
0
 41
0
  0
VERTEX
  8
0
 10
2.34711
 20
2.13319
 30
0.0
 40
0
 41
0
  0
VERTEX
  8
0
 10
2.32807
 20
2.13726
 30
0.0
 40
0
 41
0
  0
VERTEX
  8
0
 10
2.27126
 20
2.15028
 30
0.0
 40
0
 41
0
  0
VERTEX
  8
0
 10
2.21218
 20
2.16678
 30
0.0
 40
0
 41
0
  0
VERTEX
  8
0
 10
2.15539
 20
2.18722
 30
0.0
 40
0
 41
0
  0
VERTEX
  8
0
 10
2.10374
 20
2.20876
 30
0.0
 40
0
 41
0
  0
VERTEX
  8
0
 10
2.08669
 20
2.21619
 30
0.0
 40
0
 41
0
  0
VERTEX
  8
0
 10
2.05464
 20
2.23025
 30
0.0
 40
0
 41
0
  0
VERTEX
  8
0
 10
1.96158
 20
2.27919
 30
0.0
 40
0
 41
0
  0
VERTEX
  8
0
 10
1.84375
 20
2.35504
 30
0.0
 40
0
 41
0
  0
VERTEX
  8
0
 10
1.73438
 20
2.44243
 30
0.0
 40
0
 41
0
  0
VERTEX
  8
0
 10
1.6345
 20
2.54025
 30
0.0
 40
0
 41
0
  0
VERTEX
  8
0
 10
1.54531
 20
2.64729
 30
0.0
 40
0
 41
0
  0
VERTEX
  8
0
 10
1.46783
 20
2.76232
 30
0.0
 40
0
 41
0
  0
VERTEX
  8
0
 10
1.40326
 20
2.88406
 30
0.0
 40
0
 41
0
  0
VERTEX
  8
0
 10
1.3635
 20
2.97894
 30
0.0
 40
0
 41
0
  0
VERTEX
  8
0
 10
1.3527
 20
3.01139
 30
0.0
 40
0
 41
0
  0
VERTEX
  8
0
 10
1.3437
 20
3.03842
 30
0.0
 40
0
 41
0
  0
VERTEX
  8
0
 10
1.31993
 20
3.12039
 30
0.0
 40
0
 41
0
  0
VERTEX
  8
0
 10
1.29943
 20
3.21989
 30
0.0
 40
0
 41
0
  0
VERTEX
  8
0
 10
1.28874
 20
3.32508
 30
0.0
 40
0
 41
0
  0
VERTEX
  8
0
 10
1.28564
 20
3.41971
 30
0.0
 40
0
 41
0
  0
VERTEX
  8
0
 10
1.28564
 20
3.45122
 30
0.0
 40
0
 41
0
  0
VERTEX
  8
0
 10
1.28559
 20
3.49046
 30
0.0
 40
0
 41
0
  0
VERTEX
  8
0
 10
1.2915
 20
3.60801
 30
0.0
 40
0
 41
0
  0
VERTEX
  8
0
 10
1.31103
 20
3.72885
 30
0.0
 40
0
 41
0
  0
VERTEX
  8
0
 10
1.34663
 20
3.82286
 30
0.0
 40
0
 41
0
  0
VERTEX
  8
0
 10
1.38498
 20
3.88211
 30
0.0
 40
0
 41
0
  0
VERTEX
  8
0
 10
1.40056
 20
3.89931
 30
0.0
 40
0
 41
0
  0
VERTEX
  8
0
 10
1.40918
 20
3.9089
 30
0.0
 40
0
 41
0
  0
VERTEX
  8
0
 10
1.43733
 20
3.93582
 30
0.0
 40
0
 41
0
  0
VERTEX
  8
0
 10
1.47586
 20
3.96496
 30
0.0
 40
0
 41
0
  0
VERTEX
  8
0
 10
1.51856
 20
3.98839
 30
0.0
 40
0
 41
0
  0
VERTEX
  8
0
 10
1.55533
 20
4.00347
 30
0.0
 40
0
 41
0
  0
VERTEX
  8
0
 10
1.56793
 20
4.0076
 30
0.0
 40
0
 41
0
  0
VERTEX
  8
0
 10
1.57487
 20
4.00993
 30
0.0
 40
0
 41
0
  0
VERTEX
  8
0
 10
1.61719
 20
4.01779
 30
0.0
 40
0
 41
0
  0
VERTEX
  8
0
 10
1.66743
 20
4.02094
 30
0.0
 40
0
 41
0
  0
VERTEX
  8
0
 10
1.67839
 20
4.02083
 30
0.0
 40
0
 41
0
  0
SEQEND
 8
0
  0
POLYLINE
  8
0
 62
     250
 66
     1
 10
0
 20
0
 30
0.0
 70
     1
 40
0
 41
0
  0
VERTEX
  8
0
 10
4.32254
 20
2.15653
 30
0.0
 40
0
 41
0
  0
VERTEX
  8
0
 10
4.33658
 20
2.15657
 30
0.0
 40
0
 41
0
  0
VERTEX
  8
0
 10
4.40326
 20
2.15506
 30
0.0
 40
0
 41
0
  0
VERTEX
  8
0
 10
4.46397
 20
2.15132
 30
0.0
 40
0
 41
0
  0
VERTEX
  8
0
 10
4.4751
 20
2.15022
 30
0.0
 40
0
 41
0
  0
VERTEX
  8
0
 10
4.52479
 20
2.1454
 30
0.0
 40
0
 41
0
  0
VERTEX
  8
0
 10
4.67372
 20
2.1281
 30
0.0
 40
0
 41
0
  0
VERTEX
  8
0
 10
4.82221
 20
2.10319
 30
0.0
 40
0
 41
0
  0
VERTEX
  8
0
 10
4.94857
 20
2.06961
 30
0.0
 40
0
 41
0
  0
VERTEX
  8
0
 10
5.04824
 20
2.03435
 30
0.0
 40
0
 41
0
  0
VERTEX
  8
0
 10
5.08094
 20
2.02126
 30
0.0
 40
0
 41
0
  0
VERTEX
  8
0
 10
5.09543
 20
2.01551
 30
0.0
 40
0
 41
0
  0
VERTEX
  8
0
 10
5.13846
 20
1.99696
 30
0.0
 40
0
 41
0
  0
VERTEX
  8
0
 10
5.18143
 20
1.97461
 30
0.0
 40
0
 41
0
  0
VERTEX
  8
0
 10
5.21761
 20
1.94949
 30
0.0
 40
0
 41
0
  0
VERTEX
  8
0
 10
5.24582
 20
1.92546
 30
0.0
 40
0
 41
0
  0
VERTEX
  8
0
 10
5.25489
 20
1.91699
 30
0.0
 40
0
 41
0
  0
VERTEX
  8
0
 10
5.26357
 20
1.9089
 30
0.0
 40
0
 41
0
  0
VERTEX
  8
0
 10
5.2889
 20
1.88374
 30
0.0
 40
0
 41
0
  0
VERTEX
  8
0
 10
5.30963
 20
1.85856
 30
0.0
 40
0
 41
0
  0
VERTEX
  8
0
 10
5.32107
 20
1.83556
 30
0.0
 40
0
 41
0
  0
VERTEX
  8
0
 10
5.32607
 20
1.81565
 30
0.0
 40
0
 41
0
  0
VERTEX
  8
0
 10
5.3271
 20
1.80886
 30
0.0
 40
0
 41
0
  0
VERTEX
  8
0
 10
5.32889
 20
1.79688
 30
0.0
 40
0
 41
0
  0
VERTEX
  8
0
 10
5.32894
 20
1.76004
 30
0.0
 40
0
 41
0
  0
VERTEX
  8
0
 10
5.31739
 20
1.71311
 30
0.0
 40
0
 41
0
  0
VERTEX
  8
0
 10
5.28982
 20
1.66183
 30
0.0
 40
0
 41
0
  0
VERTEX
  8
0
 10
5.25592
 20
1.61481
 30
0.0
 40
0
 41
0
  0
VERTEX
  8
0
 10
5.24382
 20
1.59978
 30
0.0
 40
0
 41
0
  0
VERTEX
  8
0
 10
5.2079
 20
1.55528
 30
0.0
 40
0
 41
0
  0
VERTEX
  8
0
 10
5.08458
 20
1.43431
 30
0.0
 40
0
 41
0
  0
VERTEX
  8
0
 10
4.9005
 20
1.29991
 30
0.0
 40
0
 41
0
  0
VERTEX
  8
0
 10
4.6951
 20
1.19878
 30
0.0
 40
0
 41
0
  0
VERTEX
  8
0
 10
4.52881
 20
1.14469
 30
0.0
 40
0
 41
0
  0
VERTEX
  8
0
 10
4.47211
 20
1.13308
 30
0.0
 40
0
 41
0
  0
VERTEX
  8
0
 10
4.45188
 20
1.12902
 30
0.0
 40
0
 41
0
  0
VERTEX
  8
0
 10
4.39025
 20
1.12185
 30
0.0
 40
0
 41
0
  0
VERTEX
  8
0
 10
4.28407
 20
1.11399
 30
0.0
 40
0
 41
0
  0
VERTEX
  8
0
 10
4.17942
 20
1.11079
 30
0.0
 40
0
 41
0
  0
VERTEX
  8
0
 10
4.12056
 20
1.11155
 30
0.0
 40
0
 41
0
  0
VERTEX
  8
0
 10
4.10232
 20
1.11366
 30
0.0
 40
0
 41
0
  0
VERTEX
  8
0
 10
4.04389
 20
1.1205
 30
0.0
 40
0
 41
0
  0
VERTEX
  8
0
 10
3.87099
 20
1.1613
 30
0.0
 40
0
 41
0
  0
VERTEX
  8
0
 10
3.65272
 20
1.24707
 30
0.0
 40
0
 41
0
  0
VERTEX
  8
0
 10
3.4529
 20
1.36833
 30
0.0
 40
0
 41
0
  0
VERTEX
  8
0
 10
3.31733
 20
1.48025
 30
0.0
 40
0
 41
0
  0
VERTEX
  8
0
 10
3.27718
 20
1.52229
 30
0.0
 40
0
 41
0
  0
VERTEX
  8
0
 10
3.25749
 20
1.54292
 30
0.0
 40
0
 41
0
  0
VERTEX
  8
0
 10
3.2029
 20
1.60889
 30
0.0
 40
0
 41
0
  0
VERTEX
  8
0
 10
3.16314
 20
1.68039
 30
0.0
 40
0
 41
0
  0
VERTEX
  8
0
 10
3.15489
 20
1.74474
 30
0.0
 40
0
 41
0
  0
VERTEX
  8
0
 10
3.16803
 20
1.79482
 30
0.0
 40
0
 41
0
  0
VERTEX
  8
0
 10
3.17557
 20
1.8099
 30
0.0
 40
0
 41
0
  0
VERTEX
  8
0
 10
3.18494
 20
1.82878
 30
0.0
 40
0
 41
0
  0
VERTEX
  8
0
 10
3.22874
 20
1.87756
 30
0.0
 40
0
 41
0
  0
VERTEX
  8
0
 10
3.31858
 20
1.94428
 30
0.0
 40
0
 41
0
  0
VERTEX
  8
0
 10
3.44125
 20
2.00782
 30
0.0
 40
0
 41
0
  0
VERTEX
  8
0
 10
3.55442
 20
2.05311
 30
0.0
 40
0
 41
0
  0
VERTEX
  8
0
 10
3.59293
 20
2.06581
 30
0.0
 40
0
 41
0
  0
VERTEX
  8
0
 10
3.62864
 20
2.07764
 30
0.0
 40
0
 41
0
  0
VERTEX
  8
0
 10
3.73936
 20
2.10206
 30
0.0
 40
0
 41
0
  0
VERTEX
  8
0
 10
3.92557
 20
2.13075
 30
0.0
 40
0
 41
0
  0
VERTEX
  8
0
 10
4.12782
 20
2.14968
 30
0.0
 40
0
 41
0
  0
VERTEX
  8
0
 10
4.27382
 20
2.15653
 30
0.0
 40
0
 41
0
  0
VERTEX
  8
0
 10
4.32254
 20
2.15653
 30
0.0
 40
0
 41
0
  0
SEQEND
 8
0
  0
ENDSEC
  0
EOF
