<?xml version="1.0" encoding="UTF-8" standalone="no"?>
<svg
   xmlns:dc="http://purl.org/dc/elements/1.1/"
   xmlns:cc="http://creativecommons.org/ns#"
   xmlns:rdf="http://www.w3.org/1999/02/22-rdf-syntax-ns#"
   xmlns:svg="http://www.w3.org/2000/svg"
   xmlns="http://www.w3.org/2000/svg"
   xmlns:sodipodi="http://sodipodi.sourceforge.net/DTD/sodipodi-0.dtd"
   xmlns:inkscape="http://www.inkscape.org/namespaces/inkscape"
   sodipodi:docname="raspberry-pi-logo.svg"
   inkscape:version="1.0beta2 (2b71d25, 2019-12-03)"
   id="svg261"
   version="1.1"
   viewBox="0 0 210 297"
   height="297mm"
   width="210mm">
  <defs
     id="defs255" />
  <sodipodi:namedview
     inkscape:window-maximized="0"
     inkscape:window-y="23"
     inkscape:window-x="0"
     inkscape:window-height="814"
     inkscape:window-width="1440"
     showgrid="false"
     inkscape:document-rotation="0"
     inkscape:current-layer="layer1"
     inkscape:document-units="mm"
     inkscape:cy="560"
     inkscape:cx="400"
     inkscape:zoom="0.35"
     inkscape:pageshadow="2"
     inkscape:pageopacity="0.0"
     borderopacity="1.0"
     bordercolor="#666666"
     pagecolor="#ffffff"
     id="base" />
  <metadata
     id="metadata258">
    <rdf:RDF>
      <cc:Work
         rdf:about="">
        <dc:format>image/svg+xml</dc:format>
        <dc:type
           rdf:resource="http://purl.org/dc/dcmitype/StillImage" />
        <dc:title></dc:title>
      </cc:Work>
    </rdf:RDF>
  </metadata>
  <g
     id="layer1"
     inkscape:groupmode="layer"
     inkscape:label="Layer 1">
    <path
       id="path130"
       style="fill:#333333;fill-opacity:1;stroke-width:0.264583"
       d="m 62.631921,23.759286 c -1.09267,0.01423 -2.11994,0.232655 -3.07888,0.655257 -1.37069,0.604057 -1.41003,0.606356 -3.51142,0.182934 -3.69033,-0.743586 -5.50549,-0.534899 -7.75456,0.891419 -1.09748,0.695997 -1.49922,0.797104 -3.16622,0.798401 -2.41135,0.0018 -3.51925,0.311774 -5.22914,1.462443 -1.22386,0.823598 -1.54723,0.917256 -3.16518,0.917256 -3.92608,0 -7.07707,1.028309 -8.8439,2.886646 -0.71928,0.75653 -0.91062,0.817521 -2.56987,0.817521 -4.83302,0 -8.42688,3.498236 -8.42688,8.202599 0,0.862579 0.17871,2.094191 0.39688,2.736784 0.38245,1.126472 0.37076,1.224076 -0.31988,2.721282 -1.08364,2.34918 -1.0056,4.730376 0.23926,7.302396 0.86155,1.780061 0.92155,2.064443 0.80771,3.819406 -0.15592,2.403618 0.34523,3.98711 1.92236,6.075598 1.10774,1.466908 1.17311,1.650058 1.17977,3.292306 0.0102,2.510065 0.60842,3.987858 2.38539,5.894213 1.35709,1.455907 1.54721,1.802016 1.80661,3.28972 0.51462,2.951533 1.85185,4.733941 5.6627,7.547343 0.69994,0.516739 1.06899,1.04897 1.27847,1.843815 0.71951,2.730003 2.62593,4.696447 6.23786,6.433717 1.55464,0.74775 2.0355,1.121111 2.31976,1.80144 0.54479,1.303864 1.95628,2.767933 3.51813,3.64939 0.77265,0.436054 1.40457,0.829257 1.40457,0.874365 0,0.04511 -1.04366,0.845469 -2.31924,1.778186 -7.83156,5.726537 -13.59126,14.189837 -15.89567,23.357227 -0.77562,3.08558 -1.36258,7.46734 -1.37459,10.26036 -0.0139,3.24035 -0.66492,4.50905 -3.47111,6.76651 -7.13924,5.74323 -12.10421,13.66613 -14.2048196,22.66632 -1.74184,7.46302 -1.13609,15.69645 1.7115196,23.25801 1.35769,3.60519 4.56175,9.06408 6.62544,11.2882 0.45727,0.49282 0.9288,1.80823 1.67897,4.68344 0.97477,3.73608 2.69477,8.86321 3.97547,11.85095 0.30512,0.71182 0.73478,2.24812 0.95498,3.41426 1.53931,8.15226 4.81186,14.95848 10.1787,21.17029 3.78575,4.38178 8.37456,7.8947 13.72785,10.50943 1.81901,0.88847 3.78354,1.98964 4.36562,2.44688 4.9241,3.86805 12.10315,8.04621 18.83451,10.96161 2.04999,0.88786 3.86756,1.61437 4.03903,1.61437 0.17147,0 1.2267,0.91015 2.34508,2.02261 2.27715,2.26512 6.307015,5.37439 9.018052,6.95772 5.039493,2.94322 12.125653,5.15228 18.150827,5.65856 3.59722,0.30226 9.02044,-0.0878 12.55944,-0.9033 7.90703,-1.82195 14.69887,-5.53274 20.68039,-11.29905 2.7946,-2.69405 3.32966,-3.08757 5.45187,-4.00802 5.63773,-2.44522 11.29008,-5.60497 16.26309,-9.09195 1.55752,-1.09211 3.46253,-2.19364 4.23333,-2.4474 9.02823,-2.97225 17.72885,-9.86237 22.88232,-18.12137 4.03653,-6.46898 6.69727,-15.21083 6.69727,-22.00331 0,-1.36128 0.25934,-2.67316 1.02474,-5.18367 0.56359,-1.84854 1.29899,-4.55166 1.63453,-6.00686 0.49841,-2.16158 0.79846,-2.88797 1.63917,-3.96875 3.80617,-4.89304 6.63298,-10.90307 7.90753,-16.81241 0.81406,-3.77429 0.87959,-11.73865 0.12919,-15.73134 -0.95276,-5.06947 -3.00671,-10.0008 -6.17119,-14.81667 -1.88887,-2.87456 -7.40733,-8.62402 -9.62216,-10.02523 -1.88705,-1.19384 -2.56705,-2.76467 -2.7621,-6.37894 -0.48217,-8.93442 -3.69557,-17.50543 -9.10591,-24.28844 -1.89907,-2.38089 -6.21459,-6.51603 -8.12198,-7.782466 -0.79254,-0.526214 -1.34777,-1.042236 -1.23352,-1.146183 0.11425,-0.103947 0.68399,-0.33845 1.26608,-0.521415 2.7647,-0.869034 4.87722,-2.535597 5.88026,-4.638995 0.35072,-0.735478 0.85727,-1.119555 2.57245,-1.949751 3.39771,-1.644584 5.53711,-3.940758 6.08283,-6.528801 0.13052,-0.618961 0.71101,-1.241962 2.37815,-2.552297 3.0621,-2.406735 4.04773,-3.946359 4.53254,-7.08019 0.14831,-0.958672 0.48028,-1.507836 1.70429,-2.817915 1.77424,-1.898989 2.38177,-3.388265 2.38177,-5.839436 0,-1.552245 0.0819,-1.79269 1.04903,-3.073715 1.74875,-2.3162 2.16949,-3.554243 2.10788,-6.206339 -0.0484,-2.085007 0.0229,-2.461877 0.75396,-3.977535 1.06602,-2.209958 1.26894,-3.801133 0.74569,-5.843571 -0.22731,-0.887298 -0.60717,-1.909643 -0.84439,-2.271696 -0.3974,-0.606494 -0.39789,-0.741919 -0.005,-1.723409 0.25608,-0.640059 0.42632,-1.838748 0.42632,-3.002402 0,-1.629197 -0.12803,-2.192609 -0.80615,-3.549653 -1.47066,-2.943044 -3.64731,-4.317756 -7.13135,-4.503601 -2.16434,-0.11545 -2.2899,-0.157597 -3.34295,-1.122412 -0.60182,-0.551396 -1.46086,-1.191734 -1.90841,-1.423169 -1.22549,-0.633725 -4.33186,-1.211813 -6.5133,-1.211813 -1.77571,0 -2.05617,-0.07775 -3.30367,-0.917256 -1.70989,-1.150669 -2.81779,-1.460591 -5.22914,-1.462443 -1.66699,-0.0013 -2.06874,-0.102404 -3.16621,-0.798401 -2.24907,-1.426318 -4.06424,-1.635005 -7.75457,-0.891419 -2.10139,0.423422 -2.14072,0.421123 -3.51141,-0.182934 -2.16244,-0.952979 -4.72617,-0.854279 -7.60367,0.292488 -1.23693,0.492952 -2.35959,0.864086 -2.49494,0.824756 -2.60845,-0.757931 -4.86989,-0.509295 -7.55664,0.830957 -1.51596,0.756215 -1.87765,0.839025 -2.79053,0.640788 -2.62606,-0.570261 -5.20554,0.386752 -8.40673,3.118156 -1.81159,1.54574 -2.13321,1.720308 -3.16879,1.720308 -1.79587,0 -3.42646,0.699554 -5.18935,2.226221 -3.65296,3.163467 -7.0146,7.640552 -9.60097,12.786817 -0.82778,1.64709 -1.57922,2.994782 -1.66966,2.994649 -0.0904,-1.32e-4 -0.93147,-1.521957 -1.86862,-3.381705 -2.08656,-4.140415 -4.54805,-7.620661 -7.537685,-10.656198 -2.892161,-2.936567 -4.210545,-3.723411 -6.545853,-3.907772 -1.649372,-0.13021 -1.869514,-0.22502 -3.098519,-1.333769 -3.236476,-2.919793 -5.964449,-4.05333 -8.652702,-3.595129 -1.29921,0.221444 -1.5271,0.175601 -3.12126,-0.629419 -2.25179,-1.137111 -4.42173,-1.496069 -6.34328,-1.049031 -1.40748,0.327442 -1.5128,0.310864 -3.70416,-0.580327 -1.61372,-0.656268 -3.12665,-0.975349 -4.53151,-0.957047 z m 90.023959,8.347294 c 0.15864,0 -0.031,0.418975 -0.42168,0.931209 -0.86786,1.137828 -1.1186,2.451554 -0.60048,3.146061 0.36488,0.489104 0.42782,0.475239 1.93683,-0.436149 2.08193,-1.257406 4.29364,-2.160455 6.95772,-2.840653 2.61267,-0.667074 3.12694,-0.595261 1.76578,0.245979 -1.17166,0.72413 -2.00165,1.962236 -2.00298,2.988448 -0.001,0.899592 0.18831,0.903354 2.66444,0.05271 2.81152,-0.965862 6.00667,-1.702249 7.3887,-1.703255 l 1.19062,-10e-4 -0.82889,0.505396 c -1.1202,0.683066 -1.68465,1.552157 -1.68465,2.594155 0,1.086066 0.26092,1.100156 3.3693,0.182418 2.47015,-0.729303 7.08188,-1.135332 8.93848,-0.787032 l 0.9989,0.187585 -1.53272,1.548743 -1.53272,1.548744 1.03094,0.210322 c 0.56704,0.115491 3.19284,0.212725 5.8353,0.216006 2.64246,0.0033 4.76637,0.06631 4.71961,0.140044 -0.0468,0.07374 -0.612,0.918512 -1.25625,1.877404 -1.11449,1.6588 -2.59198,4.824045 -2.9838,6.392376 -0.17994,0.720246 -0.16917,0.727194 1.10329,0.711583 0.70701,-0.0087 1.85126,-0.108431 2.54248,-0.222207 0.93592,-0.154051 1.25677,-0.123354 1.25677,0.121438 0,0.664607 -2.41658,3.516063 -4.26744,5.035351 -3.34315,2.744232 -3.55991,3.131214 -1.92443,3.438033 1.01092,0.189648 3.34885,0.01897 4.17236,-0.30489 1.05554,-0.415123 -0.18535,1.10884 -3.82974,4.704623 -4.18664,4.130791 -4.19333,4.169216 -0.71675,4.18734 l 1.9358,0.0098 -1.45521,1.360125 c -1.6773,1.567673 -5.0724,4.134713 -6.6151,5.00176 -0.58191,0.327049 -1.05782,0.735902 -1.05782,0.908474 0,0.501351 2.21778,0.996291 3.56154,0.794782 0.6604,-0.09903 1.20096,-0.116457 1.20096,-0.03824 0,0.454351 -4.5126,3.409969 -7.71477,5.052923 l -3.73931,1.918745 0.73225,0.479557 c 0.41598,0.272556 1.40423,0.528307 2.28772,0.592212 0.85535,0.06187 1.55494,0.214958 1.55494,0.340032 0,0.530878 -3.9414,2.13651 -8.44858,3.44165 -1.53791,0.445333 -2.89274,0.901927 -3.01067,1.014925 -0.33599,0.321969 1.32021,1.56273 2.34198,1.754415 0.50665,0.09505 0.98287,0.272704 1.05834,0.394809 0.30893,0.499872 -5.18919,1.682022 -9.13898,1.965254 -3.2117,0.230304 -3.70417,0.355049 -3.70417,0.935344 0,0.549161 1.29308,1.639112 2.51458,2.119768 0.72806,0.28649 0.74964,0.329451 0.26355,0.528648 -0.94279,0.386342 -6.77147,0.223342 -9.6573,-0.270267 -11.70641,-2.002337 -17.75472,-5.677932 -20.24941,-12.30571 -0.35892,-0.953582 -0.65267,-1.924235 -0.65267,-2.156973 0,-0.837592 6.01771,-6.578216 11.50938,-10.979174 7.28203,-5.835748 19.34571,-13.619673 29.3243,-18.921328 3.53878,-1.88016 3.41314,-1.898697 -1.31826,-0.195852 -14.99676,5.397383 -31.45285,14.219438 -41.47344,22.233784 l -2.88406,2.306836 -1.48156,-0.76326 c -0.83375,-0.429297 -2.35764,-1.635606 -3.48506,-2.759006 -1.6324,-1.626566 -2.13957,-2.339276 -2.73937,-3.848343 -0.89295,-2.246598 -1.16231,-5.196266 -0.6935,-7.593851 0.89089,-4.55611 3.38835,-10.42199 6.11952,-14.372767 1.40726,-2.03567 4.61643,-5.682337 5.00073,-5.682337 0.1157,0 0.29338,0.442211 0.39481,0.982884 0.21951,1.170102 0.87925,2.524242 1.17305,2.407606 0.11502,-0.04566 1.10004,-1.154761 2.18902,-2.464449 1.969,-2.368074 5.32537,-5.688541 5.75004,-5.688541 0.12232,0 0.1619,0.534058 0.0884,1.18649 -0.15602,1.384263 0.30353,2.695627 1.02423,2.92437 0.38572,0.122423 0.96569,-0.331498 2.47685,-1.937866 1.86054,-1.977771 4.74714,-4.265742 5.0276,-3.985287 0.0702,0.07019 -0.0124,0.498051 -0.18345,0.951363 -0.37515,0.993876 -0.0338,2.65517 0.63097,3.070097 0.35484,0.22149 0.67139,0.06595 1.5906,-0.781348 2.12382,-1.957671 6.52728,-4.602819 7.66258,-4.602819 z m -89.053479,0.03256 c 0.28894,-0.01216 1.02644,0.317064 2.31511,0.983919 1.95908,1.013782 4.62378,2.914054 5.5795,3.978568 0.64402,0.717332 1.08185,0.709799 1.59784,-0.02687 0.4852,-0.692723 0.54705,-2.610378 0.0987,-3.058728 -0.17221,-0.1722 -0.23602,-0.389786 -0.14211,-0.483692 0.34885,-0.34885 2.88669,1.600654 5.06894,3.89382 2.25201,2.366478 2.25217,2.366663 2.78122,1.837613 0.673723,-0.673721 0.90974,-1.620492 0.732773,-2.939872 -0.08467,-0.631285 -0.03179,-1.042313 0.133842,-1.042313 0.425188,0 4.670362,4.270017 6.290572,6.327261 0.800365,1.016257 1.55031,1.853915 1.666566,1.861386 0.297918,0.01916 1.231183,-2.114528 1.238168,-2.830835 0.0032,-0.327422 0.113564,-0.595312 0.245461,-0.595312 0.484807,0 3.829585,3.898296 5.508192,6.419762 4.626825,6.95003 6.859745,15.183175 5.409485,19.945035 -1.01453,3.331173 -3.390969,6.180426 -6.498825,7.791773 l -1.642274,0.851626 -2.897497,-2.300634 C 81.54598,65.173597 67.273591,57.301325 53.266081,51.890389 c -3.38809,-1.30878 -7.76245,-2.854499 -8.05325,-2.845821 -0.0818,0.0024 1.54458,0.89 3.61425,1.97249 7.65969,4.006217 18.06908,10.575615 25.29561,15.963881 4.92793,3.674377 8.020247,6.288405 11.778092,9.958049 3.183102,3.108389 3.262728,3.214367 3.13676,4.162536 -0.400105,3.011633 -3.814265,7.603069 -7.100342,9.549289 -3.22508,1.91009 -9.03059,3.747153 -14.39912,4.55631 -2.7278,0.411139 -8.07538,0.509524 -8.95398,0.164849 -0.43831,-0.17195 -0.39126,-0.243457 0.36587,-0.557073 1.21353,-0.502658 2.3859,-1.545182 2.3859,-2.121318 0,-0.568822 -0.50794,-0.695811 -3.70416,-0.925007 -3.94979,-0.283231 -9.44792,-1.465381 -9.13898,-1.965253 0.0755,-0.122105 0.55168,-0.29976 1.05833,-0.394809 1.03192,-0.193588 2.67362,-1.431557 2.34043,-1.76475 -0.11872,-0.118715 -1.644,-0.631351 -3.38946,-1.139465 -4.39415,-1.279165 -8.06824,-2.825956 -8.06824,-3.396691 0,-0.110517 0.59147,-0.201023 1.31413,-0.201023 1.19269,0 3.18379,-0.657643 3.18379,-1.051615 0,-0.08799 -1.21794,-0.750473 -2.7063,-1.472261 -2.71416,-1.316265 -7.73661,-4.474483 -8.41396,-5.290635 -0.33018,-0.397841 -0.25265,-0.419092 0.89142,-0.247528 1.37567,0.206293 3.62046,-0.273352 3.60495,-0.76998 -0.005,-0.162989 -0.99821,-0.929595 -2.2071,-1.703771 -1.20889,-0.774179 -3.25794,-2.321992 -4.55321,-3.439584 l -2.35489,-2.031918 2.1146,-0.132291 c 1.16318,-0.07276 2.26384,-0.228439 2.44584,-0.346231 0.23018,-0.148971 -0.78648,-1.316903 -3.34036,-3.836459 -3.64077,-3.59183 -4.88925,-5.119835 -3.8344,-4.693772 0.74383,0.300432 3.66225,0.502174 4.44004,0.306959 0.95441,-0.23954 0.85328,-0.856887 -0.30075,-1.838131 -3.36599,-2.862014 -6.1588,-5.880376 -6.1588,-6.655924 0,-0.228711 0.34494,-0.258091 1.25677,-0.108003 1.78789,0.294285 3.77031,0.283689 3.77031,-0.02016 0,-1.014344 -2.26742,-5.879553 -3.57962,-7.680669 l -0.86868,-1.192692 4.80384,-0.0057 c 2.64216,-0.0033 5.26774,-0.100516 5.83478,-0.216006 l 1.03095,-0.210323 -1.51567,-1.53169 c -1.44049,-1.455679 -1.48505,-1.539522 -0.89865,-1.696538 0.33936,-0.09087 1.74811,-0.167943 3.13055,-0.171049 1.9614,-0.0044 3.25317,0.180097 5.8813,0.839742 1.85238,0.464943 3.44858,0.765116 3.54655,0.667143 0.3449,-0.344894 0.12559,-1.832575 -0.34881,-2.366781 -0.26398,-0.297229 -0.83727,-0.760755 -1.27383,-1.030417 l -0.79375,-0.490409 1.19063,10e-4 c 1.38202,10e-4 4.57717,0.737393 7.38869,1.703256 2.56588,0.881478 2.66547,0.871443 2.66547,-0.266132 0,-0.787442 -0.22261,-1.154362 -1.36425,-2.248959 -0.75032,-0.719399 -1.24567,-1.30793 -1.10071,-1.30793 0.14496,0 1.1633,0.229847 2.26291,0.51108 2.36095,0.603828 5.35262,1.839374 7.18819,2.968811 1.24217,0.764314 1.33353,0.782923 1.66192,0.33383 0.56013,-0.766034 0.40445,-1.804066 -0.44752,-2.98018 -0.5069,-0.699748 -0.6667,-1.053411 -0.37776,-1.065568 z m 43.094009,63.960436 c 2.02363,-0.01802 3.96264,0.117128 5.51388,0.413927 6.71305,1.28442 12.14627,4.136947 16.88166,8.864057 2.84209,2.83714 3.76541,4.57829 3.90673,7.36493 0.0842,1.66011 0.002,2.1172 -0.60306,3.3538 -1.0786,2.20457 -3.61017,4.69124 -6.10454,5.99653 -3.28439,1.7187 -5.61354,2.60205 -7.92871,3.00653 -1.169,0.20423 -2.66124,0.5006 -3.31608,0.65887 -1.64021,0.39643 -7.37199,0.53437 -11.50937,0.27648 -7.144664,-0.44536 -14.632446,-3.25222 -19.219501,-7.20421 -1.089816,-0.93894 -2.873441,-4.08629 -3.179648,-5.61103 -0.34885,-1.73702 0.20992,-4.16256 1.333764,-5.78931 3.027754,-4.38262 10.542831,-9.13317 16.645495,-10.522354 2.23615,-0.509027 4.97757,-0.785064 7.57938,-0.80822 z m 39.11751,5.370734 c 0.92873,0.0191 1.82235,0.12079 3.17293,0.31574 3.2828,0.47386 7.6176,1.75484 10.00973,2.95796 8.35852,4.2039 14.52079,11.80023 16.80931,20.72121 0.81418,3.17379 1.32305,8.4155 0.99322,10.2309 -0.23705,1.30475 -0.24993,1.31865 -1.29656,1.3839 -0.81813,0.051 -1.68537,-0.24089 -3.83543,-1.28985 -1.52797,-0.74546 -3.43297,-1.79781 -4.23333,-2.33887 -0.80036,-0.54106 -2.28571,-1.50876 -3.30057,-2.15026 -1.01487,-0.6415 -2.72767,-1.91479 -3.80649,-2.8298 -1.07881,-0.91501 -2.57913,-2.07387 -3.33416,-2.57504 -3.636,-2.41343 -13.85532,-12.17765 -18.22421,-17.41288 -2.22015,-2.6604 -3.27579,-5.04568 -2.50114,-5.65186 0.59815,-0.46806 2.62079,-0.85523 6.16345,-1.17977 1.49059,-0.13655 2.45452,-0.20047 3.38325,-0.18138 z m -78.128049,0.10387 c 5.78996,-0.0204 8.99584,0.67579 8.99584,1.95388 0,2.19526 -3.5676,6.73722 -10.26656,13.07104 -3.78796,3.58149 -5.83746,5.32107 -12.48761,10.59728 -4.15409,3.29585 -10.399,7.18272 -13.61105,8.47132 -2.40321,0.96411 -2.51933,0.98917 -3.45457,0.75551 -0.80671,-0.20155 -0.91752,-0.55202 -0.92191,-2.91662 -0.0119,-6.43045 2.12468,-13.17797 5.8167,-18.36838 4.79421,-6.73993 10.79844,-10.80451 18.9606,-12.83591 2.47435,-0.61582 3.43002,-0.71566 6.96856,-0.72812 z m 69.239699,25.80979 c 1.21825,0.0179 2.42308,0.1778 3.97444,0.48472 6.39431,1.26506 11.73481,4.21765 16.67133,9.21701 6.40695,6.48849 10.12703,15.30835 10.12703,24.00939 0,4.66311 -0.74046,8.15405 -2.52749,11.91606 -2.95444,6.21963 -7.41002,9.90171 -14.27355,11.79515 -5.12725,1.41445 -12.32309,0.45772 -17.56327,-2.33474 -4.25337,-2.2666 -5.74466,-3.35687 -8.5819,-6.27455 -3.62604,-3.72885 -4.6449,-5.16969 -6.91327,-9.77667 -2.74878,-5.58263 -3.34646,-8.12357 -3.40083,-14.45751 -0.0344,-4.00912 0.04,-4.94679 0.555,-6.99182 0.7835,-3.11139 1.65164,-5.03335 3.67833,-8.14163 3.17247,-4.86552 8.25301,-8.11436 14.19759,-9.07851 1.60637,-0.26054 2.83835,-0.3848 4.05659,-0.3669 z m -58.516839,1.07332 c 8.09648,0.12023 15.835905,4.45483 19.750735,11.3347 1.068766,1.87824 2.512234,5.76986 2.995164,8.07548 0.79097,3.77622 0.39739,10.77092 -0.83354,14.81098 -3.598221,11.80982 -14.041259,21.61827 -25.094589,23.57014 -2.50771,0.44284 -6.77331,0.43919 -8.99583,-0.008 -8.01105,-1.61097 -14.47621,-6.91619 -17.4346,-14.30611 -1.57133,-3.92511 -2.16558,-10.05047 -1.46399,-15.09468 0.96154,-6.91324 4.77265,-14.19531 10.1291,-19.35489 5.3683,-5.17101 10.86921,-7.93687 17.55861,-8.82892 0.86803,-0.11575 1.73783,-0.18102 2.6045,-0.19741 0.2618,-0.005 0.52327,-0.005 0.78444,-0.002 z m 99.945319,14.8456 c 0.51739,0.0121 1.12166,0.2203 1.85467,0.60307 8.06457,4.2112 14.21491,12.93894 15.54944,22.06583 0.44043,3.01213 0.17691,9.03033 -0.51056,11.65562 -1.49629,5.71399 -4.55276,11.06733 -8.19485,14.35365 -0.60478,0.5457 -1.31418,0.99218 -1.57613,0.99218 -0.26196,0 -0.97159,-0.36441 -1.57717,-0.80977 -2.65322,-1.9512 -5.86487,-9.45032 -7.45019,-17.39532 -2.55662,-12.81278 -2.78708,-22.39441 -0.68368,-28.45356 0.7338,-2.11382 1.45023,-3.03832 2.58847,-3.0117 z m -144.510039,1.51619 c 1.08691,0 1.45081,0.25293 2.67736,1.86138 1.44648,1.89686 2.01152,4.54165 2.3151,10.83862 0.34243,7.10268 -0.11787,11.76236 -2.01124,20.37291 -0.50882,2.31398 -2.75078,8.81216 -3.53726,10.25261 -1.02963,1.8858 -2.77952,4.14862 -3.67523,4.75216 -1.00765,0.67898 -2.21267,0.76307 -3.20187,0.22376 -0.3638,-0.19834 -1.27148,-1.11604 -2.01693,-2.03967 -8.66454,-10.73548 -9.51341,-25.03758 -2.1518,-36.24946 3.05543,-4.65349 9.26507,-10.01231 11.60187,-10.01231 z m 73.490609,37.08714 c 0.29094,-0.005 0.58058,-0.005 0.86919,0 0.29792,0.005 0.5944,0.0159 0.88936,0.032 4.47593,0.24561 11.2842,2.28325 14.149,4.23437 4.59328,3.12832 6.72191,5.25702 9.09764,9.09867 2.54219,4.11082 3.60856,7.92977 3.60856,12.92117 0,7.28278 -3.43874,14.46961 -9.26972,19.37454 -4.63232,3.89665 -9.76861,6.05942 -16.48013,6.93911 -2.27631,0.29836 -2.7349,0.29715 -5.94433,-0.0129 -3.19499,-0.3087 -4.877934,-0.70534 -7.993316,-1.88465 -4.345831,-1.6451 -7.543934,-3.7526 -10.514602,-6.92826 -3.048733,-3.2591 -4.758231,-6.27916 -6.021851,-10.63966 -0.87989,-3.03631 -1.04016,-5.14753 -0.68007,-8.94675 0.44758,-4.72225 1.56768,-7.63216 4.800228,-12.46952 4.4367,-6.63933 14.470748,-11.56523 23.490041,-11.71815 z m 64.97536,9.21494 c 1.31551,0 4.36192,1.01428 5.38107,1.79162 2.32076,1.77014 3.99515,5.52986 4.97592,11.17296 0.52959,3.04713 0.38441,9.10347 -0.29146,12.17085 -1.45895,6.62138 -4.7476,12.63441 -9.4356,17.25218 -4.81625,4.7441 -10.94303,7.95832 -17.80924,9.34309 -6.57766,1.32658 -11.07667,0.43778 -13.41676,-2.65048 -2.02636,-2.67423 -2.56421,-4.66569 -2.58175,-9.55549 -0.0147,-4.08038 1.70632,-10.44565 4.1212,-15.24093 1.47388,-2.92676 5.69431,-9.16076 7.93594,-11.72281 3.7911,-4.33299 8.51434,-8.21889 12.48038,-10.26707 2.44135,-1.26079 6.33313,-2.29392 8.6403,-2.29392 z m -129.678909,3.7884 c 1.85052,0.0106 4.04512,0.34054 5.87251,0.94051 2.54106,0.83429 6.6532,3.06765 8.6217,4.6824 0.78587,0.64465 1.51219,1.17202 1.61437,1.17202 0.44841,0 7.81837,8.28388 9.18032,10.31875 0.82788,1.23693 2.41255,4.09444 3.52175,6.35001 2.5657,5.21742 3.54501,9.04075 3.47782,13.58057 -0.0586,3.95699 -0.57375,5.71473 -2.29805,7.84138 -1.66504,2.05357 -2.25916,2.50362 -4.20129,3.18327 -2.03695,0.71283 -5.06952,0.6708 -8.80412,-0.12247 -3.01101,-0.63957 -3.92245,-0.93025 -6.61458,-2.1084 -8.69539,-3.80537 -15.71571,-11.41127 -18.64331,-20.19877 -1.34015,-4.0226 -1.69834,-6.37322 -1.70274,-11.17142 -0.005,-6.02145 0.75442,-8.98569 2.91817,-11.3807 1.24523,-1.37832 2.44073,-2.15143 4.25194,-2.75022 0.7089,-0.23437 1.6952,-0.34326 2.80551,-0.33693 z m 67.161279,47.35371 c 1.43048,-7.9e-4 2.74821,0.0502 3.8747,0.1602 7.89455,0.77112 10.48864,1.32323 15.38872,3.27525 2.28266,0.90933 3.05239,1.37112 4.41782,2.64842 1.42142,1.32966 1.6794,1.71521 1.83399,2.74608 0.26371,1.75852 -0.21395,2.95839 -2.11408,5.31182 -4.92945,6.10545 -11.79139,10.25468 -19.60242,11.85303 -2.06443,0.42244 -7.53926,0.71017 -9.39271,0.49351 -7.991296,-0.93418 -15.474485,-4.64032 -20.95789,-10.37973 -3.128519,-3.27458 -3.736479,-4.99517 -2.581239,-7.30498 1.138821,-2.27699 5.017316,-4.65502 10.600905,-6.49987 4.019878,-1.32818 12.333424,-2.30066 18.532204,-2.30373 z"
       inkscape:connector-curvature="0"
       sodipodi:nodetypes="sssscsssssssssscsccscccscscsssssccsscsscsccsssssssssssscssssccscsccsssccccssssssscsssscsssssssssssssssssccssscscccsscccccccscccscscscccssssccccsscccssssscssssccccscssscssccsccssscsscccsccscccssscccscsssssscsssccsssssccscsccccscscscsccccccsscccccccssssssscccsccscssscsscccsscssscsssssccssssscssccsssssscsssscccsssccsssscccccssssssscscsssccsssccccssssccsssscsssssssccssssscssssssssscscsccsscssssssc" />
  </g>
</svg>
