  0
SECTION
  2
HEADER
  9
$ACADVER
  1
AC1014
  9
$HANDSEED
  5
FFFF
  9
$MEASUREMENT
 70
     1
  0
ENDSEC
  0
SECTION
  2
TABLES
  0
TABLE
  2
VPORT
  5
8
330
0
100
AcDbSymbolTable
 70
     4
  0
VPORT
  5
2E
330
8
100
AcDbSymbolTableRecord
100
AcDbViewportTableRecord
  2
*ACTIVE
 70
     0
 10
0.0
 20
0.0
 11
1.0
 21
1.0
 12
210.0
 22
148.5
 13
0.0
 23
0.0
 14
10.0
 24
10.0
 15
10.0
 25
10.0
 16
0.0
 26
0.0
 36
1.0
 17
0.0
 27
0.0
 37
0.0
 40
341.0
 41
1.24
 42
50.0
 43
0.0
 44
0.0
 50
0.0
 51
0.0
 71
     0
 72
   100
 73
     1
 74
     3
 75
     0
 76
     0
 77
     0
 78
     0
  0
ENDTAB
  0
TABLE
  2
LTYPE
  5
5
330
0
100
AcDbSymbolTable
 70
     1
  0
LTYPE
  5
14
330
5
100
AcDbSymbolTableRecord
100
AcDbLinetypeTableRecord
  2
BYBLOCK
 70
     0
  3

 72
    65
 73
     0
 40
0.0
  0
LTYPE
  5
15
330
5
100
AcDbSymbolTableRecord
100
AcDbLinetypeTableRecord
  2
BYLAYER
 70
     0
  3

 72
    65
 73
     0
 40
0.0
  0
LTYPE
  5
16
330
5
100
AcDbSymbolTableRecord
100
AcDbLinetypeTableRecord
  2
CONTINUOUS
 70
     0
  3
Solid line
 72
    65
 73
     0
 40
0.0
  0
ENDTAB
  0
TABLE
  2
LAYER
  5
2
100
AcDbSymbolTable
 70
2
  0
LAYER
  5
50
100
AcDbSymbolTableRecord
100
AcDbLayerTableRecord
  2
0
 70
0
  6
CONTINUOUS
  0
LAYER
  5
51
100
AcDbSymbolTableRecord
100
AcDbLayerTableRecord
  2
Layer_1
 70
0
  6
CONTINUOUS
  0
ENDTAB
  0
TABLE
  2
STYLE
  5
3
330
0
100
AcDbSymbolTable
 70
     1
  0
STYLE
  5
11
330
3
100
AcDbSymbolTableRecord
100
AcDbTextStyleTableRecord
  2
STANDARD
 70
     0
 40
0.0
 41
1.0
 50
0.0
 71
     0
 42
2.5
  3
txt
  4

  0
ENDTAB
  0
TABLE
  2
VIEW
  5
6
330
0
100
AcDbSymbolTable
 70
     0
  0
ENDTAB
  0
TABLE
  2
UCS
  5
7
330
0
100
AcDbSymbolTable
 70
     0
  0
ENDTAB
  0
TABLE
  2
APPID
  5
9
330
0
100
AcDbSymbolTable
 70
     2
  0
APPID
  5
12
330
9
100
AcDbSymbolTableRecord
100
AcDbRegAppTableRecord
  2
ACAD
 70
     0
  0
ENDTAB
  0
TABLE
  2
DIMSTYLE
  5
A
330
0
100
AcDbSymbolTable
 70
     1
  0
DIMSTYLE
105
27
330
A
100
AcDbSymbolTableRecord
100
AcDbDimStyleTableRecord
  2
ISO-25
 70
     0
  3

  4

  5

  6

  7

 40
1.0
 41
2.5
 42
0.625
 43
3.75
 44
1.25
 45
0.0
 46
0.0
 47
0.0
 48
0.0
140
2.5
141
2.5
142
0.0
143
0.03937007874016
144
1.0
145
0.0
146
1.0
147
0.625
 71
     0
 72
     0
 73
     0
 74
     0
 75
     0
 76
     0
 77
     1
 78
     8
170
     0
171
     3
172
     1
173
     0
174
     0
175
     0
176
     0
177
     0
178
     0
270
     2
271
     2
272
     2
273
     2
274
     3
340
11
275
     0
280
     0
281
     0
282
     0
283
     0
284
     8
285
     0
286
     0
287
     3
288
     0
  0
ENDTAB
  0
TABLE
  2
BLOCK_RECORD
  5
1
330
0
100
AcDbSymbolTable
 70
     1
  0
BLOCK_RECORD
  5
1F
330
1
100
AcDbSymbolTableRecord
100
AcDbBlockTableRecord
  2
*MODEL_SPACE
  0
BLOCK_RECORD
  5
1B
330
1
100
AcDbSymbolTableRecord
100
AcDbBlockTableRecord
  2
*PAPER_SPACE
  0
ENDTAB
  0
ENDSEC
  0
SECTION
  2
BLOCKS
  0
BLOCK
  5
20
330
1F
100
AcDbEntity
  8
0
100
AcDbBlockBegin
  2
*MODEL_SPACE
 70
     0
 10
0.0
 20
0.0
 30
0.0
  3
*MODEL_SPACE
  1

  0
ENDBLK
  5
21
330
1F
100
AcDbEntity
  8
0
100
AcDbBlockEnd
  0
BLOCK
  5
1C
330
1B
100
AcDbEntity
 67
     1
  8
0
100
AcDbBlockBegin
  2
*PAPER_SPACE
  1

  0
ENDBLK
  5
1D
330
1B
100
AcDbEntity
 67
     1
  8
0
100
AcDbBlockEnd
  0
ENDSEC
  0
SECTION
  2
ENTITIES
  0
SPLINE
  5
100
100
AcDbEntity
  8
Layer_1
 62
7
100
AcDbSpline
 70
8
 71
3
 72
8
 73
4
 74
0
 40
0
 40
0
 40
0
 40
0
 40
1
 40
1
 40
1
 40
1
 10
33.213897
 20
16.865341
 30
0.0
 10
32.634451
 20
16.857795
 30
0.0
 10
32.089687
 20
16.741963
 30
0.0
 10
31.581158
 20
16.517856
 30
0.0
  0
SPLINE
  5
101
100
AcDbEntity
  8
Layer_1
 62
7
100
AcDbSpline
 70
8
 71
3
 72
8
 73
4
 74
0
 40
0
 40
0
 40
0
 40
0
 40
1
 40
1
 40
1
 40
1
 10
31.581158
 20
16.517856
 30
0.0
 10
30.854277
 20
16.197523
 30
0.0
 10
30.833415
 20
16.196304
 30
0.0
 10
29.719041
 20
16.420846
 30
0.0
  0
SPLINE
  5
102
100
AcDbEntity
  8
Layer_1
 62
7
100
AcDbSpline
 70
8
 71
3
 72
8
 73
4
 74
0
 40
0
 40
0
 40
0
 40
0
 40
1
 40
1
 40
1
 40
1
 10
29.719041
 20
16.420846
 30
0.0
 10
27.762048
 20
16.815171
 30
0.0
 10
26.799463
 20
16.704504
 30
0.0
 10
25.606775
 20
15.948123
 30
0.0
  0
SPLINE
  5
103
100
AcDbEntity
  8
Layer_1
 62
7
100
AcDbSpline
 70
8
 71
3
 72
8
 73
4
 74
0
 40
0
 40
0
 40
0
 40
0
 40
1
 40
1
 40
1
 40
1
 10
25.606775
 20
15.948123
 30
0.0
 10
25.024778
 20
15.579034
 30
0.0
 10
24.811734
 20
15.525417
 30
0.0
 10
23.927719
 20
15.524729
 30
0.0
  0
SPLINE
  5
104
100
AcDbEntity
  8
Layer_1
 62
7
100
AcDbSpline
 70
8
 71
3
 72
8
 73
4
 74
0
 40
0
 40
0
 40
0
 40
0
 40
1
 40
1
 40
1
 40
1
 10
23.927719
 20
15.524729
 30
0.0
 10
22.648972
 20
15.523774
 30
0.0
 10
22.061450
 20
15.359394
 30
0.0
 10
21.154690
 20
14.749191
 30
0.0
  0
SPLINE
  5
105
100
AcDbEntity
  8
Layer_1
 62
7
100
AcDbSpline
 70
8
 71
3
 72
8
 73
4
 74
0
 40
0
 40
0
 40
0
 40
0
 40
1
 40
1
 40
1
 40
1
 10
21.154690
 20
14.749191
 30
0.0
 10
20.505673
 20
14.312434
 30
0.0
 10
20.334189
 20
14.262767
 30
0.0
 10
19.476185
 20
14.262767
 30
0.0
  0
SPLINE
  5
106
100
AcDbEntity
  8
Layer_1
 62
7
100
AcDbSpline
 70
8
 71
3
 72
8
 73
4
 74
0
 40
0
 40
0
 40
0
 40
0
 40
1
 40
1
 40
1
 40
1
 10
19.476185
 20
14.262767
 30
0.0
 10
17.394173
 20
14.262767
 30
0.0
 10
15.723194
 20
13.717452
 30
0.0
 10
14.786238
 20
12.731970
 30
0.0
  0
SPLINE
  5
107
100
AcDbEntity
  8
Layer_1
 62
7
100
AcDbSpline
 70
8
 71
3
 72
8
 73
4
 74
0
 40
0
 40
0
 40
0
 40
0
 40
1
 40
1
 40
1
 40
1
 10
14.786238
 20
12.731970
 30
0.0
 10
14.404802
 20
12.330780
 30
0.0
 10
14.303334
 20
12.298436
 30
0.0
 10
13.423429
 20
12.298436
 30
0.0
  0
SPLINE
  5
108
100
AcDbEntity
  8
Layer_1
 62
7
100
AcDbSpline
 70
8
 71
3
 72
8
 73
4
 74
0
 40
0
 40
0
 40
0
 40
0
 40
1
 40
1
 40
1
 40
1
 10
13.423429
 20
12.298436
 30
0.0
 10
10.860463
 20
12.298436
 30
0.0
 10
8.954629
 20
10.443311
 30
0.0
 10
8.954629
 20
7.948573
 30
0.0
  0
SPLINE
  5
109
100
AcDbEntity
  8
Layer_1
 62
7
100
AcDbSpline
 70
8
 71
3
 72
8
 73
4
 74
0
 40
0
 40
0
 40
0
 40
0
 40
1
 40
1
 40
1
 40
1
 10
8.954629
 20
7.948573
 30
0.0
 10
8.954629
 20
7.491145
 30
0.0
 10
9.049399
 20
6.838017
 30
0.0
 10
9.165095
 20
6.497248
 30
0.0
  0
SPLINE
  5
10a
100
AcDbEntity
  8
Layer_1
 62
7
100
AcDbSpline
 70
8
 71
3
 72
8
 73
4
 74
0
 40
0
 40
0
 40
0
 40
0
 40
1
 40
1
 40
1
 40
1
 10
9.165095
 20
6.497248
 30
0.0
 10
9.367910
 20
5.899877
 30
0.0
 10
9.361710
 20
5.848117
 30
0.0
 10
8.995462
 20
5.054144
 30
0.0
  0
SPLINE
  5
10b
100
AcDbEntity
  8
Layer_1
 62
7
100
AcDbSpline
 70
8
 71
3
 72
8
 73
4
 74
0
 40
0
 40
0
 40
0
 40
0
 40
1
 40
1
 40
1
 40
1
 10
8.995462
 20
5.054144
 30
0.0
 10
8.420804
 20
3.808367
 30
0.0
 10
8.462189
 20
2.545612
 30
0.0
 10
9.122342
 20
1.181662
 30
0.0
  0
SPLINE
  5
10c
100
AcDbEntity
  8
Layer_1
 62
7
100
AcDbSpline
 70
8
 71
3
 72
8
 73
4
 74
0
 40
0
 40
0
 40
0
 40
0
 40
1
 40
1
 40
1
 40
1
 10
9.122342
 20
1.181662
 30
0.0
 10
9.579225
 20
0.237690
 30
0.0
 10
9.611043
 20
0.086881
 30
0.0
 10
9.550673
 20
-0.843781
 30
0.0
  0
SPLINE
  5
10d
100
AcDbEntity
  8
Layer_1
 62
7
100
AcDbSpline
 70
8
 71
3
 72
8
 73
4
 74
0
 40
0
 40
0
 40
0
 40
0
 40
1
 40
1
 40
1
 40
1
 10
9.550673
 20
-0.843781
 30
0.0
 10
9.467988
 20
-2.118427
 30
0.0
 10
9.733750
 20
-2.958158
 30
0.0
 10
10.570107
 20
-4.065689
 30
0.0
  0
SPLINE
  5
10e
100
AcDbEntity
  8
Layer_1
 62
7
100
AcDbSpline
 70
8
 71
3
 72
8
 73
4
 74
0
 40
0
 40
0
 40
0
 40
0
 40
1
 40
1
 40
1
 40
1
 10
10.570107
 20
-4.065689
 30
0.0
 10
11.157544
 20
-4.843595
 30
0.0
 10
11.192210
 20
-4.940720
 30
0.0
 10
11.195742
 20
-5.811609
 30
0.0
  0
SPLINE
  5
10f
100
AcDbEntity
  8
Layer_1
 62
7
100
AcDbSpline
 70
8
 71
3
 72
8
 73
4
 74
0
 40
0
 40
0
 40
0
 40
0
 40
1
 40
1
 40
1
 40
1
 10
11.195742
 20
-5.811609
 30
0.0
 10
11.201151
 20
-7.142704
 30
0.0
 10
11.518389
 20
-7.926382
 30
0.0
 10
12.460722
 20
-8.937328
 30
0.0
  0
SPLINE
  5
110
100
AcDbEntity
  8
Layer_1
 62
7
100
AcDbSpline
 70
8
 71
3
 72
8
 73
4
 74
0
 40
0
 40
0
 40
0
 40
0
 40
1
 40
1
 40
1
 40
1
 10
12.460722
 20
-8.937328
 30
0.0
 10
13.180391
 20
-9.709400
 30
0.0
 10
13.281212
 20
-9.892942
 30
0.0
 10
13.418772
 20
-10.681876
 30
0.0
  0
SPLINE
  5
111
100
AcDbEntity
  8
Layer_1
 62
7
100
AcDbSpline
 70
8
 71
3
 72
8
 73
4
 74
0
 40
0
 40
0
 40
0
 40
0
 40
1
 40
1
 40
1
 40
1
 10
13.418772
 20
-10.681876
 30
0.0
 10
13.691677
 20
-12.247083
 30
0.0
 10
14.400814
 20
-13.192300
 30
0.0
 10
16.421719
 20
-14.684255
 30
0.0
  0
SPLINE
  5
112
100
AcDbEntity
  8
Layer_1
 62
7
100
AcDbSpline
 70
8
 71
3
 72
8
 73
4
 74
0
 40
0
 40
0
 40
0
 40
0
 40
1
 40
1
 40
1
 40
1
 10
16.421719
 20
-14.684255
 30
0.0
 10
16.792900
 20
-14.958284
 30
0.0
 10
16.988608
 20
-15.240527
 30
0.0
 10
17.099696
 20
-15.662036
 30
0.0
  0
SPLINE
  5
113
100
AcDbEntity
  8
Layer_1
 62
7
100
AcDbSpline
 70
8
 71
3
 72
8
 73
4
 74
0
 40
0
 40
0
 40
0
 40
0
 40
1
 40
1
 40
1
 40
1
 10
17.099696
 20
-15.662036
 30
0.0
 10
17.481254
 20
-17.109765
 30
0.0
 10
18.492235
 20
-18.152576
 30
0.0
 10
20.407652
 20
-19.073856
 30
0.0
  0
SPLINE
  5
114
100
AcDbEntity
  8
Layer_1
 62
7
100
AcDbSpline
 70
8
 71
3
 72
8
 73
4
 74
0
 40
0
 40
0
 40
0
 40
0
 40
1
 40
1
 40
1
 40
1
 10
20.407652
 20
-19.073856
 30
0.0
 10
21.232082
 20
-19.470390
 30
0.0
 10
21.487084
 20
-19.668384
 30
0.0
 10
21.637828
 20
-20.029165
 30
0.0
  0
SPLINE
  5
115
100
AcDbEntity
  8
Layer_1
 62
7
100
AcDbSpline
 70
8
 71
3
 72
8
 73
4
 74
0
 40
0
 40
0
 40
0
 40
0
 40
1
 40
1
 40
1
 40
1
 10
21.637828
 20
-20.029165
 30
0.0
 10
21.926732
 20
-20.720608
 30
0.0
 10
22.675249
 20
-21.497008
 30
0.0
 10
23.503503
 20
-21.964447
 30
0.0
  0
SPLINE
  5
116
100
AcDbEntity
  8
Layer_1
 62
7
100
AcDbSpline
 70
8
 71
3
 72
8
 73
4
 74
0
 40
0
 40
0
 40
0
 40
0
 40
1
 40
1
 40
1
 40
1
 10
23.503503
 20
-21.964447
 30
0.0
 10
23.913241
 20
-22.195688
 30
0.0
 10
24.248351
 20
-22.404205
 30
0.0
 10
24.248351
 20
-22.428126
 30
0.0
  0
SPLINE
  5
117
100
AcDbEntity
  8
Layer_1
 62
7
100
AcDbSpline
 70
8
 71
3
 72
8
 73
4
 74
0
 40
0
 40
0
 40
0
 40
0
 40
1
 40
1
 40
1
 40
1
 10
24.248351
 20
-22.428126
 30
0.0
 10
24.248351
 20
-22.452048
 30
0.0
 10
23.694894
 20
-22.876480
 30
0.0
 10
23.018451
 20
-23.371103
 30
0.0
  0
SPLINE
  5
118
100
AcDbEntity
  8
Layer_1
 62
7
100
AcDbSpline
 70
8
 71
3
 72
8
 73
4
 74
0
 40
0
 40
0
 40
0
 40
0
 40
1
 40
1
 40
1
 40
1
 10
23.018451
 20
-23.371103
 30
0.0
 10
18.865351
 20
-26.407903
 30
0.0
 10
15.810964
 20
-30.896017
 30
0.0
 10
14.588929
 20
-35.757511
 30
0.0
  0
SPLINE
  5
119
100
AcDbEntity
  8
Layer_1
 62
7
100
AcDbSpline
 70
8
 71
3
 72
8
 73
4
 74
0
 40
0
 40
0
 40
0
 40
0
 40
1
 40
1
 40
1
 40
1
 10
14.588929
 20
-35.757511
 30
0.0
 10
14.177615
 20
-37.393804
 30
0.0
 10
13.866348
 20
-39.717464
 30
0.0
 10
13.859979
 20
-41.198611
 30
0.0
  0
SPLINE
  5
11a
100
AcDbEntity
  8
Layer_1
 62
7
100
AcDbSpline
 70
8
 71
3
 72
8
 73
4
 74
0
 40
0
 40
0
 40
0
 40
0
 40
1
 40
1
 40
1
 40
1
 10
13.859979
 20
-41.198611
 30
0.0
 10
13.852608
 20
-42.916979
 30
0.0
 10
13.507370
 20
-43.589774
 30
0.0
 10
12.019239
 20
-44.786912
 30
0.0
  0
SPLINE
  5
11b
100
AcDbEntity
  8
Layer_1
 62
7
100
AcDbSpline
 70
8
 71
3
 72
8
 73
4
 74
0
 40
0
 40
0
 40
0
 40
0
 40
1
 40
1
 40
1
 40
1
 10
12.019239
 20
-44.786912
 30
0.0
 10
8.233279
 20
-47.832564
 30
0.0
 10
5.600340
 20
-52.034102
 30
0.0
 10
4.486380
 20
-56.806930
 30
0.0
  0
SPLINE
  5
11c
100
AcDbEntity
  8
Layer_1
 62
7
100
AcDbSpline
 70
8
 71
3
 72
8
 73
4
 74
0
 40
0
 40
0
 40
0
 40
0
 40
1
 40
1
 40
1
 40
1
 10
4.486380
 20
-56.806930
 30
0.0
 10
3.562677
 20
-60.764592
 30
0.0
 10
3.883908
 20
-65.130805
 30
0.0
 10
5.394004
 20
-69.140723
 30
0.0
  0
SPLINE
  5
11d
100
AcDbEntity
  8
Layer_1
 62
7
100
AcDbSpline
 70
8
 71
3
 72
8
 73
4
 74
0
 40
0
 40
0
 40
0
 40
0
 40
1
 40
1
 40
1
 40
1
 10
5.394004
 20
-69.140723
 30
0.0
 10
6.113991
 20
-71.052567
 30
0.0
 10
7.813114
 20
-73.947433
 30
0.0
 10
8.907495
 20
-75.126890
 30
0.0
  0
SPLINE
  5
11e
100
AcDbEntity
  8
Layer_1
 62
7
100
AcDbSpline
 70
8
 71
3
 72
8
 73
4
 74
0
 40
0
 40
0
 40
0
 40
0
 40
1
 40
1
 40
1
 40
1
 10
8.907495
 20
-75.126890
 30
0.0
 10
9.149987
 20
-75.388234
 30
0.0
 10
9.400041
 20
-76.085800
 30
0.0
 10
9.797858
 20
-77.610533
 30
0.0
  0
SPLINE
  5
11f
100
AcDbEntity
  8
Layer_1
 62
7
100
AcDbSpline
 70
8
 71
3
 72
8
 73
4
 74
0
 40
0
 40
0
 40
0
 40
0
 40
1
 40
1
 40
1
 40
1
 10
9.797858
 20
-77.610533
 30
0.0
 10
10.314782
 20
-79.591787
 30
0.0
 10
11.226903
 20
-82.310720
 30
0.0
 10
11.906062
 20
-83.895127
 30
0.0
  0
SPLINE
  5
120
100
AcDbEntity
  8
Layer_1
 62
7
100
AcDbSpline
 70
8
 71
3
 72
8
 73
4
 74
0
 40
0
 40
0
 40
0
 40
0
 40
1
 40
1
 40
1
 40
1
 10
11.906062
 20
-83.895127
 30
0.0
 10
12.067868
 20
-84.272608
 30
0.0
 10
12.295718
 20
-85.087312
 30
0.0
 10
12.412491
 20
-85.705720
 30
0.0
  0
SPLINE
  5
121
100
AcDbEntity
  8
Layer_1
 62
7
100
AcDbSpline
 70
8
 71
3
 72
8
 73
4
 74
0
 40
0
 40
0
 40
0
 40
0
 40
1
 40
1
 40
1
 40
1
 10
12.412491
 20
-85.705720
 30
0.0
 10
13.228791
 20
-90.028888
 30
0.0
 10
14.964235
 20
-93.638247
 30
0.0
 10
17.810286
 20
-96.932389
 30
0.0
  0
SPLINE
  5
122
100
AcDbEntity
  8
Layer_1
 62
7
100
AcDbSpline
 70
8
 71
3
 72
8
 73
4
 74
0
 40
0
 40
0
 40
0
 40
0
 40
1
 40
1
 40
1
 40
1
 10
17.810286
 20
-96.932389
 30
0.0
 10
19.817881
 20
-99.256060
 30
0.0
 10
22.251341
 20
-101.118972
 30
0.0
 10
25.090207
 20
-102.505571
 30
0.0
  0
SPLINE
  5
123
100
AcDbEntity
  8
Layer_1
 62
7
100
AcDbSpline
 70
8
 71
3
 72
8
 73
4
 74
0
 40
0
 40
0
 40
0
 40
0
 40
1
 40
1
 40
1
 40
1
 10
25.090207
 20
-102.505571
 30
0.0
 10
26.054833
 20
-102.976730
 30
0.0
 10
27.096629
 20
-103.560683
 30
0.0
 10
27.405308
 20
-103.803159
 30
0.0
  0
SPLINE
  5
124
100
AcDbEntity
  8
Layer_1
 62
7
100
AcDbSpline
 70
8
 71
3
 72
8
 73
4
 74
0
 40
0
 40
0
 40
0
 40
0
 40
1
 40
1
 40
1
 40
1
 10
27.405308
 20
-103.803159
 30
0.0
 10
30.016573
 20
-105.854398
 30
0.0
 10
33.823645
 20
-108.070089
 30
0.0
 10
37.393306
 20
-109.616134
 30
0.0
  0
SPLINE
  5
125
100
AcDbEntity
  8
Layer_1
 62
7
100
AcDbSpline
 70
8
 71
3
 72
8
 73
4
 74
0
 40
0
 40
0
 40
0
 40
0
 40
1
 40
1
 40
1
 40
1
 10
37.393306
 20
-109.616134
 30
0.0
 10
38.480422
 20
-110.086969
 30
0.0
 10
39.444285
 20
-110.472239
 30
0.0
 10
39.535216
 20
-110.472239
 30
0.0
  0
SPLINE
  5
126
100
AcDbEntity
  8
Layer_1
 62
7
100
AcDbSpline
 70
8
 71
3
 72
8
 73
4
 74
0
 40
0
 40
0
 40
0
 40
0
 40
1
 40
1
 40
1
 40
1
 10
39.535216
 20
-110.472239
 30
0.0
 10
39.626147
 20
-110.472239
 30
0.0
 10
40.185738
 20
-110.954895
 30
0.0
 10
40.778819
 20
-111.544836
 30
0.0
  0
SPLINE
  5
127
100
AcDbEntity
  8
Layer_1
 62
7
100
AcDbSpline
 70
8
 71
3
 72
8
 73
4
 74
0
 40
0
 40
0
 40
0
 40
0
 40
1
 40
1
 40
1
 40
1
 10
40.778819
 20
-111.544836
 30
0.0
 10
41.986398
 20
-112.746036
 30
0.0
 10
44.123448
 20
-114.394891
 30
0.0
 10
45.561119
 20
-115.234536
 30
0.0
  0
SPLINE
  5
128
100
AcDbEntity
  8
Layer_1
 62
7
100
AcDbSpline
 70
8
 71
3
 72
8
 73
4
 74
0
 40
0
 40
0
 40
0
 40
0
 40
1
 40
1
 40
1
 40
1
 10
45.561119
 20
-115.234536
 30
0.0
 10
48.233577
 20
-116.795334
 30
0.0
 10
51.991390
 20
-117.966805
 30
0.0
 10
55.186558
 20
-118.235287
 30
0.0
  0
SPLINE
  5
129
100
AcDbEntity
  8
Layer_1
 62
7
100
AcDbSpline
 70
8
 71
3
 72
8
 73
4
 74
0
 40
0
 40
0
 40
0
 40
0
 40
1
 40
1
 40
1
 40
1
 10
55.186558
 20
-118.235287
 30
0.0
 10
57.094174
 20
-118.395577
 30
0.0
 10
59.970124
 20
-118.188727
 30
0.0
 10
61.846867
 20
-117.756264
 30
0.0
  0
SPLINE
  5
12a
100
AcDbEntity
  8
Layer_1
 62
7
100
AcDbSpline
 70
8
 71
3
 72
8
 73
4
 74
0
 40
0
 40
0
 40
0
 40
0
 40
1
 40
1
 40
1
 40
1
 10
61.846867
 20
-117.756264
 30
0.0
 10
66.039989
 20
-116.790079
 30
0.0
 10
69.641722
 20
-114.822236
 30
0.0
 10
72.813740
 20
-111.764344
 30
0.0
  0
SPLINE
  5
12b
100
AcDbEntity
  8
Layer_1
 62
7
100
AcDbSpline
 70
8
 71
3
 72
8
 73
4
 74
0
 40
0
 40
0
 40
0
 40
0
 40
1
 40
1
 40
1
 40
1
 10
72.813740
 20
-111.764344
 30
0.0
 10
74.295725
 20
-110.335681
 30
0.0
 10
74.579469
 20
-110.126996
 30
0.0
 10
75.704883
 20
-109.638879
 30
0.0
  0
SPLINE
  5
12c
100
AcDbEntity
  8
Layer_1
 62
7
100
AcDbSpline
 70
8
 71
3
 72
8
 73
4
 74
0
 40
0
 40
0
 40
0
 40
0
 40
1
 40
1
 40
1
 40
1
 10
75.704883
 20
-109.638879
 30
0.0
 10
78.694589
 20
-108.342171
 30
0.0
 10
81.692047
 20
-106.666546
 30
0.0
 10
84.329249
 20
-104.817390
 30
0.0
  0
SPLINE
  5
12d
100
AcDbEntity
  8
Layer_1
 62
7
100
AcDbSpline
 70
8
 71
3
 72
8
 73
4
 74
0
 40
0
 40
0
 40
0
 40
0
 40
1
 40
1
 40
1
 40
1
 10
84.329249
 20
-104.817390
 30
0.0
 10
85.155207
 20
-104.238241
 30
0.0
 10
86.165439
 20
-103.654096
 30
0.0
 10
86.574197
 20
-103.519527
 30
0.0
  0
SPLINE
  5
12e
100
AcDbEntity
  8
Layer_1
 62
7
100
AcDbSpline
 70
8
 71
3
 72
8
 73
4
 74
0
 40
0
 40
0
 40
0
 40
0
 40
1
 40
1
 40
1
 40
1
 10
86.574197
 20
-103.519527
 30
0.0
 10
91.361895
 20
-101.943333
 30
0.0
 10
95.975860
 20
-98.289482
 30
0.0
 10
98.708761
 20
-93.909709
 30
0.0
  0
SPLINE
  5
12f
100
AcDbEntity
  8
Layer_1
 62
7
100
AcDbSpline
 70
8
 71
3
 72
8
 73
4
 74
0
 40
0
 40
0
 40
0
 40
0
 40
1
 40
1
 40
1
 40
1
 10
98.708761
 20
-93.909709
 30
0.0
 10
100.849345
 20
-90.479189
 30
0.0
 10
102.260343
 20
-85.843360
 30
0.0
 10
102.260343
 20
-82.241287
 30
0.0
  0
SPLINE
  5
130
100
AcDbEntity
  8
Layer_1
 62
7
100
AcDbSpline
 70
8
 71
3
 72
8
 73
4
 74
0
 40
0
 40
0
 40
0
 40
0
 40
1
 40
1
 40
1
 40
1
 10
102.260343
 20
-82.241287
 30
0.0
 10
102.260343
 20
-81.519396
 30
0.0
 10
102.397872
 20
-80.823702
 30
0.0
 10
102.803766
 20
-79.492371
 30
0.0
  0
SPLINE
  5
131
100
AcDbEntity
  8
Layer_1
 62
7
100
AcDbSpline
 70
8
 71
3
 72
8
 73
4
 74
0
 40
0
 40
0
 40
0
 40
0
 40
1
 40
1
 40
1
 40
1
 10
102.803766
 20
-79.492371
 30
0.0
 10
103.102639
 20
-78.512085
 30
0.0
 10
103.492624
 20
-77.078612
 30
0.0
 10
103.670562
 20
-76.306915
 30
0.0
  0
SPLINE
  5
132
100
AcDbEntity
  8
Layer_1
 62
7
100
AcDbSpline
 70
8
 71
3
 72
8
 73
4
 74
0
 40
0
 40
0
 40
0
 40
0
 40
1
 40
1
 40
1
 40
1
 10
103.670562
 20
-76.306915
 30
0.0
 10
103.934870
 20
-75.160623
 30
0.0
 10
104.093988
 20
-74.775416
 30
0.0
 10
104.539819
 20
-74.202275
 30
0.0
  0
SPLINE
  5
133
100
AcDbEntity
  8
Layer_1
 62
7
100
AcDbSpline
 70
8
 71
3
 72
8
 73
4
 74
0
 40
0
 40
0
 40
0
 40
0
 40
1
 40
1
 40
1
 40
1
 10
104.539819
 20
-74.202275
 30
0.0
 10
106.558242
 20
-71.607481
 30
0.0
 10
108.057308
 20
-68.420344
 30
0.0
 10
108.733206
 20
-65.286603
 30
0.0
  0
SPLINE
  5
134
100
AcDbEntity
  8
Layer_1
 62
7
100
AcDbSpline
 70
8
 71
3
 72
8
 73
4
 74
0
 40
0
 40
0
 40
0
 40
0
 40
1
 40
1
 40
1
 40
1
 10
108.733206
 20
-65.286603
 30
0.0
 10
109.164905
 20
-63.285086
 30
0.0
 10
109.199655
 20
-59.061561
 30
0.0
 10
108.801716
 20
-56.944226
 30
0.0
  0
SPLINE
  5
135
100
AcDbEntity
  8
Layer_1
 62
7
100
AcDbSpline
 70
8
 71
3
 72
8
 73
4
 74
0
 40
0
 40
0
 40
0
 40
0
 40
1
 40
1
 40
1
 40
1
 10
108.801716
 20
-56.944226
 30
0.0
 10
108.296464
 20
-54.255870
 30
0.0
 10
107.207248
 20
-51.640771
 30
0.0
 10
105.529115
 20
-49.086901
 30
0.0
  0
SPLINE
  5
136
100
AcDbEntity
  8
Layer_1
 62
7
100
AcDbSpline
 70
8
 71
3
 72
8
 73
4
 74
0
 40
0
 40
0
 40
0
 40
0
 40
1
 40
1
 40
1
 40
1
 10
105.529115
 20
-49.086901
 30
0.0
 10
104.527442
 20
-47.562513
 30
0.0
 10
101.600986
 20
-44.513557
 30
0.0
 10
100.426455
 20
-43.770491
 30
0.0
  0
SPLINE
  5
137
100
AcDbEntity
  8
Layer_1
 62
7
100
AcDbSpline
 70
8
 71
3
 72
8
 73
4
 74
0
 40
0
 40
0
 40
0
 40
0
 40
1
 40
1
 40
1
 40
1
 10
100.426455
 20
-43.770491
 30
0.0
 10
99.425746
 20
-43.137394
 30
0.0
 10
99.065140
 20
-42.304378
 30
0.0
 10
98.961705
 20
-40.387720
 30
0.0
  0
SPLINE
  5
138
100
AcDbEntity
  8
Layer_1
 62
7
100
AcDbSpline
 70
8
 71
3
 72
8
 73
4
 74
0
 40
0
 40
0
 40
0
 40
0
 40
1
 40
1
 40
1
 40
1
 10
98.961705
 20
-40.387720
 30
0.0
 10
98.706008
 20
-35.649770
 30
0.0
 10
97.001933
 20
-31.104537
 30
0.0
 10
94.132813
 20
-27.507486
 30
0.0
  0
SPLINE
  5
139
100
AcDbEntity
  8
Layer_1
 62
7
100
AcDbSpline
 70
8
 71
3
 72
8
 73
4
 74
0
 40
0
 40
0
 40
0
 40
0
 40
1
 40
1
 40
1
 40
1
 10
94.132813
 20
-27.507486
 30
0.0
 10
93.125730
 20
-26.244893
 30
0.0
 10
90.837197
 20
-24.052016
 30
0.0
 10
89.825702
 20
-23.380421
 30
0.0
  0
SPLINE
  5
13a
100
AcDbEntity
  8
Layer_1
 62
7
100
AcDbSpline
 70
8
 71
3
 72
8
 73
4
 74
0
 40
0
 40
0
 40
0
 40
0
 40
1
 40
1
 40
1
 40
1
 10
89.825702
 20
-23.380421
 30
0.0
 10
89.405416
 20
-23.101368
 30
0.0
 10
89.110976
 20
-22.827720
 30
0.0
 10
89.171563
 20
-22.772597
 30
0.0
  0
SPLINE
  5
13b
100
AcDbEntity
  8
Layer_1
 62
7
100
AcDbSpline
 70
8
 71
3
 72
8
 73
4
 74
0
 40
0
 40
0
 40
0
 40
0
 40
1
 40
1
 40
1
 40
1
 10
89.171563
 20
-22.772597
 30
0.0
 10
89.232150
 20
-22.717473
 30
0.0
 10
89.534285
 20
-22.593116
 30
0.0
 10
89.842969
 20
-22.496089
 30
0.0
  0
SPLINE
  5
13c
100
AcDbEntity
  8
Layer_1
 62
7
100
AcDbSpline
 70
8
 71
3
 72
8
 73
4
 74
0
 40
0
 40
0
 40
0
 40
0
 40
1
 40
1
 40
1
 40
1
 10
89.842969
 20
-22.496089
 30
0.0
 10
91.309098
 20
-22.035237
 30
0.0
 10
92.429373
 20
-21.151454
 30
0.0
 10
92.961289
 20
-20.036016
 30
0.0
  0
SPLINE
  5
13d
100
AcDbEntity
  8
Layer_1
 62
7
100
AcDbSpline
 70
8
 71
3
 72
8
 73
4
 74
0
 40
0
 40
0
 40
0
 40
0
 40
1
 40
1
 40
1
 40
1
 10
92.961289
 20
-20.036016
 30
0.0
 10
93.147277
 20
-19.645989
 30
0.0
 10
93.415902
 20
-19.442312
 30
0.0
 10
94.325467
 20
-19.002057
 30
0.0
  0
SPLINE
  5
13e
100
AcDbEntity
  8
Layer_1
 62
7
100
AcDbSpline
 70
8
 71
3
 72
8
 73
4
 74
0
 40
0
 40
0
 40
0
 40
0
 40
1
 40
1
 40
1
 40
1
 10
94.325467
 20
-19.002057
 30
0.0
 10
96.127283
 20
-18.129929
 30
0.0
 10
97.261813
 20
-16.912261
 30
0.0
 10
97.551210
 20
-15.539814
 30
0.0
  0
SPLINE
  5
13f
100
AcDbEntity
  8
Layer_1
 62
7
100
AcDbSpline
 70
8
 71
3
 72
8
 73
4
 74
0
 40
0
 40
0
 40
0
 40
0
 40
1
 40
1
 40
1
 40
1
 10
97.551210
 20
-15.539814
 30
0.0
 10
97.620425
 20
-15.211577
 30
0.0
 10
97.928261
 20
-14.881198
 30
0.0
 10
98.812350
 20
-14.186323
 30
0.0
  0
SPLINE
  5
140
100
AcDbEntity
  8
Layer_1
 62
7
100
AcDbSpline
 70
8
 71
3
 72
8
 73
4
 74
0
 40
0
 40
0
 40
0
 40
0
 40
1
 40
1
 40
1
 40
1
 10
98.812350
 20
-14.186323
 30
0.0
 10
100.436191
 20
-12.910024
 30
0.0
 10
100.958873
 20
-12.093557
 30
0.0
 10
101.215970
 20
-10.431677
 30
0.0
  0
SPLINE
  5
141
100
AcDbEntity
  8
Layer_1
 62
7
100
AcDbSpline
 70
8
 71
3
 72
8
 73
4
 74
0
 40
0
 40
0
 40
0
 40
0
 40
1
 40
1
 40
1
 40
1
 10
101.215970
 20
-10.431677
 30
0.0
 10
101.294619
 20
-9.923290
 30
0.0
 10
101.470664
 20
-9.632067
 30
0.0
 10
102.119760
 20
-8.937328
 30
0.0
  0
SPLINE
  5
142
100
AcDbEntity
  8
Layer_1
 62
7
100
AcDbSpline
 70
8
 71
3
 72
8
 73
4
 74
0
 40
0
 40
0
 40
0
 40
0
 40
1
 40
1
 40
1
 40
1
 10
102.119760
 20
-8.937328
 30
0.0
 10
103.060645
 20
-7.930288
 30
0.0
 10
103.382820
 20
-7.140521
 30
0.0
 10
103.382820
 20
-5.840657
 30
0.0
  0
SPLINE
  5
143
100
AcDbEntity
  8
Layer_1
 62
7
100
AcDbSpline
 70
8
 71
3
 72
8
 73
4
 74
0
 40
0
 40
0
 40
0
 40
0
 40
1
 40
1
 40
1
 40
1
 10
103.382820
 20
-5.840657
 30
0.0
 10
103.382820
 20
-5.017497
 30
0.0
 10
103.426252
 20
-4.889988
 30
0.0
 10
103.939123
 20
-4.210657
 30
0.0
  0
SPLINE
  5
144
100
AcDbEntity
  8
Layer_1
 62
7
100
AcDbSpline
 70
8
 71
3
 72
8
 73
4
 74
0
 40
0
 40
0
 40
0
 40
0
 40
1
 40
1
 40
1
 40
1
 10
103.939123
 20
-4.210657
 30
0.0
 10
104.866491
 20
-2.982369
 30
0.0
 10
105.089611
 20
-2.325831
 30
0.0
 10
105.056939
 20
-0.919417
 30
0.0
  0
SPLINE
  5
145
100
AcDbEntity
  8
Layer_1
 62
7
100
AcDbSpline
 70
8
 71
3
 72
8
 73
4
 74
0
 40
0
 40
0
 40
0
 40
0
 40
1
 40
1
 40
1
 40
1
 10
105.056939
 20
-0.919417
 30
0.0
 10
105.031272
 20
0.186269
 30
0.0
 10
105.069083
 20
0.386124
 30
0.0
 10
105.456766
 20
1.189882
 30
0.0
  0
SPLINE
  5
146
100
AcDbEntity
  8
Layer_1
 62
7
100
AcDbSpline
 70
8
 71
3
 72
8
 73
4
 74
0
 40
0
 40
0
 40
0
 40
0
 40
1
 40
1
 40
1
 40
1
 10
105.456766
 20
1.189882
 30
0.0
 10
106.022080
 20
2.361830
 30
0.0
 10
106.129689
 20
3.205635
 30
0.0
 10
105.852208
 20
4.288746
 30
0.0
  0
SPLINE
  5
147
100
AcDbEntity
  8
Layer_1
 62
7
100
AcDbSpline
 70
8
 71
3
 72
8
 73
4
 74
0
 40
0
 40
0
 40
0
 40
0
 40
1
 40
1
 40
1
 40
1
 10
105.852208
 20
4.288746
 30
0.0
 10
105.731664
 20
4.759282
 30
0.0
 10
105.530223
 20
5.301435
 30
0.0
 10
105.404425
 20
5.493433
 30
0.0
  0
SPLINE
  5
148
100
AcDbEntity
  8
Layer_1
 62
7
100
AcDbSpline
 70
8
 71
3
 72
8
 73
4
 74
0
 40
0
 40
0
 40
0
 40
0
 40
1
 40
1
 40
1
 40
1
 10
105.404425
 20
5.493433
 30
0.0
 10
105.193683
 20
5.815059
 30
0.0
 10
105.193423
 20
5.886875
 30
0.0
 10
105.401773
 20
6.407362
 30
0.0
  0
SPLINE
  5
149
100
AcDbEntity
  8
Layer_1
 62
7
100
AcDbSpline
 70
8
 71
3
 72
8
 73
4
 74
0
 40
0
 40
0
 40
0
 40
0
 40
1
 40
1
 40
1
 40
1
 10
105.401773
 20
6.407362
 30
0.0
 10
105.537573
 20
6.746787
 30
0.0
 10
105.627852
 20
7.382456
 30
0.0
 10
105.627852
 20
7.999545
 30
0.0
  0
SPLINE
  5
14a
100
AcDbEntity
  8
Layer_1
 62
7
100
AcDbSpline
 70
8
 71
3
 72
8
 73
4
 74
0
 40
0
 40
0
 40
0
 40
0
 40
1
 40
1
 40
1
 40
1
 10
105.627852
 20
7.999545
 30
0.0
 10
105.627852
 20
8.863513
 30
0.0
 10
105.559958
 20
9.162292
 30
0.0
 10
105.200348
 20
9.881937
 30
0.0
  0
SPLINE
  5
14b
100
AcDbEntity
  8
Layer_1
 62
7
100
AcDbSpline
 70
8
 71
3
 72
8
 73
4
 74
0
 40
0
 40
0
 40
0
 40
0
 40
1
 40
1
 40
1
 40
1
 10
105.200348
 20
9.881937
 30
0.0
 10
104.420453
 20
11.442642
 30
0.0
 10
103.266169
 20
12.171656
 30
0.0
 10
101.418572
 20
12.270210
 30
0.0
  0
SPLINE
  5
14c
100
AcDbEntity
  8
Layer_1
 62
7
100
AcDbSpline
 70
8
 71
3
 72
8
 73
4
 74
0
 40
0
 40
0
 40
0
 40
0
 40
1
 40
1
 40
1
 40
1
 10
101.418572
 20
12.270210
 30
0.0
 10
100.270816
 20
12.331433
 30
0.0
 10
100.204231
 20
12.353784
 30
0.0
 10
99.645795
 20
12.865428
 30
0.0
  0
SPLINE
  5
14d
100
AcDbEntity
  8
Layer_1
 62
7
100
AcDbSpline
 70
8
 71
3
 72
8
 73
4
 74
0
 40
0
 40
0
 40
0
 40
0
 40
1
 40
1
 40
1
 40
1
 10
99.645795
 20
12.865428
 30
0.0
 10
99.326648
 20
13.157835
 30
0.0
 10
98.871097
 20
13.497408
 30
0.0
 10
98.633760
 20
13.620139
 30
0.0
  0
SPLINE
  5
14e
100
AcDbEntity
  8
Layer_1
 62
7
100
AcDbSpline
 70
8
 71
3
 72
8
 73
4
 74
0
 40
0
 40
0
 40
0
 40
0
 40
1
 40
1
 40
1
 40
1
 10
98.633760
 20
13.620139
 30
0.0
 10
97.983879
 20
13.956205
 30
0.0
 10
96.336561
 20
14.262767
 30
0.0
 10
95.179737
 20
14.262767
 30
0.0
  0
SPLINE
  5
14f
100
AcDbEntity
  8
Layer_1
 62
7
100
AcDbSpline
 70
8
 71
3
 72
8
 73
4
 74
0
 40
0
 40
0
 40
0
 40
0
 40
1
 40
1
 40
1
 40
1
 10
95.179737
 20
14.262767
 30
0.0
 10
94.238073
 20
14.262767
 30
0.0
 10
94.089344
 20
14.303998
 30
0.0
 10
93.427791
 20
14.749191
 30
0.0
  0
SPLINE
  5
150
100
AcDbEntity
  8
Layer_1
 62
7
100
AcDbSpline
 70
8
 71
3
 72
8
 73
4
 74
0
 40
0
 40
0
 40
0
 40
0
 40
1
 40
1
 40
1
 40
1
 10
93.427791
 20
14.749191
 30
0.0
 10
92.521031
 20
15.359394
 30
0.0
 10
91.933508
 20
15.523747
 30
0.0
 10
90.654762
 20
15.524729
 30
0.0
  0
SPLINE
  5
151
100
AcDbEntity
  8
Layer_1
 62
7
100
AcDbSpline
 70
8
 71
3
 72
8
 73
4
 74
0
 40
0
 40
0
 40
0
 40
0
 40
1
 40
1
 40
1
 40
1
 10
90.654762
 20
15.524729
 30
0.0
 10
89.770752
 20
15.525418
 30
0.0
 10
89.557703
 20
15.579034
 30
0.0
 10
88.975711
 20
15.948123
 30
0.0
  0
SPLINE
  5
152
100
AcDbEntity
  8
Layer_1
 62
7
100
AcDbSpline
 70
8
 71
3
 72
8
 73
4
 74
0
 40
0
 40
0
 40
0
 40
0
 40
1
 40
1
 40
1
 40
1
 10
88.975711
 20
15.948123
 30
0.0
 10
87.783023
 20
16.704504
 30
0.0
 10
86.820433
 20
16.815171
 30
0.0
 10
84.863439
 20
16.420846
 30
0.0
  0
SPLINE
  5
153
100
AcDbEntity
  8
Layer_1
 62
7
100
AcDbSpline
 70
8
 71
3
 72
8
 73
4
 74
0
 40
0
 40
0
 40
0
 40
0
 40
1
 40
1
 40
1
 40
1
 10
84.863439
 20
16.420846
 30
0.0
 10
83.749066
 20
16.196304
 30
0.0
 10
83.728209
 20
16.197523
 30
0.0
 10
83.001328
 20
16.517856
 30
0.0
  0
SPLINE
  5
154
100
AcDbEntity
  8
Layer_1
 62
7
100
AcDbSpline
 70
8
 71
3
 72
8
 73
4
 74
0
 40
0
 40
0
 40
0
 40
0
 40
1
 40
1
 40
1
 40
1
 10
83.001328
 20
16.517856
 30
0.0
 10
81.854580
 20
17.023224
 30
0.0
 10
80.495026
 20
16.970883
 30
0.0
 10
78.969079
 20
16.362749
 30
0.0
  0
SPLINE
  5
155
100
AcDbEntity
  8
Layer_1
 62
7
100
AcDbSpline
 70
8
 71
3
 72
8
 73
4
 74
0
 40
0
 40
0
 40
0
 40
0
 40
1
 40
1
 40
1
 40
1
 10
78.969079
 20
16.362749
 30
0.0
 10
78.313131
 20
16.101335
 30
0.0
 10
77.717781
 20
15.904521
 30
0.0
 10
77.646005
 20
15.925378
 30
0.0
  0
SPLINE
  5
156
100
AcDbEntity
  8
Layer_1
 62
7
100
AcDbSpline
 70
8
 71
3
 72
8
 73
4
 74
0
 40
0
 40
0
 40
0
 40
0
 40
1
 40
1
 40
1
 40
1
 10
77.646005
 20
15.925378
 30
0.0
 10
76.262736
 20
16.327311
 30
0.0
 10
75.063487
 20
16.195459
 30
0.0
 10
73.638695
 20
15.484719
 30
0.0
  0
SPLINE
  5
157
100
AcDbEntity
  8
Layer_1
 62
7
100
AcDbSpline
 70
8
 71
3
 72
8
 73
4
 74
0
 40
0
 40
0
 40
0
 40
0
 40
1
 40
1
 40
1
 40
1
 10
73.638695
 20
15.484719
 30
0.0
 10
72.834777
 20
15.083696
 30
0.0
 10
72.642972
 20
15.039782
 30
0.0
 10
72.158869
 20
15.144907
 30
0.0
  0
SPLINE
  5
158
100
AcDbEntity
  8
Layer_1
 62
7
100
AcDbSpline
 70
8
 71
3
 72
8
 73
4
 74
0
 40
0
 40
0
 40
0
 40
0
 40
1
 40
1
 40
1
 40
1
 10
72.158869
 20
15.144907
 30
0.0
 10
70.766261
 20
15.447318
 30
0.0
 10
69.398355
 20
14.939812
 30
0.0
 10
67.700755
 20
13.491340
 30
0.0
  0
SPLINE
  5
159
100
AcDbEntity
  8
Layer_1
 62
7
100
AcDbSpline
 70
8
 71
3
 72
8
 73
4
 74
0
 40
0
 40
0
 40
0
 40
0
 40
1
 40
1
 40
1
 40
1
 10
67.700755
 20
13.491340
 30
0.0
 10
66.740063
 20
12.671629
 30
0.0
 10
66.569507
 20
12.579055
 30
0.0
 10
66.020336
 20
12.579055
 30
0.0
  0
SPLINE
  5
15a
100
AcDbEntity
  8
Layer_1
 62
7
100
AcDbSpline
 70
8
 71
3
 72
8
 73
4
 74
0
 40
0
 40
0
 40
0
 40
0
 40
1
 40
1
 40
1
 40
1
 10
66.020336
 20
12.579055
 30
0.0
 10
65.067980
 20
12.579055
 30
0.0
 10
64.203273
 20
12.208080
 30
0.0
 10
63.268408
 20
11.398483
 30
0.0
  0
SPLINE
  5
15b
100
AcDbEntity
  8
Layer_1
 62
7
100
AcDbSpline
 70
8
 71
3
 72
8
 73
4
 74
0
 40
0
 40
0
 40
0
 40
0
 40
1
 40
1
 40
1
 40
1
 10
63.268408
 20
11.398483
 30
0.0
 10
61.331232
 20
9.720887
 30
0.0
 10
59.548544
 20
7.346676
 30
0.0
 10
58.176984
 20
4.617596
 30
0.0
  0
SPLINE
  5
15c
100
AcDbEntity
  8
Layer_1
 62
7
100
AcDbSpline
 70
8
 71
3
 72
8
 73
4
 74
0
 40
0
 40
0
 40
0
 40
0
 40
1
 40
1
 40
1
 40
1
 10
58.176984
 20
4.617596
 30
0.0
 10
57.738010
 20
3.744139
 30
0.0
 10
57.339519
 20
3.029454
 30
0.0
 10
57.291558
 20
3.029524
 30
0.0
  0
SPLINE
  5
15d
100
AcDbEntity
  8
Layer_1
 62
7
100
AcDbSpline
 70
8
 71
3
 72
8
 73
4
 74
0
 40
0
 40
0
 40
0
 40
0
 40
1
 40
1
 40
1
 40
1
 10
57.291558
 20
3.029524
 30
0.0
 10
57.243619
 20
3.029594
 30
0.0
 10
56.797597
 20
3.836623
 30
0.0
 10
56.300623
 20
4.822853
 30
0.0
  0
SPLINE
  5
15e
100
AcDbEntity
  8
Layer_1
 62
7
100
AcDbSpline
 70
8
 71
3
 72
8
 73
4
 74
0
 40
0
 40
0
 40
0
 40
0
 40
1
 40
1
 40
1
 40
1
 10
56.300623
 20
4.822853
 30
0.0
 10
55.194114
 20
7.018527
 30
0.0
 10
53.888779
 20
8.864112
 30
0.0
 10
52.303366
 20
10.473867
 30
0.0
  0
SPLINE
  5
15f
100
AcDbEntity
  8
Layer_1
 62
7
100
AcDbSpline
 70
8
 71
3
 72
8
 73
4
 74
0
 40
0
 40
0
 40
0
 40
0
 40
1
 40
1
 40
1
 40
1
 10
52.303366
 20
10.473867
 30
0.0
 10
50.769645
 20
12.031137
 30
0.0
 10
50.070502
 20
12.448403
 30
0.0
 10
48.832081
 20
12.546170
 30
0.0
  0
SPLINE
  5
160
100
AcDbEntity
  8
Layer_1
 62
7
100
AcDbSpline
 70
8
 71
3
 72
8
 73
4
 74
0
 40
0
 40
0
 40
0
 40
0
 40
1
 40
1
 40
1
 40
1
 10
48.832081
 20
12.546170
 30
0.0
 10
47.957414
 20
12.615221
 30
0.0
 10
47.840672
 20
12.665499
 30
0.0
 10
47.188927
 20
13.253472
 30
0.0
  0
SPLINE
  5
161
100
AcDbEntity
  8
Layer_1
 62
7
100
AcDbSpline
 70
8
 71
3
 72
8
 73
4
 74
0
 40
0
 40
0
 40
0
 40
0
 40
1
 40
1
 40
1
 40
1
 10
47.188927
 20
13.253472
 30
0.0
 10
45.472614
 20
14.801847
 30
0.0
 10
44.025961
 20
15.402965
 30
0.0
 10
42.600372
 20
15.159980
 30
0.0
  0
SPLINE
  5
162
100
AcDbEntity
  8
Layer_1
 62
7
100
AcDbSpline
 70
8
 71
3
 72
8
 73
4
 74
0
 40
0
 40
0
 40
0
 40
0
 40
1
 40
1
 40
1
 40
1
 10
42.600372
 20
15.159980
 30
0.0
 10
41.911397
 20
15.042547
 30
0.0
 10
41.790547
 20
15.066858
 30
0.0
 10
40.945159
 20
15.493762
 30
0.0
  0
SPLINE
  5
163
100
AcDbEntity
  8
Layer_1
 62
7
100
AcDbSpline
 70
8
 71
3
 72
8
 73
4
 74
0
 40
0
 40
0
 40
0
 40
0
 40
1
 40
1
 40
1
 40
1
 10
40.945159
 20
15.493762
 30
0.0
 10
39.751028
 20
16.096776
 30
0.0
 10
38.600302
 20
16.287132
 30
0.0
 10
37.581298
 20
16.050067
 30
0.0
  0
SPLINE
  5
164
100
AcDbEntity
  8
Layer_1
 62
7
100
AcDbSpline
 70
8
 71
3
 72
8
 73
4
 74
0
 40
0
 40
0
 40
0
 40
0
 40
1
 40
1
 40
1
 40
1
 10
37.581298
 20
16.050067
 30
0.0
 10
36.834907
 20
15.876423
 30
0.0
 10
36.779056
 20
15.885215
 30
0.0
 10
35.616971
 20
16.357816
 30
0.0
  0
SPLINE
  5
165
100
AcDbEntity
  8
Layer_1
 62
7
100
AcDbSpline
 70
8
 71
3
 72
8
 73
4
 74
0
 40
0
 40
0
 40
0
 40
0
 40
1
 40
1
 40
1
 40
1
 10
35.616971
 20
16.357816
 30
0.0
 10
34.761210
 20
16.705837
 30
0.0
 10
33.958899
 20
16.875046
 30
0.0
 10
33.213897
 20
16.865341
 30
0.0
  0
SPLINE
  5
166
100
AcDbEntity
  8
Layer_1
 62
7
100
AcDbSpline
 70
8
 71
3
 72
8
 73
4
 74
0
 40
0
 40
0
 40
0
 40
0
 40
1
 40
1
 40
1
 40
1
 10
80.953876
 20
12.438745
 30
0.0
 10
81.038003
 20
12.438745
 30
0.0
 10
80.937436
 20
12.216562
 30
0.0
 10
80.730258
 20
11.944923
 30
0.0
  0
SPLINE
  5
167
100
AcDbEntity
  8
Layer_1
 62
7
100
AcDbSpline
 70
8
 71
3
 72
8
 73
4
 74
0
 40
0
 40
0
 40
0
 40
0
 40
1
 40
1
 40
1
 40
1
 10
80.730258
 20
11.944923
 30
0.0
 10
80.270029
 20
11.341529
 30
0.0
 10
80.137061
 20
10.644856
 30
0.0
 10
80.411821
 20
10.276557
 30
0.0
  0
SPLINE
  5
168
100
AcDbEntity
  8
Layer_1
 62
7
100
AcDbSpline
 70
8
 71
3
 72
8
 73
4
 74
0
 40
0
 40
0
 40
0
 40
0
 40
1
 40
1
 40
1
 40
1
 10
80.411821
 20
10.276557
 30
0.0
 10
80.605318
 20
10.017183
 30
0.0
 10
80.638695
 20
10.024536
 30
0.0
 10
81.438928
 20
10.507848
 30
0.0
  0
SPLINE
  5
169
100
AcDbEntity
  8
Layer_1
 62
7
100
AcDbSpline
 70
8
 71
3
 72
8
 73
4
 74
0
 40
0
 40
0
 40
0
 40
0
 40
1
 40
1
 40
1
 40
1
 10
81.438928
 20
10.507848
 30
0.0
 10
82.542982
 20
11.174654
 30
0.0
 10
83.715858
 20
11.653544
 30
0.0
 10
85.128628
 20
12.014255
 30
0.0
  0
SPLINE
  5
16a
100
AcDbEntity
  8
Layer_1
 62
7
100
AcDbSpline
 70
8
 71
3
 72
8
 73
4
 74
0
 40
0
 40
0
 40
0
 40
0
 40
1
 40
1
 40
1
 40
1
 10
85.128628
 20
12.014255
 30
0.0
 10
86.514135
 20
12.368006
 30
0.0
 10
86.786854
 20
12.329924
 30
0.0
 10
86.065027
 20
11.883811
 30
0.0
  0
SPLINE
  5
16b
100
AcDbEntity
  8
Layer_1
 62
7
100
AcDbSpline
 70
8
 71
3
 72
8
 73
4
 74
0
 40
0
 40
0
 40
0
 40
0
 40
1
 40
1
 40
1
 40
1
 10
86.065027
 20
11.883811
 30
0.0
 10
85.443692
 20
11.499803
 30
0.0
 10
85.003545
 20
10.843232
 30
0.0
 10
85.002840
 20
10.299028
 30
0.0
  0
SPLINE
  5
16c
100
AcDbEntity
  8
Layer_1
 62
7
100
AcDbSpline
 70
8
 71
3
 72
8
 73
4
 74
0
 40
0
 40
0
 40
0
 40
0
 40
1
 40
1
 40
1
 40
1
 10
85.002840
 20
10.299028
 30
0.0
 10
85.002310
 20
9.821972
 30
0.0
 10
85.102702
 20
9.819977
 30
0.0
 10
86.415801
 20
10.271076
 30
0.0
  0
SPLINE
  5
16d
100
AcDbEntity
  8
Layer_1
 62
7
100
AcDbSpline
 70
8
 71
3
 72
8
 73
4
 74
0
 40
0
 40
0
 40
0
 40
0
 40
1
 40
1
 40
1
 40
1
 10
86.415801
 20
10.271076
 30
0.0
 10
87.906758
 20
10.783276
 30
0.0
 10
89.601156
 20
11.173784
 30
0.0
 10
90.334051
 20
11.174317
 30
0.0
  0
LWPOLYLINE
  5
16e
100
AcDbEntity
  8
Layer_1
 62
7
100
AcDbPolyline
 90
1
 70
1
 10
33.213897
 20
16.865341
 30
0.0
  0
SPLINE
  5
16f
100
AcDbEntity
  8
Layer_1
 62
7
100
AcDbSpline
 70
8
 71
3
 72
8
 73
4
 74
0
 40
0
 40
0
 40
0
 40
0
 40
1
 40
1
 40
1
 40
1
 10
90.525877
 20
10.906835
 30
0.0
 10
89.931832
 20
10.544603
 30
0.0
 10
89.632502
 20
10.083721
 30
0.0
 10
89.632502
 20
9.531146
 30
0.0
  0
SPLINE
  5
170
100
AcDbEntity
  8
Layer_1
 62
7
100
AcDbSpline
 70
8
 71
3
 72
8
 73
4
 74
0
 40
0
 40
0
 40
0
 40
0
 40
1
 40
1
 40
1
 40
1
 10
89.632502
 20
9.531146
 30
0.0
 10
89.632502
 20
8.955202
 30
0.0
 10
89.770869
 20
8.947730
 30
0.0
 10
91.419252
 20
9.434410
 30
0.0
  0
SPLINE
  5
171
100
AcDbEntity
  8
Layer_1
 62
7
100
AcDbSpline
 70
8
 71
3
 72
8
 73
4
 74
0
 40
0
 40
0
 40
0
 40
0
 40
1
 40
1
 40
1
 40
1
 10
91.419252
 20
9.434410
 30
0.0
 10
92.729180
 20
9.821161
 30
0.0
 10
95.174795
 20
10.036480
 30
0.0
 10
96.159355
 20
9.851775
 30
0.0
  0
LWPOLYLINE
  5
172
100
AcDbEntity
  8
Layer_1
 62
7
100
AcDbPolyline
 90
3
 70
0
 10
90.334051
 20
11.174317
 30
0.0
 10
90.965440
 20
11.174848
 30
0.0
 10
90.525877
 20
10.906835
 30
0.0
  0
SPLINE
  5
173
100
AcDbEntity
  8
Layer_1
 62
7
100
AcDbSpline
 70
8
 71
3
 72
8
 73
4
 74
0
 40
0
 40
0
 40
0
 40
0
 40
1
 40
1
 40
1
 40
1
 10
95.610173
 20
7.998157
 30
0.0
 10
95.910877
 20
7.936912
 30
0.0
 10
97.303346
 20
7.885348
 30
0.0
 10
98.704651
 20
7.883608
 30
0.0
  0
SPLINE
  5
174
100
AcDbEntity
  8
Layer_1
 62
7
100
AcDbSpline
 70
8
 71
3
 72
8
 73
4
 74
0
 40
0
 40
0
 40
0
 40
0
 40
1
 40
1
 40
1
 40
1
 10
98.704651
 20
7.883608
 30
0.0
 10
100.105955
 20
7.881858
 30
0.0
 10
101.232271
 20
7.848444
 30
0.0
 10
101.207474
 20
7.809343
 30
0.0
  0
SPLINE
  5
175
100
AcDbEntity
  8
Layer_1
 62
7
100
AcDbSpline
 70
8
 71
3
 72
8
 73
4
 74
0
 40
0
 40
0
 40
0
 40
0
 40
1
 40
1
 40
1
 40
1
 10
101.207474
 20
7.809343
 30
0.0
 10
101.182656
 20
7.770238
 30
0.0
 10
100.882929
 20
7.322253
 30
0.0
 10
100.541281
 20
6.813750
 30
0.0
  0
SPLINE
  5
176
100
AcDbEntity
  8
Layer_1
 62
7
100
AcDbSpline
 70
8
 71
3
 72
8
 73
4
 74
0
 40
0
 40
0
 40
0
 40
0
 40
1
 40
1
 40
1
 40
1
 10
100.541281
 20
6.813750
 30
0.0
 10
99.950264
 20
5.934083
 30
0.0
 10
99.166746
 20
4.255544
 30
0.0
 10
98.958963
 20
3.423853
 30
0.0
  0
SPLINE
  5
177
100
AcDbEntity
  8
Layer_1
 62
7
100
AcDbSpline
 70
8
 71
3
 72
8
 73
4
 74
0
 40
0
 40
0
 40
0
 40
0
 40
1
 40
1
 40
1
 40
1
 10
98.958963
 20
3.423853
 30
0.0
 10
98.863540
 20
3.041905
 30
0.0
 10
98.869252
 20
3.038220
 30
0.0
 10
99.544041
 20
3.046499
 30
0.0
  0
SPLINE
  5
178
100
AcDbEntity
  8
Layer_1
 62
7
100
AcDbSpline
 70
8
 71
3
 72
8
 73
4
 74
0
 40
0
 40
0
 40
0
 40
0
 40
1
 40
1
 40
1
 40
1
 10
99.544041
 20
3.046499
 30
0.0
 10
99.918970
 20
3.051112
 30
0.0
 10
100.525770
 20
3.104000
 30
0.0
 10
100.892326
 20
3.164336
 30
0.0
  0
SPLINE
  5
179
100
AcDbEntity
  8
Layer_1
 62
7
100
AcDbSpline
 70
8
 71
3
 72
8
 73
4
 74
0
 40
0
 40
0
 40
0
 40
0
 40
1
 40
1
 40
1
 40
1
 10
100.892326
 20
3.164336
 30
0.0
 10
101.388647
 20
3.246029
 30
0.0
 10
101.558795
 20
3.229751
 30
0.0
 10
101.558795
 20
3.099937
 30
0.0
  0
SPLINE
  5
17a
100
AcDbEntity
  8
Layer_1
 62
7
100
AcDbSpline
 70
8
 71
3
 72
8
 73
4
 74
0
 40
0
 40
0
 40
0
 40
0
 40
1
 40
1
 40
1
 40
1
 10
101.558795
 20
3.099937
 30
0.0
 10
101.558795
 20
2.747494
 30
0.0
 10
100.277275
 20
1.235358
 30
0.0
 10
99.295758
 20
0.429675
 30
0.0
  0
SPLINE
  5
17b
100
AcDbEntity
  8
Layer_1
 62
7
100
AcDbSpline
 70
8
 71
3
 72
8
 73
4
 74
0
 40
0
 40
0
 40
0
 40
0
 40
1
 40
1
 40
1
 40
1
 10
99.295758
 20
0.429675
 30
0.0
 10
97.522876
 20
-1.025600
 30
0.0
 10
97.407927
 20
-1.230817
 30
0.0
 10
98.275227
 20
-1.393524
 30
0.0
  0
SPLINE
  5
17c
100
AcDbEntity
  8
Layer_1
 62
7
100
AcDbSpline
 70
8
 71
3
 72
8
 73
4
 74
0
 40
0
 40
0
 40
0
 40
0
 40
1
 40
1
 40
1
 40
1
 10
98.275227
 20
-1.393524
 30
0.0
 10
98.811321
 20
-1.494095
 30
0.0
 10
100.051133
 20
-1.403584
 30
0.0
 10
100.487842
 20
-1.231840
 30
0.0
  0
SPLINE
  5
17d
100
AcDbEntity
  8
Layer_1
 62
7
100
AcDbSpline
 70
8
 71
3
 72
8
 73
4
 74
0
 40
0
 40
0
 40
0
 40
0
 40
1
 40
1
 40
1
 40
1
 10
100.487842
 20
-1.231840
 30
0.0
 10
101.047598
 20
-1.011699
 30
0.0
 10
100.389551
 20
-1.819862
 30
0.0
 10
98.456920
 20
-3.726716
 30
0.0
  0
SPLINE
  5
17e
100
AcDbEntity
  8
Layer_1
 62
7
100
AcDbSpline
 70
8
 71
3
 72
8
 73
4
 74
0
 40
0
 40
0
 40
0
 40
0
 40
1
 40
1
 40
1
 40
1
 10
98.456920
 20
-3.726716
 30
0.0
 10
96.236732
 20
-5.917287
 30
0.0
 10
96.233184
 20
-5.937664
 30
0.0
 10
98.076825
 20
-5.947275
 30
0.0
  0
LWPOLYLINE
  5
17f
100
AcDbEntity
  8
Layer_1
 62
7
100
AcDbPolyline
 90
5
 70
0
 10
96.159355
 20
9.851775
 30
0.0
 10
96.689075
 20
9.752298
 30
0.0
 10
95.876269
 20
8.930995
 30
0.0
 10
95.063463
 20
8.109691
 30
0.0
 10
95.610173
 20
7.998157
 30
0.0
  0
SPLINE
  5
180
100
AcDbEntity
  8
Layer_1
 62
7
100
AcDbSpline
 70
8
 71
3
 72
8
 73
4
 74
0
 40
0
 40
0
 40
0
 40
0
 40
1
 40
1
 40
1
 40
1
 10
98.331683
 20
-6.673751
 30
0.0
 10
97.442206
 20
-7.505092
 30
0.0
 10
95.641774
 20
-8.866402
 30
0.0
 10
94.823676
 20
-9.326199
 30
0.0
  0
SPLINE
  5
181
100
AcDbEntity
  8
Layer_1
 62
7
100
AcDbSpline
 70
8
 71
3
 72
8
 73
4
 74
0
 40
0
 40
0
 40
0
 40
0
 40
1
 40
1
 40
1
 40
1
 10
94.823676
 20
-9.326199
 30
0.0
 10
94.515087
 20
-9.499634
 30
0.0
 10
94.262711
 20
-9.716450
 30
0.0
 10
94.262711
 20
-9.807966
 30
0.0
  0
SPLINE
  5
182
100
AcDbEntity
  8
Layer_1
 62
7
100
AcDbSpline
 70
8
 71
3
 72
8
 73
4
 74
0
 40
0
 40
0
 40
0
 40
0
 40
1
 40
1
 40
1
 40
1
 10
94.262711
 20
-9.807966
 30
0.0
 10
94.262711
 20
-10.073834
 30
0.0
 10
95.438806
 20
-10.336302
 30
0.0
 10
96.151406
 20
-10.229441
 30
0.0
  0
SPLINE
  5
183
100
AcDbEntity
  8
Layer_1
 62
7
100
AcDbSpline
 70
8
 71
3
 72
8
 73
4
 74
0
 40
0
 40
0
 40
0
 40
0
 40
1
 40
1
 40
1
 40
1
 10
96.151406
 20
-10.229441
 30
0.0
 10
96.501618
 20
-10.176925
 30
0.0
 10
96.788279
 20
-10.167683
 30
0.0
 10
96.788279
 20
-10.209162
 30
0.0
  0
SPLINE
  5
184
100
AcDbEntity
  8
Layer_1
 62
7
100
AcDbSpline
 70
8
 71
3
 72
8
 73
4
 74
0
 40
0
 40
0
 40
0
 40
0
 40
1
 40
1
 40
1
 40
1
 10
96.788279
 20
-10.209162
 30
0.0
 10
96.788279
 20
-10.450106
 30
0.0
 10
94.395233
 20
-12.017479
 30
0.0
 10
92.697113
 20
-12.888743
 30
0.0
  0
LWPOLYLINE
  5
185
100
AcDbEntity
  8
Layer_1
 62
7
100
AcDbPolyline
 90
3
 70
0
 10
98.076825
 20
-5.947275
 30
0.0
 10
99.103386
 20
-5.952472
 30
0.0
 10
98.331683
 20
-6.673751
 30
0.0
  0
SPLINE
  5
186
100
AcDbEntity
  8
Layer_1
 62
7
100
AcDbSpline
 70
8
 71
3
 72
8
 73
4
 74
0
 40
0
 40
0
 40
0
 40
0
 40
1
 40
1
 40
1
 40
1
 10
91.102460
 20
-14.160569
 30
0.0
 10
91.323055
 20
-14.305107
 30
0.0
 10
91.847127
 20
-14.440732
 30
0.0
 10
92.315645
 20
-14.474621
 30
0.0
  0
SPLINE
  5
187
100
AcDbEntity
  8
Layer_1
 62
7
100
AcDbSpline
 70
8
 71
3
 72
8
 73
4
 74
0
 40
0
 40
0
 40
0
 40
0
 40
1
 40
1
 40
1
 40
1
 10
92.315645
 20
-14.474621
 30
0.0
 10
92.769239
 20
-14.507431
 30
0.0
 10
93.140234
 20
-14.588614
 30
0.0
 10
93.140234
 20
-14.654941
 30
0.0
  0
SPLINE
  5
188
100
AcDbEntity
  8
Layer_1
 62
7
100
AcDbSpline
 70
8
 71
3
 72
8
 73
4
 74
0
 40
0
 40
0
 40
0
 40
0
 40
1
 40
1
 40
1
 40
1
 10
93.140234
 20
-14.654941
 30
0.0
 10
93.140234
 20
-14.936467
 30
0.0
 10
91.050098
 20
-15.787939
 30
0.0
 10
88.659927
 20
-16.480059
 30
0.0
  0
SPLINE
  5
189
100
AcDbEntity
  8
Layer_1
 62
7
100
AcDbSpline
 70
8
 71
3
 72
8
 73
4
 74
0
 40
0
 40
0
 40
0
 40
0
 40
1
 40
1
 40
1
 40
1
 10
88.659927
 20
-16.480059
 30
0.0
 10
87.844368
 20
-16.716220
 30
0.0
 10
87.125898
 20
-16.958353
 30
0.0
 10
87.063359
 20
-17.018276
 30
0.0
  0
SPLINE
  5
18a
100
AcDbEntity
  8
Layer_1
 62
7
100
AcDbSpline
 70
8
 71
3
 72
8
 73
4
 74
0
 40
0
 40
0
 40
0
 40
0
 40
1
 40
1
 40
1
 40
1
 10
87.063359
 20
-17.018276
 30
0.0
 10
86.885183
 20
-17.189018
 30
0.0
 10
87.763470
 20
-17.846997
 30
0.0
 10
88.305318
 20
-17.948648
 30
0.0
  0
SPLINE
  5
18b
100
AcDbEntity
  8
Layer_1
 62
7
100
AcDbSpline
 70
8
 71
3
 72
8
 73
4
 74
0
 40
0
 40
0
 40
0
 40
0
 40
1
 40
1
 40
1
 40
1
 10
88.305318
 20
-17.948648
 30
0.0
 10
88.573996
 20
-17.999053
 30
0.0
 10
88.826537
 20
-18.093264
 30
0.0
 10
88.866559
 20
-18.158016
 30
0.0
  0
SPLINE
  5
18c
100
AcDbEntity
  8
Layer_1
 62
7
100
AcDbSpline
 70
8
 71
3
 72
8
 73
4
 74
0
 40
0
 40
0
 40
0
 40
0
 40
1
 40
1
 40
1
 40
1
 10
88.866559
 20
-18.158016
 30
0.0
 10
89.030386
 20
-18.423100
 30
0.0
 10
86.114716
 20
-19.049998
 30
0.0
 10
84.020130
 20
-19.200197
 30
0.0
  0
SPLINE
  5
18d
100
AcDbEntity
  8
Layer_1
 62
7
100
AcDbSpline
 70
8
 71
3
 72
8
 73
4
 74
0
 40
0
 40
0
 40
0
 40
0
 40
1
 40
1
 40
1
 40
1
 10
84.020130
 20
-19.200197
 30
0.0
 10
82.316956
 20
-19.322327
 30
0.0
 10
82.055798
 20
-19.388480
 30
0.0
 10
82.055798
 20
-19.696212
 30
0.0
  0
SPLINE
  5
18e
100
AcDbEntity
  8
Layer_1
 62
7
100
AcDbSpline
 70
8
 71
3
 72
8
 73
4
 74
0
 40
0
 40
0
 40
0
 40
0
 40
1
 40
1
 40
1
 40
1
 10
82.055798
 20
-19.696212
 30
0.0
 10
82.055798
 20
-19.987434
 30
0.0
 10
82.741522
 20
-20.565438
 30
0.0
 10
83.389287
 20
-20.820332
 30
0.0
  0
SPLINE
  5
18f
100
AcDbEntity
  8
Layer_1
 62
7
100
AcDbSpline
 70
8
 71
3
 72
8
 73
4
 74
0
 40
0
 40
0
 40
0
 40
0
 40
1
 40
1
 40
1
 40
1
 10
83.389287
 20
-20.820332
 30
0.0
 10
83.775380
 20
-20.972258
 30
0.0
 10
83.786823
 20
-20.995041
 30
0.0
 10
83.529048
 20
-21.100675
 30
0.0
  0
SPLINE
  5
190
100
AcDbEntity
  8
Layer_1
 62
7
100
AcDbSpline
 70
8
 71
3
 72
8
 73
4
 74
0
 40
0
 40
0
 40
0
 40
0
 40
1
 40
1
 40
1
 40
1
 10
83.529048
 20
-21.100675
 30
0.0
 10
83.029084
 20
-21.305554
 30
0.0
 10
79.938117
 20
-21.219114
 30
0.0
 10
78.407753
 20
-20.957352
 30
0.0
  0
SPLINE
  5
191
100
AcDbEntity
  8
Layer_1
 62
7
100
AcDbSpline
 70
8
 71
3
 72
8
 73
4
 74
0
 40
0
 40
0
 40
0
 40
0
 40
1
 40
1
 40
1
 40
1
 10
78.407753
 20
-20.957352
 30
0.0
 10
72.199808
 20
-19.895507
 30
0.0
 10
68.992371
 20
-17.946327
 30
0.0
 10
67.669430
 20
-14.431597
 30
0.0
  0
SPLINE
  5
192
100
AcDbEntity
  8
Layer_1
 62
7
100
AcDbSpline
 70
8
 71
3
 72
8
 73
4
 74
0
 40
0
 40
0
 40
0
 40
0
 40
1
 40
1
 40
1
 40
1
 10
67.669430
 20
-14.431597
 30
0.0
 10
67.479093
 20
-13.925909
 30
0.0
 10
67.323317
 20
-13.411169
 30
0.0
 10
67.323317
 20
-13.287747
 30
0.0
  0
SPLINE
  5
193
100
AcDbEntity
  8
Layer_1
 62
7
100
AcDbSpline
 70
8
 71
3
 72
8
 73
4
 74
0
 40
0
 40
0
 40
0
 40
0
 40
1
 40
1
 40
1
 40
1
 10
67.323317
 20
-13.287747
 30
0.0
 10
67.323317
 20
-12.843570
 30
0.0
 10
70.514527
 20
-9.799299
 30
0.0
 10
73.426776
 20
-7.465458
 30
0.0
  0
SPLINE
  5
194
100
AcDbEntity
  8
Layer_1
 62
7
100
AcDbSpline
 70
8
 71
3
 72
8
 73
4
 74
0
 40
0
 40
0
 40
0
 40
0
 40
1
 40
1
 40
1
 40
1
 10
73.426776
 20
-7.465458
 30
0.0
 10
77.288458
 20
-4.370743
 30
0.0
 10
83.685864
 20
-0.242904
 30
0.0
 10
88.977541
 20
2.568579
 30
0.0
  0
SPLINE
  5
195
100
AcDbEntity
  8
Layer_1
 62
7
100
AcDbSpline
 70
8
 71
3
 72
8
 73
4
 74
0
 40
0
 40
0
 40
0
 40
0
 40
1
 40
1
 40
1
 40
1
 10
88.977541
 20
2.568579
 30
0.0
 10
90.854167
 20
3.565634
 30
0.0
 10
90.787539
 20
3.575464
 30
0.0
 10
88.278464
 20
2.672440
 30
0.0
  0
SPLINE
  5
196
100
AcDbEntity
  8
Layer_1
 62
7
100
AcDbSpline
 70
8
 71
3
 72
8
 73
4
 74
0
 40
0
 40
0
 40
0
 40
0
 40
1
 40
1
 40
1
 40
1
 10
88.278464
 20
2.672440
 30
0.0
 10
80.325636
 20
-0.189808
 30
0.0
 10
71.598922
 20
-4.868171
 30
0.0
 10
66.284973
 20
-9.118203
 30
0.0
  0
LWPOLYLINE
  5
197
100
AcDbEntity
  8
Layer_1
 62
7
100
AcDbPolyline
 90
3
 70
0
 10
92.697113
 20
-12.888743
 30
0.0
 10
90.714145
 20
-13.906259
 30
0.0
 10
91.102460
 20
-14.160569
 30
0.0
  0
SPLINE
  5
198
100
AcDbEntity
  8
Layer_1
 62
7
100
AcDbSpline
 70
8
 71
3
 72
8
 73
4
 74
0
 40
0
 40
0
 40
0
 40
0
 40
1
 40
1
 40
1
 40
1
 10
63.969871
 20
-9.936766
 30
0.0
 10
63.527731
 20
-9.709108
 30
0.0
 10
62.719608
 20
-9.069399
 30
0.0
 10
62.121733
 20
-8.473656
 30
0.0
  0
SPLINE
  5
199
100
AcDbEntity
  8
Layer_1
 62
7
100
AcDbSpline
 70
8
 71
3
 72
8
 73
4
 74
0
 40
0
 40
0
 40
0
 40
0
 40
1
 40
1
 40
1
 40
1
 10
62.121733
 20
-8.473656
 30
0.0
 10
61.256067
 20
-7.611084
 30
0.0
 10
60.987113
 20
-7.233131
 30
0.0
 10
60.669037
 20
-6.432868
 30
0.0
  0
SPLINE
  5
19a
100
AcDbEntity
  8
Layer_1
 62
7
100
AcDbSpline
 70
8
 71
3
 72
8
 73
4
 74
0
 40
0
 40
0
 40
0
 40
0
 40
1
 40
1
 40
1
 40
1
 10
60.669037
 20
-6.432868
 30
0.0
 10
60.195503
 20
-5.241491
 30
0.0
 10
60.052661
 20
-3.677273
 30
0.0
 10
60.301272
 20
-2.405826
 30
0.0
  0
SPLINE
  5
19b
100
AcDbEntity
  8
Layer_1
 62
7
100
AcDbSpline
 70
8
 71
3
 72
8
 73
4
 74
0
 40
0
 40
0
 40
0
 40
0
 40
1
 40
1
 40
1
 40
1
 10
60.301272
 20
-2.405826
 30
0.0
 10
60.773714
 20
0.010293
 30
0.0
 10
62.098124
 20
3.120987
 30
0.0
 10
63.546472
 20
5.216096
 30
0.0
  0
SPLINE
  5
19c
100
AcDbEntity
  8
Layer_1
 62
7
100
AcDbSpline
 70
8
 71
3
 72
8
 73
4
 74
0
 40
0
 40
0
 40
0
 40
0
 40
1
 40
1
 40
1
 40
1
 10
63.546472
 20
5.216096
 30
0.0
 10
64.292746
 20
6.295618
 30
0.0
 10
65.994579
 20
8.229456
 30
0.0
 10
66.198374
 20
8.229456
 30
0.0
  0
SPLINE
  5
19d
100
AcDbEntity
  8
Layer_1
 62
7
100
AcDbSpline
 70
8
 71
3
 72
8
 73
4
 74
0
 40
0
 40
0
 40
0
 40
0
 40
1
 40
1
 40
1
 40
1
 10
66.198374
 20
8.229456
 30
0.0
 10
66.259730
 20
8.229456
 30
0.0
 10
66.353955
 20
7.994950
 30
0.0
 10
66.407743
 20
7.708230
 30
0.0
  0
SPLINE
  5
19e
100
AcDbEntity
  8
Layer_1
 62
7
100
AcDbSpline
 70
8
 71
3
 72
8
 73
4
 74
0
 40
0
 40
0
 40
0
 40
0
 40
1
 40
1
 40
1
 40
1
 10
66.407743
 20
7.708230
 30
0.0
 10
66.524150
 20
7.087721
 30
0.0
 10
66.874012
 20
6.369617
 30
0.0
 10
67.029815
 20
6.431469
 30
0.0
  0
SPLINE
  5
19f
100
AcDbEntity
  8
Layer_1
 62
7
100
AcDbSpline
 70
8
 71
3
 72
8
 73
4
 74
0
 40
0
 40
0
 40
0
 40
0
 40
1
 40
1
 40
1
 40
1
 10
67.029815
 20
6.431469
 30
0.0
 10
67.090811
 20
6.455683
 30
0.0
 10
67.613170
 20
7.043842
 30
0.0
 10
68.190659
 20
7.738374
 30
0.0
  0
SPLINE
  5
1a0
100
AcDbEntity
  8
Layer_1
 62
7
100
AcDbSpline
 70
8
 71
3
 72
8
 73
4
 74
0
 40
0
 40
0
 40
0
 40
0
 40
1
 40
1
 40
1
 40
1
 10
68.190659
 20
7.738374
 30
0.0
 10
69.234826
 20
8.994171
 30
0.0
 10
71.014719
 20
10.755024
 30
0.0
 10
71.239923
 20
10.755024
 30
0.0
  0
SPLINE
  5
1a1
100
AcDbEntity
  8
Layer_1
 62
7
100
AcDbSpline
 70
8
 71
3
 72
8
 73
4
 74
0
 40
0
 40
0
 40
0
 40
0
 40
1
 40
1
 40
1
 40
1
 10
71.239923
 20
10.755024
 30
0.0
 10
71.304789
 20
10.755024
 30
0.0
 10
71.325779
 20
10.471812
 30
0.0
 10
71.286802
 20
10.125825
 30
0.0
  0
SPLINE
  5
1a2
100
AcDbEntity
  8
Layer_1
 62
7
100
AcDbSpline
 70
8
 71
3
 72
8
 73
4
 74
0
 40
0
 40
0
 40
0
 40
0
 40
1
 40
1
 40
1
 40
1
 10
71.286802
 20
10.125825
 30
0.0
 10
71.204064
 20
9.391746
 30
0.0
 10
71.447764
 20
8.696326
 30
0.0
 10
71.829954
 20
8.575023
 30
0.0
  0
SPLINE
  5
1a3
100
AcDbEntity
  8
Layer_1
 62
7
100
AcDbSpline
 70
8
 71
3
 72
8
 73
4
 74
0
 40
0
 40
0
 40
0
 40
0
 40
1
 40
1
 40
1
 40
1
 10
71.829954
 20
8.575023
 30
0.0
 10
72.034502
 20
8.510102
 30
0.0
 10
72.342062
 20
8.750817
 30
0.0
 10
73.143435
 20
9.602679
 30
0.0
  0
SPLINE
  5
1a4
100
AcDbEntity
  8
Layer_1
 62
7
100
AcDbSpline
 70
8
 71
3
 72
8
 73
4
 74
0
 40
0
 40
0
 40
0
 40
0
 40
1
 40
1
 40
1
 40
1
 10
73.143435
 20
9.602679
 30
0.0
 10
74.130085
 20
10.651497
 30
0.0
 10
75.660858
 20
11.864815
 30
0.0
 10
75.809586
 20
11.716089
 30
0.0
  0
SPLINE
  5
1a5
100
AcDbEntity
  8
Layer_1
 62
7
100
AcDbSpline
 70
8
 71
3
 72
8
 73
4
 74
0
 40
0
 40
0
 40
0
 40
0
 40
1
 40
1
 40
1
 40
1
 10
75.809586
 20
11.716089
 30
0.0
 10
75.846814
 20
11.678867
 30
0.0
 10
75.803011
 20
11.451971
 30
0.0
 10
75.712302
 20
11.211578
 30
0.0
  0
SPLINE
  5
1a6
100
AcDbEntity
  8
Layer_1
 62
7
100
AcDbSpline
 70
8
 71
3
 72
8
 73
4
 74
0
 40
0
 40
0
 40
0
 40
0
 40
1
 40
1
 40
1
 40
1
 10
75.712302
 20
11.211578
 30
0.0
 10
75.513359
 20
10.684523
 30
0.0
 10
75.694378
 20
9.803533
 30
0.0
 10
76.046908
 20
9.583496
 30
0.0
  0
SPLINE
  5
1a7
100
AcDbEntity
  8
Layer_1
 62
7
100
AcDbSpline
 70
8
 71
3
 72
8
 73
4
 74
0
 40
0
 40
0
 40
0
 40
0
 40
1
 40
1
 40
1
 40
1
 10
76.046908
 20
9.583496
 30
0.0
 10
76.235080
 20
9.466040
 30
0.0
 10
76.402948
 20
9.548523
 30
0.0
 10
76.890408
 20
9.997848
 30
0.0
  0
SPLINE
  5
1a8
100
AcDbEntity
  8
Layer_1
 62
7
100
AcDbSpline
 70
8
 71
3
 72
8
 73
4
 74
0
 40
0
 40
0
 40
0
 40
0
 40
1
 40
1
 40
1
 40
1
 10
76.890408
 20
9.997848
 30
0.0
 10
78.016676
 20
11.036006
 30
0.0
 10
80.351844
 20
12.438736
 30
0.0
 10
80.953897
 20
12.438736
 30
0.0
  0
LWPOLYLINE
  5
1a9
100
AcDbEntity
  8
Layer_1
 62
7
100
AcDbPolyline
 90
3
 70
0
 10
66.284973
 20
-9.118203
 30
0.0
 10
64.755547
 20
-10.341525
 30
0.0
 10
63.969871
 20
-9.936766
 30
0.0
  0
SPLINE
  5
1aa
100
AcDbEntity
  8
Layer_1
 62
7
100
AcDbSpline
 70
8
 71
3
 72
8
 73
4
 74
0
 40
0
 40
0
 40
0
 40
0
 40
1
 40
1
 40
1
 40
1
 10
33.728546
 20
12.421479
 30
0.0
 10
33.881772
 20
12.427927
 30
0.0
 10
34.272870
 20
12.253339
 30
0.0
 10
34.956256
 20
11.899704
 30
0.0
  0
SPLINE
  5
1ab
100
AcDbEntity
  8
Layer_1
 62
7
100
AcDbSpline
 70
8
 71
3
 72
8
 73
4
 74
0
 40
0
 40
0
 40
0
 40
0
 40
1
 40
1
 40
1
 40
1
 10
34.956256
 20
11.899704
 30
0.0
 10
35.995162
 20
11.362092
 30
0.0
 10
37.408260
 20
10.354372
 30
0.0
 10
37.915082
 20
9.789857
 30
0.0
  0
SPLINE
  5
1ac
100
AcDbEntity
  8
Layer_1
 62
7
100
AcDbSpline
 70
8
 71
3
 72
8
 73
4
 74
0
 40
0
 40
0
 40
0
 40
0
 40
1
 40
1
 40
1
 40
1
 10
37.915082
 20
9.789857
 30
0.0
 10
38.256607
 20
9.409454
 30
0.0
 10
38.488790
 20
9.413448
 30
0.0
 10
38.762421
 20
9.804106
 30
0.0
  0
SPLINE
  5
1ad
100
AcDbEntity
  8
Layer_1
 62
7
100
AcDbSpline
 70
8
 71
3
 72
8
 73
4
 74
0
 40
0
 40
0
 40
0
 40
0
 40
1
 40
1
 40
1
 40
1
 10
38.762421
 20
9.804106
 30
0.0
 10
39.019724
 20
10.171459
 30
0.0
 10
39.052523
 20
11.188398
 30
0.0
 10
38.814762
 20
11.426159
 30
0.0
  0
SPLINE
  5
1ae
100
AcDbEntity
  8
Layer_1
 62
7
100
AcDbSpline
 70
8
 71
3
 72
8
 73
4
 74
0
 40
0
 40
0
 40
0
 40
0
 40
1
 40
1
 40
1
 40
1
 10
38.814762
 20
11.426159
 30
0.0
 10
38.723438
 20
11.517477
 30
0.0
 10
38.689600
 20
11.632864
 30
0.0
 10
38.739401
 20
11.682662
 30
0.0
  0
SPLINE
  5
1af
100
AcDbEntity
  8
Layer_1
 62
7
100
AcDbSpline
 70
8
 71
3
 72
8
 73
4
 74
0
 40
0
 40
0
 40
0
 40
0
 40
1
 40
1
 40
1
 40
1
 10
38.739401
 20
11.682662
 30
0.0
 10
38.924397
 20
11.867658
 30
0.0
 10
40.270221
 20
10.833831
 30
0.0
 10
41.427475
 20
9.617758
 30
0.0
  0
SPLINE
  5
1b0
100
AcDbEntity
  8
Layer_1
 62
7
100
AcDbSpline
 70
8
 71
3
 72
8
 73
4
 74
0
 40
0
 40
0
 40
0
 40
0
 40
1
 40
1
 40
1
 40
1
 10
41.427475
 20
9.617758
 30
0.0
 10
42.621722
 20
8.362807
 30
0.0
 10
42.621807
 20
8.362709
 30
0.0
 10
42.902364
 20
8.643266
 30
0.0
  0
SPLINE
  5
1b1
100
AcDbEntity
  8
Layer_1
 62
7
100
AcDbSpline
 70
8
 71
3
 72
8
 73
4
 74
0
 40
0
 40
0
 40
0
 40
0
 40
1
 40
1
 40
1
 40
1
 10
42.902364
 20
8.643266
 30
0.0
 10
43.259642
 20
9.000542
 30
0.0
 10
43.384802
 20
9.502618
 30
0.0
 10
43.290956
 20
10.202289
 30
0.0
  0
SPLINE
  5
1b2
100
AcDbEntity
  8
Layer_1
 62
7
100
AcDbSpline
 70
8
 71
3
 72
8
 73
4
 74
0
 40
0
 40
0
 40
0
 40
0
 40
1
 40
1
 40
1
 40
1
 10
43.290956
 20
10.202289
 30
0.0
 10
43.246055
 20
10.537061
 30
0.0
 10
43.274098
 20
10.755031
 30
0.0
 10
43.361933
 20
10.755031
 30
0.0
  0
SPLINE
  5
1b3
100
AcDbEntity
  8
Layer_1
 62
7
100
AcDbSpline
 70
8
 71
3
 72
8
 73
4
 74
0
 40
0
 40
0
 40
0
 40
0
 40
1
 40
1
 40
1
 40
1
 10
43.361933
 20
10.755031
 30
0.0
 10
43.587411
 20
10.755031
 30
0.0
 10
45.838640
 20
8.490628
 30
0.0
 10
46.697842
 20
7.399665
 30
0.0
  0
SPLINE
  5
1b4
100
AcDbEntity
  8
Layer_1
 62
7
100
AcDbSpline
 70
8
 71
3
 72
8
 73
4
 74
0
 40
0
 40
0
 40
0
 40
0
 40
1
 40
1
 40
1
 40
1
 10
46.697842
 20
7.399665
 30
0.0
 10
47.122278
 20
6.860741
 30
0.0
 10
47.519976
 20
6.416528
 30
0.0
 10
47.581627
 20
6.412566
 30
0.0
  0
SPLINE
  5
1b5
100
AcDbEntity
  8
Layer_1
 62
7
100
AcDbSpline
 70
8
 71
3
 72
8
 73
4
 74
0
 40
0
 40
0
 40
0
 40
0
 40
1
 40
1
 40
1
 40
1
 10
47.581627
 20
6.412566
 30
0.0
 10
47.739614
 20
6.402406
 30
0.0
 10
48.234527
 20
7.533907
 30
0.0
 10
48.238231
 20
7.913767
 30
0.0
  0
SPLINE
  5
1b6
100
AcDbEntity
  8
Layer_1
 62
7
100
AcDbSpline
 70
8
 71
3
 72
8
 73
4
 74
0
 40
0
 40
0
 40
0
 40
0
 40
1
 40
1
 40
1
 40
1
 10
48.238231
 20
7.913767
 30
0.0
 10
48.239928
 20
8.087400
 30
0.0
 10
48.298455
 20
8.229463
 30
0.0
 10
48.368400
 20
8.229463
 30
0.0
  0
SPLINE
  5
1b7
100
AcDbEntity
  8
Layer_1
 62
7
100
AcDbSpline
 70
8
 71
3
 72
8
 73
4
 74
0
 40
0
 40
0
 40
0
 40
0
 40
1
 40
1
 40
1
 40
1
 10
48.368400
 20
8.229463
 30
0.0
 10
48.625495
 20
8.229463
 30
0.0
 10
50.399241
 20
6.162184
 30
0.0
 10
51.289411
 20
4.825043
 30
0.0
  0
SPLINE
  5
1b8
100
AcDbEntity
  8
Layer_1
 62
7
100
AcDbSpline
 70
8
 71
3
 72
8
 73
4
 74
0
 40
0
 40
0
 40
0
 40
0
 40
1
 40
1
 40
1
 40
1
 10
51.289411
 20
4.825043
 30
0.0
 10
53.743030
 20
1.139421
 30
0.0
 10
54.927155
 20
-3.226640
 30
0.0
 10
54.158077
 20
-5.751869
 30
0.0
  0
SPLINE
  5
1b9
100
AcDbEntity
  8
Layer_1
 62
7
100
AcDbSpline
 70
8
 71
3
 72
8
 73
4
 74
0
 40
0
 40
0
 40
0
 40
0
 40
1
 40
1
 40
1
 40
1
 10
54.158077
 20
-5.751869
 30
0.0
 10
53.620069
 20
-7.518400
 30
0.0
 10
52.359836
 20
-9.029368
 30
0.0
 10
50.711731
 20
-9.883870
 30
0.0
  0
LWPOLYLINE
  5
1ba
100
AcDbEntity
  8
Layer_1
 62
7
100
AcDbPolyline
 90
1
 70
1
 10
80.953897
 20
12.438736
 30
0.0
  0
SPLINE
  5
1bb
100
AcDbEntity
  8
Layer_1
 62
7
100
AcDbSpline
 70
8
 71
3
 72
8
 73
4
 74
0
 40
0
 40
0
 40
0
 40
0
 40
1
 40
1
 40
1
 40
1
 10
48.304276
 20
-9.115457
 30
0.0
 10
43.244080
 20
-5.096794
 30
0.0
 10
35.675389
 20
-0.922104
 30
0.0
 10
28.247164
 20
1.947332
 30
0.0
  0
SPLINE
  5
1bc
100
AcDbEntity
  8
Layer_1
 62
7
100
AcDbSpline
 70
8
 71
3
 72
8
 73
4
 74
0
 40
0
 40
0
 40
0
 40
0
 40
1
 40
1
 40
1
 40
1
 10
28.247164
 20
1.947332
 30
0.0
 10
26.450450
 20
2.641382
 30
0.0
 10
24.130713
 20
3.461081
 30
0.0
 10
23.976501
 20
3.456479
 30
0.0
  0
SPLINE
  5
1bd
100
AcDbEntity
  8
Layer_1
 62
7
100
AcDbSpline
 70
8
 71
3
 72
8
 73
4
 74
0
 40
0
 40
0
 40
0
 40
0
 40
1
 40
1
 40
1
 40
1
 10
23.976501
 20
3.456479
 30
0.0
 10
23.933122
 20
3.455206
 30
0.0
 10
24.795597
 20
2.984509
 30
0.0
 10
25.893149
 20
2.410462
 30
0.0
  0
SPLINE
  5
1be
100
AcDbEntity
  8
Layer_1
 62
7
100
AcDbSpline
 70
8
 71
3
 72
8
 73
4
 74
0
 40
0
 40
0
 40
0
 40
0
 40
1
 40
1
 40
1
 40
1
 10
25.893149
 20
2.410462
 30
0.0
 10
29.955106
 20
0.285953
 30
0.0
 10
35.475237
 20
-3.197819
 30
0.0
 10
39.307488
 20
-6.055233
 30
0.0
  0
SPLINE
  5
1bf
100
AcDbEntity
  8
Layer_1
 62
7
100
AcDbSpline
 70
8
 71
3
 72
8
 73
4
 74
0
 40
0
 40
0
 40
0
 40
0
 40
1
 40
1
 40
1
 40
1
 10
39.307488
 20
-6.055233
 30
0.0
 10
41.920784
 20
-8.003766
 30
0.0
 10
43.560649
 20
-9.389993
 30
0.0
 10
45.553446
 20
-11.336016
 30
0.0
  0
SPLINE
  5
1c0
100
AcDbEntity
  8
Layer_1
 62
7
100
AcDbSpline
 70
8
 71
3
 72
8
 73
4
 74
0
 40
0
 40
0
 40
0
 40
0
 40
1
 40
1
 40
1
 40
1
 10
45.553446
 20
-11.336016
 30
0.0
 10
47.241454
 20
-12.984404
 30
0.0
 10
47.283680
 20
-13.040605
 30
0.0
 10
47.216879
 20
-13.543422
 30
0.0
  0
SPLINE
  5
1c1
100
AcDbEntity
  8
Layer_1
 62
7
100
AcDbSpline
 70
8
 71
3
 72
8
 73
4
 74
0
 40
0
 40
0
 40
0
 40
0
 40
1
 40
1
 40
1
 40
1
 10
47.216879
 20
-13.543422
 30
0.0
 10
47.004702
 20
-15.140500
 30
0.0
 10
45.194163
 20
-17.575352
 30
0.0
 10
43.451546
 20
-18.607439
 30
0.0
  0
SPLINE
  5
1c2
100
AcDbEntity
  8
Layer_1
 62
7
100
AcDbSpline
 70
8
 71
3
 72
8
 73
4
 74
0
 40
0
 40
0
 40
0
 40
0
 40
1
 40
1
 40
1
 40
1
 10
43.451546
 20
-18.607439
 30
0.0
 10
41.741276
 20
-19.620365
 30
0.0
 10
38.662597
 20
-20.594565
 30
0.0
 10
35.815649
 20
-21.023664
 30
0.0
  0
SPLINE
  5
1c3
100
AcDbEntity
  8
Layer_1
 62
7
100
AcDbSpline
 70
8
 71
3
 72
8
 73
4
 74
0
 40
0
 40
0
 40
0
 40
0
 40
1
 40
1
 40
1
 40
1
 10
35.815649
 20
-21.023664
 30
0.0
 10
34.369088
 20
-21.241692
 30
0.0
 10
31.533251
 20
-21.293866
 30
0.0
 10
31.067326
 20
-21.111084
 30
0.0
  0
SPLINE
  5
1c4
100
AcDbEntity
  8
Layer_1
 62
7
100
AcDbSpline
 70
8
 71
3
 72
8
 73
4
 74
0
 40
0
 40
0
 40
0
 40
0
 40
1
 40
1
 40
1
 40
1
 10
31.067326
 20
-21.111084
 30
0.0
 10
30.834889
 20
-21.019898
 30
0.0
 10
30.859840
 20
-20.981978
 30
0.0
 10
31.261348
 20
-20.815666
 30
0.0
  0
SPLINE
  5
1c5
100
AcDbEntity
  8
Layer_1
 62
7
100
AcDbSpline
 70
8
 71
3
 72
8
 73
4
 74
0
 40
0
 40
0
 40
0
 40
0
 40
1
 40
1
 40
1
 40
1
 10
31.261348
 20
-20.815666
 30
0.0
 10
31.904887
 20
-20.549105
 30
0.0
 10
32.526598
 20
-19.996251
 30
0.0
 10
32.526598
 20
-19.690725
 30
0.0
  0
SPLINE
  5
1c6
100
AcDbEntity
  8
Layer_1
 62
7
100
AcDbSpline
 70
8
 71
3
 72
8
 73
4
 74
0
 40
0
 40
0
 40
0
 40
0
 40
1
 40
1
 40
1
 40
1
 10
32.526598
 20
-19.690725
 30
0.0
 10
32.526598
 20
-19.389077
 30
0.0
 10
32.257236
 20
-19.321734
 30
0.0
 10
30.562271
 20
-19.200191
 30
0.0
  0
SPLINE
  5
1c7
100
AcDbEntity
  8
Layer_1
 62
7
100
AcDbSpline
 70
8
 71
3
 72
8
 73
4
 74
0
 40
0
 40
0
 40
0
 40
0
 40
1
 40
1
 40
1
 40
1
 10
30.562271
 20
-19.200191
 30
0.0
 10
28.467685
 20
-19.049993
 30
0.0
 10
25.552010
 20
-18.423095
 30
0.0
 10
25.715842
 20
-18.158011
 30
0.0
  0
SPLINE
  5
1c8
100
AcDbEntity
  8
Layer_1
 62
7
100
AcDbSpline
 70
8
 71
3
 72
8
 73
4
 74
0
 40
0
 40
0
 40
0
 40
0
 40
1
 40
1
 40
1
 40
1
 10
25.715842
 20
-18.158011
 30
0.0
 10
25.755880
 20
-18.093258
 30
0.0
 10
26.008400
 20
-17.999047
 30
0.0
 10
26.277078
 20
-17.948643
 30
0.0
  0
SPLINE
  5
1c9
100
AcDbEntity
  8
Layer_1
 62
7
100
AcDbSpline
 70
8
 71
3
 72
8
 73
4
 74
0
 40
0
 40
0
 40
0
 40
0
 40
1
 40
1
 40
1
 40
1
 10
26.277078
 20
-17.948643
 30
0.0
 10
26.824308
 20
-17.845982
 30
0.0
 10
27.694907
 20
-17.189484
 30
0.0
 10
27.518215
 20
-17.012790
 30
0.0
  0
SPLINE
  5
1ca
100
AcDbEntity
  8
Layer_1
 62
7
100
AcDbSpline
 70
8
 71
3
 72
8
 73
4
 74
0
 40
0
 40
0
 40
0
 40
0
 40
1
 40
1
 40
1
 40
1
 10
27.518215
 20
-17.012790
 30
0.0
 10
27.455257
 20
-16.949836
 30
0.0
 10
26.646397
 20
-16.677983
 30
0.0
 10
25.720774
 20
-16.408529
 30
0.0
  0
SPLINE
  5
1cb
100
AcDbEntity
  8
Layer_1
 62
7
100
AcDbSpline
 70
8
 71
3
 72
8
 73
4
 74
0
 40
0
 40
0
 40
0
 40
0
 40
1
 40
1
 40
1
 40
1
 10
25.720774
 20
-16.408529
 30
0.0
 10
23.390543
 20
-15.730184
 30
0.0
 10
21.442162
 20
-14.909916
 30
0.0
 10
21.442162
 20
-14.607253
 30
0.0
  0
SPLINE
  5
1cc
100
AcDbEntity
  8
Layer_1
 62
7
100
AcDbSpline
 70
8
 71
3
 72
8
 73
4
 74
0
 40
0
 40
0
 40
0
 40
0
 40
1
 40
1
 40
1
 40
1
 10
21.442162
 20
-14.607253
 30
0.0
 10
21.442162
 20
-14.548646
 30
0.0
 10
21.755820
 20
-14.500650
 30
0.0
 10
22.139049
 20
-14.500650
 30
0.0
  0
SPLINE
  5
1cd
100
AcDbEntity
  8
Layer_1
 62
7
100
AcDbSpline
 70
8
 71
3
 72
8
 73
4
 74
0
 40
0
 40
0
 40
0
 40
0
 40
1
 40
1
 40
1
 40
1
 10
22.139049
 20
-14.500650
 30
0.0
 10
22.771536
 20
-14.500650
 30
0.0
 10
23.827422
 20
-14.151900
 30
0.0
 10
23.827422
 20
-13.942975
 30
0.0
  0
SPLINE
  5
1ce
100
AcDbEntity
  8
Layer_1
 62
7
100
AcDbSpline
 70
8
 71
3
 72
8
 73
4
 74
0
 40
0
 40
0
 40
0
 40
0
 40
1
 40
1
 40
1
 40
1
 10
23.827422
 20
-13.942975
 30
0.0
 10
23.827422
 20
-13.896314
 30
0.0
 10
23.181545
 20
-13.544997
 30
0.0
 10
22.392263
 20
-13.162231
 30
0.0
  0
SPLINE
  5
1cf
100
AcDbEntity
  8
Layer_1
 62
7
100
AcDbSpline
 70
8
 71
3
 72
8
 73
4
 74
0
 40
0
 40
0
 40
0
 40
0
 40
1
 40
1
 40
1
 40
1
 10
22.392263
 20
-13.162231
 30
0.0
 10
20.952936
 20
-12.464212
 30
0.0
 10
18.289516
 20
-10.789399
 30
0.0
 10
17.930315
 20
-10.356591
 30
0.0
  0
SPLINE
  5
1d0
100
AcDbEntity
  8
Layer_1
 62
7
100
AcDbSpline
 70
8
 71
3
 72
8
 73
4
 74
0
 40
0
 40
0
 40
0
 40
0
 40
1
 40
1
 40
1
 40
1
 10
17.930315
 20
-10.356591
 30
0.0
 10
17.755219
 20
-10.145615
 30
0.0
 10
17.796334
 20
-10.134345
 30
0.0
 10
18.403038
 20
-10.225326
 30
0.0
  0
SPLINE
  5
1d1
100
AcDbEntity
  8
Layer_1
 62
7
100
AcDbSpline
 70
8
 71
3
 72
8
 73
4
 74
0
 40
0
 40
0
 40
0
 40
0
 40
1
 40
1
 40
1
 40
1
 10
18.403038
 20
-10.225326
 30
0.0
 10
19.132560
 20
-10.334724
 30
0.0
 10
20.322979
 20
-10.080367
 30
0.0
 10
20.314754
 20
-9.817004
 30
0.0
  0
SPLINE
  5
1d2
100
AcDbEntity
  8
Layer_1
 62
7
100
AcDbSpline
 70
8
 71
3
 72
8
 73
4
 74
0
 40
0
 40
0
 40
0
 40
0
 40
1
 40
1
 40
1
 40
1
 10
20.314754
 20
-9.817004
 30
0.0
 10
20.312102
 20
-9.730570
 30
0.0
 10
19.785400
 20
-9.324037
 30
0.0
 10
19.144322
 20
-8.913489
 30
0.0
  0
SPLINE
  5
1d3
100
AcDbEntity
  8
Layer_1
 62
7
100
AcDbSpline
 70
8
 71
3
 72
8
 73
4
 74
0
 40
0
 40
0
 40
0
 40
0
 40
1
 40
1
 40
1
 40
1
 10
19.144322
 20
-8.913489
 30
0.0
 10
18.503244
 20
-8.502939
 30
0.0
 10
17.416626
 20
-7.682129
 30
0.0
 10
16.729741
 20
-7.089467
 30
0.0
  0
LWPOLYLINE
  5
1d4
100
AcDbEntity
  8
Layer_1
 62
7
100
AcDbPolyline
 90
3
 70
0
 10
50.711731
 20
-9.883870
 30
0.0
 10
49.840828
 20
-10.335490
 30
0.0
 10
48.304276
 20
-9.115457
 30
0.0
  0
SPLINE
  5
1d5
100
AcDbEntity
  8
Layer_1
 62
7
100
AcDbSpline
 70
8
 71
3
 72
8
 73
4
 74
0
 40
0
 40
0
 40
0
 40
0
 40
1
 40
1
 40
1
 40
1
 10
16.602314
 20
-5.941780
 30
0.0
 10
17.219152
 20
-5.903195
 30
0.0
 10
17.802835
 20
-5.820638
 30
0.0
 10
17.899351
 20
-5.758173
 30
0.0
  0
SPLINE
  5
1d6
100
AcDbEntity
  8
Layer_1
 62
7
100
AcDbSpline
 70
8
 71
3
 72
8
 73
4
 74
0
 40
0
 40
0
 40
0
 40
0
 40
1
 40
1
 40
1
 40
1
 10
17.899351
 20
-5.758173
 30
0.0
 10
18.021416
 20
-5.679173
 30
0.0
 10
17.482278
 20
-5.059815
 30
0.0
 10
16.127948
 20
-3.723687
 30
0.0
  0
SPLINE
  5
1d7
100
AcDbEntity
  8
Layer_1
 62
7
100
AcDbSpline
 70
8
 71
3
 72
8
 73
4
 74
0
 40
0
 40
0
 40
0
 40
0
 40
1
 40
1
 40
1
 40
1
 10
16.127948
 20
-3.723687
 30
0.0
 10
14.197236
 20
-1.818929
 30
0.0
 10
13.535163
 20
-1.008623
 30
0.0
 10
14.094554
 20
-1.234566
 30
0.0
  0
SPLINE
  5
1d8
100
AcDbEntity
  8
Layer_1
 62
7
100
AcDbSpline
 70
8
 71
3
 72
8
 73
4
 74
0
 40
0
 40
0
 40
0
 40
0
 40
1
 40
1
 40
1
 40
1
 10
14.094554
 20
-1.234566
 30
0.0
 10
14.489009
 20
-1.393886
 30
0.0
 10
16.036656
 20
-1.500870
 30
0.0
 10
16.449120
 20
-1.397347
 30
0.0
  0
SPLINE
  5
1d9
100
AcDbEntity
  8
Layer_1
 62
7
100
AcDbSpline
 70
8
 71
3
 72
8
 73
4
 74
0
 40
0
 40
0
 40
0
 40
0
 40
1
 40
1
 40
1
 40
1
 10
16.449120
 20
-1.397347
 30
0.0
 10
16.955247
 20
-1.270318
 30
0.0
 10
16.901617
 20
-0.942937
 30
0.0
 10
16.289632
 20
-0.422580
 30
0.0
  0
SPLINE
  5
1da
100
AcDbEntity
  8
Layer_1
 62
7
100
AcDbSpline
 70
8
 71
3
 72
8
 73
4
 74
0
 40
0
 40
0
 40
0
 40
0
 40
1
 40
1
 40
1
 40
1
 10
16.289632
 20
-0.422580
 30
0.0
 10
14.504637
 20
1.095154
 30
0.0
 10
13.023601
 20
2.695801
 30
0.0
 10
13.023601
 20
3.107076
 30
0.0
  0
SPLINE
  5
1db
100
AcDbEntity
  8
Layer_1
 62
7
100
AcDbSpline
 70
8
 71
3
 72
8
 73
4
 74
0
 40
0
 40
0
 40
0
 40
0
 40
1
 40
1
 40
1
 40
1
 10
13.023601
 20
3.107076
 30
0.0
 10
13.023601
 20
3.228362
 30
0.0
 10
13.206524
 20
3.243943
 30
0.0
 10
13.690070
 20
3.164351
 30
0.0
  0
SPLINE
  5
1dc
100
AcDbEntity
  8
Layer_1
 62
7
100
AcDbSpline
 70
8
 71
3
 72
8
 73
4
 74
0
 40
0
 40
0
 40
0
 40
0
 40
1
 40
1
 40
1
 40
1
 10
13.690070
 20
3.164351
 30
0.0
 10
14.638194
 20
3.008290
 30
0.0
 10
15.689477
 20
3.013909
 30
0.0
 10
15.689477
 20
3.175041
 30
0.0
  0
SPLINE
  5
1dd
100
AcDbEntity
  8
Layer_1
 62
7
100
AcDbSpline
 70
8
 71
3
 72
8
 73
4
 74
0
 40
0
 40
0
 40
0
 40
0
 40
1
 40
1
 40
1
 40
1
 10
15.689477
 20
3.175041
 30
0.0
 10
15.689477
 20
3.712951
 30
0.0
 10
14.487057
 20
6.292986
 30
0.0
 10
13.791194
 20
7.248123
 30
0.0
  0
LWPOLYLINE
  5
1de
100
AcDbEntity
  8
Layer_1
 62
7
100
AcDbPolyline
 90
3
 70
0
 10
16.729741
 20
-7.089467
 30
0.0
 10
15.480935
 20
-6.011935
 30
0.0
 10
16.602314
 20
-5.941780
 30
0.0
  0
SPLINE
  5
1df
100
AcDbEntity
  8
Layer_1
 62
7
100
AcDbSpline
 70
8
 71
3
 72
8
 73
4
 74
0
 40
0
 40
0
 40
0
 40
0
 40
1
 40
1
 40
1
 40
1
 10
15.878021
 20
7.883634
 30
0.0
 10
17.279166
 20
7.885384
 30
0.0
 10
18.671519
 20
7.936938
 30
0.0
 10
18.972223
 20
7.998183
 30
0.0
  0
LWPOLYLINE
  5
1e0
100
AcDbEntity
  8
Layer_1
 62
7
100
AcDbPolyline
 90
3
 70
0
 10
13.791194
 20
7.248123
 30
0.0
 10
13.330530
 20
7.880612
 30
0.0
 10
15.878021
 20
7.883634
 30
0.0
  0
SPLINE
  5
1e1
100
AcDbEntity
  8
Layer_1
 62
7
100
AcDbSpline
 70
8
 71
3
 72
8
 73
4
 74
0
 40
0
 40
0
 40
0
 40
0
 40
1
 40
1
 40
1
 40
1
 10
18.715174
 20
8.921978
 30
0.0
 10
17.951278
 20
9.693929
 30
0.0
 10
17.927647
 20
9.738391
 30
0.0
 10
18.238617
 20
9.821657
 30
0.0
  0
SPLINE
  5
1e2
100
AcDbEntity
  8
Layer_1
 62
7
100
AcDbSpline
 70
8
 71
3
 72
8
 73
4
 74
0
 40
0
 40
0
 40
0
 40
0
 40
1
 40
1
 40
1
 40
1
 10
18.238617
 20
9.821657
 30
0.0
 10
18.418581
 20
9.869846
 30
0.0
 10
19.165645
 20
9.910718
 30
0.0
 10
19.898757
 20
9.912365
 30
0.0
  0
SPLINE
  5
1e3
100
AcDbEntity
  8
Layer_1
 62
7
100
AcDbSpline
 70
8
 71
3
 72
8
 73
4
 74
0
 40
0
 40
0
 40
0
 40
0
 40
1
 40
1
 40
1
 40
1
 10
19.898757
 20
9.912365
 30
0.0
 10
20.938894
 20
9.914698
 30
0.0
 10
21.623923
 20
9.816859
 30
0.0
 10
23.017629
 20
9.467047
 30
0.0
  0
SPLINE
  5
1e4
100
AcDbEntity
  8
Layer_1
 62
7
100
AcDbSpline
 70
8
 71
3
 72
8
 73
4
 74
0
 40
0
 40
0
 40
0
 40
0
 40
1
 40
1
 40
1
 40
1
 10
23.017629
 20
9.467047
 30
0.0
 10
23.999951
 20
9.220486
 30
0.0
 10
24.846421
 20
9.061304
 30
0.0
 10
24.898375
 20
9.113259
 30
0.0
  0
SPLINE
  5
1e5
100
AcDbEntity
  8
Layer_1
 62
7
100
AcDbSpline
 70
8
 71
3
 72
8
 73
4
 74
0
 40
0
 40
0
 40
0
 40
0
 40
1
 40
1
 40
1
 40
1
 10
24.898375
 20
9.113259
 30
0.0
 10
25.081276
 20
9.296157
 30
0.0
 10
24.964976
 20
10.085079
 30
0.0
 10
24.713400
 20
10.368370
 30
0.0
  0
SPLINE
  5
1e6
100
AcDbEntity
  8
Layer_1
 62
7
100
AcDbSpline
 70
8
 71
3
 72
8
 73
4
 74
0
 40
0
 40
0
 40
0
 40
0
 40
1
 40
1
 40
1
 40
1
 10
24.713400
 20
10.368370
 30
0.0
 10
24.573410
 20
10.525992
 30
0.0
 10
24.269393
 20
10.771801
 30
0.0
 10
24.037884
 20
10.914804
 30
0.0
  0
LWPOLYLINE
  5
1e7
100
AcDbEntity
  8
Layer_1
 62
7
100
AcDbPolyline
 90
3
 70
0
 10
18.972223
 20
7.998183
 30
0.0
 10
19.518938
 20
8.109718
 30
0.0
 10
18.715174
 20
8.921978
 30
0.0
  0
SPLINE
  5
1e8
100
AcDbEntity
  8
Layer_1
 62
7
100
AcDbSpline
 70
8
 71
3
 72
8
 73
4
 74
0
 40
0
 40
0
 40
0
 40
0
 40
1
 40
1
 40
1
 40
1
 10
24.248351
 20
11.174339
 30
0.0
 10
24.981240
 20
11.173808
 30
0.0
 10
26.675638
 20
10.783297
 30
0.0
 10
28.166595
 20
10.271097
 30
0.0
  0
SPLINE
  5
1e9
100
AcDbEntity
  8
Layer_1
 62
7
100
AcDbSpline
 70
8
 71
3
 72
8
 73
4
 74
0
 40
0
 40
0
 40
0
 40
0
 40
1
 40
1
 40
1
 40
1
 10
28.166595
 20
10.271097
 30
0.0
 10
29.527289
 20
9.803646
 30
0.0
 10
29.580102
 20
9.808968
 30
0.0
 10
29.580102
 20
10.412227
 30
0.0
  0
SPLINE
  5
1ea
100
AcDbEntity
  8
Layer_1
 62
7
100
AcDbSpline
 70
8
 71
3
 72
8
 73
4
 74
0
 40
0
 40
0
 40
0
 40
0
 40
1
 40
1
 40
1
 40
1
 10
29.580102
 20
10.412227
 30
0.0
 10
29.580102
 20
10.829810
 30
0.0
 10
29.462051
 20
11.024389
 30
0.0
 10
28.856636
 20
11.604857
 30
0.0
  0
SPLINE
  5
1eb
100
AcDbEntity
  8
Layer_1
 62
7
100
AcDbSpline
 70
8
 71
3
 72
8
 73
4
 74
0
 40
0
 40
0
 40
0
 40
0
 40
1
 40
1
 40
1
 40
1
 10
28.856636
 20
11.604857
 30
0.0
 10
28.458739
 20
11.986357
 30
0.0
 10
28.196054
 20
12.298456
 30
0.0
 10
28.272926
 20
12.298456
 30
0.0
  0
SPLINE
  5
1ec
100
AcDbEntity
  8
Layer_1
 62
7
100
AcDbSpline
 70
8
 71
3
 72
8
 73
4
 74
0
 40
0
 40
0
 40
0
 40
0
 40
1
 40
1
 40
1
 40
1
 10
28.272926
 20
12.298456
 30
0.0
 10
28.349799
 20
12.298456
 30
0.0
 10
28.889828
 20
12.176568
 30
0.0
 10
29.472954
 20
12.027429
 30
0.0
  0
SPLINE
  5
1ed
100
AcDbEntity
  8
Layer_1
 62
7
100
AcDbSpline
 70
8
 71
3
 72
8
 73
4
 74
0
 40
0
 40
0
 40
0
 40
0
 40
1
 40
1
 40
1
 40
1
 10
29.472954
 20
12.027429
 30
0.0
 10
30.724973
 20
11.707217
 30
0.0
 10
32.311465
 20
11.052004
 30
0.0
 10
33.284873
 20
10.453060
 30
0.0
  0
SPLINE
  5
1ee
100
AcDbEntity
  8
Layer_1
 62
7
100
AcDbSpline
 70
8
 71
3
 72
8
 73
4
 74
0
 40
0
 40
0
 40
0
 40
0
 40
1
 40
1
 40
1
 40
1
 10
33.284873
 20
10.453060
 30
0.0
 10
33.943600
 20
10.047742
 30
0.0
 10
33.992048
 20
10.037873
 30
0.0
 10
34.166194
 20
10.276029
 30
0.0
  0
SPLINE
  5
1ef
100
AcDbEntity
  8
Layer_1
 62
7
100
AcDbSpline
 70
8
 71
3
 72
8
 73
4
 74
0
 40
0
 40
0
 40
0
 40
0
 40
1
 40
1
 40
1
 40
1
 10
34.166194
 20
10.276029
 30
0.0
 10
34.463233
 20
10.682259
 30
0.0
 10
34.380676
 20
11.232730
 30
0.0
 10
33.928873
 20
11.856427
 30
0.0
  0
SPLINE
  5
1f0
100
AcDbEntity
  8
Layer_1
 62
7
100
AcDbSpline
 70
8
 71
3
 72
8
 73
4
 74
0
 40
0
 40
0
 40
0
 40
0
 40
1
 40
1
 40
1
 40
1
 10
33.928873
 20
11.856427
 30
0.0
 10
33.660063
 20
12.227506
 30
0.0
 10
33.575320
 20
12.415054
 30
0.0
 10
33.728546
 20
12.421501
 30
0.0
  0
LWPOLYLINE
  5
1f1
100
AcDbEntity
  8
Layer_1
 62
7
100
AcDbPolyline
 90
3
 70
0
 10
24.037884
 20
10.914804
 30
0.0
 10
23.616956
 20
11.174869
 30
0.0
 10
24.248351
 20
11.174339
 30
0.0
  0
SPLINE
  5
1f2
100
AcDbEntity
  8
Layer_1
 62
7
100
AcDbSpline
 70
8
 71
3
 72
8
 73
4
 74
0
 40
0
 40
0
 40
0
 40
0
 40
1
 40
1
 40
1
 40
1
 10
56.581430
 20
-21.496934
 30
0.0
 10
57.654567
 20
-21.487378
 30
0.0
 10
58.682830
 20
-21.559048
 30
0.0
 10
59.505457
 20
-21.716441
 30
0.0
  0
SPLINE
  5
1f3
100
AcDbEntity
  8
Layer_1
 62
7
100
AcDbSpline
 70
8
 71
3
 72
8
 73
4
 74
0
 40
0
 40
0
 40
0
 40
0
 40
1
 40
1
 40
1
 40
1
 10
59.505457
 20
-21.716441
 30
0.0
 10
63.065408
 20
-22.397573
 30
0.0
 10
65.946661
 20
-23.910277
 30
0.0
 10
68.457852
 20
-26.417077
 30
0.0
  0
SPLINE
  5
1f4
100
AcDbEntity
  8
Layer_1
 62
7
100
AcDbSpline
 70
8
 71
3
 72
8
 73
4
 74
0
 40
0
 40
0
 40
0
 40
0
 40
1
 40
1
 40
1
 40
1
 10
68.457852
 20
-26.417077
 30
0.0
 10
69.965021
 20
-27.921621
 30
0.0
 10
70.454661
 20
-28.844958
 30
0.0
 10
70.529603
 20
-30.322722
 30
0.0
  0
SPLINE
  5
1f5
100
AcDbEntity
  8
Layer_1
 62
7
100
AcDbSpline
 70
8
 71
3
 72
8
 73
4
 74
0
 40
0
 40
0
 40
0
 40
0
 40
1
 40
1
 40
1
 40
1
 10
70.529603
 20
-30.322722
 30
0.0
 10
70.574255
 20
-31.203083
 30
0.0
 10
70.530664
 20
-31.445480
 30
0.0
 10
70.209798
 20
-32.101252
 30
0.0
  0
SPLINE
  5
1f6
100
AcDbEntity
  8
Layer_1
 62
7
100
AcDbSpline
 70
8
 71
3
 72
8
 73
4
 74
0
 40
0
 40
0
 40
0
 40
0
 40
1
 40
1
 40
1
 40
1
 10
70.209798
 20
-32.101252
 30
0.0
 10
69.637814
 20
-33.270342
 30
0.0
 10
68.295314
 20
-34.589031
 30
0.0
 10
66.972542
 20
-35.281230
 30
0.0
  0
SPLINE
  5
1f7
100
AcDbEntity
  8
Layer_1
 62
7
100
AcDbSpline
 70
8
 71
3
 72
8
 73
4
 74
0
 40
0
 40
0
 40
0
 40
0
 40
1
 40
1
 40
1
 40
1
 10
66.972542
 20
-35.281230
 30
0.0
 10
65.230820
 20
-36.192662
 30
0.0
 10
63.995665
 20
-36.661105
 30
0.0
 10
62.767923
 20
-36.875602
 30
0.0
  0
SPLINE
  5
1f8
100
AcDbEntity
  8
Layer_1
 62
7
100
AcDbSpline
 70
8
 71
3
 72
8
 73
4
 74
0
 40
0
 40
0
 40
0
 40
0
 40
1
 40
1
 40
1
 40
1
 10
62.767923
 20
-36.875602
 30
0.0
 10
62.147999
 20
-36.983906
 30
0.0
 10
61.356660
 20
-37.141072
 30
0.0
 10
61.009396
 20
-37.225003
 30
0.0
  0
SPLINE
  5
1f9
100
AcDbEntity
  8
Layer_1
 62
7
100
AcDbSpline
 70
8
 71
3
 72
8
 73
4
 74
0
 40
0
 40
0
 40
0
 40
0
 40
1
 40
1
 40
1
 40
1
 10
61.009396
 20
-37.225003
 30
0.0
 10
60.139588
 20
-37.435231
 30
0.0
 10
57.100008
 20
-37.508381
 30
0.0
 10
54.905942
 20
-37.371621
 30
0.0
  0
SPLINE
  5
1fa
100
AcDbEntity
  8
Layer_1
 62
7
100
AcDbSpline
 70
8
 71
3
 72
8
 73
4
 74
0
 40
0
 40
0
 40
0
 40
0
 40
1
 40
1
 40
1
 40
1
 10
54.905942
 20
-37.371621
 30
0.0
 10
51.117105
 20
-37.135445
 30
0.0
 10
47.146312
 20
-35.646959
 30
0.0
 10
44.713783
 20
-33.551207
 30
0.0
  0
SPLINE
  5
1fb
100
AcDbEntity
  8
Layer_1
 62
7
100
AcDbSpline
 70
8
 71
3
 72
8
 73
4
 74
0
 40
0
 40
0
 40
0
 40
0
 40
1
 40
1
 40
1
 40
1
 10
44.713783
 20
-33.551207
 30
0.0
 10
44.135850
 20
-33.053284
 30
0.0
 10
43.189988
 20
-31.384235
 30
0.0
 10
43.027606
 20
-30.575661
 30
0.0
  0
SPLINE
  5
1fc
100
AcDbEntity
  8
Layer_1
 62
7
100
AcDbSpline
 70
8
 71
3
 72
8
 73
4
 74
0
 40
0
 40
0
 40
0
 40
0
 40
1
 40
1
 40
1
 40
1
 10
43.027606
 20
-30.575661
 30
0.0
 10
42.842610
 20
-29.654514
 30
0.0
 10
43.138927
 20
-28.368242
 30
0.0
 10
43.734905
 20
-27.505572
 30
0.0
  0
SPLINE
  5
1fd
100
AcDbEntity
  8
Layer_1
 62
7
100
AcDbSpline
 70
8
 71
3
 72
8
 73
4
 74
0
 40
0
 40
0
 40
0
 40
0
 40
1
 40
1
 40
1
 40
1
 10
43.734905
 20
-27.505572
 30
0.0
 10
45.340532
 20
-25.181455
 30
0.0
 10
49.325800
 20
-22.662224
 30
0.0
 10
52.562061
 20
-21.925536
 30
0.0
  0
SPLINE
  5
1fe
100
AcDbEntity
  8
Layer_1
 62
7
100
AcDbSpline
 70
8
 71
3
 72
8
 73
4
 74
0
 40
0
 40
0
 40
0
 40
0
 40
1
 40
1
 40
1
 40
1
 10
52.562061
 20
-21.925536
 30
0.0
 10
53.747898
 20
-21.655597
 30
0.0
 10
55.201682
 20
-21.509214
 30
0.0
 10
56.581430
 20
-21.496934
 30
0.0
  0
LWPOLYLINE
  5
1ff
100
AcDbEntity
  8
Layer_1
 62
7
100
AcDbPolyline
 90
1
 70
1
 10
33.728546
 20
12.421501
 30
0.0
  0
SPLINE
  5
200
100
AcDbEntity
  8
Layer_1
 62
7
100
AcDbSpline
 70
8
 71
3
 72
8
 73
4
 74
0
 40
0
 40
0
 40
0
 40
0
 40
1
 40
1
 40
1
 40
1
 10
77.325564
 20
-24.345051
 30
0.0
 10
77.818072
 20
-24.355180
 30
0.0
 10
78.291961
 20
-24.409106
 30
0.0
 10
79.008178
 20
-24.512489
 30
0.0
  0
SPLINE
  5
201
100
AcDbEntity
  8
Layer_1
 62
7
100
AcDbSpline
 70
8
 71
3
 72
8
 73
4
 74
0
 40
0
 40
0
 40
0
 40
0
 40
1
 40
1
 40
1
 40
1
 10
79.008178
 20
-24.512489
 30
0.0
 10
80.749057
 20
-24.763778
 30
0.0
 10
83.047814
 20
-25.443086
 30
0.0
 10
84.316368
 20
-26.081104
 30
0.0
  0
SPLINE
  5
202
100
AcDbEntity
  8
Layer_1
 62
7
100
AcDbSpline
 70
8
 71
3
 72
8
 73
4
 74
0
 40
0
 40
0
 40
0
 40
0
 40
1
 40
1
 40
1
 40
1
 10
84.316368
 20
-26.081104
 30
0.0
 10
88.748917
 20
-28.310445
 30
0.0
 10
92.016787
 20
-32.338802
 30
0.0
 10
93.230396
 20
-37.069624
 30
0.0
  0
SPLINE
  5
203
100
AcDbEntity
  8
Layer_1
 62
7
100
AcDbSpline
 70
8
 71
3
 72
8
 73
4
 74
0
 40
0
 40
0
 40
0
 40
0
 40
1
 40
1
 40
1
 40
1
 10
93.230396
 20
-37.069624
 30
0.0
 10
93.662158
 20
-38.752695
 30
0.0
 10
93.932014
 20
-41.532389
 30
0.0
 10
93.757104
 20
-42.495102
 30
0.0
  0
SPLINE
  5
204
100
AcDbEntity
  8
Layer_1
 62
7
100
AcDbSpline
 70
8
 71
3
 72
8
 73
4
 74
0
 40
0
 40
0
 40
0
 40
0
 40
1
 40
1
 40
1
 40
1
 10
93.757104
 20
-42.495102
 30
0.0
 10
93.631395
 20
-43.187014
 30
0.0
 10
93.624565
 20
-43.194386
 30
0.0
 10
93.069534
 20
-43.228988
 30
0.0
  0
SPLINE
  5
205
100
AcDbEntity
  8
Layer_1
 62
7
100
AcDbSpline
 70
8
 71
3
 72
8
 73
4
 74
0
 40
0
 40
0
 40
0
 40
0
 40
1
 40
1
 40
1
 40
1
 10
93.069534
 20
-43.228988
 30
0.0
 10
92.635677
 20
-43.256033
 30
0.0
 10
92.175777
 20
-43.101243
 30
0.0
 10
91.035594
 20
-42.544977
 30
0.0
  0
SPLINE
  5
206
100
AcDbEntity
  8
Layer_1
 62
7
100
AcDbSpline
 70
8
 71
3
 72
8
 73
4
 74
0
 40
0
 40
0
 40
0
 40
0
 40
1
 40
1
 40
1
 40
1
 10
91.035594
 20
-42.544977
 30
0.0
 10
90.225307
 20
-42.149657
 30
0.0
 10
89.215080
 20
-41.591592
 30
0.0
 10
88.790646
 20
-41.304667
 30
0.0
  0
SPLINE
  5
207
100
AcDbEntity
  8
Layer_1
 62
7
100
AcDbSpline
 70
8
 71
3
 72
8
 73
4
 74
0
 40
0
 40
0
 40
0
 40
0
 40
1
 40
1
 40
1
 40
1
 10
88.790646
 20
-41.304667
 30
0.0
 10
88.366213
 20
-41.017741
 30
0.0
 10
87.578527
 20
-40.504567
 30
0.0
 10
87.040344
 20
-40.164377
 30
0.0
  0
SPLINE
  5
208
100
AcDbEntity
  8
Layer_1
 62
7
100
AcDbSpline
 70
8
 71
3
 72
8
 73
4
 74
0
 40
0
 40
0
 40
0
 40
0
 40
1
 40
1
 40
1
 40
1
 10
87.040344
 20
-40.164377
 30
0.0
 10
86.502155
 20
-39.824188
 30
0.0
 10
85.593852
 20
-39.148958
 30
0.0
 10
85.021751
 20
-38.663726
 30
0.0
  0
SPLINE
  5
209
100
AcDbEntity
  8
Layer_1
 62
7
100
AcDbSpline
 70
8
 71
3
 72
8
 73
4
 74
0
 40
0
 40
0
 40
0
 40
0
 40
1
 40
1
 40
1
 40
1
 10
85.021751
 20
-38.663726
 30
0.0
 10
84.449655
 20
-38.178493
 30
0.0
 10
83.654030
 20
-37.563946
 30
0.0
 10
83.253636
 20
-37.298174
 30
0.0
  0
SPLINE
  5
20a
100
AcDbEntity
  8
Layer_1
 62
7
100
AcDbSpline
 70
8
 71
3
 72
8
 73
4
 74
0
 40
0
 40
0
 40
0
 40
0
 40
1
 40
1
 40
1
 40
1
 10
83.253636
 20
-37.298174
 30
0.0
 10
81.325454
 20
-36.018325
 30
0.0
 10
75.906117
 20
-30.840330
 30
0.0
 10
73.589282
 20
-28.064071
 30
0.0
  0
SPLINE
  5
20b
100
AcDbEntity
  8
Layer_1
 62
7
100
AcDbSpline
 70
8
 71
3
 72
8
 73
4
 74
0
 40
0
 40
0
 40
0
 40
0
 40
1
 40
1
 40
1
 40
1
 10
73.589282
 20
-28.064071
 30
0.0
 10
72.411930
 20
-26.653253
 30
0.0
 10
71.852120
 20
-25.388332
 30
0.0
 10
72.262920
 20
-25.066873
 30
0.0
  0
SPLINE
  5
20c
100
AcDbEntity
  8
Layer_1
 62
7
100
AcDbSpline
 70
8
 71
3
 72
8
 73
4
 74
0
 40
0
 40
0
 40
0
 40
0
 40
1
 40
1
 40
1
 40
1
 10
72.262920
 20
-25.066873
 30
0.0
 10
72.580120
 20
-24.818659
 30
0.0
 10
73.652733
 20
-24.613342
 30
0.0
 10
75.531416
 20
-24.441237
 30
0.0
  0
SPLINE
  5
20d
100
AcDbEntity
  8
Layer_1
 62
7
100
AcDbSpline
 70
8
 71
3
 72
8
 73
4
 74
0
 40
0
 40
0
 40
0
 40
0
 40
1
 40
1
 40
1
 40
1
 10
75.531416
 20
-24.441237
 30
0.0
 10
76.321880
 20
-24.368824
 30
0.0
 10
76.833055
 20
-24.334927
 30
0.0
 10
77.325564
 20
-24.345051
 30
0.0
  0
LWPOLYLINE
  5
20e
100
AcDbEntity
  8
Layer_1
 62
7
100
AcDbPolyline
 90
1
 70
1
 10
56.581430
 20
-21.496934
 30
0.0
  0
SPLINE
  5
20f
100
AcDbEntity
  8
Layer_1
 62
7
100
AcDbSpline
 70
8
 71
3
 72
8
 73
4
 74
0
 40
0
 40
0
 40
0
 40
0
 40
1
 40
1
 40
1
 40
1
 10
35.894022
 20
-24.400133
 30
0.0
 10
38.964456
 20
-24.389315
 30
0.0
 10
40.664544
 20
-24.758507
 30
0.0
 10
40.664544
 20
-25.436282
 30
0.0
  0
SPLINE
  5
210
100
AcDbEntity
  8
Layer_1
 62
7
100
AcDbSpline
 70
8
 71
3
 72
8
 73
4
 74
0
 40
0
 40
0
 40
0
 40
0
 40
1
 40
1
 40
1
 40
1
 10
40.664544
 20
-25.436282
 30
0.0
 10
40.664544
 20
-26.600435
 30
0.0
 10
38.772635
 20
-29.009050
 30
0.0
 10
35.220156
 20
-32.367894
 30
0.0
  0
SPLINE
  5
211
100
AcDbEntity
  8
Layer_1
 62
7
100
AcDbSpline
 70
8
 71
3
 72
8
 73
4
 74
0
 40
0
 40
0
 40
0
 40
0
 40
1
 40
1
 40
1
 40
1
 10
35.220156
 20
-32.367894
 30
0.0
 10
33.211389
 20
-34.267169
 30
0.0
 10
32.124533
 20
-35.189673
 30
0.0
 10
28.597938
 20
-37.987664
 30
0.0
  0
SPLINE
  5
212
100
AcDbEntity
  8
Layer_1
 62
7
100
AcDbSpline
 70
8
 71
3
 72
8
 73
4
 74
0
 40
0
 40
0
 40
0
 40
0
 40
1
 40
1
 40
1
 40
1
 10
28.597938
 20
-37.987664
 30
0.0
 10
26.395012
 20
-39.735463
 30
0.0
 10
23.083317
 20
-41.796682
 30
0.0
 10
21.379957
 20
-42.480030
 30
0.0
  0
SPLINE
  5
213
100
AcDbEntity
  8
Layer_1
 62
7
100
AcDbSpline
 70
8
 71
3
 72
8
 73
4
 74
0
 40
0
 40
0
 40
0
 40
0
 40
1
 40
1
 40
1
 40
1
 10
21.379957
 20
-42.480030
 30
0.0
 10
20.105528
 20
-42.991301
 30
0.0
 10
20.043949
 20
-43.004590
 30
0.0
 10
19.547988
 20
-42.880680
 30
0.0
  0
SPLINE
  5
214
100
AcDbEntity
  8
Layer_1
 62
7
100
AcDbSpline
 70
8
 71
3
 72
8
 73
4
 74
0
 40
0
 40
0
 40
0
 40
0
 40
1
 40
1
 40
1
 40
1
 10
19.547988
 20
-42.880680
 30
0.0
 10
19.120188
 20
-42.773797
 30
0.0
 10
19.061425
 20
-42.587942
 30
0.0
 10
19.059097
 20
-41.333987
 30
0.0
  0
SPLINE
  5
215
100
AcDbEntity
  8
Layer_1
 62
7
100
AcDbSpline
 70
8
 71
3
 72
8
 73
4
 74
0
 40
0
 40
0
 40
0
 40
0
 40
1
 40
1
 40
1
 40
1
 10
19.059097
 20
-41.333987
 30
0.0
 10
19.052786
 20
-37.923900
 30
0.0
 10
20.185821
 20
-34.345670
 30
0.0
 10
22.143710
 20
-31.593180
 30
0.0
  0
SPLINE
  5
216
100
AcDbEntity
  8
Layer_1
 62
7
100
AcDbSpline
 70
8
 71
3
 72
8
 73
4
 74
0
 40
0
 40
0
 40
0
 40
0
 40
1
 40
1
 40
1
 40
1
 10
22.143710
 20
-31.593180
 30
0.0
 10
24.686094
 20
-28.018974
 30
0.0
 10
27.870156
 20
-25.863515
 30
0.0
 10
32.198574
 20
-24.786258
 30
0.0
  0
SPLINE
  5
217
100
AcDbEntity
  8
Layer_1
 62
7
100
AcDbSpline
 70
8
 71
3
 72
8
 73
4
 74
0
 40
0
 40
0
 40
0
 40
0
 40
1
 40
1
 40
1
 40
1
 10
32.198574
 20
-24.786258
 30
0.0
 10
33.510729
 20
-24.459686
 30
0.0
 10
34.017524
 20
-24.406741
 30
0.0
 10
35.894022
 20
-24.400133
 30
0.0
  0
LWPOLYLINE
  5
218
100
AcDbEntity
  8
Layer_1
 62
7
100
AcDbPolyline
 90
1
 70
1
 10
77.325564
 20
-24.345051
 30
0.0
  0
SPLINE
  5
219
100
AcDbEntity
  8
Layer_1
 62
7
100
AcDbSpline
 70
8
 71
3
 72
8
 73
4
 74
0
 40
0
 40
0
 40
0
 40
0
 40
1
 40
1
 40
1
 40
1
 10
72.612045
 20
-38.087143
 30
0.0
 10
73.258086
 20
-38.096636
 30
0.0
 10
73.897011
 20
-38.181431
 30
0.0
 10
74.719702
 20
-38.344192
 30
0.0
  0
SPLINE
  5
21a
100
AcDbEntity
  8
Layer_1
 62
7
100
AcDbSpline
 70
8
 71
3
 72
8
 73
4
 74
0
 40
0
 40
0
 40
0
 40
0
 40
1
 40
1
 40
1
 40
1
 10
74.719702
 20
-38.344192
 30
0.0
 10
78.110624
 20
-39.015057
 30
0.0
 10
80.942708
 20
-40.580824
 30
0.0
 10
83.560559
 20
-43.232000
 30
0.0
  0
SPLINE
  5
21b
100
AcDbEntity
  8
Layer_1
 62
7
100
AcDbSpline
 70
8
 71
3
 72
8
 73
4
 74
0
 40
0
 40
0
 40
0
 40
0
 40
1
 40
1
 40
1
 40
1
 10
83.560559
 20
-43.232000
 30
0.0
 10
86.958184
 20
-46.672866
 30
0.0
 10
88.930954
 20
-51.350064
 30
0.0
 10
88.930954
 20
-55.964252
 30
0.0
  0
SPLINE
  5
21c
100
AcDbEntity
  8
Layer_1
 62
7
100
AcDbSpline
 70
8
 71
3
 72
8
 73
4
 74
0
 40
0
 40
0
 40
0
 40
0
 40
1
 40
1
 40
1
 40
1
 10
88.930954
 20
-55.964252
 30
0.0
 10
88.930954
 20
-58.437114
 30
0.0
 10
88.538286
 20
-60.288370
 30
0.0
 10
87.590618
 20
-62.283375
 30
0.0
  0
SPLINE
  5
21d
100
AcDbEntity
  8
Layer_1
 62
7
100
AcDbSpline
 70
8
 71
3
 72
8
 73
4
 74
0
 40
0
 40
0
 40
0
 40
0
 40
1
 40
1
 40
1
 40
1
 10
87.590618
 20
-62.283375
 30
0.0
 10
86.023870
 20
-65.581664
 30
0.0
 10
83.661062
 20
-67.534282
 30
0.0
 10
80.021311
 20
-68.538379
 30
0.0
  0
SPLINE
  5
21e
100
AcDbEntity
  8
Layer_1
 62
7
100
AcDbSpline
 70
8
 71
3
 72
8
 73
4
 74
0
 40
0
 40
0
 40
0
 40
0
 40
1
 40
1
 40
1
 40
1
 10
80.021311
 20
-68.538379
 30
0.0
 10
77.302315
 20
-69.288466
 30
0.0
 10
73.486339
 20
-68.781109
 30
0.0
 10
70.707456
 20
-67.300259
 30
0.0
  0
SPLINE
  5
21f
100
AcDbEntity
  8
Layer_1
 62
7
100
AcDbSpline
 70
8
 71
3
 72
8
 73
4
 74
0
 40
0
 40
0
 40
0
 40
0
 40
1
 40
1
 40
1
 40
1
 10
70.707456
 20
-67.300259
 30
0.0
 10
68.451881
 20
-66.098274
 30
0.0
 10
67.661045
 20
-65.520101
 30
0.0
 10
66.156448
 20
-63.972846
 30
0.0
  0
SPLINE
  5
220
100
AcDbEntity
  8
Layer_1
 62
7
100
AcDbSpline
 70
8
 71
3
 72
8
 73
4
 74
0
 40
0
 40
0
 40
0
 40
0
 40
1
 40
1
 40
1
 40
1
 10
66.156448
 20
-63.972846
 30
0.0
 10
64.233548
 20
-61.995426
 30
0.0
 10
63.693244
 20
-61.231344
 30
0.0
 10
62.490320
 20
-58.788248
 30
0.0
  0
SPLINE
  5
221
100
AcDbEntity
  8
Layer_1
 62
7
100
AcDbSpline
 70
8
 71
3
 72
8
 73
4
 74
0
 40
0
 40
0
 40
0
 40
0
 40
1
 40
1
 40
1
 40
1
 10
62.490320
 20
-58.788248
 30
0.0
 10
61.032634
 20
-55.827763
 30
0.0
 10
60.715683
 20
-54.480295
 30
0.0
 10
60.686850
 20
-51.121387
 30
0.0
  0
SPLINE
  5
222
100
AcDbEntity
  8
Layer_1
 62
7
100
AcDbSpline
 70
8
 71
3
 72
8
 73
4
 74
0
 40
0
 40
0
 40
0
 40
0
 40
1
 40
1
 40
1
 40
1
 10
60.686850
 20
-51.121387
 30
0.0
 10
60.668608
 20
-48.995339
 30
0.0
 10
60.708062
 20
-48.498089
 30
0.0
 10
60.981168
 20
-47.413604
 30
0.0
  0
SPLINE
  5
223
100
AcDbEntity
  8
Layer_1
 62
7
100
AcDbSpline
 70
8
 71
3
 72
8
 73
4
 74
0
 40
0
 40
0
 40
0
 40
0
 40
1
 40
1
 40
1
 40
1
 10
60.981168
 20
-47.413604
 30
0.0
 10
61.396661
 20
-45.763624
 30
0.0
 10
61.857038
 20
-44.744403
 30
0.0
 10
62.931798
 20
-43.096073
 30
0.0
  0
SPLINE
  5
224
100
AcDbEntity
  8
Layer_1
 62
7
100
AcDbSpline
 70
8
 71
3
 72
8
 73
4
 74
0
 40
0
 40
0
 40
0
 40
0
 40
1
 40
1
 40
1
 40
1
 10
62.931798
 20
-43.096073
 30
0.0
 10
64.614168
 20
-40.515873
 30
0.0
 10
67.308394
 20
-38.793003
 30
0.0
 10
70.460823
 20
-38.281711
 30
0.0
  0
SPLINE
  5
225
100
AcDbEntity
  8
Layer_1
 62
7
100
AcDbSpline
 70
8
 71
3
 72
8
 73
4
 74
0
 40
0
 40
0
 40
0
 40
0
 40
1
 40
1
 40
1
 40
1
 10
70.460823
 20
-38.281711
 30
0.0
 10
71.312686
 20
-38.143546
 30
0.0
 10
71.966008
 20
-38.077651
 30
0.0
 10
72.612045
 20
-38.087143
 30
0.0
  0
LWPOLYLINE
  5
226
100
AcDbEntity
  8
Layer_1
 62
7
100
AcDbPolyline
 90
1
 70
1
 10
35.894022
 20
-24.400133
 30
0.0
  0
SPLINE
  5
227
100
AcDbEntity
  8
Layer_1
 62
7
100
AcDbSpline
 70
8
 71
3
 72
8
 73
4
 74
0
 40
0
 40
0
 40
0
 40
0
 40
1
 40
1
 40
1
 40
1
 10
41.580388
 20
-38.656328
 30
0.0
 10
45.873976
 20
-38.720086
 30
0.0
 10
49.978216
 20
-41.018738
 30
0.0
 10
52.054262
 20
-44.667154
 30
0.0
  0
SPLINE
  5
228
100
AcDbEntity
  8
Layer_1
 62
7
100
AcDbSpline
 70
8
 71
3
 72
8
 73
4
 74
0
 40
0
 40
0
 40
0
 40
0
 40
1
 40
1
 40
1
 40
1
 10
52.054262
 20
-44.667154
 30
0.0
 10
52.621032
 20
-45.663190
 30
0.0
 10
53.386508
 20
-47.726928
 30
0.0
 10
53.642607
 20
-48.949605
 30
0.0
  0
SPLINE
  5
229
100
AcDbEntity
  8
Layer_1
 62
7
100
AcDbSpline
 70
8
 71
3
 72
8
 73
4
 74
0
 40
0
 40
0
 40
0
 40
0
 40
1
 40
1
 40
1
 40
1
 10
53.642607
 20
-48.949605
 30
0.0
 10
54.062061
 20
-50.952146
 30
0.0
 10
53.853344
 20
-54.661457
 30
0.0
 10
53.200578
 20
-56.803913
 30
0.0
  0
SPLINE
  5
22a
100
AcDbEntity
  8
Layer_1
 62
7
100
AcDbSpline
 70
8
 71
3
 72
8
 73
4
 74
0
 40
0
 40
0
 40
0
 40
0
 40
1
 40
1
 40
1
 40
1
 10
53.200578
 20
-56.803913
 30
0.0
 10
51.292431
 20
-63.066696
 30
0.0
 10
45.754456
 20
-68.268147
 30
0.0
 10
39.892841
 20
-69.303230
 30
0.0
  0
SPLINE
  5
22b
100
AcDbEntity
  8
Layer_1
 62
7
100
AcDbSpline
 70
8
 71
3
 72
8
 73
4
 74
0
 40
0
 40
0
 40
0
 40
0
 40
1
 40
1
 40
1
 40
1
 10
39.892841
 20
-69.303230
 30
0.0
 10
38.562995
 20
-69.538069
 30
0.0
 10
36.300935
 20
-69.536133
 30
0.0
 10
35.122326
 20
-69.298987
 30
0.0
  0
SPLINE
  5
22c
100
AcDbEntity
  8
Layer_1
 62
7
100
AcDbSpline
 70
8
 71
3
 72
8
 73
4
 74
0
 40
0
 40
0
 40
0
 40
0
 40
1
 40
1
 40
1
 40
1
 10
35.122326
 20
-69.298987
 30
0.0
 10
30.874041
 20
-68.444685
 30
0.0
 10
27.445547
 20
-65.631311
 30
0.0
 10
25.876704
 20
-61.712414
 30
0.0
  0
SPLINE
  5
22d
100
AcDbEntity
  8
Layer_1
 62
7
100
AcDbSpline
 70
8
 71
3
 72
8
 73
4
 74
0
 40
0
 40
0
 40
0
 40
0
 40
1
 40
1
 40
1
 40
1
 10
25.876704
 20
-61.712414
 30
0.0
 10
25.043423
 20
-59.630916
 30
0.0
 10
24.728291
 20
-56.382619
 30
0.0
 10
25.100346
 20
-53.707659
 30
0.0
  0
SPLINE
  5
22e
100
AcDbEntity
  8
Layer_1
 62
7
100
AcDbSpline
 70
8
 71
3
 72
8
 73
4
 74
0
 40
0
 40
0
 40
0
 40
0
 40
1
 40
1
 40
1
 40
1
 10
25.100346
 20
-53.707659
 30
0.0
 10
25.610254
 20
-50.041547
 30
0.0
 10
27.631297
 20
-46.179843
 30
0.0
 10
30.471838
 20
-43.443702
 30
0.0
  0
SPLINE
  5
22f
100
AcDbEntity
  8
Layer_1
 62
7
100
AcDbSpline
 70
8
 71
3
 72
8
 73
4
 74
0
 40
0
 40
0
 40
0
 40
0
 40
1
 40
1
 40
1
 40
1
 10
30.471838
 20
-43.443702
 30
0.0
 10
33.318664
 20
-40.701500
 30
0.0
 10
36.235813
 20
-39.234756
 30
0.0
 10
39.783222
 20
-38.761699
 30
0.0
  0
SPLINE
  5
230
100
AcDbEntity
  8
Layer_1
 62
7
100
AcDbSpline
 70
8
 71
3
 72
8
 73
4
 74
0
 40
0
 40
0
 40
0
 40
0
 40
1
 40
1
 40
1
 40
1
 10
39.783222
 20
-38.761699
 30
0.0
 10
40.243541
 20
-38.700317
 30
0.0
 10
40.704799
 20
-38.665704
 30
0.0
 10
41.164397
 20
-38.657012
 30
0.0
  0
SPLINE
  5
231
100
AcDbEntity
  8
Layer_1
 62
7
100
AcDbSpline
 70
8
 71
3
 72
8
 73
4
 74
0
 40
0
 40
0
 40
0
 40
0
 40
1
 40
1
 40
1
 40
1
 10
41.164397
 20
-38.657012
 30
0.0
 10
41.303230
 20
-38.654361
 30
0.0
 10
41.441888
 20
-38.654361
 30
0.0
 10
41.580388
 20
-38.655952
 30
0.0
  0
LWPOLYLINE
  5
232
100
AcDbEntity
  8
Layer_1
 62
7
100
AcDbPolyline
 90
1
 70
1
 10
72.612045
 20
-38.087143
 30
0.0
  0
SPLINE
  5
233
100
AcDbEntity
  8
Layer_1
 62
7
100
AcDbSpline
 70
8
 71
3
 72
8
 73
4
 74
0
 40
0
 40
0
 40
0
 40
0
 40
1
 40
1
 40
1
 40
1
 10
94.581693
 20
-46.528995
 30
0.0
 10
94.856067
 20
-46.535411
 30
0.0
 10
95.176513
 20
-46.645820
 30
0.0
 10
95.565230
 20
-46.848805
 30
0.0
  0
SPLINE
  5
234
100
AcDbEntity
  8
Layer_1
 62
7
100
AcDbSpline
 70
8
 71
3
 72
8
 73
4
 74
0
 40
0
 40
0
 40
0
 40
0
 40
1
 40
1
 40
1
 40
1
 10
95.565230
 20
-46.848805
 30
0.0
 10
99.841896
 20
-49.082017
 30
0.0
 10
103.103440
 20
-53.710364
 30
0.0
 10
103.811145
 20
-58.550381
 30
0.0
  0
SPLINE
  5
235
100
AcDbEntity
  8
Layer_1
 62
7
100
AcDbSpline
 70
8
 71
3
 72
8
 73
4
 74
0
 40
0
 40
0
 40
0
 40
0
 40
1
 40
1
 40
1
 40
1
 10
103.811145
 20
-58.550381
 30
0.0
 10
104.044707
 20
-60.147723
 30
0.0
 10
103.904961
 20
-63.339192
 30
0.0
 10
103.540394
 20
-64.731392
 30
0.0
  0
SPLINE
  5
236
100
AcDbEntity
  8
Layer_1
 62
7
100
AcDbSpline
 70
8
 71
3
 72
8
 73
4
 74
0
 40
0
 40
0
 40
0
 40
0
 40
1
 40
1
 40
1
 40
1
 10
103.540394
 20
-64.731392
 30
0.0
 10
102.746907
 20
-67.761538
 30
0.0
 10
101.126052
 20
-70.600430
 30
0.0
 10
99.194640
 20
-72.343176
 30
0.0
  0
SPLINE
  5
237
100
AcDbEntity
  8
Layer_1
 62
7
100
AcDbSpline
 70
8
 71
3
 72
8
 73
4
 74
0
 40
0
 40
0
 40
0
 40
0
 40
1
 40
1
 40
1
 40
1
 10
99.194640
 20
-72.343176
 30
0.0
 10
98.873923
 20
-72.632562
 30
0.0
 10
98.497727
 20
-72.869332
 30
0.0
 10
98.358814
 20
-72.869332
 30
0.0
  0
SPLINE
  5
238
100
AcDbEntity
  8
Layer_1
 62
7
100
AcDbSpline
 70
8
 71
3
 72
8
 73
4
 74
0
 40
0
 40
0
 40
0
 40
0
 40
1
 40
1
 40
1
 40
1
 10
98.358814
 20
-72.869332
 30
0.0
 10
98.219895
 20
-72.869332
 30
0.0
 10
97.843577
 20
-72.676084
 30
0.0
 10
97.522436
 20
-72.439908
 30
0.0
  0
SPLINE
  5
239
100
AcDbEntity
  8
Layer_1
 62
7
100
AcDbSpline
 70
8
 71
3
 72
8
 73
4
 74
0
 40
0
 40
0
 40
0
 40
0
 40
1
 40
1
 40
1
 40
1
 10
97.522436
 20
-72.439908
 30
0.0
 10
96.115425
 20
-71.405181
 30
0.0
 10
94.412277
 20
-67.428375
 30
0.0
 10
93.571577
 20
-63.215117
 30
0.0
  0
SPLINE
  5
23a
100
AcDbEntity
  8
Layer_1
 62
7
100
AcDbSpline
 70
8
 71
3
 72
8
 73
4
 74
0
 40
0
 40
0
 40
0
 40
0
 40
1
 40
1
 40
1
 40
1
 10
93.571577
 20
-63.215117
 30
0.0
 10
92.215794
 20
-56.420461
 30
0.0
 10
92.093580
 20
-51.339294
 30
0.0
 10
93.209020
 20
-48.126108
 30
0.0
  0
SPLINE
  5
23b
100
AcDbEntity
  8
Layer_1
 62
7
100
AcDbSpline
 70
8
 71
3
 72
8
 73
4
 74
0
 40
0
 40
0
 40
0
 40
0
 40
1
 40
1
 40
1
 40
1
 10
93.209020
 20
-48.126108
 30
0.0
 10
93.598156
 20
-47.005143
 30
0.0
 10
93.978081
 20
-46.514878
 30
0.0
 10
94.581693
 20
-46.528995
 30
0.0
  0
LWPOLYLINE
  5
23c
100
AcDbEntity
  8
Layer_1
 62
7
100
AcDbPolyline
 90
2
 70
0
 10
41.580388
 20
-38.655952
 30
0.0
 10
41.580388
 20
-38.656328
 30
0.0
  0
SPLINE
  5
23d
100
AcDbEntity
  8
Layer_1
 62
7
100
AcDbSpline
 70
8
 71
3
 72
8
 73
4
 74
0
 40
0
 40
0
 40
0
 40
0
 40
1
 40
1
 40
1
 40
1
 10
17.947582
 20
-47.333035
 30
0.0
 10
18.523973
 20
-47.333035
 30
0.0
 10
18.716951
 20
-47.467164
 30
0.0
 10
19.367394
 20
-48.320130
 30
0.0
  0
SPLINE
  5
23e
100
AcDbEntity
  8
Layer_1
 62
7
100
AcDbSpline
 70
8
 71
3
 72
8
 73
4
 74
0
 40
0
 40
0
 40
0
 40
0
 40
1
 40
1
 40
1
 40
1
 10
19.367394
 20
-48.320130
 30
0.0
 10
20.134466
 20
-49.326041
 30
0.0
 10
20.434109
 20
-50.728581
 30
0.0
 10
20.595098
 20
-54.067883
 30
0.0
  0
SPLINE
  5
23f
100
AcDbEntity
  8
Layer_1
 62
7
100
AcDbSpline
 70
8
 71
3
 72
8
 73
4
 74
0
 40
0
 40
0
 40
0
 40
0
 40
1
 40
1
 40
1
 40
1
 10
20.595098
 20
-54.067883
 30
0.0
 10
20.776690
 20
-57.834456
 30
0.0
 10
20.532591
 20
-60.305498
 30
0.0
 10
19.528532
 20
-64.871699
 30
0.0
  0
SPLINE
  5
240
100
AcDbEntity
  8
Layer_1
 62
7
100
AcDbSpline
 70
8
 71
3
 72
8
 73
4
 74
0
 40
0
 40
0
 40
0
 40
0
 40
1
 40
1
 40
1
 40
1
 10
19.528532
 20
-64.871699
 30
0.0
 10
19.258703
 20
-66.098810
 30
0.0
 10
18.069785
 20
-69.544814
 30
0.0
 10
17.652712
 20
-70.308689
 30
0.0
  0
SPLINE
  5
241
100
AcDbEntity
  8
Layer_1
 62
7
100
AcDbSpline
 70
8
 71
3
 72
8
 73
4
 74
0
 40
0
 40
0
 40
0
 40
0
 40
1
 40
1
 40
1
 40
1
 10
17.652712
 20
-70.308689
 30
0.0
 10
17.106696
 20
-71.308735
 30
0.0
 10
16.178724
 20
-72.508715
 30
0.0
 10
15.703726
 20
-72.828774
 30
0.0
  0
SPLINE
  5
242
100
AcDbEntity
  8
Layer_1
 62
7
100
AcDbSpline
 70
8
 71
3
 72
8
 73
4
 74
0
 40
0
 40
0
 40
0
 40
0
 40
1
 40
1
 40
1
 40
1
 10
15.703726
 20
-72.828774
 30
0.0
 10
15.169366
 20
-73.188839
 30
0.0
 10
14.530341
 20
-73.233433
 30
0.0
 10
14.005765
 20
-72.947435
 30
0.0
  0
SPLINE
  5
243
100
AcDbEntity
  8
Layer_1
 62
7
100
AcDbSpline
 70
8
 71
3
 72
8
 73
4
 74
0
 40
0
 40
0
 40
0
 40
0
 40
1
 40
1
 40
1
 40
1
 10
14.005765
 20
-72.947435
 30
0.0
 10
13.812841
 20
-72.842255
 30
0.0
 10
13.331495
 20
-72.355595
 30
0.0
 10
12.936181
 20
-71.865792
 30
0.0
  0
SPLINE
  5
244
100
AcDbEntity
  8
Layer_1
 62
7
100
AcDbSpline
 70
8
 71
3
 72
8
 73
4
 74
0
 40
0
 40
0
 40
0
 40
0
 40
1
 40
1
 40
1
 40
1
 10
12.936181
 20
-71.865792
 30
0.0
 10
8.341349
 20
-66.172734
 30
0.0
 10
7.891191
 20
-58.588287
 30
0.0
 10
11.795075
 20
-52.642593
 30
0.0
  0
SPLINE
  5
245
100
AcDbEntity
  8
Layer_1
 62
7
100
AcDbSpline
 70
8
 71
3
 72
8
 73
4
 74
0
 40
0
 40
0
 40
0
 40
0
 40
1
 40
1
 40
1
 40
1
 10
11.795075
 20
-52.642593
 30
0.0
 10
13.415379
 20
-50.174833
 30
0.0
 10
16.708369
 20
-47.333035
 30
0.0
 10
17.947582
 20
-47.333035
 30
0.0
  0
LWPOLYLINE
  5
246
100
AcDbEntity
  8
Layer_1
 62
7
100
AcDbPolyline
 90
1
 70
1
 10
94.581693
 20
-46.528995
 30
0.0
  0
SPLINE
  5
247
100
AcDbEntity
  8
Layer_1
 62
7
100
AcDbSpline
 70
8
 71
3
 72
8
 73
4
 74
0
 40
0
 40
0
 40
0
 40
0
 40
1
 40
1
 40
1
 40
1
 10
56.919874
 20
-67.000458
 30
0.0
 10
57.074161
 20
-66.997806
 30
0.0
 10
57.227758
 20
-66.997806
 30
0.0
 10
57.380808
 20
-67.000458
 30
0.0
  0
SPLINE
  5
248
100
AcDbEntity
  8
Layer_1
 62
7
100
AcDbSpline
 70
8
 71
3
 72
8
 73
4
 74
0
 40
0
 40
0
 40
0
 40
0
 40
1
 40
1
 40
1
 40
1
 10
57.380808
 20
-67.000458
 30
0.0
 10
57.538796
 20
-67.003109
 30
0.0
 10
57.696020
 20
-67.008889
 30
0.0
 10
57.852439
 20
-67.017427
 30
0.0
  0
SPLINE
  5
249
100
AcDbEntity
  8
Layer_1
 62
7
100
AcDbSpline
 70
8
 71
3
 72
8
 73
4
 74
0
 40
0
 40
0
 40
0
 40
0
 40
1
 40
1
 40
1
 40
1
 10
57.852439
 20
-67.017427
 30
0.0
 10
60.226038
 20
-67.147675
 30
0.0
 10
63.836484
 20
-68.228242
 30
0.0
 10
65.355696
 20
-69.262927
 30
0.0
  0
SPLINE
  5
24a
100
AcDbEntity
  8
Layer_1
 62
7
100
AcDbSpline
 70
8
 71
3
 72
8
 73
4
 74
0
 40
0
 40
0
 40
0
 40
0
 40
1
 40
1
 40
1
 40
1
 10
65.355696
 20
-69.262927
 30
0.0
 10
67.791527
 20
-70.921884
 30
0.0
 10
68.920345
 20
-72.050740
 30
0.0
 10
70.180202
 20
-74.087979
 30
0.0
  0
SPLINE
  5
24b
100
AcDbEntity
  8
Layer_1
 62
7
100
AcDbSpline
 70
8
 71
3
 72
8
 73
4
 74
0
 40
0
 40
0
 40
0
 40
0
 40
1
 40
1
 40
1
 40
1
 10
70.180202
 20
-74.087979
 30
0.0
 10
71.528333
 20
-76.267959
 30
0.0
 10
72.093833
 20
-78.293160
 30
0.0
 10
72.093833
 20
-80.940114
 30
0.0
  0
SPLINE
  5
24c
100
AcDbEntity
  8
Layer_1
 62
7
100
AcDbSpline
 70
8
 71
3
 72
8
 73
4
 74
0
 40
0
 40
0
 40
0
 40
0
 40
1
 40
1
 40
1
 40
1
 10
72.093833
 20
-80.940114
 30
0.0
 10
72.093833
 20
-84.802195
 30
0.0
 10
70.270258
 20
-88.613392
 30
0.0
 10
67.178072
 20
-91.214492
 30
0.0
  0
SPLINE
  5
24d
100
AcDbEntity
  8
Layer_1
 62
7
100
AcDbSpline
 70
8
 71
3
 72
8
 73
4
 74
0
 40
0
 40
0
 40
0
 40
0
 40
1
 40
1
 40
1
 40
1
 10
67.178072
 20
-91.214492
 30
0.0
 10
64.721539
 20
-93.280897
 30
0.0
 10
61.997748
 20
-94.427820
 30
0.0
 10
58.438609
 20
-94.894323
 30
0.0
  0
SPLINE
  5
24e
100
AcDbEntity
  8
Layer_1
 62
7
100
AcDbSpline
 70
8
 71
3
 72
8
 73
4
 74
0
 40
0
 40
0
 40
0
 40
0
 40
1
 40
1
 40
1
 40
1
 10
58.438609
 20
-94.894323
 30
0.0
 10
57.231475
 20
-95.052544
 30
0.0
 10
56.988283
 20
-95.051902
 30
0.0
 10
55.286313
 20
-94.887482
 30
0.0
  0
SPLINE
  5
24f
100
AcDbEntity
  8
Layer_1
 62
7
100
AcDbSpline
 70
8
 71
3
 72
8
 73
4
 74
0
 40
0
 40
0
 40
0
 40
0
 40
1
 40
1
 40
1
 40
1
 10
55.286313
 20
-94.887482
 30
0.0
 10
53.592000
 20
-94.723777
 30
0.0
 10
52.699530
 20
-94.513438
 30
0.0
 10
51.047433
 20
-93.888046
 30
0.0
  0
SPLINE
  5
250
100
AcDbEntity
  8
Layer_1
 62
7
100
AcDbSpline
 70
8
 71
3
 72
8
 73
4
 74
0
 40
0
 40
0
 40
0
 40
0
 40
1
 40
1
 40
1
 40
1
 10
51.047433
 20
-93.888046
 30
0.0
 10
48.742826
 20
-93.015645
 30
0.0
 10
47.046862
 20
-91.898031
 30
0.0
 10
45.471508
 20
-90.213969
 30
0.0
  0
SPLINE
  5
251
100
AcDbEntity
  8
Layer_1
 62
7
100
AcDbSpline
 70
8
 71
3
 72
8
 73
4
 74
0
 40
0
 40
0
 40
0
 40
0
 40
1
 40
1
 40
1
 40
1
 10
45.471508
 20
-90.213969
 30
0.0
 10
43.854756
 20
-88.485658
 30
0.0
 10
42.948204
 20
-86.884111
 30
0.0
 10
42.278102
 20
-84.571725
 30
0.0
  0
SPLINE
  5
252
100
AcDbEntity
  8
Layer_1
 62
7
100
AcDbSpline
 70
8
 71
3
 72
8
 73
4
 74
0
 40
0
 40
0
 40
0
 40
0
 40
1
 40
1
 40
1
 40
1
 10
42.278102
 20
-84.571725
 30
0.0
 10
41.811494
 20
-82.961561
 30
0.0
 10
41.726502
 20
-81.841974
 30
0.0
 10
41.917459
 20
-79.827236
 30
0.0
  0
SPLINE
  5
253
100
AcDbEntity
  8
Layer_1
 62
7
100
AcDbSpline
 70
8
 71
3
 72
8
 73
4
 74
0
 40
0
 40
0
 40
0
 40
0
 40
1
 40
1
 40
1
 40
1
 10
41.917459
 20
-79.827236
 30
0.0
 10
42.154812
 20
-77.323013
 30
0.0
 10
42.748804
 20
-75.779879
 30
0.0
 10
44.463034
 20
-73.214612
 30
0.0
  0
SPLINE
  5
254
100
AcDbEntity
  8
Layer_1
 62
7
100
AcDbSpline
 70
8
 71
3
 72
8
 73
4
 74
0
 40
0
 40
0
 40
0
 40
0
 40
1
 40
1
 40
1
 40
1
 10
44.463034
 20
-73.214612
 30
0.0
 10
46.815830
 20
-69.693755
 30
0.0
 10
52.136916
 20
-67.081536
 30
0.0
 10
56.919874
 20
-67.000442
 30
0.0
  0
LWPOLYLINE
  5
255
100
AcDbEntity
  8
Layer_1
 62
7
100
AcDbPolyline
 90
1
 70
1
 10
17.947582
 20
-47.333035
 30
0.0
  0
SPLINE
  5
256
100
AcDbEntity
  8
Layer_1
 62
7
100
AcDbSpline
 70
8
 71
3
 72
8
 73
4
 74
0
 40
0
 40
0
 40
0
 40
0
 40
1
 40
1
 40
1
 40
1
 10
91.376505
 20
-71.887168
 30
0.0
 10
92.074123
 20
-71.887168
 30
0.0
 10
93.689644
 20
-72.425044
 30
0.0
 10
94.230102
 20
-72.837270
 30
0.0
  0
SPLINE
  5
257
100
AcDbEntity
  8
Layer_1
 62
7
100
AcDbSpline
 70
8
 71
3
 72
8
 73
4
 74
0
 40
0
 40
0
 40
0
 40
0
 40
1
 40
1
 40
1
 40
1
 10
94.230102
 20
-72.837270
 30
0.0
 10
95.460808
 20
-73.775980
 30
0.0
 10
96.348742
 20
-75.769771
 30
0.0
 10
96.868848
 20
-78.762324
 30
0.0
  0
SPLINE
  5
258
100
AcDbEntity
  8
Layer_1
 62
7
100
AcDbSpline
 70
8
 71
3
 72
8
 73
4
 74
0
 40
0
 40
0
 40
0
 40
0
 40
1
 40
1
 40
1
 40
1
 10
96.868848
 20
-78.762324
 30
0.0
 10
97.149691
 20
-80.378227
 30
0.0
 10
97.072702
 20
-83.589922
 30
0.0
 10
96.714286
 20
-85.216563
 30
0.0
  0
SPLINE
  5
259
100
AcDbEntity
  8
Layer_1
 62
7
100
AcDbSpline
 70
8
 71
3
 72
8
 73
4
 74
0
 40
0
 40
0
 40
0
 40
0
 40
1
 40
1
 40
1
 40
1
 10
96.714286
 20
-85.216563
 30
0.0
 10
95.940600
 20
-88.727901
 30
0.0
 10
94.196619
 20
-91.916629
 30
0.0
 10
91.710558
 20
-94.365446
 30
0.0
  0
SPLINE
  5
25a
100
AcDbEntity
  8
Layer_1
 62
7
100
AcDbSpline
 70
8
 71
3
 72
8
 73
4
 74
0
 40
0
 40
0
 40
0
 40
0
 40
1
 40
1
 40
1
 40
1
 10
91.710558
 20
-94.365446
 30
0.0
 10
89.156486
 20
-96.881257
 30
0.0
 10
85.907436
 20
-98.585767
 30
0.0
 10
82.266264
 20
-99.320115
 30
0.0
  0
SPLINE
  5
25b
100
AcDbEntity
  8
Layer_1
 62
7
100
AcDbSpline
 70
8
 71
3
 72
8
 73
4
 74
0
 40
0
 40
0
 40
0
 40
0
 40
1
 40
1
 40
1
 40
1
 10
82.266264
 20
-99.320115
 30
0.0
 10
78.778111
 20
-100.023605
 30
0.0
 10
76.392273
 20
-99.552271
 30
0.0
 10
75.151316
 20
-97.914558
 30
0.0
  0
SPLINE
  5
25c
100
AcDbEntity
  8
Layer_1
 62
7
100
AcDbSpline
 70
8
 71
3
 72
8
 73
4
 74
0
 40
0
 40
0
 40
0
 40
0
 40
1
 40
1
 40
1
 40
1
 10
75.151316
 20
-97.914558
 30
0.0
 10
74.076731
 20
-96.496405
 30
0.0
 10
73.791508
 20
-95.440328
 30
0.0
 10
73.782206
 20
-92.847252
 30
0.0
  0
SPLINE
  5
25d
100
AcDbEntity
  8
Layer_1
 62
7
100
AcDbSpline
 70
8
 71
3
 72
8
 73
4
 74
0
 40
0
 40
0
 40
0
 40
0
 40
1
 40
1
 40
1
 40
1
 10
73.782206
 20
-92.847252
 30
0.0
 10
73.774411
 20
-90.683414
 30
0.0
 10
74.687073
 20
-87.307892
 30
0.0
 10
75.967691
 20
-84.764941
 30
0.0
  0
SPLINE
  5
25e
100
AcDbEntity
  8
Layer_1
 62
7
100
AcDbSpline
 70
8
 71
3
 72
8
 73
4
 74
0
 40
0
 40
0
 40
0
 40
0
 40
1
 40
1
 40
1
 40
1
 10
75.967691
 20
-84.764941
 30
0.0
 10
76.749294
 20
-83.212871
 30
0.0
 10
78.987401
 20
-79.906962
 30
0.0
 10
80.176144
 20
-78.548299
 30
0.0
  0
SPLINE
  5
25f
100
AcDbEntity
  8
Layer_1
 62
7
100
AcDbSpline
 70
8
 71
3
 72
8
 73
4
 74
0
 40
0
 40
0
 40
0
 40
0
 40
1
 40
1
 40
1
 40
1
 10
80.176144
 20
-78.548299
 30
0.0
 10
82.186576
 20
-76.250502
 30
0.0
 10
84.691324
 20
-74.189797
 30
0.0
 10
86.794527
 20
-73.103641
 30
0.0
  0
SPLINE
  5
260
100
AcDbEntity
  8
Layer_1
 62
7
100
AcDbSpline
 70
8
 71
3
 72
8
 73
4
 74
0
 40
0
 40
0
 40
0
 40
0
 40
1
 40
1
 40
1
 40
1
 10
86.794527
 20
-73.103641
 30
0.0
 10
88.089183
 20
-72.435040
 30
0.0
 10
90.153005
 20
-71.887168
 30
0.0
 10
91.376505
 20
-71.887168
 30
0.0
  0
LWPOLYLINE
  5
261
100
AcDbEntity
  8
Layer_1
 62
7
100
AcDbPolyline
 90
1
 70
1
 10
56.919874
 20
-67.000442
 30
0.0
  0
SPLINE
  5
262
100
AcDbEntity
  8
Layer_1
 62
7
100
AcDbSpline
 70
8
 71
3
 72
8
 73
4
 74
0
 40
0
 40
0
 40
0
 40
0
 40
1
 40
1
 40
1
 40
1
 10
22.607386
 20
-73.896168
 30
0.0
 10
23.588722
 20
-73.901789
 30
0.0
 10
24.752526
 20
-74.076758
 30
0.0
 10
25.721596
 20
-74.394923
 30
0.0
  0
SPLINE
  5
263
100
AcDbEntity
  8
Layer_1
 62
7
100
AcDbSpline
 70
8
 71
3
 72
8
 73
4
 74
0
 40
0
 40
0
 40
0
 40
0
 40
1
 40
1
 40
1
 40
1
 10
25.721596
 20
-74.394923
 30
0.0
 10
27.069128
 20
-74.837350
 30
0.0
 10
29.249808
 20
-76.021708
 30
0.0
 10
30.293710
 20
-76.878014
 30
0.0
  0
SPLINE
  5
264
100
AcDbEntity
  8
Layer_1
 62
7
100
AcDbSpline
 70
8
 71
3
 72
8
 73
4
 74
0
 40
0
 40
0
 40
0
 40
0
 40
1
 40
1
 40
1
 40
1
 10
30.293710
 20
-76.878014
 30
0.0
 10
30.710459
 20
-77.219874
 30
0.0
 10
31.095629
 20
-77.499540
 30
0.0
 10
31.149815
 20
-77.499540
 30
0.0
  0
SPLINE
  5
265
100
AcDbEntity
  8
Layer_1
 62
7
100
AcDbSpline
 70
8
 71
3
 72
8
 73
4
 74
0
 40
0
 40
0
 40
0
 40
0
 40
1
 40
1
 40
1
 40
1
 10
31.149815
 20
-77.499540
 30
0.0
 10
31.387608
 20
-77.499540
 30
0.0
 10
35.295920
 20
-81.892507
 30
0.0
 10
36.018166
 20
-82.971605
 30
0.0
  0
SPLINE
  5
266
100
AcDbEntity
  8
Layer_1
 62
7
100
AcDbSpline
 70
8
 71
3
 72
8
 73
4
 74
0
 40
0
 40
0
 40
0
 40
0
 40
1
 40
1
 40
1
 40
1
 10
36.018166
 20
-82.971605
 30
0.0
 10
36.457194
 20
-83.627552
 30
0.0
 10
37.297549
 20
-85.142898
 30
0.0
 10
37.885761
 20
-86.339034
 30
0.0
  0
SPLINE
  5
267
100
AcDbEntity
  8
Layer_1
 62
7
100
AcDbSpline
 70
8
 71
3
 72
8
 73
4
 74
0
 40
0
 40
0
 40
0
 40
0
 40
1
 40
1
 40
1
 40
1
 10
37.885761
 20
-86.339034
 30
0.0
 10
39.246360
 20
-89.105848
 30
0.0
 10
39.765691
 20
-91.133371
 30
0.0
 10
39.730060
 20
-93.540852
 30
0.0
  0
SPLINE
  5
268
100
AcDbEntity
  8
Layer_1
 62
7
100
AcDbSpline
 70
8
 71
3
 72
8
 73
4
 74
0
 40
0
 40
0
 40
0
 40
0
 40
1
 40
1
 40
1
 40
1
 10
39.730060
 20
-93.540852
 30
0.0
 10
39.698984
 20
-95.639255
 30
0.0
 10
39.425798
 20
-96.571390
 30
0.0
 10
38.511397
 20
-97.699159
 30
0.0
  0
SPLINE
  5
269
100
AcDbEntity
  8
Layer_1
 62
7
100
AcDbSpline
 70
8
 71
3
 72
8
 73
4
 74
0
 40
0
 40
0
 40
0
 40
0
 40
1
 40
1
 40
1
 40
1
 10
38.511397
 20
-97.699159
 30
0.0
 10
37.628421
 20
-98.788173
 30
0.0
 10
37.313357
 20
-99.026836
 30
0.0
 10
36.283440
 20
-99.387257
 30
0.0
  0
SPLINE
  5
26a
100
AcDbEntity
  8
Layer_1
 62
7
100
AcDbSpline
 70
8
 71
3
 72
8
 73
4
 74
0
 40
0
 40
0
 40
0
 40
0
 40
1
 40
1
 40
1
 40
1
 10
36.283440
 20
-99.387257
 30
0.0
 10
35.203239
 20
-99.765273
 30
0.0
 10
33.595058
 20
-99.742984
 30
0.0
 10
31.614588
 20
-99.322311
 30
0.0
  0
SPLINE
  5
26b
100
AcDbEntity
  8
Layer_1
 62
7
100
AcDbSpline
 70
8
 71
3
 72
8
 73
4
 74
0
 40
0
 40
0
 40
0
 40
0
 40
1
 40
1
 40
1
 40
1
 10
31.614588
 20
-99.322311
 30
0.0
 10
30.017841
 20
-98.983145
 30
0.0
 10
29.534501
 20
-98.828996
 30
0.0
 10
28.106857
 20
-98.204220
 30
0.0
  0
SPLINE
  5
26c
100
AcDbEntity
  8
Layer_1
 62
7
100
AcDbSpline
 70
8
 71
3
 72
8
 73
4
 74
0
 40
0
 40
0
 40
0
 40
0
 40
1
 40
1
 40
1
 40
1
 10
28.106857
 20
-98.204220
 30
0.0
 10
23.495665
 20
-96.186220
 30
0.0
 10
19.772768
 20
-92.152789
 30
0.0
 10
18.220253
 20
-87.492751
 30
0.0
  0
SPLINE
  5
26d
100
AcDbEntity
  8
Layer_1
 62
7
100
AcDbSpline
 70
8
 71
3
 72
8
 73
4
 74
0
 40
0
 40
0
 40
0
 40
0
 40
1
 40
1
 40
1
 40
1
 10
18.220253
 20
-87.492751
 30
0.0
 10
17.509567
 20
-85.359554
 30
0.0
 10
17.319618
 20
-84.113013
 30
0.0
 10
17.317285
 20
-81.568513
 30
0.0
  0
SPLINE
  5
26e
100
AcDbEntity
  8
Layer_1
 62
7
100
AcDbSpline
 70
8
 71
3
 72
8
 73
4
 74
0
 40
0
 40
0
 40
0
 40
0
 40
1
 40
1
 40
1
 40
1
 10
17.317285
 20
-81.568513
 30
0.0
 10
17.314633
 20
-78.375320
 30
0.0
 10
17.717356
 20
-76.803374
 30
0.0
 10
18.864799
 20
-75.533293
 30
0.0
  0
SPLINE
  5
26f
100
AcDbEntity
  8
Layer_1
 62
7
100
AcDbSpline
 70
8
 71
3
 72
8
 73
4
 74
0
 40
0
 40
0
 40
0
 40
0
 40
1
 40
1
 40
1
 40
1
 10
18.864799
 20
-75.533293
 30
0.0
 10
19.525148
 20
-74.802366
 30
0.0
 10
20.159126
 20
-74.392383
 30
0.0
 10
21.119616
 20
-74.074843
 30
0.0
  0
SPLINE
  5
270
100
AcDbEntity
  8
Layer_1
 62
7
100
AcDbSpline
 70
8
 71
3
 72
8
 73
4
 74
0
 40
0
 40
0
 40
0
 40
0
 40
1
 40
1
 40
1
 40
1
 10
21.119616
 20
-74.074843
 30
0.0
 10
21.495547
 20
-73.950556
 30
0.0
 10
22.018585
 20
-73.892811
 30
0.0
 10
22.607386
 20
-73.896168
 30
0.0
  0
LWPOLYLINE
  5
271
100
AcDbEntity
  8
Layer_1
 62
7
100
AcDbPolyline
 90
1
 70
1
 10
91.376505
 20
-71.887168
 30
0.0
  0
SPLINE
  5
272
100
AcDbEntity
  8
Layer_1
 62
7
100
AcDbSpline
 70
8
 71
3
 72
8
 73
4
 74
0
 40
0
 40
0
 40
0
 40
0
 40
1
 40
1
 40
1
 40
1
 10
58.223216
 20
-99.007984
 30
0.0
 10
58.981804
 20
-99.007565
 30
0.0
 10
59.680600
 20
-99.034605
 30
0.0
 10
60.277981
 20
-99.092939
 30
0.0
  0
SPLINE
  5
273
100
AcDbEntity
  8
Layer_1
 62
7
100
AcDbSpline
 70
8
 71
3
 72
8
 73
4
 74
0
 40
0
 40
0
 40
0
 40
0
 40
1
 40
1
 40
1
 40
1
 10
60.277981
 20
-99.092939
 30
0.0
 10
64.464485
 20
-99.501866
 30
0.0
 10
65.840139
 20
-99.794652
 30
0.0
 10
68.438666
 20
-100.829814
 30
0.0
  0
SPLINE
  5
274
100
AcDbEntity
  8
Layer_1
 62
7
100
AcDbSpline
 70
8
 71
3
 72
8
 73
4
 74
0
 40
0
 40
0
 40
0
 40
0
 40
1
 40
1
 40
1
 40
1
 10
68.438666
 20
-100.829814
 30
0.0
 10
69.649167
 20
-101.312034
 30
0.0
 10
70.057358
 20
-101.556923
 30
0.0
 10
70.781449
 20
-102.234279
 30
0.0
  0
SPLINE
  5
275
100
AcDbEntity
  8
Layer_1
 62
7
100
AcDbSpline
 70
8
 71
3
 72
8
 73
4
 74
0
 40
0
 40
0
 40
0
 40
0
 40
1
 40
1
 40
1
 40
1
 10
70.781449
 20
-102.234279
 30
0.0
 10
71.535233
 20
-102.939402
 30
0.0
 10
71.672040
 20
-103.143860
 30
0.0
 10
71.754020
 20
-103.690533
 30
0.0
  0
SPLINE
  5
276
100
AcDbEntity
  8
Layer_1
 62
7
100
AcDbSpline
 70
8
 71
3
 72
8
 73
4
 74
0
 40
0
 40
0
 40
0
 40
0
 40
1
 40
1
 40
1
 40
1
 10
71.754020
 20
-103.690533
 30
0.0
 10
71.893866
 20
-104.623082
 30
0.0
 10
71.640561
 20
-105.259377
 30
0.0
 10
70.632917
 20
-106.507408
 30
0.0
  0
SPLINE
  5
277
100
AcDbEntity
  8
Layer_1
 62
7
100
AcDbSpline
 70
8
 71
3
 72
8
 73
4
 74
0
 40
0
 40
0
 40
0
 40
0
 40
1
 40
1
 40
1
 40
1
 10
70.632917
 20
-106.507408
 30
0.0
 10
68.018814
 20
-109.745146
 30
0.0
 10
64.379907
 20
-111.945495
 30
0.0
 10
60.237694
 20
-112.793105
 30
0.0
  0
SPLINE
  5
278
100
AcDbEntity
  8
Layer_1
 62
7
100
AcDbSpline
 70
8
 71
3
 72
8
 73
4
 74
0
 40
0
 40
0
 40
0
 40
0
 40
1
 40
1
 40
1
 40
1
 10
60.237694
 20
-112.793105
 30
0.0
 10
59.142920
 20
-113.017127
 30
0.0
 10
56.239602
 20
-113.169711
 30
0.0
 10
55.256711
 20
-113.054815
 30
0.0
  0
SPLINE
  5
279
100
AcDbEntity
  8
Layer_1
 62
7
100
AcDbSpline
 70
8
 71
3
 72
8
 73
4
 74
0
 40
0
 40
0
 40
0
 40
0
 40
1
 40
1
 40
1
 40
1
 10
55.256711
 20
-113.054815
 30
0.0
 10
51.018903
 20
-112.559417
 30
0.0
 10
47.050545
 20
-110.594039
 30
0.0
 10
44.142679
 20
-107.550413
 30
0.0
  0
SPLINE
  5
27a
100
AcDbEntity
  8
Layer_1
 62
7
100
AcDbSpline
 70
8
 71
3
 72
8
 73
4
 74
0
 40
0
 40
0
 40
0
 40
0
 40
1
 40
1
 40
1
 40
1
 10
44.142679
 20
-107.550413
 30
0.0
 10
42.483616
 20
-105.813893
 30
0.0
 10
42.161213
 20
-104.901459
 30
0.0
 10
42.773840
 20
-103.676560
 30
0.0
  0
SPLINE
  5
27b
100
AcDbEntity
  8
Layer_1
 62
7
100
AcDbSpline
 70
8
 71
3
 72
8
 73
4
 74
0
 40
0
 40
0
 40
0
 40
0
 40
1
 40
1
 40
1
 40
1
 10
42.773840
 20
-103.676560
 30
0.0
 10
43.377760
 20
-102.469065
 30
0.0
 10
45.434538
 20
-101.207989
 30
0.0
 10
48.395532
 20
-100.229659
 30
0.0
  0
SPLINE
  5
27c
100
AcDbEntity
  8
Layer_1
 62
7
100
AcDbSpline
 70
8
 71
3
 72
8
 73
4
 74
0
 40
0
 40
0
 40
0
 40
0
 40
1
 40
1
 40
1
 40
1
 10
48.395532
 20
-100.229659
 30
0.0
 10
50.527285
 20
-99.525321
 30
0.0
 10
54.935984
 20
-99.009612
 30
0.0
 10
58.223216
 20
-99.007984
 30
0.0
  0
LWPOLYLINE
  5
27d
100
AcDbEntity
  8
Layer_1
 62
7
100
AcDbPolyline
 90
1
 70
1
 10
22.607386
 20
-73.896168
 30
0.0
  0
LWPOLYLINE
  5
27e
100
AcDbEntity
  8
Layer_1
 62
7
100
AcDbPolyline
 90
1
 70
1
 10
58.223216
 20
-99.007984
 30
0.0
  0
ENDSEC
  0
SECTION
  2
OBJECTS
  0
DICTIONARY
  5
C
330
0
100
AcDbDictionary
  3
ACAD_GROUP
350
D
  3
ACAD_MLINESTYLE
350
17
  0
DICTIONARY
  5
D
330
C
100
AcDbDictionary
  0
DICTIONARY
  5
1A
330
C
100
AcDbDictionary
  0
DICTIONARY
  5
17
330
C
100
AcDbDictionary
  3
STANDARD
350
18
  0
DICTIONARY
  5
19
330
C
100
AcDbDictionary
  0
ENDSEC
  0
EOF
