  0
SECTION
  2
HEADER
  9
$ACADVER
  1
AC1027
  9
$ACADMAINTVER
 70
   125
  9
$DWGCODEPAGE
  3
ANSI_1252
  9
$REQUIREDVERSIONS
160
                 0
  9
$INSBASE
 10
0.0
 20
0.0
 30
0.0
  9
$EXTMIN
 10
1.000000000000000E+20
 20
1.000000000000000E+20
 30
1.000000000000000E+20
  9
$EXTMAX
 10
-1.000000000000000E+20
 20
-1.000000000000000E+20
 30
-1.000000000000000E+20
  9
$LIMMIN
 10
0.0
 20
0.0
  9
$LIMMAX
 10
12.0
 20
9.0
  9
$ORTHOMODE
 70
     0
  9
$REGENMODE
 70
     1
  9
$FILLMODE
 70
     1
  9
$QTEXTMODE
 70
     0
  9
$MIRRTEXT
 70
     0
  9
$LTSCALE
 40
1.0
  9
$ATTMODE
 70
     1
  9
$TEXTSIZE
 40
0.2
  9
$TRACEWID
 40
0.05
  9
$TEXTSTYLE
  7
Standard
  9
$CLAYER
  8
0
  9
$CELTYPE
  6
ByLayer
  9
$CECOLOR
 62
   256
  9
$CELTSCALE
 40
1.0
  9
$DISPSILH
 70
     0
  9
$DIMSCALE
 40
1.0
  9
$DIMASZ
 40
0.18
  9
$DIMEXO
 40
0.0625
  9
$DIMDLI
 40
0.38
  9
$DIMRND
 40
0.0
  9
$DIMDLE
 40
0.0
  9
$DIMEXE
 40
0.18
  9
$DIMTP
 40
0.0
  9
$DIMTM
 40
0.0
  9
$DIMTXT
 40
0.18
  9
$DIMCEN
 40
0.09
  9
$DIMTSZ
 40
0.0
  9
$DIMTOL
 70
     0
  9
$DIMLIM
 70
     0
  9
$DIMTIH
 70
     1
  9
$DIMTOH
 70
     1
  9
$DIMSE1
 70
     0
  9
$DIMSE2
 70
     0
  9
$DIMTAD
 70
     0
  9
$DIMZIN
 70
     0
  9
$DIMBLK
  1

  9
$DIMASO
 70
     1
  9
$DIMSHO
 70
     1
  9
$DIMPOST
  1

  9
$DIMAPOST
  1

  9
$DIMALT
 70
     0
  9
$DIMALTD
 70
     2
  9
$DIMALTF
 40
25.4
  9
$DIMLFAC
 40
1.0
  9
$DIMTOFL
 70
     0
  9
$DIMTVP
 40
0.0
  9
$DIMTIX
 70
     0
  9
$DIMSOXD
 70
     0
  9
$DIMSAH
 70
     0
  9
$DIMBLK1
  1

  9
$DIMBLK2
  1

  9
$DIMSTYLE
  2
Standard
  9
$DIMCLRD
 70
     0
  9
$DIMCLRE
 70
     0
  9
$DIMCLRT
 70
     0
  9
$DIMTFAC
 40
1.0
  9
$DIMGAP
 40
0.09
  9
$DIMJUST
 70
     0
  9
$DIMSD1
 70
     0
  9
$DIMSD2
 70
     0
  9
$DIMTOLJ
 70
     1
  9
$DIMTZIN
 70
     0
  9
$DIMALTZ
 70
     0
  9
$DIMALTTZ
 70
     0
  9
$DIMUPT
 70
     0
  9
$DIMDEC
 70
     4
  9
$DIMTDEC
 70
     4
  9
$DIMALTU
 70
     2
  9
$DIMALTTD
 70
     2
  9
$DIMTXSTY
  7
Standard
  9
$DIMAUNIT
 70
     0
  9
$DIMADEC
 70
     0
  9
$DIMALTRND
 40
0.0
  9
$DIMAZIN
 70
     0
  9
$DIMDSEP
 70
    46
  9
$DIMATFIT
 70
     3
  9
$DIMFRAC
 70
     0
  9
$DIMLDRBLK
  1

  9
$DIMLUNIT
 70
     2
  9
$DIMLWD
 70
    -2
  9
$DIMLWE
 70
    -2
  9
$DIMTMOVE
 70
     0
  9
$DIMFXL
 40
1.0
  9
$DIMFXLON
 70
     0
  9
$DIMJOGANG
 40
0.7853981633974483
  9
$DIMTFILL
 70
     0
  9
$DIMTFILLCLR
 70
     0
  9
$DIMARCSYM
 70
     0
  9
$DIMLTYPE
  6

  9
$DIMLTEX1
  6

  9
$DIMLTEX2
  6

  9
$DIMTXTDIRECTION
 70
     0
  9
$LUNITS
 70
     2
  9
$LUPREC
 70
     4
  9
$SKETCHINC
 40
0.1
  9
$FILLETRAD
 40
0.0
  9
$AUNITS
 70
     0
  9
$AUPREC
 70
     0
  9
$MENU
  1
.
  9
$ELEVATION
 40
0.0
  9
$PELEVATION
 40
0.0
  9
$THICKNESS
 40
0.0
  9
$LIMCHECK
 70
     0
  9
$CHAMFERA
 40
0.0
  9
$CHAMFERB
 40
0.0
  9
$CHAMFERC
 40
0.0
  9
$CHAMFERD
 40
0.0
  9
$SKPOLY
 70
     0
  9
$TDCREATE
 40
2458931.056134260
  9
$TDUCREATE
 40
2458931.056134260
  9
$TDUPDATE
 40
2458931.056134260
  9
$TDUUPDATE
 40
2458931.056134260
  9
$TDINDWG
 40
0.0000000000
  9
$TDUSRTIMER
 40
0.0000000000
  9
$USRTIMER
 70
     1
  9
$ANGBASE
 50
0.0
  9
$ANGDIR
 70
     0
  9
$PDMODE
 70
     0
  9
$PDSIZE
 40
0.0
  9
$PLINEWID
 40
0.0
  9
$SPLFRAME
 70
     0
  9
$SPLINETYPE
 70
     6
  9
$SPLINESEGS
 70
     8
  9
$HANDSEED
  5
19A
  9
$SURFTAB1
 70
     6
  9
$SURFTAB2
 70
     6
  9
$SURFTYPE
 70
     6
  9
$SURFU
 70
     6
  9
$SURFV
 70
     6
  9
$UCSBASE
  2

  9
$UCSNAME
  2

  9
$UCSORG
 10
0.0
 20
0.0
 30
0.0
  9
$UCSXDIR
 10
1.0
 20
0.0
 30
0.0
  9
$UCSYDIR
 10
0.0
 20
1.0
 30
0.0
  9
$UCSORTHOREF
  2

  9
$UCSORTHOVIEW
 70
     0
  9
$UCSORGTOP
 10
0.0
 20
0.0
 30
0.0
  9
$UCSORGBOTTOM
 10
0.0
 20
0.0
 30
0.0
  9
$UCSORGLEFT
 10
0.0
 20
0.0
 30
0.0
  9
$UCSORGRIGHT
 10
0.0
 20
0.0
 30
0.0
  9
$UCSORGFRONT
 10
0.0
 20
0.0
 30
0.0
  9
$UCSORGBACK
 10
0.0
 20
0.0
 30
0.0
  9
$PUCSBASE
  2

  9
$PUCSNAME
  2

  9
$PUCSORG
 10
0.0
 20
0.0
 30
0.0
  9
$PUCSXDIR
 10
1.0
 20
0.0
 30
0.0
  9
$PUCSYDIR
 10
0.0
 20
1.0
 30
0.0
  9
$PUCSORTHOREF
  2

  9
$PUCSORTHOVIEW
 70
     0
  9
$PUCSORGTOP
 10
0.0
 20
0.0
 30
0.0
  9
$PUCSORGBOTTOM
 10
0.0
 20
0.0
 30
0.0
  9
$PUCSORGLEFT
 10
0.0
 20
0.0
 30
0.0
  9
$PUCSORGRIGHT
 10
0.0
 20
0.0
 30
0.0
  9
$PUCSORGFRONT
 10
0.0
 20
0.0
 30
0.0
  9
$PUCSORGBACK
 10
0.0
 20
0.0
 30
0.0
  9
$USERI1
 70
     0
  9
$USERI2
 70
     0
  9
$USERI3
 70
     0
  9
$USERI4
 70
     0
  9
$USERI5
 70
     0
  9
$USERR1
 40
0.0
  9
$USERR2
 40
0.0
  9
$USERR3
 40
0.0
  9
$USERR4
 40
0.0
  9
$USERR5
 40
0.0
  9
$WORLDVIEW
 70
     1
  9
$SHADEDGE
 70
     3
  9
$SHADEDIF
 70
    70
  9
$TILEMODE
 70
     1
  9
$MAXACTVP
 70
    64
  9
$PINSBASE
 10
0.0
 20
0.0
 30
0.0
  9
$PLIMCHECK
 70
     0
  9
$PEXTMIN
 10
1.000000000000000E+20
 20
1.000000000000000E+20
 30
1.000000000000000E+20
  9
$PEXTMAX
 10
-1.000000000000000E+20
 20
-1.000000000000000E+20
 30
-1.000000000000000E+20
  9
$PLIMMIN
 10
0.0
 20
0.0
  9
$PLIMMAX
 10
12.0
 20
9.0
  9
$UNITMODE
 70
     0
  9
$VISRETAIN
 70
     1
  9
$PLINEGEN
 70
     0
  9
$PSLTSCALE
 70
     1
  9
$TREEDEPTH
 70
  3020
  9
$CMLSTYLE
  2
Standard
  9
$CMLJUST
 70
     0
  9
$CMLSCALE
 40
1.0
  9
$PROXYGRAPHICS
 70
     1
  9
$MEASUREMENT
 70
     0
  9
$CELWEIGHT
370
    -1
  9
$ENDCAPS
280
     0
  9
$JOINSTYLE
280
     0
  9
$LWDISPLAY
290
     0
  9
$INSUNITS
 70
     5
  9
$HYPERLINKBASE
  1

  9
$STYLESHEET
  1

  9
$XEDIT
290
     1
  9
$CEPSNTYPE
380
     0
  9
$PSTYLEMODE
290
     1
  9
$FINGERPRINTGUID
  2
{BC94C671-B1B5-354A-BD45-4D1C7896E2AF}
  9
$VERSIONGUID
  2
{0AB6DB63-7E80-094A-B621-18C8C3364899}
  9
$EXTNAMES
290
     1
  9
$PSVPSCALE
 40
0.0
  9
$OLESTARTUP
290
     0
  9
$SORTENTS
280
   127
  9
$INDEXCTL
280
     0
  9
$HIDETEXT
280
     1
  9
$XCLIPFRAME
280
     2
  9
$HALOGAP
280
     0
  9
$OBSCOLOR
 70
   257
  9
$OBSLTYPE
280
     0
  9
$INTERSECTIONDISPLAY
280
     0
  9
$INTERSECTIONCOLOR
 70
   257
  9
$DIMASSOC
280
     2
  9
$PROJECTNAME
  1

  9
$CAMERADISPLAY
290
     0
  9
$LENSLENGTH
 40
50.0
  9
$CAMERAHEIGHT
 40
0.0
  9
$STEPSPERSEC
 40
2.0
  9
$STEPSIZE
 40
6.0
  9
$3DDWFPREC
 40
2.0
  9
$PSOLWIDTH
 40
0.25
  9
$PSOLHEIGHT
 40
4.0
  9
$LOFTANG1
 40
1.570796326794896
  9
$LOFTANG2
 40
1.570796326794896
  9
$LOFTMAG1
 40
0.0
  9
$LOFTMAG2
 40
0.0
  9
$LOFTPARAM
 70
     7
  9
$LOFTNORMALS
280
     1
  9
$LATITUDE
 40
37.795
  9
$LONGITUDE
 40
-122.394
  9
$NORTHDIRECTION
 40
0.0
  9
$TIMEZONE
 70
 -8000
  9
$LIGHTGLYPHDISPLAY
280
     1
  9
$TILEMODELIGHTSYNCH
280
     1
  9
$CMATERIAL
347
11
  9
$SOLIDHIST
280
     0
  9
$SHOWHIST
280
     1
  9
$DWFFRAME
280
     2
  9
$DGNFRAME
280
     0
  9
$REALWORLDSCALE
290
     1
  9
$INTERFERECOLOR
 62
     1
  9
$INTERFEREOBJVS
345
33
  9
$INTERFEREVPVS
346
30
  9
$CSHADOW
280
     0
  9
$SHADOWPLANELOCATION
 40
0.0
  0
ENDSEC
  0
SECTION
  2
CLASSES
  0
CLASS
  1
ACDBDICTIONARYWDFLT
  2
AcDbDictionaryWithDefault
  3
ObjectDBX Classes
 90
        0
 91
        1
280
     0
281
     0
  0
CLASS
  1
MATERIAL
  2
AcDbMaterial
  3
ObjectDBX Classes
 90
     1153
 91
        3
280
     0
281
     0
  0
CLASS
  1
VISUALSTYLE
  2
AcDbVisualStyle
  3
ObjectDBX Classes
 90
     4095
 91
       24
280
     0
281
     0
  0
CLASS
  1
SCALE
  2
AcDbScale
  3
ObjectDBX Classes
 90
     1153
 91
       17
280
     0
281
     0
  0
CLASS
  1
TABLESTYLE
  2
AcDbTableStyle
  3
ObjectDBX Classes
 90
     4095
 91
        1
280
     0
281
     0
  0
CLASS
  1
MLEADERSTYLE
  2
AcDbMLeaderStyle
  3
ACDB_MLEADERSTYLE_CLASS
 90
     4095
 91
        1
280
     0
281
     0
  0
CLASS
  1
ACDBSECTIONVIEWSTYLE
  2
AcDbSectionViewStyle
  3
ObjectDBX Classes
 90
     1025
 91
        1
280
     0
281
     0
  0
CLASS
  1
ACDBDETAILVIEWSTYLE
  2
AcDbDetailViewStyle
  3
ObjectDBX Classes
 90
     1025
 91
        1
280
     0
281
     0
  0
CLASS
  1
DICTIONARYVAR
  2
AcDbDictionaryVar
  3
ObjectDBX Classes
 90
        0
 91
        5
280
     0
281
     0
  0
CLASS
  1
CELLSTYLEMAP
  2
AcDbCellStyleMap
  3
ObjectDBX Classes
 90
     1152
 91
        1
280
     0
281
     0
  0
ENDSEC
  0
SECTION
  2
TABLES
  0
TABLE
  2
VPORT
  5
8
330
0
100
AcDbSymbolTable
 70
     1
1001
ACAD
1000
DbSaveVer
1071
      205
  0
VPORT
  5
57
330
8
100
AcDbSymbolTableRecord
100
AcDbViewportTableRecord
  2
*Active
 70
     0
 10
0.0
 20
0.0
 11
1.0
 21
1.0
 12
500.0
 22
500.0
 13
0.0
 23
0.0
 14
1.0
 24
1.0
 15
0.0
 25
0.0
 16
0.0
 26
0.0
 36
1.0
 17
0.0
 27
0.0
 37
0.0
 40
12.0
 41
1.0
 42
50.0
 43
0.0
 44
0.0
 50
0.0
 51
0.0
 71
     0
 72
   100
 73
     1
 74
     0
 75
     1
 76
     0
 77
     0
 78
     0
281
     0
 65
     1
110
0.0
120
0.0
130
0.0
111
1.0
121
0.0
131
0.0
112
0.0
122
1.0
132
0.0
 79
     0
146
0.0
 60
     3
 61
     5
292
     1
282
     1
141
0.0
142
0.0
 63
   250
421
  3355443
  0
ENDTAB
  0
TABLE
  2
LTYPE
  5
5
330
0
100
AcDbSymbolTable
 70
     1
  0
LTYPE
  5
5B
330
5
100
AcDbSymbolTableRecord
100
AcDbLinetypeTableRecord
  2
ByBlock
 70
     0
  3

 72
    65
 73
     0
 40
0.0
  0
LTYPE
  5
5C
330
5
100
AcDbSymbolTableRecord
100
AcDbLinetypeTableRecord
  2
ByLayer
 70
     0
  3

 72
    65
 73
     0
 40
0.0
  0
LTYPE
  5
5D
330
5
100
AcDbSymbolTableRecord
100
AcDbLinetypeTableRecord
  2
Continuous
 70
     0
  3
Solid line
 72
    65
 73
     0
 40
0.0
  0
ENDTAB
  0
TABLE
  2
LAYER
  5
2
330
0
100
AcDbSymbolTable
 70
     2
  0
LAYER
  5
54
330
2
100
AcDbSymbolTableRecord
100
AcDbLayerTableRecord
  2
0
 70
     0
 62
     7
  6
Continuous
370
    -3
390
F
347
21
348
0
  0
LAYER
  5
7A
330
2
100
AcDbSymbolTableRecord
100
AcDbLayerTableRecord
  2
unifi-wifi-logo v1_unifi-seeklogo.com
 70
     0
 62
     7
  6
Continuous
370
    -3
390
F
347
21
348
0
1001
NFusion_SketchTransform
1000
1.000000;0.000000;0.000000;0.000000;0.000000;1.000000;0.000000;0.000000;0.000000;0.000000;1.000000;0.000000;0.000000;0.000000;0.000000;1.000000
  0
ENDTAB
  0
TABLE
  2
STYLE
  5
3
330
0
100
AcDbSymbolTable
 70
     2
  0
STYLE
  5
55
330
3
100
AcDbSymbolTableRecord
100
AcDbTextStyleTableRecord
  2
Standard
 70
     0
 40
0.0
 41
1.0
 50
0.0
 71
     0
 42
0.2
  3
txt
  4

  0
STYLE
  5
5A
330
3
100
AcDbSymbolTableRecord
100
AcDbTextStyleTableRecord
  2
Annotative
 70
     0
 40
0.0
 41
1.0
 50
0.0
 71
     0
 42
0.2
  3
txt
  4

1001
AcadAnnotative
1000
AnnotativeData
1002
{
1070
     1
1070
     1
1002
}
  0
ENDTAB
  0
TABLE
  2
VIEW
  5
6
330
0
100
AcDbSymbolTable
 70
     0
  0
ENDTAB
  0
TABLE
  2
UCS
  5
7
330
0
100
AcDbSymbolTable
 70
     0
  0
ENDTAB
  0
TABLE
  2
APPID
  5
9
330
0
100
AcDbSymbolTable
 70
     4
  0
APPID
  5
56
330
9
100
AcDbSymbolTableRecord
100
AcDbRegAppTableRecord
  2
ACAD
 70
     0
  0
APPID
  5
5E
330
9
100
AcDbSymbolTableRecord
100
AcDbRegAppTableRecord
  2
AcadAnnotative
 70
     0
  0
APPID
  5
78
330
9
100
AcDbSymbolTableRecord
100
AcDbRegAppTableRecord
  2
EDIT_IN_FUSION_ACAD_ADDIN
 70
     0
  0
APPID
  5
79
330
9
100
AcDbSymbolTableRecord
100
AcDbRegAppTableRecord
  2
NFusion_SketchTransform
 70
     0
  0
ENDTAB
  0
TABLE
  2
DIMSTYLE
  5
A
330
0
100
AcDbSymbolTable
 70
     2
100
AcDbDimStyleTable
 71
     0
  0
DIMSTYLE
105
58
330
A
100
AcDbSymbolTableRecord
100
AcDbDimStyleTableRecord
  2
Standard
 70
     0
340
55
  0
DIMSTYLE
105
59
330
A
100
AcDbSymbolTableRecord
100
AcDbDimStyleTableRecord
  2
Annotative
 70
     0
340
55
1001
AcadAnnotative
1000
AnnotativeData
1002
{
1070
     1
1070
     1
1002
}
  0
ENDTAB
  0
TABLE
  2
BLOCK_RECORD
  5
1
330
0
100
AcDbSymbolTable
 70
     1
  0
BLOCK_RECORD
  5
70
330
1
100
AcDbSymbolTableRecord
100
AcDbBlockTableRecord
  2
*Model_Space
340
73
 70
     0
280
     1
281
     0
  0
BLOCK_RECORD
  5
6C
330
1
100
AcDbSymbolTableRecord
100
AcDbBlockTableRecord
  2
*Paper_Space
340
6F
 70
     0
280
     1
281
     0
  0
BLOCK_RECORD
  5
74
330
1
100
AcDbSymbolTableRecord
100
AcDbBlockTableRecord
  2
*Paper_Space0
340
77
 70
     0
280
     1
281
     0
  0
ENDTAB
  0
ENDSEC
  0
SECTION
  2
BLOCKS
  0
BLOCK
  5
71
330
70
100
AcDbEntity
  8
0
100
AcDbBlockBegin
  2
*Model_Space
 70
     0
 10
0.0
 20
0.0
 30
0.0
  3
*Model_Space
  1

  0
ENDBLK
  5
72
330
70
100
AcDbEntity
  8
0
100
AcDbBlockEnd
  0
BLOCK
  5
6D
330
6C
100
AcDbEntity
 67
     1
  8
0
100
AcDbBlockBegin
  2
*Paper_Space
 70
     0
 10
0.0
 20
0.0
 30
0.0
  3
*Paper_Space
  1

  0
ENDBLK
  5
6E
330
6C
100
AcDbEntity
 67
     1
  8
0
100
AcDbBlockEnd
  0
BLOCK
  5
75
330
74
100
AcDbEntity
 67
     1
  8
0
100
AcDbBlockBegin
  2
*Paper_Space0
 70
     0
 10
0.0
 20
0.0
 30
0.0
  3
*Paper_Space0
  1

  0
ENDBLK
  5
76
330
74
100
AcDbEntity
 67
     1
  8
0
100
AcDbBlockEnd
  0
ENDSEC
  0
SECTION
  2
ENTITIES
  0
POINT
  5
7B
330
70
100
AcDbEntity
  8
unifi-wifi-logo v1_unifi-seeklogo.com
100
AcDbPoint
 10
0.0
 20
0.0
 30
0.0
  0
LINE
  5
7C
330
70
100
AcDbEntity
  8
unifi-wifi-logo v1_unifi-seeklogo.com
100
AcDbLine
 10
145.3164091
 20
103.297307
 30
0.0
 11
146.08125
 21
103.740825
 31
0.0
  0
LINE
  5
7D
330
70
100
AcDbEntity
  8
unifi-wifi-logo v1_unifi-seeklogo.com
100
AcDbLine
 10
143.8663239
 20
102.3672923
 30
0.0
 11
144.5783623
 21
102.8392376
 31
0.0
  0
LINE
  5
7E
330
70
100
AcDbEntity
  8
unifi-wifi-logo v1_unifi-seeklogo.com
100
AcDbLine
 10
132.2554062
 20
86.86757660000001
 30
0.0
 11
132.8032773
 21
88.29416150000001
 31
0.0
  0
LINE
  5
7F
330
70
100
AcDbEntity
  8
unifi-wifi-logo v1_unifi-seeklogo.com
100
AcDbLine
 10
140.66875
 20
99.82306560000001
 30
0.0
 11
141.2625353
 21
100.3542596
 31
0.0
  0
LINE
  5
80
330
70
100
AcDbEntity
  8
unifi-wifi-logo v1_unifi-seeklogo.com
100
AcDbLine
 10
143.1795078
 20
101.8821465
 30
0.0
 11
143.8663239
 21
102.3672923
 31
0.0
  0
LINE
  5
81
330
70
100
AcDbEntity
  8
unifi-wifi-logo v1_unifi-seeklogo.com
100
AcDbLine
 10
157.9239194
 20
96.6886586
 30
0.0
 11
157.2540254
 21
96.57413130000001
 31
0.0
  0
LINE
  5
82
330
70
100
AcDbEntity
  8
unifi-wifi-logo v1_unifi-seeklogo.com
100
AcDbLine
 10
156.6018362
 20
96.44382810000003
 30
0.0
 11
155.9670349
 21
96.29810779999999
 31
0.0
  0
LINE
  5
83
330
70
100
AcDbEntity
  8
unifi-wifi-logo v1_unifi-seeklogo.com
100
AcDbLine
 10
157.2540254
 20
96.57413130000001
 30
0.0
 11
156.6018362
 21
96.44382810000003
 31
0.0
  0
LINE
  5
84
330
70
100
AcDbEntity
  8
unifi-wifi-logo v1_unifi-seeklogo.com
100
AcDbLine
 10
154.7483281
 20
95.96185000000001
 30
0.0
 11
154.1637887
 21
95.77202970000001
 31
0.0
  0
LINE
  5
85
330
70
100
AcDbEntity
  8
unifi-wifi-logo v1_unifi-seeklogo.com
100
AcDbLine
 10
142.5171283
 20
101.3844755
 30
0.0
 11
143.1795078
 21
101.8821465
 31
0.0
  0
LINE
  5
86
330
70
100
AcDbEntity
  8
unifi-wifi-logo v1_unifi-seeklogo.com
100
AcDbLine
 10
141.2625353
 20
100.3542596
 30
0.0
 11
141.8783994
 21
100.8749547
 31
0.0
  0
LINE
  5
87
330
70
100
AcDbEntity
  8
unifi-wifi-logo v1_unifi-seeklogo.com
100
AcDbLine
 10
143.7573437
 20
87.1698922
 30
0.0
 11
143.115
 21
86.17323750000002
 31
0.0
  0
LINE
  5
88
330
70
100
AcDbEntity
  8
unifi-wifi-logo v1_unifi-seeklogo.com
100
AcDbLine
 10
99.8728269
 20
100.6403815
 30
0.0
 11
99.49703750000001
 21
99.5703125
 31
0.0
  0
LINE
  5
89
330
70
100
AcDbEntity
  8
unifi-wifi-logo v1_unifi-seeklogo.com
100
AcDbLine
 10
151.4765535
 20
94.62035779999999
 30
0.0
 11
150.9839801
 21
94.35201949999999
 31
0.0
  0
LINE
  5
8A
330
70
100
AcDbEntity
  8
unifi-wifi-logo v1_unifi-seeklogo.com
100
AcDbLine
 10
148.5443969
 20
104.9773168
 30
0.0
 11
149.4242734
 21
105.3558754
 31
0.0
  0
LINE
  5
8B
330
70
100
AcDbEntity
  8
unifi-wifi-logo v1_unifi-seeklogo.com
100
AcDbLine
 10
142.5574062
 20
85.1906641
 30
0.0
 11
142.2970898
 21
84.67588539999999
 31
0.0
  0
LINE
  5
8C
330
70
100
AcDbEntity
  8
unifi-wifi-logo v1_unifi-seeklogo.com
100
AcDbLine
 10
157.256
 20
84.13010000000001
 30
0.0
 11
160.043
 21
96.93400000000002
 31
0.0
  0
LINE
  5
8D
330
70
100
AcDbEntity
  8
unifi-wifi-logo v1_unifi-seeklogo.com
100
AcDbLine
 10
147.1526094
 20
91.44760000000001
 30
0.0
 11
146.4343518
 21
90.69832660000001
 31
0.0
  0
LINE
  5
8E
330
70
100
AcDbEntity
  8
unifi-wifi-logo v1_unifi-seeklogo.com
100
AcDbLine
 10
146.4343518
 20
90.69832660000001
 30
0.0
 11
145.7590215
 21
89.91750619999999
 31
0.0
  0
LINE
  5
8F
330
70
100
AcDbEntity
  8
unifi-wifi-logo v1_unifi-seeklogo.com
100
AcDbLine
 10
98.19315920000001
 20
95.3783018
 30
0.0
 11
97.652493
 21
93.34762090000001
 31
0.0
  0
LINE
  5
90
330
70
100
AcDbEntity
  8
unifi-wifi-logo v1_unifi-seeklogo.com
100
AcDbLine
 10
150.505625
 20
94.07185
 30
0.0
 11
150.0411713
 21
93.78020779999999
 31
0.0
  0
LINE
  5
91
330
70
100
AcDbEntity
  8
unifi-wifi-logo v1_unifi-seeklogo.com
100
AcDbLine
 10
118.317
 20
84.05510000000001
 30
0.0
 11
131.347
 21
84.05510000000001
 31
0.0
  0
LINE
  5
92
330
70
100
AcDbEntity
  8
unifi-wifi-logo v1_unifi-seeklogo.com
100
AcDbLine
 10
153.0427531
 20
95.35079919999999
 30
0.0
 11
152.505623
 21
95.12010619999999
 31
0.0
  0
LINE
  5
93
330
70
100
AcDbEntity
  8
unifi-wifi-logo v1_unifi-seeklogo.com
100
AcDbLine
 10
152.505623
 20
95.12010619999999
 30
0.0
 11
151.9836621
 21
94.8765062
 31
0.0
  0
LINE
  5
94
330
70
100
AcDbEntity
  8
unifi-wifi-logo v1_unifi-seeklogo.com
100
AcDbLine
 10
153.5953694
 20
95.56822659999999
 30
0.0
 11
153.0427531
 21
95.35079919999999
 31
0.0
  0
LINE
  5
95
330
70
100
AcDbEntity
  8
unifi-wifi-logo v1_unifi-seeklogo.com
100
AcDbLine
 10
150.3348737
 20
105.7165056
 30
0.0
 11
151.2769834
 21
106.058532
 31
0.0
  0
LINE
  5
96
330
70
100
AcDbEntity
  8
unifi-wifi-logo v1_unifi-seeklogo.com
100
AcDbLine
 10
151.9836621
 20
94.8765062
 30
0.0
 11
151.4765535
 21
94.62035779999999
 31
0.0
  0
LINE
  5
97
330
70
100
AcDbEntity
  8
unifi-wifi-logo v1_unifi-seeklogo.com
100
AcDbLine
 10
98.49042180000001
 20
96.41129820000001
 30
0.0
 11
98.19315920000001
 21
95.3783018
 31
0.0
  0
LINE
  5
98
330
70
100
AcDbEntity
  8
unifi-wifi-logo v1_unifi-seeklogo.com
100
AcDbLine
 10
157.256
 20
84.13010000000001
 30
0.0
 11
157.256
 21
84.13010000000001
 31
0.0
  0
LINE
  5
99
330
70
100
AcDbEntity
  8
unifi-wifi-logo v1_unifi-seeklogo.com
100
AcDbLine
 10
99.49703750000001
 20
99.5703125
 30
0.0
 11
99.14176850000002
 21
98.50818680000001
 31
0.0
  0
LINE
  5
9A
330
70
100
AcDbEntity
  8
unifi-wifi-logo v1_unifi-seeklogo.com
100
AcDbLine
 10
146.873671
 20
104.1691162
 30
0.0
 11
147.694458
 21
104.5815053
 31
0.0
  0
LINE
  5
9B
330
70
100
AcDbEntity
  8
unifi-wifi-logo v1_unifi-seeklogo.com
100
AcDbLine
 10
149.4242734
 20
105.3558754
 30
0.0
 11
150.3348737
 21
105.7165056
 31
0.0
  0
LINE
  5
9C
330
70
100
AcDbEntity
  8
unifi-wifi-logo v1_unifi-seeklogo.com
100
AcDbLine
 10
147.9163298
 20
92.16245779999999
 30
0.0
 11
147.1526094
 21
91.44760000000001
 31
0.0
  0
LINE
  5
9D
330
70
100
AcDbEntity
  8
unifi-wifi-logo v1_unifi-seeklogo.com
100
AcDbLine
 10
97.652493
 20
93.34762090000001
 30
0.0
 11
97.17968910000001
 21
91.3699109
 31
0.0
  0
LINE
  5
9E
330
70
100
AcDbEntity
  8
unifi-wifi-logo v1_unifi-seeklogo.com
100
AcDbLine
 10
148.316031
 20
92.5060844
 30
0.0
 11
147.9163298
 21
92.16245779999999
 31
0.0
  0
LINE
  5
9F
330
70
100
AcDbEntity
  8
unifi-wifi-logo v1_unifi-seeklogo.com
100
AcDbLine
 10
145.7590215
 20
89.91750619999999
 30
0.0
 11
145.1240828
 21
89.1080078
 31
0.0
  0
LINE
  5
A0
330
70
100
AcDbEntity
  8
unifi-wifi-logo v1_unifi-seeklogo.com
100
AcDbLine
 10
150.0411713
 20
93.78020779999999
 30
0.0
 11
149.590302
 21
93.4774516
 31
0.0
  0
LINE
  5
A1
330
70
100
AcDbEntity
  8
unifi-wifi-logo v1_unifi-seeklogo.com
100
AcDbLine
 10
142.042
 20
84.13010000000001
 30
0.0
 11
157.256
 21
84.13010000000001
 31
0.0
  0
LINE
  5
A2
330
70
100
AcDbEntity
  8
unifi-wifi-logo v1_unifi-seeklogo.com
100
AcDbLine
 10
155.9670349
 20
96.29810779999999
 30
0.0
 11
155.3493045
 21
96.13732890000001
 31
0.0
  0
LINE
  5
A3
330
70
100
AcDbEntity
  8
unifi-wifi-logo v1_unifi-seeklogo.com
100
AcDbLine
 10
96.1210529
 20
85.82526650000001
 30
0.0
 11
95.87229999999999
 21
84.13010000000001
 31
0.0
  0
LINE
  5
A4
330
70
100
AcDbEntity
  8
unifi-wifi-logo v1_unifi-seeklogo.com
100
AcDbLine
 10
144.5783623
 20
102.8392376
 30
0.0
 11
145.3164091
 21
103.297307
 31
0.0
  0
LINE
  5
A5
330
70
100
AcDbEntity
  8
unifi-wifi-logo v1_unifi-seeklogo.com
100
AcDbLine
 10
159.3180898
 20
96.8689516
 30
0.0
 11
158.6118352
 21
96.78705160000001
 31
0.0
  0
LINE
  5
A6
330
70
100
AcDbEntity
  8
unifi-wifi-logo v1_unifi-seeklogo.com
100
AcDbLine
 10
141.8783994
 20
100.8749547
 30
0.0
 11
142.5171283
 21
101.3844755
 31
0.0
  0
LINE
  5
A7
330
70
100
AcDbEntity
  8
unifi-wifi-logo v1_unifi-seeklogo.com
100
AcDbLine
 10
147.694458
 20
104.5815053
 30
0.0
 11
148.5443969
 21
104.9773168
 31
0.0
  0
LINE
  5
A8
330
70
100
AcDbEntity
  8
unifi-wifi-logo v1_unifi-seeklogo.com
100
AcDbLine
 10
145.1240828
 20
89.1080078
 30
0.0
 11
144.527
 21
88.2727
 31
0.0
  0
LINE
  5
A9
330
70
100
AcDbEntity
  8
unifi-wifi-logo v1_unifi-seeklogo.com
100
AcDbLine
 10
96.7700076
 20
89.4522379
 30
0.0
 11
96.41870880000002
 21
87.6016678
 31
0.0
  0
LINE
  5
AA
330
70
100
AcDbEntity
  8
unifi-wifi-logo v1_unifi-seeklogo.com
100
AcDbLine
 10
100.6883369
 20
102.8008162
 30
0.0
 11
100.2697292
 21
101.7175104
 31
0.0
  0
LINE
  5
AB
330
70
100
AcDbEntity
  8
unifi-wifi-logo v1_unifi-seeklogo.com
100
AcDbLine
 10
158.6118352
 20
96.78705160000001
 30
0.0
 11
157.9239194
 21
96.6886586
 31
0.0
  0
LINE
  5
AC
330
70
100
AcDbEntity
  8
unifi-wifi-logo v1_unifi-seeklogo.com
100
AcDbLine
 10
152.2513885
 20
106.3812792
 30
0.0
 11
153.258875
 21
106.6840719
 31
0.0
  0
LINE
  5
AD
330
70
100
AcDbEntity
  8
unifi-wifi-logo v1_unifi-seeklogo.com
100
AcDbLine
 10
148.7280488
 20
92.84003130000002
 30
0.0
 11
148.316031
 21
92.5060844
 31
0.0
  0
LINE
  5
AE
330
70
100
AcDbEntity
  8
unifi-wifi-logo v1_unifi-seeklogo.com
100
AcDbLine
 10
100.2697292
 20
101.7175104
 30
0.0
 11
99.8728269
 21
100.6403815
 31
0.0
  0
LINE
  5
AF
330
70
100
AcDbEntity
  8
unifi-wifi-logo v1_unifi-seeklogo.com
100
AcDbLine
 10
154.1637887
 20
95.77202970000001
 30
0.0
 11
153.5953694
 21
95.56822659999999
 31
0.0
  0
LINE
  5
B0
330
70
100
AcDbEntity
  8
unifi-wifi-logo v1_unifi-seeklogo.com
100
AcDbLine
 10
95.87229999999999
 20
84.13010000000001
 30
0.0
 11
108.525
 21
84.05510000000001
 31
0.0
  0
LINE
  5
B1
330
70
100
AcDbEntity
  8
unifi-wifi-logo v1_unifi-seeklogo.com
100
AcDbLine
 10
99.14176850000002
 20
98.50818680000001
 30
0.0
 11
98.80642740000002
 21
97.4548876
 31
0.0
  0
LINE
  5
B2
330
70
100
AcDbEntity
  8
unifi-wifi-logo v1_unifi-seeklogo.com
100
AcDbLine
 10
143.115
 20
86.17323750000002
 30
0.0
 11
142.8282695
 21
85.6859451
 31
0.0
  0
LINE
  5
B3
330
70
100
AcDbEntity
  8
unifi-wifi-logo v1_unifi-seeklogo.com
100
AcDbLine
 10
108.525
 20
84.05510000000001
 30
0.0
 11
108.525
 21
84.05510000000001
 31
0.0
  0
LINE
  5
B4
330
70
100
AcDbEntity
  8
unifi-wifi-logo v1_unifi-seeklogo.com
100
AcDbLine
 10
155.3493045
 20
96.13732890000001
 30
0.0
 11
154.7483281
 21
95.96185000000001
 31
0.0
  0
LINE
  5
B5
330
70
100
AcDbEntity
  8
unifi-wifi-logo v1_unifi-seeklogo.com
100
AcDbLine
 10
142.2970898
 20
84.67588539999999
 30
0.0
 11
142.042
 21
84.13010000000001
 31
0.0
  0
LINE
  5
B6
330
70
100
AcDbEntity
  8
unifi-wifi-logo v1_unifi-seeklogo.com
100
AcDbLine
 10
149.1527002
 20
93.1639398
 30
0.0
 11
148.7280488
 21
92.84003130000002
 31
0.0
  0
LINE
  5
B7
330
70
100
AcDbEntity
  8
unifi-wifi-logo v1_unifi-seeklogo.com
100
AcDbLine
 10
131.7711445
 20
85.4516064
 30
0.0
 11
132.2554062
 21
86.86757660000001
 31
0.0
  0
LINE
  5
B8
330
70
100
AcDbEntity
  8
unifi-wifi-logo v1_unifi-seeklogo.com
100
AcDbLine
 10
98.80642740000002
 20
97.4548876
 30
0.0
 11
98.49042180000001
 21
96.41129820000001
 31
0.0
  0
LINE
  5
B9
330
70
100
AcDbEntity
  8
unifi-wifi-logo v1_unifi-seeklogo.com
100
AcDbLine
 10
160.043
 20
96.93400000000002
 30
0.0
 11
159.3180898
 21
96.8689516
 31
0.0
  0
LINE
  5
BA
330
70
100
AcDbEntity
  8
unifi-wifi-logo v1_unifi-seeklogo.com
100
AcDbLine
 10
142.8282695
 20
85.6859451
 30
0.0
 11
142.5574062
 21
85.1906641
 31
0.0
  0
LINE
  5
BB
330
70
100
AcDbEntity
  8
unifi-wifi-logo v1_unifi-seeklogo.com
100
AcDbLine
 10
144.527
 20
88.2727
 30
0.0
 11
143.7573437
 21
87.1698922
 31
0.0
  0
LINE
  5
BC
330
70
100
AcDbEntity
  8
unifi-wifi-logo v1_unifi-seeklogo.com
100
AcDbLine
 10
149.590302
 20
93.4774516
 30
0.0
 11
149.1527002
 21
93.1639398
 31
0.0
  0
LINE
  5
BD
330
70
100
AcDbEntity
  8
unifi-wifi-logo v1_unifi-seeklogo.com
100
AcDbLine
 10
96.41870880000002
 20
87.6016678
 30
0.0
 11
96.1210529
 21
85.82526650000001
 31
0.0
  0
LINE
  5
BE
330
70
100
AcDbEntity
  8
unifi-wifi-logo v1_unifi-seeklogo.com
100
AcDbLine
 10
151.2769834
 20
106.058532
 30
0.0
 11
152.2513885
 21
106.3812792
 31
0.0
  0
LINE
  5
BF
330
70
100
AcDbEntity
  8
unifi-wifi-logo v1_unifi-seeklogo.com
100
AcDbLine
 10
150.9839801
 20
94.35201949999999
 30
0.0
 11
150.505625
 21
94.07185
 31
0.0
  0
LINE
  5
C0
330
70
100
AcDbEntity
  8
unifi-wifi-logo v1_unifi-seeklogo.com
100
AcDbLine
 10
157.3733088
 20
142.7643649
 30
0.0
 11
156.0577482
 21
142.6377308
 31
0.0
  0
LINE
  5
C1
330
70
100
AcDbEntity
  8
unifi-wifi-logo v1_unifi-seeklogo.com
100
AcDbLine
 10
135.2016357
 20
137.7032847
 30
0.0
 11
134.1957047
 21
137.2969343
 31
0.0
  0
LINE
  5
C2
330
70
100
AcDbEntity
  8
unifi-wifi-logo v1_unifi-seeklogo.com
100
AcDbLine
 10
101.1292424
 20
103.8894154
 30
0.0
 11
100.6883369
 21
102.8008162
 31
0.0
  0
LINE
  5
C3
330
70
100
AcDbEntity
  8
unifi-wifi-logo v1_unifi-seeklogo.com
100
AcDbLine
 10
118.7065945
 20
85.18713810000001
 30
0.0
 11
118.468
 21
84.13010000000001
 31
0.0
  0
LINE
  5
C4
330
70
100
AcDbEntity
  8
unifi-wifi-logo v1_unifi-seeklogo.com
100
AcDbLine
 10
127.8044788
 20
104.4863018
 30
0.0
 11
127.1106702
 21
103.5784689
 31
0.0
  0
LINE
  5
C5
330
70
100
AcDbEntity
  8
unifi-wifi-logo v1_unifi-seeklogo.com
100
AcDbLine
 10
108.375
 20
117.044
 30
0.0
 11
107.6203075
 21
115.9607716
 31
0.0
  0
LINE
  5
C6
330
70
100
AcDbEntity
  8
unifi-wifi-logo v1_unifi-seeklogo.com
100
AcDbLine
 10
134.4958763
 20
123.5978842
 30
0.0
 11
135.93225
 21
124.330875
 31
0.0
  0
LINE
  5
C7
330
70
100
AcDbEntity
  8
unifi-wifi-logo v1_unifi-seeklogo.com
100
AcDbLine
 10
116.5835758
 20
126.2921241
 30
0.0
 11
115.2439072
 21
125.0423853
 31
0.0
  0
LINE
  5
C8
330
70
100
AcDbEntity
  8
unifi-wifi-logo v1_unifi-seeklogo.com
100
AcDbLine
 10
134.1957047
 20
137.2969343
 30
0.0
 11
133.2054154
 21
136.8782758
 31
0.0
  0
LINE
  5
C9
330
70
100
AcDbEntity
  8
unifi-wifi-logo v1_unifi-seeklogo.com
100
AcDbLine
 10
118.9716777
 20
86.26690449999999
 30
0.0
 11
118.7065945
 21
85.18713810000001
 31
0.0
  0
LINE
  5
CA
330
70
100
AcDbEntity
  8
unifi-wifi-logo v1_unifi-seeklogo.com
100
AcDbLine
 10
119.434641
 20
128.7028007
 30
0.0
 11
118.700245
 21
128.1118351
 31
0.0
  0
LINE
  5
CB
330
70
100
AcDbEntity
  8
unifi-wifi-logo v1_unifi-seeklogo.com
100
AcDbLine
 10
117.2747779
 20
126.9062554
 30
0.0
 11
116.5835758
 21
126.2921241
 31
0.0
  0
LINE
  5
CC
330
70
100
AcDbEntity
  8
unifi-wifi-logo v1_unifi-seeklogo.com
100
AcDbLine
 10
145.7436958
 20
127.9806936
 30
0.0
 11
147.5908026
 21
128.4501501
 31
0.0
  0
LINE
  5
CD
330
70
100
AcDbEntity
  8
unifi-wifi-logo v1_unifi-seeklogo.com
100
AcDbLine
 10
130.4998164
 20
121.215502
 30
0.0
 11
131.7810522
 21
122.0386806
 31
0.0
  0
LINE
  5
CE
330
70
100
AcDbEntity
  8
unifi-wifi-logo v1_unifi-seeklogo.com
100
AcDbLine
 10
151.4791496
 20
129.2563983
 30
0.0
 11
153.5231753
 21
129.590156
 31
0.0
  0
LINE
  5
CF
330
70
100
AcDbEntity
  8
unifi-wifi-logo v1_unifi-seeklogo.com
100
AcDbLine
 10
119.9434822
 20
89.6227327
 30
0.0
 11
119.5883594
 21
88.4866859
 31
0.0
  0
LINE
  5
D0
330
70
100
AcDbEntity
  8
unifi-wifi-logo v1_unifi-seeklogo.com
100
AcDbLine
 10
120.1835658
 20
129.2855616
 30
0.0
 11
119.434641
 21
128.7028007
 31
0.0
  0
LINE
  5
D1
330
70
100
AcDbEntity
  8
unifi-wifi-logo v1_unifi-seeklogo.com
100
AcDbLine
 10
144.969692
 20
140.766745
 30
0.0
 11
143.82004
 21
140.4820298
 31
0.0
  0
LINE
  5
D2
330
70
100
AcDbEntity
  8
unifi-wifi-logo v1_unifi-seeklogo.com
100
AcDbLine
 10
124.8602441
 20
100.2746908
 30
0.0
 11
124.1398435
 21
99.0769462
 31
0.0
  0
LINE
  5
D3
330
70
100
AcDbEntity
  8
unifi-wifi-logo v1_unifi-seeklogo.com
100
AcDbLine
 10
155.635626
 20
129.8756468
 30
0.0
 11
157.8178945
 21
130.1113535
 31
0.0
  0
LINE
  5
D4
330
70
100
AcDbEntity
  8
unifi-wifi-logo v1_unifi-seeklogo.com
100
AcDbLine
 10
139.3830859
 20
139.2007773
 30
0.0
 11
138.3139335
 21
138.8460732
 31
0.0
  0
LINE
  5
D5
330
70
100
AcDbEntity
  8
unifi-wifi-logo v1_unifi-seeklogo.com
100
AcDbLine
 10
135.6123246
 20
111.9602426
 30
0.0
 11
134.6038137
 21
111.2042979
 31
0.0
  0
LINE
  5
D6
330
70
100
AcDbEntity
  8
unifi-wifi-logo v1_unifi-seeklogo.com
100
AcDbLine
 10
120.3321426
 20
90.77357130000001
 30
0.0
 11
119.9434822
 21
89.6227327
 31
0.0
  0
LINE
  5
D7
330
70
100
AcDbEntity
  8
unifi-wifi-logo v1_unifi-seeklogo.com
100
AcDbLine
 10
164.2066846
 20
143.1356724
 30
0.0
 11
162.8057149
 21
143.0971305
 31
0.0
  0
LINE
  5
D8
330
70
100
AcDbEntity
  8
unifi-wifi-logo v1_unifi-seeklogo.com
100
AcDbLine
 10
106.8950225
 20
114.8722378
 30
0.0
 11
106.1985526
 21
113.7792818
 31
0.0
  0
LINE
  5
D9
330
70
100
AcDbEntity
  8
unifi-wifi-logo v1_unifi-seeklogo.com
100
AcDbLine
 10
118.700245
 20
128.1118351
 30
0.0
 11
117.9803125
 21
127.5129063
 31
0.0
  0
LINE
  5
DA
330
70
100
AcDbEntity
  8
unifi-wifi-logo v1_unifi-seeklogo.com
100
AcDbLine
 10
115.4562153
 20
104.79965
 30
0.0
 11
115.9241948
 21
105.6237384
 31
0.0
  0
LINE
  5
DB
330
70
100
AcDbEntity
  8
unifi-wifi-logo v1_unifi-seeklogo.com
100
AcDbLine
 10
123.7911294
 20
115.761926
 30
0.0
 11
124.7996922
 21
116.7245207
 31
0.0
  0
LINE
  5
DC
330
70
100
AcDbEntity
  8
unifi-wifi-logo v1_unifi-seeklogo.com
100
AcDbLine
 10
118.543
 20
109.663
 30
0.0
 11
119.329027
 21
110.7103976
 31
0.0
  0
LINE
  5
DD
330
70
100
AcDbEntity
  8
unifi-wifi-logo v1_unifi-seeklogo.com
100
AcDbLine
 10
109.0511914
 20
86.92852849999999
 30
0.0
 11
109.3741597
 21
88.43619060000001
 31
0.0
  0
LINE
  5
DE
330
70
100
AcDbEntity
  8
unifi-wifi-logo v1_unifi-seeklogo.com
100
AcDbLine
 10
113.7587495
 20
101.4721589
 30
0.0
 11
114.1576374
 21
102.3073235
 31
0.0
  0
LINE
  5
DF
330
70
100
AcDbEntity
  8
unifi-wifi-logo v1_unifi-seeklogo.com
100
AcDbLine
 10
118.468
 20
84.13010000000001
 30
0.0
 11
131.347
 21
84.05510000000001
 31
0.0
  0
LINE
  5
E0
330
70
100
AcDbEntity
  8
unifi-wifi-logo v1_unifi-seeklogo.com
100
AcDbLine
 10
131.7810522
 20
122.0386806
 30
0.0
 11
133.1126079
 21
122.8333137
 31
0.0
  0
LINE
  5
E1
330
70
100
AcDbEntity
  8
unifi-wifi-logo v1_unifi-seeklogo.com
100
AcDbLine
 10
132.2307023
 20
136.4475506
 30
0.0
 11
131.2715
 21
136.005
 31
0.0
  0
LINE
  5
E2
330
70
100
AcDbEntity
  8
unifi-wifi-logo v1_unifi-seeklogo.com
100
AcDbLine
 10
102.0803168
 20
106.0789615
 30
0.0
 11
101.5930382
 21
104.982425
 31
0.0
  0
LINE
  5
E3
330
70
100
AcDbEntity
  8
unifi-wifi-logo v1_unifi-seeklogo.com
100
AcDbLine
 10
149.7319174
 20
141.7559731
 30
0.0
 11
148.5166875
 21
141.5315938
 31
0.0
  0
LINE
  5
E4
330
70
100
AcDbEntity
  8
unifi-wifi-logo v1_unifi-seeklogo.com
100
AcDbLine
 10
128.0827339
 20
119.4895759
 30
0.0
 11
129.2675079
 21
120.3652947
 31
0.0
  0
LINE
  5
E5
330
70
100
AcDbEntity
  8
unifi-wifi-logo v1_unifi-seeklogo.com
100
AcDbLine
 10
105.5303053
 20
112.6827869
 30
0.0
 11
104.889688
 21
111.5836363
 31
0.0
  0
LINE
  5
E6
330
70
100
AcDbEntity
  8
unifi-wifi-logo v1_unifi-seeklogo.com
100
AcDbLine
 10
120.7561028
 20
91.9372176
 30
0.0
 11
120.3321426
 21
90.77357130000001
 31
0.0
  0
LINE
  5
E7
330
70
100
AcDbEntity
  8
unifi-wifi-logo v1_unifi-seeklogo.com
100
AcDbLine
 10
143.82004
 20
140.4820298
 30
0.0
 11
142.6866189
 21
140.182834
 31
0.0
  0
LINE
  5
E8
330
70
100
AcDbEntity
  8
unifi-wifi-logo v1_unifi-seeklogo.com
100
AcDbLine
 10
131.347
 20
84.05510000000001
 30
0.0
 11
131.7711445
 21
85.4516064
 31
0.0
  0
LINE
  5
E9
330
70
100
AcDbEntity
  8
unifi-wifi-logo v1_unifi-seeklogo.com
100
AcDbLine
 10
104.2761084
 20
110.4827133
 30
0.0
 11
103.688974
 21
109.380901
 31
0.0
  0
LINE
  5
EA
330
70
100
AcDbEntity
  8
unifi-wifi-logo v1_unifi-seeklogo.com
100
AcDbLine
 10
125.8502188
 20
117.6676719
 30
0.0
 11
126.9441017
 21
118.5898626
 31
0.0
  0
LINE
  5
EB
330
70
100
AcDbEntity
  8
unifi-wifi-logo v1_unifi-seeklogo.com
100
AcDbLine
 10
113.9607831
 20
123.7656208
 30
0.0
 11
112.7336797
 21
122.4637617
 31
0.0
  0
LINE
  5
EC
330
70
100
AcDbEntity
  8
unifi-wifi-logo v1_unifi-seeklogo.com
100
AcDbLine
 10
132.8032773
 20
88.29416150000001
 30
0.0
 11
133.1021577
 21
89.00866930000001
 31
0.0
  0
LINE
  5
ED
330
70
100
AcDbEntity
  8
unifi-wifi-logo v1_unifi-seeklogo.com
100
AcDbLine
 10
124.7996922
 20
116.7245207
 30
0.0
 11
125.8502188
 21
117.6676719
 31
0.0
  0
LINE
  5
EE
330
70
100
AcDbEntity
  8
unifi-wifi-logo v1_unifi-seeklogo.com
100
AcDbLine
 10
121.8943242
 20
113.7844746
 30
0.0
 11
122.8231376
 21
114.781405
 31
0.0
  0
LINE
  5
EF
330
70
100
AcDbEntity
  8
unifi-wifi-logo v1_unifi-seeklogo.com
100
AcDbLine
 10
122.2574043
 20
95.48516150000001
 30
0.0
 11
121.7169714
 21
94.2949969
 31
0.0
  0
LINE
  5
F0
330
70
100
AcDbEntity
  8
unifi-wifi-logo v1_unifi-seeklogo.com
100
AcDbLine
 10
141.5693632
 20
139.8693991
 30
0.0
 11
140.4682073
 21
139.5419664
 31
0.0
  0
LINE
  5
F1
330
70
100
AcDbEntity
  8
unifi-wifi-logo v1_unifi-seeklogo.com
100
AcDbLine
 10
160.0713735
 20
130.2957592
 30
0.0
 11
162.3974556
 21
130.4273469
 31
0.0
  0
LINE
  5
F2
330
70
100
AcDbEntity
  8
unifi-wifi-logo v1_unifi-seeklogo.com
100
AcDbLine
 10
102.5916706
 20
107.1781419
 30
0.0
 11
102.0803168
 21
106.0789615
 31
0.0
  0
LINE
  5
F3
330
70
100
AcDbEntity
  8
unifi-wifi-logo v1_unifi-seeklogo.com
100
AcDbLine
 10
104.889688
 20
111.5836363
 30
0.0
 11
104.2761084
 21
110.4827133
 31
0.0
  0
LINE
  5
F4
330
70
100
AcDbEntity
  8
unifi-wifi-logo v1_unifi-seeklogo.com
100
AcDbLine
 10
126.7058589
 20
133.6233149
 30
0.0
 11
125.8383466
 21
133.114881
 31
0.0
  0
LINE
  5
F5
330
70
100
AcDbEntity
  8
unifi-wifi-logo v1_unifi-seeklogo.com
100
AcDbLine
 10
131.2715
 20
136.005
 30
0.0
 11
130.327743
 21
135.5508654
 31
0.0
  0
LINE
  5
F6
330
70
100
AcDbEntity
  8
unifi-wifi-logo v1_unifi-seeklogo.com
100
AcDbLine
 10
113.0098633
 20
99.79938320000002
 30
0.0
 11
113.376273
 21
100.635949
 31
0.0
  0
LINE
  5
F7
330
70
100
AcDbEntity
  8
unifi-wifi-logo v1_unifi-seeklogo.com
100
AcDbLine
 10
137.2606847
 20
138.4780955
 30
0.0
 11
136.2232739
 21
138.0970855
 31
0.0
  0
LINE
  5
F8
330
70
100
AcDbEntity
  8
unifi-wifi-logo v1_unifi-seeklogo.com
100
AcDbLine
 10
147.5908026
 20
128.4501501
 30
0.0
 11
149.5021563
 21
128.8758906
 31
0.0
  0
LINE
  5
F9
330
70
100
AcDbEntity
  8
unifi-wifi-logo v1_unifi-seeklogo.com
100
AcDbLine
 10
137.4231218
 20
125.0307691
 30
0.0
 11
138.9698843
 21
125.6960496
 31
0.0
  0
LINE
  5
FA
330
70
100
AcDbEntity
  8
unifi-wifi-logo v1_unifi-seeklogo.com
100
AcDbLine
 10
113.376273
 20
100.635949
 30
0.0
 11
113.7587495
 21
101.4721589
 31
0.0
  0
LINE
  5
FB
330
70
100
AcDbEntity
  8
unifi-wifi-logo v1_unifi-seeklogo.com
100
AcDbLine
 10
169.984
 20
143.104
 30
0.0
 11
168.5135247
 21
143.1402768
 31
0.0
  0
LINE
  5
FC
330
70
100
AcDbEntity
  8
unifi-wifi-logo v1_unifi-seeklogo.com
100
AcDbLine
 10
122.8401858
 20
96.6801974
 30
0.0
 11
122.2574043
 21
95.48516150000001
 31
0.0
  0
LINE
  5
FD
330
70
100
AcDbEntity
  8
unifi-wifi-logo v1_unifi-seeklogo.com
100
AcDbLine
 10
117.9803125
 20
127.5129063
 30
0.0
 11
117.2747779
 21
126.9062554
 31
0.0
  0
LINE
  5
FE
330
70
100
AcDbEntity
  8
unifi-wifi-logo v1_unifi-seeklogo.com
100
AcDbLine
 10
133.41825
 20
89.72251250000001
 30
0.0
 11
133.7519907
 21
90.43458500000001
 31
0.0
  0
LINE
  5
FF
330
70
100
AcDbEntity
  8
unifi-wifi-logo v1_unifi-seeklogo.com
100
AcDbLine
 10
97.17968910000001
 20
91.3699109
 30
0.0
 11
96.7700076
 21
89.4522379
 31
0.0
  0
LINE
  5
100
330
70
100
AcDbEntity
  8
unifi-wifi-logo v1_unifi-seeklogo.com
100
AcDbLine
 10
127.5884893
 20
134.1213716
 30
0.0
 11
126.7058589
 21
133.6233149
 31
0.0
  0
LINE
  5
101
330
70
100
AcDbEntity
  8
unifi-wifi-logo v1_unifi-seeklogo.com
100
AcDbLine
 10
142.2366523
 20
126.9167012
 30
0.0
 11
143.9594433
 21
127.4690383
 31
0.0
  0
LINE
  5
102
330
70
100
AcDbEntity
  8
unifi-wifi-logo v1_unifi-seeklogo.com
100
AcDbLine
 10
123.325863
 20
131.5297308
 30
0.0
 11
122.5181681
 21
130.9822025
 31
0.0
  0
LINE
  5
103
330
70
100
AcDbEntity
  8
unifi-wifi-logo v1_unifi-seeklogo.com
100
AcDbLine
 10
153.5231753
 20
129.590156
 30
0.0
 11
155.635626
 21
129.8756468
 31
0.0
  0
LINE
  5
104
330
70
100
AcDbEntity
  8
unifi-wifi-logo v1_unifi-seeklogo.com
100
AcDbLine
 10
115.9241948
 20
105.6237384
 30
0.0
 11
116.4103086
 21
106.443334
 31
0.0
  0
LINE
  5
105
330
70
100
AcDbEntity
  8
unifi-wifi-logo v1_unifi-seeklogo.com
100
AcDbLine
 10
110.4454404
 20
119.7924839
 30
0.0
 11
109.3832572
 21
118.4269272
 31
0.0
  0
LINE
  5
106
330
70
100
AcDbEntity
  8
unifi-wifi-logo v1_unifi-seeklogo.com
100
AcDbLine
 10
109.3832572
 20
118.4269272
 30
0.0
 11
108.375
 21
117.044
 31
0.0
  0
LINE
  5
107
330
70
100
AcDbEntity
  8
unifi-wifi-logo v1_unifi-seeklogo.com
100
AcDbLine
 10
120.1486616
 20
111.7474539
 30
0.0
 11
121.0032964
 21
112.7726519
 31
0.0
  0
LINE
  5
108
330
70
100
AcDbEntity
  8
unifi-wifi-logo v1_unifi-seeklogo.com
100
AcDbLine
 10
134.6038137
 20
111.2042979
 30
0.0
 11
133.6309326
 21
110.4272843
 31
0.0
  0
LINE
  5
109
330
70
100
AcDbEntity
  8
unifi-wifi-logo v1_unifi-seeklogo.com
100
AcDbLine
 10
158.7058203
 20
142.8738633
 30
0.0
 11
157.3733088
 21
142.7643649
 31
0.0
  0
LINE
  5
10A
330
70
100
AcDbEntity
  8
unifi-wifi-logo v1_unifi-seeklogo.com
100
AcDbLine
 10
111.698
 20
96.46335
 30
0.0
 11
112.3238657
 21
98.12794170000001
 31
0.0
  0
LINE
  5
10B
330
70
100
AcDbEntity
  8
unifi-wifi-logo v1_unifi-seeklogo.com
100
AcDbLine
 10
111.5620734
 20
121.1387391
 30
0.0
 11
110.4454404
 21
119.7924839
 31
0.0
  0
LINE
  5
10C
330
70
100
AcDbEntity
  8
unifi-wifi-logo v1_unifi-seeklogo.com
100
AcDbLine
 10
149.5021563
 20
128.8758906
 30
0.0
 11
151.4791496
 21
129.2563983
 31
0.0
  0
LINE
  5
10D
330
70
100
AcDbEntity
  8
unifi-wifi-logo v1_unifi-seeklogo.com
100
AcDbLine
 10
119.265012
 20
87.3674152
 30
0.0
 11
118.9716777
 21
86.26690449999999
 31
0.0
  0
LINE
  5
10E
330
70
100
AcDbEntity
  8
unifi-wifi-logo v1_unifi-seeklogo.com
100
AcDbLine
 10
154.759073
 20
142.4942024
 30
0.0
 11
153.4772178
 21
142.334021
 31
0.0
  0
LINE
  5
10F
330
70
100
AcDbEntity
  8
unifi-wifi-logo v1_unifi-seeklogo.com
100
AcDbLine
 10
131.7913969
 20
108.814243
 30
0.0
 11
130.9244109
 21
107.9803115
 31
0.0
  0
LINE
  5
110
330
70
100
AcDbEntity
  8
unifi-wifi-logo v1_unifi-seeklogo.com
100
AcDbLine
 10
122.8231376
 20
114.781405
 30
0.0
 11
123.7911294
 21
115.761926
 31
0.0
  0
LINE
  5
111
330
70
100
AcDbEntity
  8
unifi-wifi-logo v1_unifi-seeklogo.com
100
AcDbLine
 10
150.9637054
 20
141.964665
 30
0.0
 11
149.7319174
 21
141.7559731
 31
0.0
  0
LINE
  5
112
330
70
100
AcDbEntity
  8
unifi-wifi-logo v1_unifi-seeklogo.com
100
AcDbLine
 10
156.0577482
 20
142.6377308
 30
0.0
 11
154.759073
 21
142.4942024
 31
0.0
  0
LINE
  5
113
330
70
100
AcDbEntity
  8
unifi-wifi-logo v1_unifi-seeklogo.com
100
AcDbLine
 10
121.7169714
 20
94.2949969
 30
0.0
 11
121.217125
 21
93.11168750000001
 31
0.0
  0
LINE
  5
114
330
70
100
AcDbEntity
  8
unifi-wifi-logo v1_unifi-seeklogo.com
100
AcDbLine
 10
160.0553482
 20
142.9659846
 30
0.0
 11
158.7058203
 21
142.8738633
 31
0.0
  0
LINE
  5
115
330
70
100
AcDbEntity
  8
unifi-wifi-logo v1_unifi-seeklogo.com
100
AcDbLine
 10
120.947085
 20
129.8598765
 30
0.0
 11
120.1835658
 21
129.2855616
 31
0.0
  0
LINE
  5
116
330
70
100
AcDbEntity
  8
unifi-wifi-logo v1_unifi-seeklogo.com
100
AcDbLine
 10
142.6866189
 20
140.182834
 30
0.0
 11
141.5693632
 21
139.8693991
 31
0.0
  0
LINE
  5
117
330
70
100
AcDbEntity
  8
unifi-wifi-logo v1_unifi-seeklogo.com
100
AcDbLine
 10
121.0032964
 20
112.7726519
 30
0.0
 11
121.8943242
 21
113.7844746
 31
0.0
  0
LINE
  5
118
330
70
100
AcDbEntity
  8
unifi-wifi-logo v1_unifi-seeklogo.com
100
AcDbLine
 10
103.1276922
 20
108.2790828
 30
0.0
 11
102.5916706
 21
107.1781419
 31
0.0
  0
LINE
  5
119
330
70
100
AcDbEntity
  8
unifi-wifi-logo v1_unifi-seeklogo.com
100
AcDbLine
 10
119.329027
 20
110.7103976
 30
0.0
 11
120.1486616
 21
111.7474539
 31
0.0
  0
LINE
  5
11A
330
70
100
AcDbEntity
  8
unifi-wifi-logo v1_unifi-seeklogo.com
100
AcDbLine
 10
136.6566309
 20
112.6940703
 30
0.0
 11
135.6123246
 21
111.9602426
 31
0.0
  0
LINE
  5
11B
330
70
100
AcDbEntity
  8
unifi-wifi-logo v1_unifi-seeklogo.com
100
AcDbLine
 10
138.3139335
 20
138.8460732
 30
0.0
 11
137.2606847
 21
138.4780955
 31
0.0
  0
LINE
  5
11C
330
70
100
AcDbEntity
  8
unifi-wifi-logo v1_unifi-seeklogo.com
100
AcDbLine
 10
133.1126079
 20
122.8333137
 30
0.0
 11
134.4958763
 21
123.5978842
 31
0.0
  0
LINE
  5
11D
330
70
100
AcDbEntity
  8
unifi-wifi-logo v1_unifi-seeklogo.com
100
AcDbLine
 10
133.2054154
 20
136.8782758
 30
0.0
 11
132.2307023
 21
136.4475506
 31
0.0
  0
LINE
  5
11E
330
70
100
AcDbEntity
  8
unifi-wifi-logo v1_unifi-seeklogo.com
100
AcDbLine
 10
128.5325914
 20
105.3814506
 30
0.0
 11
127.8044788
 21
104.4863018
 31
0.0
  0
LINE
  5
11F
330
70
100
AcDbEntity
  8
unifi-wifi-logo v1_unifi-seeklogo.com
100
AcDbLine
 10
110.1536255
 20
91.56583170000001
 30
0.0
 11
110.6156367
 21
93.1767793
 31
0.0
  0
LINE
  5
120
330
70
100
AcDbEntity
  8
unifi-wifi-logo v1_unifi-seeklogo.com
100
AcDbLine
 10
130.9244109
 20
107.9803115
 30
0.0
 11
130.0923918
 21
107.1295035
 31
0.0
  0
LINE
  5
121
330
70
100
AcDbEntity
  8
unifi-wifi-logo v1_unifi-seeklogo.com
100
AcDbLine
 10
140.5739302
 20
126.3251992
 30
0.0
 11
142.2366523
 21
126.9167012
 31
0.0
  0
LINE
  5
122
330
70
100
AcDbEntity
  8
unifi-wifi-logo v1_unifi-seeklogo.com
100
AcDbLine
 10
124.9858868
 20
132.5963115
 30
0.0
 11
124.1484141
 21
132.0678477
 31
0.0
  0
LINE
  5
123
330
70
100
AcDbEntity
  8
unifi-wifi-logo v1_unifi-seeklogo.com
100
AcDbLine
 10
136.2232739
 20
138.0970855
 30
0.0
 11
135.2016357
 21
137.7032847
 31
0.0
  0
LINE
  5
124
330
70
100
AcDbEntity
  8
unifi-wifi-logo v1_unifi-seeklogo.com
100
AcDbLine
 10
108.525
 20
84.05510000000001
 30
0.0
 11
108.7690571
 21
85.46632640000002
 31
0.0
  0
LINE
  5
125
330
70
100
AcDbEntity
  8
unifi-wifi-logo v1_unifi-seeklogo.com
100
AcDbLine
 10
103.688974
 20
109.380901
 30
0.0
 11
103.1276922
 21
108.2790828
 31
0.0
  0
LINE
  5
126
330
70
100
AcDbEntity
  8
unifi-wifi-logo v1_unifi-seeklogo.com
100
AcDbLine
 10
132.6935156
 20
109.63025
 30
0.0
 11
131.7913969
 21
108.814243
 31
0.0
  0
LINE
  5
127
330
70
100
AcDbEntity
  8
unifi-wifi-logo v1_unifi-seeklogo.com
100
AcDbLine
 10
135.93225
 20
124.330875
 30
0.0
 11
137.4231218
 21
125.0307691
 31
0.0
  0
LINE
  5
128
330
70
100
AcDbEntity
  8
unifi-wifi-logo v1_unifi-seeklogo.com
100
AcDbLine
 10
115.0060257
 20
103.9717585
 30
0.0
 11
115.4562153
 21
104.79965
 31
0.0
  0
LINE
  5
129
330
70
100
AcDbEntity
  8
unifi-wifi-logo v1_unifi-seeklogo.com
100
AcDbLine
 10
162.8057149
 20
143.0971305
 30
0.0
 11
161.4219579
 21
143.0404875
 31
0.0
  0
LINE
  5
12A
330
70
100
AcDbEntity
  8
unifi-wifi-logo v1_unifi-seeklogo.com
100
AcDbLine
 10
117.9809025
 20
108.8682699
 30
0.0
 11
118.543
 21
109.663
 31
0.0
  0
LINE
  5
12B
330
70
100
AcDbEntity
  8
unifi-wifi-logo v1_unifi-seeklogo.com
100
AcDbLine
 10
126.451
 20
102.659
 30
0.0
 11
125.6300422
 21
101.4693701
 31
0.0
  0
LINE
  5
12C
330
70
100
AcDbEntity
  8
unifi-wifi-logo v1_unifi-seeklogo.com
100
AcDbLine
 10
112.7336797
 20
122.4637617
 30
0.0
 11
111.5620734
 21
121.1387391
 31
0.0
  0
LINE
  5
12D
330
70
100
AcDbEntity
  8
unifi-wifi-logo v1_unifi-seeklogo.com
100
AcDbLine
 10
114.1576374
 20
102.3073235
 30
0.0
 11
114.5732813
 21
103.1407531
 31
0.0
  0
LINE
  5
12E
330
70
100
AcDbEntity
  8
unifi-wifi-logo v1_unifi-seeklogo.com
100
AcDbLine
 10
112.3238657
 20
98.12794170000001
 30
0.0
 11
113.0098633
 21
99.79938320000002
 31
0.0
  0
LINE
  5
12F
330
70
100
AcDbEntity
  8
unifi-wifi-logo v1_unifi-seeklogo.com
100
AcDbLine
 10
138.9698843
 20
125.6960496
 30
0.0
 11
140.5739302
 21
126.3251992
 31
0.0
  0
LINE
  5
130
330
70
100
AcDbEntity
  8
unifi-wifi-logo v1_unifi-seeklogo.com
100
AcDbLine
 10
110.6156367
 20
93.1767793
 30
0.0
 11
111.1295093
 21
94.811124
 31
0.0
  0
LINE
  5
131
330
70
100
AcDbEntity
  8
unifi-wifi-logo v1_unifi-seeklogo.com
100
AcDbLine
 10
124.1484141
 20
132.0678477
 30
0.0
 11
123.325863
 21
131.5297308
 31
0.0
  0
LINE
  5
132
330
70
100
AcDbEntity
  8
unifi-wifi-logo v1_unifi-seeklogo.com
100
AcDbLine
 10
106.1985526
 20
113.7792818
 30
0.0
 11
105.5303053
 21
112.6827869
 31
0.0
  0
LINE
  5
133
330
70
100
AcDbEntity
  8
unifi-wifi-logo v1_unifi-seeklogo.com
100
AcDbLine
 10
126.9441017
 20
118.5898626
 30
0.0
 11
128.0827339
 21
119.4895759
 31
0.0
  0
LINE
  5
134
330
70
100
AcDbEntity
  8
unifi-wifi-logo v1_unifi-seeklogo.com
100
AcDbLine
 10
116.9149014
 20
107.2577474
 30
0.0
 11
117.4383179
 21
108.0662892
 31
0.0
  0
LINE
  5
135
330
70
100
AcDbEntity
  8
unifi-wifi-logo v1_unifi-seeklogo.com
100
AcDbLine
 10
129.2675079
 20
120.3652947
 30
0.0
 11
130.4998164
 21
121.215502
 31
0.0
  0
LINE
  5
136
330
70
100
AcDbEntity
  8
unifi-wifi-logo v1_unifi-seeklogo.com
100
AcDbLine
 10
127.1106702
 20
103.5784689
 30
0.0
 11
126.451
 21
102.659
 31
0.0
  0
LINE
  5
137
330
70
100
AcDbEntity
  8
unifi-wifi-logo v1_unifi-seeklogo.com
100
AcDbLine
 10
167.273
 20
130.526
 30
0.0
 11
169.984
 21
143.104
 31
0.0
  0
LINE
  5
138
330
70
100
AcDbEntity
  8
unifi-wifi-logo v1_unifi-seeklogo.com
100
AcDbLine
 10
125.6300422
 20
101.4693701
 30
0.0
 11
124.8602441
 21
100.2746908
 31
0.0
  0
LINE
  5
139
330
70
100
AcDbEntity
  8
unifi-wifi-logo v1_unifi-seeklogo.com
100
AcDbLine
 10
109.3741597
 20
88.43619060000001
 30
0.0
 11
109.7407187
 21
89.9837969
 31
0.0
  0
LINE
  5
13A
330
70
100
AcDbEntity
  8
unifi-wifi-logo v1_unifi-seeklogo.com
100
AcDbLine
 10
109.7407187
 20
89.9837969
 30
0.0
 11
110.1536255
 21
91.56583170000001
 31
0.0
  0
LINE
  5
13B
330
70
100
AcDbEntity
  8
unifi-wifi-logo v1_unifi-seeklogo.com
100
AcDbLine
 10
164.7975335
 20
130.5045995
 30
0.0
 11
167.273
 21
130.526
 31
0.0
  0
LINE
  5
13C
330
70
100
AcDbEntity
  8
unifi-wifi-logo v1_unifi-seeklogo.com
100
AcDbLine
 10
111.1295093
 20
94.811124
 30
0.0
 11
111.698
 21
96.46335
 31
0.0
  0
LINE
  5
13D
330
70
100
AcDbEntity
  8
unifi-wifi-logo v1_unifi-seeklogo.com
100
AcDbLine
 10
108.7690571
 20
85.46632640000002
 30
0.0
 11
109.0511914
 21
86.92852849999999
 31
0.0
  0
LINE
  5
13E
330
70
100
AcDbEntity
  8
unifi-wifi-logo v1_unifi-seeklogo.com
100
AcDbLine
 10
143.9594433
 20
127.4690383
 30
0.0
 11
145.7436958
 21
127.9806936
 31
0.0
  0
LINE
  5
13F
330
70
100
AcDbEntity
  8
unifi-wifi-logo v1_unifi-seeklogo.com
100
AcDbLine
 10
117.4383179
 20
108.0662892
 30
0.0
 11
117.9809025
 21
108.8682699
 31
0.0
  0
LINE
  5
140
330
70
100
AcDbEntity
  8
unifi-wifi-logo v1_unifi-seeklogo.com
100
AcDbLine
 10
134.4741636
 20
91.84899339999999
 30
0.0
 11
134.8634687
 21
92.5491172
 31
0.0
  0
LINE
  5
141
330
70
100
AcDbEntity
  8
unifi-wifi-logo v1_unifi-seeklogo.com
100
AcDbLine
 10
133.1021577
 20
89.00866930000001
 30
0.0
 11
133.41825
 21
89.72251250000001
 31
0.0
  0
LINE
  5
142
330
70
100
AcDbEntity
  8
unifi-wifi-logo v1_unifi-seeklogo.com
100
AcDbLine
 10
107.6203075
 20
115.9607716
 30
0.0
 11
106.8950225
 21
114.8722378
 31
0.0
  0
LINE
  5
143
330
70
100
AcDbEntity
  8
unifi-wifi-logo v1_unifi-seeklogo.com
100
AcDbLine
 10
153.4772178
 20
142.334021
 30
0.0
 11
152.2121171
 21
142.1574281
 31
0.0
  0
LINE
  5
144
330
70
100
AcDbEntity
  8
unifi-wifi-logo v1_unifi-seeklogo.com
100
AcDbLine
 10
136.619
 20
95.2766
 30
0.0
 11
137.0644464
 21
95.86747100000001
 31
0.0
  0
LINE
  5
145
330
70
100
AcDbEntity
  8
unifi-wifi-logo v1_unifi-seeklogo.com
100
AcDbLine
 10
139.0120084
 20
98.17324400000002
 30
0.0
 11
139.5442725
 21
98.73188240000002
 31
0.0
  0
LINE
  5
146
330
70
100
AcDbEntity
  8
unifi-wifi-logo v1_unifi-seeklogo.com
100
AcDbLine
 10
136.1494976
 20
94.6078933
 30
0.0
 11
136.619
 21
95.2766
 31
0.0
  0
LINE
  5
147
330
70
100
AcDbEntity
  8
unifi-wifi-logo v1_unifi-seeklogo.com
100
AcDbLine
 10
155.1282415
 20
120.0584463
 30
0.0
 11
153.565399
 21
119.7443058
 31
0.0
  0
LINE
  5
148
330
70
100
AcDbEntity
  8
unifi-wifi-logo v1_unifi-seeklogo.com
100
AcDbLine
 10
147.3179503
 20
141.2917684
 30
0.0
 11
146.1356403
 21
141.0367383
 31
0.0
  0
LINE
  5
149
330
70
100
AcDbEntity
  8
unifi-wifi-logo v1_unifi-seeklogo.com
100
AcDbLine
 10
140.4682073
 20
139.5419664
 30
0.0
 11
139.3830859
 21
139.2007773
 31
0.0
  0
LINE
  5
14A
330
70
100
AcDbEntity
  8
unifi-wifi-logo v1_unifi-seeklogo.com
100
AcDbLine
 10
123.4670781
 20
97.87812029999999
 30
0.0
 11
122.8401858
 21
96.6801974
 31
0.0
  0
LINE
  5
14B
330
70
100
AcDbEntity
  8
unifi-wifi-logo v1_unifi-seeklogo.com
100
AcDbLine
 10
165.6249325
 20
143.1558716
 30
0.0
 11
164.2066846
 21
143.1356724
 31
0.0
  0
LINE
  5
14C
330
70
100
AcDbEntity
  8
unifi-wifi-logo v1_unifi-seeklogo.com
100
AcDbLine
 10
148.5166875
 20
141.5315938
 30
0.0
 11
147.3179503
 21
141.2917684
 31
0.0
  0
LINE
  5
14D
330
70
100
AcDbEntity
  8
unifi-wifi-logo v1_unifi-seeklogo.com
100
AcDbLine
 10
138.0035004
 20
97.03325050000001
 30
0.0
 11
138.4986797
 21
97.60680820000001
 31
0.0
  0
LINE
  5
14E
330
70
100
AcDbEntity
  8
unifi-wifi-logo v1_unifi-seeklogo.com
100
AcDbLine
 10
137.0644464
 20
95.86747100000001
 30
0.0
 11
137.5256846
 21
96.45324630000002
 31
0.0
  0
LINE
  5
14F
330
70
100
AcDbEntity
  8
unifi-wifi-logo v1_unifi-seeklogo.com
100
AcDbLine
 10
141.195125
 20
115.38725
 30
0.0
 11
140.0059797
 21
114.752371
 31
0.0
  0
LINE
  5
150
330
70
100
AcDbEntity
  8
unifi-wifi-logo v1_unifi-seeklogo.com
100
AcDbLine
 10
138.8532927
 20
114.0911826
 30
0.0
 11
137.7368983
 21
113.404733
 31
0.0
  0
LINE
  5
151
330
70
100
AcDbEntity
  8
unifi-wifi-logo v1_unifi-seeklogo.com
100
AcDbLine
 10
116.4103086
 20
106.443334
 30
0.0
 11
116.9149014
 21
107.2577474
 31
0.0
  0
LINE
  5
152
330
70
100
AcDbEntity
  8
unifi-wifi-logo v1_unifi-seeklogo.com
100
AcDbLine
 10
150.5538945
 20
119.006702
 30
0.0
 11
149.1049011
 21
118.585335
 31
0.0
  0
LINE
  5
153
330
70
100
AcDbEntity
  8
unifi-wifi-logo v1_unifi-seeklogo.com
100
AcDbLine
 10
158.3689355
 20
120.5721641
 30
0.0
 11
156.7293651
 21
120.3347484
 31
0.0
  0
LINE
  5
154
330
70
100
AcDbEntity
  8
unifi-wifi-logo v1_unifi-seeklogo.com
100
AcDbLine
 10
128.4863031
 20
134.6088098
 30
0.0
 11
127.5884893
 21
134.1213716
 31
0.0
  0
LINE
  5
155
330
70
100
AcDbEntity
  8
unifi-wifi-logo v1_unifi-seeklogo.com
100
AcDbLine
 10
124.1398435
 20
99.0769462
 30
0.0
 11
123.4670781
 21
97.87812029999999
 31
0.0
  0
LINE
  5
156
330
70
100
AcDbEntity
  8
unifi-wifi-logo v1_unifi-seeklogo.com
100
AcDbLine
 10
161.4219579
 20
143.0404875
 30
0.0
 11
160.0553482
 21
142.9659846
 31
0.0
  0
LINE
  5
157
330
70
100
AcDbEntity
  8
unifi-wifi-logo v1_unifi-seeklogo.com
100
AcDbLine
 10
119.5883594
 20
88.4866859
 30
0.0
 11
119.265012
 21
87.3674152
 31
0.0
  0
LINE
  5
158
330
70
100
AcDbEntity
  8
unifi-wifi-logo v1_unifi-seeklogo.com
100
AcDbLine
 10
134.8634687
 20
92.5491172
 30
0.0
 11
135.2721685
 21
93.24304580000001
 31
0.0
  0
LINE
  5
159
330
70
100
AcDbEntity
  8
unifi-wifi-logo v1_unifi-seeklogo.com
100
AcDbLine
 10
135.7006992
 20
93.92967320000002
 30
0.0
 11
136.1494976
 21
94.6078933
 31
0.0
  0
LINE
  5
15A
330
70
100
AcDbEntity
  8
unifi-wifi-logo v1_unifi-seeklogo.com
100
AcDbLine
 10
160.0425107
 20
108.0439591
 30
0.0
 11
161.3035712
 21
108.1881585
 31
0.0
  0
LINE
  5
15B
330
70
100
AcDbEntity
  8
unifi-wifi-logo v1_unifi-seeklogo.com
100
AcDbLine
 10
156.487681
 20
107.4659684
 30
0.0
 11
157.6353516
 21
107.6821887
 31
0.0
  0
LINE
  5
15C
330
70
100
AcDbEntity
  8
unifi-wifi-logo v1_unifi-seeklogo.com
100
AcDbLine
 10
149.1049011
 20
118.585335
 30
0.0
 11
147.693526
 21
118.1303219
 31
0.0
  0
LINE
  5
15D
330
70
100
AcDbEntity
  8
unifi-wifi-logo v1_unifi-seeklogo.com
100
AcDbLine
 10
143.6834534
 20
116.5738877
 30
0.0
 11
142.4208943
 21
115.9947716
 31
0.0
  0
LINE
  5
15E
330
70
100
AcDbEntity
  8
unifi-wifi-logo v1_unifi-seeklogo.com
100
AcDbLine
 10
147.693526
 20
118.1303219
 30
0.0
 11
146.3196035
 21
117.6427109
 31
0.0
  0
LINE
  5
15F
330
70
100
AcDbEntity
  8
unifi-wifi-logo v1_unifi-seeklogo.com
100
AcDbLine
 10
153.565399
 20
119.7443058
 30
0.0
 11
152.0406719
 21
119.393375
 31
0.0
  0
LINE
  5
160
330
70
100
AcDbEntity
  8
unifi-wifi-logo v1_unifi-seeklogo.com
100
AcDbLine
 10
146.3196035
 20
117.6427109
 30
0.0
 11
144.9829679
 21
117.1235502
 31
0.0
  0
LINE
  5
161
330
70
100
AcDbEntity
  8
unifi-wifi-logo v1_unifi-seeklogo.com
100
AcDbLine
 10
130.0923918
 20
107.1295035
 30
0.0
 11
129.2951738
 21
106.2628672
 31
0.0
  0
LINE
  5
162
330
70
100
AcDbEntity
  8
unifi-wifi-logo v1_unifi-seeklogo.com
100
AcDbLine
 10
122.5181681
 20
130.9822025
 30
0.0
 11
121.7252639
 21
130.4255039
 31
0.0
  0
LINE
  5
163
330
70
100
AcDbEntity
  8
unifi-wifi-logo v1_unifi-seeklogo.com
100
AcDbLine
 10
157.8178945
 20
130.1113535
 30
0.0
 11
160.0713735
 21
130.2957592
 31
0.0
  0
LINE
  5
164
330
70
100
AcDbEntity
  8
unifi-wifi-logo v1_unifi-seeklogo.com
100
AcDbLine
 10
167.060524
 20
143.1574869
 30
0.0
 11
165.6249325
 21
143.1558716
 31
0.0
  0
LINE
  5
165
330
70
100
AcDbEntity
  8
unifi-wifi-logo v1_unifi-seeklogo.com
100
AcDbLine
 10
101.5930382
 20
104.982425
 30
0.0
 11
101.1292424
 21
103.8894154
 31
0.0
  0
LINE
  5
166
330
70
100
AcDbEntity
  8
unifi-wifi-logo v1_unifi-seeklogo.com
100
AcDbLine
 10
144.9829679
 20
117.1235502
 30
0.0
 11
143.6834534
 21
116.5738877
 31
0.0
  0
LINE
  5
167
330
70
100
AcDbEntity
  8
unifi-wifi-logo v1_unifi-seeklogo.com
100
AcDbLine
 10
162.3974556
 20
130.4273469
 30
0.0
 11
164.7975335
 21
130.5045995
 31
0.0
  0
LINE
  5
168
330
70
100
AcDbEntity
  8
unifi-wifi-logo v1_unifi-seeklogo.com
100
AcDbLine
 10
137.5256846
 20
96.45324630000002
 30
0.0
 11
138.0035004
 21
97.03325050000001
 31
0.0
  0
LINE
  5
169
330
70
100
AcDbEntity
  8
unifi-wifi-logo v1_unifi-seeklogo.com
100
AcDbLine
 10
114.5732813
 20
103.1407531
 30
0.0
 11
115.0060257
 21
103.9717585
 31
0.0
  0
LINE
  5
16A
330
70
100
AcDbEntity
  8
unifi-wifi-logo v1_unifi-seeklogo.com
100
AcDbLine
 10
135.2721685
 20
93.24304580000001
 30
0.0
 11
135.7006992
 21
93.92967320000002
 31
0.0
  0
LINE
  5
16B
330
70
100
AcDbEntity
  8
unifi-wifi-logo v1_unifi-seeklogo.com
100
AcDbLine
 10
139.5442725
 20
98.73188240000002
 30
0.0
 11
140.0962577
 21
99.28204810000002
 31
0.0
  0
LINE
  5
16C
330
70
100
AcDbEntity
  8
unifi-wifi-logo v1_unifi-seeklogo.com
100
AcDbLine
 10
133.7519907
 20
90.43458500000001
 30
0.0
 11
134.1038164
 21
91.1437807
 31
0.0
  0
LINE
  5
16D
330
70
100
AcDbEntity
  8
unifi-wifi-logo v1_unifi-seeklogo.com
100
AcDbLine
 10
133.6309326
 20
110.4272843
 30
0.0
 11
132.6935156
 21
109.63025
 31
0.0
  0
LINE
  5
16E
330
70
100
AcDbEntity
  8
unifi-wifi-logo v1_unifi-seeklogo.com
100
AcDbLine
 10
121.7252639
 20
130.4255039
 30
0.0
 11
120.947085
 21
129.8598765
 31
0.0
  0
LINE
  5
16F
330
70
100
AcDbEntity
  8
unifi-wifi-logo v1_unifi-seeklogo.com
100
AcDbLine
 10
140.0962577
 20
99.28204810000002
 30
0.0
 11
140.66875
 21
99.82306560000001
 31
0.0
  0
LINE
  5
170
330
70
100
AcDbEntity
  8
unifi-wifi-logo v1_unifi-seeklogo.com
100
AcDbLine
 10
138.4986797
 20
97.60680820000001
 30
0.0
 11
139.0120084
 21
98.17324400000002
 31
0.0
  0
LINE
  5
171
330
70
100
AcDbEntity
  8
unifi-wifi-logo v1_unifi-seeklogo.com
100
AcDbLine
 10
168.5135247
 20
143.1402768
 30
0.0
 11
167.060524
 21
143.1574869
 31
0.0
  0
LINE
  5
172
330
70
100
AcDbEntity
  8
unifi-wifi-logo v1_unifi-seeklogo.com
100
AcDbLine
 10
125.8383466
 20
133.114881
 30
0.0
 11
124.9858868
 21
132.5963115
 31
0.0
  0
LINE
  5
173
330
70
100
AcDbEntity
  8
unifi-wifi-logo v1_unifi-seeklogo.com
100
AcDbLine
 10
134.1038164
 20
91.1437807
 30
0.0
 11
134.4741636
 21
91.84899339999999
 31
0.0
  0
LINE
  5
174
330
70
100
AcDbEntity
  8
unifi-wifi-logo v1_unifi-seeklogo.com
100
AcDbLine
 10
137.7368983
 20
113.404733
 30
0.0
 11
136.6566309
 21
112.6940703
 31
0.0
  0
LINE
  5
175
330
70
100
AcDbEntity
  8
unifi-wifi-logo v1_unifi-seeklogo.com
100
AcDbLine
 10
160.0471186
 20
120.7696451
 30
0.0
 11
158.3689355
 21
120.5721641
 31
0.0
  0
LINE
  5
176
330
70
100
AcDbEntity
  8
unifi-wifi-logo v1_unifi-seeklogo.com
100
AcDbLine
 10
129.3993658
 20
135.0853882
 30
0.0
 11
128.4863031
 21
134.6088098
 31
0.0
  0
LINE
  5
177
330
70
100
AcDbEntity
  8
unifi-wifi-logo v1_unifi-seeklogo.com
100
AcDbLine
 10
162.604
 20
108.307
 30
0.0
 11
165.315
 21
121.112
 31
0.0
  0
LINE
  5
178
330
70
100
AcDbEntity
  8
unifi-wifi-logo v1_unifi-seeklogo.com
100
AcDbLine
 10
146.1356403
 20
141.0367383
 30
0.0
 11
144.969692
 21
140.766745
 31
0.0
  0
LINE
  5
179
330
70
100
AcDbEntity
  8
unifi-wifi-logo v1_unifi-seeklogo.com
100
AcDbLine
 10
140.0059797
 20
114.752371
 30
0.0
 11
138.8532927
 21
114.0911826
 31
0.0
  0
LINE
  5
17A
330
70
100
AcDbEntity
  8
unifi-wifi-logo v1_unifi-seeklogo.com
100
AcDbLine
 10
165.315
 20
121.112
 30
0.0
 11
163.5199851
 21
121.0406112
 31
0.0
  0
LINE
  5
17B
330
70
100
AcDbEntity
  8
unifi-wifi-logo v1_unifi-seeklogo.com
100
AcDbLine
 10
152.2121171
 20
142.1574281
 30
0.0
 11
150.9637054
 21
141.964665
 31
0.0
  0
LINE
  5
17C
330
70
100
AcDbEntity
  8
unifi-wifi-logo v1_unifi-seeklogo.com
100
AcDbLine
 10
115.2439072
 20
125.0423853
 30
0.0
 11
113.9607831
 21
123.7656208
 31
0.0
  0
LINE
  5
17D
330
70
100
AcDbEntity
  8
unifi-wifi-logo v1_unifi-seeklogo.com
100
AcDbLine
 10
121.217125
 20
93.11168750000001
 30
0.0
 11
120.7561028
 21
91.9372176
 31
0.0
  0
LINE
  5
17E
330
70
100
AcDbEntity
  8
unifi-wifi-logo v1_unifi-seeklogo.com
100
AcDbLine
 10
130.327743
 20
135.5508654
 30
0.0
 11
129.3993658
 21
135.0853882
 31
0.0
  0
LINE
  5
17F
330
70
100
AcDbEntity
  8
unifi-wifi-logo v1_unifi-seeklogo.com
100
AcDbLine
 10
129.2951738
 20
106.2628672
 30
0.0
 11
128.5325914
 21
105.3814506
 31
0.0
  0
LINE
  5
180
330
70
100
AcDbEntity
  8
unifi-wifi-logo v1_unifi-seeklogo.com
100
AcDbLine
 10
161.3035712
 20
108.1881585
 30
0.0
 11
162.604
 21
108.307
 31
0.0
  0
LINE
  5
181
330
70
100
AcDbEntity
  8
unifi-wifi-logo v1_unifi-seeklogo.com
100
AcDbLine
 10
163.5199851
 20
121.0406112
 30
0.0
 11
161.7640798
 21
120.9261436
 31
0.0
  0
LINE
  5
182
330
70
100
AcDbEntity
  8
unifi-wifi-logo v1_unifi-seeklogo.com
100
AcDbLine
 10
152.0406719
 20
119.393375
 30
0.0
 11
150.5538945
 21
119.006702
 31
0.0
  0
LINE
  5
183
330
70
100
AcDbEntity
  8
unifi-wifi-logo v1_unifi-seeklogo.com
100
AcDbLine
 10
157.6353516
 20
107.6821887
 30
0.0
 11
158.8200328
 21
107.8750774
 31
0.0
  0
LINE
  5
184
330
70
100
AcDbEntity
  8
unifi-wifi-logo v1_unifi-seeklogo.com
100
AcDbLine
 10
142.4208943
 20
115.9947716
 30
0.0
 11
141.195125
 21
115.38725
 31
0.0
  0
LINE
  5
185
330
70
100
AcDbEntity
  8
unifi-wifi-logo v1_unifi-seeklogo.com
100
AcDbLine
 10
158.8200328
 20
107.8750774
 30
0.0
 11
160.0425107
 21
108.0439591
 31
0.0
  0
LINE
  5
186
330
70
100
AcDbEntity
  8
unifi-wifi-logo v1_unifi-seeklogo.com
100
AcDbLine
 10
155.3762354
 20
107.2270918
 30
0.0
 11
156.487681
 21
107.4659684
 31
0.0
  0
LINE
  5
187
330
70
100
AcDbEntity
  8
unifi-wifi-logo v1_unifi-seeklogo.com
100
AcDbLine
 10
161.7640798
 20
120.9261436
 30
0.0
 11
160.0471186
 21
120.7696451
 31
0.0
  0
LINE
  5
188
330
70
100
AcDbEntity
  8
unifi-wifi-logo v1_unifi-seeklogo.com
100
AcDbLine
 10
156.7293651
 20
120.3347484
 30
0.0
 11
155.1282415
 21
120.0584463
 31
0.0
  0
LINE
  5
189
330
70
100
AcDbEntity
  8
unifi-wifi-logo v1_unifi-seeklogo.com
100
AcDbLine
 10
131.347
 20
84.05510000000001
 30
0.0
 11
118.317
 21
84.05510000000001
 31
0.0
  0
LINE
  5
18A
330
70
100
AcDbEntity
  8
unifi-wifi-logo v1_unifi-seeklogo.com
100
AcDbLine
 10
154.3002286
 20
106.9662346
 30
0.0
 11
155.3762354
 21
107.2270918
 31
0.0
  0
LINE
  5
18B
330
70
100
AcDbEntity
  8
unifi-wifi-logo v1_unifi-seeklogo.com
100
AcDbLine
 10
153.258875
 20
106.6840719
 30
0.0
 11
154.3002286
 21
106.9662346
 31
0.0
  0
LINE
  5
18C
330
70
100
AcDbEntity
  8
unifi-wifi-logo v1_unifi-seeklogo.com
100
AcDbLine
 10
146.08125
 20
103.740825
 30
0.0
 11
146.873671
 21
104.1691162
 31
0.0
  0
ENDSEC
  0
SECTION
  2
OBJECTS
  0
DICTIONARY
  5
C
330
0
100
AcDbDictionary
281
     1
  3
ACAD_COLOR
350
63
  3
ACAD_DETAILVIEWSTYLE
350
6A
  3
ACAD_GROUP
350
D
  3
ACAD_LAYOUT
350
62
  3
ACAD_MATERIAL
350
10
  3
ACAD_MLEADERSTYLE
350
66
  3
ACAD_MLINESTYLE
350
5F
  3
ACAD_PLOTSETTINGS
350
61
  3
ACAD_PLOTSTYLENAME
350
E
  3
ACAD_SCALELIST
350
42
  3
ACAD_SECTIONVIEWSTYLE
350
68
  3
ACAD_TABLESTYLE
350
64
  3
ACAD_VISUALSTYLE
350
29
  3
ACDB_RECOMPOSE_DATA
350
195
  3
AcDbVariableDictionary
350
18D
  0
DICTIONARY
  5
63
102
{ACAD_REACTORS
330
C
102
}
330
C
100
AcDbDictionary
281
     1
  0
DICTIONARY
  5
6A
102
{ACAD_REACTORS
330
C
102
}
330
C
100
AcDbDictionary
281
     1
  3
Imperial24
350
6B
  0
DICTIONARY
  5
D
102
{ACAD_REACTORS
330
C
102
}
330
C
100
AcDbDictionary
281
     1
  0
DICTIONARY
  5
62
102
{ACAD_REACTORS
330
C
102
}
330
C
100
AcDbDictionary
281
     1
  3
Layout1
350
6F
  3
Layout2
350
77
  3
Model
350
73
  0
DICTIONARY
  5
10
102
{ACAD_REACTORS
330
C
102
}
330
C
100
AcDbDictionary
281
     1
  3
ByBlock
350
19
  3
ByLayer
350
11
  3
Global
350
21
  0
DICTIONARY
  5
66
102
{ACAD_REACTORS
330
C
102
}
330
C
100
AcDbDictionary
281
     1
  3
Standard
350
67
  0
DICTIONARY
  5
5F
102
{ACAD_REACTORS
330
C
102
}
330
C
100
AcDbDictionary
281
     1
  3
Standard
350
60
  0
DICTIONARY
  5
61
102
{ACAD_REACTORS
330
C
102
}
330
C
100
AcDbDictionary
281
     1
  0
ACDBDICTIONARYWDFLT
  5
E
102
{ACAD_REACTORS
330
C
102
}
330
C
100
AcDbDictionary
281
     1
  3
Normal
350
F
100
AcDbDictionaryWithDefault
340
F
  0
DICTIONARY
  5
42
102
{ACAD_REACTORS
330
C
102
}
330
C
100
AcDbDictionary
281
     1
  3
A0
350
43
  3
A1
350
44
  3
A2
350
45
  3
A3
350
46
  3
A4
350
47
  3
A5
350
48
  3
A6
350
49
  3
A7
350
4A
  3
A8
350
4B
  3
A9
350
4C
  3
B0
350
4D
  3
B1
350
4E
  3
B2
350
4F
  3
B3
350
50
  3
B4
350
51
  3
B5
350
52
  3
B6
350
53
  0
DICTIONARY
  5
68
102
{ACAD_REACTORS
330
C
102
}
330
C
100
AcDbDictionary
281
     1
  3
Imperial24
350
69
  0
DICTIONARY
  5
64
102
{ACAD_REACTORS
330
C
102
}
330
C
100
AcDbDictionary
281
     1
  3
Standard
350
65
  0
DICTIONARY
  5
29
102
{ACAD_REACTORS
330
C
102
}
330
C
100
AcDbDictionary
281
     1
  3
2dWireframe
350
2F
  3
Basic
350
2E
  3
Brighten
350
35
  3
ColorChange
350
39
  3
Conceptual
350
32
  3
Dim
350
34
  3
EdgeColorOff
350
41
  3
Facepattern
350
38
  3
Flat
350
2A
  3
FlatWithEdges
350
2B
  3
Gouraud
350
2C
  3
GouraudWithEdges
350
2D
  3
Hidden
350
31
  3
JitterOff
350
3F
  3
Linepattern
350
37
  3
OverhangOff
350
40
  3
Realistic
350
33
  3
Shaded
350
3E
  3
Shaded with edges
350
3D
  3
Shades of Gray
350
3A
  3
Sketchy
350
3B
  3
Thicken
350
36
  3
Wireframe
350
30
  3
X-Ray
350
3C
  0
XRECORD
  5
195
102
{ACAD_REACTORS
330
C
102
}
330
C
100
AcDbXrecord
280
     1
 90
        1
330
65
  0
DICTIONARY
  5
18D
102
{ACAD_REACTORS
330
C
102
}
330
C
100
AcDbDictionary
281
     1
  3
CANNOSCALE
350
192
  3
CMLEADERSTYLE
350
18F
  3
CTABLESTYLE
350
18E
  3
CVIEWDETAILSTYLE
350
190
  3
CVIEWSECTIONSTYLE
350
191
  0
ACDBDETAILVIEWSTYLE
  5
6B
102
{ACAD_XDICTIONARY
360
198
102
}
102
{ACAD_REACTORS
330
6A
102
}
330
6A
100
AcDbModelDocViewStyle
 70
     0
  3
Imperial24
290
     0
100
AcDbDetailViewStyle
 70
     0
 71
     0
 90
        3
 71
     1
340
55
 62
   256
 40
0.24
340
0
 62
   256
 40
0.24
300

 40
0.36
280
     3
 71
     2
340
5D
 90
       25
 62
   256
 71
     3
340
55
 62
   256
 40
0.24
 90
        1
 40
0.75
 90
        1
300
%<\AcVar ViewType \f "%tc1">% %<\AcVar ViewDetailId>%\PSCALE %<\AcVar ViewScale \f "%sn">%
 71
     4
340
5D
 90
       25
 62
   256
340
5D
 90
       25
 62
   256
280
     0
  0
LAYOUT
  5
6F
102
{ACAD_REACTORS
330
62
102
}
330
62
100
AcDbPlotSettings
  1

  2

  4

  6

 40
0.0
 41
0.0
 42
0.0
 43
0.0
 44
0.0
 45
0.0
 46
0.0
 47
0.0
 48
0.0
 49
0.0
140
0.0
141
0.0
142
1.0
143
1.0
 70
   688
 72
     0
 73
     0
 74
     5
  7

 75
    16
147
1.0
 76
     0
 77
     2
 78
   300
148
0.0
149
0.0
100
AcDbLayout
  1
Layout1
 70
     1
 71
     1
 10
0.0
 20
0.0
 11
12.0
 21
9.0
 12
0.0
 22
0.0
 32
0.0
 14
0.0
 24
0.0
 34
0.0
 15
0.0
 25
0.0
 35
0.0
146
0.0
 13
0.0
 23
0.0
 33
0.0
 16
1.0
 26
0.0
 36
0.0
 17
0.0
 27
1.0
 37
0.0
 76
     0
330
6C
  0
LAYOUT
  5
77
102
{ACAD_REACTORS
330
62
102
}
330
62
100
AcDbPlotSettings
  1

  2

  4

  6

 40
0.0
 41
0.0
 42
0.0
 43
0.0
 44
0.0
 45
0.0
 46
0.0
 47
0.0
 48
0.0
 49
0.0
140
0.0
141
0.0
142
1.0
143
1.0
 70
   688
 72
     0
 73
     0
 74
     5
  7

 75
    16
147
1.0
 76
     0
 77
     2
 78
   300
148
0.0
149
0.0
100
AcDbLayout
  1
Layout2
 70
     1
 71
     2
 10
0.0
 20
0.0
 11
12.0
 21
9.0
 12
0.0
 22
0.0
 32
0.0
 14
0.0
 24
0.0
 34
0.0
 15
0.0
 25
0.0
 35
0.0
146
0.0
 13
0.0
 23
0.0
 33
0.0
 16
1.0
 26
0.0
 36
0.0
 17
0.0
 27
1.0
 37
0.0
 76
     0
330
74
  0
LAYOUT
  5
73
102
{ACAD_REACTORS
330
62
102
}
330
62
100
AcDbPlotSettings
  1

  2

  4

  6

 40
0.0
 41
0.0
 42
0.0
 43
0.0
 44
0.0
 45
0.0
 46
0.0
 47
0.0
 48
0.0
 49
0.0
140
0.0
141
0.0
142
1.0
143
1.0
 70
  1712
 72
     0
 73
     0
 74
     0
  7

 75
     0
147
1.0
 76
     0
 77
     2
 78
   300
148
0.0
149
0.0
100
AcDbLayout
  1
Model
 70
     1
 71
     0
 10
0.0
 20
0.0
 11
12.0
 21
9.0
 12
0.0
 22
0.0
 32
0.0
 14
0.0
 24
0.0
 34
0.0
 15
0.0
 25
0.0
 35
0.0
146
0.0
 13
0.0
 23
0.0
 33
0.0
 16
1.0
 26
0.0
 36
0.0
 17
0.0
 27
1.0
 37
0.0
 76
     0
330
70
  0
MATERIAL
  5
19
102
{ACAD_XDICTIONARY
360
1A
102
}
102
{ACAD_REACTORS
330
10
102
}
330
10
100
AcDbMaterial
  1
ByBlock
 72
     0
 43
0.0208333333333333
 43
0.0
 43
0.0
 43
0.0
 43
0.0
 43
0.0208333333333333
 43
0.0
 43
0.0
 43
0.0
 43
0.0
 43
1.0
 43
0.0
 43
0.0
 43
0.0
 43
0.0
 43
1.0
 77
     0
 47
0.0208333333333333
 47
0.0
 47
0.0
 47
0.0
 47
0.0
 47
0.0208333333333333
 47
0.0
 47
0.0
 47
0.0
 47
0.0
 47
1.0
 47
0.0
 47
0.0
 47
0.0
 47
0.0
 47
1.0
171
     0
 49
0.0208333333333333
 49
0.0
 49
0.0
 49
0.0
 49
0.0
 49
0.0208333333333333
 49
0.0
 49
0.0
 49
0.0
 49
0.0
 49
1.0
 49
0.0
 49
0.0
 49
0.0
 49
0.0
 49
1.0
175
     0
142
0.0208333333333333
142
0.0
142
0.0
142
0.0
142
0.0
142
0.0208333333333333
142
0.0
142
0.0
142
0.0
142
0.0
142
1.0
142
0.0
142
0.0
142
0.0
142
0.0
142
1.0
179
     0
144
0.0208333333333333
144
0.0
144
0.0
144
0.0
144
0.0
144
0.0208333333333333
144
0.0
144
0.0
144
0.0
144
0.0
144
1.0
144
0.0
144
0.0
144
0.0
144
0.0
144
1.0
147
0.0208333333333333
147
0.0
147
0.0
147
0.0
147
0.0
147
0.0208333333333333
147
0.0
147
0.0
147
0.0
147
0.0
147
1.0
147
0.0
147
0.0
147
0.0
147
0.0
147
1.0
  0
MATERIAL
  5
11
102
{ACAD_XDICTIONARY
360
12
102
}
102
{ACAD_REACTORS
330
10
102
}
330
10
100
AcDbMaterial
  1
ByLayer
 72
     0
 43
0.0208333333333333
 43
0.0
 43
0.0
 43
0.0
 43
0.0
 43
0.0208333333333333
 43
0.0
 43
0.0
 43
0.0
 43
0.0
 43
1.0
 43
0.0
 43
0.0
 43
0.0
 43
0.0
 43
1.0
 77
     0
 47
0.0208333333333333
 47
0.0
 47
0.0
 47
0.0
 47
0.0
 47
0.0208333333333333
 47
0.0
 47
0.0
 47
0.0
 47
0.0
 47
1.0
 47
0.0
 47
0.0
 47
0.0
 47
0.0
 47
1.0
171
     0
 49
0.0208333333333333
 49
0.0
 49
0.0
 49
0.0
 49
0.0
 49
0.0208333333333333
 49
0.0
 49
0.0
 49
0.0
 49
0.0
 49
1.0
 49
0.0
 49
0.0
 49
0.0
 49
0.0
 49
1.0
175
     0
142
0.0208333333333333
142
0.0
142
0.0
142
0.0
142
0.0
142
0.0208333333333333
142
0.0
142
0.0
142
0.0
142
0.0
142
1.0
142
0.0
142
0.0
142
0.0
142
0.0
142
1.0
179
     0
144
0.0208333333333333
144
0.0
144
0.0
144
0.0
144
0.0
144
0.0208333333333333
144
0.0
144
0.0
144
0.0
144
0.0
144
1.0
144
0.0
144
0.0
144
0.0
144
0.0
144
1.0
147
0.0208333333333333
147
0.0
147
0.0
147
0.0
147
0.0
147
0.0208333333333333
147
0.0
147
0.0
147
0.0
147
0.0
147
1.0
147
0.0
147
0.0
147
0.0
147
0.0
147
1.0
  0
MATERIAL
  5
21
102
{ACAD_XDICTIONARY
360
22
102
}
102
{ACAD_REACTORS
330
10
102
}
330
10
100
AcDbMaterial
  1
Global
 72
     0
 43
0.0208333333333333
 43
0.0
 43
0.0
 43
0.0
 43
0.0
 43
0.0208333333333333
 43
0.0
 43
0.0
 43
0.0
 43
0.0
 43
1.0
 43
0.0
 43
0.0
 43
0.0
 43
0.0
 43
1.0
 77
     0
 47
0.0208333333333333
 47
0.0
 47
0.0
 47
0.0
 47
0.0
 47
0.0208333333333333
 47
0.0
 47
0.0
 47
0.0
 47
0.0
 47
1.0
 47
0.0
 47
0.0
 47
0.0
 47
0.0
 47
1.0
171
     0
 49
0.0208333333333333
 49
0.0
 49
0.0
 49
0.0
 49
0.0
 49
0.0208333333333333
 49
0.0
 49
0.0
 49
0.0
 49
0.0
 49
1.0
 49
0.0
 49
0.0
 49
0.0
 49
0.0
 49
1.0
175
     0
142
0.0208333333333333
142
0.0
142
0.0
142
0.0
142
0.0
142
0.0208333333333333
142
0.0
142
0.0
142
0.0
142
0.0
142
1.0
142
0.0
142
0.0
142
0.0
142
0.0
142
1.0
179
     0
144
0.0208333333333333
144
0.0
144
0.0
144
0.0
144
0.0
144
0.0208333333333333
144
0.0
144
0.0
144
0.0
144
0.0
144
1.0
144
0.0
144
0.0
144
0.0
144
0.0
144
1.0
147
0.0208333333333333
147
0.0
147
0.0
147
0.0
147
0.0
147
0.0208333333333333
147
0.0
147
0.0
147
0.0
147
0.0
147
1.0
147
0.0
147
0.0
147
0.0
147
0.0
147
1.0
  0
MLEADERSTYLE
  5
67
102
{ACAD_REACTORS
330
66
102
}
330
66
100
AcDbMLeaderStyle
179
     2
170
     2
171
     1
172
     0
 90
        2
 40
0.0
 41
0.0
173
     1
 91
-1056964608
340
5B
 92
       -2
290
     1
 42
0.09
291
     1
 43
0.36
  3
Standard
 44
0.18
300

342
55
174
     1
178
     6
175
     1
176
     0
 93
-1056964608
 45
0.18
292
     0
297
     0
 46
0.18
 94
-1056964608
 47
1.0
 49
1.0
140
1.0
293
     1
141
0.0
294
     1
177
     0
142
1.0
295
     0
296
     0
143
0.125
271
     0
272
     9
273
     9
298
     1
  0
MLINESTYLE
  5
60
102
{ACAD_REACTORS
330
5F
102
}
330
5F
100
AcDbMlineStyle
  2
STANDARD
 70
     0
  3

 62
   256
 51
90.0
 52
90.0
 71
     2
 49
0.5
 62
   256
  6
BYLAYER
 49
-0.5
 62
   256
  6
BYLAYER
  0
ACDBPLACEHOLDER
  5
F
102
{ACAD_REACTORS
330
E
102
}
330
E
  0
SCALE
  5
43
102
{ACAD_REACTORS
330
42
102
}
330
42
100
AcDbScale
 70
     0
300
1:1
140
1.0
141
1.0
290
     1
  0
SCALE
  5
44
102
{ACAD_REACTORS
330
42
102
}
330
42
100
AcDbScale
 70
     0
300
1/128" = 1'-0"
140
0.0078125
141
12.0
290
     0
  0
SCALE
  5
45
102
{ACAD_REACTORS
330
42
102
}
330
42
100
AcDbScale
 70
     0
300
1/64" = 1'-0"
140
0.015625
141
12.0
290
     0
  0
SCALE
  5
46
102
{ACAD_REACTORS
330
42
102
}
330
42
100
AcDbScale
 70
     0
300
1/32" = 1'-0"
140
0.03125
141
12.0
290
     0
  0
SCALE
  5
47
102
{ACAD_REACTORS
330
42
102
}
330
42
100
AcDbScale
 70
     0
300
1/16" = 1'-0"
140
0.0625
141
12.0
290
     0
  0
SCALE
  5
48
102
{ACAD_REACTORS
330
42
102
}
330
42
100
AcDbScale
 70
     0
300
3/32" = 1'-0"
140
0.09375
141
12.0
290
     0
  0
SCALE
  5
49
102
{ACAD_REACTORS
330
42
102
}
330
42
100
AcDbScale
 70
     0
300
1/8" = 1'-0"
140
0.125
141
12.0
290
     0
  0
SCALE
  5
4A
102
{ACAD_REACTORS
330
42
102
}
330
42
100
AcDbScale
 70
     0
300
3/16" = 1'-0"
140
0.1875
141
12.0
290
     0
  0
SCALE
  5
4B
102
{ACAD_REACTORS
330
42
102
}
330
42
100
AcDbScale
 70
     0
300
1/4" = 1'-0"
140
0.25
141
12.0
290
     0
  0
SCALE
  5
4C
102
{ACAD_REACTORS
330
42
102
}
330
42
100
AcDbScale
 70
     0
300
3/8" = 1'-0"
140
0.375
141
12.0
290
     0
  0
SCALE
  5
4D
102
{ACAD_REACTORS
330
42
102
}
330
42
100
AcDbScale
 70
     0
300
1/2" = 1'-0"
140
0.5
141
12.0
290
     0
  0
SCALE
  5
4E
102
{ACAD_REACTORS
330
42
102
}
330
42
100
AcDbScale
 70
     0
300
3/4" = 1'-0"
140
0.75
141
12.0
290
     0
  0
SCALE
  5
4F
102
{ACAD_REACTORS
330
42
102
}
330
42
100
AcDbScale
 70
     0
300
1" = 1'-0"
140
1.0
141
12.0
290
     0
  0
SCALE
  5
50
102
{ACAD_REACTORS
330
42
102
}
330
42
100
AcDbScale
 70
     0
300
1-1/2" = 1'-0"
140
1.5
141
12.0
290
     0
  0
SCALE
  5
51
102
{ACAD_REACTORS
330
42
102
}
330
42
100
AcDbScale
 70
     0
300
3" = 1'-0"
140
3.0
141
12.0
290
     0
  0
SCALE
  5
52
102
{ACAD_REACTORS
330
42
102
}
330
42
100
AcDbScale
 70
     0
300
6" = 1'-0"
140
6.0
141
12.0
290
     0
  0
SCALE
  5
53
102
{ACAD_REACTORS
330
42
102
}
330
42
100
AcDbScale
 70
     0
300
1'-0" = 1'-0"
140
12.0
141
12.0
290
     0
  0
ACDBSECTIONVIEWSTYLE
  5
69
102
{ACAD_XDICTIONARY
360
196
102
}
102
{ACAD_REACTORS
330
68
102
}
330
68
100
AcDbModelDocViewStyle
 70
     0
  3
Imperial24
290
     0
100
AcDbSectionViewStyle
 70
     0
 71
     0
 90
       78
 71
     1
340
55
 62
   256
 40
0.24
340
0
340
0
 62
   256
 40
0.24
300
I, O, Q, S, X, Z
 40
0.48
 90
        3
 40
0.18
 90
        1
 71
     2
340
5D
 90
       25
 62
   256
340
5D
 90
       50
 62
   256
 40
0.24
 40
0.0
 40
0.24
 71
     3
340
55
 62
   256
 40
0.24
 90
        1
 40
0.75
 90
        1
300
%<\AcVar ViewType \f "%tc1">% %<\AcVar ViewSectionStartId>%-%<\AcVar ViewSectionEndId>%\PSCALE %<\AcVar ViewScale \f "%sn">%
 71
     4
 62
   256
 62
   257
300
ANSI31
 40
1.0
 90
        0
290
     0
290
     0
 90
        6
 40
0.0
 40
1.570796326794896
 40
0.2617993877991494
 40
1.308996938995747
 40
-0.2617993877991494
 40
1.832595714594046
  0
TABLESTYLE
  5
65
102
{ACAD_XDICTIONARY
360
193
102
}
102
{ACAD_REACTORS
330
64
102
}
330
64
100
AcDbTableStyle
280
     0
  3
Standard
 70
     0
 71
     0
 40
0.06
 41
0.06
280
     0
281
     0
  7
Standard
140
0.18
170
     2
 62
     0
 63
     7
283
     0
 90
      512
 91
        0
  1

274
    -2
284
     1
 64
     0
275
    -2
285
     1
 65
     0
276
    -2
286
     1
 66
     0
277
    -2
287
     1
 67
     0
278
    -2
288
     1
 68
     0
279
    -2
289
     1
 69
     0
  7
Standard
140
0.25
170
     5
 62
     0
 63
     7
283
     0
 90
      512
 91
        0
  1

274
    -2
284
     1
 64
     0
275
    -2
285
     1
 65
     0
276
    -2
286
     1
 66
     0
277
    -2
287
     1
 67
     0
278
    -2
288
     1
 68
     0
279
    -2
289
     1
 69
     0
  7
Standard
140
0.18
170
     5
 62
     0
 63
     7
283
     0
 90
      512
 91
        0
  1

274
    -2
284
     1
 64
     0
275
    -2
285
     1
 65
     0
276
    -2
286
     1
 66
     0
277
    -2
287
     1
 67
     0
278
    -2
288
     1
 68
     0
279
    -2
289
     1
 69
     0
  0
VISUALSTYLE
  5
2F
102
{ACAD_REACTORS
330
29
102
}
330
29
100
AcDbVisualStyle
  2
2dWireframe
 70
     4
177
     3
291
     0
 70
    58
 90
        0
176
     1
 90
        2
176
     1
 90
        0
176
     1
 90
        0
176
     1
 40
0.6
176
     1
 40
30.0
176
     1
 62
     7
420
 16777215
176
     1
 90
        1
176
     1
 90
        4
176
     1
 62
     7
176
     1
 62
   257
176
     1
 90
        1
176
     1
 90
        1
176
     1
 40
1.0
176
     1
 90
        0
176
     1
 62
   257
176
     1
 40
1.0
176
     1
 90
        1
176
     1
 90
        6
176
     1
 90
        2
176
     1
 62
     7
176
     1
 90
        5
176
     1
 90
        0
176
     1
 90
        0
176
     1
290
     0
176
     1
 90
        1
176
     1
 40
0.0
176
     1
 90
        0
176
     1
290
     1
176
     1
290
     1
176
     1
290
     0
176
     1
290
     0
176
     1
290
     0
176
     1
290
     0
176
     1
290
     0
176
     1
290
     0
176
     1
290
     0
176
     1
 90
       50
176
     1
 40
0.0
176
     1
 40
1.0
176
     1
 90
        0
176
     1
 62
    18
420
        0
176
     1
 90
       50
176
     1
 90
        3
176
     1
 62
     5
420
      255
176
     1
290
     0
176
     1
 90
       50
176
     1
 90
       50
176
     1
 90
       50
176
     1
290
     0
176
     1
 90
       50
176
     1
 62
   256
176
     0
 40
1.0
176
     0
 90
        2
176
     1
  1
strokes_ogs.tif
176
     1
290
     0
176
     1
 40
1.0
176
     1
 40
1.0
176
     1
1001
ACAD
1000
AcDbSavedByObjectVersion
1070
     0
  0
VISUALSTYLE
  5
2E
102
{ACAD_REACTORS
330
29
102
}
330
29
100
AcDbVisualStyle
  2
Basic
 70
     7
177
     3
291
     1
 70
    58
 90
        1
176
     1
 90
        0
176
     1
 90
        1
176
     1
 90
        0
176
     1
 40
0.6
176
     1
 40
30.0
176
     1
 62
     7
420
 16777215
176
     1
 90
        0
176
     1
 90
        4
176
     1
 62
     7
176
     1
 62
   257
176
     1
 90
        1
176
     1
 90
        1
176
     1
 40
1.0
176
     1
 90
        8
176
     1
 62
     7
176
     1
 40
1.0
176
     1
 90
        1
176
     1
 90
        6
176
     1
 90
        2
176
     1
 62
     7
176
     1
 90
        5
176
     1
 90
        0
176
     1
 90
        0
176
     1
290
     0
176
     1
 90
        1
176
     1
 40
0.0
176
     1
 90
        0
176
     1
290
     0
176
     1
290
     1
176
     1
290
     1
176
     1
290
     0
176
     1
290
     0
176
     1
290
     0
176
     1
290
     0
176
     1
290
     0
176
     1
290
     0
176
     1
 90
       50
176
     1
 40
0.0
176
     1
 40
1.0
176
     1
 90
        0
176
     1
 62
    18
420
        0
176
     1
 90
       50
176
     1
 90
        3
176
     1
 62
     5
420
      255
176
     1
290
     0
176
     1
 90
       50
176
     1
 90
       50
176
     1
 90
       50
176
     1
290
     0
176
     1
 90
       50
176
     1
 62
   256
176
     0
 40
1.0
176
     0
 90
        2
176
     1
  1
strokes_ogs.tif
176
     1
290
     0
176
     1
 40
1.0
176
     1
 40
1.0
176
     1
1001
ACAD
1000
AcDbSavedByObjectVersion
1070
     0
  0
VISUALSTYLE
  5
35
102
{ACAD_REACTORS
330
29
102
}
330
29
100
AcDbVisualStyle
  2
Brighten
 70
    12
177
     3
291
     1
 70
    58
 90
        2
176
     1
 90
        2
176
     1
 90
        0
176
     1
 90
        0
176
     1
 40
0.6
176
     1
 40
30.0
176
     1
 62
     7
420
 16777215
176
     1
 90
        1
176
     1
 90
        4
176
     1
 62
     7
176
     1
 62
   257
176
     1
 90
        1
176
     1
 90
        1
176
     1
 40
1.0
176
     1
 90
        8
176
     1
 62
     7
176
     1
 40
1.0
176
     1
 90
        1
176
     1
 90
        6
176
     1
 90
        2
176
     1
 62
     7
176
     1
 90
        5
176
     1
 90
        0
176
     1
 90
        0
176
     1
290
     0
176
     1
 90
        1
176
     1
 40
50.0
176
     1
 90
        0
176
     1
290
     0
176
     1
290
     1
176
     1
290
     1
176
     1
290
     0
176
     1
290
     0
176
     1
290
     0
176
     1
290
     0
176
     1
290
     0
176
     1
290
     0
176
     1
 90
       50
176
     1
 40
0.0
176
     1
 40
1.0
176
     1
 90
        0
176
     1
 62
    18
420
        0
176
     1
 90
       50
176
     1
 90
        3
176
     1
 62
     5
420
      255
176
     1
290
     0
176
     1
 90
       50
176
     1
 90
       50
176
     1
 90
       50
176
     1
290
     0
176
     1
 90
       50
176
     1
 62
   256
176
     0
 40
1.0
176
     0
 90
        2
176
     1
  1
strokes_ogs.tif
176
     1
290
     0
176
     1
 40
1.0
176
     1
 40
1.0
176
     1
1001
ACAD
1000
AcDbSavedByObjectVersion
1070
     0
  0
VISUALSTYLE
  5
39
102
{ACAD_REACTORS
330
29
102
}
330
29
100
AcDbVisualStyle
  2
ColorChange
 70
    16
177
     3
291
     1
 70
    58
 90
        2
176
     1
 90
        2
176
     1
 90
        3
176
     1
 90
        0
176
     1
 40
0.6
176
     1
 40
30.0
176
     1
 62
     8
420
  8421504
176
     1
 90
        1
176
     1
 90
        4
176
     1
 62
     7
176
     1
 62
   257
176
     1
 90
        1
176
     1
 90
        1
176
     1
 40
1.0
176
     1
 90
        8
176
     1
 62
     8
420
  8421504
176
     1
 40
1.0
176
     1
 90
        1
176
     1
 90
        6
176
     1
 90
        2
176
     1
 62
     7
176
     1
 90
        5
176
     1
 90
        0
176
     1
 90
        0
176
     1
290
     0
176
     1
 90
        1
176
     1
 40
0.0
176
     1
 90
        0
176
     1
290
     0
176
     1
290
     1
176
     1
290
     1
176
     1
290
     0
176
     1
290
     0
176
     1
290
     0
176
     1
290
     0
176
     1
290
     0
176
     1
290
     0
176
     1
 90
       50
176
     1
 40
0.0
176
     1
 40
1.0
176
     1
 90
        0
176
     1
 62
    18
420
        0
176
     1
 90
       50
176
     1
 90
        3
176
     1
 62
     5
420
      255
176
     1
290
     0
176
     1
 90
       50
176
     1
 90
       50
176
     1
 90
       50
176
     1
290
     0
176
     1
 90
       50
176
     1
 62
   256
176
     0
 40
1.0
176
     0
 90
        2
176
     1
  1
strokes_ogs.tif
176
     1
290
     0
176
     1
 40
1.0
176
     1
 40
1.0
176
     1
1001
ACAD
1000
AcDbSavedByObjectVersion
1070
     0
  0
VISUALSTYLE
  5
32
102
{ACAD_REACTORS
330
29
102
}
330
29
100
AcDbVisualStyle
  2
Conceptual
 70
     9
177
     3
291
     0
 70
    58
 90
        3
176
     1
 90
        2
176
     1
 90
        0
176
     1
 90
        0
176
     1
 40
0.6
176
     1
 40
30.0
176
     1
 62
     7
420
 16777215
176
     1
 90
        2
176
     1
 90
        2
176
     1
 62
     7
176
     1
 62
   257
176
     1
 90
        1
176
     1
 90
        1
176
     1
 40
179.0
176
     1
 90
        8
176
     1
 62
     7
176
     1
 40
1.0
176
     1
 90
        1
176
     1
 90
        6
176
     1
 90
        2
176
     1
 62
     7
176
     1
 90
        3
176
     1
 90
        0
176
     1
 90
        0
176
     1
290
     0
176
     1
 90
        1
176
     1
 40
0.0
176
     1
 90
        0
176
     1
290
     0
176
     1
290
     1
176
     1
290
     1
176
     1
290
     0
176
     1
290
     0
176
     1
290
     0
176
     1
290
     0
176
     1
290
     0
176
     1
290
     0
176
     1
 90
       50
176
     1
 40
0.0
176
     1
 40
1.0
176
     1
 90
        0
176
     1
 62
    18
420
        0
176
     1
 90
       50
176
     1
 90
        3
176
     1
 62
     5
420
      255
176
     1
290
     0
176
     1
 90
       50
176
     1
 90
       50
176
     1
 90
       50
176
     1
290
     0
176
     1
 90
       50
176
     1
 62
   256
176
     0
 40
1.0
176
     0
 90
        2
176
     1
  1
strokes_ogs.tif
176
     1
290
     0
176
     1
 40
1.0
176
     1
 40
1.0
176
     1
1001
ACAD
1000
AcDbSavedByObjectVersion
1070
     0
  0
VISUALSTYLE
  5
34
102
{ACAD_REACTORS
330
29
102
}
330
29
100
AcDbVisualStyle
  2
Dim
 70
    11
177
     3
291
     1
 70
    58
 90
        2
176
     1
 90
        2
176
     1
 90
        0
176
     1
 90
        0
176
     1
 40
0.6
176
     1
 40
30.0
176
     1
 62
     7
420
 16777215
176
     1
 90
        1
176
     1
 90
        4
176
     1
 62
     7
176
     1
 62
   257
176
     1
 90
        1
176
     1
 90
        1
176
     1
 40
1.0
176
     1
 90
        8
176
     1
 62
     7
176
     1
 40
1.0
176
     1
 90
        1
176
     1
 90
        6
176
     1
 90
        2
176
     1
 62
     7
176
     1
 90
        5
176
     1
 90
        0
176
     1
 90
        0
176
     1
290
     0
176
     1
 90
        1
176
     1
 40
-50.0
176
     1
 90
        0
176
     1
290
     0
176
     1
290
     1
176
     1
290
     1
176
     1
290
     0
176
     1
290
     0
176
     1
290
     0
176
     1
290
     0
176
     1
290
     0
176
     1
290
     0
176
     1
 90
       50
176
     1
 40
0.0
176
     1
 40
1.0
176
     1
 90
        0
176
     1
 62
    18
420
        0
176
     1
 90
       50
176
     1
 90
        3
176
     1
 62
     5
420
      255
176
     1
290
     0
176
     1
 90
       50
176
     1
 90
       50
176
     1
 90
       50
176
     1
290
     0
176
     1
 90
       50
176
     1
 62
   256
176
     0
 40
1.0
176
     0
 90
        2
176
     1
  1
strokes_ogs.tif
176
     1
290
     0
176
     1
 40
1.0
176
     1
 40
1.0
176
     1
1001
ACAD
1000
AcDbSavedByObjectVersion
1070
     0
  0
VISUALSTYLE
  5
41
102
{ACAD_REACTORS
330
29
102
}
330
29
100
AcDbVisualStyle
  2
EdgeColorOff
 70
    22
177
     3
291
     1
 70
    58
 90
        2
176
     0
 90
        2
176
     0
 90
        0
176
     0
 90
        0
176
     0
 40
0.6
176
     0
 40
30.0
176
     0
 62
     7
420
 16777215
176
     0
 90
        1
176
     0
 90
        4
176
     0
 62
     7
176
     0
 62
   257
176
     0
 90
        1
176
     0
 90
        1
176
     0
 40
1.0
176
     0
 90
        8
176
     2
 62
     7
176
     0
 40
1.0
176
     0
 90
        1
176
     0
 90
        6
176
     0
 90
        2
176
     0
 62
     7
176
     0
 90
        5
176
     0
 90
        0
176
     0
 90
        0
176
     0
290
     0
176
     0
 90
        1
176
     0
 40
0.0
176
     0
 90
        0
176
     0
290
     0
176
     0
290
     1
176
     0
290
     1
176
     0
290
     0
176
     0
290
     0
176
     0
290
     0
176
     0
290
     0
176
     0
290
     0
176
     0
290
     0
176
     0
 90
       50
176
     0
 40
0.0
176
     0
 40
1.0
176
     0
 90
        0
176
     0
 62
    18
420
        0
176
     0
 90
       50
176
     0
 90
        3
176
     0
 62
     5
420
      255
176
     0
290
     0
176
     0
 90
       50
176
     0
 90
       50
176
     0
 90
       50
176
     0
290
     0
176
     0
 90
       50
176
     0
 62
   256
176
     0
 40
1.0
176
     0
 90
        2
176
     0
  1
strokes_ogs.tif
176
     0
290
     0
176
     0
 40
1.0
176
     0
 40
1.0
176
     0
1001
ACAD
1000
AcDbSavedByObjectVersion
1070
     0
  0
VISUALSTYLE
  5
38
102
{ACAD_REACTORS
330
29
102
}
330
29
100
AcDbVisualStyle
  2
Facepattern
 70
    15
177
     3
291
     1
 70
    58
 90
        2
176
     1
 90
        2
176
     1
 90
        0
176
     1
 90
        0
176
     1
 40
0.6
176
     1
 40
30.0
176
     1
 62
     7
420
 16777215
176
     1
 90
        1
176
     1
 90
        4
176
     1
 62
     7
176
     1
 62
   257
176
     1
 90
        1
176
     1
 90
        1
176
     1
 40
1.0
176
     1
 90
        8
176
     1
 62
     7
176
     1
 40
1.0
176
     1
 90
        1
176
     1
 90
        6
176
     1
 90
        2
176
     1
 62
     7
176
     1
 90
        5
176
     1
 90
        0
176
     1
 90
        0
176
     1
290
     0
176
     1
 90
        1
176
     1
 40
0.0
176
     1
 90
        0
176
     1
290
     0
176
     1
290
     1
176
     1
290
     1
176
     1
290
     0
176
     1
290
     0
176
     1
290
     0
176
     1
290
     0
176
     1
290
     0
176
     1
290
     0
176
     1
 90
       50
176
     1
 40
0.0
176
     1
 40
1.0
176
     1
 90
        0
176
     1
 62
    18
420
        0
176
     1
 90
       50
176
     1
 90
        3
176
     1
 62
     5
420
      255
176
     1
290
     0
176
     1
 90
       50
176
     1
 90
       50
176
     1
 90
       50
176
     1
290
     0
176
     1
 90
       50
176
     1
 62
   256
176
     0
 40
1.0
176
     0
 90
        2
176
     1
  1
strokes_ogs.tif
176
     1
290
     0
176
     1
 40
1.0
176
     1
 40
1.0
176
     1
1001
ACAD
1000
AcDbSavedByObjectVersion
1070
     0
  0
VISUALSTYLE
  5
2A
102
{ACAD_REACTORS
330
29
102
}
330
29
100
AcDbVisualStyle
  2
Flat
 70
     0
177
     3
291
     1
 70
    58
 90
        2
176
     1
 90
        1
176
     1
 90
        1
176
     1
 90
        2
176
     1
 40
0.6
176
     1
 40
30.0
176
     1
 62
     7
420
 16777215
176
     1
 90
        0
176
     1
 90
        0
176
     1
 62
     7
176
     1
 62
   257
176
     1
 90
        1
176
     1
 90
        1
176
     1
 40
1.0
176
     1
 90
        8
176
     1
 62
     7
176
     1
 40
1.0
176
     1
 90
        1
176
     1
 90
        6
176
     1
 90
        2
176
     1
 62
     7
176
     1
 90
        5
176
     1
 90
        0
176
     1
 90
        0
176
     1
290
     0
176
     1
 90
       13
176
     1
 40
0.0
176
     1
 90
        0
176
     1
290
     0
176
     1
290
     1
176
     1
290
     1
176
     1
290
     0
176
     1
290
     0
176
     1
290
     0
176
     1
290
     0
176
     1
290
     0
176
     1
290
     0
176
     1
 90
       50
176
     1
 40
0.0
176
     1
 40
1.0
176
     1
 90
        0
176
     1
 62
    18
420
        0
176
     1
 90
       50
176
     1
 90
        3
176
     1
 62
     5
420
      255
176
     1
290
     0
176
     1
 90
       50
176
     1
 90
       50
176
     1
 90
       50
176
     1
290
     0
176
     1
 90
       50
176
     1
 62
   256
176
     0
 40
1.0
176
     0
 90
        2
176
     1
  1
strokes_ogs.tif
176
     1
290
     0
176
     1
 40
1.0
176
     1
 40
1.0
176
     1
1001
ACAD
1000
AcDbSavedByObjectVersion
1070
     0
  0
VISUALSTYLE
  5
2B
102
{ACAD_REACTORS
330
29
102
}
330
29
100
AcDbVisualStyle
  2
FlatWithEdges
 70
     1
177
     3
291
     1
 70
    58
 90
        2
176
     1
 90
        1
176
     1
 90
        1
176
     1
 90
        2
176
     1
 40
0.6
176
     1
 40
30.0
176
     1
 62
     7
420
 16777215
176
     1
 90
        1
176
     1
 90
        0
176
     1
 62
     7
176
     1
 62
   257
176
     1
 90
        1
176
     1
 90
        1
176
     1
 40
1.0
176
     1
 90
        0
176
     1
 62
   257
176
     1
 40
1.0
176
     1
 90
        1
176
     1
 90
        6
176
     1
 90
        2
176
     1
 62
     7
176
     1
 90
        5
176
     1
 90
        0
176
     1
 90
        0
176
     1
290
     0
176
     1
 90
       13
176
     1
 40
0.0
176
     1
 90
        0
176
     1
290
     0
176
     1
290
     1
176
     1
290
     1
176
     1
290
     0
176
     1
290
     0
176
     1
290
     0
176
     1
290
     0
176
     1
290
     0
176
     1
290
     0
176
     1
 90
       50
176
     1
 40
0.0
176
     1
 40
1.0
176
     1
 90
        0
176
     1
 62
    18
420
        0
176
     1
 90
       50
176
     1
 90
        3
176
     1
 62
     5
420
      255
176
     1
290
     0
176
     1
 90
       50
176
     1
 90
       50
176
     1
 90
       50
176
     1
290
     0
176
     1
 90
       50
176
     1
 62
   256
176
     0
 40
1.0
176
     0
 90
        2
176
     1
  1
strokes_ogs.tif
176
     1
290
     0
176
     1
 40
1.0
176
     1
 40
1.0
176
     1
1001
ACAD
1000
AcDbSavedByObjectVersion
1070
     0
  0
VISUALSTYLE
  5
2C
102
{ACAD_REACTORS
330
29
102
}
330
29
100
AcDbVisualStyle
  2
Gouraud
 70
     2
177
     3
291
     1
 70
    58
 90
        2
176
     1
 90
        2
176
     1
 90
        1
176
     1
 90
        2
176
     1
 40
0.6
176
     1
 40
30.0
176
     1
 62
     7
420
 16777215
176
     1
 90
        0
176
     1
 90
        0
176
     1
 62
     7
176
     1
 62
   257
176
     1
 90
        1
176
     1
 90
        1
176
     1
 40
1.0
176
     1
 90
        0
176
     1
 62
     7
176
     1
 40
1.0
176
     1
 90
        1
176
     1
 90
        6
176
     1
 90
        2
176
     1
 62
     7
176
     1
 90
        5
176
     1
 90
        0
176
     1
 90
        0
176
     1
290
     0
176
     1
 90
       13
176
     1
 40
0.0
176
     1
 90
        0
176
     1
290
     0
176
     1
290
     1
176
     1
290
     1
176
     1
290
     0
176
     1
290
     0
176
     1
290
     0
176
     1
290
     0
176
     1
290
     0
176
     1
290
     0
176
     1
 90
       50
176
     1
 40
0.0
176
     1
 40
1.0
176
     1
 90
        0
176
     1
 62
    18
420
        0
176
     1
 90
       50
176
     1
 90
        3
176
     1
 62
     5
420
      255
176
     1
290
     0
176
     1
 90
       50
176
     1
 90
       50
176
     1
 90
       50
176
     1
290
     0
176
     1
 90
       50
176
     1
 62
   256
176
     0
 40
1.0
176
     0
 90
        2
176
     1
  1
strokes_ogs.tif
176
     1
290
     0
176
     1
 40
1.0
176
     1
 40
1.0
176
     1
1001
ACAD
1000
AcDbSavedByObjectVersion
1070
     0
  0
VISUALSTYLE
  5
2D
102
{ACAD_REACTORS
330
29
102
}
330
29
100
AcDbVisualStyle
  2
GouraudWithEdges
 70
     3
177
     3
291
     1
 70
    58
 90
        2
176
     1
 90
        2
176
     1
 90
        1
176
     1
 90
        2
176
     1
 40
0.6
176
     1
 40
30.0
176
     1
 62
     7
420
 16777215
176
     1
 90
        1
176
     1
 90
        0
176
     1
 62
     7
176
     1
 62
   257
176
     1
 90
        1
176
     1
 90
        1
176
     1
 40
1.0
176
     1
 90
        0
176
     1
 62
   257
176
     1
 40
1.0
176
     1
 90
        1
176
     1
 90
        6
176
     1
 90
        2
176
     1
 62
     7
176
     1
 90
        5
176
     1
 90
        0
176
     1
 90
        0
176
     1
290
     0
176
     1
 90
       13
176
     1
 40
0.0
176
     1
 90
        0
176
     1
290
     0
176
     1
290
     1
176
     1
290
     1
176
     1
290
     0
176
     1
290
     0
176
     1
290
     0
176
     1
290
     0
176
     1
290
     0
176
     1
290
     0
176
     1
 90
       50
176
     1
 40
0.0
176
     1
 40
1.0
176
     1
 90
        0
176
     1
 62
    18
420
        0
176
     1
 90
       50
176
     1
 90
        3
176
     1
 62
     5
420
      255
176
     1
290
     0
176
     1
 90
       50
176
     1
 90
       50
176
     1
 90
       50
176
     1
290
     0
176
     1
 90
       50
176
     1
 62
   256
176
     0
 40
1.0
176
     0
 90
        2
176
     1
  1
strokes_ogs.tif
176
     1
290
     0
176
     1
 40
1.0
176
     1
 40
1.0
176
     1
1001
ACAD
1000
AcDbSavedByObjectVersion
1070
     0
  0
VISUALSTYLE
  5
31
102
{ACAD_REACTORS
330
29
102
}
330
29
100
AcDbVisualStyle
  2
Hidden
 70
     6
177
     3
291
     0
 70
    58
 90
        1
176
     1
 90
        2
176
     1
 90
        2
176
     1
 90
        0
176
     1
 40
0.6
176
     1
 40
30.0
176
     1
 62
     7
420
 16777215
176
     1
 90
        2
176
     1
 90
        2
176
     1
 62
     7
176
     1
 62
   257
176
     1
 90
        2
176
     1
 90
        1
176
     1
 40
40.0
176
     1
 90
        0
176
     1
 62
   257
176
     1
 40
1.0
176
     1
 90
        1
176
     1
 90
        6
176
     1
 90
        2
176
     1
 62
     7
176
     1
 90
        3
176
     1
 90
        0
176
     1
 90
        0
176
     1
290
     0
176
     1
 90
        1
176
     1
 40
0.0
176
     1
 90
        0
176
     1
290
     0
176
     1
290
     1
176
     1
290
     1
176
     1
290
     0
176
     1
290
     0
176
     1
290
     0
176
     1
290
     0
176
     1
290
     0
176
     1
290
     0
176
     1
 90
       50
176
     1
 40
0.0
176
     1
 40
1.0
176
     1
 90
        0
176
     1
 62
    18
420
        0
176
     1
 90
       50
176
     1
 90
        3
176
     1
 62
     5
420
      255
176
     1
290
     0
176
     1
 90
       50
176
     1
 90
       50
176
     1
 90
       50
176
     1
290
     0
176
     1
 90
       50
176
     1
 62
   256
176
     0
 40
1.0
176
     0
 90
        2
176
     1
  1
strokes_ogs.tif
176
     1
290
     0
176
     1
 40
1.0
176
     1
 40
1.0
176
     1
1001
ACAD
1000
AcDbSavedByObjectVersion
1070
     0
  0
VISUALSTYLE
  5
3F
102
{ACAD_REACTORS
330
29
102
}
330
29
100
AcDbVisualStyle
  2
JitterOff
 70
    20
177
     3
291
     1
 70
    58
 90
        2
176
     0
 90
        2
176
     0
 90
        0
176
     0
 90
        0
176
     0
 40
0.6
176
     0
 40
30.0
176
     0
 62
     7
420
 16777215
176
     0
 90
        1
176
     0
 90
        4
176
     0
 62
     7
176
     0
 62
   257
176
     0
 90
        1
176
     0
 90
        1
176
     0
 40
1.0
176
     0
 90
       10
176
     2
 62
     7
176
     0
 40
1.0
176
     0
 90
        1
176
     0
 90
        6
176
     0
 90
        2
176
     0
 62
     7
176
     0
 90
        5
176
     0
 90
        0
176
     0
 90
        0
176
     0
290
     0
176
     0
 90
        1
176
     0
 40
0.0
176
     0
 90
        0
176
     0
290
     0
176
     0
290
     1
176
     0
290
     1
176
     0
290
     0
176
     0
290
     0
176
     0
290
     0
176
     0
290
     0
176
     0
290
     0
176
     0
290
     0
176
     0
 90
       50
176
     0
 40
0.0
176
     0
 40
1.0
176
     0
 90
        0
176
     0
 62
    18
420
        0
176
     0
 90
       50
176
     0
 90
        3
176
     0
 62
     5
420
      255
176
     0
290
     0
176
     0
 90
       50
176
     0
 90
       50
176
     0
 90
       50
176
     0
290
     0
176
     0
 90
       50
176
     0
 62
   256
176
     0
 40
1.0
176
     0
 90
        2
176
     0
  1
strokes_ogs.tif
176
     0
290
     0
176
     0
 40
1.0
176
     0
 40
1.0
176
     0
1001
ACAD
1000
AcDbSavedByObjectVersion
1070
     0
  0
VISUALSTYLE
  5
37
102
{ACAD_REACTORS
330
29
102
}
330
29
100
AcDbVisualStyle
  2
Linepattern
 70
    14
177
     3
291
     1
 70
    58
 90
        2
176
     1
 90
        2
176
     1
 90
        0
176
     1
 90
        0
176
     1
 40
0.6
176
     1
 40
30.0
176
     1
 62
     7
420
 16777215
176
     1
 90
        1
176
     1
 90
        4
176
     1
 62
     7
176
     1
 62
   257
176
     1
 90
        7
176
     1
 90
        7
176
     1
 40
1.0
176
     1
 90
        8
176
     1
 62
     7
176
     1
 40
1.0
176
     1
 90
        1
176
     1
 90
        6
176
     1
 90
        2
176
     1
 62
     7
176
     1
 90
        5
176
     1
 90
        0
176
     1
 90
        0
176
     1
290
     0
176
     1
 90
        1
176
     1
 40
0.0
176
     1
 90
        0
176
     1
290
     0
176
     1
290
     1
176
     1
290
     1
176
     1
290
     0
176
     1
290
     0
176
     1
290
     0
176
     1
290
     0
176
     1
290
     0
176
     1
290
     0
176
     1
 90
       50
176
     1
 40
0.0
176
     1
 40
1.0
176
     1
 90
        0
176
     1
 62
    18
420
        0
176
     1
 90
       50
176
     1
 90
        3
176
     1
 62
     5
420
      255
176
     1
290
     0
176
     1
 90
       50
176
     1
 90
       50
176
     1
 90
       50
176
     1
290
     0
176
     1
 90
       50
176
     1
 62
   256
176
     0
 40
1.0
176
     0
 90
        2
176
     1
  1
strokes_ogs.tif
176
     1
290
     0
176
     1
 40
1.0
176
     1
 40
1.0
176
     1
1001
ACAD
1000
AcDbSavedByObjectVersion
1070
     0
  0
VISUALSTYLE
  5
40
102
{ACAD_REACTORS
330
29
102
}
330
29
100
AcDbVisualStyle
  2
OverhangOff
 70
    21
177
     3
291
     1
 70
    58
 90
        2
176
     0
 90
        2
176
     0
 90
        0
176
     0
 90
        0
176
     0
 40
0.6
176
     0
 40
30.0
176
     0
 62
     7
420
 16777215
176
     0
 90
        1
176
     0
 90
        4
176
     0
 62
     7
176
     0
 62
   257
176
     0
 90
        1
176
     0
 90
        1
176
     0
 40
1.0
176
     0
 90
        9
176
     2
 62
     7
176
     0
 40
1.0
176
     0
 90
        1
176
     0
 90
        6
176
     0
 90
        2
176
     0
 62
     7
176
     0
 90
        5
176
     0
 90
        0
176
     0
 90
        0
176
     0
290
     0
176
     0
 90
        1
176
     0
 40
0.0
176
     0
 90
        0
176
     0
290
     0
176
     0
290
     1
176
     0
290
     1
176
     0
290
     0
176
     0
290
     0
176
     0
290
     0
176
     0
290
     0
176
     0
290
     0
176
     0
290
     0
176
     0
 90
       50
176
     0
 40
0.0
176
     0
 40
1.0
176
     0
 90
        0
176
     0
 62
    18
420
        0
176
     0
 90
       50
176
     0
 90
        3
176
     0
 62
     5
420
      255
176
     0
290
     0
176
     0
 90
       50
176
     0
 90
       50
176
     0
 90
       50
176
     0
290
     0
176
     0
 90
       50
176
     0
 62
   256
176
     0
 40
1.0
176
     0
 90
        2
176
     0
  1
strokes_ogs.tif
176
     0
290
     0
176
     0
 40
1.0
176
     0
 40
1.0
176
     0
1001
ACAD
1000
AcDbSavedByObjectVersion
1070
     0
  0
VISUALSTYLE
  5
33
102
{ACAD_REACTORS
330
29
102
}
330
29
100
AcDbVisualStyle
  2
Realistic
 70
     8
177
     3
291
     0
 70
    58
 90
        2
176
     1
 90
        3
176
     1
 90
        0
176
     1
 90
        2
176
     1
 40
0.6
176
     1
 40
30.0
176
     1
 62
     7
420
 16777215
176
     1
 90
        0
176
     1
 90
        0
176
     1
 62
     7
176
     1
 62
   257
176
     1
 90
        1
176
     1
 90
        1
176
     1
 40
1.0
176
     1
 90
        8
176
     1
 62
   257
176
     1
 40
1.0
176
     1
 90
        1
176
     1
 90
        6
176
     1
 90
        2
176
     1
 62
     7
176
     1
 90
        3
176
     1
 90
        0
176
     1
 90
        0
176
     1
290
     0
176
     1
 90
       13
176
     1
 40
0.0
176
     1
 90
        0
176
     1
290
     0
176
     1
290
     1
176
     1
290
     1
176
     1
290
     0
176
     1
290
     0
176
     1
290
     0
176
     1
290
     0
176
     1
290
     0
176
     1
290
     0
176
     1
 90
       50
176
     1
 40
0.0
176
     1
 40
1.0
176
     1
 90
        0
176
     1
 62
    18
420
        0
176
     1
 90
       50
176
     1
 90
        3
176
     1
 62
     5
420
      255
176
     1
290
     0
176
     1
 90
       50
176
     1
 90
       50
176
     1
 90
       50
176
     1
290
     0
176
     1
 90
       50
176
     1
 62
   256
176
     0
 40
1.0
176
     0
 90
        2
176
     1
  1
strokes_ogs.tif
176
     1
290
     0
176
     1
 40
1.0
176
     1
 40
1.0
176
     1
1001
ACAD
1000
AcDbSavedByObjectVersion
1070
     0
  0
VISUALSTYLE
  5
3E
102
{ACAD_REACTORS
330
29
102
}
330
29
100
AcDbVisualStyle
  2
Shaded
 70
    27
177
     3
291
     0
 70
    58
 90
        2
176
     1
 90
        2
176
     1
 90
        1
176
     1
 90
        2
176
     1
 40
0.6
176
     1
 40
30.0
176
     1
 62
     7
420
 16777215
176
     1
 90
        0
176
     1
 90
        4
176
     1
 62
     7
176
     1
 62
   257
176
     1
 90
        1
176
     1
 90
        1
176
     1
 40
1.0
176
     1
 90
        8
176
     1
 62
   257
176
     1
 40
1.0
176
     1
 90
        1
176
     1
 90
        6
176
     1
 90
        2
176
     1
 62
     8
420
  7895160
176
     1
 90
        3
176
     1
 90
        0
176
     1
 90
        0
176
     1
290
     0
176
     1
 90
        5
176
     1
 40
0.0
176
     1
 90
        0
176
     1
290
     0
176
     1
290
     1
176
     1
290
     1
176
     1
290
     0
176
     1
290
     0
176
     1
290
     0
176
     1
290
     0
176
     1
290
     0
176
     1
290
     0
176
     1
 90
       50
176
     1
 40
0.0
176
     1
 40
1.0
176
     1
 90
        0
176
     1
 62
    18
420
        0
176
     1
 90
       50
176
     1
 90
        3
176
     1
 62
     5
420
      255
176
     1
290
     0
176
     1
 90
       50
176
     1
 90
       50
176
     1
 90
       50
176
     1
290
     0
176
     1
 90
       50
176
     1
 62
   256
176
     0
 40
1.0
176
     0
 90
        2
176
     1
  1
strokes_ogs.tif
176
     1
290
     0
176
     1
 40
1.0
176
     1
 40
1.0
176
     1
1001
ACAD
1000
AcDbSavedByObjectVersion
1070
     0
  0
VISUALSTYLE
  5
3D
102
{ACAD_REACTORS
330
29
102
}
330
29
100
AcDbVisualStyle
  2
Shaded with edges
 70
    26
177
     3
291
     0
 70
    58
 90
        2
176
     1
 90
        2
176
     1
 90
        1
176
     1
 90
        2
176
     1
 40
0.6
176
     1
 40
30.0
176
     1
 62
     7
420
 16777215
176
     1
 90
        1
176
     1
 90
        2
176
     1
 62
     7
176
     1
 62
   257
176
     1
 90
        2
176
     1
 90
        1
176
     1
 40
1.0
176
     1
 90
        8
176
     1
 62
   257
176
     1
 40
1.0
176
     1
 90
        1
176
     1
 90
        6
176
     1
 90
        2
176
     1
 62
     7
176
     1
 90
        3
176
     1
 90
        0
176
     1
 90
        0
176
     1
290
     0
176
     1
 90
        5
176
     1
 40
0.0
176
     1
 90
        0
176
     1
290
     0
176
     1
290
     1
176
     1
290
     1
176
     1
290
     0
176
     1
290
     0
176
     1
290
     0
176
     1
290
     0
176
     1
290
     0
176
     1
290
     0
176
     1
 90
       50
176
     1
 40
0.0
176
     1
 40
1.0
176
     1
 90
        0
176
     1
 62
    18
420
        0
176
     1
 90
       50
176
     1
 90
        3
176
     1
 62
     5
420
      255
176
     1
290
     0
176
     1
 90
       50
176
     1
 90
       50
176
     1
 90
       50
176
     1
290
     0
176
     1
 90
       50
176
     1
 62
   256
176
     0
 40
1.0
176
     0
 90
        2
176
     1
  1
strokes_ogs.tif
176
     1
290
     0
176
     1
 40
1.0
176
     1
 40
1.0
176
     1
1001
ACAD
1000
AcDbSavedByObjectVersion
1070
     0
  0
VISUALSTYLE
  5
3A
102
{ACAD_REACTORS
330
29
102
}
330
29
100
AcDbVisualStyle
  2
Shades of Gray
 70
    23
177
     3
291
     0
 70
    58
 90
        2
176
     1
 90
        2
176
     1
 90
        3
176
     1
 90
        0
176
     1
 40
0.6
176
     1
 40
30.0
176
     1
 62
     7
420
 16777215
176
     1
 90
        2
176
     1
 90
        2
176
     1
 62
     7
176
     1
 62
     7
176
     1
 90
        1
176
     1
 90
        1
176
     1
 40
40.0
176
     1
 90
        8
176
     1
 62
     7
176
     1
 40
1.0
176
     1
 90
        1
176
     1
 90
        6
176
     1
 90
        2
176
     1
 62
     7
176
     1
 90
        3
176
     1
 90
        0
176
     1
 90
        0
176
     1
290
     0
176
     1
 90
        1
176
     1
 40
0.0
176
     1
 90
        0
176
     1
290
     0
176
     1
290
     1
176
     1
290
     1
176
     1
290
     0
176
     1
290
     0
176
     1
290
     0
176
     1
290
     0
176
     1
290
     0
176
     1
290
     0
176
     1
 90
       50
176
     1
 40
0.0
176
     1
 40
1.0
176
     1
 90
        0
176
     1
 62
    18
420
        0
176
     1
 90
       50
176
     1
 90
        3
176
     1
 62
     5
420
      255
176
     1
290
     0
176
     1
 90
       50
176
     1
 90
       50
176
     1
 90
       50
176
     1
290
     0
176
     1
 90
       50
176
     1
 62
   256
176
     0
 40
1.0
176
     0
 90
        2
176
     1
  1
strokes_ogs.tif
176
     1
290
     0
176
     1
 40
1.0
176
     1
 40
1.0
176
     1
1001
ACAD
1000
AcDbSavedByObjectVersion
1070
     0
  0
VISUALSTYLE
  5
3B
102
{ACAD_REACTORS
330
29
102
}
330
29
100
AcDbVisualStyle
  2
Sketchy
 70
    24
177
     3
291
     0
 70
    58
 90
        1
176
     1
 90
        2
176
     1
 90
        2
176
     1
 90
        0
176
     1
 40
0.6
176
     1
 40
30.0
176
     1
 62
     7
420
 16777215
176
     1
 90
        2
176
     1
 90
        2
176
     1
 62
     7
176
     1
 62
     7
176
     1
 90
        1
176
     1
 90
        1
176
     1
 40
40.0
176
     1
 90
       11
176
     1
 62
     7
176
     1
 40
1.0
176
     1
 90
        1
176
     1
 90
        6
176
     1
 90
        2
176
     1
 62
     7
176
     1
 90
        6
176
     1
 90
        0
176
     1
 90
        0
176
     1
290
     0
176
     1
 90
        1
176
     1
 40
0.0
176
     1
 90
        0
176
     1
290
     0
176
     1
290
     1
176
     1
290
     1
176
     1
290
     0
176
     1
290
     0
176
     1
290
     0
176
     1
290
     0
176
     1
290
     0
176
     1
290
     0
176
     1
 90
       50
176
     1
 40
0.0
176
     1
 40
1.0
176
     1
 90
        0
176
     1
 62
    18
420
        0
176
     1
 90
       50
176
     1
 90
        3
176
     1
 62
     5
420
      255
176
     1
290
     0
176
     1
 90
       50
176
     1
 90
       50
176
     1
 90
       50
176
     1
290
     0
176
     1
 90
       50
176
     1
 62
   256
176
     0
 40
1.0
176
     0
 90
        2
176
     1
  1
strokes_ogs.tif
176
     1
290
     0
176
     1
 40
1.0
176
     1
 40
1.0
176
     1
1001
ACAD
1000
AcDbSavedByObjectVersion
1070
     0
  0
VISUALSTYLE
  5
36
102
{ACAD_REACTORS
330
29
102
}
330
29
100
AcDbVisualStyle
  2
Thicken
 70
    13
177
     3
291
     1
 70
    58
 90
        2
176
     1
 90
        2
176
     1
 90
        0
176
     1
 90
        0
176
     1
 40
0.6
176
     1
 40
30.0
176
     1
 62
     7
420
 16777215
176
     1
 90
        1
176
     1
 90
        4
176
     1
 62
     7
176
     1
 62
   257
176
     1
 90
        1
176
     1
 90
        1
176
     1
 40
1.0
176
     1
 90
       12
176
     1
 62
     7
176
     1
 40
1.0
176
     1
 90
        1
176
     1
 90
        6
176
     1
 90
        2
176
     1
 62
     7
176
     1
 90
        5
176
     1
 90
        0
176
     1
 90
        0
176
     1
290
     0
176
     1
 90
        1
176
     1
 40
0.0
176
     1
 90
        0
176
     1
290
     0
176
     1
290
     1
176
     1
290
     1
176
     1
290
     0
176
     1
290
     0
176
     1
290
     0
176
     1
290
     0
176
     1
290
     0
176
     1
290
     0
176
     1
 90
       50
176
     1
 40
0.0
176
     1
 40
1.0
176
     1
 90
        0
176
     1
 62
    18
420
        0
176
     1
 90
       50
176
     1
 90
        3
176
     1
 62
     5
420
      255
176
     1
290
     0
176
     1
 90
       50
176
     1
 90
       50
176
     1
 90
       50
176
     1
290
     0
176
     1
 90
       50
176
     1
 62
   256
176
     0
 40
1.0
176
     0
 90
        2
176
     1
  1
strokes_ogs.tif
176
     1
290
     0
176
     1
 40
1.0
176
     1
 40
1.0
176
     1
1001
ACAD
1000
AcDbSavedByObjectVersion
1070
     0
  0
VISUALSTYLE
  5
30
102
{ACAD_REACTORS
330
29
102
}
330
29
100
AcDbVisualStyle
  2
Wireframe
 70
     5
177
     3
291
     0
 70
    58
 90
        0
176
     1
 90
        2
176
     1
 90
        0
176
     1
 90
        0
176
     1
 40
0.6
176
     1
 40
30.0
176
     1
 62
     7
420
 16777215
176
     1
 90
        1
176
     1
 90
        4
176
     1
 62
     7
176
     1
 62
   257
176
     1
 90
        1
176
     1
 90
        1
176
     1
 40
1.0
176
     1
 90
        0
176
     1
 62
   257
176
     1
 40
1.0
176
     1
 90
        1
176
     1
 90
        6
176
     1
 90
        2
176
     1
 62
     7
176
     1
 90
        3
176
     1
 90
        0
176
     1
 90
        0
176
     1
290
     0
176
     1
 90
        1
176
     1
 40
0.0
176
     1
 90
        0
176
     1
290
     0
176
     1
290
     1
176
     1
290
     1
176
     1
290
     0
176
     1
290
     0
176
     1
290
     0
176
     1
290
     0
176
     1
290
     0
176
     1
290
     0
176
     1
 90
       50
176
     1
 40
0.0
176
     1
 40
1.0
176
     1
 90
        0
176
     1
 62
    18
420
        0
176
     1
 90
       50
176
     1
 90
        3
176
     1
 62
     5
420
      255
176
     1
290
     0
176
     1
 90
       50
176
     1
 90
       50
176
     1
 90
       50
176
     1
290
     0
176
     1
 90
       50
176
     1
 62
   256
176
     0
 40
1.0
176
     0
 90
        2
176
     1
  1
strokes_ogs.tif
176
     1
290
     0
176
     1
 40
1.0
176
     1
 40
1.0
176
     1
1001
ACAD
1000
AcDbSavedByObjectVersion
1070
     0
  0
VISUALSTYLE
  5
3C
102
{ACAD_REACTORS
330
29
102
}
330
29
100
AcDbVisualStyle
  2
X-Ray
 70
    25
177
     3
291
     0
 70
    58
 90
        2
176
     1
 90
        2
176
     1
 90
        1
176
     1
 90
        1
176
     1
 40
0.5
176
     1
 40
30.0
176
     1
 62
     7
420
 16777215
176
     1
 90
        1
176
     1
 90
        0
176
     1
 62
     7
176
     1
 62
   257
176
     1
 90
        1
176
     1
 90
        1
176
     1
 40
1.0
176
     1
 90
        8
176
     1
 62
     7
176
     1
 40
1.0
176
     1
 90
        1
176
     1
 90
        6
176
     1
 90
        2
176
     1
 62
     7
176
     1
 90
        3
176
     1
 90
        0
176
     1
 90
        0
176
     1
290
     0
176
     1
 90
       13
176
     1
 40
0.0
176
     1
 90
        0
176
     1
290
     0
176
     1
290
     1
176
     1
290
     1
176
     1
290
     0
176
     1
290
     0
176
     1
290
     0
176
     1
290
     0
176
     1
290
     0
176
     1
290
     0
176
     1
 90
       50
176
     1
 40
0.0
176
     1
 40
1.0
176
     1
 90
        0
176
     1
 62
    18
420
        0
176
     1
 90
       50
176
     1
 90
        3
176
     1
 62
     5
420
      255
176
     1
290
     0
176
     1
 90
       50
176
     1
 90
       50
176
     1
 90
       50
176
     1
290
     0
176
     1
 90
       50
176
     1
 62
   256
176
     0
 40
1.0
176
     0
 90
        2
176
     1
  1
strokes_ogs.tif
176
     1
290
     0
176
     1
 40
1.0
176
     1
 40
1.0
176
     1
1001
ACAD
1000
AcDbSavedByObjectVersion
1070
     0
  0
DICTIONARYVAR
  5
192
102
{ACAD_REACTORS
330
18D
102
}
330
18D
100
DictionaryVariables
280
     0
  1
1:1
  0
DICTIONARYVAR
  5
18F
102
{ACAD_REACTORS
330
18D
102
}
330
18D
100
DictionaryVariables
280
     0
  1
STANDARD
  0
DICTIONARYVAR
  5
18E
102
{ACAD_REACTORS
330
18D
102
}
330
18D
100
DictionaryVariables
280
     0
  1
STANDARD
  0
DICTIONARYVAR
  5
190
102
{ACAD_REACTORS
330
18D
102
}
330
18D
100
DictionaryVariables
280
     0
  1
Imperial24
  0
DICTIONARYVAR
  5
191
102
{ACAD_REACTORS
330
18D
102
}
330
18D
100
DictionaryVariables
280
     0
  1
Imperial24
  0
DICTIONARY
  5
198
330
6B
100
AcDbDictionary
280
     1
281
     1
  3
ACAD_XREC_ROUNDTRIP
360
199
  0
DICTIONARY
  5
1A
330
19
100
AcDbDictionary
280
     1
281
     1
  3
BUMPTILE
360
1C
  3
DIFFUSETILE
360
1B
  3
OPACITYTILE
360
1F
  3
REFLECTIONTILE
360
1E
  3
REFRACTIONTILE
360
20
  3
SPECULARTILE
360
1D
  0
DICTIONARY
  5
12
330
11
100
AcDbDictionary
280
     1
281
     1
  3
BUMPTILE
360
14
  3
DIFFUSETILE
360
13
  3
OPACITYTILE
360
17
  3
REFLECTIONTILE
360
16
  3
REFRACTIONTILE
360
18
  3
SPECULARTILE
360
15
  0
DICTIONARY
  5
22
330
21
100
AcDbDictionary
280
     1
281
     1
  3
BUMPTILE
360
24
  3
DIFFUSETILE
360
23
  3
OPACITYTILE
360
27
  3
REFLECTIONTILE
360
26
  3
REFRACTIONTILE
360
28
  3
SPECULARTILE
360
25
  0
DICTIONARY
  5
196
330
69
100
AcDbDictionary
280
     1
281
     1
  3
ACAD_XREC_ROUNDTRIP
360
197
  0
DICTIONARY
  5
193
330
65
100
AcDbDictionary
280
     1
281
     1
  3
ACAD_ROUNDTRIP_2008_TABLESTYLE_CELLSTYLEMAP
360
194
  0
XRECORD
  5
199
102
{ACAD_REACTORS
330
198
102
}
330
198
100
AcDbXrecord
280
     1
102
DISPLAYNAME
  1
Imperial24
102
FLAGS
 90
        0
  0
XRECORD
  5
1C
102
{ACAD_REACTORS
330
1A
102
}
330
1A
100
AcDbXrecord
280
     1
270
     1
271
     1
  0
XRECORD
  5
1B
102
{ACAD_REACTORS
330
1A
102
}
330
1A
100
AcDbXrecord
280
     1
270
     1
271
     1
  0
XRECORD
  5
1F
102
{ACAD_REACTORS
330
1A
102
}
330
1A
100
AcDbXrecord
280
     1
270
     1
271
     1
  0
XRECORD
  5
1E
102
{ACAD_REACTORS
330
1A
102
}
330
1A
100
AcDbXrecord
280
     1
270
     1
271
     1
  0
XRECORD
  5
20
102
{ACAD_REACTORS
330
1A
102
}
330
1A
100
AcDbXrecord
280
     1
270
     1
271
     1
  0
XRECORD
  5
1D
102
{ACAD_REACTORS
330
1A
102
}
330
1A
100
AcDbXrecord
280
     1
270
     1
271
     1
  0
XRECORD
  5
14
102
{ACAD_REACTORS
330
12
102
}
330
12
100
AcDbXrecord
280
     1
270
     1
271
     1
  0
XRECORD
  5
13
102
{ACAD_REACTORS
330
12
102
}
330
12
100
AcDbXrecord
280
     1
270
     1
271
     1
  0
XRECORD
  5
17
102
{ACAD_REACTORS
330
12
102
}
330
12
100
AcDbXrecord
280
     1
270
     1
271
     1
  0
XRECORD
  5
16
102
{ACAD_REACTORS
330
12
102
}
330
12
100
AcDbXrecord
280
     1
270
     1
271
     1
  0
XRECORD
  5
18
102
{ACAD_REACTORS
330
12
102
}
330
12
100
AcDbXrecord
280
     1
270
     1
271
     1
  0
XRECORD
  5
15
102
{ACAD_REACTORS
330
12
102
}
330
12
100
AcDbXrecord
280
     1
270
     1
271
     1
  0
XRECORD
  5
24
102
{ACAD_REACTORS
330
22
102
}
330
22
100
AcDbXrecord
280
     1
270
     1
271
     1
  0
XRECORD
  5
23
102
{ACAD_REACTORS
330
22
102
}
330
22
100
AcDbXrecord
280
     1
270
     1
271
     1
  0
XRECORD
  5
27
102
{ACAD_REACTORS
330
22
102
}
330
22
100
AcDbXrecord
280
     1
270
     1
271
     1
  0
XRECORD
  5
26
102
{ACAD_REACTORS
330
22
102
}
330
22
100
AcDbXrecord
280
     1
270
     1
271
     1
  0
XRECORD
  5
28
102
{ACAD_REACTORS
330
22
102
}
330
22
100
AcDbXrecord
280
     1
270
     1
271
     1
  0
XRECORD
  5
25
102
{ACAD_REACTORS
330
22
102
}
330
22
100
AcDbXrecord
280
     1
270
     1
271
     1
  0
XRECORD
  5
197
102
{ACAD_REACTORS
330
196
102
}
330
196
100
AcDbXrecord
280
     1
102
DISPLAYNAME
  1
Imperial24
102
FLAGS
 90
        0
  0
CELLSTYLEMAP
  5
194
102
{ACAD_REACTORS
330
193
102
}
330
193
100
AcDbCellStyleMap
 90
        3
300
CELLSTYLE
  1
TABLEFORMAT_BEGIN
 90
        5
170
     1
 91
        0
 92
    32768
 62
   257
 93
        1
300
CONTENTFORMAT
  1
CONTENTFORMAT_BEGIN
 90
        0
 91
        0
 92
      512
 93
        0
300

 40
0.0
140
1.0
 94
        5
 62
     0
340
55
144
0.25
309
CONTENTFORMAT_END
171
     0
 94
        0
309
TABLEFORMAT_END
  1
CELLSTYLE_BEGIN
 90
        1
 91
        1
300
_TITLE
309
CELLSTYLE_END
300
CELLSTYLE
  1
TABLEFORMAT_BEGIN
 90
        5
170
     1
 91
        0
 92
        0
 62
   257
 93
        1
300
CONTENTFORMAT
  1
CONTENTFORMAT_BEGIN
 90
        0
 91
        0
 92
      512
 93
        0
300

 40
0.0
140
1.0
 94
        5
 62
     0
340
55
144
0.18
309
CONTENTFORMAT_END
171
     0
 94
        0
309
TABLEFORMAT_END
  1
CELLSTYLE_BEGIN
 90
        2
 91
        1
300
_HEADER
309
CELLSTYLE_END
300
CELLSTYLE
  1
TABLEFORMAT_BEGIN
 90
        5
170
     1
 91
        0
 92
        0
 62
   257
 93
        1
300
CONTENTFORMAT
  1
CONTENTFORMAT_BEGIN
 90
        0
 91
        0
 92
      512
 93
        0
300

 40
0.0
140
1.0
 94
        2
 62
     0
340
55
144
0.18
309
CONTENTFORMAT_END
171
     0
 94
        0
309
TABLEFORMAT_END
  1
CELLSTYLE_BEGIN
 90
        3
 91
        2
300
_DATA
309
CELLSTYLE_END
  0
ENDSEC
  0
EOF
