999
"DXF R12 Output" (www.mydxf.blogspot.com)
 0 
SECTION
 2 
HEADER
 9 
$ACADVER
 1 
AC1009
 9 
$EXTMIN
 10 
 0 
 20 
 0 
 9 
$EXTMAX
 10 
 8.5 
 20 
 11 
 0 
ENDSEC
 0 
SECTION
 2 
ENTITIES
0
LINE
8
Layer 1
10
1183.170000
20
840.551000
11
1313.470000
21
840.551000
0
LINE
8
Layer 1
10
1313.470000
20
840.551000
11
1183.170000
21
840.551000
0
LINE
8
Layer 1
10
1313.470000
20
840.551000
11
1317.711445
21
854.516064
0
LINE
8
Layer 1
10
1317.711445
20
854.516064
11
1322.554062
21
868.675766
0
LINE
8
Layer 1
10
1322.554062
20
868.675766
11
1328.032773
21
882.941615
0
LINE
8
Layer 1
10
1328.032773
20
882.941615
11
1331.021577
21
890.086693
0
LINE
8
Layer 1
10
1331.021577
20
890.086693
11
1334.182500
21
897.225125
0
LINE
8
Layer 1
10
1334.182500
20
897.225125
11
1337.519907
21
904.345850
0
LINE
8
Layer 1
10
1337.519907
20
904.345850
11
1341.038164
21
911.437807
0
LINE
8
Layer 1
10
1341.038164
20
911.437807
11
1344.741636
21
918.489934
0
LINE
8
Layer 1
10
1344.741636
20
918.489934
11
1348.634687
21
925.491172
0
LINE
8
Layer 1
10
1348.634687
20
925.491172
11
1352.721685
21
932.430458
0
LINE
8
Layer 1
10
1352.721685
20
932.430458
11
1357.006992
21
939.296732
0
LINE
8
Layer 1
10
1357.006992
20
939.296732
11
1361.494976
21
946.078933
0
LINE
8
Layer 1
10
1361.494976
20
946.078933
11
1366.190000
21
952.766000
0
LINE
8
Layer 1
10
1366.190000
20
952.766000
11
1370.644464
21
958.674710
0
LINE
8
Layer 1
10
1370.644464
20
958.674710
11
1375.256846
21
964.532463
0
LINE
8
Layer 1
10
1375.256846
20
964.532463
11
1380.035004
21
970.332505
0
LINE
8
Layer 1
10
1380.035004
20
970.332505
11
1384.986797
21
976.068082
0
LINE
8
Layer 1
10
1384.986797
20
976.068082
11
1390.120084
21
981.732440
0
LINE
8
Layer 1
10
1390.120084
20
981.732440
11
1395.442725
21
987.318824
0
LINE
8
Layer 1
10
1395.442725
20
987.318824
11
1400.962577
21
992.820481
0
LINE
8
Layer 1
10
1400.962577
20
992.820481
11
1406.687500
21
998.230656
0
LINE
8
Layer 1
10
1406.687500
20
998.230656
11
1412.625353
21
1003.542596
0
LINE
8
Layer 1
10
1412.625353
20
1003.542596
11
1418.783994
21
1008.749547
0
LINE
8
Layer 1
10
1418.783994
20
1008.749547
11
1425.171283
21
1013.844755
0
LINE
8
Layer 1
10
1425.171283
20
1013.844755
11
1431.795078
21
1018.821465
0
LINE
8
Layer 1
10
1431.795078
20
1018.821465
11
1438.663239
21
1023.672923
0
LINE
8
Layer 1
10
1438.663239
20
1023.672923
11
1445.783623
21
1028.392376
0
LINE
8
Layer 1
10
1445.783623
20
1028.392376
11
1453.164091
21
1032.973070
0
LINE
8
Layer 1
10
1453.164091
20
1032.973070
11
1460.812500
21
1037.408250
0
LINE
8
Layer 1
10
1460.812500
20
1037.408250
11
1468.736710
21
1041.691162
0
LINE
8
Layer 1
10
1468.736710
20
1041.691162
11
1476.944580
21
1045.815053
0
LINE
8
Layer 1
10
1476.944580
20
1045.815053
11
1485.443969
21
1049.773168
0
LINE
8
Layer 1
10
1485.443969
20
1049.773168
11
1494.242734
21
1053.558754
0
LINE
8
Layer 1
10
1494.242734
20
1053.558754
11
1503.348737
21
1057.165056
0
LINE
8
Layer 1
10
1503.348737
20
1057.165056
11
1512.769834
21
1060.585320
0
LINE
8
Layer 1
10
1512.769834
20
1060.585320
11
1522.513885
21
1063.812792
0
LINE
8
Layer 1
10
1522.513885
20
1063.812792
11
1532.588750
21
1066.840719
0
LINE
8
Layer 1
10
1532.588750
20
1066.840719
11
1543.002286
21
1069.662346
0
LINE
8
Layer 1
10
1543.002286
20
1069.662346
11
1553.762354
21
1072.270918
0
LINE
8
Layer 1
10
1553.762354
20
1072.270918
11
1564.876810
21
1074.659684
0
LINE
8
Layer 1
10
1564.876810
20
1074.659684
11
1576.353516
21
1076.821887
0
LINE
8
Layer 1
10
1576.353516
20
1076.821887
11
1588.200328
21
1078.750774
0
LINE
8
Layer 1
10
1588.200328
20
1078.750774
11
1600.425107
21
1080.439591
0
LINE
8
Layer 1
10
1600.425107
20
1080.439591
11
1613.035712
21
1081.881585
0
LINE
8
Layer 1
10
1613.035712
20
1081.881585
11
1626.040000
21
1083.070000
0
LINE
8
Layer 1
10
1626.040000
20
1083.070000
11
1653.150000
21
1211.120000
0
LINE
8
Layer 1
10
1653.150000
20
1211.120000
11
1635.199851
21
1210.406112
0
LINE
8
Layer 1
10
1635.199851
20
1210.406112
11
1617.640798
21
1209.261436
0
LINE
8
Layer 1
10
1617.640798
20
1209.261436
11
1600.471186
21
1207.696451
0
LINE
8
Layer 1
10
1600.471186
20
1207.696451
11
1583.689355
21
1205.721641
0
LINE
8
Layer 1
10
1583.689355
20
1205.721641
11
1567.293651
21
1203.347484
0
LINE
8
Layer 1
10
1567.293651
20
1203.347484
11
1551.282415
21
1200.584463
0
LINE
8
Layer 1
10
1551.282415
20
1200.584463
11
1535.653990
21
1197.443058
0
LINE
8
Layer 1
10
1535.653990
20
1197.443058
11
1520.406719
21
1193.933750
0
LINE
8
Layer 1
10
1520.406719
20
1193.933750
11
1505.538945
21
1190.067020
0
LINE
8
Layer 1
10
1505.538945
20
1190.067020
11
1491.049011
21
1185.853350
0
LINE
8
Layer 1
10
1491.049011
20
1185.853350
11
1476.935260
21
1181.303219
0
LINE
8
Layer 1
10
1476.935260
20
1181.303219
11
1463.196035
21
1176.427109
0
LINE
8
Layer 1
10
1463.196035
20
1176.427109
11
1449.829679
21
1171.235502
0
LINE
8
Layer 1
10
1449.829679
20
1171.235502
11
1436.834534
21
1165.738877
0
LINE
8
Layer 1
10
1436.834534
20
1165.738877
11
1424.208943
21
1159.947716
0
LINE
8
Layer 1
10
1424.208943
20
1159.947716
11
1411.951250
21
1153.872500
0
LINE
8
Layer 1
10
1411.951250
20
1153.872500
11
1400.059797
21
1147.523710
0
LINE
8
Layer 1
10
1400.059797
20
1147.523710
11
1388.532927
21
1140.911826
0
LINE
8
Layer 1
10
1388.532927
20
1140.911826
11
1377.368983
21
1134.047330
0
LINE
8
Layer 1
10
1377.368983
20
1134.047330
11
1366.566309
21
1126.940703
0
LINE
8
Layer 1
10
1366.566309
20
1126.940703
11
1356.123246
21
1119.602426
0
LINE
8
Layer 1
10
1356.123246
20
1119.602426
11
1346.038137
21
1112.042979
0
LINE
8
Layer 1
10
1346.038137
20
1112.042979
11
1336.309326
21
1104.272843
0
LINE
8
Layer 1
10
1336.309326
20
1104.272843
11
1326.935156
21
1096.302500
0
LINE
8
Layer 1
10
1326.935156
20
1096.302500
11
1317.913969
21
1088.142430
0
LINE
8
Layer 1
10
1317.913969
20
1088.142430
11
1309.244109
21
1079.803115
0
LINE
8
Layer 1
10
1309.244109
20
1079.803115
11
1300.923918
21
1071.295035
0
LINE
8
Layer 1
10
1300.923918
20
1071.295035
11
1292.951738
21
1062.628672
0
LINE
8
Layer 1
10
1292.951738
20
1062.628672
11
1285.325914
21
1053.814506
0
LINE
8
Layer 1
10
1285.325914
20
1053.814506
11
1278.044788
21
1044.863018
0
LINE
8
Layer 1
10
1278.044788
20
1044.863018
11
1271.106702
21
1035.784689
0
LINE
8
Layer 1
10
1271.106702
20
1035.784689
11
1264.510000
21
1026.590000
0
LINE
8
Layer 1
10
1264.510000
20
1026.590000
11
1256.300422
21
1014.693701
0
LINE
8
Layer 1
10
1256.300422
20
1014.693701
11
1248.602441
21
1002.746908
0
LINE
8
Layer 1
10
1248.602441
20
1002.746908
11
1241.398435
21
990.769462
0
LINE
8
Layer 1
10
1241.398435
20
990.769462
11
1234.670781
21
978.781203
0
LINE
8
Layer 1
10
1234.670781
20
978.781203
11
1228.401858
21
966.801974
0
LINE
8
Layer 1
10
1228.401858
20
966.801974
11
1222.574043
21
954.851615
0
LINE
8
Layer 1
10
1222.574043
20
954.851615
11
1217.169714
21
942.949969
0
LINE
8
Layer 1
10
1217.169714
20
942.949969
11
1212.171250
21
931.116875
0
LINE
8
Layer 1
10
1212.171250
20
931.116875
11
1207.561028
21
919.372176
0
LINE
8
Layer 1
10
1207.561028
20
919.372176
11
1203.321426
21
907.735713
0
LINE
8
Layer 1
10
1203.321426
20
907.735713
11
1199.434822
21
896.227327
0
LINE
8
Layer 1
10
1199.434822
20
896.227327
11
1195.883594
21
884.866859
0
LINE
8
Layer 1
10
1195.883594
20
884.866859
11
1192.650120
21
873.674152
0
LINE
8
Layer 1
10
1192.650120
20
873.674152
11
1189.716777
21
862.669045
0
LINE
8
Layer 1
10
1189.716777
20
862.669045
11
1187.065945
21
851.871381
0
LINE
8
Layer 1
10
1187.065945
20
851.871381
11
1184.680000
21
841.301000
0
LINE
8
Layer 1
10
1184.680000
20
841.301000
11
1313.470000
21
840.551000
0
LINE
8
Layer 1
10
1085.250000
20
840.551000
11
1087.690571
21
854.663264
0
LINE
8
Layer 1
10
1087.690571
20
854.663264
11
1090.511914
21
869.285285
0
LINE
8
Layer 1
10
1090.511914
20
869.285285
11
1093.741597
21
884.361906
0
LINE
8
Layer 1
10
1093.741597
20
884.361906
11
1097.407187
21
899.837969
0
LINE
8
Layer 1
10
1097.407187
20
899.837969
11
1101.536255
21
915.658317
0
LINE
8
Layer 1
10
1101.536255
20
915.658317
11
1106.156367
21
931.767793
0
LINE
8
Layer 1
10
1106.156367
20
931.767793
11
1111.295093
21
948.111240
0
LINE
8
Layer 1
10
1111.295093
20
948.111240
11
1116.980000
21
964.633500
0
LINE
8
Layer 1
10
1116.980000
20
964.633500
11
1123.238657
21
981.279417
0
LINE
8
Layer 1
10
1123.238657
20
981.279417
11
1130.098633
21
997.993832
0
LINE
8
Layer 1
10
1130.098633
20
997.993832
11
1133.762730
21
1006.359490
0
LINE
8
Layer 1
10
1133.762730
20
1006.359490
11
1137.587495
21
1014.721589
0
LINE
8
Layer 1
10
1137.587495
20
1014.721589
11
1141.576374
21
1023.073235
0
LINE
8
Layer 1
10
1141.576374
20
1023.073235
11
1145.732813
21
1031.407531
0
LINE
8
Layer 1
10
1145.732813
20
1031.407531
11
1150.060257
21
1039.717585
0
LINE
8
Layer 1
10
1150.060257
20
1039.717585
11
1154.562153
21
1047.996500
0
LINE
8
Layer 1
10
1154.562153
20
1047.996500
11
1159.241948
21
1056.237384
0
LINE
8
Layer 1
10
1159.241948
20
1056.237384
11
1164.103086
21
1064.433340
0
LINE
8
Layer 1
10
1164.103086
20
1064.433340
11
1169.149014
21
1072.577474
0
LINE
8
Layer 1
10
1169.149014
20
1072.577474
11
1174.383179
21
1080.662892
0
LINE
8
Layer 1
10
1174.383179
20
1080.662892
11
1179.809025
21
1088.682699
0
LINE
8
Layer 1
10
1179.809025
20
1088.682699
11
1185.430000
21
1096.630000
0
LINE
8
Layer 1
10
1185.430000
20
1096.630000
11
1193.290270
21
1107.103976
0
LINE
8
Layer 1
10
1193.290270
20
1107.103976
11
1201.486616
21
1117.474539
0
LINE
8
Layer 1
10
1201.486616
20
1117.474539
11
1210.032964
21
1127.726519
0
LINE
8
Layer 1
10
1210.032964
20
1127.726519
11
1218.943242
21
1137.844746
0
LINE
8
Layer 1
10
1218.943242
20
1137.844746
11
1228.231376
21
1147.814050
0
LINE
8
Layer 1
10
1228.231376
20
1147.814050
11
1237.911294
21
1157.619260
0
LINE
8
Layer 1
10
1237.911294
20
1157.619260
11
1247.996922
21
1167.245207
0
LINE
8
Layer 1
10
1247.996922
20
1167.245207
11
1258.502188
21
1176.676719
0
LINE
8
Layer 1
10
1258.502188
20
1176.676719
11
1269.441017
21
1185.898626
0
LINE
8
Layer 1
10
1269.441017
20
1185.898626
11
1280.827339
21
1194.895759
0
LINE
8
Layer 1
10
1280.827339
20
1194.895759
11
1292.675079
21
1203.652947
0
LINE
8
Layer 1
10
1292.675079
20
1203.652947
11
1304.998164
21
1212.155020
0
LINE
8
Layer 1
10
1304.998164
20
1212.155020
11
1317.810522
21
1220.386806
0
LINE
8
Layer 1
10
1317.810522
20
1220.386806
11
1331.126079
21
1228.333137
0
LINE
8
Layer 1
10
1331.126079
20
1228.333137
11
1344.958763
21
1235.978842
0
LINE
8
Layer 1
10
1344.958763
20
1235.978842
11
1359.322500
21
1243.308750
0
LINE
8
Layer 1
10
1359.322500
20
1243.308750
11
1374.231218
21
1250.307691
0
LINE
8
Layer 1
10
1374.231218
20
1250.307691
11
1389.698843
21
1256.960496
0
LINE
8
Layer 1
10
1389.698843
20
1256.960496
11
1405.739302
21
1263.251992
0
LINE
8
Layer 1
10
1405.739302
20
1263.251992
11
1422.366523
21
1269.167012
0
LINE
8
Layer 1
10
1422.366523
20
1269.167012
11
1439.594433
21
1274.690383
0
LINE
8
Layer 1
10
1439.594433
20
1274.690383
11
1457.436958
21
1279.806936
0
LINE
8
Layer 1
10
1457.436958
20
1279.806936
11
1475.908026
21
1284.501501
0
LINE
8
Layer 1
10
1475.908026
20
1284.501501
11
1495.021563
21
1288.758906
0
LINE
8
Layer 1
10
1495.021563
20
1288.758906
11
1514.791496
21
1292.563983
0
LINE
8
Layer 1
10
1514.791496
20
1292.563983
11
1535.231753
21
1295.901560
0
LINE
8
Layer 1
10
1535.231753
20
1295.901560
11
1556.356260
21
1298.756468
0
LINE
8
Layer 1
10
1556.356260
20
1298.756468
11
1578.178945
21
1301.113535
0
LINE
8
Layer 1
10
1578.178945
20
1301.113535
11
1600.713735
21
1302.957592
0
LINE
8
Layer 1
10
1600.713735
20
1302.957592
11
1623.974556
21
1304.273469
0
LINE
8
Layer 1
10
1623.974556
20
1304.273469
11
1647.975335
21
1305.045995
0
LINE
8
Layer 1
10
1647.975335
20
1305.045995
11
1672.730000
21
1305.260000
0
LINE
8
Layer 1
10
1672.730000
20
1305.260000
11
1699.840000
21
1431.040000
0
LINE
8
Layer 1
10
1699.840000
20
1431.040000
11
1685.135247
21
1431.402768
0
LINE
8
Layer 1
10
1685.135247
20
1431.402768
11
1670.605240
21
1431.574869
0
LINE
8
Layer 1
10
1670.605240
20
1431.574869
11
1656.249325
21
1431.558716
0
LINE
8
Layer 1
10
1656.249325
20
1431.558716
11
1642.066846
21
1431.356724
0
LINE
8
Layer 1
10
1642.066846
20
1431.356724
11
1628.057149
21
1430.971305
0
LINE
8
Layer 1
10
1628.057149
20
1430.971305
11
1614.219579
21
1430.404875
0
LINE
8
Layer 1
10
1614.219579
20
1430.404875
11
1600.553482
21
1429.659846
0
LINE
8
Layer 1
10
1600.553482
20
1429.659846
11
1587.058203
21
1428.738633
0
LINE
8
Layer 1
10
1587.058203
20
1428.738633
11
1573.733088
21
1427.643649
0
LINE
8
Layer 1
10
1573.733088
20
1427.643649
11
1560.577482
21
1426.377308
0
LINE
8
Layer 1
10
1560.577482
20
1426.377308
11
1547.590730
21
1424.942024
0
LINE
8
Layer 1
10
1547.590730
20
1424.942024
11
1534.772178
21
1423.340210
0
LINE
8
Layer 1
10
1534.772178
20
1423.340210
11
1522.121171
21
1421.574281
0
LINE
8
Layer 1
10
1522.121171
20
1421.574281
11
1509.637054
21
1419.646650
0
LINE
8
Layer 1
10
1509.637054
20
1419.646650
11
1497.319174
21
1417.559731
0
LINE
8
Layer 1
10
1497.319174
20
1417.559731
11
1485.166875
21
1415.315938
0
LINE
8
Layer 1
10
1485.166875
20
1415.315938
11
1473.179503
21
1412.917684
0
LINE
8
Layer 1
10
1473.179503
20
1412.917684
11
1461.356403
21
1410.367383
0
LINE
8
Layer 1
10
1461.356403
20
1410.367383
11
1449.696920
21
1407.667450
0
LINE
8
Layer 1
10
1449.696920
20
1407.667450
11
1438.200400
21
1404.820298
0
LINE
8
Layer 1
10
1438.200400
20
1404.820298
11
1426.866189
21
1401.828340
0
LINE
8
Layer 1
10
1426.866189
20
1401.828340
11
1415.693632
21
1398.693991
0
LINE
8
Layer 1
10
1415.693632
20
1398.693991
11
1404.682073
21
1395.419664
0
LINE
8
Layer 1
10
1404.682073
20
1395.419664
11
1393.830859
21
1392.007773
0
LINE
8
Layer 1
10
1393.830859
20
1392.007773
11
1383.139335
21
1388.460732
0
LINE
8
Layer 1
10
1383.139335
20
1388.460732
11
1372.606847
21
1384.780955
0
LINE
8
Layer 1
10
1372.606847
20
1384.780955
11
1362.232739
21
1380.970855
0
LINE
8
Layer 1
10
1362.232739
20
1380.970855
11
1352.016357
21
1377.032847
0
LINE
8
Layer 1
10
1352.016357
20
1377.032847
11
1341.957047
21
1372.969343
0
LINE
8
Layer 1
10
1341.957047
20
1372.969343
11
1332.054154
21
1368.782758
0
LINE
8
Layer 1
10
1332.054154
20
1368.782758
11
1322.307023
21
1364.475506
0
LINE
8
Layer 1
10
1322.307023
20
1364.475506
11
1312.715000
21
1360.050000
0
LINE
8
Layer 1
10
1312.715000
20
1360.050000
11
1303.277430
21
1355.508654
0
LINE
8
Layer 1
10
1303.277430
20
1355.508654
11
1293.993658
21
1350.853882
0
LINE
8
Layer 1
10
1293.993658
20
1350.853882
11
1284.863031
21
1346.088098
0
LINE
8
Layer 1
10
1284.863031
20
1346.088098
11
1275.884893
21
1341.213716
0
LINE
8
Layer 1
10
1275.884893
20
1341.213716
11
1267.058589
21
1336.233149
0
LINE
8
Layer 1
10
1267.058589
20
1336.233149
11
1258.383466
21
1331.148810
0
LINE
8
Layer 1
10
1258.383466
20
1331.148810
11
1249.858868
21
1325.963115
0
LINE
8
Layer 1
10
1249.858868
20
1325.963115
11
1241.484141
21
1320.678477
0
LINE
8
Layer 1
10
1241.484141
20
1320.678477
11
1233.258630
21
1315.297308
0
LINE
8
Layer 1
10
1233.258630
20
1315.297308
11
1225.181681
21
1309.822025
0
LINE
8
Layer 1
10
1225.181681
20
1309.822025
11
1217.252639
21
1304.255039
0
LINE
8
Layer 1
10
1217.252639
20
1304.255039
11
1209.470850
21
1298.598765
0
LINE
8
Layer 1
10
1209.470850
20
1298.598765
11
1201.835658
21
1292.855616
0
LINE
8
Layer 1
10
1201.835658
20
1292.855616
11
1194.346410
21
1287.028007
0
LINE
8
Layer 1
10
1194.346410
20
1287.028007
11
1187.002450
21
1281.118351
0
LINE
8
Layer 1
10
1187.002450
20
1281.118351
11
1179.803125
21
1275.129063
0
LINE
8
Layer 1
10
1179.803125
20
1275.129063
11
1172.747779
21
1269.062554
0
LINE
8
Layer 1
10
1172.747779
20
1269.062554
11
1165.835758
21
1262.921241
0
LINE
8
Layer 1
10
1165.835758
20
1262.921241
11
1152.439072
21
1250.423853
0
LINE
8
Layer 1
10
1152.439072
20
1250.423853
11
1139.607831
21
1237.656208
0
LINE
8
Layer 1
10
1139.607831
20
1237.656208
11
1127.336797
21
1224.637617
0
LINE
8
Layer 1
10
1127.336797
20
1224.637617
11
1115.620734
21
1211.387391
0
LINE
8
Layer 1
10
1115.620734
20
1211.387391
11
1104.454404
21
1197.924839
0
LINE
8
Layer 1
10
1104.454404
20
1197.924839
11
1093.832572
21
1184.269272
0
LINE
8
Layer 1
10
1093.832572
20
1184.269272
11
1083.750000
21
1170.440000
0
LINE
8
Layer 1
10
1083.750000
20
1170.440000
11
1076.203075
21
1159.607716
0
LINE
8
Layer 1
10
1076.203075
20
1159.607716
11
1068.950225
21
1148.722378
0
LINE
8
Layer 1
10
1068.950225
20
1148.722378
11
1061.985526
21
1137.792818
0
LINE
8
Layer 1
10
1061.985526
20
1137.792818
11
1055.303053
21
1126.827869
0
LINE
8
Layer 1
10
1055.303053
20
1126.827869
11
1048.896880
21
1115.836363
0
LINE
8
Layer 1
10
1048.896880
20
1115.836363
11
1042.761084
21
1104.827133
0
LINE
8
Layer 1
10
1042.761084
20
1104.827133
11
1036.889740
21
1093.809010
0
LINE
8
Layer 1
10
1036.889740
20
1093.809010
11
1031.276922
21
1082.790828
0
LINE
8
Layer 1
10
1031.276922
20
1082.790828
11
1025.916706
21
1071.781419
0
LINE
8
Layer 1
10
1025.916706
20
1071.781419
11
1020.803168
21
1060.789615
0
LINE
8
Layer 1
10
1020.803168
20
1060.789615
11
1015.930382
21
1049.824250
0
LINE
8
Layer 1
10
1015.930382
20
1049.824250
11
1011.292424
21
1038.894154
0
LINE
8
Layer 1
10
1011.292424
20
1038.894154
11
1006.883369
21
1028.008162
0
LINE
8
Layer 1
10
1006.883369
20
1028.008162
11
1002.697292
21
1017.175104
0
LINE
8
Layer 1
10
1002.697292
20
1017.175104
11
998.728269
21
1006.403815
0
LINE
8
Layer 1
10
998.728269
20
1006.403815
11
994.970375
21
995.703125
0
LINE
8
Layer 1
10
994.970375
20
995.703125
11
991.417685
21
985.081868
0
LINE
8
Layer 1
10
991.417685
20
985.081868
11
988.064274
21
974.548876
0
LINE
8
Layer 1
10
988.064274
20
974.548876
11
984.904218
21
964.112982
0
LINE
8
Layer 1
10
984.904218
20
964.112982
11
981.931592
21
953.783018
0
LINE
8
Layer 1
10
981.931592
20
953.783018
11
976.524930
21
933.476209
0
LINE
8
Layer 1
10
976.524930
20
933.476209
11
971.796891
21
913.699109
0
LINE
8
Layer 1
10
971.796891
20
913.699109
11
967.700076
21
894.522379
0
LINE
8
Layer 1
10
967.700076
20
894.522379
11
964.187088
21
876.016678
0
LINE
8
Layer 1
10
964.187088
20
876.016678
11
961.210529
21
858.252665
0
LINE
8
Layer 1
10
961.210529
20
858.252665
11
958.723000
21
841.301000
0
LINE
8
Layer 1
10
958.723000
20
841.301000
11
1085.250000
21
840.551000
0
LINE
8
Layer 1
10
1085.250000
20
840.551000
11
1085.250000
21
840.551000
0
LINE
8
Layer 1
10
2260.210000
20
733.598000
11
2404.060000
21
733.598000
0
LINE
8
Layer 1
10
2404.060000
20
733.598000
11
2251.920000
21
17.328100
0
LINE
8
Layer 1
10
2251.920000
20
17.328100
11
2108.070000
21
17.328100
0
LINE
8
Layer 1
10
2108.070000
20
17.328100
11
2260.210000
21
733.598100
0
LINE
8
Layer 1
10
2260.210000
20
733.598100
11
2260.210000
21
733.598000
0
LINE
8
Layer 1
10
1714.160000
20
968.586000
11
2199.210000
21
968.586000
0
LINE
8
Layer 1
10
2199.210000
20
968.586000
11
2171.340000
21
840.551000
0
LINE
8
Layer 1
10
2171.340000
20
840.551000
11
1838.440000
21
840.551000
0
LINE
8
Layer 1
10
1838.440000
20
840.551000
11
1782.700000
21
576.938000
0
LINE
8
Layer 1
10
1782.700000
20
576.938000
11
2116.360000
21
576.938000
0
LINE
8
Layer 1
10
2116.360000
20
576.938000
11
2089.990000
21
448.898000
0
LINE
8
Layer 1
10
2089.990000
20
448.898000
11
1756.340000
21
448.898000
0
LINE
8
Layer 1
10
1756.340000
20
448.898000
11
1664.450000
21
17.328100
0
LINE
8
Layer 1
10
1664.450000
20
17.328100
11
1512.300000
21
17.328100
0
LINE
8
Layer 1
10
1512.300000
20
17.328100
11
1714.160000
21
968.586000
0
LINE
8
Layer 1
10
1714.160000
20
968.586000
11
1714.160000
21
968.586000
0
LINE
8
Layer 1
10
1406.870000
20
733.598000
11
1550.720000
21
733.598000
0
LINE
8
Layer 1
10
1550.720000
20
733.598000
11
1398.570000
21
17.328100
0
LINE
8
Layer 1
10
1398.570000
20
17.328100
11
1254.720000
21
17.328100
0
LINE
8
Layer 1
10
1254.720000
20
17.328100
11
1406.870000
21
733.598100
0
LINE
8
Layer 1
10
1406.870000
20
733.598100
11
1406.870000
21
733.598000
0
LINE
8
Layer 1
10
796.035000
20
733.598000
11
932.363000
21
733.598000
0
LINE
8
Layer 1
10
932.363000
20
733.598000
11
915.039000
21
649.992000
0
LINE
8
Layer 1
10
915.039000
20
649.992000
11
918.809000
21
649.992000
0
LINE
8
Layer 1
10
918.809000
20
649.992000
11
923.545588
21
655.918818
0
LINE
8
Layer 1
10
923.545588
20
655.918818
11
928.432531
21
661.693212
0
LINE
8
Layer 1
10
928.432531
20
661.693212
11
933.465686
21
667.312837
0
LINE
8
Layer 1
10
933.465686
20
667.312837
11
938.640916
21
672.775352
0
LINE
8
Layer 1
10
938.640916
20
672.775352
11
943.954079
21
678.078412
0
LINE
8
Layer 1
10
943.954079
20
678.078412
11
949.401035
21
683.219675
0
LINE
8
Layer 1
10
949.401035
20
683.219675
11
954.977644
21
688.196798
0
LINE
8
Layer 1
10
954.977644
20
688.196798
11
960.679766
21
693.007437
0
LINE
8
Layer 1
10
960.679766
20
693.007437
11
966.503260
21
697.649251
0
LINE
8
Layer 1
10
966.503260
20
697.649251
11
972.443987
21
702.119896
0
LINE
8
Layer 1
10
972.443987
20
702.119896
11
978.497805
21
706.417028
0
LINE
8
Layer 1
10
978.497805
20
706.417028
11
984.660576
21
710.538305
0
LINE
8
Layer 1
10
984.660576
20
710.538305
11
990.928159
21
714.481383
0
LINE
8
Layer 1
10
990.928159
20
714.481383
11
997.296413
21
718.243921
0
LINE
8
Layer 1
10
997.296413
20
718.243921
11
1003.761198
21
721.823574
0
LINE
8
Layer 1
10
1003.761198
20
721.823574
11
1010.318375
21
725.218000
0
LINE
8
Layer 1
10
1010.318375
20
725.218000
11
1016.963803
21
728.424856
0
LINE
8
Layer 1
10
1016.963803
20
728.424856
11
1023.693341
21
731.441798
0
LINE
8
Layer 1
10
1023.693341
20
731.441798
11
1030.502850
21
734.266484
0
LINE
8
Layer 1
10
1030.502850
20
734.266484
11
1037.388189
21
736.896570
0
LINE
8
Layer 1
10
1037.388189
20
736.896570
11
1044.345219
21
739.329714
0
LINE
8
Layer 1
10
1044.345219
20
739.329714
11
1051.369799
21
741.563573
0
LINE
8
Layer 1
10
1051.369799
20
741.563573
11
1058.457788
21
743.595804
0
LINE
8
Layer 1
10
1058.457788
20
743.595804
11
1065.605047
21
745.424062
0
LINE
8
Layer 1
10
1065.605047
20
745.424062
11
1072.807435
21
747.046007
0
LINE
8
Layer 1
10
1072.807435
20
747.046007
11
1080.060813
21
748.459294
0
LINE
8
Layer 1
10
1080.060813
20
748.459294
11
1087.361039
21
749.661580
0
LINE
8
Layer 1
10
1087.361039
20
749.661580
11
1094.703975
21
750.650523
0
LINE
8
Layer 1
10
1094.703975
20
750.650523
11
1102.085479
21
751.423780
0
LINE
8
Layer 1
10
1102.085479
20
751.423780
11
1109.501411
21
751.979007
0
LINE
8
Layer 1
10
1109.501411
20
751.979007
11
1116.947631
21
752.313861
0
LINE
8
Layer 1
10
1116.947631
20
752.313861
11
1124.420000
21
752.426000
0
LINE
8
Layer 1
10
1124.420000
20
752.426000
11
1134.509410
21
752.278995
0
LINE
8
Layer 1
10
1134.509410
20
752.278995
11
1144.295984
21
751.832462
0
LINE
8
Layer 1
10
1144.295984
20
751.832462
11
1153.772549
21
751.078126
0
LINE
8
Layer 1
10
1153.772549
20
751.078126
11
1162.931934
21
750.007711
0
LINE
8
Layer 1
10
1162.931934
20
750.007711
11
1171.766965
21
748.612942
0
LINE
8
Layer 1
10
1171.766965
20
748.612942
11
1180.270471
21
746.885542
0
LINE
8
Layer 1
10
1180.270471
20
746.885542
11
1188.435280
21
744.817237
0
LINE
8
Layer 1
10
1188.435280
20
744.817237
11
1196.254219
21
742.399750
0
LINE
8
Layer 1
10
1196.254219
20
742.399750
11
1203.720116
21
739.624806
0
LINE
8
Layer 1
10
1203.720116
20
739.624806
11
1210.825798
21
736.484130
0
LINE
8
Layer 1
10
1210.825798
20
736.484130
11
1217.564095
21
732.969445
0
LINE
8
Layer 1
10
1217.564095
20
732.969445
11
1223.927832
21
729.072477
0
LINE
8
Layer 1
10
1223.927832
20
729.072477
11
1229.909839
21
724.784948
0
LINE
8
Layer 1
10
1229.909839
20
724.784948
11
1235.502942
21
720.098585
0
LINE
8
Layer 1
10
1235.502942
20
720.098585
11
1240.699970
21
715.005111
0
LINE
8
Layer 1
10
1240.699970
20
715.005111
11
1245.493750
21
709.496250
0
LINE
8
Layer 1
10
1245.493750
20
709.496250
11
1249.877110
21
703.563727
0
LINE
8
Layer 1
10
1249.877110
20
703.563727
11
1253.842878
21
697.199267
0
LINE
8
Layer 1
10
1253.842878
20
697.199267
11
1257.383882
21
690.394593
0
LINE
8
Layer 1
10
1257.383882
20
690.394593
11
1260.492949
21
683.141430
0
LINE
8
Layer 1
10
1260.492949
20
683.141430
11
1263.162907
21
675.431502
0
LINE
8
Layer 1
10
1263.162907
20
675.431502
11
1265.386584
21
667.256534
0
LINE
8
Layer 1
10
1265.386584
20
667.256534
11
1267.156808
21
658.608250
0
LINE
8
Layer 1
10
1267.156808
20
658.608250
11
1268.466406
21
649.478375
0
LINE
8
Layer 1
10
1268.466406
20
649.478375
11
1269.308206
21
639.858632
0
LINE
8
Layer 1
10
1269.308206
20
639.858632
11
1269.675037
21
629.740747
0
LINE
8
Layer 1
10
1269.675037
20
629.740747
11
1269.559724
21
619.116443
0
LINE
8
Layer 1
10
1269.559724
20
619.116443
11
1268.955098
21
607.977445
0
LINE
8
Layer 1
10
1268.955098
20
607.977445
11
1267.853984
21
596.315478
0
LINE
8
Layer 1
10
1267.853984
20
596.315478
11
1266.249211
21
584.122265
0
LINE
8
Layer 1
10
1266.249211
20
584.122265
11
1264.133607
21
571.389531
0
LINE
8
Layer 1
10
1264.133607
20
571.389531
11
1261.500000
21
558.109000
0
LINE
8
Layer 1
10
1261.500000
20
558.109000
11
1147.020000
21
17.328100
0
LINE
8
Layer 1
10
1147.020000
20
17.328100
11
1003.160000
21
17.328100
0
LINE
8
Layer 1
10
1003.160000
20
17.328100
11
1107.100000
21
508.402000
0
LINE
8
Layer 1
10
1107.100000
20
508.402000
11
1108.820484
21
516.989994
0
LINE
8
Layer 1
10
1108.820484
20
516.989994
11
1110.309031
21
525.246487
0
LINE
8
Layer 1
10
1110.309031
20
525.246487
11
1111.563155
21
533.175340
0
LINE
8
Layer 1
10
1111.563155
20
533.175340
11
1112.580371
21
540.780412
0
LINE
8
Layer 1
10
1112.580371
20
540.780412
11
1113.358195
21
548.065565
0
LINE
8
Layer 1
10
1113.358195
20
548.065565
11
1113.894143
21
555.034658
0
LINE
8
Layer 1
10
1113.894143
20
555.034658
11
1114.185729
21
561.691553
0
LINE
8
Layer 1
10
1114.185729
20
561.691553
11
1114.230469
21
568.040109
0
LINE
8
Layer 1
10
1114.230469
20
568.040109
11
1114.025877
21
574.084188
0
LINE
8
Layer 1
10
1114.025877
20
574.084188
11
1113.569470
21
579.827648
0
LINE
8
Layer 1
10
1113.569470
20
579.827648
11
1112.858763
21
585.274352
0
LINE
8
Layer 1
10
1112.858763
20
585.274352
11
1111.891270
21
590.428158
0
LINE
8
Layer 1
10
1111.891270
20
590.428158
11
1110.664507
21
595.292928
0
LINE
8
Layer 1
10
1110.664507
20
595.292928
11
1109.175989
21
599.872523
0
LINE
8
Layer 1
10
1109.175989
20
599.872523
11
1107.423232
21
604.170801
0
LINE
8
Layer 1
10
1107.423232
20
604.170801
11
1105.403750
21
608.191625
0
LINE
8
Layer 1
10
1105.403750
20
608.191625
11
1103.115060
21
611.938854
0
LINE
8
Layer 1
10
1103.115060
20
611.938854
11
1100.554675
21
615.416348
0
LINE
8
Layer 1
10
1100.554675
20
615.416348
11
1097.720113
21
618.627969
0
LINE
8
Layer 1
10
1097.720113
20
618.627969
11
1094.608887
21
621.577576
0
LINE
8
Layer 1
10
1094.608887
20
621.577576
11
1091.218513
21
624.269030
0
LINE
8
Layer 1
10
1091.218513
20
624.269030
11
1087.546506
21
626.706192
0
LINE
8
Layer 1
10
1087.546506
20
626.706192
11
1083.590382
21
628.892921
0
LINE
8
Layer 1
10
1083.590382
20
628.892921
11
1079.347656
21
630.833078
0
LINE
8
Layer 1
10
1079.347656
20
630.833078
11
1074.815843
21
632.530524
0
LINE
8
Layer 1
10
1074.815843
20
632.530524
11
1069.992458
21
633.989119
0
LINE
8
Layer 1
10
1069.992458
20
633.989119
11
1064.875017
21
635.212723
0
LINE
8
Layer 1
10
1064.875017
20
635.212723
11
1059.461035
21
636.205197
0
LINE
8
Layer 1
10
1059.461035
20
636.205197
11
1053.748027
21
636.970402
0
LINE
8
Layer 1
10
1053.748027
20
636.970402
11
1047.733508
21
637.512197
0
LINE
8
Layer 1
10
1047.733508
20
637.512197
11
1041.414994
21
637.834443
0
LINE
8
Layer 1
10
1041.414994
20
637.834443
11
1034.790000
21
637.941000
0
LINE
8
Layer 1
10
1034.790000
20
637.941000
11
1029.264578
21
637.804187
0
LINE
8
Layer 1
10
1029.264578
20
637.804187
11
1023.709061
21
637.393749
0
LINE
8
Layer 1
10
1023.709061
20
637.393749
11
1018.133104
21
636.709688
0
LINE
8
Layer 1
10
1018.133104
20
636.709688
11
1012.546361
21
635.752006
0
LINE
8
Layer 1
10
1012.546361
20
635.752006
11
1006.958489
21
634.520705
0
LINE
8
Layer 1
10
1006.958489
20
634.520705
11
1001.379141
21
633.015787
0
LINE
8
Layer 1
10
1001.379141
20
633.015787
11
995.817974
21
631.237255
0
LINE
8
Layer 1
10
995.817974
20
631.237255
11
990.284641
21
629.185109
0
LINE
8
Layer 1
10
990.284641
20
629.185109
11
984.788797
21
626.859353
0
LINE
8
Layer 1
10
984.788797
20
626.859353
11
979.340099
21
624.259988
0
LINE
8
Layer 1
10
979.340099
20
624.259988
11
973.948200
21
621.387016
0
LINE
8
Layer 1
10
973.948200
20
621.387016
11
968.622756
21
618.240439
0
LINE
8
Layer 1
10
968.622756
20
618.240439
11
963.373421
21
614.820260
0
LINE
8
Layer 1
10
963.373421
20
614.820260
11
958.209851
21
611.126480
0
LINE
8
Layer 1
10
958.209851
20
611.126480
11
953.141701
21
607.159101
0
LINE
8
Layer 1
10
953.141701
20
607.159101
11
948.178625
21
602.918125
0
LINE
8
Layer 1
10
948.178625
20
602.918125
11
943.330279
21
598.403555
0
LINE
8
Layer 1
10
943.330279
20
598.403555
11
938.606317
21
593.615391
0
LINE
8
Layer 1
10
938.606317
20
593.615391
11
934.016394
21
588.553637
0
LINE
8
Layer 1
10
934.016394
20
588.553637
11
929.570166
21
583.218295
0
LINE
8
Layer 1
10
929.570166
20
583.218295
11
925.277287
21
577.609366
0
LINE
8
Layer 1
10
925.277287
20
577.609366
11
921.147413
21
571.726852
0
LINE
8
Layer 1
10
921.147413
20
571.726852
11
917.190198
21
565.570755
0
LINE
8
Layer 1
10
917.190198
20
565.570755
11
913.415297
21
559.141078
0
LINE
8
Layer 1
10
913.415297
20
559.141078
11
909.832365
21
552.437822
0
LINE
8
Layer 1
10
909.832365
20
552.437822
11
906.451058
21
545.460990
0
LINE
8
Layer 1
10
906.451058
20
545.460990
11
903.281030
21
538.210583
0
LINE
8
Layer 1
10
903.281030
20
538.210583
11
900.331936
21
530.686604
0
LINE
8
Layer 1
10
900.331936
20
530.686604
11
897.613431
21
522.889053
0
LINE
8
Layer 1
10
897.613431
20
522.889053
11
895.135170
21
514.817935
0
LINE
8
Layer 1
10
895.135170
20
514.817935
11
892.906808
21
506.473250
0
LINE
8
Layer 1
10
892.906808
20
506.473250
11
890.938000
21
497.855000
0
LINE
8
Layer 1
10
890.938000
20
497.855000
11
788.508000
21
17.328100
0
LINE
8
Layer 1
10
788.508000
20
17.328100
11
645.398000
21
17.328100
0
LINE
8
Layer 1
10
645.398000
20
17.328100
11
796.035000
21
733.598000
0
LINE
8
Layer 1
10
796.035000
20
733.598000
11
796.035000
21
733.598000
0
LINE
8
Layer 1
10
305.723000
20
968.586000
11
161.113000
21
286.969000
0
LINE
8
Layer 1
10
161.113000
20
286.969000
11
158.893242
21
275.935468
0
LINE
8
Layer 1
10
158.893242
20
275.935468
11
157.034175
21
265.287935
0
LINE
8
Layer 1
10
157.034175
20
265.287935
11
155.534703
21
255.024057
0
LINE
8
Layer 1
10
155.534703
20
255.024057
11
154.393730
21
245.141492
0
LINE
8
Layer 1
10
154.393730
20
245.141492
11
153.610160
21
235.637897
0
LINE
8
Layer 1
10
153.610160
20
235.637897
11
153.182897
21
226.510929
0
LINE
8
Layer 1
10
153.182897
20
226.510929
11
153.110844
21
217.758244
0
LINE
8
Layer 1
10
153.110844
20
217.758244
11
153.392906
21
209.377500
0
LINE
8
Layer 1
10
153.392906
20
209.377500
11
154.027987
21
201.366354
0
LINE
8
Layer 1
10
154.027987
20
201.366354
11
155.014990
21
193.722462
0
LINE
8
Layer 1
10
155.014990
20
193.722462
11
156.352819
21
186.443482
0
LINE
8
Layer 1
10
156.352819
20
186.443482
11
158.040379
21
179.527070
0
LINE
8
Layer 1
10
158.040379
20
179.527070
11
160.076573
21
172.970884
0
LINE
8
Layer 1
10
160.076573
20
172.970884
11
162.460305
21
166.772581
0
LINE
8
Layer 1
10
162.460305
20
166.772581
11
165.190480
21
160.929817
0
LINE
8
Layer 1
10
165.190480
20
160.929817
11
168.266000
21
155.440250
0
LINE
8
Layer 1
10
168.266000
20
155.440250
11
171.685770
21
150.301536
0
LINE
8
Layer 1
10
171.685770
20
150.301536
11
175.448695
21
145.511333
0
LINE
8
Layer 1
10
175.448695
20
145.511333
11
179.553677
21
141.067297
0
LINE
8
Layer 1
10
179.553677
20
141.067297
11
183.999621
21
136.967086
0
LINE
8
Layer 1
10
183.999621
20
136.967086
11
188.785431
21
133.208356
0
LINE
8
Layer 1
10
188.785431
20
133.208356
11
193.910010
21
129.788765
0
LINE
8
Layer 1
10
193.910010
20
129.788765
11
199.372263
21
126.705969
0
LINE
8
Layer 1
10
199.372263
20
126.705969
11
205.171094
21
123.957625
0
LINE
8
Layer 1
10
205.171094
20
123.957625
11
211.305406
21
121.541391
0
LINE
8
Layer 1
10
211.305406
20
121.541391
11
217.774103
21
119.454923
0
LINE
8
Layer 1
10
217.774103
20
119.454923
11
224.576090
21
117.695878
0
LINE
8
Layer 1
10
224.576090
20
117.695878
11
231.710270
21
116.261914
0
LINE
8
Layer 1
10
231.710270
20
116.261914
11
239.175547
21
115.150687
0
LINE
8
Layer 1
10
239.175547
20
115.150687
11
246.970825
21
114.359854
0
LINE
8
Layer 1
10
246.970825
20
114.359854
11
255.095008
21
113.887073
0
LINE
8
Layer 1
10
255.095008
20
113.887073
11
263.547000
21
113.730000
0
LINE
8
Layer 1
10
263.547000
20
113.730000
11
271.931636
21
113.887073
0
LINE
8
Layer 1
10
271.931636
20
113.887073
11
280.138931
21
114.359854
0
LINE
8
Layer 1
10
280.138931
20
114.359854
11
288.168055
21
115.150687
0
LINE
8
Layer 1
10
288.168055
20
115.150687
11
296.018180
21
116.261914
0
LINE
8
Layer 1
10
296.018180
20
116.261914
11
303.688478
21
117.695878
0
LINE
8
Layer 1
10
303.688478
20
117.695878
11
311.178120
21
119.454923
0
LINE
8
Layer 1
10
311.178120
20
119.454923
11
318.486279
21
121.541391
0
LINE
8
Layer 1
10
318.486279
20
121.541391
11
325.612125
21
123.957625
0
LINE
8
Layer 1
10
325.612125
20
123.957625
11
332.554831
21
126.705969
0
LINE
8
Layer 1
10
332.554831
20
126.705969
11
339.313567
21
129.788765
0
LINE
8
Layer 1
10
339.313567
20
129.788765
11
345.887507
21
133.208356
0
LINE
8
Layer 1
10
345.887507
20
133.208356
11
352.275820
21
136.967086
0
LINE
8
Layer 1
10
352.275820
20
136.967086
11
358.477680
21
141.067297
0
LINE
8
Layer 1
10
358.477680
20
141.067297
11
364.492257
21
145.511333
0
LINE
8
Layer 1
10
364.492257
20
145.511333
11
370.318723
21
150.301536
0
LINE
8
Layer 1
10
370.318723
20
150.301536
11
375.956250
21
155.440250
0
LINE
8
Layer 1
10
375.956250
20
155.440250
11
381.404009
21
160.929817
0
LINE
8
Layer 1
10
381.404009
20
160.929817
11
386.661173
21
166.772581
0
LINE
8
Layer 1
10
386.661173
20
166.772581
11
391.726912
21
172.970884
0
LINE
8
Layer 1
10
391.726912
20
172.970884
11
396.600398
21
179.527070
0
LINE
8
Layer 1
10
396.600398
20
179.527070
11
401.280804
21
186.443482
0
LINE
8
Layer 1
10
401.280804
20
186.443482
11
405.767300
21
193.722462
0
LINE
8
Layer 1
10
405.767300
20
193.722462
11
410.059058
21
201.366354
0
LINE
8
Layer 1
10
410.059058
20
201.366354
11
414.155250
21
209.377500
0
LINE
8
Layer 1
10
414.155250
20
209.377500
11
418.055047
21
217.758244
0
LINE
8
Layer 1
10
418.055047
20
217.758244
11
421.757622
21
226.510929
0
LINE
8
Layer 1
10
421.757622
20
226.510929
11
425.262145
21
235.637897
0
LINE
8
Layer 1
10
425.262145
20
235.637897
11
428.567789
21
245.141492
0
LINE
8
Layer 1
10
428.567789
20
245.141492
11
431.673725
21
255.024057
0
LINE
8
Layer 1
10
431.673725
20
255.024057
11
434.579124
21
265.287935
0
LINE
8
Layer 1
10
434.579124
20
265.287935
11
437.283159
21
275.935468
0
LINE
8
Layer 1
10
437.283159
20
275.935468
11
439.785000
21
286.969000
0
LINE
8
Layer 1
10
439.785000
20
286.969000
11
585.145000
21
968.586000
0
LINE
8
Layer 1
10
585.145000
20
968.586000
11
736.531000
21
968.586000
0
LINE
8
Layer 1
10
736.531000
20
968.586000
11
594.188000
21
299.020000
0
LINE
8
Layer 1
10
594.188000
20
299.020000
11
591.940565
21
288.813691
0
LINE
8
Layer 1
10
591.940565
20
288.813691
11
589.576776
21
278.812278
0
LINE
8
Layer 1
10
589.576776
20
278.812278
11
587.097219
21
269.014347
0
LINE
8
Layer 1
10
587.097219
20
269.014347
11
584.502480
21
259.418485
0
LINE
8
Layer 1
10
584.502480
20
259.418485
11
581.793145
21
250.023279
0
LINE
8
Layer 1
10
581.793145
20
250.023279
11
578.969800
21
240.827316
0
LINE
8
Layer 1
10
578.969800
20
240.827316
11
576.033030
21
231.829181
0
LINE
8
Layer 1
10
576.033030
20
231.829181
11
572.983422
21
223.027462
0
LINE
8
Layer 1
10
572.983422
20
223.027462
11
569.821561
21
214.420746
0
LINE
8
Layer 1
10
569.821561
20
214.420746
11
566.548034
21
206.007618
0
LINE
8
Layer 1
10
566.548034
20
206.007618
11
563.163427
21
197.786666
0
LINE
8
Layer 1
10
563.163427
20
197.786666
11
559.668324
21
189.756476
0
LINE
8
Layer 1
10
559.668324
20
189.756476
11
556.063313
21
181.915635
0
LINE
8
Layer 1
10
556.063313
20
181.915635
11
552.348979
21
174.262730
0
LINE
8
Layer 1
10
552.348979
20
174.262730
11
548.525909
21
166.796346
0
LINE
8
Layer 1
10
548.525909
20
166.796346
11
544.594687
21
159.515072
0
LINE
8
Layer 1
10
544.594687
20
159.515072
11
540.555901
21
152.417493
0
LINE
8
Layer 1
10
540.555901
20
152.417493
11
536.410136
21
145.502196
0
LINE
8
Layer 1
10
536.410136
20
145.502196
11
532.157977
21
138.767768
0
LINE
8
Layer 1
10
532.157977
20
138.767768
11
527.800012
21
132.212795
0
LINE
8
Layer 1
10
527.800012
20
132.212795
11
523.336825
21
125.835864
0
LINE
8
Layer 1
10
523.336825
20
125.835864
11
518.769003
21
119.635562
0
LINE
8
Layer 1
10
518.769003
20
119.635562
11
514.097132
21
113.610475
0
LINE
8
Layer 1
10
514.097132
20
113.610475
11
509.321797
21
107.759189
0
LINE
8
Layer 1
10
509.321797
20
107.759189
11
504.443585
21
102.080293
0
LINE
8
Layer 1
10
504.443585
20
102.080293
11
499.463081
21
96.572372
0
LINE
8
Layer 1
10
499.463081
20
96.572372
11
494.380872
21
91.234012
0
LINE
8
Layer 1
10
494.380872
20
91.234012
11
489.197543
21
86.063801
0
LINE
8
Layer 1
10
489.197543
20
86.063801
11
483.913680
21
81.060325
0
LINE
8
Layer 1
10
483.913680
20
81.060325
11
478.529870
21
76.222171
0
LINE
8
Layer 1
10
478.529870
20
76.222171
11
473.046698
21
71.547926
0
LINE
8
Layer 1
10
473.046698
20
71.547926
11
467.464750
21
67.036175
0
LINE
8
Layer 1
10
467.464750
20
67.036175
11
461.784612
21
62.685506
0
LINE
8
Layer 1
10
461.784612
20
62.685506
11
456.006870
21
58.494505
0
LINE
8
Layer 1
10
456.006870
20
58.494505
11
450.132110
21
54.461760
0
LINE
8
Layer 1
10
450.132110
20
54.461760
11
444.160918
21
50.585856
0
LINE
8
Layer 1
10
444.160918
20
50.585856
11
438.093880
21
46.865380
0
LINE
8
Layer 1
10
438.093880
20
46.865380
11
431.931581
21
43.298919
0
LINE
8
Layer 1
10
431.931581
20
43.298919
11
425.674608
21
39.885060
0
LINE
8
Layer 1
10
425.674608
20
39.885060
11
419.323547
21
36.622389
0
LINE
8
Layer 1
10
419.323547
20
36.622389
11
412.878983
21
33.509492
0
LINE
8
Layer 1
10
412.878983
20
33.509492
11
406.341503
21
30.544957
0
LINE
8
Layer 1
10
406.341503
20
30.544957
11
399.711692
21
27.727371
0
LINE
8
Layer 1
10
399.711692
20
27.727371
11
392.990137
21
25.055319
0
LINE
8
Layer 1
10
392.990137
20
25.055319
11
386.177423
21
22.527388
0
LINE
8
Layer 1
10
386.177423
20
22.527388
11
379.274136
21
20.142165
0
LINE
8
Layer 1
10
379.274136
20
20.142165
11
372.280862
21
17.898237
0
LINE
8
Layer 1
10
372.280862
20
17.898237
11
365.198188
21
15.794191
0
LINE
8
Layer 1
10
365.198188
20
15.794191
11
358.026698
21
13.828612
0
LINE
8
Layer 1
10
358.026698
20
13.828612
11
350.766979
21
12.000088
0
LINE
8
Layer 1
10
350.766979
20
12.000088
11
343.419618
21
10.307205
0
LINE
8
Layer 1
10
343.419618
20
10.307205
11
335.985199
21
8.748550
0
LINE
8
Layer 1
10
335.985199
20
8.748550
11
320.857534
21
6.028270
0
LINE
8
Layer 1
10
320.857534
20
6.028270
11
305.388672
21
3.827941
0
LINE
8
Layer 1
10
305.388672
20
3.827941
11
289.583300
21
2.136257
0
LINE
8
Layer 1
10
289.583300
20
2.136257
11
273.446105
21
0.941909
0
LINE
8
Layer 1
10
273.446105
20
0.941909
11
256.981776
21
0.233593
0
LINE
8
Layer 1
10
256.981776
20
0.233593
11
240.195000
21
0.000000
0
LINE
8
Layer 1
10
240.195000
20
0.000000
11
223.371695
21
0.235721
0
LINE
8
Layer 1
10
223.371695
20
0.235721
11
207.082594
21
0.950149
0
LINE
8
Layer 1
10
207.082594
20
0.950149
11
191.336804
21
2.154178
0
LINE
8
Layer 1
10
191.336804
20
2.154178
11
176.143431
21
3.858703
0
LINE
8
Layer 1
10
176.143431
20
3.858703
11
161.511580
21
6.074618
0
LINE
8
Layer 1
10
161.511580
20
6.074618
11
154.409071
21
7.377752
0
LINE
8
Layer 1
10
154.409071
20
7.377752
11
147.450357
21
8.812820
0
LINE
8
Layer 1
10
147.450357
20
8.812820
11
140.636577
21
10.381182
0
LINE
8
Layer 1
10
140.636577
20
10.381182
11
133.968869
21
12.084202
0
LINE
8
Layer 1
10
133.968869
20
12.084202
11
127.448371
21
13.923240
0
LINE
8
Layer 1
10
127.448371
20
13.923240
11
121.076222
21
15.899659
0
LINE
8
Layer 1
10
121.076222
20
15.899659
11
114.853559
21
18.014821
0
LINE
8
Layer 1
10
114.853559
20
18.014821
11
108.781521
21
20.270087
0
LINE
8
Layer 1
10
108.781521
20
20.270087
11
102.861246
21
22.666820
0
LINE
8
Layer 1
10
102.861246
20
22.666820
11
97.093873
21
25.206381
0
LINE
8
Layer 1
10
97.093873
20
25.206381
11
91.480539
21
27.890131
0
LINE
8
Layer 1
10
91.480539
20
27.890131
11
86.022383
21
30.719434
0
LINE
8
Layer 1
10
86.022383
20
30.719434
11
80.720543
21
33.695651
0
LINE
8
Layer 1
10
80.720543
20
33.695651
11
75.576158
21
36.820143
0
LINE
8
Layer 1
10
75.576158
20
36.820143
11
70.590366
21
40.094272
0
LINE
8
Layer 1
10
70.590366
20
40.094272
11
65.764304
21
43.519401
0
LINE
8
Layer 1
10
65.764304
20
43.519401
11
61.099111
21
47.096891
0
LINE
8
Layer 1
10
61.099111
20
47.096891
11
56.595926
21
50.828104
0
LINE
8
Layer 1
10
56.595926
20
50.828104
11
52.255887
21
54.714402
0
LINE
8
Layer 1
10
52.255887
20
54.714402
11
48.080131
21
58.757147
0
LINE
8
Layer 1
10
48.080131
20
58.757147
11
44.069798
21
62.957701
0
LINE
8
Layer 1
10
44.069798
20
62.957701
11
40.226025
21
67.317425
0
LINE
8
Layer 1
10
40.226025
20
67.317425
11
36.549951
21
71.837681
0
LINE
8
Layer 1
10
36.549951
20
71.837681
11
33.042713
21
76.519832
0
LINE
8
Layer 1
10
33.042713
20
76.519832
11
29.705451
21
81.365239
0
LINE
8
Layer 1
10
29.705451
20
81.365239
11
26.539303
21
86.375264
0
LINE
8
Layer 1
10
26.539303
20
86.375264
11
23.545406
21
91.551268
0
LINE
8
Layer 1
10
23.545406
20
91.551268
11
20.724899
21
96.894614
0
LINE
8
Layer 1
10
20.724899
20
96.894614
11
18.078920
21
102.406664
0
LINE
8
Layer 1
10
18.078920
20
102.406664
11
15.608607
21
108.088779
0
LINE
8
Layer 1
10
15.608607
20
108.088779
11
13.315100
21
113.942322
0
LINE
8
Layer 1
10
13.315100
20
113.942322
11
11.199535
21
119.968653
0
LINE
8
Layer 1
10
11.199535
20
119.968653
11
9.263051
21
126.169136
0
LINE
8
Layer 1
10
9.263051
20
126.169136
11
7.506787
21
132.545131
0
LINE
8
Layer 1
10
7.506787
20
132.545131
11
5.931881
21
139.098001
0
LINE
8
Layer 1
10
5.931881
20
139.098001
11
4.539471
21
145.829108
0
LINE
8
Layer 1
10
4.539471
20
145.829108
11
3.330694
21
152.739813
0
LINE
8
Layer 1
10
3.330694
20
152.739813
11
2.306691
21
159.831478
0
LINE
8
Layer 1
10
2.306691
20
159.831478
11
1.468598
21
167.105466
0
LINE
8
Layer 1
10
1.468598
20
167.105466
11
0.817554
21
174.563137
0
LINE
8
Layer 1
10
0.817554
20
174.563137
11
0.354697
21
182.205854
0
LINE
8
Layer 1
10
0.354697
20
182.205854
11
0.081165
21
190.034979
0
LINE
8
Layer 1
10
0.081165
20
190.034979
11
-0.001902
21
198.051874
0
LINE
8
Layer 1
10
-0.001902
20
198.051874
11
0.106632
21
206.257900
0
LINE
8
Layer 1
10
0.106632
20
206.257900
11
0.407907
21
214.654420
0
LINE
8
Layer 1
10
0.407907
20
214.654420
11
0.903060
21
223.242794
0
LINE
8
Layer 1
10
0.903060
20
223.242794
11
1.593230
21
232.024386
0
LINE
8
Layer 1
10
1.593230
20
232.024386
11
2.479554
21
241.000556
0
LINE
8
Layer 1
10
2.479554
20
241.000556
11
3.563172
21
250.172667
0
LINE
8
Layer 1
10
3.563172
20
250.172667
11
4.845222
21
259.542081
0
LINE
8
Layer 1
10
4.845222
20
259.542081
11
6.326841
21
269.110160
0
LINE
8
Layer 1
10
6.326841
20
269.110160
11
8.009168
21
278.878264
0
LINE
8
Layer 1
10
8.009168
20
278.878264
11
9.893342
21
288.847757
0
LINE
8
Layer 1
10
9.893342
20
288.847757
11
11.980500
21
299.020000
0
LINE
8
Layer 1
10
11.980500
20
299.020000
11
154.336000
21
968.586000
0
LINE
8
Layer 1
10
154.336000
20
968.586000
11
305.723000
21
968.586000
0
LINE
8
Layer 1
10
2417.630000
20
841.301000
11
2282.050000
21
841.301000
0
LINE
8
Layer 1
10
2282.050000
20
841.301000
11
2310.670000
21
969.340000
0
LINE
8
Layer 1
10
2310.670000
20
969.340000
11
2315.172832
21
967.884885
0
LINE
8
Layer 1
10
2315.172832
20
967.884885
11
2320.346296
21
966.150623
0
LINE
8
Layer 1
10
2320.346296
20
966.150623
11
2327.063281
21
963.631953
0
LINE
8
Layer 1
10
2327.063281
20
963.631953
11
2335.020403
21
960.243922
0
LINE
8
Layer 1
10
2335.020403
20
960.243922
11
2343.914277
21
955.901576
0
LINE
8
Layer 1
10
2343.914277
20
955.901576
11
2348.617690
21
953.345987
0
LINE
8
Layer 1
10
2348.617690
20
953.345987
11
2353.441521
21
950.519962
0
LINE
8
Layer 1
10
2353.441521
20
950.519962
11
2358.347849
21
947.412881
0
LINE
8
Layer 1
10
2358.347849
20
947.412881
11
2363.298750
21
944.014125
0
LINE
8
Layer 1
10
2363.298750
20
944.014125
11
2368.256302
21
940.313075
0
LINE
8
Layer 1
10
2368.256302
20
940.313075
11
2373.182581
21
936.299113
0
LINE
8
Layer 1
10
2373.182581
20
936.299113
11
2378.039664
21
931.961617
0
LINE
8
Layer 1
10
2378.039664
20
931.961617
11
2382.789629
21
927.289971
0
LINE
8
Layer 1
10
2382.789629
20
927.289971
11
2387.394552
21
922.273553
0
LINE
8
Layer 1
10
2387.394552
20
922.273553
11
2391.816511
21
916.901746
0
LINE
8
Layer 1
10
2391.816511
20
916.901746
11
2396.017583
21
911.163929
0
LINE
8
Layer 1
10
2396.017583
20
911.163929
11
2399.959844
21
905.049484
0
LINE
8
Layer 1
10
2399.959844
20
905.049484
11
2403.605371
21
898.547792
0
LINE
8
Layer 1
10
2403.605371
20
898.547792
11
2406.916243
21
891.648233
0
LINE
8
Layer 1
10
2406.916243
20
891.648233
11
2409.854535
21
884.340187
0
LINE
8
Layer 1
10
2409.854535
20
884.340187
11
2412.382324
21
876.613037
0
LINE
8
Layer 1
10
2412.382324
20
876.613037
11
2414.461689
21
868.456162
0
LINE
8
Layer 1
10
2414.461689
20
868.456162
11
2416.054705
21
859.858944
0
LINE
8
Layer 1
10
2416.054705
20
859.858944
11
2417.123449
21
850.810763
0
LINE
8
Layer 1
10
2417.123449
20
850.810763
11
2417.449369
21
846.114243
0
LINE
8
Layer 1
10
2417.449369
20
846.114243
11
2417.630000
21
841.301000
0
LINE
8
Layer 1
10
2417.630000
20
841.301000
11
2417.630000
21
841.301000
0
LINE
8
Layer 1
10
1572.560000
20
841.301000
11
1600.430000
21
969.340000
0
LINE
8
Layer 1
10
1600.430000
20
969.340000
11
1593.180898
21
968.689516
0
LINE
8
Layer 1
10
1593.180898
20
968.689516
11
1586.118352
21
967.870516
0
LINE
8
Layer 1
10
1586.118352
20
967.870516
11
1579.239194
21
966.886586
0
LINE
8
Layer 1
10
1579.239194
20
966.886586
11
1572.540254
21
965.741313
0
LINE
8
Layer 1
10
1572.540254
20
965.741313
11
1566.018362
21
964.438281
0
LINE
8
Layer 1
10
1566.018362
20
964.438281
11
1559.670349
21
962.981078
0
LINE
8
Layer 1
10
1559.670349
20
962.981078
11
1553.493045
21
961.373289
0
LINE
8
Layer 1
10
1553.493045
20
961.373289
11
1547.483281
21
959.618500
0
LINE
8
Layer 1
10
1547.483281
20
959.618500
11
1541.637887
21
957.720297
0
LINE
8
Layer 1
10
1541.637887
20
957.720297
11
1535.953694
21
955.682266
0
LINE
8
Layer 1
10
1535.953694
20
955.682266
11
1530.427531
21
953.507992
0
LINE
8
Layer 1
10
1530.427531
20
953.507992
11
1525.056230
21
951.201062
0
LINE
8
Layer 1
10
1525.056230
20
951.201062
11
1519.836621
21
948.765062
0
LINE
8
Layer 1
10
1519.836621
20
948.765062
11
1514.765535
21
946.203578
0
LINE
8
Layer 1
10
1514.765535
20
946.203578
11
1509.839801
21
943.520195
0
LINE
8
Layer 1
10
1509.839801
20
943.520195
11
1505.056250
21
940.718500
0
LINE
8
Layer 1
10
1505.056250
20
940.718500
11
1500.411713
21
937.802078
0
LINE
8
Layer 1
10
1500.411713
20
937.802078
11
1495.903020
21
934.774516
0
LINE
8
Layer 1
10
1495.903020
20
934.774516
11
1491.527002
21
931.639398
0
LINE
8
Layer 1
10
1491.527002
20
931.639398
11
1487.280488
21
928.400313
0
LINE
8
Layer 1
10
1487.280488
20
928.400313
11
1483.160310
21
925.060844
0
LINE
8
Layer 1
10
1483.160310
20
925.060844
11
1479.163298
21
921.624578
0
LINE
8
Layer 1
10
1479.163298
20
921.624578
11
1471.526094
21
914.476000
0
LINE
8
Layer 1
10
1471.526094
20
914.476000
11
1464.343518
21
906.983266
0
LINE
8
Layer 1
10
1464.343518
20
906.983266
11
1457.590215
21
899.175062
0
LINE
8
Layer 1
10
1457.590215
20
899.175062
11
1451.240828
21
891.080078
0
LINE
8
Layer 1
10
1451.240828
20
891.080078
11
1445.270000
21
882.727000
0
LINE
8
Layer 1
10
1445.270000
20
882.727000
11
1437.573437
21
871.698922
0
LINE
8
Layer 1
10
1437.573437
20
871.698922
11
1431.150000
21
861.732375
0
LINE
8
Layer 1
10
1431.150000
20
861.732375
11
1428.282695
21
856.859451
0
LINE
8
Layer 1
10
1428.282695
20
856.859451
11
1425.574062
21
851.906641
0
LINE
8
Layer 1
10
1425.574062
20
851.906641
11
1422.970898
21
846.758854
0
LINE
8
Layer 1
10
1422.970898
20
846.758854
11
1420.420000
21
841.301000
0
LINE
8
Layer 1
10
1420.420000
20
841.301000
11
1572.560000
21
841.301000
0
LINE
8
Layer 1
10
1572.560000
20
841.301000
11
1572.560000
21
841.301000
0
LINE
8
Layer 1
10
2614.210000
20
874.438000
11
2619.200332
21
874.533811
0
LINE
8
Layer 1
10
2619.200332
20
874.533811
11
2623.926406
21
874.921172
0
LINE
8
Layer 1
10
2623.926406
20
874.921172
11
2626.151711
21
875.271026
0
LINE
8
Layer 1
10
2626.151711
20
875.271026
11
2628.264590
21
875.749979
0
LINE
8
Layer 1
10
2628.264590
20
875.749979
11
2630.249587
21
876.376766
0
LINE
8
Layer 1
10
2630.249587
20
876.376766
11
2632.091250
21
877.170125
0
LINE
8
Layer 1
10
2632.091250
20
877.170125
11
2633.774124
21
878.148793
0
LINE
8
Layer 1
10
2633.774124
20
878.148793
11
2635.282754
21
879.331506
0
LINE
8
Layer 1
10
2635.282754
20
879.331506
11
2636.601687
21
880.737001
0
LINE
8
Layer 1
10
2636.601687
20
880.737001
11
2637.715469
21
882.384016
0
LINE
8
Layer 1
10
2637.715469
20
882.384016
11
2638.608645
21
884.291286
0
LINE
8
Layer 1
10
2638.608645
20
884.291286
11
2639.265762
21
886.477549
0
LINE
8
Layer 1
10
2639.265762
20
886.477549
11
2639.671365
21
888.961541
0
LINE
8
Layer 1
10
2639.671365
20
888.961541
11
2639.810000
21
891.762000
0
LINE
8
Layer 1
10
2639.810000
20
891.762000
11
2639.663491
21
894.166147
0
LINE
8
Layer 1
10
2639.663491
20
894.166147
11
2639.237930
21
896.303145
0
LINE
8
Layer 1
10
2639.237930
20
896.303145
11
2638.554263
21
898.188453
0
LINE
8
Layer 1
10
2638.554263
20
898.188453
11
2637.633438
21
899.837531
0
LINE
8
Layer 1
10
2637.633438
20
899.837531
11
2636.496401
21
901.265840
0
LINE
8
Layer 1
10
2636.496401
20
901.265840
11
2635.164102
21
902.488840
0
LINE
8
Layer 1
10
2635.164102
20
902.488840
11
2633.657485
21
903.521990
0
LINE
8
Layer 1
10
2633.657485
20
903.521990
11
2631.997500
21
904.380750
0
LINE
8
Layer 1
10
2631.997500
20
904.380750
11
2630.205093
21
905.080581
0
LINE
8
Layer 1
10
2630.205093
20
905.080581
11
2628.301211
21
905.636941
0
LINE
8
Layer 1
10
2628.301211
20
905.636941
11
2624.242812
21
906.381094
0
LINE
8
Layer 1
10
2624.242812
20
906.381094
11
2619.989883
21
906.736887
0
LINE
8
Layer 1
10
2619.989883
20
906.736887
11
2615.710000
21
906.828000
0
LINE
8
Layer 1
10
2615.710000
20
906.828000
11
2593.870000
21
906.828000
0
LINE
8
Layer 1
10
2593.870000
20
906.828000
11
2593.870000
21
874.438000
0
LINE
8
Layer 1
10
2593.870000
20
874.438000
11
2614.210000
21
874.438000
0
LINE
8
Layer 1
10
2593.870000
20
811.926000
11
2575.790000
21
811.926000
0
LINE
8
Layer 1
10
2575.790000
20
811.926000
11
2575.790000
21
921.887000
0
LINE
8
Layer 1
10
2575.790000
20
921.887000
11
2617.220000
21
921.887000
0
LINE
8
Layer 1
10
2617.220000
20
921.887000
11
2622.012314
21
921.780050
0
LINE
8
Layer 1
10
2622.012314
20
921.780050
11
2626.503516
21
921.454771
0
LINE
8
Layer 1
10
2626.503516
20
921.454771
11
2630.692490
21
920.904526
0
LINE
8
Layer 1
10
2630.692490
20
920.904526
11
2634.578125
21
920.122672
0
LINE
8
Layer 1
10
2634.578125
20
920.122672
11
2638.159307
21
919.102570
0
LINE
8
Layer 1
10
2638.159307
20
919.102570
11
2641.434922
21
917.837580
0
LINE
8
Layer 1
10
2641.434922
20
917.837580
11
2644.403857
21
916.321062
0
LINE
8
Layer 1
10
2644.403857
20
916.321062
11
2647.065000
21
914.546375
0
LINE
8
Layer 1
10
2647.065000
20
914.546375
11
2649.417236
21
912.506880
0
LINE
8
Layer 1
10
2649.417236
20
912.506880
11
2651.459453
21
910.195936
0
LINE
8
Layer 1
10
2651.459453
20
910.195936
11
2653.190537
21
907.606903
0
LINE
8
Layer 1
10
2653.190537
20
907.606903
11
2654.609375
21
904.733141
0
LINE
8
Layer 1
10
2654.609375
20
904.733141
11
2655.714854
21
901.568010
0
LINE
8
Layer 1
10
2655.714854
20
901.568010
11
2656.505859
21
898.104869
0
LINE
8
Layer 1
10
2656.505859
20
898.104869
11
2656.981279
21
894.337079
0
LINE
8
Layer 1
10
2656.981279
20
894.337079
11
2657.140000
21
890.258000
0
LINE
8
Layer 1
10
2657.140000
20
890.258000
11
2657.000627
21
886.593834
0
LINE
8
Layer 1
10
2657.000627
20
886.593834
11
2656.589863
21
883.218500
0
LINE
8
Layer 1
10
2656.589863
20
883.218500
11
2655.918738
21
880.120994
0
LINE
8
Layer 1
10
2655.918738
20
880.120994
11
2654.998281
21
877.290312
0
LINE
8
Layer 1
10
2654.998281
20
877.290312
11
2653.839524
21
874.715451
0
LINE
8
Layer 1
10
2653.839524
20
874.715451
11
2652.453496
21
872.385406
0
LINE
8
Layer 1
10
2652.453496
20
872.385406
11
2650.851228
21
870.289174
0
LINE
8
Layer 1
10
2650.851228
20
870.289174
11
2649.043750
21
868.415750
0
LINE
8
Layer 1
10
2649.043750
20
868.415750
11
2647.042092
21
866.754131
0
LINE
8
Layer 1
10
2647.042092
20
866.754131
11
2644.857285
21
865.293312
0
LINE
8
Layer 1
10
2644.857285
20
865.293312
11
2642.500359
21
864.022291
0
LINE
8
Layer 1
10
2642.500359
20
864.022291
11
2639.982344
21
862.930062
0
LINE
8
Layer 1
10
2639.982344
20
862.930062
11
2637.314270
21
862.005623
0
LINE
8
Layer 1
10
2637.314270
20
862.005623
11
2634.507168
21
861.237969
0
LINE
8
Layer 1
10
2634.507168
20
861.237969
11
2631.572068
21
860.616096
0
LINE
8
Layer 1
10
2631.572068
20
860.616096
11
2628.520000
21
860.129000
0
LINE
8
Layer 1
10
2628.520000
20
860.129000
11
2659.390000
21
811.926000
0
LINE
8
Layer 1
10
2659.390000
20
811.926000
11
2639.060000
21
811.926000
0
LINE
8
Layer 1
10
2639.060000
20
811.926000
11
2610.440000
21
859.379000
0
LINE
8
Layer 1
10
2610.440000
20
859.379000
11
2593.120000
21
859.379000
0
LINE
8
Layer 1
10
2593.120000
20
859.379000
11
2593.870000
21
811.926000
0
LINE
8
Layer 1
10
2593.870000
20
811.926000
11
2593.870000
21
811.926000
0
LINE
8
Layer 1
10
2613.450000
20
951.262000
11
2609.452555
21
951.163319
0
LINE
8
Layer 1
10
2609.452555
20
951.163319
11
2605.512629
21
950.869663
0
LINE
8
Layer 1
10
2605.512629
20
950.869663
11
2601.634773
21
950.384615
0
LINE
8
Layer 1
10
2601.634773
20
950.384615
11
2597.823535
21
949.711756
0
LINE
8
Layer 1
10
2597.823535
20
949.711756
11
2594.083467
21
948.854669
0
LINE
8
Layer 1
10
2594.083467
20
948.854669
11
2590.419119
21
947.816936
0
LINE
8
Layer 1
10
2590.419119
20
947.816936
11
2586.835040
21
946.602139
0
LINE
8
Layer 1
10
2586.835040
20
946.602139
11
2583.335781
21
945.213859
0
LINE
8
Layer 1
10
2583.335781
20
945.213859
11
2579.925893
21
943.655680
0
LINE
8
Layer 1
10
2579.925893
20
943.655680
11
2576.609924
21
941.931183
0
LINE
8
Layer 1
10
2576.609924
20
941.931183
11
2573.392426
21
940.043951
0
LINE
8
Layer 1
10
2573.392426
20
940.043951
11
2570.277949
21
937.997564
0
LINE
8
Layer 1
10
2570.277949
20
937.997564
11
2567.271043
21
935.795607
0
LINE
8
Layer 1
10
2567.271043
20
935.795607
11
2564.376257
21
933.441659
0
LINE
8
Layer 1
10
2564.376257
20
933.441659
11
2561.598143
21
930.939305
0
LINE
8
Layer 1
10
2561.598143
20
930.939305
11
2558.941250
21
928.292125
0
LINE
8
Layer 1
10
2558.941250
20
928.292125
11
2556.410128
21
925.503702
0
LINE
8
Layer 1
10
2556.410128
20
925.503702
11
2554.009329
21
922.577618
0
LINE
8
Layer 1
10
2554.009329
20
922.577618
11
2551.743401
21
919.517455
0
LINE
8
Layer 1
10
2551.743401
20
919.517455
11
2549.616895
21
916.326795
0
LINE
8
Layer 1
10
2549.616895
20
916.326795
11
2547.634361
21
913.009220
0
LINE
8
Layer 1
10
2547.634361
20
913.009220
11
2545.800349
21
909.568313
0
LINE
8
Layer 1
10
2545.800349
20
909.568313
11
2544.119410
21
906.007655
0
LINE
8
Layer 1
10
2544.119410
20
906.007655
11
2542.596094
21
902.330828
0
LINE
8
Layer 1
10
2542.596094
20
902.330828
11
2541.234950
21
898.541415
0
LINE
8
Layer 1
10
2541.234950
20
898.541415
11
2540.040530
21
894.642998
0
LINE
8
Layer 1
10
2540.040530
20
894.642998
11
2539.017383
21
890.639158
0
LINE
8
Layer 1
10
2539.017383
20
890.639158
11
2538.170059
21
886.533479
0
LINE
8
Layer 1
10
2538.170059
20
886.533479
11
2537.503108
21
882.329541
0
LINE
8
Layer 1
10
2537.503108
20
882.329541
11
2537.021082
21
878.030927
0
LINE
8
Layer 1
10
2537.021082
20
878.030927
11
2536.728529
21
873.641219
0
LINE
8
Layer 1
10
2536.728529
20
873.641219
11
2536.630000
21
869.164000
0
LINE
8
Layer 1
10
2536.630000
20
869.164000
11
2536.715700
21
864.952862
0
LINE
8
Layer 1
10
2536.715700
20
864.952862
11
2536.971423
21
860.795503
0
LINE
8
Layer 1
10
2536.971423
20
860.795503
11
2537.395102
21
856.697163
0
LINE
8
Layer 1
10
2537.395102
20
856.697163
11
2537.984668
21
852.663084
0
LINE
8
Layer 1
10
2537.984668
20
852.663084
11
2538.738055
21
848.698505
0
LINE
8
Layer 1
10
2538.738055
20
848.698505
11
2539.653196
21
844.808666
0
LINE
8
Layer 1
10
2539.653196
20
844.808666
11
2540.728023
21
840.998809
0
LINE
8
Layer 1
10
2540.728023
20
840.998809
11
2541.960469
21
837.274172
0
LINE
8
Layer 1
10
2541.960469
20
837.274172
11
2543.348466
21
833.639997
0
LINE
8
Layer 1
10
2543.348466
20
833.639997
11
2544.889949
21
830.101523
0
LINE
8
Layer 1
10
2544.889949
20
830.101523
11
2546.582848
21
826.663992
0
LINE
8
Layer 1
10
2546.582848
20
826.663992
11
2548.425098
21
823.332643
0
LINE
8
Layer 1
10
2548.425098
20
823.332643
11
2550.414630
21
820.112716
0
LINE
8
Layer 1
10
2550.414630
20
820.112716
11
2552.549377
21
817.009452
0
LINE
8
Layer 1
10
2552.549377
20
817.009452
11
2554.827273
21
814.028092
0
LINE
8
Layer 1
10
2554.827273
20
814.028092
11
2557.246250
21
811.173875
0
LINE
8
Layer 1
10
2557.246250
20
811.173875
11
2559.804240
21
808.452042
0
LINE
8
Layer 1
10
2559.804240
20
808.452042
11
2562.499177
21
805.867833
0
LINE
8
Layer 1
10
2562.499177
20
805.867833
11
2565.328993
21
803.426488
0
LINE
8
Layer 1
10
2565.328993
20
803.426488
11
2568.291621
21
801.133248
0
LINE
8
Layer 1
10
2568.291621
20
801.133248
11
2571.384994
21
798.993353
0
LINE
8
Layer 1
10
2571.384994
20
798.993353
11
2574.607043
21
797.012043
0
LINE
8
Layer 1
10
2574.607043
20
797.012043
11
2577.955703
21
795.194559
0
LINE
8
Layer 1
10
2577.955703
20
795.194559
11
2581.428906
21
793.546141
0
LINE
8
Layer 1
10
2581.428906
20
793.546141
11
2585.024585
21
792.072028
0
LINE
8
Layer 1
10
2585.024585
20
792.072028
11
2588.740671
21
790.777463
0
LINE
8
Layer 1
10
2588.740671
20
790.777463
11
2592.575099
21
789.667684
0
LINE
8
Layer 1
10
2592.575099
20
789.667684
11
2596.525801
21
788.747932
0
LINE
8
Layer 1
10
2596.525801
20
788.747932
11
2600.590709
21
788.023447
0
LINE
8
Layer 1
10
2600.590709
20
788.023447
11
2604.767756
21
787.499470
0
LINE
8
Layer 1
10
2604.767756
20
787.499470
11
2609.054876
21
787.181241
0
LINE
8
Layer 1
10
2609.054876
20
787.181241
11
2613.450000
21
787.074000
0
LINE
8
Layer 1
10
2613.450000
20
787.074000
11
2617.445293
21
787.172681
0
LINE
8
Layer 1
10
2617.445293
20
787.172681
11
2621.378948
21
787.466335
0
LINE
8
Layer 1
10
2621.378948
20
787.466335
11
2625.246688
21
787.951379
0
LINE
8
Layer 1
10
2625.246688
20
787.951379
11
2629.044238
21
788.624229
0
LINE
8
Layer 1
10
2629.044238
20
788.624229
11
2632.767323
21
789.481301
0
LINE
8
Layer 1
10
2632.767323
20
789.481301
11
2636.411667
21
790.519011
0
LINE
8
Layer 1
10
2636.411667
20
790.519011
11
2639.972995
21
791.733778
0
LINE
8
Layer 1
10
2639.972995
20
791.733778
11
2643.447031
21
793.122016
0
LINE
8
Layer 1
10
2643.447031
20
793.122016
11
2646.829500
21
794.680142
0
LINE
8
Layer 1
10
2646.829500
20
794.680142
11
2650.116125
21
796.404573
0
LINE
8
Layer 1
10
2650.116125
20
796.404573
11
2653.302633
21
798.291724
0
LINE
8
Layer 1
10
2653.302633
20
798.291724
11
2656.384746
21
800.338014
0
LINE
8
Layer 1
10
2656.384746
20
800.338014
11
2659.358190
21
802.539857
0
LINE
8
Layer 1
10
2659.358190
20
802.539857
11
2662.218689
21
804.893671
0
LINE
8
Layer 1
10
2662.218689
20
804.893671
11
2664.961967
21
807.395871
0
LINE
8
Layer 1
10
2664.961967
20
807.395871
11
2667.583750
21
810.042875
0
LINE
8
Layer 1
10
2667.583750
20
810.042875
11
2670.079761
21
812.831099
0
LINE
8
Layer 1
10
2670.079761
20
812.831099
11
2672.445725
21
815.756958
0
LINE
8
Layer 1
10
2672.445725
20
815.756958
11
2674.677367
21
818.816871
0
LINE
8
Layer 1
10
2674.677367
20
818.816871
11
2676.770410
21
822.007252
0
LINE
8
Layer 1
10
2676.770410
20
822.007252
11
2678.720580
21
825.324519
0
LINE
8
Layer 1
10
2678.720580
20
825.324519
11
2680.523601
21
828.765088
0
LINE
8
Layer 1
10
2680.523601
20
828.765088
11
2682.175197
21
832.325375
0
LINE
8
Layer 1
10
2682.175197
20
832.325375
11
2683.671094
21
836.001797
0
LINE
8
Layer 1
10
2683.671094
20
836.001797
11
2685.007014
21
839.790770
0
LINE
8
Layer 1
10
2685.007014
20
839.790770
11
2686.178684
21
843.688711
0
LINE
8
Layer 1
10
2686.178684
20
843.688711
11
2687.181827
21
847.692036
0
LINE
8
Layer 1
10
2687.181827
20
847.692036
11
2688.012168
21
851.797162
0
LINE
8
Layer 1
10
2688.012168
20
851.797162
11
2688.665431
21
856.000505
0
LINE
8
Layer 1
10
2688.665431
20
856.000505
11
2689.137341
21
860.298481
0
LINE
8
Layer 1
10
2689.137341
20
860.298481
11
2689.423623
21
864.687507
0
LINE
8
Layer 1
10
2689.423623
20
864.687507
11
2689.520000
21
869.164000
0
LINE
8
Layer 1
10
2689.520000
20
869.164000
11
2689.489609
21
873.641219
0
LINE
8
Layer 1
10
2689.489609
20
873.641219
11
2689.260938
21
878.030927
0
LINE
8
Layer 1
10
2689.260938
20
878.030927
11
2688.838672
21
882.329541
0
LINE
8
Layer 1
10
2688.838672
20
882.329541
11
2688.227500
21
886.533479
0
LINE
8
Layer 1
10
2688.227500
20
886.533479
11
2687.432109
21
890.639158
0
LINE
8
Layer 1
10
2687.432109
20
890.639158
11
2686.457187
21
894.642998
0
LINE
8
Layer 1
10
2686.457187
20
894.642998
11
2685.307422
21
898.541415
0
LINE
8
Layer 1
10
2685.307422
20
898.541415
11
2683.987500
21
902.330828
0
LINE
8
Layer 1
10
2683.987500
20
902.330828
11
2682.502109
21
906.007655
0
LINE
8
Layer 1
10
2682.502109
20
906.007655
11
2680.855937
21
909.568313
0
LINE
8
Layer 1
10
2680.855937
20
909.568313
11
2679.053672
21
913.009220
0
LINE
8
Layer 1
10
2679.053672
20
913.009220
11
2677.100000
21
916.326795
0
LINE
8
Layer 1
10
2677.100000
20
916.326795
11
2674.999609
21
919.517455
0
LINE
8
Layer 1
10
2674.999609
20
919.517455
11
2672.757187
21
922.577618
0
LINE
8
Layer 1
10
2672.757187
20
922.577618
11
2670.377422
21
925.503702
0
LINE
8
Layer 1
10
2670.377422
20
925.503702
11
2667.865000
21
928.292125
0
LINE
8
Layer 1
10
2667.865000
20
928.292125
11
2665.224609
21
930.939305
0
LINE
8
Layer 1
10
2665.224609
20
930.939305
11
2662.460938
21
933.441659
0
LINE
8
Layer 1
10
2662.460938
20
933.441659
11
2659.578672
21
935.795607
0
LINE
8
Layer 1
10
2659.578672
20
935.795607
11
2656.582500
21
937.997564
0
LINE
8
Layer 1
10
2656.582500
20
937.997564
11
2653.477109
21
940.043951
0
LINE
8
Layer 1
10
2653.477109
20
940.043951
11
2650.267187
21
941.931183
0
LINE
8
Layer 1
10
2650.267187
20
941.931183
11
2646.957422
21
943.655680
0
LINE
8
Layer 1
10
2646.957422
20
943.655680
11
2643.552500
21
945.213859
0
LINE
8
Layer 1
10
2643.552500
20
945.213859
11
2640.057109
21
946.602139
0
LINE
8
Layer 1
10
2640.057109
20
946.602139
11
2636.475937
21
947.816936
0
LINE
8
Layer 1
10
2636.475937
20
947.816936
11
2632.813672
21
948.854669
0
LINE
8
Layer 1
10
2632.813672
20
948.854669
11
2629.075000
21
949.711756
0
LINE
8
Layer 1
10
2629.075000
20
949.711756
11
2625.264609
21
950.384615
0
LINE
8
Layer 1
10
2625.264609
20
950.384615
11
2621.387187
21
950.869663
0
LINE
8
Layer 1
10
2621.387187
20
950.869663
11
2617.447422
21
951.163319
0
LINE
8
Layer 1
10
2617.447422
20
951.163319
11
2613.450000
21
951.262000
0
LINE
8
Layer 1
10
2613.450000
20
951.262000
11
2613.450000
21
951.262000
0
LINE
8
Layer 1
10
2613.450000
20
768.996000
11
2608.133030
21
769.120875
0
LINE
8
Layer 1
10
2608.133030
20
769.120875
11
2602.917563
21
769.491917
0
LINE
8
Layer 1
10
2602.917563
20
769.491917
11
2597.808012
21
770.103748
0
LINE
8
Layer 1
10
2597.808012
20
770.103748
11
2592.808789
21
770.950992
0
LINE
8
Layer 1
10
2592.808789
20
770.950992
11
2587.924307
21
772.028272
0
LINE
8
Layer 1
10
2587.924307
20
772.028272
11
2583.158979
21
773.330212
0
LINE
8
Layer 1
10
2583.158979
20
773.330212
11
2578.517219
21
774.851434
0
LINE
8
Layer 1
10
2578.517219
20
774.851434
11
2574.003437
21
776.586562
0
LINE
8
Layer 1
10
2574.003437
20
776.586562
11
2569.622049
21
778.530220
0
LINE
8
Layer 1
10
2569.622049
20
778.530220
11
2565.377466
21
780.677030
0
LINE
8
Layer 1
10
2565.377466
20
780.677030
11
2561.274101
21
783.021616
0
LINE
8
Layer 1
10
2561.274101
20
783.021616
11
2557.316367
21
785.558602
0
LINE
8
Layer 1
10
2557.316367
20
785.558602
11
2553.508677
21
788.282609
0
LINE
8
Layer 1
10
2553.508677
20
788.282609
11
2549.855444
21
791.188263
0
LINE
8
Layer 1
10
2549.855444
20
791.188263
11
2546.361081
21
794.270185
0
LINE
8
Layer 1
10
2546.361081
20
794.270185
11
2543.030000
21
797.523000
0
LINE
8
Layer 1
10
2543.030000
20
797.523000
11
2539.866614
21
800.941330
0
LINE
8
Layer 1
10
2539.866614
20
800.941330
11
2536.875337
21
804.519800
0
LINE
8
Layer 1
10
2536.875337
20
804.519800
11
2534.060580
21
808.253031
0
LINE
8
Layer 1
10
2534.060580
20
808.253031
11
2531.426758
21
812.135648
0
LINE
8
Layer 1
10
2531.426758
20
812.135648
11
2528.978282
21
816.162274
0
LINE
8
Layer 1
10
2528.978282
20
816.162274
11
2526.719565
21
820.327532
0
LINE
8
Layer 1
10
2526.719565
20
820.327532
11
2524.655021
21
824.626046
0
LINE
8
Layer 1
10
2524.655021
20
824.626046
11
2522.789062
21
829.052437
0
LINE
8
Layer 1
10
2522.789062
20
829.052437
11
2521.126102
21
833.601331
0
LINE
8
Layer 1
10
2521.126102
20
833.601331
11
2519.670552
21
838.267351
0
LINE
8
Layer 1
10
2519.670552
20
838.267351
11
2518.426826
21
843.045118
0
LINE
8
Layer 1
10
2518.426826
20
843.045118
11
2517.399336
21
847.929258
0
LINE
8
Layer 1
10
2517.399336
20
847.929258
11
2516.592496
21
852.914392
0
LINE
8
Layer 1
10
2516.592496
20
852.914392
11
2516.010718
21
857.995146
0
LINE
8
Layer 1
10
2516.010718
20
857.995146
11
2515.658415
21
863.166140
0
LINE
8
Layer 1
10
2515.658415
20
863.166140
11
2515.540000
21
868.422000
0
LINE
8
Layer 1
10
2515.540000
20
868.422000
11
2515.671243
21
874.008462
0
LINE
8
Layer 1
10
2515.671243
20
874.008462
11
2516.060376
21
879.468019
0
LINE
8
Layer 1
10
2516.060376
20
879.468019
11
2516.700502
21
884.797362
0
LINE
8
Layer 1
10
2516.700502
20
884.797362
11
2517.584727
21
889.993184
0
LINE
8
Layer 1
10
2517.584727
20
889.993184
11
2518.706153
21
895.052175
0
LINE
8
Layer 1
10
2518.706153
20
895.052175
11
2520.057886
21
899.971030
0
LINE
8
Layer 1
10
2520.057886
20
899.971030
11
2521.633029
21
904.746439
0
LINE
8
Layer 1
10
2521.633029
20
904.746439
11
2523.424687
21
909.375094
0
LINE
8
Layer 1
10
2523.424687
20
909.375094
11
2525.425965
21
913.853687
0
LINE
8
Layer 1
10
2525.425965
20
913.853687
11
2527.629966
21
918.178912
0
LINE
8
Layer 1
10
2527.629966
20
918.178912
11
2530.029794
21
922.347458
0
LINE
8
Layer 1
10
2530.029794
20
922.347458
11
2532.618555
21
926.356020
0
LINE
8
Layer 1
10
2532.618555
20
926.356020
11
2535.389351
21
930.201287
0
LINE
8
Layer 1
10
2535.389351
20
930.201287
11
2538.335288
21
933.879954
0
LINE
8
Layer 1
10
2538.335288
20
933.879954
11
2541.449470
21
937.388711
0
LINE
8
Layer 1
10
2541.449470
20
937.388711
11
2544.725000
21
940.724250
0
LINE
8
Layer 1
10
2544.725000
20
940.724250
11
2548.154984
21
943.883264
0
LINE
8
Layer 1
10
2548.154984
20
943.883264
11
2551.732524
21
946.862445
0
LINE
8
Layer 1
10
2551.732524
20
946.862445
11
2555.450727
21
949.658484
0
LINE
8
Layer 1
10
2555.450727
20
949.658484
11
2559.302695
21
952.268074
0
LINE
8
Layer 1
10
2559.302695
20
952.268074
11
2563.281534
21
954.687907
0
LINE
8
Layer 1
10
2563.281534
20
954.687907
11
2567.380347
21
956.914674
0
LINE
8
Layer 1
10
2567.380347
20
956.914674
11
2571.592238
21
958.945068
0
LINE
8
Layer 1
10
2571.592238
20
958.945068
11
2575.910313
21
960.775781
0
LINE
8
Layer 1
10
2575.910313
20
960.775781
11
2580.327674
21
962.403505
0
LINE
8
Layer 1
10
2580.327674
20
962.403505
11
2584.837427
21
963.824931
0
LINE
8
Layer 1
10
2584.837427
20
963.824931
11
2589.432675
21
965.036752
0
LINE
8
Layer 1
10
2589.432675
20
965.036752
11
2594.106523
21
966.035660
0
LINE
8
Layer 1
10
2594.106523
20
966.035660
11
2598.852076
21
966.818347
0
LINE
8
Layer 1
10
2598.852076
20
966.818347
11
2603.662437
21
967.381504
0
LINE
8
Layer 1
10
2603.662437
20
967.381504
11
2608.530710
21
967.721825
0
LINE
8
Layer 1
10
2608.530710
20
967.721825
11
2613.450000
21
967.836000
0
LINE
8
Layer 1
10
2613.450000
20
967.836000
11
2618.301181
21
967.719662
0
LINE
8
Layer 1
10
2618.301181
20
967.719662
11
2623.105657
21
967.373133
0
LINE
8
Layer 1
10
2623.105657
20
967.373133
11
2627.856391
21
966.800139
0
LINE
8
Layer 1
10
2627.856391
20
966.800139
11
2632.546348
21
966.004406
0
LINE
8
Layer 1
10
2632.546348
20
966.004406
11
2637.168489
21
964.989662
0
LINE
8
Layer 1
10
2637.168489
20
964.989662
11
2641.715779
21
963.759633
0
LINE
8
Layer 1
10
2641.715779
20
963.759633
11
2646.181180
21
962.318045
0
LINE
8
Layer 1
10
2646.181180
20
962.318045
11
2650.557656
21
960.668625
0
LINE
8
Layer 1
10
2650.557656
20
960.668625
11
2654.838170
21
958.815100
0
LINE
8
Layer 1
10
2654.838170
20
958.815100
11
2659.015686
21
956.761195
0
LINE
8
Layer 1
10
2659.015686
20
956.761195
11
2663.083166
21
954.510639
0
LINE
8
Layer 1
10
2663.083166
20
954.510639
11
2667.033574
21
952.067156
0
LINE
8
Layer 1
10
2667.033574
20
952.067156
11
2670.859873
21
949.434475
0
LINE
8
Layer 1
10
2670.859873
20
949.434475
11
2674.555027
21
946.616320
0
LINE
8
Layer 1
10
2674.555027
20
946.616320
11
2678.111998
21
943.616420
0
LINE
8
Layer 1
10
2678.111998
20
943.616420
11
2681.523750
21
940.438500
0
LINE
8
Layer 1
10
2681.523750
20
940.438500
11
2684.783246
21
937.086287
0
LINE
8
Layer 1
10
2684.783246
20
937.086287
11
2687.883450
21
933.563508
0
LINE
8
Layer 1
10
2687.883450
20
933.563508
11
2690.817324
21
929.873889
0
LINE
8
Layer 1
10
2690.817324
20
929.873889
11
2693.577832
21
926.021156
0
LINE
8
Layer 1
10
2693.577832
20
926.021156
11
2696.157937
21
922.009037
0
LINE
8
Layer 1
10
2696.157937
20
922.009037
11
2698.550603
21
917.841258
0
LINE
8
Layer 1
10
2698.550603
20
917.841258
11
2700.748792
21
913.521545
0
LINE
8
Layer 1
10
2700.748792
20
913.521545
11
2702.745469
21
909.053625
0
LINE
8
Layer 1
10
2702.745469
20
909.053625
11
2704.533595
21
904.441225
0
LINE
8
Layer 1
10
2704.533595
20
904.441225
11
2706.106135
21
899.688070
0
LINE
8
Layer 1
10
2706.106135
20
899.688070
11
2707.456052
21
894.797889
0
LINE
8
Layer 1
10
2707.456052
20
894.797889
11
2708.576309
21
889.774406
0
LINE
8
Layer 1
10
2708.576309
20
889.774406
11
2709.459868
21
884.621350
0
LINE
8
Layer 1
10
2709.459868
20
884.621350
11
2710.099695
21
879.342445
0
LINE
8
Layer 1
10
2710.099695
20
879.342445
11
2710.488751
21
873.941420
0
LINE
8
Layer 1
10
2710.488751
20
873.941420
11
2710.620000
21
868.422000
0
LINE
8
Layer 1
10
2710.620000
20
868.422000
11
2710.556866
21
862.900786
0
LINE
8
Layer 1
10
2710.556866
20
862.900786
11
2710.231531
21
857.498124
0
LINE
8
Layer 1
10
2710.231531
20
857.498124
11
2709.651031
21
852.217734
0
LINE
8
Layer 1
10
2709.651031
20
852.217734
11
2708.822402
21
847.063336
0
LINE
8
Layer 1
10
2708.822402
20
847.063336
11
2707.752683
21
842.038650
0
LINE
8
Layer 1
10
2707.752683
20
842.038650
11
2706.448909
21
837.147396
0
LINE
8
Layer 1
10
2706.448909
20
837.147396
11
2704.918117
21
832.393293
0
LINE
8
Layer 1
10
2704.918117
20
832.393293
11
2703.167344
21
827.780062
0
LINE
8
Layer 1
10
2703.167344
20
827.780062
11
2701.203626
21
823.311424
0
LINE
8
Layer 1
10
2701.203626
20
823.311424
11
2699.034001
21
818.991097
0
LINE
8
Layer 1
10
2699.034001
20
818.991097
11
2696.665506
21
814.822801
0
LINE
8
Layer 1
10
2696.665506
20
814.822801
11
2694.105176
21
810.810258
0
LINE
8
Layer 1
10
2694.105176
20
810.810258
11
2691.360049
21
806.957186
0
LINE
8
Layer 1
10
2691.360049
20
806.957186
11
2688.437161
21
803.267306
0
LINE
8
Layer 1
10
2688.437161
20
803.267306
11
2685.343549
21
799.744337
0
LINE
8
Layer 1
10
2685.343549
20
799.744337
11
2682.086250
21
796.392000
0
LINE
8
Layer 1
10
2682.086250
20
796.392000
11
2678.672301
21
793.214015
0
LINE
8
Layer 1
10
2678.672301
20
793.214015
11
2675.108738
21
790.214101
0
LINE
8
Layer 1
10
2675.108738
20
790.214101
11
2671.402598
21
787.395978
0
LINE
8
Layer 1
10
2671.402598
20
787.395978
11
2667.560918
21
784.763367
0
LINE
8
Layer 1
10
2667.560918
20
784.763367
11
2663.590735
21
782.319988
0
LINE
8
Layer 1
10
2663.590735
20
782.319988
11
2659.499084
21
780.069560
0
LINE
8
Layer 1
10
2659.499084
20
780.069560
11
2655.293004
21
778.015803
0
LINE
8
Layer 1
10
2655.293004
20
778.015803
11
2650.979531
21
776.162437
0
LINE
8
Layer 1
10
2650.979531
20
776.162437
11
2646.565702
21
774.513183
0
LINE
8
Layer 1
10
2646.565702
20
774.513183
11
2642.058552
21
773.071761
0
LINE
8
Layer 1
10
2642.058552
20
773.071761
11
2637.465120
21
771.841889
0
LINE
8
Layer 1
10
2637.465120
20
771.841889
11
2632.792441
21
770.827289
0
LINE
8
Layer 1
10
2632.792441
20
770.827289
11
2628.047553
21
770.031680
0
LINE
8
Layer 1
10
2628.047553
20
770.031680
11
2623.237493
21
769.458782
0
LINE
8
Layer 1
10
2623.237493
20
769.458782
11
2618.369296
21
769.112316
0
LINE
8
Layer 1
10
2618.369296
20
769.112316
11
2613.450000
21
768.996000
 0 
ENDSEC
 0 
EOF